%TF.GenerationSoftware,KiCad,Pcbnew,8.0.8*%
%TF.CreationDate,2025-04-04T13:43:42-04:00*%
%TF.ProjectId,bike_computer,62696b65-5f63-46f6-9d70-757465722e6b,0*%
%TF.SameCoordinates,Original*%
%TF.FileFunction,Copper,L1,Top*%
%TF.FilePolarity,Positive*%
%FSLAX46Y46*%
G04 Gerber Fmt 4.6, Leading zero omitted, Abs format (unit mm)*
G04 Created by KiCad (PCBNEW 8.0.8) date 2025-04-04 13:43:42*
%MOMM*%
%LPD*%
G01*
G04 APERTURE LIST*
%TA.AperFunction,ComponentPad*%
%ADD10C,1.400000*%
%TD*%
%TA.AperFunction,ComponentPad*%
%ADD11C,2.000000*%
%TD*%
%TA.AperFunction,ComponentPad*%
%ADD12R,1.800000X1.800000*%
%TD*%
%TA.AperFunction,ComponentPad*%
%ADD13O,1.800000X1.800000*%
%TD*%
%TA.AperFunction,ComponentPad*%
%ADD14R,1.500000X1.500000*%
%TD*%
%TA.AperFunction,ComponentPad*%
%ADD15C,1.500000*%
%TD*%
%TA.AperFunction,ComponentPad*%
%ADD16C,1.600000*%
%TD*%
%TA.AperFunction,ComponentPad*%
%ADD17O,1.600000X1.600000*%
%TD*%
%TA.AperFunction,ComponentPad*%
%ADD18R,1.524000X1.524000*%
%TD*%
%TA.AperFunction,ComponentPad*%
%ADD19R,1.600000X1.600000*%
%TD*%
%TA.AperFunction,ComponentPad*%
%ADD20C,1.200000*%
%TD*%
%TA.AperFunction,ComponentPad*%
%ADD21C,1.524000*%
%TD*%
%TA.AperFunction,Conductor*%
%ADD22C,0.200000*%
%TD*%
G04 APERTURE END LIST*
D10*
%TO.P,C5,1*%
%TO.N,+3.3V*%
X81360000Y-64370000D03*
%TO.P,C5,2*%
%TO.N,GND*%
X83860000Y-64370000D03*
%TD*%
%TO.P,C2,1*%
%TO.N,Net-(U3-BYPASS)*%
X118320000Y-60450000D03*
%TO.P,C2,2*%
%TO.N,GND*%
X118320000Y-62950000D03*
%TD*%
%TO.P,C4,1*%
%TO.N,+3.3V*%
X154170000Y-106870000D03*
%TO.P,C4,2*%
%TO.N,GND*%
X154170000Y-104370000D03*
%TD*%
D11*
%TO.P,3.3V,1,1*%
%TO.N,+3.3V*%
X105540000Y-51350000D03*
%TD*%
D12*
%TO.P,U3,1,BYPASS*%
%TO.N,Net-(U3-BYPASS)*%
X122422000Y-60444000D03*
D13*
%TO.P,U3,2,nSHDN*%
%TO.N,nSHDN*%
X126222000Y-62144000D03*
%TO.P,U3,3,GND*%
%TO.N,GND*%
X122422000Y-63844000D03*
%TO.P,U3,4,Vin*%
%TO.N,Net-(U3-Vin)*%
X126222000Y-65544000D03*
%TO.P,U3,5,Vout*%
%TO.N,+3.3V*%
X122422000Y-67244000D03*
%TD*%
D14*
%TO.P,U4,1,VCC*%
%TO.N,+3.3V*%
X73834500Y-70562000D03*
D15*
%TO.P,U4,2,GND*%
%TO.N,GND*%
X73834500Y-73102000D03*
%TO.P,U4,3,CS*%
%TO.N,CS*%
X73834500Y-75642000D03*
%TO.P,U4,4,RESET_N*%
%TO.N,Net-(U4-RESET_N)*%
X73834500Y-78182000D03*
%TO.P,U4,5,DC/RS*%
%TO.N,Net-(U4-DC{slash}RS)*%
X73834500Y-80722000D03*
%TO.P,U4,6,SDI(MOSI)*%
%TO.N,Net-(U4-SDI(MOSI))*%
X73834500Y-83262000D03*
%TO.P,U4,7,SCK*%
%TO.N,Net-(U4-SCK)*%
X73834500Y-85802000D03*
%TO.P,U4,8,LED*%
%TO.N,Net-(U4-LED)*%
X73834500Y-88342000D03*
%TO.P,U4,9,SDO(MISO)*%
%TO.N,Net-(U4-SDO(MISO))*%
X73834500Y-90882000D03*
%TO.P,U4,10,T_CLK*%
%TO.N,Net-(U4-SCK)*%
X73834500Y-93422000D03*
%TO.P,U4,11,T_CS*%
%TO.N,Net-(U4-T_CS)*%
X73834500Y-95962000D03*
%TO.P,U4,12,T_DIN*%
%TO.N,Net-(U4-SDI(MOSI))*%
X73834500Y-98502000D03*
%TO.P,U4,13,T_DO*%
%TO.N,Net-(U4-SDO(MISO))*%
X73834500Y-101042000D03*
%TO.P,U4,14,T_IRQ_N*%
%TO.N,Net-(U4-T_IRQ_N)*%
X73834500Y-103582000D03*
D14*
%TO.P,U4,15,SD_CS*%
%TO.N,SD_CS*%
X177874500Y-83262000D03*
D15*
%TO.P,U4,16,SD_MOSI*%
%TO.N,Net-(U4-SDI(MOSI))*%
X177874500Y-85802000D03*
%TO.P,U4,17,SD_MISO*%
%TO.N,Net-(U4-SDO(MISO))*%
X177874500Y-88342000D03*
%TO.P,U4,18,SD_SCK*%
%TO.N,Net-(U4-SCK)*%
X177874500Y-90882000D03*
%TD*%
D10*
%TO.P,C6,1*%
%TO.N,+3.3V*%
X122250000Y-116370000D03*
%TO.P,C6,2*%
%TO.N,GND*%
X122250000Y-113870000D03*
%TD*%
D16*
%TO.P,R1,1*%
%TO.N,Net-(U5-OUT+)*%
X88490000Y-74840000D03*
D17*
%TO.P,R1,2*%
%TO.N,Net-(U7-IO19)*%
X98650000Y-74840000D03*
%TD*%
D18*
%TO.P,U5,1,V_USB*%
%TO.N,unconnected-(U5-V_USB-Pad1)*%
X83125000Y-122071000D03*
%TO.P,U5,2,GND_USB*%
%TO.N,unconnected-(U5-GND_USB-Pad2)*%
X97125000Y-122071000D03*
%TO.P,U5,3,B+*%
%TO.N,Net-(BT1-+)*%
X85665000Y-99071000D03*
%TO.P,U5,4,B-*%
%TO.N,Net-(BT1--)*%
X94585000Y-98961000D03*
%TO.P,U5,5,OUT+*%
%TO.N,Net-(U5-OUT+)*%
X83125000Y-99071000D03*
%TO.P,U5,6,OUT-*%
%TO.N,GND*%
X97125000Y-98961000D03*
%TD*%
D16*
%TO.P,R2,1*%
%TO.N,Net-(U7-IO19)*%
X98600000Y-66550000D03*
D17*
%TO.P,R2,2*%
%TO.N,GND*%
X88440000Y-66550000D03*
%TD*%
D10*
%TO.P,C1,1*%
%TO.N,+3.3V*%
X169100000Y-62710000D03*
%TO.P,C1,2*%
%TO.N,GND*%
X169100000Y-65210000D03*
%TD*%
D11*
%TO.P,GND,1,1*%
%TO.N,GND*%
X103475000Y-113277000D03*
%TD*%
D19*
%TO.P,C3,1*%
%TO.N,+3.3V*%
X111580000Y-51365113D03*
D16*
%TO.P,C3,2*%
%TO.N,GND*%
X111580000Y-49365113D03*
%TD*%
D18*
%TO.P,BT1,1,+*%
%TO.N,Net-(BT1-+)*%
X103317000Y-72361000D03*
%TO.P,BT1,2,-*%
%TO.N,Net-(BT1--)*%
X103317000Y-97761000D03*
%TD*%
D20*
%TO.P,SW1,4,4*%
%TO.N,unconnected-(SW1-Pad4)*%
X134750000Y-53210000D03*
%TO.P,SW1,5,5*%
%TO.N,Net-(U5-OUT+)*%
X134750000Y-50670000D03*
%TO.P,SW1,6,6*%
%TO.N,Net-(U3-Vin)*%
X134750000Y-48130000D03*
%TD*%
D14*
%TO.P,U7,1,3V3*%
%TO.N,+3.3V*%
X109490000Y-113866000D03*
D15*
%TO.P,U7,2,GND*%
%TO.N,GND*%
X109490000Y-111326000D03*
%TO.P,U7,3,IO15/HSPI_CS0*%
%TO.N,CS*%
X109490000Y-108786000D03*
%TO.P,U7,4,IO2*%
%TO.N,unconnected-(U7-IO2-Pad4)*%
X109490000Y-106246000D03*
%TO.P,U7,5,IO4*%
%TO.N,unconnected-(U7-IO4-Pad5)*%
X109490000Y-103706000D03*
%TO.P,U7,6,IO16/RX2*%
%TO.N,Net-(U6-TXD)*%
X109490000Y-101166000D03*
%TO.P,U7,7,IO17/TX2*%
%TO.N,Net-(U6-RXD)*%
X109490000Y-98626000D03*
%TO.P,U7,8,IO5*%
%TO.N,Net-(U6-PPS)*%
X109490000Y-96086000D03*
%TO.P,U7,9,IO18*%
%TO.N,Net-(U6-RESET_N)*%
X109490000Y-93546000D03*
%TO.P,U7,10,IO19*%
%TO.N,Net-(U7-IO19)*%
X109490000Y-91006000D03*
%TO.P,U7,11,IO21*%
%TO.N,SD_CS*%
X109490000Y-88466000D03*
%TO.P,U7,12,IO3/RX0*%
%TO.N,unconnected-(U7-IO3{slash}RX0-Pad12)*%
X109490000Y-85926000D03*
%TO.P,U7,13,IO1/TX0*%
%TO.N,unconnected-(U7-IO1{slash}TX0-Pad13)*%
X109490000Y-83386000D03*
%TO.P,U7,14,IO22*%
%TO.N,Net-(U2-SCK)*%
X109490000Y-80846000D03*
%TO.P,U7,15,IO23*%
%TO.N,Net-(U2-SDI)*%
X109490000Y-78306000D03*
%TO.P,U7,16,EN*%
%TO.N,unconnected-(U7-EN-Pad16)*%
X134890000Y-78306000D03*
%TO.P,U7,17,IO36/Vp*%
%TO.N,unconnected-(U7-IO36{slash}Vp-Pad17)*%
X134890000Y-80846000D03*
%TO.P,U7,18,IO39/SensVn*%
%TO.N,unconnected-(U7-IO39{slash}SensVn-Pad18)*%
X134890000Y-83386000D03*
%TO.P,U7,19,IO34*%
%TO.N,unconnected-(U7-IO34-Pad19)*%
X134890000Y-85926000D03*
%TO.P,U7,20,IO35*%
%TO.N,Net-(U4-T_IRQ_N)*%
X134890000Y-88466000D03*
%TO.P,U7,21,IO32*%
%TO.N,Net-(U4-T_CS)*%
X134890000Y-91006000D03*
%TO.P,U7,22,IO33*%
%TO.N,nSHDN*%
X134890000Y-93546000D03*
%TO.P,U7,23,IO25*%
%TO.N,Net-(U4-RESET_N)*%
X134890000Y-96086000D03*
%TO.P,U7,24,IO26*%
%TO.N,Net-(U4-DC{slash}RS)*%
X134890000Y-98626000D03*
%TO.P,U7,25,IO27*%
%TO.N,Net-(U4-LED)*%
X134890000Y-101166000D03*
%TO.P,U7,26,IO14/HSPI_CLK*%
%TO.N,Net-(U4-SCK)*%
X134890000Y-103706000D03*
%TO.P,U7,27,IO12/HSPI_Q*%
%TO.N,Net-(U4-SDO(MISO))*%
X134890000Y-106246000D03*
%TO.P,U7,28,IO13/HSPI_ID*%
%TO.N,Net-(U4-SDI(MOSI))*%
X134890000Y-108786000D03*
%TO.P,U7,29,GND*%
%TO.N,GND*%
X134890000Y-111326000D03*
D14*
%TO.P,U7,30,Vin*%
%TO.N,unconnected-(U7-Vin-Pad30)*%
X134890000Y-113866000D03*
%TD*%
%TO.P,U6,1,PPS*%
%TO.N,Net-(U6-PPS)*%
X140740000Y-94030000D03*
D21*
%TO.P,U6,2,GND*%
%TO.N,GND*%
X140740000Y-96570000D03*
%TO.P,U6,3,TXD*%
%TO.N,Net-(U6-TXD)*%
X140740000Y-99110000D03*
%TO.P,U6,4,RXD*%
%TO.N,Net-(U6-RXD)*%
X140740000Y-101650000D03*
%TO.P,U6,5,VCC*%
%TO.N,+3.3V*%
X140740000Y-104190000D03*
%TO.P,U6,6,RESET_N*%
%TO.N,Net-(U6-RESET_N)*%
X140740000Y-106730000D03*
%TO.P,U6,7,GND*%
%TO.N,GND*%
X169740000Y-106730000D03*
%TO.P,U6,8,GND*%
X169740000Y-104190000D03*
%TO.P,U6,9,GND*%
X169740000Y-101650000D03*
%TO.P,U6,10,GND*%
X169740000Y-99110000D03*
%TO.P,U6,11,GND*%
X169740000Y-96570000D03*
%TO.P,U6,12,GND*%
X169740000Y-94030000D03*
%TD*%
D14*
%TO.P,U2,1,GND*%
%TO.N,GND*%
X166419000Y-68085000D03*
D21*
%TO.P,U2,2,CSB*%
%TO.N,+3.3V*%
X163879000Y-68085000D03*
%TO.P,U2,3,SDI*%
%TO.N,Net-(U2-SDI)*%
X161339000Y-68085000D03*
%TO.P,U2,4,SCK*%
%TO.N,Net-(U2-SCK)*%
X158799000Y-68085000D03*
%TO.P,U2,5,SDO*%
%TO.N,GND*%
X156259000Y-68085000D03*
%TO.P,U2,6,VDDIO*%
%TO.N,+3.3V*%
X153719000Y-68085000D03*
%TD*%
D11*
%TO.P,VBATT,1,1*%
%TO.N,Net-(U5-OUT+)*%
X103300000Y-95120000D03*
%TD*%
D19*
%TO.P,C7,1*%
%TO.N,Net-(U3-Vin)*%
X124690000Y-50210000D03*
D16*
%TO.P,C7,2*%
%TO.N,GND*%
X122690000Y-50210000D03*
%TD*%
D22*
%TO.N,Net-(BT1--)*%
X94585000Y-97945000D02*
X95880000Y-96650000D01*
X102206000Y-96650000D02*
X103317000Y-97761000D01*
X95880000Y-96650000D02*
X102206000Y-96650000D01*
X94585000Y-98961000D02*
X94585000Y-97945000D01*
%TO.N,Net-(BT1-+)*%
X85665000Y-88975000D02*
X84950000Y-88260000D01*
X91250000Y-74510000D02*
X91250000Y-74500000D01*
X91250000Y-74500000D02*
X93389000Y-72361000D01*
X93389000Y-72361000D02*
X103317000Y-72361000D01*
X84950000Y-80810000D02*
X91250000Y-74510000D01*
X85665000Y-99071000D02*
X85665000Y-88975000D01*
X84950000Y-88260000D02*
X84950000Y-80810000D01*
%TO.N,GND*%
X124060000Y-62206000D02*
X122422000Y-63844000D01*
X81680000Y-66550000D02*
X83860000Y-64370000D01*
X156530000Y-106730000D02*
X169740000Y-106730000D01*
X124794000Y-111326000D02*
X134890000Y-111326000D01*
X105543000Y-113277000D02*
X107494000Y-111326000D01*
X166419000Y-67891000D02*
X169100000Y-65210000D01*
X111580000Y-49365113D02*
X114835113Y-49365113D01*
X122690000Y-53620000D02*
X122690000Y-50210000D01*
X122250000Y-113870000D02*
X112034000Y-113870000D01*
X116550000Y-62950000D02*
X118320000Y-62950000D01*
X124060000Y-54990000D02*
X122690000Y-53620000D01*
X116220000Y-62620000D02*
X116550000Y-62950000D01*
X121528000Y-62950000D02*
X122422000Y-63844000D01*
X103475000Y-113277000D02*
X105543000Y-113277000D01*
X118320000Y-62950000D02*
X121528000Y-62950000D01*
X80386500Y-66550000D02*
X73834500Y-73102000D01*
X122250000Y-113870000D02*
X124794000Y-111326000D01*
X86040000Y-66550000D02*
X83860000Y-64370000D01*
X124060000Y-62206000D02*
X124060000Y-54990000D01*
X80386500Y-66550000D02*
X81680000Y-66550000D01*
X166419000Y-68085000D02*
X166419000Y-67891000D01*
X107494000Y-111326000D02*
X109463000Y-111326000D01*
X154170000Y-104370000D02*
X156530000Y-106730000D01*
X88440000Y-66550000D02*
X86040000Y-66550000D01*
X114835113Y-49365113D02*
X116220000Y-50750000D01*
X112034000Y-113870000D02*
X109490000Y-111326000D01*
X116220000Y-50750000D02*
X116220000Y-62620000D01*
%TO.N,+3.3V*%
X123263000Y-68085000D02*
X122422000Y-67244000D01*
X154660000Y-65160000D02*
X162830000Y-65160000D01*
X111994000Y-116370000D02*
X109490000Y-113866000D01*
X105555113Y-51365113D02*
X105540000Y-51350000D01*
X153719000Y-68085000D02*
X153719000Y-66101000D01*
X104880000Y-62340000D02*
X83390000Y-62340000D01*
X153719000Y-68085000D02*
X123263000Y-68085000D01*
X73834500Y-70562000D02*
X75168000Y-70562000D01*
X162830000Y-65170000D02*
X163879000Y-66219000D01*
X122250000Y-116370000D02*
X111994000Y-116370000D01*
X153719000Y-66101000D02*
X154660000Y-65160000D01*
X169100000Y-62864000D02*
X169100000Y-62710000D01*
X163879000Y-68085000D02*
X169100000Y-62864000D01*
X111580000Y-51365113D02*
X111585113Y-51365113D01*
X115220000Y-55210000D02*
X115220000Y-65480000D01*
X105540000Y-51350000D02*
X105540000Y-61680000D01*
X140740000Y-104190000D02*
X143420000Y-106870000D01*
X75168000Y-70562000D02*
X81360000Y-64370000D01*
X111580000Y-51365113D02*
X105555113Y-51365113D01*
X111580000Y-51365113D02*
X115220000Y-55005113D01*
X115220000Y-65480000D02*
X116984000Y-67244000D01*
X115220000Y-55000000D02*
X115220000Y-55210000D01*
X105540000Y-61680000D02*
X104880000Y-62340000D01*
X115220000Y-55005113D02*
X115220000Y-55210000D01*
X143420000Y-106870000D02*
X154170000Y-106870000D01*
X111514887Y-51300000D02*
X111580000Y-51365113D01*
X116984000Y-67244000D02*
X122422000Y-67244000D01*
X111455113Y-51490000D02*
X111580000Y-51365113D01*
X163879000Y-66219000D02*
X163879000Y-68085000D01*
X83390000Y-62340000D02*
X81360000Y-64370000D01*
X162830000Y-65160000D02*
X162830000Y-65170000D01*
%TO.N,Net-(U3-BYPASS)*%
X118326000Y-60444000D02*
X118320000Y-60450000D01*
X122422000Y-60444000D02*
X118326000Y-60444000D01*
X122415000Y-60437000D02*
X122422000Y-60444000D01*
%TO.N,Net-(U3-Vin)*%
X124690000Y-64012000D02*
X126222000Y-65544000D01*
X124690000Y-50210000D02*
X124690000Y-64012000D01*
X132670000Y-50210000D02*
X134750000Y-48130000D01*
X124690000Y-50210000D02*
X132670000Y-50210000D01*
%TO.N,Net-(U5-OUT+)*%
X83125000Y-80205000D02*
X88490000Y-74840000D01*
X83125000Y-99495000D02*
X83125000Y-99071000D01*
X90130000Y-100350000D02*
X83980000Y-100350000D01*
X103300000Y-95120000D02*
X95360000Y-95120000D01*
X83980000Y-100350000D02*
X83125000Y-99495000D01*
X83125000Y-99071000D02*
X83125000Y-80205000D01*
X95360000Y-95120000D02*
X90130000Y-100350000D01*
%TO.N,Net-(U7-IO19)*%
X109490000Y-91006000D02*
X101186000Y-91006000D01*
X98650000Y-66600000D02*
X98600000Y-66550000D01*
X101186000Y-91006000D02*
X98650000Y-88470000D01*
X98650000Y-88470000D02*
X98650000Y-74840000D01*
%TO.N,Net-(U2-SCK)*%
X161830000Y-65930000D02*
X162610000Y-66710000D01*
X162610000Y-69220000D02*
X162295000Y-69535000D01*
X162610000Y-66710000D02*
X162610000Y-69220000D01*
X160920000Y-70910000D02*
X162295000Y-69535000D01*
X111350000Y-78959000D02*
X111350000Y-74780000D01*
X158799000Y-68085000D02*
X158799000Y-66361000D01*
X111350000Y-74780000D02*
X115220000Y-70910000D01*
X158799000Y-66361000D02*
X159230000Y-65930000D01*
X115220000Y-70910000D02*
X160920000Y-70910000D01*
X159230000Y-65930000D02*
X161830000Y-65930000D01*
X109463000Y-80846000D02*
X111350000Y-78959000D01*
%TO.N,Net-(U2-SDI)*%
X109463000Y-78306000D02*
X109463000Y-74497000D01*
X113940000Y-70020000D02*
X159404000Y-70020000D01*
X159404000Y-70020000D02*
X161339000Y-68085000D01*
X109463000Y-74497000D02*
X113940000Y-70020000D01*
%TO.N,Net-(U4-SCK)*%
X105940000Y-103330000D02*
X78230000Y-103330000D01*
X135676000Y-102920000D02*
X177330000Y-102920000D01*
X111120000Y-104990000D02*
X107600000Y-104990000D01*
X76320000Y-95907500D02*
X73834500Y-93422000D01*
X112404000Y-103706000D02*
X111120000Y-104990000D01*
X177330000Y-102920000D02*
X177874500Y-102375500D01*
X107600000Y-104990000D02*
X105940000Y-103330000D01*
X76320000Y-101420000D02*
X76320000Y-95907500D01*
X177874500Y-102375500D02*
X177874500Y-90882000D01*
X78230000Y-103330000D02*
X76320000Y-101420000D01*
X134890000Y-103706000D02*
X112404000Y-103706000D01*
X134890000Y-103706000D02*
X135676000Y-102920000D01*
%TO.N,Net-(U4-SDO(MISO))*%
X75620000Y-98000000D02*
X74850000Y-97230000D01*
X72478000Y-101042000D02*
X73834500Y-101042000D01*
X71280000Y-102240000D02*
X72478000Y-101042000D01*
X177874500Y-88342000D02*
X179210000Y-89677500D01*
X112004000Y-106246000D02*
X110740000Y-107510000D01*
X74850000Y-97230000D02*
X72630000Y-97230000D01*
X179210000Y-105190000D02*
X175990000Y-108410000D01*
X75620000Y-100040000D02*
X75620000Y-98000000D01*
X137054000Y-108410000D02*
X134890000Y-106246000D01*
X71628000Y-90882000D02*
X73834500Y-90882000D01*
X74618000Y-101042000D02*
X75620000Y-100040000D01*
X175990000Y-108410000D02*
X175570000Y-108410000D01*
X179210000Y-89677500D02*
X179210000Y-105190000D01*
X73834500Y-101042000D02*
X74618000Y-101042000D01*
X110740000Y-107510000D02*
X107590000Y-107510000D01*
X106980000Y-108120000D02*
X72000000Y-108120000D01*
X71010000Y-91500000D02*
X71628000Y-90882000D01*
X71010000Y-95610000D02*
X71010000Y-91500000D01*
X72630000Y-97230000D02*
X71010000Y-95610000D01*
X134890000Y-106246000D02*
X112004000Y-106246000D01*
X72000000Y-108120000D02*
X71280000Y-107400000D01*
X71280000Y-107400000D02*
X71280000Y-102240000D01*
X175570000Y-108410000D02*
X137054000Y-108410000D01*
X107590000Y-107510000D02*
X106980000Y-108120000D01*
%TO.N,Net-(U4-RESET_N)*%
X99710000Y-99180000D02*
X97950000Y-100940000D01*
X107770000Y-97320000D02*
X106210000Y-97320000D01*
X106210000Y-97320000D02*
X104350000Y-99180000D01*
X79650000Y-83997500D02*
X73834500Y-78182000D01*
X79650000Y-100150000D02*
X79650000Y-83997500D01*
X80440000Y-100940000D02*
X79650000Y-100150000D01*
X134890000Y-96086000D02*
X112294000Y-96086000D01*
X112294000Y-96086000D02*
X111050000Y-97330000D01*
X107780000Y-97330000D02*
X107770000Y-97320000D01*
X97950000Y-100940000D02*
X80440000Y-100940000D01*
X104350000Y-99180000D02*
X99710000Y-99180000D01*
X111050000Y-97330000D02*
X107780000Y-97330000D01*
%TO.N,Net-(U4-LED)*%
X78710000Y-102450000D02*
X133606000Y-102450000D01*
X133606000Y-102450000D02*
X134890000Y-101166000D01*
X77610000Y-92117500D02*
X77610000Y-101350000D01*
X73834500Y-88342000D02*
X77610000Y-92117500D01*
X77610000Y-101350000D02*
X78710000Y-102450000D01*
%TO.N,Net-(U4-SDI(MOSI))*%
X135624000Y-109520000D02*
X134890000Y-108786000D01*
X70560000Y-101776500D02*
X70560000Y-107830000D01*
X112104000Y-108786000D02*
X134890000Y-108786000D01*
X70560000Y-107830000D02*
X72770000Y-110040000D01*
X73834500Y-98502000D02*
X70560000Y-101776500D01*
X180410000Y-88337500D02*
X180410000Y-106310000D01*
X177200000Y-109520000D02*
X135624000Y-109520000D01*
X72770000Y-110040000D02*
X110850000Y-110040000D01*
X180410000Y-106310000D02*
X177200000Y-109520000D01*
X177874500Y-85802000D02*
X180410000Y-88337500D01*
X110850000Y-110040000D02*
X112104000Y-108786000D01*
%TO.N,SD_CS*%
X115620000Y-82336000D02*
X109490000Y-88466000D01*
X177874500Y-83262000D02*
X176948500Y-82336000D01*
X176948500Y-82336000D02*
X115620000Y-82336000D01*
%TO.N,Net-(U4-DC{slash}RS)*%
X131980000Y-99880000D02*
X100168000Y-99880000D01*
X78540000Y-100780000D02*
X78540000Y-85427500D01*
X78540000Y-85427500D02*
X73834500Y-80722000D01*
X134890000Y-98626000D02*
X133234000Y-98626000D01*
X100168000Y-99880000D02*
X98378000Y-101670000D01*
X98378000Y-101670000D02*
X79430000Y-101670000D01*
X133234000Y-98626000D02*
X131980000Y-99880000D01*
X79430000Y-101670000D02*
X78540000Y-100780000D01*
%TO.N,Net-(U6-RXD)*%
X131584000Y-98626000D02*
X132880000Y-97330000D01*
X142450000Y-98570000D02*
X142450000Y-99940000D01*
X141800000Y-97920000D02*
X142450000Y-98570000D01*
X132880000Y-97330000D02*
X135610000Y-97330000D01*
X136200000Y-97920000D02*
X141800000Y-97920000D01*
X109490000Y-98626000D02*
X131584000Y-98626000D01*
X142450000Y-99940000D02*
X140740000Y-101650000D01*
X135610000Y-97330000D02*
X136200000Y-97920000D01*
%TO.N,Net-(U6-PPS)*%
X137340000Y-94820000D02*
X110756000Y-94820000D01*
X140740000Y-94030000D02*
X138130000Y-94030000D01*
X138130000Y-94030000D02*
X137340000Y-94820000D01*
X110756000Y-94820000D02*
X109490000Y-96086000D01*
%TO.N,Net-(U6-TXD)*%
X109490000Y-101166000D02*
X132634000Y-101166000D01*
X137290000Y-99890000D02*
X138070000Y-99110000D01*
X132634000Y-101166000D02*
X133910000Y-99890000D01*
X133910000Y-99890000D02*
X137290000Y-99890000D01*
X138070000Y-99110000D02*
X140740000Y-99110000D01*
%TD*%
M02*
