M48
; DRILL file {KiCad 8.0.8} date 2025-04-04T13:43:45-0400
; FORMAT={-:-/ absolute / inch / decimal}
; #@! TF.CreationDate,2025-04-04T13:43:45-04:00
; #@! TF.GenerationSoftware,Kicad,Pcbnew,8.0.8
; #@! TF.FileFunction,Plated,1,2,PTH
FMAT,2
INCH
; #@! TA.AperFunction,Plated,PTH,ComponentDrill
T1C0.0236
; #@! TA.AperFunction,Plated,PTH,ComponentDrill
T2C0.0276
; #@! TA.AperFunction,Plated,PTH,ComponentDrill
T3C0.0300
; #@! TA.AperFunction,Plated,PTH,ComponentDrill
T4C0.0315
; #@! TA.AperFunction,Plated,PTH,ComponentDrill
T5C0.0394
; #@! TA.AperFunction,Plated,PTH,ComponentDrill
T6C0.0433
%
G90
G05
T1
X5.3051Y-1.8949
X5.3051Y-1.9949
X5.3051Y-2.0949
T2
X3.2031Y-2.5343
X3.3016Y-2.5343
X4.6583Y-2.3799
X4.6583Y-2.4783
X4.813Y-4.4831
X4.813Y-4.5815
X6.0697Y-4.1091
X6.0697Y-4.2075
X6.6575Y-2.4689
X6.6575Y-2.5673
T3
X6.0519Y-2.6805
X6.1519Y-2.6805
X6.2519Y-2.6805
X6.3519Y-2.6805
X6.4519Y-2.6805
T4
X3.4819Y-2.6201
X3.4839Y-2.9465
X3.8819Y-2.6201
X3.8839Y-2.9465
X4.3929Y-1.9435
X4.3929Y-2.0222
X4.8303Y-1.9768
X4.9091Y-1.9768
T5
X4.0669Y-3.7449
X4.0676Y-2.8489
X4.0676Y-3.8489
X4.0738Y-4.4597
X4.1551Y-2.0217
X6.5519Y-2.6805
T6
X2.9069Y-2.778
X2.9069Y-2.878
X2.9069Y-2.978
X2.9069Y-3.078
X2.9069Y-3.178
X2.9069Y-3.278
X2.9069Y-3.378
X2.9069Y-3.478
X2.9069Y-3.578
X2.9069Y-3.678
X2.9069Y-3.778
X2.9069Y-3.878
X2.9069Y-3.978
X2.9069Y-4.078
X3.2726Y-3.9004
X3.2726Y-4.8059
X3.3726Y-3.9004
X3.7238Y-3.8961
X3.8238Y-3.8961
X3.8238Y-4.8059
X4.3106Y-3.0829
X4.3106Y-3.1829
X4.3106Y-3.2829
X4.3106Y-3.3829
X4.3106Y-3.4829
X4.3106Y-3.5829
X4.3106Y-3.6829
X4.3106Y-3.7829
X4.3106Y-3.8829
X4.3106Y-3.9829
X4.3106Y-4.0829
X4.3106Y-4.1829
X4.3106Y-4.2829
X4.3106Y-4.3829
X4.3106Y-4.4829
X4.8198Y-2.3797
X4.8198Y-2.5135
X4.8198Y-2.6474
X4.9694Y-2.4466
X4.9694Y-2.5805
X5.3106Y-3.0829
X5.3106Y-3.1829
X5.3106Y-3.2829
X5.3106Y-3.3829
X5.3106Y-3.4829
X5.3106Y-3.5829
X5.3106Y-3.6829
X5.3106Y-3.7829
X5.3106Y-3.8829
X5.3106Y-3.9829
X5.3106Y-4.0829
X5.3106Y-4.1829
X5.3106Y-4.2829
X5.3106Y-4.3829
X5.3106Y-4.4829
X5.5409Y-3.702
X5.5409Y-3.802
X5.5409Y-3.902
X5.5409Y-4.002
X5.5409Y-4.102
X5.5409Y-4.202
X6.6827Y-3.702
X6.6827Y-3.802
X6.6827Y-3.902
X6.6827Y-4.002
X6.6827Y-4.102
X6.6827Y-4.202
X7.0029Y-3.278
X7.0029Y-3.378
X7.0029Y-3.478
X7.0029Y-3.578
M30
