%TF.GenerationSoftware,KiCad,Pcbnew,8.0.8*%
%TF.CreationDate,2025-04-04T13:43:43-04:00*%
%TF.ProjectId,bike_computer,62696b65-5f63-46f6-9d70-757465722e6b,0*%
%TF.SameCoordinates,Original*%
%TF.FileFunction,AssemblyDrawing,Bot*%
%FSLAX46Y46*%
G04 Gerber Fmt 4.6, Leading zero omitted, Abs format (unit mm)*
G04 Created by KiCad (PCBNEW 8.0.8) date 2025-04-04 13:43:43*
%MOMM*%
%LPD*%
G01*
G04 APERTURE LIST*
%ADD10C,0.150000*%
%ADD11C,0.100000*%
G04 APERTURE END LIST*
D10*
X104236904Y-115279438D02*
X104332142Y-115231819D01*
X104332142Y-115231819D02*
X104474999Y-115231819D01*
X104474999Y-115231819D02*
X104617856Y-115279438D01*
X104617856Y-115279438D02*
X104713094Y-115374676D01*
X104713094Y-115374676D02*
X104760713Y-115469914D01*
X104760713Y-115469914D02*
X104808332Y-115660390D01*
X104808332Y-115660390D02*
X104808332Y-115803247D01*
X104808332Y-115803247D02*
X104760713Y-115993723D01*
X104760713Y-115993723D02*
X104713094Y-116088961D01*
X104713094Y-116088961D02*
X104617856Y-116184200D01*
X104617856Y-116184200D02*
X104474999Y-116231819D01*
X104474999Y-116231819D02*
X104379761Y-116231819D01*
X104379761Y-116231819D02*
X104236904Y-116184200D01*
X104236904Y-116184200D02*
X104189285Y-116136580D01*
X104189285Y-116136580D02*
X104189285Y-115803247D01*
X104189285Y-115803247D02*
X104379761Y-115803247D01*
X103760713Y-116231819D02*
X103760713Y-115231819D01*
X103760713Y-115231819D02*
X103189285Y-116231819D01*
X103189285Y-116231819D02*
X103189285Y-115231819D01*
X102713094Y-116231819D02*
X102713094Y-115231819D01*
X102713094Y-115231819D02*
X102474999Y-115231819D01*
X102474999Y-115231819D02*
X102332142Y-115279438D01*
X102332142Y-115279438D02*
X102236904Y-115374676D01*
X102236904Y-115374676D02*
X102189285Y-115469914D01*
X102189285Y-115469914D02*
X102141666Y-115660390D01*
X102141666Y-115660390D02*
X102141666Y-115803247D01*
X102141666Y-115803247D02*
X102189285Y-115993723D01*
X102189285Y-115993723D02*
X102236904Y-116088961D01*
X102236904Y-116088961D02*
X102332142Y-116184200D01*
X102332142Y-116184200D02*
X102474999Y-116231819D01*
X102474999Y-116231819D02*
X102713094Y-116231819D01*
X104236904Y-110279438D02*
X104332142Y-110231819D01*
X104332142Y-110231819D02*
X104474999Y-110231819D01*
X104474999Y-110231819D02*
X104617856Y-110279438D01*
X104617856Y-110279438D02*
X104713094Y-110374676D01*
X104713094Y-110374676D02*
X104760713Y-110469914D01*
X104760713Y-110469914D02*
X104808332Y-110660390D01*
X104808332Y-110660390D02*
X104808332Y-110803247D01*
X104808332Y-110803247D02*
X104760713Y-110993723D01*
X104760713Y-110993723D02*
X104713094Y-111088961D01*
X104713094Y-111088961D02*
X104617856Y-111184200D01*
X104617856Y-111184200D02*
X104474999Y-111231819D01*
X104474999Y-111231819D02*
X104379761Y-111231819D01*
X104379761Y-111231819D02*
X104236904Y-111184200D01*
X104236904Y-111184200D02*
X104189285Y-111136580D01*
X104189285Y-111136580D02*
X104189285Y-110803247D01*
X104189285Y-110803247D02*
X104379761Y-110803247D01*
X103760713Y-111231819D02*
X103760713Y-110231819D01*
X103760713Y-110231819D02*
X103189285Y-111231819D01*
X103189285Y-111231819D02*
X103189285Y-110231819D01*
X102713094Y-111231819D02*
X102713094Y-110231819D01*
X102713094Y-110231819D02*
X102474999Y-110231819D01*
X102474999Y-110231819D02*
X102332142Y-110279438D01*
X102332142Y-110279438D02*
X102236904Y-110374676D01*
X102236904Y-110374676D02*
X102189285Y-110469914D01*
X102189285Y-110469914D02*
X102141666Y-110660390D01*
X102141666Y-110660390D02*
X102141666Y-110803247D01*
X102141666Y-110803247D02*
X102189285Y-110993723D01*
X102189285Y-110993723D02*
X102236904Y-111088961D01*
X102236904Y-111088961D02*
X102332142Y-111184200D01*
X102332142Y-111184200D02*
X102474999Y-111231819D01*
X102474999Y-111231819D02*
X102713094Y-111231819D01*
X108442819Y-48981459D02*
X108442819Y-48410031D01*
X108442819Y-48695745D02*
X107442819Y-48695745D01*
X107442819Y-48695745D02*
X107585676Y-48600507D01*
X107585676Y-48600507D02*
X107680914Y-48505269D01*
X107680914Y-48505269D02*
X107728533Y-48410031D01*
X107442819Y-49600507D02*
X107442819Y-49695745D01*
X107442819Y-49695745D02*
X107490438Y-49790983D01*
X107490438Y-49790983D02*
X107538057Y-49838602D01*
X107538057Y-49838602D02*
X107633295Y-49886221D01*
X107633295Y-49886221D02*
X107823771Y-49933840D01*
X107823771Y-49933840D02*
X108061866Y-49933840D01*
X108061866Y-49933840D02*
X108252342Y-49886221D01*
X108252342Y-49886221D02*
X108347580Y-49838602D01*
X108347580Y-49838602D02*
X108395200Y-49790983D01*
X108395200Y-49790983D02*
X108442819Y-49695745D01*
X108442819Y-49695745D02*
X108442819Y-49600507D01*
X108442819Y-49600507D02*
X108395200Y-49505269D01*
X108395200Y-49505269D02*
X108347580Y-49457650D01*
X108347580Y-49457650D02*
X108252342Y-49410031D01*
X108252342Y-49410031D02*
X108061866Y-49362412D01*
X108061866Y-49362412D02*
X107823771Y-49362412D01*
X107823771Y-49362412D02*
X107633295Y-49410031D01*
X107633295Y-49410031D02*
X107538057Y-49457650D01*
X107538057Y-49457650D02*
X107490438Y-49505269D01*
X107490438Y-49505269D02*
X107442819Y-49600507D01*
X107776152Y-50790983D02*
X108442819Y-50790983D01*
X107776152Y-50362412D02*
X108299961Y-50362412D01*
X108299961Y-50362412D02*
X108395200Y-50410031D01*
X108395200Y-50410031D02*
X108442819Y-50505269D01*
X108442819Y-50505269D02*
X108442819Y-50648126D01*
X108442819Y-50648126D02*
X108395200Y-50743364D01*
X108395200Y-50743364D02*
X108347580Y-50790983D01*
X107919009Y-51600507D02*
X107919009Y-51267174D01*
X108442819Y-51267174D02*
X107442819Y-51267174D01*
X107442819Y-51267174D02*
X107442819Y-51743364D01*
X111939580Y-50198446D02*
X111987200Y-50150827D01*
X111987200Y-50150827D02*
X112034819Y-50007970D01*
X112034819Y-50007970D02*
X112034819Y-49912732D01*
X112034819Y-49912732D02*
X111987200Y-49769875D01*
X111987200Y-49769875D02*
X111891961Y-49674637D01*
X111891961Y-49674637D02*
X111796723Y-49627018D01*
X111796723Y-49627018D02*
X111606247Y-49579399D01*
X111606247Y-49579399D02*
X111463390Y-49579399D01*
X111463390Y-49579399D02*
X111272914Y-49627018D01*
X111272914Y-49627018D02*
X111177676Y-49674637D01*
X111177676Y-49674637D02*
X111082438Y-49769875D01*
X111082438Y-49769875D02*
X111034819Y-49912732D01*
X111034819Y-49912732D02*
X111034819Y-50007970D01*
X111034819Y-50007970D02*
X111082438Y-50150827D01*
X111082438Y-50150827D02*
X111130057Y-50198446D01*
X111034819Y-50531780D02*
X111034819Y-51150827D01*
X111034819Y-51150827D02*
X111415771Y-50817494D01*
X111415771Y-50817494D02*
X111415771Y-50960351D01*
X111415771Y-50960351D02*
X111463390Y-51055589D01*
X111463390Y-51055589D02*
X111511009Y-51103208D01*
X111511009Y-51103208D02*
X111606247Y-51150827D01*
X111606247Y-51150827D02*
X111844342Y-51150827D01*
X111844342Y-51150827D02*
X111939580Y-51103208D01*
X111939580Y-51103208D02*
X111987200Y-51055589D01*
X111987200Y-51055589D02*
X112034819Y-50960351D01*
X112034819Y-50960351D02*
X112034819Y-50674637D01*
X112034819Y-50674637D02*
X111987200Y-50579399D01*
X111987200Y-50579399D02*
X111939580Y-50531780D01*
X88478009Y-79056236D02*
X88525628Y-79199093D01*
X88525628Y-79199093D02*
X88573247Y-79246712D01*
X88573247Y-79246712D02*
X88668485Y-79294331D01*
X88668485Y-79294331D02*
X88811342Y-79294331D01*
X88811342Y-79294331D02*
X88906580Y-79246712D01*
X88906580Y-79246712D02*
X88954200Y-79199093D01*
X88954200Y-79199093D02*
X89001819Y-79103855D01*
X89001819Y-79103855D02*
X89001819Y-78722903D01*
X89001819Y-78722903D02*
X88001819Y-78722903D01*
X88001819Y-78722903D02*
X88001819Y-79056236D01*
X88001819Y-79056236D02*
X88049438Y-79151474D01*
X88049438Y-79151474D02*
X88097057Y-79199093D01*
X88097057Y-79199093D02*
X88192295Y-79246712D01*
X88192295Y-79246712D02*
X88287533Y-79246712D01*
X88287533Y-79246712D02*
X88382771Y-79199093D01*
X88382771Y-79199093D02*
X88430390Y-79151474D01*
X88430390Y-79151474D02*
X88478009Y-79056236D01*
X88478009Y-79056236D02*
X88478009Y-78722903D01*
X89001819Y-80151474D02*
X88478009Y-80151474D01*
X88478009Y-80151474D02*
X88382771Y-80103855D01*
X88382771Y-80103855D02*
X88335152Y-80008617D01*
X88335152Y-80008617D02*
X88335152Y-79818141D01*
X88335152Y-79818141D02*
X88382771Y-79722903D01*
X88954200Y-80151474D02*
X89001819Y-80056236D01*
X89001819Y-80056236D02*
X89001819Y-79818141D01*
X89001819Y-79818141D02*
X88954200Y-79722903D01*
X88954200Y-79722903D02*
X88858961Y-79675284D01*
X88858961Y-79675284D02*
X88763723Y-79675284D01*
X88763723Y-79675284D02*
X88668485Y-79722903D01*
X88668485Y-79722903D02*
X88620866Y-79818141D01*
X88620866Y-79818141D02*
X88620866Y-80056236D01*
X88620866Y-80056236D02*
X88573247Y-80151474D01*
X88335152Y-80484808D02*
X88335152Y-80865760D01*
X88001819Y-80627665D02*
X88858961Y-80627665D01*
X88858961Y-80627665D02*
X88954200Y-80675284D01*
X88954200Y-80675284D02*
X89001819Y-80770522D01*
X89001819Y-80770522D02*
X89001819Y-80865760D01*
X88335152Y-81056237D02*
X88335152Y-81437189D01*
X88001819Y-81199094D02*
X88858961Y-81199094D01*
X88858961Y-81199094D02*
X88954200Y-81246713D01*
X88954200Y-81246713D02*
X89001819Y-81341951D01*
X89001819Y-81341951D02*
X89001819Y-81437189D01*
X88954200Y-82151475D02*
X89001819Y-82056237D01*
X89001819Y-82056237D02*
X89001819Y-81865761D01*
X89001819Y-81865761D02*
X88954200Y-81770523D01*
X88954200Y-81770523D02*
X88858961Y-81722904D01*
X88858961Y-81722904D02*
X88478009Y-81722904D01*
X88478009Y-81722904D02*
X88382771Y-81770523D01*
X88382771Y-81770523D02*
X88335152Y-81865761D01*
X88335152Y-81865761D02*
X88335152Y-82056237D01*
X88335152Y-82056237D02*
X88382771Y-82151475D01*
X88382771Y-82151475D02*
X88478009Y-82199094D01*
X88478009Y-82199094D02*
X88573247Y-82199094D01*
X88573247Y-82199094D02*
X88668485Y-81722904D01*
X89001819Y-82627666D02*
X88335152Y-82627666D01*
X88525628Y-82627666D02*
X88430390Y-82675285D01*
X88430390Y-82675285D02*
X88382771Y-82722904D01*
X88382771Y-82722904D02*
X88335152Y-82818142D01*
X88335152Y-82818142D02*
X88335152Y-82913380D01*
X88335152Y-83151476D02*
X89001819Y-83389571D01*
X88335152Y-83627666D02*
X89001819Y-83389571D01*
X89001819Y-83389571D02*
X89239914Y-83294333D01*
X89239914Y-83294333D02*
X89287533Y-83246714D01*
X89287533Y-83246714D02*
X89335152Y-83151476D01*
X89097057Y-83770524D02*
X89097057Y-84532428D01*
X88906580Y-85341952D02*
X88954200Y-85294333D01*
X88954200Y-85294333D02*
X89001819Y-85151476D01*
X89001819Y-85151476D02*
X89001819Y-85056238D01*
X89001819Y-85056238D02*
X88954200Y-84913381D01*
X88954200Y-84913381D02*
X88858961Y-84818143D01*
X88858961Y-84818143D02*
X88763723Y-84770524D01*
X88763723Y-84770524D02*
X88573247Y-84722905D01*
X88573247Y-84722905D02*
X88430390Y-84722905D01*
X88430390Y-84722905D02*
X88239914Y-84770524D01*
X88239914Y-84770524D02*
X88144676Y-84818143D01*
X88144676Y-84818143D02*
X88049438Y-84913381D01*
X88049438Y-84913381D02*
X88001819Y-85056238D01*
X88001819Y-85056238D02*
X88001819Y-85151476D01*
X88001819Y-85151476D02*
X88049438Y-85294333D01*
X88049438Y-85294333D02*
X88097057Y-85341952D01*
X88954200Y-86151476D02*
X89001819Y-86056238D01*
X89001819Y-86056238D02*
X89001819Y-85865762D01*
X89001819Y-85865762D02*
X88954200Y-85770524D01*
X88954200Y-85770524D02*
X88858961Y-85722905D01*
X88858961Y-85722905D02*
X88478009Y-85722905D01*
X88478009Y-85722905D02*
X88382771Y-85770524D01*
X88382771Y-85770524D02*
X88335152Y-85865762D01*
X88335152Y-85865762D02*
X88335152Y-86056238D01*
X88335152Y-86056238D02*
X88382771Y-86151476D01*
X88382771Y-86151476D02*
X88478009Y-86199095D01*
X88478009Y-86199095D02*
X88573247Y-86199095D01*
X88573247Y-86199095D02*
X88668485Y-85722905D01*
X89001819Y-86770524D02*
X88954200Y-86675286D01*
X88954200Y-86675286D02*
X88858961Y-86627667D01*
X88858961Y-86627667D02*
X88001819Y-86627667D01*
X89001819Y-87294334D02*
X88954200Y-87199096D01*
X88954200Y-87199096D02*
X88858961Y-87151477D01*
X88858961Y-87151477D02*
X88001819Y-87151477D01*
X86878009Y-82175285D02*
X86925628Y-82318142D01*
X86925628Y-82318142D02*
X86973247Y-82365761D01*
X86973247Y-82365761D02*
X87068485Y-82413380D01*
X87068485Y-82413380D02*
X87211342Y-82413380D01*
X87211342Y-82413380D02*
X87306580Y-82365761D01*
X87306580Y-82365761D02*
X87354200Y-82318142D01*
X87354200Y-82318142D02*
X87401819Y-82222904D01*
X87401819Y-82222904D02*
X87401819Y-81841952D01*
X87401819Y-81841952D02*
X86401819Y-81841952D01*
X86401819Y-81841952D02*
X86401819Y-82175285D01*
X86401819Y-82175285D02*
X86449438Y-82270523D01*
X86449438Y-82270523D02*
X86497057Y-82318142D01*
X86497057Y-82318142D02*
X86592295Y-82365761D01*
X86592295Y-82365761D02*
X86687533Y-82365761D01*
X86687533Y-82365761D02*
X86782771Y-82318142D01*
X86782771Y-82318142D02*
X86830390Y-82270523D01*
X86830390Y-82270523D02*
X86878009Y-82175285D01*
X86878009Y-82175285D02*
X86878009Y-81841952D01*
X86401819Y-82699095D02*
X86401819Y-83270523D01*
X87401819Y-82984809D02*
X86401819Y-82984809D01*
X87401819Y-84127666D02*
X87401819Y-83556238D01*
X87401819Y-83841952D02*
X86401819Y-83841952D01*
X86401819Y-83841952D02*
X86544676Y-83746714D01*
X86544676Y-83746714D02*
X86639914Y-83651476D01*
X86639914Y-83651476D02*
X86687533Y-83556238D01*
X134318332Y-51182200D02*
X134175475Y-51229819D01*
X134175475Y-51229819D02*
X133937380Y-51229819D01*
X133937380Y-51229819D02*
X133842142Y-51182200D01*
X133842142Y-51182200D02*
X133794523Y-51134580D01*
X133794523Y-51134580D02*
X133746904Y-51039342D01*
X133746904Y-51039342D02*
X133746904Y-50944104D01*
X133746904Y-50944104D02*
X133794523Y-50848866D01*
X133794523Y-50848866D02*
X133842142Y-50801247D01*
X133842142Y-50801247D02*
X133937380Y-50753628D01*
X133937380Y-50753628D02*
X134127856Y-50706009D01*
X134127856Y-50706009D02*
X134223094Y-50658390D01*
X134223094Y-50658390D02*
X134270713Y-50610771D01*
X134270713Y-50610771D02*
X134318332Y-50515533D01*
X134318332Y-50515533D02*
X134318332Y-50420295D01*
X134318332Y-50420295D02*
X134270713Y-50325057D01*
X134270713Y-50325057D02*
X134223094Y-50277438D01*
X134223094Y-50277438D02*
X134127856Y-50229819D01*
X134127856Y-50229819D02*
X133889761Y-50229819D01*
X133889761Y-50229819D02*
X133746904Y-50277438D01*
X133413570Y-50229819D02*
X133175475Y-51229819D01*
X133175475Y-51229819D02*
X132984999Y-50515533D01*
X132984999Y-50515533D02*
X132794523Y-51229819D01*
X132794523Y-51229819D02*
X132556428Y-50229819D01*
X131651666Y-51229819D02*
X132223094Y-51229819D01*
X131937380Y-51229819D02*
X131937380Y-50229819D01*
X131937380Y-50229819D02*
X132032618Y-50372676D01*
X132032618Y-50372676D02*
X132127856Y-50467914D01*
X132127856Y-50467914D02*
X132223094Y-50515533D01*
X112401429Y-89664990D02*
X112734762Y-89664990D01*
X112877619Y-89141180D02*
X112401429Y-89141180D01*
X112401429Y-89141180D02*
X112401429Y-90141180D01*
X112401429Y-90141180D02*
X112877619Y-90141180D01*
X113258572Y-89188800D02*
X113401429Y-89141180D01*
X113401429Y-89141180D02*
X113639524Y-89141180D01*
X113639524Y-89141180D02*
X113734762Y-89188800D01*
X113734762Y-89188800D02*
X113782381Y-89236419D01*
X113782381Y-89236419D02*
X113830000Y-89331657D01*
X113830000Y-89331657D02*
X113830000Y-89426895D01*
X113830000Y-89426895D02*
X113782381Y-89522133D01*
X113782381Y-89522133D02*
X113734762Y-89569752D01*
X113734762Y-89569752D02*
X113639524Y-89617371D01*
X113639524Y-89617371D02*
X113449048Y-89664990D01*
X113449048Y-89664990D02*
X113353810Y-89712609D01*
X113353810Y-89712609D02*
X113306191Y-89760228D01*
X113306191Y-89760228D02*
X113258572Y-89855466D01*
X113258572Y-89855466D02*
X113258572Y-89950704D01*
X113258572Y-89950704D02*
X113306191Y-90045942D01*
X113306191Y-90045942D02*
X113353810Y-90093561D01*
X113353810Y-90093561D02*
X113449048Y-90141180D01*
X113449048Y-90141180D02*
X113687143Y-90141180D01*
X113687143Y-90141180D02*
X113830000Y-90093561D01*
X114258572Y-89141180D02*
X114258572Y-90141180D01*
X114258572Y-90141180D02*
X114639524Y-90141180D01*
X114639524Y-90141180D02*
X114734762Y-90093561D01*
X114734762Y-90093561D02*
X114782381Y-90045942D01*
X114782381Y-90045942D02*
X114830000Y-89950704D01*
X114830000Y-89950704D02*
X114830000Y-89807847D01*
X114830000Y-89807847D02*
X114782381Y-89712609D01*
X114782381Y-89712609D02*
X114734762Y-89664990D01*
X114734762Y-89664990D02*
X114639524Y-89617371D01*
X114639524Y-89617371D02*
X114258572Y-89617371D01*
X115258572Y-89522133D02*
X116020477Y-89522133D01*
X116401429Y-90141180D02*
X116639524Y-89141180D01*
X116639524Y-89141180D02*
X116830000Y-89855466D01*
X116830000Y-89855466D02*
X117020476Y-89141180D01*
X117020476Y-89141180D02*
X117258572Y-90141180D01*
X118210952Y-89141180D02*
X117877619Y-89617371D01*
X117639524Y-89141180D02*
X117639524Y-90141180D01*
X117639524Y-90141180D02*
X118020476Y-90141180D01*
X118020476Y-90141180D02*
X118115714Y-90093561D01*
X118115714Y-90093561D02*
X118163333Y-90045942D01*
X118163333Y-90045942D02*
X118210952Y-89950704D01*
X118210952Y-89950704D02*
X118210952Y-89807847D01*
X118210952Y-89807847D02*
X118163333Y-89712609D01*
X118163333Y-89712609D02*
X118115714Y-89664990D01*
X118115714Y-89664990D02*
X118020476Y-89617371D01*
X118020476Y-89617371D02*
X117639524Y-89617371D01*
X118830000Y-90141180D02*
X119020476Y-90141180D01*
X119020476Y-90141180D02*
X119115714Y-90093561D01*
X119115714Y-90093561D02*
X119210952Y-89998323D01*
X119210952Y-89998323D02*
X119258571Y-89807847D01*
X119258571Y-89807847D02*
X119258571Y-89474514D01*
X119258571Y-89474514D02*
X119210952Y-89284038D01*
X119210952Y-89284038D02*
X119115714Y-89188800D01*
X119115714Y-89188800D02*
X119020476Y-89141180D01*
X119020476Y-89141180D02*
X118830000Y-89141180D01*
X118830000Y-89141180D02*
X118734762Y-89188800D01*
X118734762Y-89188800D02*
X118639524Y-89284038D01*
X118639524Y-89284038D02*
X118591905Y-89474514D01*
X118591905Y-89474514D02*
X118591905Y-89807847D01*
X118591905Y-89807847D02*
X118639524Y-89998323D01*
X118639524Y-89998323D02*
X118734762Y-90093561D01*
X118734762Y-90093561D02*
X118830000Y-90141180D01*
X119877619Y-90141180D02*
X120068095Y-90141180D01*
X120068095Y-90141180D02*
X120163333Y-90093561D01*
X120163333Y-90093561D02*
X120258571Y-89998323D01*
X120258571Y-89998323D02*
X120306190Y-89807847D01*
X120306190Y-89807847D02*
X120306190Y-89474514D01*
X120306190Y-89474514D02*
X120258571Y-89284038D01*
X120258571Y-89284038D02*
X120163333Y-89188800D01*
X120163333Y-89188800D02*
X120068095Y-89141180D01*
X120068095Y-89141180D02*
X119877619Y-89141180D01*
X119877619Y-89141180D02*
X119782381Y-89188800D01*
X119782381Y-89188800D02*
X119687143Y-89284038D01*
X119687143Y-89284038D02*
X119639524Y-89474514D01*
X119639524Y-89474514D02*
X119639524Y-89807847D01*
X119639524Y-89807847D02*
X119687143Y-89998323D01*
X119687143Y-89998323D02*
X119782381Y-90093561D01*
X119782381Y-90093561D02*
X119877619Y-90141180D01*
X120734762Y-89141180D02*
X120734762Y-90141180D01*
X120734762Y-90141180D02*
X121068095Y-89426895D01*
X121068095Y-89426895D02*
X121401428Y-90141180D01*
X121401428Y-90141180D02*
X121401428Y-89141180D01*
X121877619Y-89522133D02*
X122639524Y-89522133D01*
X123020476Y-90141180D02*
X123639523Y-90141180D01*
X123639523Y-90141180D02*
X123306190Y-89760228D01*
X123306190Y-89760228D02*
X123449047Y-89760228D01*
X123449047Y-89760228D02*
X123544285Y-89712609D01*
X123544285Y-89712609D02*
X123591904Y-89664990D01*
X123591904Y-89664990D02*
X123639523Y-89569752D01*
X123639523Y-89569752D02*
X123639523Y-89331657D01*
X123639523Y-89331657D02*
X123591904Y-89236419D01*
X123591904Y-89236419D02*
X123544285Y-89188800D01*
X123544285Y-89188800D02*
X123449047Y-89141180D01*
X123449047Y-89141180D02*
X123163333Y-89141180D01*
X123163333Y-89141180D02*
X123068095Y-89188800D01*
X123068095Y-89188800D02*
X123020476Y-89236419D01*
X124020476Y-90045942D02*
X124068095Y-90093561D01*
X124068095Y-90093561D02*
X124163333Y-90141180D01*
X124163333Y-90141180D02*
X124401428Y-90141180D01*
X124401428Y-90141180D02*
X124496666Y-90093561D01*
X124496666Y-90093561D02*
X124544285Y-90045942D01*
X124544285Y-90045942D02*
X124591904Y-89950704D01*
X124591904Y-89950704D02*
X124591904Y-89855466D01*
X124591904Y-89855466D02*
X124544285Y-89712609D01*
X124544285Y-89712609D02*
X123972857Y-89141180D01*
X123972857Y-89141180D02*
X124591904Y-89141180D01*
X125020476Y-89522133D02*
X125782381Y-89522133D01*
X126258571Y-89141180D02*
X126258571Y-90141180D01*
X126258571Y-90141180D02*
X126496666Y-90141180D01*
X126496666Y-90141180D02*
X126639523Y-90093561D01*
X126639523Y-90093561D02*
X126734761Y-89998323D01*
X126734761Y-89998323D02*
X126782380Y-89903085D01*
X126782380Y-89903085D02*
X126829999Y-89712609D01*
X126829999Y-89712609D02*
X126829999Y-89569752D01*
X126829999Y-89569752D02*
X126782380Y-89379276D01*
X126782380Y-89379276D02*
X126734761Y-89284038D01*
X126734761Y-89284038D02*
X126639523Y-89188800D01*
X126639523Y-89188800D02*
X126496666Y-89141180D01*
X126496666Y-89141180D02*
X126258571Y-89141180D01*
X127639523Y-89188800D02*
X127544285Y-89141180D01*
X127544285Y-89141180D02*
X127353809Y-89141180D01*
X127353809Y-89141180D02*
X127258571Y-89188800D01*
X127258571Y-89188800D02*
X127210952Y-89284038D01*
X127210952Y-89284038D02*
X127210952Y-89664990D01*
X127210952Y-89664990D02*
X127258571Y-89760228D01*
X127258571Y-89760228D02*
X127353809Y-89807847D01*
X127353809Y-89807847D02*
X127544285Y-89807847D01*
X127544285Y-89807847D02*
X127639523Y-89760228D01*
X127639523Y-89760228D02*
X127687142Y-89664990D01*
X127687142Y-89664990D02*
X127687142Y-89569752D01*
X127687142Y-89569752D02*
X127210952Y-89474514D01*
X128020476Y-89807847D02*
X128258571Y-89141180D01*
X128258571Y-89141180D02*
X128496666Y-89807847D01*
X128877619Y-89141180D02*
X128877619Y-90141180D01*
X129449047Y-89141180D02*
X129020476Y-89712609D01*
X129449047Y-90141180D02*
X128877619Y-89569752D01*
X129877619Y-89141180D02*
X129877619Y-89807847D01*
X129877619Y-90141180D02*
X129830000Y-90093561D01*
X129830000Y-90093561D02*
X129877619Y-90045942D01*
X129877619Y-90045942D02*
X129925238Y-90093561D01*
X129925238Y-90093561D02*
X129877619Y-90141180D01*
X129877619Y-90141180D02*
X129877619Y-90045942D01*
X130210952Y-89807847D02*
X130591904Y-89807847D01*
X130353809Y-90141180D02*
X130353809Y-89284038D01*
X130353809Y-89284038D02*
X130401428Y-89188800D01*
X130401428Y-89188800D02*
X130496666Y-89141180D01*
X130496666Y-89141180D02*
X130591904Y-89141180D01*
X130782381Y-90141180D02*
X131115714Y-89141180D01*
X131115714Y-89141180D02*
X131449047Y-90141180D01*
X132306190Y-89141180D02*
X131734762Y-89141180D01*
X132020476Y-89141180D02*
X132020476Y-90141180D01*
X132020476Y-90141180D02*
X131925238Y-89998323D01*
X131925238Y-89998323D02*
X131830000Y-89903085D01*
X131830000Y-89903085D02*
X131734762Y-89855466D01*
X120158095Y-98841180D02*
X120158095Y-98031657D01*
X120158095Y-98031657D02*
X120205714Y-97936419D01*
X120205714Y-97936419D02*
X120253333Y-97888800D01*
X120253333Y-97888800D02*
X120348571Y-97841180D01*
X120348571Y-97841180D02*
X120539047Y-97841180D01*
X120539047Y-97841180D02*
X120634285Y-97888800D01*
X120634285Y-97888800D02*
X120681904Y-97936419D01*
X120681904Y-97936419D02*
X120729523Y-98031657D01*
X120729523Y-98031657D02*
X120729523Y-98841180D01*
X121110476Y-98841180D02*
X121777142Y-98841180D01*
X121777142Y-98841180D02*
X121348571Y-97841180D01*
X153367618Y-101355180D02*
X153034285Y-101831371D01*
X152796190Y-101355180D02*
X152796190Y-102355180D01*
X152796190Y-102355180D02*
X153177142Y-102355180D01*
X153177142Y-102355180D02*
X153272380Y-102307561D01*
X153272380Y-102307561D02*
X153319999Y-102259942D01*
X153319999Y-102259942D02*
X153367618Y-102164704D01*
X153367618Y-102164704D02*
X153367618Y-102021847D01*
X153367618Y-102021847D02*
X153319999Y-101926609D01*
X153319999Y-101926609D02*
X153272380Y-101878990D01*
X153272380Y-101878990D02*
X153177142Y-101831371D01*
X153177142Y-101831371D02*
X152796190Y-101831371D01*
X153986666Y-101831371D02*
X153986666Y-101355180D01*
X153653333Y-102355180D02*
X153986666Y-101831371D01*
X153986666Y-101831371D02*
X154319999Y-102355180D01*
X154605714Y-101402800D02*
X154748571Y-101355180D01*
X154748571Y-101355180D02*
X154986666Y-101355180D01*
X154986666Y-101355180D02*
X155081904Y-101402800D01*
X155081904Y-101402800D02*
X155129523Y-101450419D01*
X155129523Y-101450419D02*
X155177142Y-101545657D01*
X155177142Y-101545657D02*
X155177142Y-101640895D01*
X155177142Y-101640895D02*
X155129523Y-101736133D01*
X155129523Y-101736133D02*
X155081904Y-101783752D01*
X155081904Y-101783752D02*
X154986666Y-101831371D01*
X154986666Y-101831371D02*
X154796190Y-101878990D01*
X154796190Y-101878990D02*
X154700952Y-101926609D01*
X154700952Y-101926609D02*
X154653333Y-101974228D01*
X154653333Y-101974228D02*
X154605714Y-102069466D01*
X154605714Y-102069466D02*
X154605714Y-102164704D01*
X154605714Y-102164704D02*
X154653333Y-102259942D01*
X154653333Y-102259942D02*
X154700952Y-102307561D01*
X154700952Y-102307561D02*
X154796190Y-102355180D01*
X154796190Y-102355180D02*
X155034285Y-102355180D01*
X155034285Y-102355180D02*
X155177142Y-102307561D01*
X155510476Y-102355180D02*
X156129523Y-102355180D01*
X156129523Y-102355180D02*
X155796190Y-101974228D01*
X155796190Y-101974228D02*
X155939047Y-101974228D01*
X155939047Y-101974228D02*
X156034285Y-101926609D01*
X156034285Y-101926609D02*
X156081904Y-101878990D01*
X156081904Y-101878990D02*
X156129523Y-101783752D01*
X156129523Y-101783752D02*
X156129523Y-101545657D01*
X156129523Y-101545657D02*
X156081904Y-101450419D01*
X156081904Y-101450419D02*
X156034285Y-101402800D01*
X156034285Y-101402800D02*
X155939047Y-101355180D01*
X155939047Y-101355180D02*
X155653333Y-101355180D01*
X155653333Y-101355180D02*
X155558095Y-101402800D01*
X155558095Y-101402800D02*
X155510476Y-101450419D01*
X157034285Y-102355180D02*
X156558095Y-102355180D01*
X156558095Y-102355180D02*
X156510476Y-101878990D01*
X156510476Y-101878990D02*
X156558095Y-101926609D01*
X156558095Y-101926609D02*
X156653333Y-101974228D01*
X156653333Y-101974228D02*
X156891428Y-101974228D01*
X156891428Y-101974228D02*
X156986666Y-101926609D01*
X156986666Y-101926609D02*
X157034285Y-101878990D01*
X157034285Y-101878990D02*
X157081904Y-101783752D01*
X157081904Y-101783752D02*
X157081904Y-101545657D01*
X157081904Y-101545657D02*
X157034285Y-101450419D01*
X157034285Y-101450419D02*
X156986666Y-101402800D01*
X156986666Y-101402800D02*
X156891428Y-101355180D01*
X156891428Y-101355180D02*
X156653333Y-101355180D01*
X156653333Y-101355180D02*
X156558095Y-101402800D01*
X156558095Y-101402800D02*
X156510476Y-101450419D01*
X157462857Y-102259942D02*
X157510476Y-102307561D01*
X157510476Y-102307561D02*
X157605714Y-102355180D01*
X157605714Y-102355180D02*
X157843809Y-102355180D01*
X157843809Y-102355180D02*
X157939047Y-102307561D01*
X157939047Y-102307561D02*
X157986666Y-102259942D01*
X157986666Y-102259942D02*
X158034285Y-102164704D01*
X158034285Y-102164704D02*
X158034285Y-102069466D01*
X158034285Y-102069466D02*
X157986666Y-101926609D01*
X157986666Y-101926609D02*
X157415238Y-101355180D01*
X157415238Y-101355180D02*
X158034285Y-101355180D01*
X158415238Y-101640895D02*
X158891428Y-101640895D01*
X158320000Y-101355180D02*
X158653333Y-102355180D01*
X158653333Y-102355180D02*
X158986666Y-101355180D01*
X155058095Y-100855180D02*
X155058095Y-100045657D01*
X155058095Y-100045657D02*
X155105714Y-99950419D01*
X155105714Y-99950419D02*
X155153333Y-99902800D01*
X155153333Y-99902800D02*
X155248571Y-99855180D01*
X155248571Y-99855180D02*
X155439047Y-99855180D01*
X155439047Y-99855180D02*
X155534285Y-99902800D01*
X155534285Y-99902800D02*
X155581904Y-99950419D01*
X155581904Y-99950419D02*
X155629523Y-100045657D01*
X155629523Y-100045657D02*
X155629523Y-100855180D01*
X156534285Y-100855180D02*
X156343809Y-100855180D01*
X156343809Y-100855180D02*
X156248571Y-100807561D01*
X156248571Y-100807561D02*
X156200952Y-100759942D01*
X156200952Y-100759942D02*
X156105714Y-100617085D01*
X156105714Y-100617085D02*
X156058095Y-100426609D01*
X156058095Y-100426609D02*
X156058095Y-100045657D01*
X156058095Y-100045657D02*
X156105714Y-99950419D01*
X156105714Y-99950419D02*
X156153333Y-99902800D01*
X156153333Y-99902800D02*
X156248571Y-99855180D01*
X156248571Y-99855180D02*
X156439047Y-99855180D01*
X156439047Y-99855180D02*
X156534285Y-99902800D01*
X156534285Y-99902800D02*
X156581904Y-99950419D01*
X156581904Y-99950419D02*
X156629523Y-100045657D01*
X156629523Y-100045657D02*
X156629523Y-100283752D01*
X156629523Y-100283752D02*
X156581904Y-100378990D01*
X156581904Y-100378990D02*
X156534285Y-100426609D01*
X156534285Y-100426609D02*
X156439047Y-100474228D01*
X156439047Y-100474228D02*
X156248571Y-100474228D01*
X156248571Y-100474228D02*
X156153333Y-100426609D01*
X156153333Y-100426609D02*
X156105714Y-100378990D01*
X156105714Y-100378990D02*
X156058095Y-100283752D01*
X160987990Y-65825952D02*
X160940371Y-65683095D01*
X160940371Y-65683095D02*
X160892752Y-65635476D01*
X160892752Y-65635476D02*
X160797514Y-65587857D01*
X160797514Y-65587857D02*
X160654657Y-65587857D01*
X160654657Y-65587857D02*
X160559419Y-65635476D01*
X160559419Y-65635476D02*
X160511800Y-65683095D01*
X160511800Y-65683095D02*
X160464180Y-65778333D01*
X160464180Y-65778333D02*
X160464180Y-66159285D01*
X160464180Y-66159285D02*
X161464180Y-66159285D01*
X161464180Y-66159285D02*
X161464180Y-65825952D01*
X161464180Y-65825952D02*
X161416561Y-65730714D01*
X161416561Y-65730714D02*
X161368942Y-65683095D01*
X161368942Y-65683095D02*
X161273704Y-65635476D01*
X161273704Y-65635476D02*
X161178466Y-65635476D01*
X161178466Y-65635476D02*
X161083228Y-65683095D01*
X161083228Y-65683095D02*
X161035609Y-65730714D01*
X161035609Y-65730714D02*
X160987990Y-65825952D01*
X160987990Y-65825952D02*
X160987990Y-66159285D01*
X160464180Y-65159285D02*
X161464180Y-65159285D01*
X161464180Y-65159285D02*
X160749895Y-64825952D01*
X160749895Y-64825952D02*
X161464180Y-64492619D01*
X161464180Y-64492619D02*
X160464180Y-64492619D01*
X160987990Y-64016428D02*
X160987990Y-63683095D01*
X160464180Y-63540238D02*
X160464180Y-64016428D01*
X160464180Y-64016428D02*
X161464180Y-64016428D01*
X161464180Y-64016428D02*
X161464180Y-63540238D01*
X161368942Y-63159285D02*
X161416561Y-63111666D01*
X161416561Y-63111666D02*
X161464180Y-63016428D01*
X161464180Y-63016428D02*
X161464180Y-62778333D01*
X161464180Y-62778333D02*
X161416561Y-62683095D01*
X161416561Y-62683095D02*
X161368942Y-62635476D01*
X161368942Y-62635476D02*
X161273704Y-62587857D01*
X161273704Y-62587857D02*
X161178466Y-62587857D01*
X161178466Y-62587857D02*
X161035609Y-62635476D01*
X161035609Y-62635476D02*
X160464180Y-63206904D01*
X160464180Y-63206904D02*
X160464180Y-62587857D01*
X161035609Y-62016428D02*
X161083228Y-62111666D01*
X161083228Y-62111666D02*
X161130847Y-62159285D01*
X161130847Y-62159285D02*
X161226085Y-62206904D01*
X161226085Y-62206904D02*
X161273704Y-62206904D01*
X161273704Y-62206904D02*
X161368942Y-62159285D01*
X161368942Y-62159285D02*
X161416561Y-62111666D01*
X161416561Y-62111666D02*
X161464180Y-62016428D01*
X161464180Y-62016428D02*
X161464180Y-61825952D01*
X161464180Y-61825952D02*
X161416561Y-61730714D01*
X161416561Y-61730714D02*
X161368942Y-61683095D01*
X161368942Y-61683095D02*
X161273704Y-61635476D01*
X161273704Y-61635476D02*
X161226085Y-61635476D01*
X161226085Y-61635476D02*
X161130847Y-61683095D01*
X161130847Y-61683095D02*
X161083228Y-61730714D01*
X161083228Y-61730714D02*
X161035609Y-61825952D01*
X161035609Y-61825952D02*
X161035609Y-62016428D01*
X161035609Y-62016428D02*
X160987990Y-62111666D01*
X160987990Y-62111666D02*
X160940371Y-62159285D01*
X160940371Y-62159285D02*
X160845133Y-62206904D01*
X160845133Y-62206904D02*
X160654657Y-62206904D01*
X160654657Y-62206904D02*
X160559419Y-62159285D01*
X160559419Y-62159285D02*
X160511800Y-62111666D01*
X160511800Y-62111666D02*
X160464180Y-62016428D01*
X160464180Y-62016428D02*
X160464180Y-61825952D01*
X160464180Y-61825952D02*
X160511800Y-61730714D01*
X160511800Y-61730714D02*
X160559419Y-61683095D01*
X160559419Y-61683095D02*
X160654657Y-61635476D01*
X160654657Y-61635476D02*
X160845133Y-61635476D01*
X160845133Y-61635476D02*
X160940371Y-61683095D01*
X160940371Y-61683095D02*
X160987990Y-61730714D01*
X160987990Y-61730714D02*
X161035609Y-61825952D01*
X161464180Y-61016428D02*
X161464180Y-60921190D01*
X161464180Y-60921190D02*
X161416561Y-60825952D01*
X161416561Y-60825952D02*
X161368942Y-60778333D01*
X161368942Y-60778333D02*
X161273704Y-60730714D01*
X161273704Y-60730714D02*
X161083228Y-60683095D01*
X161083228Y-60683095D02*
X160845133Y-60683095D01*
X160845133Y-60683095D02*
X160654657Y-60730714D01*
X160654657Y-60730714D02*
X160559419Y-60778333D01*
X160559419Y-60778333D02*
X160511800Y-60825952D01*
X160511800Y-60825952D02*
X160464180Y-60921190D01*
X160464180Y-60921190D02*
X160464180Y-61016428D01*
X160464180Y-61016428D02*
X160511800Y-61111666D01*
X160511800Y-61111666D02*
X160559419Y-61159285D01*
X160559419Y-61159285D02*
X160654657Y-61206904D01*
X160654657Y-61206904D02*
X160845133Y-61254523D01*
X160845133Y-61254523D02*
X161083228Y-61254523D01*
X161083228Y-61254523D02*
X161273704Y-61206904D01*
X161273704Y-61206904D02*
X161368942Y-61159285D01*
X161368942Y-61159285D02*
X161416561Y-61111666D01*
X161416561Y-61111666D02*
X161464180Y-61016428D01*
X159964180Y-64206904D02*
X159154657Y-64206904D01*
X159154657Y-64206904D02*
X159059419Y-64159285D01*
X159059419Y-64159285D02*
X159011800Y-64111666D01*
X159011800Y-64111666D02*
X158964180Y-64016428D01*
X158964180Y-64016428D02*
X158964180Y-63825952D01*
X158964180Y-63825952D02*
X159011800Y-63730714D01*
X159011800Y-63730714D02*
X159059419Y-63683095D01*
X159059419Y-63683095D02*
X159154657Y-63635476D01*
X159154657Y-63635476D02*
X159964180Y-63635476D01*
X159868942Y-63206904D02*
X159916561Y-63159285D01*
X159916561Y-63159285D02*
X159964180Y-63064047D01*
X159964180Y-63064047D02*
X159964180Y-62825952D01*
X159964180Y-62825952D02*
X159916561Y-62730714D01*
X159916561Y-62730714D02*
X159868942Y-62683095D01*
X159868942Y-62683095D02*
X159773704Y-62635476D01*
X159773704Y-62635476D02*
X159678466Y-62635476D01*
X159678466Y-62635476D02*
X159535609Y-62683095D01*
X159535609Y-62683095D02*
X158964180Y-63254523D01*
X158964180Y-63254523D02*
X158964180Y-62635476D01*
X105323809Y-97074819D02*
X104990476Y-98074819D01*
X104990476Y-98074819D02*
X104657143Y-97074819D01*
X103990476Y-97551009D02*
X103847619Y-97598628D01*
X103847619Y-97598628D02*
X103800000Y-97646247D01*
X103800000Y-97646247D02*
X103752381Y-97741485D01*
X103752381Y-97741485D02*
X103752381Y-97884342D01*
X103752381Y-97884342D02*
X103800000Y-97979580D01*
X103800000Y-97979580D02*
X103847619Y-98027200D01*
X103847619Y-98027200D02*
X103942857Y-98074819D01*
X103942857Y-98074819D02*
X104323809Y-98074819D01*
X104323809Y-98074819D02*
X104323809Y-97074819D01*
X104323809Y-97074819D02*
X103990476Y-97074819D01*
X103990476Y-97074819D02*
X103895238Y-97122438D01*
X103895238Y-97122438D02*
X103847619Y-97170057D01*
X103847619Y-97170057D02*
X103800000Y-97265295D01*
X103800000Y-97265295D02*
X103800000Y-97360533D01*
X103800000Y-97360533D02*
X103847619Y-97455771D01*
X103847619Y-97455771D02*
X103895238Y-97503390D01*
X103895238Y-97503390D02*
X103990476Y-97551009D01*
X103990476Y-97551009D02*
X104323809Y-97551009D01*
X103371428Y-97789104D02*
X102895238Y-97789104D01*
X103466666Y-98074819D02*
X103133333Y-97074819D01*
X103133333Y-97074819D02*
X102800000Y-98074819D01*
X102609523Y-97074819D02*
X102038095Y-97074819D01*
X102323809Y-98074819D02*
X102323809Y-97074819D01*
X101847618Y-97074819D02*
X101276190Y-97074819D01*
X101561904Y-98074819D02*
X101561904Y-97074819D01*
X105323809Y-92074819D02*
X104990476Y-93074819D01*
X104990476Y-93074819D02*
X104657143Y-92074819D01*
X103990476Y-92551009D02*
X103847619Y-92598628D01*
X103847619Y-92598628D02*
X103800000Y-92646247D01*
X103800000Y-92646247D02*
X103752381Y-92741485D01*
X103752381Y-92741485D02*
X103752381Y-92884342D01*
X103752381Y-92884342D02*
X103800000Y-92979580D01*
X103800000Y-92979580D02*
X103847619Y-93027200D01*
X103847619Y-93027200D02*
X103942857Y-93074819D01*
X103942857Y-93074819D02*
X104323809Y-93074819D01*
X104323809Y-93074819D02*
X104323809Y-92074819D01*
X104323809Y-92074819D02*
X103990476Y-92074819D01*
X103990476Y-92074819D02*
X103895238Y-92122438D01*
X103895238Y-92122438D02*
X103847619Y-92170057D01*
X103847619Y-92170057D02*
X103800000Y-92265295D01*
X103800000Y-92265295D02*
X103800000Y-92360533D01*
X103800000Y-92360533D02*
X103847619Y-92455771D01*
X103847619Y-92455771D02*
X103895238Y-92503390D01*
X103895238Y-92503390D02*
X103990476Y-92551009D01*
X103990476Y-92551009D02*
X104323809Y-92551009D01*
X103371428Y-92789104D02*
X102895238Y-92789104D01*
X103466666Y-93074819D02*
X103133333Y-92074819D01*
X103133333Y-92074819D02*
X102800000Y-93074819D01*
X102609523Y-92074819D02*
X102038095Y-92074819D01*
X102323809Y-93074819D02*
X102323809Y-92074819D01*
X101847618Y-92074819D02*
X101276190Y-92074819D01*
X101561904Y-93074819D02*
X101561904Y-92074819D01*
X124761428Y-54414819D02*
X125332856Y-54414819D01*
X125047142Y-54414819D02*
X125047142Y-53414819D01*
X125047142Y-53414819D02*
X125142380Y-53557676D01*
X125142380Y-53557676D02*
X125237618Y-53652914D01*
X125237618Y-53652914D02*
X125332856Y-53700533D01*
X124142380Y-53414819D02*
X124047142Y-53414819D01*
X124047142Y-53414819D02*
X123951904Y-53462438D01*
X123951904Y-53462438D02*
X123904285Y-53510057D01*
X123904285Y-53510057D02*
X123856666Y-53605295D01*
X123856666Y-53605295D02*
X123809047Y-53795771D01*
X123809047Y-53795771D02*
X123809047Y-54033866D01*
X123809047Y-54033866D02*
X123856666Y-54224342D01*
X123856666Y-54224342D02*
X123904285Y-54319580D01*
X123904285Y-54319580D02*
X123951904Y-54367200D01*
X123951904Y-54367200D02*
X124047142Y-54414819D01*
X124047142Y-54414819D02*
X124142380Y-54414819D01*
X124142380Y-54414819D02*
X124237618Y-54367200D01*
X124237618Y-54367200D02*
X124285237Y-54319580D01*
X124285237Y-54319580D02*
X124332856Y-54224342D01*
X124332856Y-54224342D02*
X124380475Y-54033866D01*
X124380475Y-54033866D02*
X124380475Y-53795771D01*
X124380475Y-53795771D02*
X124332856Y-53605295D01*
X124332856Y-53605295D02*
X124285237Y-53510057D01*
X124285237Y-53510057D02*
X124237618Y-53462438D01*
X124237618Y-53462438D02*
X124142380Y-53414819D01*
X122951904Y-53748152D02*
X122951904Y-54414819D01*
X123380475Y-53748152D02*
X123380475Y-54271961D01*
X123380475Y-54271961D02*
X123332856Y-54367200D01*
X123332856Y-54367200D02*
X123237618Y-54414819D01*
X123237618Y-54414819D02*
X123094761Y-54414819D01*
X123094761Y-54414819D02*
X122999523Y-54367200D01*
X122999523Y-54367200D02*
X122951904Y-54319580D01*
X122142380Y-53891009D02*
X122475713Y-53891009D01*
X122475713Y-54414819D02*
X122475713Y-53414819D01*
X122475713Y-53414819D02*
X121999523Y-53414819D01*
X123856666Y-50569580D02*
X123904285Y-50617200D01*
X123904285Y-50617200D02*
X124047142Y-50664819D01*
X124047142Y-50664819D02*
X124142380Y-50664819D01*
X124142380Y-50664819D02*
X124285237Y-50617200D01*
X124285237Y-50617200D02*
X124380475Y-50521961D01*
X124380475Y-50521961D02*
X124428094Y-50426723D01*
X124428094Y-50426723D02*
X124475713Y-50236247D01*
X124475713Y-50236247D02*
X124475713Y-50093390D01*
X124475713Y-50093390D02*
X124428094Y-49902914D01*
X124428094Y-49902914D02*
X124380475Y-49807676D01*
X124380475Y-49807676D02*
X124285237Y-49712438D01*
X124285237Y-49712438D02*
X124142380Y-49664819D01*
X124142380Y-49664819D02*
X124047142Y-49664819D01*
X124047142Y-49664819D02*
X123904285Y-49712438D01*
X123904285Y-49712438D02*
X123856666Y-49760057D01*
X123523332Y-49664819D02*
X122856666Y-49664819D01*
X122856666Y-49664819D02*
X123285237Y-50664819D01*
%TO.C,GND*%
X102725000Y-113027000D02*
X104225000Y-113027000D01*
X102725000Y-113527000D02*
X102725000Y-113027000D01*
X104225000Y-113027000D02*
X104225000Y-113527000D01*
X104225000Y-113527000D02*
X102725000Y-113527000D01*
X104725000Y-113277000D02*
G75*
G02*
X102225000Y-113277000I-1250000J0D01*
G01*
X102225000Y-113277000D02*
G75*
G02*
X104725000Y-113277000I1250000J0D01*
G01*
D11*
%TO.C,C3*%
X112417500Y-52248718D02*
X112917500Y-52248718D01*
X112667500Y-51998718D02*
X112667500Y-52498718D01*
X114080000Y-50365113D02*
G75*
G02*
X109080000Y-50365113I-2500000J0D01*
G01*
X109080000Y-50365113D02*
G75*
G02*
X114080000Y-50365113I2500000J0D01*
G01*
%TO.C,BT1*%
X79187000Y-46961000D02*
X100777000Y-46961000D01*
X100777000Y-123161000D01*
X79187000Y-123161000D01*
X79187000Y-46961000D01*
%TO.C,SW1*%
X131105000Y-54295000D02*
X135855000Y-54295000D01*
X135855000Y-47045000D01*
X131105000Y-47045000D01*
X131105000Y-54295000D01*
%TO.C,U7*%
X107690000Y-123866000D02*
X136690000Y-123866000D01*
X136690000Y-71866000D01*
X107690000Y-71866000D01*
X107690000Y-123866000D01*
%TO.C,U6*%
X139240000Y-116380000D02*
X171240000Y-116380000D01*
X171240000Y-84380000D01*
X139240000Y-84380000D01*
X139240000Y-116380000D01*
%TO.C,U2*%
X167419000Y-69085000D02*
X152719000Y-69085000D01*
X152719000Y-58085000D01*
X167419000Y-58085000D01*
X167419000Y-69085000D01*
D10*
%TO.C,VBATT*%
X102550000Y-94870000D02*
X104050000Y-94870000D01*
X102550000Y-95370000D02*
X102550000Y-94870000D01*
X104050000Y-94870000D02*
X104050000Y-95370000D01*
X104050000Y-95370000D02*
X102550000Y-95370000D01*
X104550000Y-95120000D02*
G75*
G02*
X102050000Y-95120000I-1250000J0D01*
G01*
X102050000Y-95120000D02*
G75*
G02*
X104550000Y-95120000I1250000J0D01*
G01*
D11*
%TO.C,C7*%
X125323605Y-49122500D02*
X125823605Y-49122500D01*
X125573605Y-49372500D02*
X125573605Y-48872500D01*
X126190000Y-50210000D02*
G75*
G02*
X121190000Y-50210000I-2500000J0D01*
G01*
X121190000Y-50210000D02*
G75*
G02*
X126190000Y-50210000I2500000J0D01*
G01*
%TD*%
M02*
