%TF.GenerationSoftware,KiCad,Pcbnew,8.0.8*%
%TF.CreationDate,2025-04-04T13:43:42-04:00*%
%TF.ProjectId,bike_computer,62696b65-5f63-46f6-9d70-757465722e6b,0*%
%TF.SameCoordinates,Original*%
%TF.FileFunction,Legend,Top*%
%TF.FilePolarity,Positive*%
%FSLAX46Y46*%
G04 Gerber Fmt 4.6, Leading zero omitted, Abs format (unit mm)*
G04 Created by KiCad (PCBNEW 8.0.8) date 2025-04-04 13:43:42*
%MOMM*%
%LPD*%
G01*
G04 APERTURE LIST*
%ADD10C,0.150000*%
%ADD11C,0.100000*%
%ADD12C,0.120000*%
G04 APERTURE END LIST*
D10*
X82443333Y-62479580D02*
X82395714Y-62527200D01*
X82395714Y-62527200D02*
X82252857Y-62574819D01*
X82252857Y-62574819D02*
X82157619Y-62574819D01*
X82157619Y-62574819D02*
X82014762Y-62527200D01*
X82014762Y-62527200D02*
X81919524Y-62431961D01*
X81919524Y-62431961D02*
X81871905Y-62336723D01*
X81871905Y-62336723D02*
X81824286Y-62146247D01*
X81824286Y-62146247D02*
X81824286Y-62003390D01*
X81824286Y-62003390D02*
X81871905Y-61812914D01*
X81871905Y-61812914D02*
X81919524Y-61717676D01*
X81919524Y-61717676D02*
X82014762Y-61622438D01*
X82014762Y-61622438D02*
X82157619Y-61574819D01*
X82157619Y-61574819D02*
X82252857Y-61574819D01*
X82252857Y-61574819D02*
X82395714Y-61622438D01*
X82395714Y-61622438D02*
X82443333Y-61670057D01*
X83348095Y-61574819D02*
X82871905Y-61574819D01*
X82871905Y-61574819D02*
X82824286Y-62051009D01*
X82824286Y-62051009D02*
X82871905Y-62003390D01*
X82871905Y-62003390D02*
X82967143Y-61955771D01*
X82967143Y-61955771D02*
X83205238Y-61955771D01*
X83205238Y-61955771D02*
X83300476Y-62003390D01*
X83300476Y-62003390D02*
X83348095Y-62051009D01*
X83348095Y-62051009D02*
X83395714Y-62146247D01*
X83395714Y-62146247D02*
X83395714Y-62384342D01*
X83395714Y-62384342D02*
X83348095Y-62479580D01*
X83348095Y-62479580D02*
X83300476Y-62527200D01*
X83300476Y-62527200D02*
X83205238Y-62574819D01*
X83205238Y-62574819D02*
X82967143Y-62574819D01*
X82967143Y-62574819D02*
X82871905Y-62527200D01*
X82871905Y-62527200D02*
X82824286Y-62479580D01*
X120929580Y-61866666D02*
X120977200Y-61914285D01*
X120977200Y-61914285D02*
X121024819Y-62057142D01*
X121024819Y-62057142D02*
X121024819Y-62152380D01*
X121024819Y-62152380D02*
X120977200Y-62295237D01*
X120977200Y-62295237D02*
X120881961Y-62390475D01*
X120881961Y-62390475D02*
X120786723Y-62438094D01*
X120786723Y-62438094D02*
X120596247Y-62485713D01*
X120596247Y-62485713D02*
X120453390Y-62485713D01*
X120453390Y-62485713D02*
X120262914Y-62438094D01*
X120262914Y-62438094D02*
X120167676Y-62390475D01*
X120167676Y-62390475D02*
X120072438Y-62295237D01*
X120072438Y-62295237D02*
X120024819Y-62152380D01*
X120024819Y-62152380D02*
X120024819Y-62057142D01*
X120024819Y-62057142D02*
X120072438Y-61914285D01*
X120072438Y-61914285D02*
X120120057Y-61866666D01*
X120120057Y-61485713D02*
X120072438Y-61438094D01*
X120072438Y-61438094D02*
X120024819Y-61342856D01*
X120024819Y-61342856D02*
X120024819Y-61104761D01*
X120024819Y-61104761D02*
X120072438Y-61009523D01*
X120072438Y-61009523D02*
X120120057Y-60961904D01*
X120120057Y-60961904D02*
X120215295Y-60914285D01*
X120215295Y-60914285D02*
X120310533Y-60914285D01*
X120310533Y-60914285D02*
X120453390Y-60961904D01*
X120453390Y-60961904D02*
X121024819Y-61533332D01*
X121024819Y-61533332D02*
X121024819Y-60914285D01*
X157059580Y-105696666D02*
X157107200Y-105744285D01*
X157107200Y-105744285D02*
X157154819Y-105887142D01*
X157154819Y-105887142D02*
X157154819Y-105982380D01*
X157154819Y-105982380D02*
X157107200Y-106125237D01*
X157107200Y-106125237D02*
X157011961Y-106220475D01*
X157011961Y-106220475D02*
X156916723Y-106268094D01*
X156916723Y-106268094D02*
X156726247Y-106315713D01*
X156726247Y-106315713D02*
X156583390Y-106315713D01*
X156583390Y-106315713D02*
X156392914Y-106268094D01*
X156392914Y-106268094D02*
X156297676Y-106220475D01*
X156297676Y-106220475D02*
X156202438Y-106125237D01*
X156202438Y-106125237D02*
X156154819Y-105982380D01*
X156154819Y-105982380D02*
X156154819Y-105887142D01*
X156154819Y-105887142D02*
X156202438Y-105744285D01*
X156202438Y-105744285D02*
X156250057Y-105696666D01*
X156488152Y-104839523D02*
X157154819Y-104839523D01*
X156107200Y-105077618D02*
X156821485Y-105315713D01*
X156821485Y-105315713D02*
X156821485Y-104696666D01*
X104063810Y-48274819D02*
X104682857Y-48274819D01*
X104682857Y-48274819D02*
X104349524Y-48655771D01*
X104349524Y-48655771D02*
X104492381Y-48655771D01*
X104492381Y-48655771D02*
X104587619Y-48703390D01*
X104587619Y-48703390D02*
X104635238Y-48751009D01*
X104635238Y-48751009D02*
X104682857Y-48846247D01*
X104682857Y-48846247D02*
X104682857Y-49084342D01*
X104682857Y-49084342D02*
X104635238Y-49179580D01*
X104635238Y-49179580D02*
X104587619Y-49227200D01*
X104587619Y-49227200D02*
X104492381Y-49274819D01*
X104492381Y-49274819D02*
X104206667Y-49274819D01*
X104206667Y-49274819D02*
X104111429Y-49227200D01*
X104111429Y-49227200D02*
X104063810Y-49179580D01*
X105111429Y-49179580D02*
X105159048Y-49227200D01*
X105159048Y-49227200D02*
X105111429Y-49274819D01*
X105111429Y-49274819D02*
X105063810Y-49227200D01*
X105063810Y-49227200D02*
X105111429Y-49179580D01*
X105111429Y-49179580D02*
X105111429Y-49274819D01*
X105492381Y-48274819D02*
X106111428Y-48274819D01*
X106111428Y-48274819D02*
X105778095Y-48655771D01*
X105778095Y-48655771D02*
X105920952Y-48655771D01*
X105920952Y-48655771D02*
X106016190Y-48703390D01*
X106016190Y-48703390D02*
X106063809Y-48751009D01*
X106063809Y-48751009D02*
X106111428Y-48846247D01*
X106111428Y-48846247D02*
X106111428Y-49084342D01*
X106111428Y-49084342D02*
X106063809Y-49179580D01*
X106063809Y-49179580D02*
X106016190Y-49227200D01*
X106016190Y-49227200D02*
X105920952Y-49274819D01*
X105920952Y-49274819D02*
X105635238Y-49274819D01*
X105635238Y-49274819D02*
X105540000Y-49227200D01*
X105540000Y-49227200D02*
X105492381Y-49179580D01*
X106397143Y-48274819D02*
X106730476Y-49274819D01*
X106730476Y-49274819D02*
X107063809Y-48274819D01*
X145776819Y-64605904D02*
X146586342Y-64605904D01*
X146586342Y-64605904D02*
X146681580Y-64558285D01*
X146681580Y-64558285D02*
X146729200Y-64510666D01*
X146729200Y-64510666D02*
X146776819Y-64415428D01*
X146776819Y-64415428D02*
X146776819Y-64224952D01*
X146776819Y-64224952D02*
X146729200Y-64129714D01*
X146729200Y-64129714D02*
X146681580Y-64082095D01*
X146681580Y-64082095D02*
X146586342Y-64034476D01*
X146586342Y-64034476D02*
X145776819Y-64034476D01*
X145776819Y-63653523D02*
X145776819Y-63034476D01*
X145776819Y-63034476D02*
X146157771Y-63367809D01*
X146157771Y-63367809D02*
X146157771Y-63224952D01*
X146157771Y-63224952D02*
X146205390Y-63129714D01*
X146205390Y-63129714D02*
X146253009Y-63082095D01*
X146253009Y-63082095D02*
X146348247Y-63034476D01*
X146348247Y-63034476D02*
X146586342Y-63034476D01*
X146586342Y-63034476D02*
X146681580Y-63082095D01*
X146681580Y-63082095D02*
X146729200Y-63129714D01*
X146729200Y-63129714D02*
X146776819Y-63224952D01*
X146776819Y-63224952D02*
X146776819Y-63510666D01*
X146776819Y-63510666D02*
X146729200Y-63605904D01*
X146729200Y-63605904D02*
X146681580Y-63653523D01*
X124892580Y-115236666D02*
X124940200Y-115284285D01*
X124940200Y-115284285D02*
X124987819Y-115427142D01*
X124987819Y-115427142D02*
X124987819Y-115522380D01*
X124987819Y-115522380D02*
X124940200Y-115665237D01*
X124940200Y-115665237D02*
X124844961Y-115760475D01*
X124844961Y-115760475D02*
X124749723Y-115808094D01*
X124749723Y-115808094D02*
X124559247Y-115855713D01*
X124559247Y-115855713D02*
X124416390Y-115855713D01*
X124416390Y-115855713D02*
X124225914Y-115808094D01*
X124225914Y-115808094D02*
X124130676Y-115760475D01*
X124130676Y-115760475D02*
X124035438Y-115665237D01*
X124035438Y-115665237D02*
X123987819Y-115522380D01*
X123987819Y-115522380D02*
X123987819Y-115427142D01*
X123987819Y-115427142D02*
X124035438Y-115284285D01*
X124035438Y-115284285D02*
X124083057Y-115236666D01*
X123987819Y-114379523D02*
X123987819Y-114569999D01*
X123987819Y-114569999D02*
X124035438Y-114665237D01*
X124035438Y-114665237D02*
X124083057Y-114712856D01*
X124083057Y-114712856D02*
X124225914Y-114808094D01*
X124225914Y-114808094D02*
X124416390Y-114855713D01*
X124416390Y-114855713D02*
X124797342Y-114855713D01*
X124797342Y-114855713D02*
X124892580Y-114808094D01*
X124892580Y-114808094D02*
X124940200Y-114760475D01*
X124940200Y-114760475D02*
X124987819Y-114665237D01*
X124987819Y-114665237D02*
X124987819Y-114474761D01*
X124987819Y-114474761D02*
X124940200Y-114379523D01*
X124940200Y-114379523D02*
X124892580Y-114331904D01*
X124892580Y-114331904D02*
X124797342Y-114284285D01*
X124797342Y-114284285D02*
X124559247Y-114284285D01*
X124559247Y-114284285D02*
X124464009Y-114331904D01*
X124464009Y-114331904D02*
X124416390Y-114379523D01*
X124416390Y-114379523D02*
X124368771Y-114474761D01*
X124368771Y-114474761D02*
X124368771Y-114665237D01*
X124368771Y-114665237D02*
X124416390Y-114760475D01*
X124416390Y-114760475D02*
X124464009Y-114808094D01*
X124464009Y-114808094D02*
X124559247Y-114855713D01*
X93403333Y-72924819D02*
X93070000Y-72448628D01*
X92831905Y-72924819D02*
X92831905Y-71924819D01*
X92831905Y-71924819D02*
X93212857Y-71924819D01*
X93212857Y-71924819D02*
X93308095Y-71972438D01*
X93308095Y-71972438D02*
X93355714Y-72020057D01*
X93355714Y-72020057D02*
X93403333Y-72115295D01*
X93403333Y-72115295D02*
X93403333Y-72258152D01*
X93403333Y-72258152D02*
X93355714Y-72353390D01*
X93355714Y-72353390D02*
X93308095Y-72401009D01*
X93308095Y-72401009D02*
X93212857Y-72448628D01*
X93212857Y-72448628D02*
X92831905Y-72448628D01*
X94355714Y-72924819D02*
X93784286Y-72924819D01*
X94070000Y-72924819D02*
X94070000Y-71924819D01*
X94070000Y-71924819D02*
X93974762Y-72067676D01*
X93974762Y-72067676D02*
X93879524Y-72162914D01*
X93879524Y-72162914D02*
X93784286Y-72210533D01*
D11*
X89408095Y-94457419D02*
X89408095Y-95266942D01*
X89408095Y-95266942D02*
X89455714Y-95362180D01*
X89455714Y-95362180D02*
X89503333Y-95409800D01*
X89503333Y-95409800D02*
X89598571Y-95457419D01*
X89598571Y-95457419D02*
X89789047Y-95457419D01*
X89789047Y-95457419D02*
X89884285Y-95409800D01*
X89884285Y-95409800D02*
X89931904Y-95362180D01*
X89931904Y-95362180D02*
X89979523Y-95266942D01*
X89979523Y-95266942D02*
X89979523Y-94457419D01*
X90931904Y-94457419D02*
X90455714Y-94457419D01*
X90455714Y-94457419D02*
X90408095Y-94933609D01*
X90408095Y-94933609D02*
X90455714Y-94885990D01*
X90455714Y-94885990D02*
X90550952Y-94838371D01*
X90550952Y-94838371D02*
X90789047Y-94838371D01*
X90789047Y-94838371D02*
X90884285Y-94885990D01*
X90884285Y-94885990D02*
X90931904Y-94933609D01*
X90931904Y-94933609D02*
X90979523Y-95028847D01*
X90979523Y-95028847D02*
X90979523Y-95266942D01*
X90979523Y-95266942D02*
X90931904Y-95362180D01*
X90931904Y-95362180D02*
X90884285Y-95409800D01*
X90884285Y-95409800D02*
X90789047Y-95457419D01*
X90789047Y-95457419D02*
X90550952Y-95457419D01*
X90550952Y-95457419D02*
X90455714Y-95409800D01*
X90455714Y-95409800D02*
X90408095Y-95362180D01*
D10*
X93333333Y-64774819D02*
X93000000Y-64298628D01*
X92761905Y-64774819D02*
X92761905Y-63774819D01*
X92761905Y-63774819D02*
X93142857Y-63774819D01*
X93142857Y-63774819D02*
X93238095Y-63822438D01*
X93238095Y-63822438D02*
X93285714Y-63870057D01*
X93285714Y-63870057D02*
X93333333Y-63965295D01*
X93333333Y-63965295D02*
X93333333Y-64108152D01*
X93333333Y-64108152D02*
X93285714Y-64203390D01*
X93285714Y-64203390D02*
X93238095Y-64251009D01*
X93238095Y-64251009D02*
X93142857Y-64298628D01*
X93142857Y-64298628D02*
X92761905Y-64298628D01*
X93714286Y-63870057D02*
X93761905Y-63822438D01*
X93761905Y-63822438D02*
X93857143Y-63774819D01*
X93857143Y-63774819D02*
X94095238Y-63774819D01*
X94095238Y-63774819D02*
X94190476Y-63822438D01*
X94190476Y-63822438D02*
X94238095Y-63870057D01*
X94238095Y-63870057D02*
X94285714Y-63965295D01*
X94285714Y-63965295D02*
X94285714Y-64060533D01*
X94285714Y-64060533D02*
X94238095Y-64203390D01*
X94238095Y-64203390D02*
X93666667Y-64774819D01*
X93666667Y-64774819D02*
X94285714Y-64774819D01*
X171709580Y-64126666D02*
X171757200Y-64174285D01*
X171757200Y-64174285D02*
X171804819Y-64317142D01*
X171804819Y-64317142D02*
X171804819Y-64412380D01*
X171804819Y-64412380D02*
X171757200Y-64555237D01*
X171757200Y-64555237D02*
X171661961Y-64650475D01*
X171661961Y-64650475D02*
X171566723Y-64698094D01*
X171566723Y-64698094D02*
X171376247Y-64745713D01*
X171376247Y-64745713D02*
X171233390Y-64745713D01*
X171233390Y-64745713D02*
X171042914Y-64698094D01*
X171042914Y-64698094D02*
X170947676Y-64650475D01*
X170947676Y-64650475D02*
X170852438Y-64555237D01*
X170852438Y-64555237D02*
X170804819Y-64412380D01*
X170804819Y-64412380D02*
X170804819Y-64317142D01*
X170804819Y-64317142D02*
X170852438Y-64174285D01*
X170852438Y-64174285D02*
X170900057Y-64126666D01*
X171804819Y-63174285D02*
X171804819Y-63745713D01*
X171804819Y-63459999D02*
X170804819Y-63459999D01*
X170804819Y-63459999D02*
X170947676Y-63555237D01*
X170947676Y-63555237D02*
X171042914Y-63650475D01*
X171042914Y-63650475D02*
X171090533Y-63745713D01*
D12*
%TO.C,C5*%
X80190000Y-63250000D02*
X80190000Y-65490000D01*
X80190000Y-63250000D02*
X85030000Y-63250000D01*
X80190000Y-65490000D02*
X85030000Y-65490000D01*
X85030000Y-63250000D02*
X85030000Y-65490000D01*
%TO.C,C2*%
X117200000Y-59280000D02*
X117200000Y-64120000D01*
X119440000Y-59280000D02*
X117200000Y-59280000D01*
X119440000Y-59280000D02*
X119440000Y-64120000D01*
X119440000Y-64120000D02*
X117200000Y-64120000D01*
%TO.C,C4*%
X153050000Y-103200000D02*
X155290000Y-103200000D01*
X153050000Y-108040000D02*
X153050000Y-103200000D01*
X153050000Y-108040000D02*
X155290000Y-108040000D01*
X155290000Y-108040000D02*
X155290000Y-103200000D01*
D10*
%TO.C,3.3V*%
X106940000Y-51350000D02*
G75*
G02*
X104140000Y-51350000I-1400000J0D01*
G01*
X104140000Y-51350000D02*
G75*
G02*
X106940000Y-51350000I1400000J0D01*
G01*
D12*
%TO.C,U3*%
X129432000Y-58723000D02*
X129432000Y-68964000D01*
X129432000Y-60444000D02*
X123472000Y-60444000D01*
X129432000Y-62144000D02*
X127288000Y-62144000D01*
X129432000Y-63844000D02*
X123487000Y-63844000D01*
X129432000Y-65544000D02*
X127288000Y-65544000D01*
X129432000Y-67244000D02*
X123487000Y-67244000D01*
X145322000Y-58723000D02*
X129432000Y-58723000D01*
X145322000Y-58723000D02*
X145322000Y-68964000D01*
X145322000Y-68964000D02*
X129432000Y-68964000D01*
%TO.C,U4*%
D11*
X71834500Y-56202000D02*
X179874500Y-56202000D01*
X179874500Y-117942000D01*
X71834500Y-117942000D01*
X71834500Y-56202000D01*
X76534500Y-59622000D02*
G75*
G02*
X73134500Y-59622000I-1700000J0D01*
G01*
X73134500Y-59622000D02*
G75*
G02*
X76534500Y-59622000I1700000J0D01*
G01*
X76534500Y-114522000D02*
G75*
G02*
X73134500Y-114522000I-1700000J0D01*
G01*
X73134500Y-114522000D02*
G75*
G02*
X76534500Y-114522000I1700000J0D01*
G01*
X178574500Y-59622000D02*
G75*
G02*
X175174500Y-59622000I-1700000J0D01*
G01*
X175174500Y-59622000D02*
G75*
G02*
X178574500Y-59622000I1700000J0D01*
G01*
X178574500Y-114522000D02*
G75*
G02*
X175174500Y-114522000I-1700000J0D01*
G01*
X175174500Y-114522000D02*
G75*
G02*
X178574500Y-114522000I1700000J0D01*
G01*
D12*
%TO.C,C6*%
X121130000Y-112700000D02*
X123370000Y-112700000D01*
X121130000Y-117540000D02*
X121130000Y-112700000D01*
X121130000Y-117540000D02*
X123370000Y-117540000D01*
X123370000Y-117540000D02*
X123370000Y-112700000D01*
%TO.C,R1*%
X89530000Y-74840000D02*
X90300000Y-74840000D01*
X90300000Y-73470000D02*
X90300000Y-76210000D01*
X90300000Y-76210000D02*
X96840000Y-76210000D01*
X96840000Y-73470000D02*
X90300000Y-73470000D01*
X96840000Y-76210000D02*
X96840000Y-73470000D01*
X97610000Y-74840000D02*
X96840000Y-74840000D01*
%TO.C,U5*%
D11*
X81525000Y-124071000D02*
X98725000Y-124071000D01*
X98725000Y-96071000D01*
X81525000Y-96071000D01*
X81525000Y-124071000D01*
D12*
%TO.C,R2*%
X89480000Y-66550000D02*
X90250000Y-66550000D01*
X90250000Y-65180000D02*
X90250000Y-67920000D01*
X90250000Y-67920000D02*
X96790000Y-67920000D01*
X96790000Y-65180000D02*
X90250000Y-65180000D01*
X96790000Y-67920000D02*
X96790000Y-65180000D01*
X97560000Y-66550000D02*
X96790000Y-66550000D01*
%TO.C,C1*%
X167980000Y-61540000D02*
X167980000Y-66380000D01*
X170220000Y-61540000D02*
X167980000Y-61540000D01*
X170220000Y-61540000D02*
X170220000Y-66380000D01*
X170220000Y-66380000D02*
X167980000Y-66380000D01*
%TD*%
M02*
