%TF.GenerationSoftware,KiCad,Pcbnew,8.0.8*%
%TF.CreationDate,2025-04-04T13:43:43-04:00*%
%TF.ProjectId,bike_computer,62696b65-5f63-46f6-9d70-757465722e6b,0*%
%TF.SameCoordinates,Original*%
%TF.FileFunction,AssemblyDrawing,Top*%
%FSLAX46Y46*%
G04 Gerber Fmt 4.6, Leading zero omitted, Abs format (unit mm)*
G04 Created by KiCad (PCBNEW 8.0.8) date 2025-04-04 13:43:43*
%MOMM*%
%LPD*%
G01*
G04 APERTURE LIST*
%ADD10C,0.150000*%
%ADD11C,0.100000*%
%ADD12C,0.138000*%
G04 APERTURE END LIST*
D10*
X121332940Y-132303819D02*
X120761512Y-132303819D01*
X121047226Y-132303819D02*
X121047226Y-131303819D01*
X121047226Y-131303819D02*
X120951988Y-131446676D01*
X120951988Y-131446676D02*
X120856750Y-131541914D01*
X120856750Y-131541914D02*
X120761512Y-131589533D01*
X122285321Y-132303819D02*
X121713893Y-132303819D01*
X121999607Y-132303819D02*
X121999607Y-131303819D01*
X121999607Y-131303819D02*
X121904369Y-131446676D01*
X121904369Y-131446676D02*
X121809131Y-131541914D01*
X121809131Y-131541914D02*
X121713893Y-131589533D01*
X122666274Y-131399057D02*
X122713893Y-131351438D01*
X122713893Y-131351438D02*
X122809131Y-131303819D01*
X122809131Y-131303819D02*
X123047226Y-131303819D01*
X123047226Y-131303819D02*
X123142464Y-131351438D01*
X123142464Y-131351438D02*
X123190083Y-131399057D01*
X123190083Y-131399057D02*
X123237702Y-131494295D01*
X123237702Y-131494295D02*
X123237702Y-131589533D01*
X123237702Y-131589533D02*
X123190083Y-131732390D01*
X123190083Y-131732390D02*
X122618655Y-132303819D01*
X122618655Y-132303819D02*
X123237702Y-132303819D01*
X123666274Y-132208580D02*
X123713893Y-132256200D01*
X123713893Y-132256200D02*
X123666274Y-132303819D01*
X123666274Y-132303819D02*
X123618655Y-132256200D01*
X123618655Y-132256200D02*
X123666274Y-132208580D01*
X123666274Y-132208580D02*
X123666274Y-132303819D01*
X124332940Y-131303819D02*
X124428178Y-131303819D01*
X124428178Y-131303819D02*
X124523416Y-131351438D01*
X124523416Y-131351438D02*
X124571035Y-131399057D01*
X124571035Y-131399057D02*
X124618654Y-131494295D01*
X124618654Y-131494295D02*
X124666273Y-131684771D01*
X124666273Y-131684771D02*
X124666273Y-131922866D01*
X124666273Y-131922866D02*
X124618654Y-132113342D01*
X124618654Y-132113342D02*
X124571035Y-132208580D01*
X124571035Y-132208580D02*
X124523416Y-132256200D01*
X124523416Y-132256200D02*
X124428178Y-132303819D01*
X124428178Y-132303819D02*
X124332940Y-132303819D01*
X124332940Y-132303819D02*
X124237702Y-132256200D01*
X124237702Y-132256200D02*
X124190083Y-132208580D01*
X124190083Y-132208580D02*
X124142464Y-132113342D01*
X124142464Y-132113342D02*
X124094845Y-131922866D01*
X124094845Y-131922866D02*
X124094845Y-131684771D01*
X124094845Y-131684771D02*
X124142464Y-131494295D01*
X124142464Y-131494295D02*
X124190083Y-131399057D01*
X124190083Y-131399057D02*
X124237702Y-131351438D01*
X124237702Y-131351438D02*
X124332940Y-131303819D01*
X125285321Y-131303819D02*
X125380559Y-131303819D01*
X125380559Y-131303819D02*
X125475797Y-131351438D01*
X125475797Y-131351438D02*
X125523416Y-131399057D01*
X125523416Y-131399057D02*
X125571035Y-131494295D01*
X125571035Y-131494295D02*
X125618654Y-131684771D01*
X125618654Y-131684771D02*
X125618654Y-131922866D01*
X125618654Y-131922866D02*
X125571035Y-132113342D01*
X125571035Y-132113342D02*
X125523416Y-132208580D01*
X125523416Y-132208580D02*
X125475797Y-132256200D01*
X125475797Y-132256200D02*
X125380559Y-132303819D01*
X125380559Y-132303819D02*
X125285321Y-132303819D01*
X125285321Y-132303819D02*
X125190083Y-132256200D01*
X125190083Y-132256200D02*
X125142464Y-132208580D01*
X125142464Y-132208580D02*
X125094845Y-132113342D01*
X125094845Y-132113342D02*
X125047226Y-131922866D01*
X125047226Y-131922866D02*
X125047226Y-131684771D01*
X125047226Y-131684771D02*
X125094845Y-131494295D01*
X125094845Y-131494295D02*
X125142464Y-131399057D01*
X125142464Y-131399057D02*
X125190083Y-131351438D01*
X125190083Y-131351438D02*
X125285321Y-131303819D01*
X126237702Y-131303819D02*
X126332940Y-131303819D01*
X126332940Y-131303819D02*
X126428178Y-131351438D01*
X126428178Y-131351438D02*
X126475797Y-131399057D01*
X126475797Y-131399057D02*
X126523416Y-131494295D01*
X126523416Y-131494295D02*
X126571035Y-131684771D01*
X126571035Y-131684771D02*
X126571035Y-131922866D01*
X126571035Y-131922866D02*
X126523416Y-132113342D01*
X126523416Y-132113342D02*
X126475797Y-132208580D01*
X126475797Y-132208580D02*
X126428178Y-132256200D01*
X126428178Y-132256200D02*
X126332940Y-132303819D01*
X126332940Y-132303819D02*
X126237702Y-132303819D01*
X126237702Y-132303819D02*
X126142464Y-132256200D01*
X126142464Y-132256200D02*
X126094845Y-132208580D01*
X126094845Y-132208580D02*
X126047226Y-132113342D01*
X126047226Y-132113342D02*
X125999607Y-131922866D01*
X125999607Y-131922866D02*
X125999607Y-131684771D01*
X125999607Y-131684771D02*
X126047226Y-131494295D01*
X126047226Y-131494295D02*
X126094845Y-131399057D01*
X126094845Y-131399057D02*
X126142464Y-131351438D01*
X126142464Y-131351438D02*
X126237702Y-131303819D01*
X127190083Y-131303819D02*
X127285321Y-131303819D01*
X127285321Y-131303819D02*
X127380559Y-131351438D01*
X127380559Y-131351438D02*
X127428178Y-131399057D01*
X127428178Y-131399057D02*
X127475797Y-131494295D01*
X127475797Y-131494295D02*
X127523416Y-131684771D01*
X127523416Y-131684771D02*
X127523416Y-131922866D01*
X127523416Y-131922866D02*
X127475797Y-132113342D01*
X127475797Y-132113342D02*
X127428178Y-132208580D01*
X127428178Y-132208580D02*
X127380559Y-132256200D01*
X127380559Y-132256200D02*
X127285321Y-132303819D01*
X127285321Y-132303819D02*
X127190083Y-132303819D01*
X127190083Y-132303819D02*
X127094845Y-132256200D01*
X127094845Y-132256200D02*
X127047226Y-132208580D01*
X127047226Y-132208580D02*
X126999607Y-132113342D01*
X126999607Y-132113342D02*
X126951988Y-131922866D01*
X126951988Y-131922866D02*
X126951988Y-131684771D01*
X126951988Y-131684771D02*
X126999607Y-131494295D01*
X126999607Y-131494295D02*
X127047226Y-131399057D01*
X127047226Y-131399057D02*
X127094845Y-131351438D01*
X127094845Y-131351438D02*
X127190083Y-131303819D01*
X128713893Y-132303819D02*
X128713893Y-131637152D01*
X128713893Y-131732390D02*
X128761512Y-131684771D01*
X128761512Y-131684771D02*
X128856750Y-131637152D01*
X128856750Y-131637152D02*
X128999607Y-131637152D01*
X128999607Y-131637152D02*
X129094845Y-131684771D01*
X129094845Y-131684771D02*
X129142464Y-131780009D01*
X129142464Y-131780009D02*
X129142464Y-132303819D01*
X129142464Y-131780009D02*
X129190083Y-131684771D01*
X129190083Y-131684771D02*
X129285321Y-131637152D01*
X129285321Y-131637152D02*
X129428178Y-131637152D01*
X129428178Y-131637152D02*
X129523417Y-131684771D01*
X129523417Y-131684771D02*
X129571036Y-131780009D01*
X129571036Y-131780009D02*
X129571036Y-132303819D01*
X130047226Y-132303819D02*
X130047226Y-131637152D01*
X130047226Y-131732390D02*
X130094845Y-131684771D01*
X130094845Y-131684771D02*
X130190083Y-131637152D01*
X130190083Y-131637152D02*
X130332940Y-131637152D01*
X130332940Y-131637152D02*
X130428178Y-131684771D01*
X130428178Y-131684771D02*
X130475797Y-131780009D01*
X130475797Y-131780009D02*
X130475797Y-132303819D01*
X130475797Y-131780009D02*
X130523416Y-131684771D01*
X130523416Y-131684771D02*
X130618654Y-131637152D01*
X130618654Y-131637152D02*
X130761511Y-131637152D01*
X130761511Y-131637152D02*
X130856750Y-131684771D01*
X130856750Y-131684771D02*
X130904369Y-131780009D01*
X130904369Y-131780009D02*
X130904369Y-132303819D01*
D11*
X69856750Y-124801000D02*
X69856750Y-133585420D01*
X181856750Y-124801000D02*
X181856750Y-133585420D01*
X69856750Y-132999000D02*
X181856750Y-132999000D01*
X69856750Y-132999000D02*
X181856750Y-132999000D01*
X69856750Y-132999000D02*
X70983254Y-132412579D01*
X69856750Y-132999000D02*
X70983254Y-133585421D01*
X181856750Y-132999000D02*
X180730246Y-133585421D01*
X181856750Y-132999000D02*
X180730246Y-132412579D01*
X186677419Y-89467665D02*
X186677419Y-88800999D01*
X186677419Y-88800999D02*
X187677419Y-89229570D01*
X187677419Y-88372427D02*
X187677419Y-88181951D01*
X187677419Y-88181951D02*
X187629800Y-88086713D01*
X187629800Y-88086713D02*
X187582180Y-88039094D01*
X187582180Y-88039094D02*
X187439323Y-87943856D01*
X187439323Y-87943856D02*
X187248847Y-87896237D01*
X187248847Y-87896237D02*
X186867895Y-87896237D01*
X186867895Y-87896237D02*
X186772657Y-87943856D01*
X186772657Y-87943856D02*
X186725038Y-87991475D01*
X186725038Y-87991475D02*
X186677419Y-88086713D01*
X186677419Y-88086713D02*
X186677419Y-88277189D01*
X186677419Y-88277189D02*
X186725038Y-88372427D01*
X186725038Y-88372427D02*
X186772657Y-88420046D01*
X186772657Y-88420046D02*
X186867895Y-88467665D01*
X186867895Y-88467665D02*
X187105990Y-88467665D01*
X187105990Y-88467665D02*
X187201228Y-88420046D01*
X187201228Y-88420046D02*
X187248847Y-88372427D01*
X187248847Y-88372427D02*
X187296466Y-88277189D01*
X187296466Y-88277189D02*
X187296466Y-88086713D01*
X187296466Y-88086713D02*
X187248847Y-87991475D01*
X187248847Y-87991475D02*
X187201228Y-87943856D01*
X187201228Y-87943856D02*
X187105990Y-87896237D01*
X187582180Y-87467665D02*
X187629800Y-87420046D01*
X187629800Y-87420046D02*
X187677419Y-87467665D01*
X187677419Y-87467665D02*
X187629800Y-87515284D01*
X187629800Y-87515284D02*
X187582180Y-87467665D01*
X187582180Y-87467665D02*
X187677419Y-87467665D01*
X186677419Y-86800999D02*
X186677419Y-86705761D01*
X186677419Y-86705761D02*
X186725038Y-86610523D01*
X186725038Y-86610523D02*
X186772657Y-86562904D01*
X186772657Y-86562904D02*
X186867895Y-86515285D01*
X186867895Y-86515285D02*
X187058371Y-86467666D01*
X187058371Y-86467666D02*
X187296466Y-86467666D01*
X187296466Y-86467666D02*
X187486942Y-86515285D01*
X187486942Y-86515285D02*
X187582180Y-86562904D01*
X187582180Y-86562904D02*
X187629800Y-86610523D01*
X187629800Y-86610523D02*
X187677419Y-86705761D01*
X187677419Y-86705761D02*
X187677419Y-86800999D01*
X187677419Y-86800999D02*
X187629800Y-86896237D01*
X187629800Y-86896237D02*
X187582180Y-86943856D01*
X187582180Y-86943856D02*
X187486942Y-86991475D01*
X187486942Y-86991475D02*
X187296466Y-87039094D01*
X187296466Y-87039094D02*
X187058371Y-87039094D01*
X187058371Y-87039094D02*
X186867895Y-86991475D01*
X186867895Y-86991475D02*
X186772657Y-86943856D01*
X186772657Y-86943856D02*
X186725038Y-86896237D01*
X186725038Y-86896237D02*
X186677419Y-86800999D01*
X186677419Y-85848618D02*
X186677419Y-85753380D01*
X186677419Y-85753380D02*
X186725038Y-85658142D01*
X186725038Y-85658142D02*
X186772657Y-85610523D01*
X186772657Y-85610523D02*
X186867895Y-85562904D01*
X186867895Y-85562904D02*
X187058371Y-85515285D01*
X187058371Y-85515285D02*
X187296466Y-85515285D01*
X187296466Y-85515285D02*
X187486942Y-85562904D01*
X187486942Y-85562904D02*
X187582180Y-85610523D01*
X187582180Y-85610523D02*
X187629800Y-85658142D01*
X187629800Y-85658142D02*
X187677419Y-85753380D01*
X187677419Y-85753380D02*
X187677419Y-85848618D01*
X187677419Y-85848618D02*
X187629800Y-85943856D01*
X187629800Y-85943856D02*
X187582180Y-85991475D01*
X187582180Y-85991475D02*
X187486942Y-86039094D01*
X187486942Y-86039094D02*
X187296466Y-86086713D01*
X187296466Y-86086713D02*
X187058371Y-86086713D01*
X187058371Y-86086713D02*
X186867895Y-86039094D01*
X186867895Y-86039094D02*
X186772657Y-85991475D01*
X186772657Y-85991475D02*
X186725038Y-85943856D01*
X186725038Y-85943856D02*
X186677419Y-85848618D01*
X186677419Y-84896237D02*
X186677419Y-84800999D01*
X186677419Y-84800999D02*
X186725038Y-84705761D01*
X186725038Y-84705761D02*
X186772657Y-84658142D01*
X186772657Y-84658142D02*
X186867895Y-84610523D01*
X186867895Y-84610523D02*
X187058371Y-84562904D01*
X187058371Y-84562904D02*
X187296466Y-84562904D01*
X187296466Y-84562904D02*
X187486942Y-84610523D01*
X187486942Y-84610523D02*
X187582180Y-84658142D01*
X187582180Y-84658142D02*
X187629800Y-84705761D01*
X187629800Y-84705761D02*
X187677419Y-84800999D01*
X187677419Y-84800999D02*
X187677419Y-84896237D01*
X187677419Y-84896237D02*
X187629800Y-84991475D01*
X187629800Y-84991475D02*
X187582180Y-85039094D01*
X187582180Y-85039094D02*
X187486942Y-85086713D01*
X187486942Y-85086713D02*
X187296466Y-85134332D01*
X187296466Y-85134332D02*
X187058371Y-85134332D01*
X187058371Y-85134332D02*
X186867895Y-85086713D01*
X186867895Y-85086713D02*
X186772657Y-85039094D01*
X186772657Y-85039094D02*
X186725038Y-84991475D01*
X186725038Y-84991475D02*
X186677419Y-84896237D01*
X186677419Y-83943856D02*
X186677419Y-83848618D01*
X186677419Y-83848618D02*
X186725038Y-83753380D01*
X186725038Y-83753380D02*
X186772657Y-83705761D01*
X186772657Y-83705761D02*
X186867895Y-83658142D01*
X186867895Y-83658142D02*
X187058371Y-83610523D01*
X187058371Y-83610523D02*
X187296466Y-83610523D01*
X187296466Y-83610523D02*
X187486942Y-83658142D01*
X187486942Y-83658142D02*
X187582180Y-83705761D01*
X187582180Y-83705761D02*
X187629800Y-83753380D01*
X187629800Y-83753380D02*
X187677419Y-83848618D01*
X187677419Y-83848618D02*
X187677419Y-83943856D01*
X187677419Y-83943856D02*
X187629800Y-84039094D01*
X187629800Y-84039094D02*
X187582180Y-84086713D01*
X187582180Y-84086713D02*
X187486942Y-84134332D01*
X187486942Y-84134332D02*
X187296466Y-84181951D01*
X187296466Y-84181951D02*
X187058371Y-84181951D01*
X187058371Y-84181951D02*
X186867895Y-84134332D01*
X186867895Y-84134332D02*
X186772657Y-84086713D01*
X186772657Y-84086713D02*
X186725038Y-84039094D01*
X186725038Y-84039094D02*
X186677419Y-83943856D01*
X187677419Y-82420046D02*
X187010752Y-82420046D01*
X187105990Y-82420046D02*
X187058371Y-82372427D01*
X187058371Y-82372427D02*
X187010752Y-82277189D01*
X187010752Y-82277189D02*
X187010752Y-82134332D01*
X187010752Y-82134332D02*
X187058371Y-82039094D01*
X187058371Y-82039094D02*
X187153609Y-81991475D01*
X187153609Y-81991475D02*
X187677419Y-81991475D01*
X187153609Y-81991475D02*
X187058371Y-81943856D01*
X187058371Y-81943856D02*
X187010752Y-81848618D01*
X187010752Y-81848618D02*
X187010752Y-81705761D01*
X187010752Y-81705761D02*
X187058371Y-81610522D01*
X187058371Y-81610522D02*
X187153609Y-81562903D01*
X187153609Y-81562903D02*
X187677419Y-81562903D01*
X187677419Y-81086713D02*
X187010752Y-81086713D01*
X187105990Y-81086713D02*
X187058371Y-81039094D01*
X187058371Y-81039094D02*
X187010752Y-80943856D01*
X187010752Y-80943856D02*
X187010752Y-80800999D01*
X187010752Y-80800999D02*
X187058371Y-80705761D01*
X187058371Y-80705761D02*
X187153609Y-80658142D01*
X187153609Y-80658142D02*
X187677419Y-80658142D01*
X187153609Y-80658142D02*
X187058371Y-80610523D01*
X187058371Y-80610523D02*
X187010752Y-80515285D01*
X187010752Y-80515285D02*
X187010752Y-80372428D01*
X187010752Y-80372428D02*
X187058371Y-80277189D01*
X187058371Y-80277189D02*
X187153609Y-80229570D01*
X187153609Y-80229570D02*
X187677419Y-80229570D01*
X182356750Y-124301000D02*
X188906420Y-124301000D01*
X182356750Y-45301000D02*
X188906420Y-45301000D01*
X188320000Y-124301000D02*
X188320000Y-45301000D01*
X188320000Y-124301000D02*
X188320000Y-45301000D01*
X188320000Y-124301000D02*
X187733579Y-123174496D01*
X188320000Y-124301000D02*
X188906421Y-123174496D01*
X188320000Y-45301000D02*
X188906421Y-46427504D01*
X188320000Y-45301000D02*
X187733579Y-46427504D01*
D10*
X67166524Y-40416819D02*
X67785571Y-40416819D01*
X67785571Y-40416819D02*
X67452238Y-40797771D01*
X67452238Y-40797771D02*
X67595095Y-40797771D01*
X67595095Y-40797771D02*
X67690333Y-40845390D01*
X67690333Y-40845390D02*
X67737952Y-40893009D01*
X67737952Y-40893009D02*
X67785571Y-40988247D01*
X67785571Y-40988247D02*
X67785571Y-41226342D01*
X67785571Y-41226342D02*
X67737952Y-41321580D01*
X67737952Y-41321580D02*
X67690333Y-41369200D01*
X67690333Y-41369200D02*
X67595095Y-41416819D01*
X67595095Y-41416819D02*
X67309381Y-41416819D01*
X67309381Y-41416819D02*
X67214143Y-41369200D01*
X67214143Y-41369200D02*
X67166524Y-41321580D01*
X68214143Y-41321580D02*
X68261762Y-41369200D01*
X68261762Y-41369200D02*
X68214143Y-41416819D01*
X68214143Y-41416819D02*
X68166524Y-41369200D01*
X68166524Y-41369200D02*
X68214143Y-41321580D01*
X68214143Y-41321580D02*
X68214143Y-41416819D01*
X68880809Y-40416819D02*
X68976047Y-40416819D01*
X68976047Y-40416819D02*
X69071285Y-40464438D01*
X69071285Y-40464438D02*
X69118904Y-40512057D01*
X69118904Y-40512057D02*
X69166523Y-40607295D01*
X69166523Y-40607295D02*
X69214142Y-40797771D01*
X69214142Y-40797771D02*
X69214142Y-41035866D01*
X69214142Y-41035866D02*
X69166523Y-41226342D01*
X69166523Y-41226342D02*
X69118904Y-41321580D01*
X69118904Y-41321580D02*
X69071285Y-41369200D01*
X69071285Y-41369200D02*
X68976047Y-41416819D01*
X68976047Y-41416819D02*
X68880809Y-41416819D01*
X68880809Y-41416819D02*
X68785571Y-41369200D01*
X68785571Y-41369200D02*
X68737952Y-41321580D01*
X68737952Y-41321580D02*
X68690333Y-41226342D01*
X68690333Y-41226342D02*
X68642714Y-41035866D01*
X68642714Y-41035866D02*
X68642714Y-40797771D01*
X68642714Y-40797771D02*
X68690333Y-40607295D01*
X68690333Y-40607295D02*
X68737952Y-40512057D01*
X68737952Y-40512057D02*
X68785571Y-40464438D01*
X68785571Y-40464438D02*
X68880809Y-40416819D01*
X69833190Y-40416819D02*
X69928428Y-40416819D01*
X69928428Y-40416819D02*
X70023666Y-40464438D01*
X70023666Y-40464438D02*
X70071285Y-40512057D01*
X70071285Y-40512057D02*
X70118904Y-40607295D01*
X70118904Y-40607295D02*
X70166523Y-40797771D01*
X70166523Y-40797771D02*
X70166523Y-41035866D01*
X70166523Y-41035866D02*
X70118904Y-41226342D01*
X70118904Y-41226342D02*
X70071285Y-41321580D01*
X70071285Y-41321580D02*
X70023666Y-41369200D01*
X70023666Y-41369200D02*
X69928428Y-41416819D01*
X69928428Y-41416819D02*
X69833190Y-41416819D01*
X69833190Y-41416819D02*
X69737952Y-41369200D01*
X69737952Y-41369200D02*
X69690333Y-41321580D01*
X69690333Y-41321580D02*
X69642714Y-41226342D01*
X69642714Y-41226342D02*
X69595095Y-41035866D01*
X69595095Y-41035866D02*
X69595095Y-40797771D01*
X69595095Y-40797771D02*
X69642714Y-40607295D01*
X69642714Y-40607295D02*
X69690333Y-40512057D01*
X69690333Y-40512057D02*
X69737952Y-40464438D01*
X69737952Y-40464438D02*
X69833190Y-40416819D01*
X70785571Y-40416819D02*
X70880809Y-40416819D01*
X70880809Y-40416819D02*
X70976047Y-40464438D01*
X70976047Y-40464438D02*
X71023666Y-40512057D01*
X71023666Y-40512057D02*
X71071285Y-40607295D01*
X71071285Y-40607295D02*
X71118904Y-40797771D01*
X71118904Y-40797771D02*
X71118904Y-41035866D01*
X71118904Y-41035866D02*
X71071285Y-41226342D01*
X71071285Y-41226342D02*
X71023666Y-41321580D01*
X71023666Y-41321580D02*
X70976047Y-41369200D01*
X70976047Y-41369200D02*
X70880809Y-41416819D01*
X70880809Y-41416819D02*
X70785571Y-41416819D01*
X70785571Y-41416819D02*
X70690333Y-41369200D01*
X70690333Y-41369200D02*
X70642714Y-41321580D01*
X70642714Y-41321580D02*
X70595095Y-41226342D01*
X70595095Y-41226342D02*
X70547476Y-41035866D01*
X70547476Y-41035866D02*
X70547476Y-40797771D01*
X70547476Y-40797771D02*
X70595095Y-40607295D01*
X70595095Y-40607295D02*
X70642714Y-40512057D01*
X70642714Y-40512057D02*
X70690333Y-40464438D01*
X70690333Y-40464438D02*
X70785571Y-40416819D01*
X71737952Y-40416819D02*
X71833190Y-40416819D01*
X71833190Y-40416819D02*
X71928428Y-40464438D01*
X71928428Y-40464438D02*
X71976047Y-40512057D01*
X71976047Y-40512057D02*
X72023666Y-40607295D01*
X72023666Y-40607295D02*
X72071285Y-40797771D01*
X72071285Y-40797771D02*
X72071285Y-41035866D01*
X72071285Y-41035866D02*
X72023666Y-41226342D01*
X72023666Y-41226342D02*
X71976047Y-41321580D01*
X71976047Y-41321580D02*
X71928428Y-41369200D01*
X71928428Y-41369200D02*
X71833190Y-41416819D01*
X71833190Y-41416819D02*
X71737952Y-41416819D01*
X71737952Y-41416819D02*
X71642714Y-41369200D01*
X71642714Y-41369200D02*
X71595095Y-41321580D01*
X71595095Y-41321580D02*
X71547476Y-41226342D01*
X71547476Y-41226342D02*
X71499857Y-41035866D01*
X71499857Y-41035866D02*
X71499857Y-40797771D01*
X71499857Y-40797771D02*
X71547476Y-40607295D01*
X71547476Y-40607295D02*
X71595095Y-40512057D01*
X71595095Y-40512057D02*
X71642714Y-40464438D01*
X71642714Y-40464438D02*
X71737952Y-40416819D01*
X73261762Y-41416819D02*
X73261762Y-40750152D01*
X73261762Y-40845390D02*
X73309381Y-40797771D01*
X73309381Y-40797771D02*
X73404619Y-40750152D01*
X73404619Y-40750152D02*
X73547476Y-40750152D01*
X73547476Y-40750152D02*
X73642714Y-40797771D01*
X73642714Y-40797771D02*
X73690333Y-40893009D01*
X73690333Y-40893009D02*
X73690333Y-41416819D01*
X73690333Y-40893009D02*
X73737952Y-40797771D01*
X73737952Y-40797771D02*
X73833190Y-40750152D01*
X73833190Y-40750152D02*
X73976047Y-40750152D01*
X73976047Y-40750152D02*
X74071286Y-40797771D01*
X74071286Y-40797771D02*
X74118905Y-40893009D01*
X74118905Y-40893009D02*
X74118905Y-41416819D01*
X74595095Y-41416819D02*
X74595095Y-40750152D01*
X74595095Y-40845390D02*
X74642714Y-40797771D01*
X74642714Y-40797771D02*
X74737952Y-40750152D01*
X74737952Y-40750152D02*
X74880809Y-40750152D01*
X74880809Y-40750152D02*
X74976047Y-40797771D01*
X74976047Y-40797771D02*
X75023666Y-40893009D01*
X75023666Y-40893009D02*
X75023666Y-41416819D01*
X75023666Y-40893009D02*
X75071285Y-40797771D01*
X75071285Y-40797771D02*
X75166523Y-40750152D01*
X75166523Y-40750152D02*
X75309380Y-40750152D01*
X75309380Y-40750152D02*
X75404619Y-40797771D01*
X75404619Y-40797771D02*
X75452238Y-40893009D01*
X75452238Y-40893009D02*
X75452238Y-41416819D01*
D11*
X72857000Y-47799000D02*
X72857000Y-41525580D01*
X69857000Y-47799000D02*
X69857000Y-41525580D01*
X72857000Y-42112000D02*
X69857000Y-42112000D01*
X72857000Y-42112000D02*
X69857000Y-42112000D01*
X72857000Y-42112000D02*
X71730496Y-42698421D01*
X72857000Y-42112000D02*
X71730496Y-41525579D01*
X69857000Y-42112000D02*
X70983504Y-41525579D01*
X69857000Y-42112000D02*
X70983504Y-42698421D01*
D10*
X65968819Y-50989475D02*
X65968819Y-50370428D01*
X65968819Y-50370428D02*
X66349771Y-50703761D01*
X66349771Y-50703761D02*
X66349771Y-50560904D01*
X66349771Y-50560904D02*
X66397390Y-50465666D01*
X66397390Y-50465666D02*
X66445009Y-50418047D01*
X66445009Y-50418047D02*
X66540247Y-50370428D01*
X66540247Y-50370428D02*
X66778342Y-50370428D01*
X66778342Y-50370428D02*
X66873580Y-50418047D01*
X66873580Y-50418047D02*
X66921200Y-50465666D01*
X66921200Y-50465666D02*
X66968819Y-50560904D01*
X66968819Y-50560904D02*
X66968819Y-50846618D01*
X66968819Y-50846618D02*
X66921200Y-50941856D01*
X66921200Y-50941856D02*
X66873580Y-50989475D01*
X66873580Y-49941856D02*
X66921200Y-49894237D01*
X66921200Y-49894237D02*
X66968819Y-49941856D01*
X66968819Y-49941856D02*
X66921200Y-49989475D01*
X66921200Y-49989475D02*
X66873580Y-49941856D01*
X66873580Y-49941856D02*
X66968819Y-49941856D01*
X65968819Y-49275190D02*
X65968819Y-49179952D01*
X65968819Y-49179952D02*
X66016438Y-49084714D01*
X66016438Y-49084714D02*
X66064057Y-49037095D01*
X66064057Y-49037095D02*
X66159295Y-48989476D01*
X66159295Y-48989476D02*
X66349771Y-48941857D01*
X66349771Y-48941857D02*
X66587866Y-48941857D01*
X66587866Y-48941857D02*
X66778342Y-48989476D01*
X66778342Y-48989476D02*
X66873580Y-49037095D01*
X66873580Y-49037095D02*
X66921200Y-49084714D01*
X66921200Y-49084714D02*
X66968819Y-49179952D01*
X66968819Y-49179952D02*
X66968819Y-49275190D01*
X66968819Y-49275190D02*
X66921200Y-49370428D01*
X66921200Y-49370428D02*
X66873580Y-49418047D01*
X66873580Y-49418047D02*
X66778342Y-49465666D01*
X66778342Y-49465666D02*
X66587866Y-49513285D01*
X66587866Y-49513285D02*
X66349771Y-49513285D01*
X66349771Y-49513285D02*
X66159295Y-49465666D01*
X66159295Y-49465666D02*
X66064057Y-49418047D01*
X66064057Y-49418047D02*
X66016438Y-49370428D01*
X66016438Y-49370428D02*
X65968819Y-49275190D01*
X65968819Y-48322809D02*
X65968819Y-48227571D01*
X65968819Y-48227571D02*
X66016438Y-48132333D01*
X66016438Y-48132333D02*
X66064057Y-48084714D01*
X66064057Y-48084714D02*
X66159295Y-48037095D01*
X66159295Y-48037095D02*
X66349771Y-47989476D01*
X66349771Y-47989476D02*
X66587866Y-47989476D01*
X66587866Y-47989476D02*
X66778342Y-48037095D01*
X66778342Y-48037095D02*
X66873580Y-48084714D01*
X66873580Y-48084714D02*
X66921200Y-48132333D01*
X66921200Y-48132333D02*
X66968819Y-48227571D01*
X66968819Y-48227571D02*
X66968819Y-48322809D01*
X66968819Y-48322809D02*
X66921200Y-48418047D01*
X66921200Y-48418047D02*
X66873580Y-48465666D01*
X66873580Y-48465666D02*
X66778342Y-48513285D01*
X66778342Y-48513285D02*
X66587866Y-48560904D01*
X66587866Y-48560904D02*
X66349771Y-48560904D01*
X66349771Y-48560904D02*
X66159295Y-48513285D01*
X66159295Y-48513285D02*
X66064057Y-48465666D01*
X66064057Y-48465666D02*
X66016438Y-48418047D01*
X66016438Y-48418047D02*
X65968819Y-48322809D01*
X65968819Y-47370428D02*
X65968819Y-47275190D01*
X65968819Y-47275190D02*
X66016438Y-47179952D01*
X66016438Y-47179952D02*
X66064057Y-47132333D01*
X66064057Y-47132333D02*
X66159295Y-47084714D01*
X66159295Y-47084714D02*
X66349771Y-47037095D01*
X66349771Y-47037095D02*
X66587866Y-47037095D01*
X66587866Y-47037095D02*
X66778342Y-47084714D01*
X66778342Y-47084714D02*
X66873580Y-47132333D01*
X66873580Y-47132333D02*
X66921200Y-47179952D01*
X66921200Y-47179952D02*
X66968819Y-47275190D01*
X66968819Y-47275190D02*
X66968819Y-47370428D01*
X66968819Y-47370428D02*
X66921200Y-47465666D01*
X66921200Y-47465666D02*
X66873580Y-47513285D01*
X66873580Y-47513285D02*
X66778342Y-47560904D01*
X66778342Y-47560904D02*
X66587866Y-47608523D01*
X66587866Y-47608523D02*
X66349771Y-47608523D01*
X66349771Y-47608523D02*
X66159295Y-47560904D01*
X66159295Y-47560904D02*
X66064057Y-47513285D01*
X66064057Y-47513285D02*
X66016438Y-47465666D01*
X66016438Y-47465666D02*
X65968819Y-47370428D01*
X65968819Y-46418047D02*
X65968819Y-46322809D01*
X65968819Y-46322809D02*
X66016438Y-46227571D01*
X66016438Y-46227571D02*
X66064057Y-46179952D01*
X66064057Y-46179952D02*
X66159295Y-46132333D01*
X66159295Y-46132333D02*
X66349771Y-46084714D01*
X66349771Y-46084714D02*
X66587866Y-46084714D01*
X66587866Y-46084714D02*
X66778342Y-46132333D01*
X66778342Y-46132333D02*
X66873580Y-46179952D01*
X66873580Y-46179952D02*
X66921200Y-46227571D01*
X66921200Y-46227571D02*
X66968819Y-46322809D01*
X66968819Y-46322809D02*
X66968819Y-46418047D01*
X66968819Y-46418047D02*
X66921200Y-46513285D01*
X66921200Y-46513285D02*
X66873580Y-46560904D01*
X66873580Y-46560904D02*
X66778342Y-46608523D01*
X66778342Y-46608523D02*
X66587866Y-46656142D01*
X66587866Y-46656142D02*
X66349771Y-46656142D01*
X66349771Y-46656142D02*
X66159295Y-46608523D01*
X66159295Y-46608523D02*
X66064057Y-46560904D01*
X66064057Y-46560904D02*
X66016438Y-46513285D01*
X66016438Y-46513285D02*
X65968819Y-46418047D01*
X66968819Y-44894237D02*
X66302152Y-44894237D01*
X66397390Y-44894237D02*
X66349771Y-44846618D01*
X66349771Y-44846618D02*
X66302152Y-44751380D01*
X66302152Y-44751380D02*
X66302152Y-44608523D01*
X66302152Y-44608523D02*
X66349771Y-44513285D01*
X66349771Y-44513285D02*
X66445009Y-44465666D01*
X66445009Y-44465666D02*
X66968819Y-44465666D01*
X66445009Y-44465666D02*
X66349771Y-44418047D01*
X66349771Y-44418047D02*
X66302152Y-44322809D01*
X66302152Y-44322809D02*
X66302152Y-44179952D01*
X66302152Y-44179952D02*
X66349771Y-44084713D01*
X66349771Y-44084713D02*
X66445009Y-44037094D01*
X66445009Y-44037094D02*
X66968819Y-44037094D01*
X66968819Y-43560904D02*
X66302152Y-43560904D01*
X66397390Y-43560904D02*
X66349771Y-43513285D01*
X66349771Y-43513285D02*
X66302152Y-43418047D01*
X66302152Y-43418047D02*
X66302152Y-43275190D01*
X66302152Y-43275190D02*
X66349771Y-43179952D01*
X66349771Y-43179952D02*
X66445009Y-43132333D01*
X66445009Y-43132333D02*
X66968819Y-43132333D01*
X66445009Y-43132333D02*
X66349771Y-43084714D01*
X66349771Y-43084714D02*
X66302152Y-42989476D01*
X66302152Y-42989476D02*
X66302152Y-42846619D01*
X66302152Y-42846619D02*
X66349771Y-42751380D01*
X66349771Y-42751380D02*
X66445009Y-42703761D01*
X66445009Y-42703761D02*
X66968819Y-42703761D01*
D11*
X72357000Y-48299000D02*
X67077580Y-48299000D01*
X67077580Y-45299000D02*
X72355000Y-45299000D01*
X67664000Y-48299000D02*
X67664000Y-45299000D01*
X67664000Y-48299000D02*
X67664000Y-45299000D01*
X67664000Y-48299000D02*
X67077579Y-47172496D01*
X67664000Y-48299000D02*
X68250421Y-47172496D01*
X67664000Y-45299000D02*
X68250421Y-46425504D01*
X67664000Y-45299000D02*
X67077579Y-46425504D01*
D10*
X80967143Y-66074819D02*
X81062381Y-66074819D01*
X81062381Y-66074819D02*
X81157619Y-66122438D01*
X81157619Y-66122438D02*
X81205238Y-66170057D01*
X81205238Y-66170057D02*
X81252857Y-66265295D01*
X81252857Y-66265295D02*
X81300476Y-66455771D01*
X81300476Y-66455771D02*
X81300476Y-66693866D01*
X81300476Y-66693866D02*
X81252857Y-66884342D01*
X81252857Y-66884342D02*
X81205238Y-66979580D01*
X81205238Y-66979580D02*
X81157619Y-67027200D01*
X81157619Y-67027200D02*
X81062381Y-67074819D01*
X81062381Y-67074819D02*
X80967143Y-67074819D01*
X80967143Y-67074819D02*
X80871905Y-67027200D01*
X80871905Y-67027200D02*
X80824286Y-66979580D01*
X80824286Y-66979580D02*
X80776667Y-66884342D01*
X80776667Y-66884342D02*
X80729048Y-66693866D01*
X80729048Y-66693866D02*
X80729048Y-66455771D01*
X80729048Y-66455771D02*
X80776667Y-66265295D01*
X80776667Y-66265295D02*
X80824286Y-66170057D01*
X80824286Y-66170057D02*
X80871905Y-66122438D01*
X80871905Y-66122438D02*
X80967143Y-66074819D01*
X81729048Y-66979580D02*
X81776667Y-67027200D01*
X81776667Y-67027200D02*
X81729048Y-67074819D01*
X81729048Y-67074819D02*
X81681429Y-67027200D01*
X81681429Y-67027200D02*
X81729048Y-66979580D01*
X81729048Y-66979580D02*
X81729048Y-67074819D01*
X82729047Y-67074819D02*
X82157619Y-67074819D01*
X82443333Y-67074819D02*
X82443333Y-66074819D01*
X82443333Y-66074819D02*
X82348095Y-66217676D01*
X82348095Y-66217676D02*
X82252857Y-66312914D01*
X82252857Y-66312914D02*
X82157619Y-66360533D01*
X83586190Y-66408152D02*
X83586190Y-67074819D01*
X83157619Y-66408152D02*
X83157619Y-66931961D01*
X83157619Y-66931961D02*
X83205238Y-67027200D01*
X83205238Y-67027200D02*
X83300476Y-67074819D01*
X83300476Y-67074819D02*
X83443333Y-67074819D01*
X83443333Y-67074819D02*
X83538571Y-67027200D01*
X83538571Y-67027200D02*
X83586190Y-66979580D01*
X84395714Y-66551009D02*
X84062381Y-66551009D01*
X84062381Y-67074819D02*
X84062381Y-66074819D01*
X84062381Y-66074819D02*
X84538571Y-66074819D01*
D12*
X82456666Y-64700814D02*
X82412857Y-64744624D01*
X82412857Y-64744624D02*
X82281428Y-64788433D01*
X82281428Y-64788433D02*
X82193809Y-64788433D01*
X82193809Y-64788433D02*
X82062381Y-64744624D01*
X82062381Y-64744624D02*
X81974762Y-64657004D01*
X81974762Y-64657004D02*
X81930952Y-64569385D01*
X81930952Y-64569385D02*
X81887143Y-64394147D01*
X81887143Y-64394147D02*
X81887143Y-64262719D01*
X81887143Y-64262719D02*
X81930952Y-64087481D01*
X81930952Y-64087481D02*
X81974762Y-63999862D01*
X81974762Y-63999862D02*
X82062381Y-63912243D01*
X82062381Y-63912243D02*
X82193809Y-63868433D01*
X82193809Y-63868433D02*
X82281428Y-63868433D01*
X82281428Y-63868433D02*
X82412857Y-63912243D01*
X82412857Y-63912243D02*
X82456666Y-63956052D01*
X83289047Y-63868433D02*
X82850952Y-63868433D01*
X82850952Y-63868433D02*
X82807143Y-64306528D01*
X82807143Y-64306528D02*
X82850952Y-64262719D01*
X82850952Y-64262719D02*
X82938571Y-64218909D01*
X82938571Y-64218909D02*
X83157619Y-64218909D01*
X83157619Y-64218909D02*
X83245238Y-64262719D01*
X83245238Y-64262719D02*
X83289047Y-64306528D01*
X83289047Y-64306528D02*
X83332857Y-64394147D01*
X83332857Y-64394147D02*
X83332857Y-64613195D01*
X83332857Y-64613195D02*
X83289047Y-64700814D01*
X83289047Y-64700814D02*
X83245238Y-64744624D01*
X83245238Y-64744624D02*
X83157619Y-64788433D01*
X83157619Y-64788433D02*
X82938571Y-64788433D01*
X82938571Y-64788433D02*
X82850952Y-64744624D01*
X82850952Y-64744624D02*
X82807143Y-64700814D01*
D10*
X115858152Y-63342857D02*
X116524819Y-63342857D01*
X115477200Y-63580952D02*
X116191485Y-63819047D01*
X116191485Y-63819047D02*
X116191485Y-63200000D01*
X115524819Y-62914285D02*
X115524819Y-62247619D01*
X115524819Y-62247619D02*
X116524819Y-62676190D01*
X115524819Y-61676190D02*
X115524819Y-61580952D01*
X115524819Y-61580952D02*
X115572438Y-61485714D01*
X115572438Y-61485714D02*
X115620057Y-61438095D01*
X115620057Y-61438095D02*
X115715295Y-61390476D01*
X115715295Y-61390476D02*
X115905771Y-61342857D01*
X115905771Y-61342857D02*
X116143866Y-61342857D01*
X116143866Y-61342857D02*
X116334342Y-61390476D01*
X116334342Y-61390476D02*
X116429580Y-61438095D01*
X116429580Y-61438095D02*
X116477200Y-61485714D01*
X116477200Y-61485714D02*
X116524819Y-61580952D01*
X116524819Y-61580952D02*
X116524819Y-61676190D01*
X116524819Y-61676190D02*
X116477200Y-61771428D01*
X116477200Y-61771428D02*
X116429580Y-61819047D01*
X116429580Y-61819047D02*
X116334342Y-61866666D01*
X116334342Y-61866666D02*
X116143866Y-61914285D01*
X116143866Y-61914285D02*
X115905771Y-61914285D01*
X115905771Y-61914285D02*
X115715295Y-61866666D01*
X115715295Y-61866666D02*
X115620057Y-61819047D01*
X115620057Y-61819047D02*
X115572438Y-61771428D01*
X115572438Y-61771428D02*
X115524819Y-61676190D01*
X115858152Y-60914285D02*
X116858152Y-60914285D01*
X115905771Y-60914285D02*
X115858152Y-60819047D01*
X115858152Y-60819047D02*
X115858152Y-60628571D01*
X115858152Y-60628571D02*
X115905771Y-60533333D01*
X115905771Y-60533333D02*
X115953390Y-60485714D01*
X115953390Y-60485714D02*
X116048628Y-60438095D01*
X116048628Y-60438095D02*
X116334342Y-60438095D01*
X116334342Y-60438095D02*
X116429580Y-60485714D01*
X116429580Y-60485714D02*
X116477200Y-60533333D01*
X116477200Y-60533333D02*
X116524819Y-60628571D01*
X116524819Y-60628571D02*
X116524819Y-60819047D01*
X116524819Y-60819047D02*
X116477200Y-60914285D01*
X116001009Y-59676190D02*
X116001009Y-60009523D01*
X116524819Y-60009523D02*
X115524819Y-60009523D01*
X115524819Y-60009523D02*
X115524819Y-59533333D01*
D12*
X118650814Y-61853333D02*
X118694624Y-61897142D01*
X118694624Y-61897142D02*
X118738433Y-62028571D01*
X118738433Y-62028571D02*
X118738433Y-62116190D01*
X118738433Y-62116190D02*
X118694624Y-62247618D01*
X118694624Y-62247618D02*
X118607004Y-62335237D01*
X118607004Y-62335237D02*
X118519385Y-62379047D01*
X118519385Y-62379047D02*
X118344147Y-62422856D01*
X118344147Y-62422856D02*
X118212719Y-62422856D01*
X118212719Y-62422856D02*
X118037481Y-62379047D01*
X118037481Y-62379047D02*
X117949862Y-62335237D01*
X117949862Y-62335237D02*
X117862243Y-62247618D01*
X117862243Y-62247618D02*
X117818433Y-62116190D01*
X117818433Y-62116190D02*
X117818433Y-62028571D01*
X117818433Y-62028571D02*
X117862243Y-61897142D01*
X117862243Y-61897142D02*
X117906052Y-61853333D01*
X117906052Y-61502856D02*
X117862243Y-61459047D01*
X117862243Y-61459047D02*
X117818433Y-61371428D01*
X117818433Y-61371428D02*
X117818433Y-61152380D01*
X117818433Y-61152380D02*
X117862243Y-61064761D01*
X117862243Y-61064761D02*
X117906052Y-61020952D01*
X117906052Y-61020952D02*
X117993671Y-60977142D01*
X117993671Y-60977142D02*
X118081290Y-60977142D01*
X118081290Y-60977142D02*
X118212719Y-61020952D01*
X118212719Y-61020952D02*
X118738433Y-61546666D01*
X118738433Y-61546666D02*
X118738433Y-60977142D01*
D10*
X155874819Y-107262856D02*
X155874819Y-107167618D01*
X155874819Y-107167618D02*
X155922438Y-107072380D01*
X155922438Y-107072380D02*
X155970057Y-107024761D01*
X155970057Y-107024761D02*
X156065295Y-106977142D01*
X156065295Y-106977142D02*
X156255771Y-106929523D01*
X156255771Y-106929523D02*
X156493866Y-106929523D01*
X156493866Y-106929523D02*
X156684342Y-106977142D01*
X156684342Y-106977142D02*
X156779580Y-107024761D01*
X156779580Y-107024761D02*
X156827200Y-107072380D01*
X156827200Y-107072380D02*
X156874819Y-107167618D01*
X156874819Y-107167618D02*
X156874819Y-107262856D01*
X156874819Y-107262856D02*
X156827200Y-107358094D01*
X156827200Y-107358094D02*
X156779580Y-107405713D01*
X156779580Y-107405713D02*
X156684342Y-107453332D01*
X156684342Y-107453332D02*
X156493866Y-107500951D01*
X156493866Y-107500951D02*
X156255771Y-107500951D01*
X156255771Y-107500951D02*
X156065295Y-107453332D01*
X156065295Y-107453332D02*
X155970057Y-107405713D01*
X155970057Y-107405713D02*
X155922438Y-107358094D01*
X155922438Y-107358094D02*
X155874819Y-107262856D01*
X156779580Y-106500951D02*
X156827200Y-106453332D01*
X156827200Y-106453332D02*
X156874819Y-106500951D01*
X156874819Y-106500951D02*
X156827200Y-106548570D01*
X156827200Y-106548570D02*
X156779580Y-106500951D01*
X156779580Y-106500951D02*
X156874819Y-106500951D01*
X156874819Y-105500952D02*
X156874819Y-106072380D01*
X156874819Y-105786666D02*
X155874819Y-105786666D01*
X155874819Y-105786666D02*
X156017676Y-105881904D01*
X156017676Y-105881904D02*
X156112914Y-105977142D01*
X156112914Y-105977142D02*
X156160533Y-106072380D01*
X156208152Y-104643809D02*
X156874819Y-104643809D01*
X156208152Y-105072380D02*
X156731961Y-105072380D01*
X156731961Y-105072380D02*
X156827200Y-105024761D01*
X156827200Y-105024761D02*
X156874819Y-104929523D01*
X156874819Y-104929523D02*
X156874819Y-104786666D01*
X156874819Y-104786666D02*
X156827200Y-104691428D01*
X156827200Y-104691428D02*
X156779580Y-104643809D01*
X156351009Y-103834285D02*
X156351009Y-104167618D01*
X156874819Y-104167618D02*
X155874819Y-104167618D01*
X155874819Y-104167618D02*
X155874819Y-103691428D01*
D12*
X154500814Y-105773333D02*
X154544624Y-105817142D01*
X154544624Y-105817142D02*
X154588433Y-105948571D01*
X154588433Y-105948571D02*
X154588433Y-106036190D01*
X154588433Y-106036190D02*
X154544624Y-106167618D01*
X154544624Y-106167618D02*
X154457004Y-106255237D01*
X154457004Y-106255237D02*
X154369385Y-106299047D01*
X154369385Y-106299047D02*
X154194147Y-106342856D01*
X154194147Y-106342856D02*
X154062719Y-106342856D01*
X154062719Y-106342856D02*
X153887481Y-106299047D01*
X153887481Y-106299047D02*
X153799862Y-106255237D01*
X153799862Y-106255237D02*
X153712243Y-106167618D01*
X153712243Y-106167618D02*
X153668433Y-106036190D01*
X153668433Y-106036190D02*
X153668433Y-105948571D01*
X153668433Y-105948571D02*
X153712243Y-105817142D01*
X153712243Y-105817142D02*
X153756052Y-105773333D01*
X153975100Y-104984761D02*
X154588433Y-104984761D01*
X153624624Y-105203809D02*
X154281766Y-105422856D01*
X154281766Y-105422856D02*
X154281766Y-104853333D01*
D10*
X104301905Y-48304819D02*
X104920952Y-48304819D01*
X104920952Y-48304819D02*
X104587619Y-48685771D01*
X104587619Y-48685771D02*
X104730476Y-48685771D01*
X104730476Y-48685771D02*
X104825714Y-48733390D01*
X104825714Y-48733390D02*
X104873333Y-48781009D01*
X104873333Y-48781009D02*
X104920952Y-48876247D01*
X104920952Y-48876247D02*
X104920952Y-49114342D01*
X104920952Y-49114342D02*
X104873333Y-49209580D01*
X104873333Y-49209580D02*
X104825714Y-49257200D01*
X104825714Y-49257200D02*
X104730476Y-49304819D01*
X104730476Y-49304819D02*
X104444762Y-49304819D01*
X104444762Y-49304819D02*
X104349524Y-49257200D01*
X104349524Y-49257200D02*
X104301905Y-49209580D01*
X105206667Y-48304819D02*
X105540000Y-49304819D01*
X105540000Y-49304819D02*
X105873333Y-48304819D01*
X106111429Y-48304819D02*
X106730476Y-48304819D01*
X106730476Y-48304819D02*
X106397143Y-48685771D01*
X106397143Y-48685771D02*
X106540000Y-48685771D01*
X106540000Y-48685771D02*
X106635238Y-48733390D01*
X106635238Y-48733390D02*
X106682857Y-48781009D01*
X106682857Y-48781009D02*
X106730476Y-48876247D01*
X106730476Y-48876247D02*
X106730476Y-49114342D01*
X106730476Y-49114342D02*
X106682857Y-49209580D01*
X106682857Y-49209580D02*
X106635238Y-49257200D01*
X106635238Y-49257200D02*
X106540000Y-49304819D01*
X106540000Y-49304819D02*
X106254286Y-49304819D01*
X106254286Y-49304819D02*
X106159048Y-49257200D01*
X106159048Y-49257200D02*
X106111429Y-49209580D01*
X104063810Y-53304819D02*
X104682857Y-53304819D01*
X104682857Y-53304819D02*
X104349524Y-53685771D01*
X104349524Y-53685771D02*
X104492381Y-53685771D01*
X104492381Y-53685771D02*
X104587619Y-53733390D01*
X104587619Y-53733390D02*
X104635238Y-53781009D01*
X104635238Y-53781009D02*
X104682857Y-53876247D01*
X104682857Y-53876247D02*
X104682857Y-54114342D01*
X104682857Y-54114342D02*
X104635238Y-54209580D01*
X104635238Y-54209580D02*
X104587619Y-54257200D01*
X104587619Y-54257200D02*
X104492381Y-54304819D01*
X104492381Y-54304819D02*
X104206667Y-54304819D01*
X104206667Y-54304819D02*
X104111429Y-54257200D01*
X104111429Y-54257200D02*
X104063810Y-54209580D01*
X105111429Y-54209580D02*
X105159048Y-54257200D01*
X105159048Y-54257200D02*
X105111429Y-54304819D01*
X105111429Y-54304819D02*
X105063810Y-54257200D01*
X105063810Y-54257200D02*
X105111429Y-54209580D01*
X105111429Y-54209580D02*
X105111429Y-54304819D01*
X105492381Y-53304819D02*
X106111428Y-53304819D01*
X106111428Y-53304819D02*
X105778095Y-53685771D01*
X105778095Y-53685771D02*
X105920952Y-53685771D01*
X105920952Y-53685771D02*
X106016190Y-53733390D01*
X106016190Y-53733390D02*
X106063809Y-53781009D01*
X106063809Y-53781009D02*
X106111428Y-53876247D01*
X106111428Y-53876247D02*
X106111428Y-54114342D01*
X106111428Y-54114342D02*
X106063809Y-54209580D01*
X106063809Y-54209580D02*
X106016190Y-54257200D01*
X106016190Y-54257200D02*
X105920952Y-54304819D01*
X105920952Y-54304819D02*
X105635238Y-54304819D01*
X105635238Y-54304819D02*
X105540000Y-54257200D01*
X105540000Y-54257200D02*
X105492381Y-54209580D01*
X106397143Y-53304819D02*
X106730476Y-54304819D01*
X106730476Y-54304819D02*
X107063809Y-53304819D01*
X119976819Y-66534475D02*
X119976819Y-65963047D01*
X120976819Y-66248761D02*
X119976819Y-66248761D01*
X120881580Y-65058285D02*
X120929200Y-65105904D01*
X120929200Y-65105904D02*
X120976819Y-65248761D01*
X120976819Y-65248761D02*
X120976819Y-65343999D01*
X120976819Y-65343999D02*
X120929200Y-65486856D01*
X120929200Y-65486856D02*
X120833961Y-65582094D01*
X120833961Y-65582094D02*
X120738723Y-65629713D01*
X120738723Y-65629713D02*
X120548247Y-65677332D01*
X120548247Y-65677332D02*
X120405390Y-65677332D01*
X120405390Y-65677332D02*
X120214914Y-65629713D01*
X120214914Y-65629713D02*
X120119676Y-65582094D01*
X120119676Y-65582094D02*
X120024438Y-65486856D01*
X120024438Y-65486856D02*
X119976819Y-65343999D01*
X119976819Y-65343999D02*
X119976819Y-65248761D01*
X119976819Y-65248761D02*
X120024438Y-65105904D01*
X120024438Y-65105904D02*
X120072057Y-65058285D01*
X120976819Y-64105904D02*
X120976819Y-64677332D01*
X120976819Y-64391618D02*
X119976819Y-64391618D01*
X119976819Y-64391618D02*
X120119676Y-64486856D01*
X120119676Y-64486856D02*
X120214914Y-64582094D01*
X120214914Y-64582094D02*
X120262533Y-64677332D01*
X120072057Y-63724951D02*
X120024438Y-63677332D01*
X120024438Y-63677332D02*
X119976819Y-63582094D01*
X119976819Y-63582094D02*
X119976819Y-63343999D01*
X119976819Y-63343999D02*
X120024438Y-63248761D01*
X120024438Y-63248761D02*
X120072057Y-63201142D01*
X120072057Y-63201142D02*
X120167295Y-63153523D01*
X120167295Y-63153523D02*
X120262533Y-63153523D01*
X120262533Y-63153523D02*
X120405390Y-63201142D01*
X120405390Y-63201142D02*
X120976819Y-63772570D01*
X120976819Y-63772570D02*
X120976819Y-63153523D01*
X119976819Y-62296380D02*
X119976819Y-62486856D01*
X119976819Y-62486856D02*
X120024438Y-62582094D01*
X120024438Y-62582094D02*
X120072057Y-62629713D01*
X120072057Y-62629713D02*
X120214914Y-62724951D01*
X120214914Y-62724951D02*
X120405390Y-62772570D01*
X120405390Y-62772570D02*
X120786342Y-62772570D01*
X120786342Y-62772570D02*
X120881580Y-62724951D01*
X120881580Y-62724951D02*
X120929200Y-62677332D01*
X120929200Y-62677332D02*
X120976819Y-62582094D01*
X120976819Y-62582094D02*
X120976819Y-62391618D01*
X120976819Y-62391618D02*
X120929200Y-62296380D01*
X120929200Y-62296380D02*
X120881580Y-62248761D01*
X120881580Y-62248761D02*
X120786342Y-62201142D01*
X120786342Y-62201142D02*
X120548247Y-62201142D01*
X120548247Y-62201142D02*
X120453009Y-62248761D01*
X120453009Y-62248761D02*
X120405390Y-62296380D01*
X120405390Y-62296380D02*
X120357771Y-62391618D01*
X120357771Y-62391618D02*
X120357771Y-62582094D01*
X120357771Y-62582094D02*
X120405390Y-62677332D01*
X120405390Y-62677332D02*
X120453009Y-62724951D01*
X120453009Y-62724951D02*
X120548247Y-62772570D01*
X119976819Y-61867808D02*
X119976819Y-61248761D01*
X119976819Y-61248761D02*
X120357771Y-61582094D01*
X120357771Y-61582094D02*
X120357771Y-61439237D01*
X120357771Y-61439237D02*
X120405390Y-61343999D01*
X120405390Y-61343999D02*
X120453009Y-61296380D01*
X120453009Y-61296380D02*
X120548247Y-61248761D01*
X120548247Y-61248761D02*
X120786342Y-61248761D01*
X120786342Y-61248761D02*
X120881580Y-61296380D01*
X120881580Y-61296380D02*
X120929200Y-61343999D01*
X120929200Y-61343999D02*
X120976819Y-61439237D01*
X120976819Y-61439237D02*
X120976819Y-61724951D01*
X120976819Y-61724951D02*
X120929200Y-61820189D01*
X120929200Y-61820189D02*
X120881580Y-61867808D01*
X145776819Y-64605904D02*
X146586342Y-64605904D01*
X146586342Y-64605904D02*
X146681580Y-64558285D01*
X146681580Y-64558285D02*
X146729200Y-64510666D01*
X146729200Y-64510666D02*
X146776819Y-64415428D01*
X146776819Y-64415428D02*
X146776819Y-64224952D01*
X146776819Y-64224952D02*
X146729200Y-64129714D01*
X146729200Y-64129714D02*
X146681580Y-64082095D01*
X146681580Y-64082095D02*
X146586342Y-64034476D01*
X146586342Y-64034476D02*
X145776819Y-64034476D01*
X145776819Y-63653523D02*
X145776819Y-63034476D01*
X145776819Y-63034476D02*
X146157771Y-63367809D01*
X146157771Y-63367809D02*
X146157771Y-63224952D01*
X146157771Y-63224952D02*
X146205390Y-63129714D01*
X146205390Y-63129714D02*
X146253009Y-63082095D01*
X146253009Y-63082095D02*
X146348247Y-63034476D01*
X146348247Y-63034476D02*
X146586342Y-63034476D01*
X146586342Y-63034476D02*
X146681580Y-63082095D01*
X146681580Y-63082095D02*
X146729200Y-63129714D01*
X146729200Y-63129714D02*
X146776819Y-63224952D01*
X146776819Y-63224952D02*
X146776819Y-63510666D01*
X146776819Y-63510666D02*
X146729200Y-63605904D01*
X146729200Y-63605904D02*
X146681580Y-63653523D01*
X177139953Y-120027057D02*
X177187572Y-119979438D01*
X177187572Y-119979438D02*
X177282810Y-119931819D01*
X177282810Y-119931819D02*
X177520905Y-119931819D01*
X177520905Y-119931819D02*
X177616143Y-119979438D01*
X177616143Y-119979438D02*
X177663762Y-120027057D01*
X177663762Y-120027057D02*
X177711381Y-120122295D01*
X177711381Y-120122295D02*
X177711381Y-120217533D01*
X177711381Y-120217533D02*
X177663762Y-120360390D01*
X177663762Y-120360390D02*
X177092334Y-120931819D01*
X177092334Y-120931819D02*
X177711381Y-120931819D01*
X178139953Y-120931819D02*
X178139953Y-120265152D01*
X178139953Y-120360390D02*
X178187572Y-120312771D01*
X178187572Y-120312771D02*
X178282810Y-120265152D01*
X178282810Y-120265152D02*
X178425667Y-120265152D01*
X178425667Y-120265152D02*
X178520905Y-120312771D01*
X178520905Y-120312771D02*
X178568524Y-120408009D01*
X178568524Y-120408009D02*
X178568524Y-120931819D01*
X178568524Y-120408009D02*
X178616143Y-120312771D01*
X178616143Y-120312771D02*
X178711381Y-120265152D01*
X178711381Y-120265152D02*
X178854238Y-120265152D01*
X178854238Y-120265152D02*
X178949477Y-120312771D01*
X178949477Y-120312771D02*
X178997096Y-120408009D01*
X178997096Y-120408009D02*
X178997096Y-120931819D01*
X179473286Y-120931819D02*
X179473286Y-120265152D01*
X179473286Y-120360390D02*
X179520905Y-120312771D01*
X179520905Y-120312771D02*
X179616143Y-120265152D01*
X179616143Y-120265152D02*
X179759000Y-120265152D01*
X179759000Y-120265152D02*
X179854238Y-120312771D01*
X179854238Y-120312771D02*
X179901857Y-120408009D01*
X179901857Y-120408009D02*
X179901857Y-120931819D01*
X179901857Y-120408009D02*
X179949476Y-120312771D01*
X179949476Y-120312771D02*
X180044714Y-120265152D01*
X180044714Y-120265152D02*
X180187571Y-120265152D01*
X180187571Y-120265152D02*
X180282810Y-120312771D01*
X180282810Y-120312771D02*
X180330429Y-120408009D01*
X180330429Y-120408009D02*
X180330429Y-120931819D01*
X123954819Y-116762856D02*
X123954819Y-116667618D01*
X123954819Y-116667618D02*
X124002438Y-116572380D01*
X124002438Y-116572380D02*
X124050057Y-116524761D01*
X124050057Y-116524761D02*
X124145295Y-116477142D01*
X124145295Y-116477142D02*
X124335771Y-116429523D01*
X124335771Y-116429523D02*
X124573866Y-116429523D01*
X124573866Y-116429523D02*
X124764342Y-116477142D01*
X124764342Y-116477142D02*
X124859580Y-116524761D01*
X124859580Y-116524761D02*
X124907200Y-116572380D01*
X124907200Y-116572380D02*
X124954819Y-116667618D01*
X124954819Y-116667618D02*
X124954819Y-116762856D01*
X124954819Y-116762856D02*
X124907200Y-116858094D01*
X124907200Y-116858094D02*
X124859580Y-116905713D01*
X124859580Y-116905713D02*
X124764342Y-116953332D01*
X124764342Y-116953332D02*
X124573866Y-117000951D01*
X124573866Y-117000951D02*
X124335771Y-117000951D01*
X124335771Y-117000951D02*
X124145295Y-116953332D01*
X124145295Y-116953332D02*
X124050057Y-116905713D01*
X124050057Y-116905713D02*
X124002438Y-116858094D01*
X124002438Y-116858094D02*
X123954819Y-116762856D01*
X124859580Y-116000951D02*
X124907200Y-115953332D01*
X124907200Y-115953332D02*
X124954819Y-116000951D01*
X124954819Y-116000951D02*
X124907200Y-116048570D01*
X124907200Y-116048570D02*
X124859580Y-116000951D01*
X124859580Y-116000951D02*
X124954819Y-116000951D01*
X124954819Y-115000952D02*
X124954819Y-115572380D01*
X124954819Y-115286666D02*
X123954819Y-115286666D01*
X123954819Y-115286666D02*
X124097676Y-115381904D01*
X124097676Y-115381904D02*
X124192914Y-115477142D01*
X124192914Y-115477142D02*
X124240533Y-115572380D01*
X124288152Y-114143809D02*
X124954819Y-114143809D01*
X124288152Y-114572380D02*
X124811961Y-114572380D01*
X124811961Y-114572380D02*
X124907200Y-114524761D01*
X124907200Y-114524761D02*
X124954819Y-114429523D01*
X124954819Y-114429523D02*
X124954819Y-114286666D01*
X124954819Y-114286666D02*
X124907200Y-114191428D01*
X124907200Y-114191428D02*
X124859580Y-114143809D01*
X124431009Y-113334285D02*
X124431009Y-113667618D01*
X124954819Y-113667618D02*
X123954819Y-113667618D01*
X123954819Y-113667618D02*
X123954819Y-113191428D01*
D12*
X122580814Y-115273333D02*
X122624624Y-115317142D01*
X122624624Y-115317142D02*
X122668433Y-115448571D01*
X122668433Y-115448571D02*
X122668433Y-115536190D01*
X122668433Y-115536190D02*
X122624624Y-115667618D01*
X122624624Y-115667618D02*
X122537004Y-115755237D01*
X122537004Y-115755237D02*
X122449385Y-115799047D01*
X122449385Y-115799047D02*
X122274147Y-115842856D01*
X122274147Y-115842856D02*
X122142719Y-115842856D01*
X122142719Y-115842856D02*
X121967481Y-115799047D01*
X121967481Y-115799047D02*
X121879862Y-115755237D01*
X121879862Y-115755237D02*
X121792243Y-115667618D01*
X121792243Y-115667618D02*
X121748433Y-115536190D01*
X121748433Y-115536190D02*
X121748433Y-115448571D01*
X121748433Y-115448571D02*
X121792243Y-115317142D01*
X121792243Y-115317142D02*
X121836052Y-115273333D01*
X121748433Y-114484761D02*
X121748433Y-114659999D01*
X121748433Y-114659999D02*
X121792243Y-114747618D01*
X121792243Y-114747618D02*
X121836052Y-114791428D01*
X121836052Y-114791428D02*
X121967481Y-114879047D01*
X121967481Y-114879047D02*
X122142719Y-114922856D01*
X122142719Y-114922856D02*
X122493195Y-114922856D01*
X122493195Y-114922856D02*
X122580814Y-114879047D01*
X122580814Y-114879047D02*
X122624624Y-114835237D01*
X122624624Y-114835237D02*
X122668433Y-114747618D01*
X122668433Y-114747618D02*
X122668433Y-114572380D01*
X122668433Y-114572380D02*
X122624624Y-114484761D01*
X122624624Y-114484761D02*
X122580814Y-114440952D01*
X122580814Y-114440952D02*
X122493195Y-114397142D01*
X122493195Y-114397142D02*
X122274147Y-114397142D01*
X122274147Y-114397142D02*
X122186528Y-114440952D01*
X122186528Y-114440952D02*
X122142719Y-114484761D01*
X122142719Y-114484761D02*
X122098909Y-114572380D01*
X122098909Y-114572380D02*
X122098909Y-114747618D01*
X122098909Y-114747618D02*
X122142719Y-114835237D01*
X122142719Y-114835237D02*
X122186528Y-114879047D01*
X122186528Y-114879047D02*
X122274147Y-114922856D01*
D10*
X71138953Y-120027057D02*
X71186572Y-119979438D01*
X71186572Y-119979438D02*
X71281810Y-119931819D01*
X71281810Y-119931819D02*
X71519905Y-119931819D01*
X71519905Y-119931819D02*
X71615143Y-119979438D01*
X71615143Y-119979438D02*
X71662762Y-120027057D01*
X71662762Y-120027057D02*
X71710381Y-120122295D01*
X71710381Y-120122295D02*
X71710381Y-120217533D01*
X71710381Y-120217533D02*
X71662762Y-120360390D01*
X71662762Y-120360390D02*
X71091334Y-120931819D01*
X71091334Y-120931819D02*
X71710381Y-120931819D01*
X72138953Y-120931819D02*
X72138953Y-120265152D01*
X72138953Y-120360390D02*
X72186572Y-120312771D01*
X72186572Y-120312771D02*
X72281810Y-120265152D01*
X72281810Y-120265152D02*
X72424667Y-120265152D01*
X72424667Y-120265152D02*
X72519905Y-120312771D01*
X72519905Y-120312771D02*
X72567524Y-120408009D01*
X72567524Y-120408009D02*
X72567524Y-120931819D01*
X72567524Y-120408009D02*
X72615143Y-120312771D01*
X72615143Y-120312771D02*
X72710381Y-120265152D01*
X72710381Y-120265152D02*
X72853238Y-120265152D01*
X72853238Y-120265152D02*
X72948477Y-120312771D01*
X72948477Y-120312771D02*
X72996096Y-120408009D01*
X72996096Y-120408009D02*
X72996096Y-120931819D01*
X73472286Y-120931819D02*
X73472286Y-120265152D01*
X73472286Y-120360390D02*
X73519905Y-120312771D01*
X73519905Y-120312771D02*
X73615143Y-120265152D01*
X73615143Y-120265152D02*
X73758000Y-120265152D01*
X73758000Y-120265152D02*
X73853238Y-120312771D01*
X73853238Y-120312771D02*
X73900857Y-120408009D01*
X73900857Y-120408009D02*
X73900857Y-120931819D01*
X73900857Y-120408009D02*
X73948476Y-120312771D01*
X73948476Y-120312771D02*
X74043714Y-120265152D01*
X74043714Y-120265152D02*
X74186571Y-120265152D01*
X74186571Y-120265152D02*
X74281810Y-120312771D01*
X74281810Y-120312771D02*
X74329429Y-120408009D01*
X74329429Y-120408009D02*
X74329429Y-120931819D01*
X177139953Y-47026057D02*
X177187572Y-46978438D01*
X177187572Y-46978438D02*
X177282810Y-46930819D01*
X177282810Y-46930819D02*
X177520905Y-46930819D01*
X177520905Y-46930819D02*
X177616143Y-46978438D01*
X177616143Y-46978438D02*
X177663762Y-47026057D01*
X177663762Y-47026057D02*
X177711381Y-47121295D01*
X177711381Y-47121295D02*
X177711381Y-47216533D01*
X177711381Y-47216533D02*
X177663762Y-47359390D01*
X177663762Y-47359390D02*
X177092334Y-47930819D01*
X177092334Y-47930819D02*
X177711381Y-47930819D01*
X178139953Y-47930819D02*
X178139953Y-47264152D01*
X178139953Y-47359390D02*
X178187572Y-47311771D01*
X178187572Y-47311771D02*
X178282810Y-47264152D01*
X178282810Y-47264152D02*
X178425667Y-47264152D01*
X178425667Y-47264152D02*
X178520905Y-47311771D01*
X178520905Y-47311771D02*
X178568524Y-47407009D01*
X178568524Y-47407009D02*
X178568524Y-47930819D01*
X178568524Y-47407009D02*
X178616143Y-47311771D01*
X178616143Y-47311771D02*
X178711381Y-47264152D01*
X178711381Y-47264152D02*
X178854238Y-47264152D01*
X178854238Y-47264152D02*
X178949477Y-47311771D01*
X178949477Y-47311771D02*
X178997096Y-47407009D01*
X178997096Y-47407009D02*
X178997096Y-47930819D01*
X179473286Y-47930819D02*
X179473286Y-47264152D01*
X179473286Y-47359390D02*
X179520905Y-47311771D01*
X179520905Y-47311771D02*
X179616143Y-47264152D01*
X179616143Y-47264152D02*
X179759000Y-47264152D01*
X179759000Y-47264152D02*
X179854238Y-47311771D01*
X179854238Y-47311771D02*
X179901857Y-47407009D01*
X179901857Y-47407009D02*
X179901857Y-47930819D01*
X179901857Y-47407009D02*
X179949476Y-47311771D01*
X179949476Y-47311771D02*
X180044714Y-47264152D01*
X180044714Y-47264152D02*
X180187571Y-47264152D01*
X180187571Y-47264152D02*
X180282810Y-47311771D01*
X180282810Y-47311771D02*
X180330429Y-47407009D01*
X180330429Y-47407009D02*
X180330429Y-47930819D01*
X71138953Y-47026057D02*
X71186572Y-46978438D01*
X71186572Y-46978438D02*
X71281810Y-46930819D01*
X71281810Y-46930819D02*
X71519905Y-46930819D01*
X71519905Y-46930819D02*
X71615143Y-46978438D01*
X71615143Y-46978438D02*
X71662762Y-47026057D01*
X71662762Y-47026057D02*
X71710381Y-47121295D01*
X71710381Y-47121295D02*
X71710381Y-47216533D01*
X71710381Y-47216533D02*
X71662762Y-47359390D01*
X71662762Y-47359390D02*
X71091334Y-47930819D01*
X71091334Y-47930819D02*
X71710381Y-47930819D01*
X72138953Y-47930819D02*
X72138953Y-47264152D01*
X72138953Y-47359390D02*
X72186572Y-47311771D01*
X72186572Y-47311771D02*
X72281810Y-47264152D01*
X72281810Y-47264152D02*
X72424667Y-47264152D01*
X72424667Y-47264152D02*
X72519905Y-47311771D01*
X72519905Y-47311771D02*
X72567524Y-47407009D01*
X72567524Y-47407009D02*
X72567524Y-47930819D01*
X72567524Y-47407009D02*
X72615143Y-47311771D01*
X72615143Y-47311771D02*
X72710381Y-47264152D01*
X72710381Y-47264152D02*
X72853238Y-47264152D01*
X72853238Y-47264152D02*
X72948477Y-47311771D01*
X72948477Y-47311771D02*
X72996096Y-47407009D01*
X72996096Y-47407009D02*
X72996096Y-47930819D01*
X73472286Y-47930819D02*
X73472286Y-47264152D01*
X73472286Y-47359390D02*
X73519905Y-47311771D01*
X73519905Y-47311771D02*
X73615143Y-47264152D01*
X73615143Y-47264152D02*
X73758000Y-47264152D01*
X73758000Y-47264152D02*
X73853238Y-47311771D01*
X73853238Y-47311771D02*
X73900857Y-47407009D01*
X73900857Y-47407009D02*
X73900857Y-47930819D01*
X73900857Y-47407009D02*
X73948476Y-47311771D01*
X73948476Y-47311771D02*
X74043714Y-47264152D01*
X74043714Y-47264152D02*
X74186571Y-47264152D01*
X74186571Y-47264152D02*
X74281810Y-47311771D01*
X74281810Y-47311771D02*
X74329429Y-47407009D01*
X74329429Y-47407009D02*
X74329429Y-47930819D01*
X92498571Y-77664819D02*
X91927143Y-77664819D01*
X92212857Y-77664819D02*
X92212857Y-76664819D01*
X92212857Y-76664819D02*
X92117619Y-76807676D01*
X92117619Y-76807676D02*
X92022381Y-76902914D01*
X92022381Y-76902914D02*
X91927143Y-76950533D01*
X92879524Y-76760057D02*
X92927143Y-76712438D01*
X92927143Y-76712438D02*
X93022381Y-76664819D01*
X93022381Y-76664819D02*
X93260476Y-76664819D01*
X93260476Y-76664819D02*
X93355714Y-76712438D01*
X93355714Y-76712438D02*
X93403333Y-76760057D01*
X93403333Y-76760057D02*
X93450952Y-76855295D01*
X93450952Y-76855295D02*
X93450952Y-76950533D01*
X93450952Y-76950533D02*
X93403333Y-77093390D01*
X93403333Y-77093390D02*
X92831905Y-77664819D01*
X92831905Y-77664819D02*
X93450952Y-77664819D01*
X94403333Y-77664819D02*
X93831905Y-77664819D01*
X94117619Y-77664819D02*
X94117619Y-76664819D01*
X94117619Y-76664819D02*
X94022381Y-76807676D01*
X94022381Y-76807676D02*
X93927143Y-76902914D01*
X93927143Y-76902914D02*
X93831905Y-76950533D01*
X94831905Y-77664819D02*
X94831905Y-76664819D01*
X94927143Y-77283866D02*
X95212857Y-77664819D01*
X95212857Y-76998152D02*
X94831905Y-77379104D01*
X93403333Y-75294819D02*
X93070000Y-74818628D01*
X92831905Y-75294819D02*
X92831905Y-74294819D01*
X92831905Y-74294819D02*
X93212857Y-74294819D01*
X93212857Y-74294819D02*
X93308095Y-74342438D01*
X93308095Y-74342438D02*
X93355714Y-74390057D01*
X93355714Y-74390057D02*
X93403333Y-74485295D01*
X93403333Y-74485295D02*
X93403333Y-74628152D01*
X93403333Y-74628152D02*
X93355714Y-74723390D01*
X93355714Y-74723390D02*
X93308095Y-74771009D01*
X93308095Y-74771009D02*
X93212857Y-74818628D01*
X93212857Y-74818628D02*
X92831905Y-74818628D01*
X94355714Y-75294819D02*
X93784286Y-75294819D01*
X94070000Y-75294819D02*
X94070000Y-74294819D01*
X94070000Y-74294819D02*
X93974762Y-74437676D01*
X93974762Y-74437676D02*
X93879524Y-74532914D01*
X93879524Y-74532914D02*
X93784286Y-74580533D01*
X88999819Y-115336714D02*
X88999819Y-114765286D01*
X89999819Y-115051000D02*
X88999819Y-115051000D01*
X89999819Y-114431952D02*
X88999819Y-114431952D01*
X88999819Y-114431952D02*
X88999819Y-114051000D01*
X88999819Y-114051000D02*
X89047438Y-113955762D01*
X89047438Y-113955762D02*
X89095057Y-113908143D01*
X89095057Y-113908143D02*
X89190295Y-113860524D01*
X89190295Y-113860524D02*
X89333152Y-113860524D01*
X89333152Y-113860524D02*
X89428390Y-113908143D01*
X89428390Y-113908143D02*
X89476009Y-113955762D01*
X89476009Y-113955762D02*
X89523628Y-114051000D01*
X89523628Y-114051000D02*
X89523628Y-114431952D01*
X89333152Y-113003381D02*
X89999819Y-113003381D01*
X88952200Y-113241476D02*
X89666485Y-113479571D01*
X89666485Y-113479571D02*
X89666485Y-112860524D01*
X88999819Y-112289095D02*
X88999819Y-112193857D01*
X88999819Y-112193857D02*
X89047438Y-112098619D01*
X89047438Y-112098619D02*
X89095057Y-112051000D01*
X89095057Y-112051000D02*
X89190295Y-112003381D01*
X89190295Y-112003381D02*
X89380771Y-111955762D01*
X89380771Y-111955762D02*
X89618866Y-111955762D01*
X89618866Y-111955762D02*
X89809342Y-112003381D01*
X89809342Y-112003381D02*
X89904580Y-112051000D01*
X89904580Y-112051000D02*
X89952200Y-112098619D01*
X89952200Y-112098619D02*
X89999819Y-112193857D01*
X89999819Y-112193857D02*
X89999819Y-112289095D01*
X89999819Y-112289095D02*
X89952200Y-112384333D01*
X89952200Y-112384333D02*
X89904580Y-112431952D01*
X89904580Y-112431952D02*
X89809342Y-112479571D01*
X89809342Y-112479571D02*
X89618866Y-112527190D01*
X89618866Y-112527190D02*
X89380771Y-112527190D01*
X89380771Y-112527190D02*
X89190295Y-112479571D01*
X89190295Y-112479571D02*
X89095057Y-112431952D01*
X89095057Y-112431952D02*
X89047438Y-112384333D01*
X89047438Y-112384333D02*
X88999819Y-112289095D01*
X88999819Y-111051000D02*
X88999819Y-111527190D01*
X88999819Y-111527190D02*
X89476009Y-111574809D01*
X89476009Y-111574809D02*
X89428390Y-111527190D01*
X89428390Y-111527190D02*
X89380771Y-111431952D01*
X89380771Y-111431952D02*
X89380771Y-111193857D01*
X89380771Y-111193857D02*
X89428390Y-111098619D01*
X89428390Y-111098619D02*
X89476009Y-111051000D01*
X89476009Y-111051000D02*
X89571247Y-111003381D01*
X89571247Y-111003381D02*
X89809342Y-111003381D01*
X89809342Y-111003381D02*
X89904580Y-111051000D01*
X89904580Y-111051000D02*
X89952200Y-111098619D01*
X89952200Y-111098619D02*
X89999819Y-111193857D01*
X89999819Y-111193857D02*
X89999819Y-111431952D01*
X89999819Y-111431952D02*
X89952200Y-111527190D01*
X89952200Y-111527190D02*
X89904580Y-111574809D01*
X88999819Y-110146238D02*
X88999819Y-110336714D01*
X88999819Y-110336714D02*
X89047438Y-110431952D01*
X89047438Y-110431952D02*
X89095057Y-110479571D01*
X89095057Y-110479571D02*
X89237914Y-110574809D01*
X89237914Y-110574809D02*
X89428390Y-110622428D01*
X89428390Y-110622428D02*
X89809342Y-110622428D01*
X89809342Y-110622428D02*
X89904580Y-110574809D01*
X89904580Y-110574809D02*
X89952200Y-110527190D01*
X89952200Y-110527190D02*
X89999819Y-110431952D01*
X89999819Y-110431952D02*
X89999819Y-110241476D01*
X89999819Y-110241476D02*
X89952200Y-110146238D01*
X89952200Y-110146238D02*
X89904580Y-110098619D01*
X89904580Y-110098619D02*
X89809342Y-110051000D01*
X89809342Y-110051000D02*
X89571247Y-110051000D01*
X89571247Y-110051000D02*
X89476009Y-110098619D01*
X89476009Y-110098619D02*
X89428390Y-110146238D01*
X89428390Y-110146238D02*
X89380771Y-110241476D01*
X89380771Y-110241476D02*
X89380771Y-110431952D01*
X89380771Y-110431952D02*
X89428390Y-110527190D01*
X89428390Y-110527190D02*
X89476009Y-110574809D01*
X89476009Y-110574809D02*
X89571247Y-110622428D01*
X89999819Y-108860523D02*
X89333152Y-108860523D01*
X89428390Y-108860523D02*
X89380771Y-108812904D01*
X89380771Y-108812904D02*
X89333152Y-108717666D01*
X89333152Y-108717666D02*
X89333152Y-108574809D01*
X89333152Y-108574809D02*
X89380771Y-108479571D01*
X89380771Y-108479571D02*
X89476009Y-108431952D01*
X89476009Y-108431952D02*
X89999819Y-108431952D01*
X89476009Y-108431952D02*
X89380771Y-108384333D01*
X89380771Y-108384333D02*
X89333152Y-108289095D01*
X89333152Y-108289095D02*
X89333152Y-108146238D01*
X89333152Y-108146238D02*
X89380771Y-108050999D01*
X89380771Y-108050999D02*
X89476009Y-108003380D01*
X89476009Y-108003380D02*
X89999819Y-108003380D01*
X89999819Y-107384333D02*
X89952200Y-107479571D01*
X89952200Y-107479571D02*
X89904580Y-107527190D01*
X89904580Y-107527190D02*
X89809342Y-107574809D01*
X89809342Y-107574809D02*
X89523628Y-107574809D01*
X89523628Y-107574809D02*
X89428390Y-107527190D01*
X89428390Y-107527190D02*
X89380771Y-107479571D01*
X89380771Y-107479571D02*
X89333152Y-107384333D01*
X89333152Y-107384333D02*
X89333152Y-107241476D01*
X89333152Y-107241476D02*
X89380771Y-107146238D01*
X89380771Y-107146238D02*
X89428390Y-107098619D01*
X89428390Y-107098619D02*
X89523628Y-107051000D01*
X89523628Y-107051000D02*
X89809342Y-107051000D01*
X89809342Y-107051000D02*
X89904580Y-107098619D01*
X89904580Y-107098619D02*
X89952200Y-107146238D01*
X89952200Y-107146238D02*
X89999819Y-107241476D01*
X89999819Y-107241476D02*
X89999819Y-107384333D01*
X89999819Y-106193857D02*
X88999819Y-106193857D01*
X89952200Y-106193857D02*
X89999819Y-106289095D01*
X89999819Y-106289095D02*
X89999819Y-106479571D01*
X89999819Y-106479571D02*
X89952200Y-106574809D01*
X89952200Y-106574809D02*
X89904580Y-106622428D01*
X89904580Y-106622428D02*
X89809342Y-106670047D01*
X89809342Y-106670047D02*
X89523628Y-106670047D01*
X89523628Y-106670047D02*
X89428390Y-106622428D01*
X89428390Y-106622428D02*
X89380771Y-106574809D01*
X89380771Y-106574809D02*
X89333152Y-106479571D01*
X89333152Y-106479571D02*
X89333152Y-106289095D01*
X89333152Y-106289095D02*
X89380771Y-106193857D01*
X89333152Y-105289095D02*
X89999819Y-105289095D01*
X89333152Y-105717666D02*
X89856961Y-105717666D01*
X89856961Y-105717666D02*
X89952200Y-105670047D01*
X89952200Y-105670047D02*
X89999819Y-105574809D01*
X89999819Y-105574809D02*
X89999819Y-105431952D01*
X89999819Y-105431952D02*
X89952200Y-105336714D01*
X89952200Y-105336714D02*
X89904580Y-105289095D01*
X89999819Y-104670047D02*
X89952200Y-104765285D01*
X89952200Y-104765285D02*
X89856961Y-104812904D01*
X89856961Y-104812904D02*
X88999819Y-104812904D01*
X89952200Y-103908142D02*
X89999819Y-104003380D01*
X89999819Y-104003380D02*
X89999819Y-104193856D01*
X89999819Y-104193856D02*
X89952200Y-104289094D01*
X89952200Y-104289094D02*
X89856961Y-104336713D01*
X89856961Y-104336713D02*
X89476009Y-104336713D01*
X89476009Y-104336713D02*
X89380771Y-104289094D01*
X89380771Y-104289094D02*
X89333152Y-104193856D01*
X89333152Y-104193856D02*
X89333152Y-104003380D01*
X89333152Y-104003380D02*
X89380771Y-103908142D01*
X89380771Y-103908142D02*
X89476009Y-103860523D01*
X89476009Y-103860523D02*
X89571247Y-103860523D01*
X89571247Y-103860523D02*
X89666485Y-104336713D01*
X90499819Y-110312904D02*
X91309342Y-110312904D01*
X91309342Y-110312904D02*
X91404580Y-110265285D01*
X91404580Y-110265285D02*
X91452200Y-110217666D01*
X91452200Y-110217666D02*
X91499819Y-110122428D01*
X91499819Y-110122428D02*
X91499819Y-109931952D01*
X91499819Y-109931952D02*
X91452200Y-109836714D01*
X91452200Y-109836714D02*
X91404580Y-109789095D01*
X91404580Y-109789095D02*
X91309342Y-109741476D01*
X91309342Y-109741476D02*
X90499819Y-109741476D01*
X90499819Y-108789095D02*
X90499819Y-109265285D01*
X90499819Y-109265285D02*
X90976009Y-109312904D01*
X90976009Y-109312904D02*
X90928390Y-109265285D01*
X90928390Y-109265285D02*
X90880771Y-109170047D01*
X90880771Y-109170047D02*
X90880771Y-108931952D01*
X90880771Y-108931952D02*
X90928390Y-108836714D01*
X90928390Y-108836714D02*
X90976009Y-108789095D01*
X90976009Y-108789095D02*
X91071247Y-108741476D01*
X91071247Y-108741476D02*
X91309342Y-108741476D01*
X91309342Y-108741476D02*
X91404580Y-108789095D01*
X91404580Y-108789095D02*
X91452200Y-108836714D01*
X91452200Y-108836714D02*
X91499819Y-108931952D01*
X91499819Y-108931952D02*
X91499819Y-109170047D01*
X91499819Y-109170047D02*
X91452200Y-109265285D01*
X91452200Y-109265285D02*
X91404580Y-109312904D01*
X92115238Y-63968152D02*
X92115238Y-64634819D01*
X91877143Y-63587200D02*
X91639048Y-64301485D01*
X91639048Y-64301485D02*
X92258095Y-64301485D01*
X92829524Y-63634819D02*
X92924762Y-63634819D01*
X92924762Y-63634819D02*
X93020000Y-63682438D01*
X93020000Y-63682438D02*
X93067619Y-63730057D01*
X93067619Y-63730057D02*
X93115238Y-63825295D01*
X93115238Y-63825295D02*
X93162857Y-64015771D01*
X93162857Y-64015771D02*
X93162857Y-64253866D01*
X93162857Y-64253866D02*
X93115238Y-64444342D01*
X93115238Y-64444342D02*
X93067619Y-64539580D01*
X93067619Y-64539580D02*
X93020000Y-64587200D01*
X93020000Y-64587200D02*
X92924762Y-64634819D01*
X92924762Y-64634819D02*
X92829524Y-64634819D01*
X92829524Y-64634819D02*
X92734286Y-64587200D01*
X92734286Y-64587200D02*
X92686667Y-64539580D01*
X92686667Y-64539580D02*
X92639048Y-64444342D01*
X92639048Y-64444342D02*
X92591429Y-64253866D01*
X92591429Y-64253866D02*
X92591429Y-64015771D01*
X92591429Y-64015771D02*
X92639048Y-63825295D01*
X92639048Y-63825295D02*
X92686667Y-63730057D01*
X92686667Y-63730057D02*
X92734286Y-63682438D01*
X92734286Y-63682438D02*
X92829524Y-63634819D01*
X93591429Y-64539580D02*
X93639048Y-64587200D01*
X93639048Y-64587200D02*
X93591429Y-64634819D01*
X93591429Y-64634819D02*
X93543810Y-64587200D01*
X93543810Y-64587200D02*
X93591429Y-64539580D01*
X93591429Y-64539580D02*
X93591429Y-64634819D01*
X94020000Y-63730057D02*
X94067619Y-63682438D01*
X94067619Y-63682438D02*
X94162857Y-63634819D01*
X94162857Y-63634819D02*
X94400952Y-63634819D01*
X94400952Y-63634819D02*
X94496190Y-63682438D01*
X94496190Y-63682438D02*
X94543809Y-63730057D01*
X94543809Y-63730057D02*
X94591428Y-63825295D01*
X94591428Y-63825295D02*
X94591428Y-63920533D01*
X94591428Y-63920533D02*
X94543809Y-64063390D01*
X94543809Y-64063390D02*
X93972381Y-64634819D01*
X93972381Y-64634819D02*
X94591428Y-64634819D01*
X95020000Y-64634819D02*
X95020000Y-63634819D01*
X95115238Y-64253866D02*
X95400952Y-64634819D01*
X95400952Y-63968152D02*
X95020000Y-64349104D01*
X93353333Y-67004819D02*
X93020000Y-66528628D01*
X92781905Y-67004819D02*
X92781905Y-66004819D01*
X92781905Y-66004819D02*
X93162857Y-66004819D01*
X93162857Y-66004819D02*
X93258095Y-66052438D01*
X93258095Y-66052438D02*
X93305714Y-66100057D01*
X93305714Y-66100057D02*
X93353333Y-66195295D01*
X93353333Y-66195295D02*
X93353333Y-66338152D01*
X93353333Y-66338152D02*
X93305714Y-66433390D01*
X93305714Y-66433390D02*
X93258095Y-66481009D01*
X93258095Y-66481009D02*
X93162857Y-66528628D01*
X93162857Y-66528628D02*
X92781905Y-66528628D01*
X93734286Y-66100057D02*
X93781905Y-66052438D01*
X93781905Y-66052438D02*
X93877143Y-66004819D01*
X93877143Y-66004819D02*
X94115238Y-66004819D01*
X94115238Y-66004819D02*
X94210476Y-66052438D01*
X94210476Y-66052438D02*
X94258095Y-66100057D01*
X94258095Y-66100057D02*
X94305714Y-66195295D01*
X94305714Y-66195295D02*
X94305714Y-66290533D01*
X94305714Y-66290533D02*
X94258095Y-66433390D01*
X94258095Y-66433390D02*
X93686667Y-67004819D01*
X93686667Y-67004819D02*
X94305714Y-67004819D01*
X166304819Y-65602856D02*
X166304819Y-65507618D01*
X166304819Y-65507618D02*
X166352438Y-65412380D01*
X166352438Y-65412380D02*
X166400057Y-65364761D01*
X166400057Y-65364761D02*
X166495295Y-65317142D01*
X166495295Y-65317142D02*
X166685771Y-65269523D01*
X166685771Y-65269523D02*
X166923866Y-65269523D01*
X166923866Y-65269523D02*
X167114342Y-65317142D01*
X167114342Y-65317142D02*
X167209580Y-65364761D01*
X167209580Y-65364761D02*
X167257200Y-65412380D01*
X167257200Y-65412380D02*
X167304819Y-65507618D01*
X167304819Y-65507618D02*
X167304819Y-65602856D01*
X167304819Y-65602856D02*
X167257200Y-65698094D01*
X167257200Y-65698094D02*
X167209580Y-65745713D01*
X167209580Y-65745713D02*
X167114342Y-65793332D01*
X167114342Y-65793332D02*
X166923866Y-65840951D01*
X166923866Y-65840951D02*
X166685771Y-65840951D01*
X166685771Y-65840951D02*
X166495295Y-65793332D01*
X166495295Y-65793332D02*
X166400057Y-65745713D01*
X166400057Y-65745713D02*
X166352438Y-65698094D01*
X166352438Y-65698094D02*
X166304819Y-65602856D01*
X167209580Y-64840951D02*
X167257200Y-64793332D01*
X167257200Y-64793332D02*
X167304819Y-64840951D01*
X167304819Y-64840951D02*
X167257200Y-64888570D01*
X167257200Y-64888570D02*
X167209580Y-64840951D01*
X167209580Y-64840951D02*
X167304819Y-64840951D01*
X167304819Y-63840952D02*
X167304819Y-64412380D01*
X167304819Y-64126666D02*
X166304819Y-64126666D01*
X166304819Y-64126666D02*
X166447676Y-64221904D01*
X166447676Y-64221904D02*
X166542914Y-64317142D01*
X166542914Y-64317142D02*
X166590533Y-64412380D01*
X166638152Y-62983809D02*
X167304819Y-62983809D01*
X166638152Y-63412380D02*
X167161961Y-63412380D01*
X167161961Y-63412380D02*
X167257200Y-63364761D01*
X167257200Y-63364761D02*
X167304819Y-63269523D01*
X167304819Y-63269523D02*
X167304819Y-63126666D01*
X167304819Y-63126666D02*
X167257200Y-63031428D01*
X167257200Y-63031428D02*
X167209580Y-62983809D01*
X166781009Y-62174285D02*
X166781009Y-62507618D01*
X167304819Y-62507618D02*
X166304819Y-62507618D01*
X166304819Y-62507618D02*
X166304819Y-62031428D01*
D12*
X169430814Y-64113333D02*
X169474624Y-64157142D01*
X169474624Y-64157142D02*
X169518433Y-64288571D01*
X169518433Y-64288571D02*
X169518433Y-64376190D01*
X169518433Y-64376190D02*
X169474624Y-64507618D01*
X169474624Y-64507618D02*
X169387004Y-64595237D01*
X169387004Y-64595237D02*
X169299385Y-64639047D01*
X169299385Y-64639047D02*
X169124147Y-64682856D01*
X169124147Y-64682856D02*
X168992719Y-64682856D01*
X168992719Y-64682856D02*
X168817481Y-64639047D01*
X168817481Y-64639047D02*
X168729862Y-64595237D01*
X168729862Y-64595237D02*
X168642243Y-64507618D01*
X168642243Y-64507618D02*
X168598433Y-64376190D01*
X168598433Y-64376190D02*
X168598433Y-64288571D01*
X168598433Y-64288571D02*
X168642243Y-64157142D01*
X168642243Y-64157142D02*
X168686052Y-64113333D01*
X169518433Y-63237142D02*
X169518433Y-63762856D01*
X169518433Y-63499999D02*
X168598433Y-63499999D01*
X168598433Y-63499999D02*
X168729862Y-63587618D01*
X168729862Y-63587618D02*
X168817481Y-63675237D01*
X168817481Y-63675237D02*
X168861290Y-63762856D01*
D11*
%TO.C,C5*%
X80310000Y-63370000D02*
X80310000Y-65370000D01*
X80310000Y-65370000D02*
X84910000Y-65370000D01*
X84910000Y-63370000D02*
X80310000Y-63370000D01*
X84910000Y-65370000D02*
X84910000Y-63370000D01*
%TO.C,C2*%
X117320000Y-59400000D02*
X117320000Y-64000000D01*
X117320000Y-64000000D02*
X119320000Y-64000000D01*
X119320000Y-59400000D02*
X117320000Y-59400000D01*
X119320000Y-64000000D02*
X119320000Y-59400000D01*
%TO.C,C4*%
X153170000Y-103320000D02*
X153170000Y-107920000D01*
X153170000Y-107920000D02*
X155170000Y-107920000D01*
X155170000Y-103320000D02*
X153170000Y-103320000D01*
X155170000Y-107920000D02*
X155170000Y-103320000D01*
D10*
%TO.C,3.3V*%
X104790000Y-51100000D02*
X106290000Y-51100000D01*
X104790000Y-51600000D02*
X104790000Y-51100000D01*
X106290000Y-51100000D02*
X106290000Y-51600000D01*
X106290000Y-51600000D02*
X104790000Y-51600000D01*
X106790000Y-51350000D02*
G75*
G02*
X104290000Y-51350000I-1250000J0D01*
G01*
X104290000Y-51350000D02*
G75*
G02*
X106790000Y-51350000I1250000J0D01*
G01*
D11*
%TO.C,U3*%
X129552000Y-58844000D02*
X138802000Y-58844000D01*
X129552000Y-60444000D02*
X122422000Y-60444000D01*
X129552000Y-62144000D02*
X126222000Y-62144000D01*
X129552000Y-63844000D02*
X122422000Y-63844000D01*
X129552000Y-65544000D02*
X126222000Y-65544000D01*
X129552000Y-67244000D02*
X122422000Y-67244000D01*
X129552000Y-68844000D02*
X129552000Y-58844000D01*
X138802000Y-58844000D02*
X138802000Y-68844000D01*
X138802000Y-58844000D02*
X145202000Y-58844000D01*
X138802000Y-68844000D02*
X129552000Y-68844000D01*
X138802000Y-68844000D02*
X138802000Y-58844000D01*
X145202000Y-58844000D02*
X145202000Y-68844000D01*
X145202000Y-68844000D02*
X138802000Y-68844000D01*
X144252000Y-63844000D02*
G75*
G02*
X140552000Y-63844000I-1850000J0D01*
G01*
X140552000Y-63844000D02*
G75*
G02*
X144252000Y-63844000I1850000J0D01*
G01*
%TO.C,C6*%
X121250000Y-112820000D02*
X121250000Y-117420000D01*
X121250000Y-117420000D02*
X123250000Y-117420000D01*
X123250000Y-112820000D02*
X121250000Y-112820000D01*
X123250000Y-117420000D02*
X123250000Y-112820000D01*
%TO.C,R1*%
X88490000Y-74840000D02*
X90420000Y-74840000D01*
X90420000Y-73590000D02*
X90420000Y-76090000D01*
X90420000Y-76090000D02*
X96720000Y-76090000D01*
X96720000Y-73590000D02*
X90420000Y-73590000D01*
X96720000Y-76090000D02*
X96720000Y-73590000D01*
X98650000Y-74840000D02*
X96720000Y-74840000D01*
%TO.C,U5*%
X81525000Y-124071000D02*
X98725000Y-124071000D01*
X98725000Y-96071000D01*
X81525000Y-96071000D01*
X81525000Y-124071000D01*
%TO.C,R2*%
X88440000Y-66550000D02*
X90370000Y-66550000D01*
X90370000Y-65300000D02*
X90370000Y-67800000D01*
X90370000Y-67800000D02*
X96670000Y-67800000D01*
X96670000Y-65300000D02*
X90370000Y-65300000D01*
X96670000Y-67800000D02*
X96670000Y-65300000D01*
X98600000Y-66550000D02*
X96670000Y-66550000D01*
%TO.C,C1*%
X168100000Y-61660000D02*
X168100000Y-66260000D01*
X168100000Y-66260000D02*
X170100000Y-66260000D01*
X170100000Y-61660000D02*
X168100000Y-61660000D01*
X170100000Y-66260000D02*
X170100000Y-61660000D01*
%TD*%
M02*
