%TF.GenerationSoftware,KiCad,Pcbnew,8.0.8*%
%TF.CreationDate,2025-04-04T13:43:43-04:00*%
%TF.ProjectId,bike_computer,62696b65-5f63-46f6-9d70-757465722e6b,0*%
%TF.SameCoordinates,Original*%
%TF.FileFunction,Legend,Bot*%
%TF.FilePolarity,Positive*%
%FSLAX46Y46*%
G04 Gerber Fmt 4.6, Leading zero omitted, Abs format (unit mm)*
G04 Created by KiCad (PCBNEW 8.0.8) date 2025-04-04 13:43:43*
%MOMM*%
%LPD*%
G01*
G04 APERTURE LIST*
%ADD10C,0.100000*%
%ADD11C,0.150000*%
%ADD12C,0.120000*%
%ADD13C,0.000000*%
G04 APERTURE END LIST*
D10*
X167331782Y-49328609D02*
X167665115Y-49328609D01*
X167665115Y-49852419D02*
X167665115Y-48852419D01*
X167665115Y-48852419D02*
X167188925Y-48852419D01*
X166379401Y-49852419D02*
X166379401Y-49328609D01*
X166379401Y-49328609D02*
X166427020Y-49233371D01*
X166427020Y-49233371D02*
X166522258Y-49185752D01*
X166522258Y-49185752D02*
X166712734Y-49185752D01*
X166712734Y-49185752D02*
X166807972Y-49233371D01*
X166379401Y-49804800D02*
X166474639Y-49852419D01*
X166474639Y-49852419D02*
X166712734Y-49852419D01*
X166712734Y-49852419D02*
X166807972Y-49804800D01*
X166807972Y-49804800D02*
X166855591Y-49709561D01*
X166855591Y-49709561D02*
X166855591Y-49614323D01*
X166855591Y-49614323D02*
X166807972Y-49519085D01*
X166807972Y-49519085D02*
X166712734Y-49471466D01*
X166712734Y-49471466D02*
X166474639Y-49471466D01*
X166474639Y-49471466D02*
X166379401Y-49423847D01*
X165903210Y-49852419D02*
X165903210Y-48852419D01*
X165474639Y-49852419D02*
X165474639Y-49328609D01*
X165474639Y-49328609D02*
X165522258Y-49233371D01*
X165522258Y-49233371D02*
X165617496Y-49185752D01*
X165617496Y-49185752D02*
X165760353Y-49185752D01*
X165760353Y-49185752D02*
X165855591Y-49233371D01*
X165855591Y-49233371D02*
X165903210Y-49280990D01*
X164998448Y-49852419D02*
X164998448Y-49185752D01*
X164998448Y-49376228D02*
X164950829Y-49280990D01*
X164950829Y-49280990D02*
X164903210Y-49233371D01*
X164903210Y-49233371D02*
X164807972Y-49185752D01*
X164807972Y-49185752D02*
X164712734Y-49185752D01*
X164379400Y-49852419D02*
X164379400Y-49185752D01*
X164379400Y-49376228D02*
X164331781Y-49280990D01*
X164331781Y-49280990D02*
X164284162Y-49233371D01*
X164284162Y-49233371D02*
X164188924Y-49185752D01*
X164188924Y-49185752D02*
X164093686Y-49185752D01*
X163331781Y-49852419D02*
X163331781Y-49328609D01*
X163331781Y-49328609D02*
X163379400Y-49233371D01*
X163379400Y-49233371D02*
X163474638Y-49185752D01*
X163474638Y-49185752D02*
X163665114Y-49185752D01*
X163665114Y-49185752D02*
X163760352Y-49233371D01*
X163331781Y-49804800D02*
X163427019Y-49852419D01*
X163427019Y-49852419D02*
X163665114Y-49852419D01*
X163665114Y-49852419D02*
X163760352Y-49804800D01*
X163760352Y-49804800D02*
X163807971Y-49709561D01*
X163807971Y-49709561D02*
X163807971Y-49614323D01*
X163807971Y-49614323D02*
X163760352Y-49519085D01*
X163760352Y-49519085D02*
X163665114Y-49471466D01*
X163665114Y-49471466D02*
X163427019Y-49471466D01*
X163427019Y-49471466D02*
X163331781Y-49423847D01*
X162427019Y-49852419D02*
X162427019Y-48852419D01*
X162427019Y-49804800D02*
X162522257Y-49852419D01*
X162522257Y-49852419D02*
X162712733Y-49852419D01*
X162712733Y-49852419D02*
X162807971Y-49804800D01*
X162807971Y-49804800D02*
X162855590Y-49757180D01*
X162855590Y-49757180D02*
X162903209Y-49661942D01*
X162903209Y-49661942D02*
X162903209Y-49376228D01*
X162903209Y-49376228D02*
X162855590Y-49280990D01*
X162855590Y-49280990D02*
X162807971Y-49233371D01*
X162807971Y-49233371D02*
X162712733Y-49185752D01*
X162712733Y-49185752D02*
X162522257Y-49185752D01*
X162522257Y-49185752D02*
X162427019Y-49233371D01*
X162093685Y-48852419D02*
X161522257Y-48852419D01*
X161807971Y-49852419D02*
X161807971Y-48852419D01*
X160807971Y-49804800D02*
X160903209Y-49852419D01*
X160903209Y-49852419D02*
X161093685Y-49852419D01*
X161093685Y-49852419D02*
X161188923Y-49804800D01*
X161188923Y-49804800D02*
X161236542Y-49709561D01*
X161236542Y-49709561D02*
X161236542Y-49328609D01*
X161236542Y-49328609D02*
X161188923Y-49233371D01*
X161188923Y-49233371D02*
X161093685Y-49185752D01*
X161093685Y-49185752D02*
X160903209Y-49185752D01*
X160903209Y-49185752D02*
X160807971Y-49233371D01*
X160807971Y-49233371D02*
X160760352Y-49328609D01*
X160760352Y-49328609D02*
X160760352Y-49423847D01*
X160760352Y-49423847D02*
X161236542Y-49519085D01*
X159903209Y-49804800D02*
X159998447Y-49852419D01*
X159998447Y-49852419D02*
X160188923Y-49852419D01*
X160188923Y-49852419D02*
X160284161Y-49804800D01*
X160284161Y-49804800D02*
X160331780Y-49757180D01*
X160331780Y-49757180D02*
X160379399Y-49661942D01*
X160379399Y-49661942D02*
X160379399Y-49376228D01*
X160379399Y-49376228D02*
X160331780Y-49280990D01*
X160331780Y-49280990D02*
X160284161Y-49233371D01*
X160284161Y-49233371D02*
X160188923Y-49185752D01*
X160188923Y-49185752D02*
X159998447Y-49185752D01*
X159998447Y-49185752D02*
X159903209Y-49233371D01*
X159474637Y-49852419D02*
X159474637Y-48852419D01*
X159046066Y-49852419D02*
X159046066Y-49328609D01*
X159046066Y-49328609D02*
X159093685Y-49233371D01*
X159093685Y-49233371D02*
X159188923Y-49185752D01*
X159188923Y-49185752D02*
X159331780Y-49185752D01*
X159331780Y-49185752D02*
X159427018Y-49233371D01*
X159427018Y-49233371D02*
X159474637Y-49280990D01*
X157474637Y-49328609D02*
X157331780Y-49376228D01*
X157331780Y-49376228D02*
X157284161Y-49423847D01*
X157284161Y-49423847D02*
X157236542Y-49519085D01*
X157236542Y-49519085D02*
X157236542Y-49661942D01*
X157236542Y-49661942D02*
X157284161Y-49757180D01*
X157284161Y-49757180D02*
X157331780Y-49804800D01*
X157331780Y-49804800D02*
X157427018Y-49852419D01*
X157427018Y-49852419D02*
X157807970Y-49852419D01*
X157807970Y-49852419D02*
X157807970Y-48852419D01*
X157807970Y-48852419D02*
X157474637Y-48852419D01*
X157474637Y-48852419D02*
X157379399Y-48900038D01*
X157379399Y-48900038D02*
X157331780Y-48947657D01*
X157331780Y-48947657D02*
X157284161Y-49042895D01*
X157284161Y-49042895D02*
X157284161Y-49138133D01*
X157284161Y-49138133D02*
X157331780Y-49233371D01*
X157331780Y-49233371D02*
X157379399Y-49280990D01*
X157379399Y-49280990D02*
X157474637Y-49328609D01*
X157474637Y-49328609D02*
X157807970Y-49328609D01*
X156807970Y-49852419D02*
X156807970Y-49185752D01*
X156807970Y-48852419D02*
X156855589Y-48900038D01*
X156855589Y-48900038D02*
X156807970Y-48947657D01*
X156807970Y-48947657D02*
X156760351Y-48900038D01*
X156760351Y-48900038D02*
X156807970Y-48852419D01*
X156807970Y-48852419D02*
X156807970Y-48947657D01*
X156331780Y-49852419D02*
X156331780Y-48852419D01*
X156236542Y-49471466D02*
X155950828Y-49852419D01*
X155950828Y-49185752D02*
X156331780Y-49566704D01*
X155141304Y-49804800D02*
X155236542Y-49852419D01*
X155236542Y-49852419D02*
X155427018Y-49852419D01*
X155427018Y-49852419D02*
X155522256Y-49804800D01*
X155522256Y-49804800D02*
X155569875Y-49709561D01*
X155569875Y-49709561D02*
X155569875Y-49328609D01*
X155569875Y-49328609D02*
X155522256Y-49233371D01*
X155522256Y-49233371D02*
X155427018Y-49185752D01*
X155427018Y-49185752D02*
X155236542Y-49185752D01*
X155236542Y-49185752D02*
X155141304Y-49233371D01*
X155141304Y-49233371D02*
X155093685Y-49328609D01*
X155093685Y-49328609D02*
X155093685Y-49423847D01*
X155093685Y-49423847D02*
X155569875Y-49519085D01*
X153331780Y-49757180D02*
X153379399Y-49804800D01*
X153379399Y-49804800D02*
X153522256Y-49852419D01*
X153522256Y-49852419D02*
X153617494Y-49852419D01*
X153617494Y-49852419D02*
X153760351Y-49804800D01*
X153760351Y-49804800D02*
X153855589Y-49709561D01*
X153855589Y-49709561D02*
X153903208Y-49614323D01*
X153903208Y-49614323D02*
X153950827Y-49423847D01*
X153950827Y-49423847D02*
X153950827Y-49280990D01*
X153950827Y-49280990D02*
X153903208Y-49090514D01*
X153903208Y-49090514D02*
X153855589Y-48995276D01*
X153855589Y-48995276D02*
X153760351Y-48900038D01*
X153760351Y-48900038D02*
X153617494Y-48852419D01*
X153617494Y-48852419D02*
X153522256Y-48852419D01*
X153522256Y-48852419D02*
X153379399Y-48900038D01*
X153379399Y-48900038D02*
X153331780Y-48947657D01*
X152760351Y-49852419D02*
X152855589Y-49804800D01*
X152855589Y-49804800D02*
X152903208Y-49757180D01*
X152903208Y-49757180D02*
X152950827Y-49661942D01*
X152950827Y-49661942D02*
X152950827Y-49376228D01*
X152950827Y-49376228D02*
X152903208Y-49280990D01*
X152903208Y-49280990D02*
X152855589Y-49233371D01*
X152855589Y-49233371D02*
X152760351Y-49185752D01*
X152760351Y-49185752D02*
X152617494Y-49185752D01*
X152617494Y-49185752D02*
X152522256Y-49233371D01*
X152522256Y-49233371D02*
X152474637Y-49280990D01*
X152474637Y-49280990D02*
X152427018Y-49376228D01*
X152427018Y-49376228D02*
X152427018Y-49661942D01*
X152427018Y-49661942D02*
X152474637Y-49757180D01*
X152474637Y-49757180D02*
X152522256Y-49804800D01*
X152522256Y-49804800D02*
X152617494Y-49852419D01*
X152617494Y-49852419D02*
X152760351Y-49852419D01*
X151998446Y-49852419D02*
X151998446Y-49185752D01*
X151998446Y-49280990D02*
X151950827Y-49233371D01*
X151950827Y-49233371D02*
X151855589Y-49185752D01*
X151855589Y-49185752D02*
X151712732Y-49185752D01*
X151712732Y-49185752D02*
X151617494Y-49233371D01*
X151617494Y-49233371D02*
X151569875Y-49328609D01*
X151569875Y-49328609D02*
X151569875Y-49852419D01*
X151569875Y-49328609D02*
X151522256Y-49233371D01*
X151522256Y-49233371D02*
X151427018Y-49185752D01*
X151427018Y-49185752D02*
X151284161Y-49185752D01*
X151284161Y-49185752D02*
X151188922Y-49233371D01*
X151188922Y-49233371D02*
X151141303Y-49328609D01*
X151141303Y-49328609D02*
X151141303Y-49852419D01*
X150665113Y-49185752D02*
X150665113Y-50185752D01*
X150665113Y-49233371D02*
X150569875Y-49185752D01*
X150569875Y-49185752D02*
X150379399Y-49185752D01*
X150379399Y-49185752D02*
X150284161Y-49233371D01*
X150284161Y-49233371D02*
X150236542Y-49280990D01*
X150236542Y-49280990D02*
X150188923Y-49376228D01*
X150188923Y-49376228D02*
X150188923Y-49661942D01*
X150188923Y-49661942D02*
X150236542Y-49757180D01*
X150236542Y-49757180D02*
X150284161Y-49804800D01*
X150284161Y-49804800D02*
X150379399Y-49852419D01*
X150379399Y-49852419D02*
X150569875Y-49852419D01*
X150569875Y-49852419D02*
X150665113Y-49804800D01*
X149331780Y-49185752D02*
X149331780Y-49852419D01*
X149760351Y-49185752D02*
X149760351Y-49709561D01*
X149760351Y-49709561D02*
X149712732Y-49804800D01*
X149712732Y-49804800D02*
X149617494Y-49852419D01*
X149617494Y-49852419D02*
X149474637Y-49852419D01*
X149474637Y-49852419D02*
X149379399Y-49804800D01*
X149379399Y-49804800D02*
X149331780Y-49757180D01*
X148998446Y-49185752D02*
X148617494Y-49185752D01*
X148855589Y-48852419D02*
X148855589Y-49709561D01*
X148855589Y-49709561D02*
X148807970Y-49804800D01*
X148807970Y-49804800D02*
X148712732Y-49852419D01*
X148712732Y-49852419D02*
X148617494Y-49852419D01*
X147903208Y-49804800D02*
X147998446Y-49852419D01*
X147998446Y-49852419D02*
X148188922Y-49852419D01*
X148188922Y-49852419D02*
X148284160Y-49804800D01*
X148284160Y-49804800D02*
X148331779Y-49709561D01*
X148331779Y-49709561D02*
X148331779Y-49328609D01*
X148331779Y-49328609D02*
X148284160Y-49233371D01*
X148284160Y-49233371D02*
X148188922Y-49185752D01*
X148188922Y-49185752D02*
X147998446Y-49185752D01*
X147998446Y-49185752D02*
X147903208Y-49233371D01*
X147903208Y-49233371D02*
X147855589Y-49328609D01*
X147855589Y-49328609D02*
X147855589Y-49423847D01*
X147855589Y-49423847D02*
X148331779Y-49519085D01*
X147427017Y-49852419D02*
X147427017Y-49185752D01*
X147427017Y-49376228D02*
X147379398Y-49280990D01*
X147379398Y-49280990D02*
X147331779Y-49233371D01*
X147331779Y-49233371D02*
X147236541Y-49185752D01*
X147236541Y-49185752D02*
X147141303Y-49185752D01*
X146141302Y-49185752D02*
X145903207Y-49852419D01*
X145903207Y-49852419D02*
X145665112Y-49185752D01*
X145093683Y-48852419D02*
X144998445Y-48852419D01*
X144998445Y-48852419D02*
X144903207Y-48900038D01*
X144903207Y-48900038D02*
X144855588Y-48947657D01*
X144855588Y-48947657D02*
X144807969Y-49042895D01*
X144807969Y-49042895D02*
X144760350Y-49233371D01*
X144760350Y-49233371D02*
X144760350Y-49471466D01*
X144760350Y-49471466D02*
X144807969Y-49661942D01*
X144807969Y-49661942D02*
X144855588Y-49757180D01*
X144855588Y-49757180D02*
X144903207Y-49804800D01*
X144903207Y-49804800D02*
X144998445Y-49852419D01*
X144998445Y-49852419D02*
X145093683Y-49852419D01*
X145093683Y-49852419D02*
X145188921Y-49804800D01*
X145188921Y-49804800D02*
X145236540Y-49757180D01*
X145236540Y-49757180D02*
X145284159Y-49661942D01*
X145284159Y-49661942D02*
X145331778Y-49471466D01*
X145331778Y-49471466D02*
X145331778Y-49233371D01*
X145331778Y-49233371D02*
X145284159Y-49042895D01*
X145284159Y-49042895D02*
X145236540Y-48947657D01*
X145236540Y-48947657D02*
X145188921Y-48900038D01*
X145188921Y-48900038D02*
X145093683Y-48852419D01*
D11*
X104236904Y-110279438D02*
X104332142Y-110231819D01*
X104332142Y-110231819D02*
X104474999Y-110231819D01*
X104474999Y-110231819D02*
X104617856Y-110279438D01*
X104617856Y-110279438D02*
X104713094Y-110374676D01*
X104713094Y-110374676D02*
X104760713Y-110469914D01*
X104760713Y-110469914D02*
X104808332Y-110660390D01*
X104808332Y-110660390D02*
X104808332Y-110803247D01*
X104808332Y-110803247D02*
X104760713Y-110993723D01*
X104760713Y-110993723D02*
X104713094Y-111088961D01*
X104713094Y-111088961D02*
X104617856Y-111184200D01*
X104617856Y-111184200D02*
X104474999Y-111231819D01*
X104474999Y-111231819D02*
X104379761Y-111231819D01*
X104379761Y-111231819D02*
X104236904Y-111184200D01*
X104236904Y-111184200D02*
X104189285Y-111136580D01*
X104189285Y-111136580D02*
X104189285Y-110803247D01*
X104189285Y-110803247D02*
X104379761Y-110803247D01*
X103760713Y-111231819D02*
X103760713Y-110231819D01*
X103760713Y-110231819D02*
X103189285Y-111231819D01*
X103189285Y-111231819D02*
X103189285Y-110231819D01*
X102713094Y-111231819D02*
X102713094Y-110231819D01*
X102713094Y-110231819D02*
X102474999Y-110231819D01*
X102474999Y-110231819D02*
X102332142Y-110279438D01*
X102332142Y-110279438D02*
X102236904Y-110374676D01*
X102236904Y-110374676D02*
X102189285Y-110469914D01*
X102189285Y-110469914D02*
X102141666Y-110660390D01*
X102141666Y-110660390D02*
X102141666Y-110803247D01*
X102141666Y-110803247D02*
X102189285Y-110993723D01*
X102189285Y-110993723D02*
X102236904Y-111088961D01*
X102236904Y-111088961D02*
X102332142Y-111184200D01*
X102332142Y-111184200D02*
X102474999Y-111231819D01*
X102474999Y-111231819D02*
X102713094Y-111231819D01*
X111796666Y-47169580D02*
X111844285Y-47217200D01*
X111844285Y-47217200D02*
X111987142Y-47264819D01*
X111987142Y-47264819D02*
X112082380Y-47264819D01*
X112082380Y-47264819D02*
X112225237Y-47217200D01*
X112225237Y-47217200D02*
X112320475Y-47121961D01*
X112320475Y-47121961D02*
X112368094Y-47026723D01*
X112368094Y-47026723D02*
X112415713Y-46836247D01*
X112415713Y-46836247D02*
X112415713Y-46693390D01*
X112415713Y-46693390D02*
X112368094Y-46502914D01*
X112368094Y-46502914D02*
X112320475Y-46407676D01*
X112320475Y-46407676D02*
X112225237Y-46312438D01*
X112225237Y-46312438D02*
X112082380Y-46264819D01*
X112082380Y-46264819D02*
X111987142Y-46264819D01*
X111987142Y-46264819D02*
X111844285Y-46312438D01*
X111844285Y-46312438D02*
X111796666Y-46360057D01*
X111463332Y-46264819D02*
X110844285Y-46264819D01*
X110844285Y-46264819D02*
X111177618Y-46645771D01*
X111177618Y-46645771D02*
X111034761Y-46645771D01*
X111034761Y-46645771D02*
X110939523Y-46693390D01*
X110939523Y-46693390D02*
X110891904Y-46741009D01*
X110891904Y-46741009D02*
X110844285Y-46836247D01*
X110844285Y-46836247D02*
X110844285Y-47074342D01*
X110844285Y-47074342D02*
X110891904Y-47169580D01*
X110891904Y-47169580D02*
X110939523Y-47217200D01*
X110939523Y-47217200D02*
X111034761Y-47264819D01*
X111034761Y-47264819D02*
X111320475Y-47264819D01*
X111320475Y-47264819D02*
X111415713Y-47217200D01*
X111415713Y-47217200D02*
X111463332Y-47169580D01*
X78201009Y-84284285D02*
X78248628Y-84427142D01*
X78248628Y-84427142D02*
X78296247Y-84474761D01*
X78296247Y-84474761D02*
X78391485Y-84522380D01*
X78391485Y-84522380D02*
X78534342Y-84522380D01*
X78534342Y-84522380D02*
X78629580Y-84474761D01*
X78629580Y-84474761D02*
X78677200Y-84427142D01*
X78677200Y-84427142D02*
X78724819Y-84331904D01*
X78724819Y-84331904D02*
X78724819Y-83950952D01*
X78724819Y-83950952D02*
X77724819Y-83950952D01*
X77724819Y-83950952D02*
X77724819Y-84284285D01*
X77724819Y-84284285D02*
X77772438Y-84379523D01*
X77772438Y-84379523D02*
X77820057Y-84427142D01*
X77820057Y-84427142D02*
X77915295Y-84474761D01*
X77915295Y-84474761D02*
X78010533Y-84474761D01*
X78010533Y-84474761D02*
X78105771Y-84427142D01*
X78105771Y-84427142D02*
X78153390Y-84379523D01*
X78153390Y-84379523D02*
X78201009Y-84284285D01*
X78201009Y-84284285D02*
X78201009Y-83950952D01*
X77724819Y-84808095D02*
X77724819Y-85379523D01*
X78724819Y-85093809D02*
X77724819Y-85093809D01*
X78724819Y-86236666D02*
X78724819Y-85665238D01*
X78724819Y-85950952D02*
X77724819Y-85950952D01*
X77724819Y-85950952D02*
X77867676Y-85855714D01*
X77867676Y-85855714D02*
X77962914Y-85760476D01*
X77962914Y-85760476D02*
X78010533Y-85665238D01*
X89494775Y-56576713D02*
X89494775Y-55125285D01*
X90220489Y-55850999D02*
X88769060Y-55850999D01*
X89433175Y-114970913D02*
X89433175Y-113519485D01*
X135023332Y-46617200D02*
X134880475Y-46664819D01*
X134880475Y-46664819D02*
X134642380Y-46664819D01*
X134642380Y-46664819D02*
X134547142Y-46617200D01*
X134547142Y-46617200D02*
X134499523Y-46569580D01*
X134499523Y-46569580D02*
X134451904Y-46474342D01*
X134451904Y-46474342D02*
X134451904Y-46379104D01*
X134451904Y-46379104D02*
X134499523Y-46283866D01*
X134499523Y-46283866D02*
X134547142Y-46236247D01*
X134547142Y-46236247D02*
X134642380Y-46188628D01*
X134642380Y-46188628D02*
X134832856Y-46141009D01*
X134832856Y-46141009D02*
X134928094Y-46093390D01*
X134928094Y-46093390D02*
X134975713Y-46045771D01*
X134975713Y-46045771D02*
X135023332Y-45950533D01*
X135023332Y-45950533D02*
X135023332Y-45855295D01*
X135023332Y-45855295D02*
X134975713Y-45760057D01*
X134975713Y-45760057D02*
X134928094Y-45712438D01*
X134928094Y-45712438D02*
X134832856Y-45664819D01*
X134832856Y-45664819D02*
X134594761Y-45664819D01*
X134594761Y-45664819D02*
X134451904Y-45712438D01*
X134118570Y-45664819D02*
X133880475Y-46664819D01*
X133880475Y-46664819D02*
X133689999Y-45950533D01*
X133689999Y-45950533D02*
X133499523Y-46664819D01*
X133499523Y-46664819D02*
X133261428Y-45664819D01*
X132356666Y-46664819D02*
X132928094Y-46664819D01*
X132642380Y-46664819D02*
X132642380Y-45664819D01*
X132642380Y-45664819D02*
X132737618Y-45807676D01*
X132737618Y-45807676D02*
X132832856Y-45902914D01*
X132832856Y-45902914D02*
X132928094Y-45950533D01*
X107071904Y-122284819D02*
X107071904Y-123094342D01*
X107071904Y-123094342D02*
X107024285Y-123189580D01*
X107024285Y-123189580D02*
X106976666Y-123237200D01*
X106976666Y-123237200D02*
X106881428Y-123284819D01*
X106881428Y-123284819D02*
X106690952Y-123284819D01*
X106690952Y-123284819D02*
X106595714Y-123237200D01*
X106595714Y-123237200D02*
X106548095Y-123189580D01*
X106548095Y-123189580D02*
X106500476Y-123094342D01*
X106500476Y-123094342D02*
X106500476Y-122284819D01*
X106119523Y-122284819D02*
X105452857Y-122284819D01*
X105452857Y-122284819D02*
X105881428Y-123284819D01*
D10*
X118913884Y-122058580D02*
X118913884Y-121249057D01*
X118913884Y-121249057D02*
X118961503Y-121153819D01*
X118961503Y-121153819D02*
X119009122Y-121106200D01*
X119009122Y-121106200D02*
X119104360Y-121058580D01*
X119104360Y-121058580D02*
X119294836Y-121058580D01*
X119294836Y-121058580D02*
X119390074Y-121106200D01*
X119390074Y-121106200D02*
X119437693Y-121153819D01*
X119437693Y-121153819D02*
X119485312Y-121249057D01*
X119485312Y-121249057D02*
X119485312Y-122058580D01*
X119913884Y-121106200D02*
X120056741Y-121058580D01*
X120056741Y-121058580D02*
X120294836Y-121058580D01*
X120294836Y-121058580D02*
X120390074Y-121106200D01*
X120390074Y-121106200D02*
X120437693Y-121153819D01*
X120437693Y-121153819D02*
X120485312Y-121249057D01*
X120485312Y-121249057D02*
X120485312Y-121344295D01*
X120485312Y-121344295D02*
X120437693Y-121439533D01*
X120437693Y-121439533D02*
X120390074Y-121487152D01*
X120390074Y-121487152D02*
X120294836Y-121534771D01*
X120294836Y-121534771D02*
X120104360Y-121582390D01*
X120104360Y-121582390D02*
X120009122Y-121630009D01*
X120009122Y-121630009D02*
X119961503Y-121677628D01*
X119961503Y-121677628D02*
X119913884Y-121772866D01*
X119913884Y-121772866D02*
X119913884Y-121868104D01*
X119913884Y-121868104D02*
X119961503Y-121963342D01*
X119961503Y-121963342D02*
X120009122Y-122010961D01*
X120009122Y-122010961D02*
X120104360Y-122058580D01*
X120104360Y-122058580D02*
X120342455Y-122058580D01*
X120342455Y-122058580D02*
X120485312Y-122010961D01*
X121247217Y-121582390D02*
X121390074Y-121534771D01*
X121390074Y-121534771D02*
X121437693Y-121487152D01*
X121437693Y-121487152D02*
X121485312Y-121391914D01*
X121485312Y-121391914D02*
X121485312Y-121249057D01*
X121485312Y-121249057D02*
X121437693Y-121153819D01*
X121437693Y-121153819D02*
X121390074Y-121106200D01*
X121390074Y-121106200D02*
X121294836Y-121058580D01*
X121294836Y-121058580D02*
X120913884Y-121058580D01*
X120913884Y-121058580D02*
X120913884Y-122058580D01*
X120913884Y-122058580D02*
X121247217Y-122058580D01*
X121247217Y-122058580D02*
X121342455Y-122010961D01*
X121342455Y-122010961D02*
X121390074Y-121963342D01*
X121390074Y-121963342D02*
X121437693Y-121868104D01*
X121437693Y-121868104D02*
X121437693Y-121772866D01*
X121437693Y-121772866D02*
X121390074Y-121677628D01*
X121390074Y-121677628D02*
X121342455Y-121630009D01*
X121342455Y-121630009D02*
X121247217Y-121582390D01*
X121247217Y-121582390D02*
X120913884Y-121582390D01*
X122675789Y-121725247D02*
X122675789Y-120725247D01*
X122675789Y-121677628D02*
X122771027Y-121725247D01*
X122771027Y-121725247D02*
X122961503Y-121725247D01*
X122961503Y-121725247D02*
X123056741Y-121677628D01*
X123056741Y-121677628D02*
X123104360Y-121630009D01*
X123104360Y-121630009D02*
X123151979Y-121534771D01*
X123151979Y-121534771D02*
X123151979Y-121249057D01*
X123151979Y-121249057D02*
X123104360Y-121153819D01*
X123104360Y-121153819D02*
X123056741Y-121106200D01*
X123056741Y-121106200D02*
X122961503Y-121058580D01*
X122961503Y-121058580D02*
X122771027Y-121058580D01*
X122771027Y-121058580D02*
X122675789Y-121106200D01*
X123723408Y-121058580D02*
X123628170Y-121106200D01*
X123628170Y-121106200D02*
X123580551Y-121153819D01*
X123580551Y-121153819D02*
X123532932Y-121249057D01*
X123532932Y-121249057D02*
X123532932Y-121534771D01*
X123532932Y-121534771D02*
X123580551Y-121630009D01*
X123580551Y-121630009D02*
X123628170Y-121677628D01*
X123628170Y-121677628D02*
X123723408Y-121725247D01*
X123723408Y-121725247D02*
X123866265Y-121725247D01*
X123866265Y-121725247D02*
X123961503Y-121677628D01*
X123961503Y-121677628D02*
X124009122Y-121630009D01*
X124009122Y-121630009D02*
X124056741Y-121534771D01*
X124056741Y-121534771D02*
X124056741Y-121249057D01*
X124056741Y-121249057D02*
X124009122Y-121153819D01*
X124009122Y-121153819D02*
X123961503Y-121106200D01*
X123961503Y-121106200D02*
X123866265Y-121058580D01*
X123866265Y-121058580D02*
X123723408Y-121058580D01*
X124485313Y-121058580D02*
X124485313Y-121725247D01*
X124485313Y-121534771D02*
X124532932Y-121630009D01*
X124532932Y-121630009D02*
X124580551Y-121677628D01*
X124580551Y-121677628D02*
X124675789Y-121725247D01*
X124675789Y-121725247D02*
X124771027Y-121725247D01*
X124961504Y-121725247D02*
X125342456Y-121725247D01*
X125104361Y-122058580D02*
X125104361Y-121201438D01*
X125104361Y-121201438D02*
X125151980Y-121106200D01*
X125151980Y-121106200D02*
X125247218Y-121058580D01*
X125247218Y-121058580D02*
X125342456Y-121058580D01*
X156361904Y-116997419D02*
X156361904Y-117806942D01*
X156361904Y-117806942D02*
X156314285Y-117902180D01*
X156314285Y-117902180D02*
X156266666Y-117949800D01*
X156266666Y-117949800D02*
X156171428Y-117997419D01*
X156171428Y-117997419D02*
X155980952Y-117997419D01*
X155980952Y-117997419D02*
X155885714Y-117949800D01*
X155885714Y-117949800D02*
X155838095Y-117902180D01*
X155838095Y-117902180D02*
X155790476Y-117806942D01*
X155790476Y-117806942D02*
X155790476Y-116997419D01*
X154885714Y-116997419D02*
X155076190Y-116997419D01*
X155076190Y-116997419D02*
X155171428Y-117045038D01*
X155171428Y-117045038D02*
X155219047Y-117092657D01*
X155219047Y-117092657D02*
X155314285Y-117235514D01*
X155314285Y-117235514D02*
X155361904Y-117425990D01*
X155361904Y-117425990D02*
X155361904Y-117806942D01*
X155361904Y-117806942D02*
X155314285Y-117902180D01*
X155314285Y-117902180D02*
X155266666Y-117949800D01*
X155266666Y-117949800D02*
X155171428Y-117997419D01*
X155171428Y-117997419D02*
X154980952Y-117997419D01*
X154980952Y-117997419D02*
X154885714Y-117949800D01*
X154885714Y-117949800D02*
X154838095Y-117902180D01*
X154838095Y-117902180D02*
X154790476Y-117806942D01*
X154790476Y-117806942D02*
X154790476Y-117568847D01*
X154790476Y-117568847D02*
X154838095Y-117473609D01*
X154838095Y-117473609D02*
X154885714Y-117425990D01*
X154885714Y-117425990D02*
X154980952Y-117378371D01*
X154980952Y-117378371D02*
X155171428Y-117378371D01*
X155171428Y-117378371D02*
X155266666Y-117425990D01*
X155266666Y-117425990D02*
X155314285Y-117473609D01*
X155314285Y-117473609D02*
X155361904Y-117568847D01*
X167194904Y-69756419D02*
X167194904Y-70565942D01*
X167194904Y-70565942D02*
X167147285Y-70661180D01*
X167147285Y-70661180D02*
X167099666Y-70708800D01*
X167099666Y-70708800D02*
X167004428Y-70756419D01*
X167004428Y-70756419D02*
X166813952Y-70756419D01*
X166813952Y-70756419D02*
X166718714Y-70708800D01*
X166718714Y-70708800D02*
X166671095Y-70661180D01*
X166671095Y-70661180D02*
X166623476Y-70565942D01*
X166623476Y-70565942D02*
X166623476Y-69756419D01*
X166194904Y-69851657D02*
X166147285Y-69804038D01*
X166147285Y-69804038D02*
X166052047Y-69756419D01*
X166052047Y-69756419D02*
X165813952Y-69756419D01*
X165813952Y-69756419D02*
X165718714Y-69804038D01*
X165718714Y-69804038D02*
X165671095Y-69851657D01*
X165671095Y-69851657D02*
X165623476Y-69946895D01*
X165623476Y-69946895D02*
X165623476Y-70042133D01*
X165623476Y-70042133D02*
X165671095Y-70184990D01*
X165671095Y-70184990D02*
X166242523Y-70756419D01*
X166242523Y-70756419D02*
X165623476Y-70756419D01*
D11*
X105323809Y-92074819D02*
X104990476Y-93074819D01*
X104990476Y-93074819D02*
X104657143Y-92074819D01*
X103990476Y-92551009D02*
X103847619Y-92598628D01*
X103847619Y-92598628D02*
X103800000Y-92646247D01*
X103800000Y-92646247D02*
X103752381Y-92741485D01*
X103752381Y-92741485D02*
X103752381Y-92884342D01*
X103752381Y-92884342D02*
X103800000Y-92979580D01*
X103800000Y-92979580D02*
X103847619Y-93027200D01*
X103847619Y-93027200D02*
X103942857Y-93074819D01*
X103942857Y-93074819D02*
X104323809Y-93074819D01*
X104323809Y-93074819D02*
X104323809Y-92074819D01*
X104323809Y-92074819D02*
X103990476Y-92074819D01*
X103990476Y-92074819D02*
X103895238Y-92122438D01*
X103895238Y-92122438D02*
X103847619Y-92170057D01*
X103847619Y-92170057D02*
X103800000Y-92265295D01*
X103800000Y-92265295D02*
X103800000Y-92360533D01*
X103800000Y-92360533D02*
X103847619Y-92455771D01*
X103847619Y-92455771D02*
X103895238Y-92503390D01*
X103895238Y-92503390D02*
X103990476Y-92551009D01*
X103990476Y-92551009D02*
X104323809Y-92551009D01*
X103371428Y-92789104D02*
X102895238Y-92789104D01*
X103466666Y-93074819D02*
X103133333Y-92074819D01*
X103133333Y-92074819D02*
X102800000Y-93074819D01*
X102609523Y-92074819D02*
X102038095Y-92074819D01*
X102323809Y-93074819D02*
X102323809Y-92074819D01*
X101847618Y-92074819D02*
X101276190Y-92074819D01*
X101561904Y-93074819D02*
X101561904Y-92074819D01*
X123856666Y-46819580D02*
X123904285Y-46867200D01*
X123904285Y-46867200D02*
X124047142Y-46914819D01*
X124047142Y-46914819D02*
X124142380Y-46914819D01*
X124142380Y-46914819D02*
X124285237Y-46867200D01*
X124285237Y-46867200D02*
X124380475Y-46771961D01*
X124380475Y-46771961D02*
X124428094Y-46676723D01*
X124428094Y-46676723D02*
X124475713Y-46486247D01*
X124475713Y-46486247D02*
X124475713Y-46343390D01*
X124475713Y-46343390D02*
X124428094Y-46152914D01*
X124428094Y-46152914D02*
X124380475Y-46057676D01*
X124380475Y-46057676D02*
X124285237Y-45962438D01*
X124285237Y-45962438D02*
X124142380Y-45914819D01*
X124142380Y-45914819D02*
X124047142Y-45914819D01*
X124047142Y-45914819D02*
X123904285Y-45962438D01*
X123904285Y-45962438D02*
X123856666Y-46010057D01*
X123523332Y-45914819D02*
X122856666Y-45914819D01*
X122856666Y-45914819D02*
X123285237Y-46914819D01*
%TO.C,GND*%
X104875000Y-113277000D02*
G75*
G02*
X102075000Y-113277000I-1400000J0D01*
G01*
X102075000Y-113277000D02*
G75*
G02*
X104875000Y-113277000I1400000J0D01*
G01*
D12*
%TO.C,C3*%
X109000000Y-50325113D02*
X110540000Y-50325113D01*
X109000000Y-50365113D02*
X110540000Y-50365113D01*
X109001000Y-50285113D02*
X110540000Y-50285113D01*
X109002000Y-50245113D02*
X110540000Y-50245113D01*
X109004000Y-50205113D02*
X110540000Y-50205113D01*
X109007000Y-50165113D02*
X110540000Y-50165113D01*
X109011000Y-50125113D02*
X110540000Y-50125113D01*
X109015000Y-50085113D02*
X110540000Y-50085113D01*
X109019000Y-50045113D02*
X110540000Y-50045113D01*
X109024000Y-50005113D02*
X110540000Y-50005113D01*
X109030000Y-49965113D02*
X110540000Y-49965113D01*
X109037000Y-49925113D02*
X110540000Y-49925113D01*
X109044000Y-49885113D02*
X110540000Y-49885113D01*
X109052000Y-49845113D02*
X110540000Y-49845113D01*
X109060000Y-49805113D02*
X110540000Y-49805113D01*
X109069000Y-49765113D02*
X110540000Y-49765113D01*
X109079000Y-49725113D02*
X110540000Y-49725113D01*
X109089000Y-49685113D02*
X110540000Y-49685113D01*
X109100000Y-49644113D02*
X110540000Y-49644113D01*
X109112000Y-49604113D02*
X110540000Y-49604113D01*
X109125000Y-49564113D02*
X110540000Y-49564113D01*
X109138000Y-49524113D02*
X110540000Y-49524113D01*
X109152000Y-49484113D02*
X110540000Y-49484113D01*
X109166000Y-49444113D02*
X110540000Y-49444113D01*
X109182000Y-49404113D02*
X110540000Y-49404113D01*
X109198000Y-49364113D02*
X110540000Y-49364113D01*
X109215000Y-49324113D02*
X110540000Y-49324113D01*
X109232000Y-49284113D02*
X110540000Y-49284113D01*
X109251000Y-49244113D02*
X110540000Y-49244113D01*
X109270000Y-49204113D02*
X110540000Y-49204113D01*
X109290000Y-49164113D02*
X110540000Y-49164113D01*
X109312000Y-49124113D02*
X110540000Y-49124113D01*
X109333000Y-49084113D02*
X110540000Y-49084113D01*
X109356000Y-49044113D02*
X110540000Y-49044113D01*
X109380000Y-49004113D02*
X110540000Y-49004113D01*
X109405000Y-48964113D02*
X110540000Y-48964113D01*
X109431000Y-48924113D02*
X110540000Y-48924113D01*
X109458000Y-48884113D02*
X110540000Y-48884113D01*
X109485000Y-48844113D02*
X110540000Y-48844113D01*
X109515000Y-48804113D02*
X110540000Y-48804113D01*
X109545000Y-48764113D02*
X110540000Y-48764113D01*
X109576000Y-48724113D02*
X110540000Y-48724113D01*
X109609000Y-48684113D02*
X110540000Y-48684113D01*
X109643000Y-48644113D02*
X110540000Y-48644113D01*
X109679000Y-48604113D02*
X110540000Y-48604113D01*
X109716000Y-48564113D02*
X110540000Y-48564113D01*
X109754000Y-48524113D02*
X110540000Y-48524113D01*
X109795000Y-48484113D02*
X110540000Y-48484113D01*
X109837000Y-48444113D02*
X110540000Y-48444113D01*
X109881000Y-48404113D02*
X110540000Y-48404113D01*
X109927000Y-48364113D02*
X110540000Y-48364113D01*
X109975000Y-48324113D02*
X113185000Y-48324113D01*
X110026000Y-48284113D02*
X113134000Y-48284113D01*
X110080000Y-48244113D02*
X113080000Y-48244113D01*
X110137000Y-48204113D02*
X113023000Y-48204113D01*
X110197000Y-48164113D02*
X112963000Y-48164113D01*
X110261000Y-48124113D02*
X112899000Y-48124113D01*
X110329000Y-48084113D02*
X112831000Y-48084113D01*
X110402000Y-48044113D02*
X112758000Y-48044113D01*
X110482000Y-48004113D02*
X112678000Y-48004113D01*
X110569000Y-47964113D02*
X112591000Y-47964113D01*
X110665000Y-47924113D02*
X112495000Y-47924113D01*
X110775000Y-47884113D02*
X112385000Y-47884113D01*
X110903000Y-47844113D02*
X112257000Y-47844113D01*
X111062000Y-47804113D02*
X112098000Y-47804113D01*
X111296000Y-47764113D02*
X111864000Y-47764113D01*
X112620000Y-48364113D02*
X113233000Y-48364113D01*
X112620000Y-48404113D02*
X113279000Y-48404113D01*
X112620000Y-48444113D02*
X113323000Y-48444113D01*
X112620000Y-48484113D02*
X113365000Y-48484113D01*
X112620000Y-48524113D02*
X113406000Y-48524113D01*
X112620000Y-48564113D02*
X113444000Y-48564113D01*
X112620000Y-48604113D02*
X113481000Y-48604113D01*
X112620000Y-48644113D02*
X113517000Y-48644113D01*
X112620000Y-48684113D02*
X113551000Y-48684113D01*
X112620000Y-48724113D02*
X113584000Y-48724113D01*
X112620000Y-48764113D02*
X113615000Y-48764113D01*
X112620000Y-48804113D02*
X113645000Y-48804113D01*
X112620000Y-48844113D02*
X113675000Y-48844113D01*
X112620000Y-48884113D02*
X113702000Y-48884113D01*
X112620000Y-48924113D02*
X113729000Y-48924113D01*
X112620000Y-48964113D02*
X113755000Y-48964113D01*
X112620000Y-49004113D02*
X113780000Y-49004113D01*
X112620000Y-49044113D02*
X113804000Y-49044113D01*
X112620000Y-49084113D02*
X113827000Y-49084113D01*
X112620000Y-49124113D02*
X113848000Y-49124113D01*
X112620000Y-49164113D02*
X113870000Y-49164113D01*
X112620000Y-49204113D02*
X113890000Y-49204113D01*
X112620000Y-49244113D02*
X113909000Y-49244113D01*
X112620000Y-49284113D02*
X113928000Y-49284113D01*
X112620000Y-49324113D02*
X113945000Y-49324113D01*
X112620000Y-49364113D02*
X113962000Y-49364113D01*
X112620000Y-49404113D02*
X113978000Y-49404113D01*
X112620000Y-49444113D02*
X113994000Y-49444113D01*
X112620000Y-49484113D02*
X114008000Y-49484113D01*
X112620000Y-49524113D02*
X114022000Y-49524113D01*
X112620000Y-49564113D02*
X114035000Y-49564113D01*
X112620000Y-49604113D02*
X114048000Y-49604113D01*
X112620000Y-49644113D02*
X114060000Y-49644113D01*
X112620000Y-49685113D02*
X114071000Y-49685113D01*
X112620000Y-49725113D02*
X114081000Y-49725113D01*
X112620000Y-49765113D02*
X114091000Y-49765113D01*
X112620000Y-49805113D02*
X114100000Y-49805113D01*
X112620000Y-49845113D02*
X114108000Y-49845113D01*
X112620000Y-49885113D02*
X114116000Y-49885113D01*
X112620000Y-49925113D02*
X114123000Y-49925113D01*
X112620000Y-49965113D02*
X114130000Y-49965113D01*
X112620000Y-50005113D02*
X114136000Y-50005113D01*
X112620000Y-50045113D02*
X114141000Y-50045113D01*
X112620000Y-50085113D02*
X114145000Y-50085113D01*
X112620000Y-50125113D02*
X114149000Y-50125113D01*
X112620000Y-50165113D02*
X114153000Y-50165113D01*
X112620000Y-50205113D02*
X114156000Y-50205113D01*
X112620000Y-50245113D02*
X114158000Y-50245113D01*
X112620000Y-50285113D02*
X114159000Y-50285113D01*
X112620000Y-50325113D02*
X114160000Y-50325113D01*
X112620000Y-50365113D02*
X114160000Y-50365113D01*
X112805000Y-52919888D02*
X113305000Y-52919888D01*
X113055000Y-52669888D02*
X113055000Y-53169888D01*
X114200000Y-50365113D02*
G75*
G02*
X108960000Y-50365113I-2620000J0D01*
G01*
X108960000Y-50365113D02*
G75*
G02*
X114200000Y-50365113I2620000J0D01*
G01*
%TO.C,BT1*%
D10*
X79187000Y-46961000D02*
X100777000Y-46961000D01*
X100777000Y-123161000D01*
X79187000Y-123161000D01*
X79187000Y-46961000D01*
%TO.C,SW1*%
X131105000Y-54295000D02*
X135855000Y-54295000D01*
X135855000Y-47045000D01*
X131105000Y-47045000D01*
X131105000Y-54295000D01*
%TO.C,U7*%
X107690000Y-123866000D02*
X136690000Y-123866000D01*
X136690000Y-71866000D01*
X107690000Y-71866000D01*
X107690000Y-123866000D01*
X118610000Y-123766000D02*
X125610000Y-123766000D01*
X125610000Y-119266000D01*
X118610000Y-119266000D01*
X118610000Y-123766000D01*
D13*
%TO.C,G\u002A\u002A\u002A*%
G36*
X170367242Y-46594650D02*
G01*
X170456254Y-46605089D01*
X170543175Y-46625293D01*
X170626765Y-46655164D01*
X170705784Y-46694604D01*
X170778991Y-46743513D01*
X170845146Y-46801793D01*
X170903010Y-46869346D01*
X170910648Y-46880143D01*
X170925228Y-46902610D01*
X170939710Y-46926772D01*
X170952291Y-46949450D01*
X170961163Y-46967465D01*
X170964521Y-46977639D01*
X170959155Y-46979352D01*
X170943875Y-46980664D01*
X170922158Y-46981166D01*
X170879795Y-46981166D01*
X170860125Y-46946440D01*
X170845858Y-46923091D01*
X170799835Y-46864159D01*
X170743379Y-46810785D01*
X170678036Y-46763982D01*
X170605349Y-46724766D01*
X170526865Y-46694152D01*
X170444128Y-46673155D01*
X170406919Y-46668021D01*
X170353780Y-46664832D01*
X170296293Y-46664904D01*
X170238786Y-46668094D01*
X170185581Y-46674257D01*
X170141006Y-46683250D01*
X170095548Y-46697946D01*
X170040367Y-46721121D01*
X169985328Y-46749119D01*
X169934753Y-46779723D01*
X169892959Y-46810712D01*
X169884484Y-46818100D01*
X169855397Y-46846243D01*
X169826614Y-46877770D01*
X169800595Y-46909714D01*
X169779802Y-46939105D01*
X169766695Y-46962976D01*
X169765163Y-46966510D01*
X169760086Y-46974678D01*
X169752059Y-46979063D01*
X169737656Y-46980835D01*
X169713451Y-46981166D01*
X169667840Y-46981166D01*
X169685409Y-46946496D01*
X169686116Y-46945110D01*
X169710295Y-46904233D01*
X169741581Y-46860434D01*
X169776443Y-46818312D01*
X169811352Y-46782463D01*
X169858704Y-46742628D01*
X169934220Y-46692399D01*
X170015085Y-46652528D01*
X170100060Y-46622916D01*
X170187905Y-46603465D01*
X170277379Y-46594076D01*
X170367242Y-46594650D01*
G37*
G36*
X172649273Y-46594650D02*
G01*
X172738285Y-46605089D01*
X172825206Y-46625293D01*
X172908796Y-46655164D01*
X172987815Y-46694604D01*
X173061022Y-46743513D01*
X173127178Y-46801793D01*
X173185041Y-46869346D01*
X173192679Y-46880143D01*
X173207259Y-46902610D01*
X173221742Y-46926772D01*
X173234322Y-46949450D01*
X173243194Y-46967465D01*
X173246553Y-46977639D01*
X173241186Y-46979352D01*
X173225906Y-46980664D01*
X173204189Y-46981166D01*
X173161826Y-46981166D01*
X173142156Y-46946440D01*
X173127889Y-46923091D01*
X173081866Y-46864159D01*
X173025411Y-46810785D01*
X172960067Y-46763982D01*
X172887381Y-46724766D01*
X172808896Y-46694152D01*
X172726160Y-46673155D01*
X172688950Y-46668021D01*
X172635811Y-46664832D01*
X172578325Y-46664904D01*
X172520817Y-46668094D01*
X172467613Y-46674257D01*
X172423037Y-46683250D01*
X172377579Y-46697946D01*
X172322398Y-46721121D01*
X172267360Y-46749119D01*
X172216784Y-46779723D01*
X172174990Y-46810712D01*
X172166515Y-46818100D01*
X172137429Y-46846243D01*
X172108645Y-46877770D01*
X172082627Y-46909714D01*
X172061833Y-46939105D01*
X172048726Y-46962976D01*
X172047194Y-46966510D01*
X172042118Y-46974678D01*
X172034090Y-46979063D01*
X172019687Y-46980835D01*
X171995482Y-46981166D01*
X171949871Y-46981166D01*
X171967440Y-46946496D01*
X171968147Y-46945110D01*
X171992326Y-46904233D01*
X172023612Y-46860434D01*
X172058474Y-46818312D01*
X172093383Y-46782463D01*
X172140735Y-46742628D01*
X172216251Y-46692399D01*
X172297116Y-46652528D01*
X172382092Y-46622916D01*
X172469936Y-46603465D01*
X172559410Y-46594076D01*
X172649273Y-46594650D01*
G37*
G36*
X170904227Y-47510366D02*
G01*
X170901969Y-47561354D01*
X170896098Y-47604312D01*
X170874014Y-47683749D01*
X170839265Y-47763467D01*
X170793960Y-47836458D01*
X170738972Y-47901830D01*
X170675176Y-47958693D01*
X170603445Y-48006157D01*
X170524655Y-48043330D01*
X170439679Y-48069322D01*
X170419780Y-48072817D01*
X170379899Y-48076313D01*
X170333382Y-48077377D01*
X170284119Y-48076138D01*
X170235997Y-48072727D01*
X170192903Y-48067274D01*
X170158726Y-48059910D01*
X170103356Y-48040662D01*
X170025389Y-48001918D01*
X169952718Y-47951236D01*
X169885825Y-47888917D01*
X169846871Y-47842822D01*
X169800866Y-47771955D01*
X169766203Y-47696279D01*
X169742951Y-47617076D01*
X169731176Y-47535632D01*
X169730944Y-47453231D01*
X169742324Y-47371156D01*
X169765381Y-47290691D01*
X169766330Y-47288575D01*
X169840042Y-47288575D01*
X169841221Y-47288921D01*
X169850106Y-47284961D01*
X169864847Y-47276081D01*
X169908315Y-47254203D01*
X169958140Y-47241964D01*
X170009262Y-47240905D01*
X170059802Y-47250458D01*
X170107882Y-47270051D01*
X170151622Y-47299117D01*
X170189143Y-47337083D01*
X170218568Y-47383381D01*
X170226481Y-47399991D01*
X170233889Y-47418880D01*
X170238028Y-47437194D01*
X170239830Y-47459531D01*
X170240224Y-47490489D01*
X170240048Y-47513520D01*
X170238747Y-47537927D01*
X170235384Y-47556944D01*
X170229038Y-47575159D01*
X170218785Y-47597156D01*
X170214043Y-47606283D01*
X170181838Y-47652428D01*
X170140448Y-47691574D01*
X170092839Y-47720809D01*
X170086234Y-47723840D01*
X170066745Y-47731461D01*
X170047579Y-47735921D01*
X170024227Y-47738015D01*
X169992178Y-47738536D01*
X169982444Y-47738525D01*
X169958521Y-47738082D01*
X169939429Y-47736295D01*
X169921846Y-47732226D01*
X169902452Y-47724936D01*
X169877927Y-47713488D01*
X169844951Y-47696943D01*
X169842348Y-47698085D01*
X169845120Y-47708035D01*
X169853399Y-47725487D01*
X169866245Y-47748499D01*
X169882719Y-47775126D01*
X169895576Y-47794025D01*
X169947236Y-47855363D01*
X170007752Y-47907988D01*
X170075501Y-47950824D01*
X170148861Y-47982795D01*
X170226208Y-48002826D01*
X170260161Y-48007678D01*
X170343023Y-48010598D01*
X170423453Y-48000844D01*
X170500472Y-47978748D01*
X170573101Y-47944641D01*
X170640360Y-47898856D01*
X170701270Y-47841724D01*
X170741321Y-47791890D01*
X170782167Y-47723610D01*
X170812603Y-47650065D01*
X170831721Y-47573540D01*
X170838613Y-47496317D01*
X170838461Y-47481234D01*
X170830069Y-47403226D01*
X170809596Y-47326395D01*
X170777942Y-47252910D01*
X170736005Y-47184943D01*
X170684684Y-47124662D01*
X170622970Y-47071607D01*
X170554356Y-47029395D01*
X170480069Y-46999074D01*
X170400414Y-46980767D01*
X170315697Y-46974598D01*
X170310627Y-46974618D01*
X170228594Y-46981673D01*
X170150249Y-47001003D01*
X170076717Y-47032031D01*
X170009126Y-47074179D01*
X169948602Y-47126869D01*
X169896273Y-47189526D01*
X169881092Y-47212037D01*
X169865748Y-47236811D01*
X169852630Y-47259874D01*
X169843480Y-47278152D01*
X169840042Y-47288575D01*
X169766330Y-47288575D01*
X169800182Y-47213121D01*
X169846795Y-47139730D01*
X169888924Y-47089294D01*
X169951098Y-47032125D01*
X170020331Y-46984893D01*
X170095236Y-46948031D01*
X170174424Y-46921969D01*
X170256510Y-46907141D01*
X170340105Y-46903978D01*
X170423824Y-46912912D01*
X170506278Y-46934375D01*
X170559867Y-46955894D01*
X170634473Y-46997274D01*
X170702591Y-47048957D01*
X170762993Y-47109653D01*
X170814452Y-47178072D01*
X170855741Y-47252926D01*
X170885631Y-47332923D01*
X170891097Y-47355205D01*
X170898614Y-47402693D01*
X170903050Y-47455946D01*
X170903923Y-47496317D01*
X170904227Y-47510366D01*
G37*
G36*
X173186259Y-47470678D02*
G01*
X173184000Y-47521666D01*
X173178129Y-47564625D01*
X173156045Y-47644062D01*
X173121297Y-47723780D01*
X173075991Y-47796770D01*
X173021003Y-47862143D01*
X172957207Y-47919006D01*
X172885476Y-47966469D01*
X172806686Y-48003643D01*
X172721710Y-48029635D01*
X172701811Y-48033129D01*
X172661930Y-48036626D01*
X172615414Y-48037689D01*
X172566150Y-48036451D01*
X172518028Y-48033040D01*
X172474935Y-48027587D01*
X172440757Y-48020222D01*
X172385388Y-48000974D01*
X172307420Y-47962231D01*
X172234749Y-47911549D01*
X172167856Y-47849230D01*
X172128902Y-47803134D01*
X172082897Y-47732268D01*
X172048235Y-47656591D01*
X172024982Y-47577389D01*
X172013207Y-47495945D01*
X172012976Y-47413543D01*
X172024355Y-47331468D01*
X172047412Y-47251003D01*
X172048361Y-47248887D01*
X172122073Y-47248887D01*
X172123252Y-47249233D01*
X172132138Y-47245274D01*
X172146878Y-47236394D01*
X172190346Y-47214516D01*
X172240171Y-47202276D01*
X172291294Y-47201218D01*
X172341834Y-47210770D01*
X172389913Y-47230364D01*
X172433653Y-47259429D01*
X172471174Y-47297396D01*
X172500599Y-47343694D01*
X172508513Y-47360303D01*
X172515920Y-47379192D01*
X172520060Y-47397506D01*
X172521862Y-47419843D01*
X172522256Y-47450802D01*
X172522079Y-47473833D01*
X172520779Y-47498239D01*
X172517416Y-47517257D01*
X172511069Y-47535471D01*
X172500816Y-47557469D01*
X172496075Y-47566595D01*
X172463869Y-47612741D01*
X172422479Y-47651887D01*
X172374870Y-47681121D01*
X172368266Y-47684152D01*
X172348776Y-47691773D01*
X172329610Y-47696233D01*
X172306258Y-47698327D01*
X172274209Y-47698849D01*
X172264476Y-47698838D01*
X172240552Y-47698395D01*
X172221460Y-47696608D01*
X172203877Y-47692538D01*
X172184484Y-47685249D01*
X172159959Y-47673801D01*
X172126982Y-47657256D01*
X172124379Y-47658398D01*
X172127151Y-47668347D01*
X172135430Y-47685800D01*
X172148276Y-47708812D01*
X172164750Y-47735439D01*
X172177607Y-47754337D01*
X172229267Y-47815675D01*
X172289783Y-47868300D01*
X172357532Y-47911136D01*
X172430892Y-47943108D01*
X172508239Y-47963139D01*
X172542192Y-47967990D01*
X172625054Y-47970911D01*
X172705484Y-47961157D01*
X172782503Y-47939061D01*
X172855132Y-47904954D01*
X172922391Y-47859168D01*
X172983301Y-47802037D01*
X173023352Y-47752203D01*
X173064198Y-47683922D01*
X173094634Y-47610378D01*
X173113752Y-47533852D01*
X173120645Y-47456629D01*
X173120492Y-47441547D01*
X173112100Y-47363538D01*
X173091628Y-47286707D01*
X173059974Y-47213223D01*
X173018036Y-47145255D01*
X172966715Y-47084974D01*
X172905001Y-47031919D01*
X172836388Y-46989708D01*
X172762100Y-46959386D01*
X172682445Y-46941079D01*
X172597728Y-46934911D01*
X172592659Y-46934931D01*
X172510625Y-46941986D01*
X172432280Y-46961316D01*
X172358748Y-46992343D01*
X172291157Y-47034491D01*
X172230634Y-47087182D01*
X172178304Y-47149838D01*
X172163123Y-47172349D01*
X172147780Y-47197124D01*
X172134661Y-47220186D01*
X172125511Y-47238465D01*
X172122073Y-47248887D01*
X172048361Y-47248887D01*
X172082213Y-47173433D01*
X172128826Y-47100042D01*
X172170955Y-47049607D01*
X172233130Y-46992438D01*
X172302363Y-46945206D01*
X172377267Y-46908343D01*
X172456455Y-46882282D01*
X172538541Y-46867454D01*
X172622136Y-46864291D01*
X172705855Y-46873224D01*
X172788310Y-46894687D01*
X172841898Y-46916206D01*
X172916504Y-46957587D01*
X172984622Y-47009269D01*
X173045024Y-47069965D01*
X173096483Y-47138385D01*
X173137772Y-47213238D01*
X173167663Y-47293236D01*
X173173129Y-47315518D01*
X173180645Y-47363006D01*
X173185081Y-47416259D01*
X173185955Y-47456629D01*
X173186259Y-47470678D01*
G37*
G36*
X171612750Y-47417338D02*
G01*
X171612750Y-47428164D01*
X171612697Y-47574453D01*
X171612552Y-47708595D01*
X171612314Y-47830491D01*
X171611986Y-47940044D01*
X171611567Y-48037155D01*
X171611059Y-48121725D01*
X171610461Y-48193657D01*
X171609775Y-48252851D01*
X171609001Y-48299210D01*
X171608141Y-48332636D01*
X171607194Y-48353029D01*
X171606162Y-48360291D01*
X171605971Y-48360418D01*
X171601939Y-48369572D01*
X171601201Y-48385342D01*
X171602829Y-48406321D01*
X170940200Y-48647965D01*
X170851411Y-48680364D01*
X170765178Y-48711869D01*
X170683261Y-48741836D01*
X170606472Y-48769966D01*
X170535621Y-48795961D01*
X170471521Y-48819522D01*
X170414983Y-48840350D01*
X170366819Y-48858148D01*
X170327840Y-48872615D01*
X170298857Y-48883454D01*
X170280683Y-48890366D01*
X170274129Y-48893052D01*
X170278042Y-48894863D01*
X170293313Y-48900885D01*
X170319171Y-48910753D01*
X170354608Y-48924098D01*
X170398616Y-48940551D01*
X170450189Y-48959741D01*
X170508319Y-48981298D01*
X170571998Y-49004853D01*
X170640219Y-49030037D01*
X170711974Y-49056478D01*
X170786256Y-49083807D01*
X170862058Y-49111655D01*
X170938371Y-49139652D01*
X171014188Y-49167427D01*
X171088502Y-49194612D01*
X171160306Y-49220835D01*
X171228592Y-49245728D01*
X171292352Y-49268920D01*
X171350578Y-49290042D01*
X171402265Y-49308724D01*
X171446403Y-49324596D01*
X171481985Y-49337288D01*
X171508005Y-49346430D01*
X171523454Y-49351653D01*
X171528251Y-49353256D01*
X171549139Y-49361028D01*
X171571337Y-49370126D01*
X171579644Y-49373599D01*
X171596363Y-49379803D01*
X171606064Y-49382260D01*
X171608566Y-49387071D01*
X171610736Y-49402689D01*
X171612207Y-49426589D01*
X171612998Y-49456150D01*
X171613126Y-49488751D01*
X171612610Y-49521770D01*
X171611470Y-49552586D01*
X171609722Y-49578578D01*
X171607387Y-49597124D01*
X171604482Y-49605604D01*
X171596527Y-49609849D01*
X171578845Y-49616734D01*
X171556527Y-49623940D01*
X171546249Y-49627287D01*
X171524225Y-49634877D01*
X171492148Y-49646150D01*
X171451042Y-49660733D01*
X171401929Y-49678257D01*
X171345831Y-49698350D01*
X171283773Y-49720641D01*
X171216775Y-49744761D01*
X171145862Y-49770337D01*
X171072056Y-49797000D01*
X170996380Y-49824378D01*
X170919856Y-49852100D01*
X170843508Y-49879797D01*
X170768358Y-49907096D01*
X170695429Y-49933627D01*
X170625744Y-49959020D01*
X170560326Y-49982903D01*
X170500196Y-50004905D01*
X170446379Y-50024657D01*
X170399897Y-50041787D01*
X170361773Y-50055924D01*
X170333029Y-50066697D01*
X170314689Y-50073736D01*
X170307775Y-50076670D01*
X170312273Y-50079122D01*
X170328372Y-50085839D01*
X170355367Y-50096482D01*
X170392454Y-50110751D01*
X170438829Y-50128346D01*
X170493688Y-50148964D01*
X170556228Y-50172306D01*
X170625644Y-50198070D01*
X170701134Y-50225956D01*
X170781893Y-50255663D01*
X170867117Y-50286889D01*
X170956004Y-50319335D01*
X171609443Y-50557411D01*
X171611131Y-51166129D01*
X171612819Y-51774846D01*
X172590089Y-52130260D01*
X172651899Y-52152749D01*
X172759317Y-52191879D01*
X172862957Y-52229692D01*
X172962151Y-52265942D01*
X173056234Y-52300384D01*
X173144540Y-52332772D01*
X173226403Y-52362861D01*
X173301158Y-52390405D01*
X173368137Y-52415159D01*
X173426675Y-52436876D01*
X173476106Y-52455312D01*
X173515764Y-52470221D01*
X173544983Y-52481357D01*
X173563097Y-52488475D01*
X173569441Y-52491330D01*
X173569898Y-52492120D01*
X173578681Y-52498096D01*
X173594245Y-52504484D01*
X173597326Y-52505592D01*
X173611293Y-52513470D01*
X173616969Y-52521846D01*
X173615968Y-52533927D01*
X173612760Y-52556081D01*
X173607883Y-52584603D01*
X173601890Y-52616721D01*
X173595335Y-52649660D01*
X173588772Y-52680648D01*
X173582754Y-52706912D01*
X173577835Y-52725678D01*
X173574570Y-52734173D01*
X173570533Y-52736051D01*
X173554912Y-52742116D01*
X173528419Y-52751955D01*
X173491953Y-52765252D01*
X173446409Y-52781692D01*
X173392687Y-52800960D01*
X173331684Y-52822740D01*
X173264297Y-52846718D01*
X173191424Y-52872576D01*
X173113963Y-52900001D01*
X173032811Y-52928677D01*
X172948866Y-52958288D01*
X172863025Y-52988520D01*
X172776187Y-53019056D01*
X172689249Y-53049582D01*
X172603109Y-53079781D01*
X172518664Y-53109340D01*
X172436811Y-53137942D01*
X172358449Y-53165271D01*
X172284476Y-53191014D01*
X172215788Y-53214854D01*
X172153283Y-53236475D01*
X172097860Y-53255564D01*
X172050415Y-53271803D01*
X172011847Y-53284879D01*
X171983053Y-53294475D01*
X171964930Y-53300276D01*
X171958377Y-53301967D01*
X171956366Y-53298534D01*
X171950409Y-53284334D01*
X171941914Y-53261604D01*
X171931657Y-53232677D01*
X171920410Y-53199886D01*
X171908951Y-53165563D01*
X171898052Y-53132041D01*
X171888489Y-53101652D01*
X171881037Y-53076729D01*
X171876470Y-53059605D01*
X171875563Y-53052612D01*
X171877396Y-53051257D01*
X171889427Y-53045339D01*
X171907099Y-53038533D01*
X171936407Y-53028402D01*
X171992652Y-53008890D01*
X172055118Y-52987148D01*
X172122821Y-52963522D01*
X172194775Y-52938360D01*
X172269995Y-52912009D01*
X172347499Y-52884817D01*
X172426300Y-52857131D01*
X172505414Y-52829298D01*
X172583856Y-52801667D01*
X172660643Y-52774583D01*
X172734789Y-52748396D01*
X172805310Y-52723451D01*
X172871220Y-52700096D01*
X172931537Y-52678680D01*
X172985274Y-52659548D01*
X173031447Y-52643049D01*
X173069072Y-52629530D01*
X173097165Y-52619338D01*
X173114739Y-52612820D01*
X173120812Y-52610325D01*
X173117925Y-52609041D01*
X173103851Y-52603585D01*
X173078905Y-52594180D01*
X173044009Y-52581163D01*
X173000089Y-52564872D01*
X172948069Y-52545645D01*
X172888874Y-52523821D01*
X172823428Y-52499737D01*
X172752655Y-52473731D01*
X172677480Y-52446141D01*
X172598829Y-52417306D01*
X172517624Y-52387563D01*
X172434791Y-52357251D01*
X172351255Y-52326707D01*
X172267939Y-52296269D01*
X172185768Y-52266275D01*
X172105668Y-52237063D01*
X172028562Y-52208972D01*
X171955374Y-52182339D01*
X171887030Y-52157503D01*
X171824455Y-52134801D01*
X171768571Y-52114571D01*
X171720305Y-52097151D01*
X171680580Y-52082879D01*
X171650321Y-52072094D01*
X171630453Y-52065134D01*
X171621900Y-52062335D01*
X171621842Y-52062323D01*
X171620289Y-52063670D01*
X171618917Y-52068760D01*
X171617716Y-52078323D01*
X171616674Y-52093088D01*
X171615782Y-52113786D01*
X171615028Y-52141145D01*
X171614402Y-52175897D01*
X171613893Y-52218769D01*
X171613490Y-52270492D01*
X171613182Y-52331796D01*
X171612959Y-52403411D01*
X171612810Y-52486065D01*
X171612725Y-52580490D01*
X171612691Y-52687413D01*
X171612632Y-53314630D01*
X171067042Y-53513067D01*
X170995205Y-53539225D01*
X170917191Y-53567703D01*
X170843614Y-53594637D01*
X170775362Y-53619695D01*
X170713325Y-53642551D01*
X170658392Y-53662874D01*
X170611451Y-53680337D01*
X170573392Y-53694608D01*
X170545105Y-53705361D01*
X170527477Y-53712266D01*
X170521398Y-53714993D01*
X170525048Y-53716371D01*
X170540024Y-53719870D01*
X170564942Y-53724970D01*
X170598041Y-53731327D01*
X170637563Y-53738595D01*
X170681748Y-53746429D01*
X170705075Y-53750503D01*
X170757294Y-53759663D01*
X170817896Y-53770335D01*
X170883854Y-53781986D01*
X170952140Y-53794078D01*
X171019726Y-53806078D01*
X171083584Y-53817451D01*
X171133914Y-53826400D01*
X171190708Y-53836429D01*
X171244344Y-53845830D01*
X171292849Y-53854260D01*
X171334251Y-53861377D01*
X171366577Y-53866838D01*
X171387855Y-53870301D01*
X171418087Y-53875189D01*
X171457537Y-53881862D01*
X171499892Y-53889252D01*
X171539990Y-53896472D01*
X171569045Y-53901779D01*
X171615549Y-53910203D01*
X171670575Y-53920109D01*
X171733144Y-53931324D01*
X171802278Y-53943676D01*
X171876996Y-53956992D01*
X171956320Y-53971099D01*
X172039269Y-53985825D01*
X172124864Y-54000997D01*
X172212126Y-54016441D01*
X172300076Y-54031986D01*
X172387734Y-54047458D01*
X172474120Y-54062686D01*
X172558255Y-54077495D01*
X172639161Y-54091714D01*
X172715856Y-54105169D01*
X172787363Y-54117689D01*
X172852701Y-54129099D01*
X172910891Y-54139228D01*
X172960953Y-54147903D01*
X173001909Y-54154950D01*
X173032779Y-54160198D01*
X173052582Y-54163474D01*
X173060341Y-54164604D01*
X173060821Y-54164702D01*
X173063536Y-54170386D01*
X173065553Y-54185499D01*
X173066926Y-54210990D01*
X173067710Y-54247807D01*
X173067959Y-54296896D01*
X173067953Y-54305228D01*
X173067626Y-54352380D01*
X173066756Y-54387405D01*
X173065288Y-54411249D01*
X173063168Y-54424861D01*
X173060341Y-54429187D01*
X173058842Y-54429359D01*
X173046333Y-54431339D01*
X173022149Y-54435398D01*
X172987261Y-54441364D01*
X172942644Y-54449067D01*
X172889269Y-54458335D01*
X172828109Y-54468996D01*
X172760138Y-54480878D01*
X172686327Y-54493811D01*
X172607651Y-54507622D01*
X172525081Y-54522141D01*
X172439590Y-54537196D01*
X172352151Y-54552614D01*
X172263738Y-54568226D01*
X172175322Y-54583858D01*
X172087877Y-54599341D01*
X172002375Y-54614502D01*
X171919789Y-54629169D01*
X171841092Y-54643172D01*
X171767257Y-54656338D01*
X171699257Y-54668497D01*
X171638064Y-54679477D01*
X171584650Y-54689106D01*
X171539990Y-54697212D01*
X171538180Y-54697542D01*
X171500228Y-54704378D01*
X171462421Y-54711054D01*
X171429046Y-54716819D01*
X171404391Y-54720924D01*
X171403013Y-54721146D01*
X171384568Y-54724236D01*
X171355106Y-54729285D01*
X171316424Y-54735978D01*
X171270316Y-54743999D01*
X171218578Y-54753033D01*
X171163006Y-54762764D01*
X171105395Y-54772877D01*
X171047541Y-54783056D01*
X170991238Y-54792986D01*
X170938284Y-54802351D01*
X170890472Y-54810837D01*
X170849599Y-54818126D01*
X170817459Y-54823904D01*
X170795849Y-54827856D01*
X170749547Y-54836480D01*
X170795849Y-54844488D01*
X170811336Y-54847198D01*
X170838980Y-54852077D01*
X170876144Y-54858663D01*
X170921008Y-54866632D01*
X170971750Y-54875660D01*
X171026549Y-54885423D01*
X171083584Y-54895598D01*
X171133918Y-54904554D01*
X171190711Y-54914589D01*
X171244346Y-54923996D01*
X171292850Y-54932431D01*
X171334251Y-54939551D01*
X171366577Y-54945015D01*
X171387855Y-54948478D01*
X171418087Y-54953366D01*
X171457537Y-54960039D01*
X171499892Y-54967430D01*
X171539990Y-54974649D01*
X171569045Y-54979957D01*
X171615549Y-54988380D01*
X171670575Y-54998286D01*
X171733144Y-55009501D01*
X171802278Y-55021853D01*
X171876996Y-55035169D01*
X171956320Y-55049276D01*
X172039269Y-55064002D01*
X172124864Y-55079174D01*
X172212126Y-55094618D01*
X172300076Y-55110163D01*
X172387734Y-55125635D01*
X172474120Y-55140863D01*
X172558255Y-55155672D01*
X172639161Y-55169891D01*
X172715856Y-55183346D01*
X172787363Y-55195866D01*
X172852701Y-55207276D01*
X172910891Y-55217405D01*
X172960953Y-55226080D01*
X173001909Y-55233127D01*
X173032779Y-55238375D01*
X173052582Y-55241651D01*
X173060341Y-55242781D01*
X173060821Y-55242879D01*
X173063536Y-55248563D01*
X173065553Y-55263676D01*
X173066926Y-55289167D01*
X173067710Y-55325984D01*
X173067959Y-55375073D01*
X173067953Y-55383405D01*
X173067626Y-55430557D01*
X173066756Y-55465582D01*
X173065288Y-55489426D01*
X173063168Y-55503038D01*
X173060341Y-55507364D01*
X173058842Y-55507536D01*
X173046333Y-55509516D01*
X173022149Y-55513575D01*
X172987261Y-55519541D01*
X172942644Y-55527244D01*
X172889269Y-55536512D01*
X172828109Y-55547173D01*
X172760138Y-55559055D01*
X172686327Y-55571988D01*
X172607651Y-55585799D01*
X172525081Y-55600318D01*
X172439590Y-55615373D01*
X172352151Y-55630791D01*
X172263738Y-55646403D01*
X172175322Y-55662035D01*
X172087877Y-55677518D01*
X172002375Y-55692679D01*
X171919789Y-55707346D01*
X171841092Y-55721349D01*
X171767257Y-55734515D01*
X171699257Y-55746674D01*
X171638064Y-55757654D01*
X171584650Y-55767283D01*
X171539990Y-55775389D01*
X171538180Y-55775719D01*
X171500228Y-55782555D01*
X171462421Y-55789231D01*
X171429046Y-55794996D01*
X171404391Y-55799101D01*
X171403013Y-55799323D01*
X171384568Y-55802413D01*
X171355106Y-55807462D01*
X171316424Y-55814155D01*
X171270316Y-55822176D01*
X171218578Y-55831210D01*
X171163006Y-55840941D01*
X171105395Y-55851054D01*
X171047541Y-55861233D01*
X170991238Y-55871163D01*
X170938284Y-55880528D01*
X170890472Y-55889014D01*
X170849599Y-55896303D01*
X170817459Y-55902081D01*
X170795849Y-55906033D01*
X170749547Y-55914657D01*
X170795849Y-55922665D01*
X170811336Y-55925375D01*
X170838980Y-55930254D01*
X170876144Y-55936840D01*
X170921008Y-55944809D01*
X170971750Y-55953837D01*
X171026549Y-55963600D01*
X171083584Y-55973775D01*
X171133918Y-55982731D01*
X171190711Y-55992766D01*
X171244346Y-56002173D01*
X171292850Y-56010608D01*
X171334251Y-56017728D01*
X171366577Y-56023192D01*
X171387855Y-56026655D01*
X171418087Y-56031544D01*
X171457537Y-56038216D01*
X171499892Y-56045607D01*
X171539990Y-56052826D01*
X171569045Y-56058134D01*
X171615549Y-56066557D01*
X171670575Y-56076463D01*
X171733144Y-56087678D01*
X171802278Y-56100030D01*
X171876996Y-56113346D01*
X171956320Y-56127454D01*
X172039269Y-56142179D01*
X172124864Y-56157351D01*
X172212126Y-56172795D01*
X172300076Y-56188340D01*
X172387734Y-56203813D01*
X172474120Y-56219040D01*
X172558255Y-56233849D01*
X172639161Y-56248068D01*
X172715856Y-56261523D01*
X172787363Y-56274043D01*
X172852701Y-56285453D01*
X172910891Y-56295582D01*
X172960953Y-56304257D01*
X173001909Y-56311305D01*
X173032779Y-56316552D01*
X173052582Y-56319828D01*
X173060341Y-56320958D01*
X173060821Y-56321056D01*
X173063536Y-56326740D01*
X173065553Y-56341853D01*
X173066926Y-56367344D01*
X173067710Y-56404161D01*
X173067959Y-56453250D01*
X173067959Y-56585541D01*
X173025596Y-56585541D01*
X173022243Y-56585588D01*
X173014437Y-56586102D01*
X173005252Y-56587384D01*
X172993950Y-56589688D01*
X172979795Y-56593265D01*
X172962052Y-56598368D01*
X172939985Y-56605247D01*
X172912856Y-56614156D01*
X172879930Y-56625346D01*
X172840471Y-56639069D01*
X172793742Y-56655576D01*
X172739008Y-56675121D01*
X172675533Y-56697955D01*
X172602579Y-56724330D01*
X172519411Y-56754498D01*
X172425293Y-56788710D01*
X172319489Y-56827219D01*
X172233557Y-56858511D01*
X172146115Y-56890359D01*
X172062590Y-56920786D01*
X171983835Y-56949481D01*
X171910699Y-56976135D01*
X171844035Y-57000437D01*
X171784694Y-57022077D01*
X171733528Y-57040743D01*
X171691387Y-57056127D01*
X171659124Y-57067916D01*
X171637589Y-57075801D01*
X171627633Y-57079472D01*
X171599521Y-57090047D01*
X171599521Y-58345919D01*
X171599521Y-59601791D01*
X172528870Y-59601791D01*
X173458219Y-59601791D01*
X173458219Y-59734083D01*
X173458219Y-59866375D01*
X171473844Y-59866375D01*
X169489469Y-59866375D01*
X169489469Y-59734083D01*
X169489469Y-59601791D01*
X170415511Y-59601791D01*
X171341553Y-59601791D01*
X171341553Y-58263602D01*
X171341562Y-58130680D01*
X171341603Y-57978518D01*
X171341678Y-57838754D01*
X171341790Y-57710930D01*
X171341942Y-57594588D01*
X171342136Y-57489268D01*
X171342376Y-57394512D01*
X171342664Y-57309862D01*
X171343003Y-57234860D01*
X171343396Y-57169046D01*
X171343846Y-57111962D01*
X171344355Y-57063149D01*
X171344926Y-57022149D01*
X171345563Y-56988504D01*
X171346267Y-56961755D01*
X171347043Y-56941443D01*
X171347891Y-56927110D01*
X171348817Y-56918297D01*
X171349821Y-56914545D01*
X171350068Y-56914311D01*
X171358851Y-56909976D01*
X171379083Y-56901527D01*
X171409878Y-56889297D01*
X171450350Y-56873622D01*
X171499615Y-56854835D01*
X171556786Y-56833271D01*
X171620978Y-56809263D01*
X171691306Y-56783147D01*
X171766885Y-56755255D01*
X171846828Y-56725923D01*
X171930250Y-56695484D01*
X171944088Y-56690447D01*
X172026456Y-56660379D01*
X172104867Y-56631613D01*
X172178472Y-56604469D01*
X172246424Y-56579266D01*
X172307872Y-56556322D01*
X172361970Y-56535957D01*
X172407867Y-56518491D01*
X172444717Y-56504242D01*
X172471669Y-56493529D01*
X172487877Y-56486672D01*
X172492490Y-56483991D01*
X172484266Y-56481904D01*
X172465798Y-56478141D01*
X172442881Y-56474044D01*
X172436920Y-56473031D01*
X172416523Y-56469507D01*
X172385173Y-56464053D01*
X172344220Y-56456908D01*
X172295016Y-56448305D01*
X172238911Y-56438483D01*
X172177255Y-56427676D01*
X172111401Y-56416122D01*
X172042698Y-56404056D01*
X172022289Y-56400470D01*
X171949505Y-56387683D01*
X171877004Y-56374948D01*
X171806607Y-56362585D01*
X171740134Y-56350913D01*
X171679408Y-56340252D01*
X171626248Y-56330922D01*
X171582476Y-56323243D01*
X171549912Y-56317533D01*
X171536531Y-56315185D01*
X171486422Y-56306340D01*
X171428767Y-56296106D01*
X171367738Y-56285225D01*
X171307510Y-56274441D01*
X171252256Y-56264497D01*
X171209236Y-56256746D01*
X171130937Y-56242709D01*
X171048717Y-56228049D01*
X170963574Y-56212938D01*
X170876505Y-56197551D01*
X170788506Y-56182059D01*
X170700574Y-56166635D01*
X170613706Y-56151452D01*
X170528898Y-56136682D01*
X170447148Y-56122500D01*
X170369451Y-56109076D01*
X170296806Y-56096585D01*
X170230209Y-56085199D01*
X170170656Y-56075090D01*
X170119144Y-56066432D01*
X170076670Y-56059397D01*
X170044231Y-56054158D01*
X170022824Y-56050888D01*
X170013445Y-56049760D01*
X169992178Y-56049760D01*
X169992178Y-55914161D01*
X169992178Y-55778562D01*
X170013345Y-55778562D01*
X170013665Y-55778556D01*
X170024831Y-55777245D01*
X170048153Y-55773749D01*
X170082822Y-55768208D01*
X170128031Y-55760760D01*
X170182975Y-55751545D01*
X170246845Y-55740702D01*
X170318834Y-55728370D01*
X170398136Y-55714688D01*
X170483943Y-55699796D01*
X170575448Y-55683833D01*
X170671845Y-55666937D01*
X170772325Y-55649249D01*
X170876082Y-55630908D01*
X170982309Y-55612052D01*
X171090198Y-55592820D01*
X171108220Y-55589601D01*
X171212819Y-55570925D01*
X171306286Y-55554251D01*
X171390246Y-55539292D01*
X171466327Y-55525760D01*
X171536154Y-55513368D01*
X171601355Y-55501829D01*
X171663555Y-55490855D01*
X171724381Y-55480159D01*
X171785460Y-55469452D01*
X171848417Y-55458448D01*
X171914880Y-55446860D01*
X171986474Y-55434399D01*
X171987509Y-55434219D01*
X172049838Y-55423333D01*
X172108080Y-55413077D01*
X172160957Y-55403681D01*
X172207191Y-55395376D01*
X172245502Y-55388395D01*
X172274613Y-55382968D01*
X172293243Y-55379325D01*
X172300116Y-55377700D01*
X172300116Y-55372446D01*
X172300105Y-55372437D01*
X172293032Y-55370776D01*
X172274222Y-55367103D01*
X172244952Y-55361649D01*
X172206502Y-55354644D01*
X172160151Y-55346321D01*
X172107177Y-55336909D01*
X172048859Y-55326640D01*
X171986474Y-55315746D01*
X171974513Y-55313666D01*
X171903857Y-55301365D01*
X171838069Y-55289890D01*
X171775525Y-55278954D01*
X171714597Y-55268268D01*
X171653659Y-55257546D01*
X171591085Y-55246501D01*
X171525248Y-55234844D01*
X171454522Y-55222287D01*
X171377281Y-55208545D01*
X171291897Y-55193329D01*
X171196745Y-55176351D01*
X171090198Y-55157325D01*
X171082197Y-55155896D01*
X170974402Y-55136687D01*
X170868330Y-55117865D01*
X170764787Y-55099566D01*
X170664581Y-55081932D01*
X170568518Y-55065101D01*
X170477406Y-55049212D01*
X170392051Y-55034404D01*
X170313261Y-55020817D01*
X170241844Y-55008590D01*
X170178605Y-54997863D01*
X170124352Y-54988773D01*
X170079893Y-54981461D01*
X170046034Y-54976066D01*
X170023582Y-54972727D01*
X170013345Y-54971583D01*
X169992178Y-54971583D01*
X169992178Y-54835984D01*
X169992178Y-54700385D01*
X170013345Y-54700385D01*
X170013665Y-54700379D01*
X170024831Y-54699068D01*
X170048153Y-54695572D01*
X170082822Y-54690031D01*
X170128031Y-54682583D01*
X170182975Y-54673368D01*
X170246845Y-54662525D01*
X170318834Y-54650193D01*
X170398136Y-54636511D01*
X170483943Y-54621619D01*
X170575448Y-54605656D01*
X170671845Y-54588760D01*
X170772325Y-54571072D01*
X170876082Y-54552730D01*
X170982309Y-54533874D01*
X171090198Y-54514643D01*
X171108220Y-54511424D01*
X171212819Y-54492748D01*
X171306286Y-54476074D01*
X171390246Y-54461115D01*
X171466327Y-54447583D01*
X171536154Y-54435191D01*
X171601355Y-54423652D01*
X171663555Y-54412678D01*
X171724381Y-54401982D01*
X171785460Y-54391275D01*
X171848417Y-54380271D01*
X171914880Y-54368683D01*
X171986474Y-54356222D01*
X171987509Y-54356042D01*
X172049838Y-54345156D01*
X172108080Y-54334899D01*
X172160957Y-54325504D01*
X172207191Y-54317199D01*
X172245502Y-54310218D01*
X172274613Y-54304791D01*
X172293243Y-54301148D01*
X172300116Y-54299522D01*
X172300116Y-54294269D01*
X172300105Y-54294259D01*
X172293032Y-54292599D01*
X172274222Y-54288926D01*
X172244952Y-54283472D01*
X172206502Y-54276467D01*
X172160151Y-54268144D01*
X172107177Y-54258732D01*
X172048859Y-54248463D01*
X171986474Y-54237569D01*
X171974513Y-54235489D01*
X171903857Y-54223188D01*
X171838069Y-54211713D01*
X171775525Y-54200777D01*
X171714597Y-54190091D01*
X171653659Y-54179369D01*
X171591085Y-54168324D01*
X171525248Y-54156666D01*
X171454522Y-54144110D01*
X171377281Y-54130368D01*
X171291897Y-54115152D01*
X171196745Y-54098174D01*
X171090198Y-54079148D01*
X170991880Y-54061609D01*
X170838903Y-54034428D01*
X170698911Y-54009698D01*
X170571897Y-53987418D01*
X170457850Y-53967585D01*
X170356763Y-53950199D01*
X170268626Y-53935258D01*
X170193431Y-53922761D01*
X170131170Y-53912706D01*
X170081832Y-53905091D01*
X170045411Y-53899916D01*
X170021896Y-53897178D01*
X170011279Y-53896876D01*
X169992178Y-53901072D01*
X169992178Y-53764740D01*
X169992255Y-53732754D01*
X169992734Y-53691681D01*
X169993716Y-53661747D01*
X169995278Y-53641670D01*
X169997496Y-53630167D01*
X170000446Y-53625958D01*
X170000555Y-53625924D01*
X170008603Y-53623082D01*
X170028219Y-53616047D01*
X170058590Y-53605113D01*
X170098900Y-53590574D01*
X170148337Y-53572724D01*
X170206087Y-53551857D01*
X170271337Y-53528268D01*
X170343273Y-53502250D01*
X170421081Y-53474098D01*
X170503949Y-53444105D01*
X170591061Y-53412565D01*
X170681606Y-53379773D01*
X171354498Y-53136036D01*
X171354640Y-52608817D01*
X171354782Y-52081597D01*
X171329977Y-52090499D01*
X171325372Y-52092161D01*
X171307562Y-52098624D01*
X171279129Y-52108964D01*
X171241267Y-52122745D01*
X171195171Y-52139531D01*
X171142036Y-52158886D01*
X171083058Y-52180376D01*
X171019431Y-52203564D01*
X170952350Y-52228014D01*
X170883011Y-52253291D01*
X170812608Y-52278959D01*
X170742337Y-52304583D01*
X170673392Y-52329726D01*
X170606968Y-52353953D01*
X170544261Y-52376828D01*
X170486465Y-52397916D01*
X170434776Y-52416781D01*
X170390389Y-52432987D01*
X170354497Y-52446099D01*
X170328298Y-52455680D01*
X170312985Y-52461295D01*
X170295500Y-52467701D01*
X170264511Y-52478991D01*
X170225496Y-52493159D01*
X170180905Y-52509318D01*
X170133185Y-52526579D01*
X170084782Y-52544056D01*
X170040094Y-52560316D01*
X169998186Y-52575838D01*
X169961554Y-52589682D01*
X169931995Y-52601159D01*
X169911307Y-52609583D01*
X169901287Y-52614266D01*
X169899714Y-52615020D01*
X169896083Y-52615659D01*
X169890549Y-52615407D01*
X169882492Y-52614049D01*
X169871295Y-52611370D01*
X169856337Y-52607155D01*
X169837000Y-52601190D01*
X169812665Y-52593260D01*
X169782713Y-52583150D01*
X169746525Y-52570646D01*
X169703482Y-52555534D01*
X169652965Y-52537599D01*
X169594355Y-52516625D01*
X169527034Y-52492399D01*
X169450381Y-52464706D01*
X169363779Y-52433331D01*
X169266608Y-52398060D01*
X169158249Y-52358678D01*
X169038084Y-52314970D01*
X168979655Y-52293711D01*
X168879882Y-52257402D01*
X168783973Y-52222493D01*
X168692641Y-52189242D01*
X168606601Y-52157909D01*
X168526567Y-52128756D01*
X168453253Y-52102043D01*
X168387372Y-52078029D01*
X168329640Y-52056975D01*
X168280769Y-52039141D01*
X168241475Y-52024788D01*
X168212471Y-52014176D01*
X168194471Y-52007564D01*
X168188190Y-52005214D01*
X168189174Y-52000118D01*
X168194044Y-51984703D01*
X168202097Y-51961234D01*
X168212489Y-51931991D01*
X168224379Y-51899252D01*
X168236922Y-51865296D01*
X168249278Y-51832399D01*
X168260604Y-51802842D01*
X168270057Y-51778902D01*
X168276795Y-51762857D01*
X168279975Y-51756987D01*
X168280092Y-51757008D01*
X168287930Y-51759656D01*
X168307382Y-51766534D01*
X168337703Y-51777376D01*
X168378152Y-51791911D01*
X168427985Y-51809871D01*
X168486460Y-51830989D01*
X168552833Y-51854994D01*
X168626361Y-51881619D01*
X168706302Y-51910594D01*
X168791914Y-51941652D01*
X168882452Y-51974523D01*
X168977174Y-52008938D01*
X169075337Y-52044630D01*
X169084168Y-52047842D01*
X169182210Y-52083461D01*
X169276845Y-52117774D01*
X169367323Y-52150513D01*
X169452891Y-52181408D01*
X169532798Y-52210191D01*
X169606292Y-52236591D01*
X169672621Y-52260339D01*
X169731034Y-52281167D01*
X169780778Y-52298805D01*
X169821102Y-52312984D01*
X169851254Y-52323435D01*
X169870482Y-52329888D01*
X169878035Y-52332075D01*
X169880982Y-52331299D01*
X169895435Y-52326535D01*
X169921077Y-52317677D01*
X169957125Y-52305005D01*
X170002794Y-52288800D01*
X170057303Y-52269343D01*
X170119867Y-52246915D01*
X170189704Y-52221798D01*
X170266031Y-52194271D01*
X170348063Y-52164617D01*
X170435018Y-52133116D01*
X170526112Y-52100049D01*
X170620563Y-52065697D01*
X171351474Y-51799609D01*
X171351474Y-51268078D01*
X171351474Y-50736548D01*
X170638944Y-50476988D01*
X170601007Y-50463173D01*
X170508753Y-50429619D01*
X170420043Y-50397412D01*
X170335686Y-50366841D01*
X170256490Y-50338197D01*
X170183260Y-50311770D01*
X170116805Y-50287851D01*
X170057932Y-50266730D01*
X170007449Y-50248698D01*
X169966161Y-50234043D01*
X169934878Y-50223058D01*
X169914406Y-50216032D01*
X169905552Y-50213255D01*
X169892534Y-50209675D01*
X169869876Y-50201619D01*
X169845659Y-50191567D01*
X169806627Y-50174050D01*
X169808452Y-50078786D01*
X169810277Y-49983523D01*
X169866500Y-49961556D01*
X169869272Y-49960487D01*
X169886854Y-49953890D01*
X169915651Y-49943241D01*
X169954704Y-49928889D01*
X170003055Y-49911184D01*
X170059746Y-49890476D01*
X170123817Y-49867113D01*
X170194312Y-49841446D01*
X170270270Y-49813824D01*
X170350734Y-49784596D01*
X170434745Y-49754113D01*
X170521344Y-49722724D01*
X170552966Y-49711268D01*
X170637381Y-49680686D01*
X170718146Y-49651425D01*
X170794382Y-49623805D01*
X170865210Y-49598143D01*
X170929751Y-49574759D01*
X170987126Y-49553969D01*
X171036458Y-49536094D01*
X171076866Y-49521451D01*
X171107472Y-49510358D01*
X171127398Y-49503135D01*
X171135764Y-49500098D01*
X171145569Y-49495474D01*
X171148589Y-49491363D01*
X171146919Y-49490511D01*
X171134652Y-49485568D01*
X171111396Y-49476701D01*
X171078159Y-49464274D01*
X171035948Y-49448652D01*
X170985774Y-49430199D01*
X170928643Y-49409279D01*
X170865565Y-49386257D01*
X170797547Y-49361496D01*
X170725599Y-49335361D01*
X170650728Y-49308215D01*
X170573943Y-49280424D01*
X170496252Y-49252352D01*
X170418664Y-49224362D01*
X170342188Y-49196818D01*
X170267831Y-49170086D01*
X170196602Y-49144529D01*
X170129509Y-49120512D01*
X170067561Y-49098398D01*
X170011766Y-49078552D01*
X169963132Y-49061338D01*
X169922669Y-49047121D01*
X169891384Y-49036264D01*
X169870285Y-49029132D01*
X169860382Y-49026088D01*
X169845957Y-49022490D01*
X169826849Y-49016330D01*
X169815734Y-49010883D01*
X169812476Y-49005229D01*
X169809891Y-48992282D01*
X169808189Y-48970750D01*
X169807255Y-48939089D01*
X169806969Y-48895754D01*
X169806969Y-48787898D01*
X169841696Y-48774915D01*
X169845566Y-48773483D01*
X169862182Y-48767392D01*
X169889999Y-48757226D01*
X169928197Y-48743284D01*
X169975957Y-48725865D01*
X170032461Y-48705266D01*
X170096890Y-48681787D01*
X170168425Y-48655725D01*
X170246247Y-48627379D01*
X170329537Y-48597047D01*
X170417476Y-48565028D01*
X170509246Y-48531620D01*
X170604027Y-48497122D01*
X170656098Y-48478170D01*
X170748607Y-48444497D01*
X170837325Y-48412198D01*
X170921467Y-48381561D01*
X171000248Y-48352871D01*
X171072881Y-48326415D01*
X171138582Y-48302478D01*
X171196565Y-48281348D01*
X171246043Y-48263309D01*
X171286232Y-48248649D01*
X171316346Y-48237654D01*
X171335599Y-48230610D01*
X171343206Y-48227803D01*
X171344502Y-48227007D01*
X171346035Y-48224816D01*
X171347409Y-48220705D01*
X171348631Y-48214008D01*
X171349711Y-48204059D01*
X171350656Y-48190193D01*
X171351477Y-48171746D01*
X171352182Y-48148052D01*
X171352780Y-48118446D01*
X171353279Y-48082262D01*
X171353688Y-48038836D01*
X171354016Y-47987502D01*
X171354272Y-47927596D01*
X171354464Y-47858451D01*
X171354602Y-47779403D01*
X171354694Y-47689787D01*
X171354748Y-47588937D01*
X171354775Y-47476188D01*
X171354782Y-47350875D01*
X171354782Y-46478458D01*
X171483766Y-46478458D01*
X171612750Y-46478458D01*
X171612750Y-47417338D01*
G37*
%TO.C,U6*%
D10*
X139240000Y-116380000D02*
X171240000Y-116380000D01*
X171240000Y-84380000D01*
X139240000Y-84380000D01*
X139240000Y-116380000D01*
%TO.C,U2*%
X167419000Y-69085000D02*
X152719000Y-69085000D01*
X152719000Y-58085000D01*
X167419000Y-58085000D01*
X167419000Y-69085000D01*
D11*
%TO.C,VBATT*%
X104700000Y-95120000D02*
G75*
G02*
X101900000Y-95120000I-1400000J0D01*
G01*
X101900000Y-95120000D02*
G75*
G02*
X104700000Y-95120000I1400000J0D01*
G01*
D12*
%TO.C,C7*%
X121089000Y-50494000D02*
X121089000Y-49926000D01*
X121129000Y-50728000D02*
X121129000Y-49692000D01*
X121169000Y-50887000D02*
X121169000Y-49533000D01*
X121209000Y-51015000D02*
X121209000Y-49405000D01*
X121249000Y-51125000D02*
X121249000Y-49295000D01*
X121289000Y-51221000D02*
X121289000Y-49199000D01*
X121329000Y-51308000D02*
X121329000Y-49112000D01*
X121369000Y-51388000D02*
X121369000Y-49032000D01*
X121409000Y-51461000D02*
X121409000Y-48959000D01*
X121449000Y-51529000D02*
X121449000Y-48891000D01*
X121489000Y-51593000D02*
X121489000Y-48827000D01*
X121529000Y-51653000D02*
X121529000Y-48767000D01*
X121569000Y-51710000D02*
X121569000Y-48710000D01*
X121609000Y-51764000D02*
X121609000Y-48656000D01*
X121649000Y-51815000D02*
X121649000Y-48605000D01*
X121689000Y-49170000D02*
X121689000Y-48557000D01*
X121689000Y-51863000D02*
X121689000Y-51250000D01*
X121729000Y-49170000D02*
X121729000Y-48511000D01*
X121729000Y-51909000D02*
X121729000Y-51250000D01*
X121769000Y-49170000D02*
X121769000Y-48467000D01*
X121769000Y-51953000D02*
X121769000Y-51250000D01*
X121809000Y-49170000D02*
X121809000Y-48425000D01*
X121809000Y-51995000D02*
X121809000Y-51250000D01*
X121849000Y-49170000D02*
X121849000Y-48384000D01*
X121849000Y-52036000D02*
X121849000Y-51250000D01*
X121889000Y-49170000D02*
X121889000Y-48346000D01*
X121889000Y-52074000D02*
X121889000Y-51250000D01*
X121929000Y-49170000D02*
X121929000Y-48309000D01*
X121929000Y-52111000D02*
X121929000Y-51250000D01*
X121969000Y-49170000D02*
X121969000Y-48273000D01*
X121969000Y-52147000D02*
X121969000Y-51250000D01*
X122009000Y-49170000D02*
X122009000Y-48239000D01*
X122009000Y-52181000D02*
X122009000Y-51250000D01*
X122049000Y-49170000D02*
X122049000Y-48206000D01*
X122049000Y-52214000D02*
X122049000Y-51250000D01*
X122089000Y-49170000D02*
X122089000Y-48175000D01*
X122089000Y-52245000D02*
X122089000Y-51250000D01*
X122129000Y-49170000D02*
X122129000Y-48145000D01*
X122129000Y-52275000D02*
X122129000Y-51250000D01*
X122169000Y-49170000D02*
X122169000Y-48115000D01*
X122169000Y-52305000D02*
X122169000Y-51250000D01*
X122209000Y-49170000D02*
X122209000Y-48088000D01*
X122209000Y-52332000D02*
X122209000Y-51250000D01*
X122249000Y-49170000D02*
X122249000Y-48061000D01*
X122249000Y-52359000D02*
X122249000Y-51250000D01*
X122289000Y-49170000D02*
X122289000Y-48035000D01*
X122289000Y-52385000D02*
X122289000Y-51250000D01*
X122329000Y-49170000D02*
X122329000Y-48010000D01*
X122329000Y-52410000D02*
X122329000Y-51250000D01*
X122369000Y-49170000D02*
X122369000Y-47986000D01*
X122369000Y-52434000D02*
X122369000Y-51250000D01*
X122409000Y-49170000D02*
X122409000Y-47963000D01*
X122409000Y-52457000D02*
X122409000Y-51250000D01*
X122449000Y-49170000D02*
X122449000Y-47942000D01*
X122449000Y-52478000D02*
X122449000Y-51250000D01*
X122489000Y-49170000D02*
X122489000Y-47920000D01*
X122489000Y-52500000D02*
X122489000Y-51250000D01*
X122529000Y-49170000D02*
X122529000Y-47900000D01*
X122529000Y-52520000D02*
X122529000Y-51250000D01*
X122569000Y-49170000D02*
X122569000Y-47881000D01*
X122569000Y-52539000D02*
X122569000Y-51250000D01*
X122609000Y-49170000D02*
X122609000Y-47862000D01*
X122609000Y-52558000D02*
X122609000Y-51250000D01*
X122649000Y-49170000D02*
X122649000Y-47845000D01*
X122649000Y-52575000D02*
X122649000Y-51250000D01*
X122689000Y-49170000D02*
X122689000Y-47828000D01*
X122689000Y-52592000D02*
X122689000Y-51250000D01*
X122729000Y-49170000D02*
X122729000Y-47812000D01*
X122729000Y-52608000D02*
X122729000Y-51250000D01*
X122769000Y-49170000D02*
X122769000Y-47796000D01*
X122769000Y-52624000D02*
X122769000Y-51250000D01*
X122809000Y-49170000D02*
X122809000Y-47782000D01*
X122809000Y-52638000D02*
X122809000Y-51250000D01*
X122849000Y-49170000D02*
X122849000Y-47768000D01*
X122849000Y-52652000D02*
X122849000Y-51250000D01*
X122889000Y-49170000D02*
X122889000Y-47755000D01*
X122889000Y-52665000D02*
X122889000Y-51250000D01*
X122929000Y-49170000D02*
X122929000Y-47742000D01*
X122929000Y-52678000D02*
X122929000Y-51250000D01*
X122969000Y-49170000D02*
X122969000Y-47730000D01*
X122969000Y-52690000D02*
X122969000Y-51250000D01*
X123010000Y-49170000D02*
X123010000Y-47719000D01*
X123010000Y-52701000D02*
X123010000Y-51250000D01*
X123050000Y-49170000D02*
X123050000Y-47709000D01*
X123050000Y-52711000D02*
X123050000Y-51250000D01*
X123090000Y-49170000D02*
X123090000Y-47699000D01*
X123090000Y-52721000D02*
X123090000Y-51250000D01*
X123130000Y-49170000D02*
X123130000Y-47690000D01*
X123130000Y-52730000D02*
X123130000Y-51250000D01*
X123170000Y-49170000D02*
X123170000Y-47682000D01*
X123170000Y-52738000D02*
X123170000Y-51250000D01*
X123210000Y-49170000D02*
X123210000Y-47674000D01*
X123210000Y-52746000D02*
X123210000Y-51250000D01*
X123250000Y-49170000D02*
X123250000Y-47667000D01*
X123250000Y-52753000D02*
X123250000Y-51250000D01*
X123290000Y-49170000D02*
X123290000Y-47660000D01*
X123290000Y-52760000D02*
X123290000Y-51250000D01*
X123330000Y-49170000D02*
X123330000Y-47654000D01*
X123330000Y-52766000D02*
X123330000Y-51250000D01*
X123370000Y-49170000D02*
X123370000Y-47649000D01*
X123370000Y-52771000D02*
X123370000Y-51250000D01*
X123410000Y-49170000D02*
X123410000Y-47645000D01*
X123410000Y-52775000D02*
X123410000Y-51250000D01*
X123450000Y-49170000D02*
X123450000Y-47641000D01*
X123450000Y-52779000D02*
X123450000Y-51250000D01*
X123490000Y-49170000D02*
X123490000Y-47637000D01*
X123490000Y-52783000D02*
X123490000Y-51250000D01*
X123530000Y-49170000D02*
X123530000Y-47634000D01*
X123530000Y-52786000D02*
X123530000Y-51250000D01*
X123570000Y-49170000D02*
X123570000Y-47632000D01*
X123570000Y-52788000D02*
X123570000Y-51250000D01*
X123610000Y-49170000D02*
X123610000Y-47631000D01*
X123610000Y-52789000D02*
X123610000Y-51250000D01*
X123650000Y-49170000D02*
X123650000Y-47630000D01*
X123650000Y-52790000D02*
X123650000Y-51250000D01*
X123690000Y-49170000D02*
X123690000Y-47630000D01*
X123690000Y-52790000D02*
X123690000Y-51250000D01*
X125994775Y-48735000D02*
X126494775Y-48735000D01*
X126244775Y-48985000D02*
X126244775Y-48485000D01*
X126310000Y-50210000D02*
G75*
G02*
X121070000Y-50210000I-2620000J0D01*
G01*
X121070000Y-50210000D02*
G75*
G02*
X126310000Y-50210000I2620000J0D01*
G01*
%TD*%
M02*
