%TF.GenerationSoftware,KiCad,Pcbnew,8.0.8*%
%TF.CreationDate,2025-04-04T13:43:43-04:00*%
%TF.ProjectId,bike_computer,62696b65-5f63-46f6-9d70-757465722e6b,0*%
%TF.SameCoordinates,Original*%
%TF.FileFunction,Soldermask,Top*%
%TF.FilePolarity,Negative*%
%FSLAX46Y46*%
G04 Gerber Fmt 4.6, Leading zero omitted, Abs format (unit mm)*
G04 Created by KiCad (PCBNEW 8.0.8) date 2025-04-04 13:43:43*
%MOMM*%
%LPD*%
G01*
G04 APERTURE LIST*
%ADD10C,1.400000*%
%ADD11C,2.000000*%
%ADD12R,1.800000X1.800000*%
%ADD13O,1.800000X1.800000*%
%ADD14C,3.200000*%
%ADD15R,1.500000X1.500000*%
%ADD16C,1.500000*%
%ADD17C,1.600000*%
%ADD18O,1.600000X1.600000*%
%ADD19R,1.524000X1.524000*%
%ADD20R,1.600000X1.600000*%
%ADD21C,1.200000*%
%ADD22C,1.524000*%
G04 APERTURE END LIST*
D10*
%TO.C,C5*%
X81360000Y-64370000D03*
X83860000Y-64370000D03*
%TD*%
%TO.C,C2*%
X118320000Y-60450000D03*
X118320000Y-62950000D03*
%TD*%
%TO.C,C4*%
X154170000Y-106870000D03*
X154170000Y-104370000D03*
%TD*%
D11*
%TO.C,3.3V*%
X105540000Y-51350000D03*
%TD*%
D12*
%TO.C,U3*%
X122422000Y-60444000D03*
D13*
X126222000Y-62144000D03*
X122422000Y-63844000D03*
X126222000Y-65544000D03*
X122422000Y-67244000D03*
%TD*%
D14*
%TO.C,U4*%
X74834500Y-59621966D03*
X74834500Y-114521966D03*
X176874500Y-59621966D03*
X176874500Y-114521966D03*
D15*
X73834500Y-70562000D03*
D16*
X73834500Y-73102000D03*
X73834500Y-75642000D03*
X73834500Y-78182000D03*
X73834500Y-80722000D03*
X73834500Y-83262000D03*
X73834500Y-85802000D03*
X73834500Y-88342000D03*
X73834500Y-90882000D03*
X73834500Y-93422000D03*
X73834500Y-95962000D03*
X73834500Y-98502000D03*
X73834500Y-101042000D03*
X73834500Y-103582000D03*
D15*
X177874500Y-83262000D03*
D16*
X177874500Y-85802000D03*
X177874500Y-88342000D03*
X177874500Y-90882000D03*
%TD*%
D11*
%TO.C,REF\u002A\u002A*%
X178858000Y-121300000D03*
%TD*%
D10*
%TO.C,C6*%
X122250000Y-116370000D03*
X122250000Y-113870000D03*
%TD*%
D11*
%TO.C,REF\u002A\u002A*%
X72857000Y-121300000D03*
%TD*%
%TO.C,REF\u002A\u002A*%
X178858000Y-48299000D03*
%TD*%
%TO.C,REF\u002A\u002A*%
X72857000Y-48299000D03*
%TD*%
D17*
%TO.C,R1*%
X88490000Y-74840000D03*
D18*
X98650000Y-74840000D03*
%TD*%
D19*
%TO.C,U5*%
X83125000Y-122071000D03*
X97125000Y-122071000D03*
X85665000Y-99071000D03*
X94585000Y-98961000D03*
X83125000Y-99071000D03*
X97125000Y-98961000D03*
%TD*%
D17*
%TO.C,R2*%
X98600000Y-66550000D03*
D18*
X88440000Y-66550000D03*
%TD*%
D10*
%TO.C,C1*%
X169100000Y-62710000D03*
X169100000Y-65210000D03*
%TD*%
D11*
%TO.C,GND*%
X103475000Y-113277000D03*
%TD*%
D20*
%TO.C,C3*%
X111580000Y-51365113D03*
D17*
X111580000Y-49365113D03*
%TD*%
D14*
%TO.C,BT1*%
X89347000Y-85061000D03*
D19*
X103317000Y-72361000D03*
X103317000Y-97761000D03*
%TD*%
D21*
%TO.C,SW1*%
X132210000Y-48130000D03*
X132210000Y-53210000D03*
X134750000Y-53210000D03*
X134750000Y-50670000D03*
X134750000Y-48130000D03*
%TD*%
D15*
%TO.C,U7*%
X109490000Y-113866000D03*
D16*
X109490000Y-111326000D03*
X109490000Y-108786000D03*
X109490000Y-106246000D03*
X109490000Y-103706000D03*
X109490000Y-101166000D03*
X109490000Y-98626000D03*
X109490000Y-96086000D03*
X109490000Y-93546000D03*
X109490000Y-91006000D03*
X109490000Y-88466000D03*
X109490000Y-85926000D03*
X109490000Y-83386000D03*
X109490000Y-80846000D03*
X109490000Y-78306000D03*
X134890000Y-78306000D03*
X134890000Y-80846000D03*
X134890000Y-83386000D03*
X134890000Y-85926000D03*
X134890000Y-88466000D03*
X134890000Y-91006000D03*
X134890000Y-93546000D03*
X134890000Y-96086000D03*
X134890000Y-98626000D03*
X134890000Y-101166000D03*
X134890000Y-103706000D03*
X134890000Y-106246000D03*
X134890000Y-108786000D03*
X134890000Y-111326000D03*
D15*
X134890000Y-113866000D03*
%TD*%
%TO.C,U6*%
X140740000Y-94030000D03*
D22*
X140740000Y-96570000D03*
X140740000Y-99110000D03*
X140740000Y-101650000D03*
X140740000Y-104190000D03*
X140740000Y-106730000D03*
X169740000Y-106730000D03*
X169740000Y-104190000D03*
X169740000Y-101650000D03*
X169740000Y-99110000D03*
X169740000Y-96570000D03*
X169740000Y-94030000D03*
%TD*%
D15*
%TO.C,U2*%
X166419000Y-68085000D03*
D22*
X163879000Y-68085000D03*
X161339000Y-68085000D03*
X158799000Y-68085000D03*
X156259000Y-68085000D03*
X153719000Y-68085000D03*
%TD*%
D11*
%TO.C,VBATT*%
X103300000Y-95120000D03*
%TD*%
D20*
%TO.C,C7*%
X124690000Y-50210000D03*
D17*
X122690000Y-50210000D03*
%TD*%
M02*
