%TF.GenerationSoftware,KiCad,Pcbnew,8.0.8*%
%TF.CreationDate,2025-03-27T22:39:19-04:00*%
%TF.ProjectId,rear_lights_unit_control_box,72656172-5f6c-4696-9768-74735f756e69,0*%
%TF.SameCoordinates,Original*%
%TF.FileFunction,Legend,Top*%
%TF.FilePolarity,Positive*%
%FSLAX46Y46*%
G04 Gerber Fmt 4.6, Leading zero omitted, Abs format (unit mm)*
G04 Created by KiCad (PCBNEW 8.0.8) date 2025-03-27 22:39:19*
%MOMM*%
%LPD*%
G01*
G04 APERTURE LIST*
%ADD10C,0.100000*%
%ADD11C,0.150000*%
%ADD12C,0.120000*%
G04 APERTURE END LIST*
D10*
X122904762Y-41283419D02*
X122428572Y-41283419D01*
X122428572Y-41283419D02*
X122380953Y-41759609D01*
X122380953Y-41759609D02*
X122428572Y-41711990D01*
X122428572Y-41711990D02*
X122523810Y-41664371D01*
X122523810Y-41664371D02*
X122761905Y-41664371D01*
X122761905Y-41664371D02*
X122857143Y-41711990D01*
X122857143Y-41711990D02*
X122904762Y-41759609D01*
X122904762Y-41759609D02*
X122952381Y-41854847D01*
X122952381Y-41854847D02*
X122952381Y-42092942D01*
X122952381Y-42092942D02*
X122904762Y-42188180D01*
X122904762Y-42188180D02*
X122857143Y-42235800D01*
X122857143Y-42235800D02*
X122761905Y-42283419D01*
X122761905Y-42283419D02*
X122523810Y-42283419D01*
X122523810Y-42283419D02*
X122428572Y-42235800D01*
X122428572Y-42235800D02*
X122380953Y-42188180D01*
X123571429Y-41283419D02*
X123666667Y-41283419D01*
X123666667Y-41283419D02*
X123761905Y-41331038D01*
X123761905Y-41331038D02*
X123809524Y-41378657D01*
X123809524Y-41378657D02*
X123857143Y-41473895D01*
X123857143Y-41473895D02*
X123904762Y-41664371D01*
X123904762Y-41664371D02*
X123904762Y-41902466D01*
X123904762Y-41902466D02*
X123857143Y-42092942D01*
X123857143Y-42092942D02*
X123809524Y-42188180D01*
X123809524Y-42188180D02*
X123761905Y-42235800D01*
X123761905Y-42235800D02*
X123666667Y-42283419D01*
X123666667Y-42283419D02*
X123571429Y-42283419D01*
X123571429Y-42283419D02*
X123476191Y-42235800D01*
X123476191Y-42235800D02*
X123428572Y-42188180D01*
X123428572Y-42188180D02*
X123380953Y-42092942D01*
X123380953Y-42092942D02*
X123333334Y-41902466D01*
X123333334Y-41902466D02*
X123333334Y-41664371D01*
X123333334Y-41664371D02*
X123380953Y-41473895D01*
X123380953Y-41473895D02*
X123428572Y-41378657D01*
X123428572Y-41378657D02*
X123476191Y-41331038D01*
X123476191Y-41331038D02*
X123571429Y-41283419D01*
X124333334Y-42188180D02*
X124380953Y-42235800D01*
X124380953Y-42235800D02*
X124333334Y-42283419D01*
X124333334Y-42283419D02*
X124285715Y-42235800D01*
X124285715Y-42235800D02*
X124333334Y-42188180D01*
X124333334Y-42188180D02*
X124333334Y-42283419D01*
X124952381Y-41711990D02*
X124857143Y-41664371D01*
X124857143Y-41664371D02*
X124809524Y-41616752D01*
X124809524Y-41616752D02*
X124761905Y-41521514D01*
X124761905Y-41521514D02*
X124761905Y-41473895D01*
X124761905Y-41473895D02*
X124809524Y-41378657D01*
X124809524Y-41378657D02*
X124857143Y-41331038D01*
X124857143Y-41331038D02*
X124952381Y-41283419D01*
X124952381Y-41283419D02*
X125142857Y-41283419D01*
X125142857Y-41283419D02*
X125238095Y-41331038D01*
X125238095Y-41331038D02*
X125285714Y-41378657D01*
X125285714Y-41378657D02*
X125333333Y-41473895D01*
X125333333Y-41473895D02*
X125333333Y-41521514D01*
X125333333Y-41521514D02*
X125285714Y-41616752D01*
X125285714Y-41616752D02*
X125238095Y-41664371D01*
X125238095Y-41664371D02*
X125142857Y-41711990D01*
X125142857Y-41711990D02*
X124952381Y-41711990D01*
X124952381Y-41711990D02*
X124857143Y-41759609D01*
X124857143Y-41759609D02*
X124809524Y-41807228D01*
X124809524Y-41807228D02*
X124761905Y-41902466D01*
X124761905Y-41902466D02*
X124761905Y-42092942D01*
X124761905Y-42092942D02*
X124809524Y-42188180D01*
X124809524Y-42188180D02*
X124857143Y-42235800D01*
X124857143Y-42235800D02*
X124952381Y-42283419D01*
X124952381Y-42283419D02*
X125142857Y-42283419D01*
X125142857Y-42283419D02*
X125238095Y-42235800D01*
X125238095Y-42235800D02*
X125285714Y-42188180D01*
X125285714Y-42188180D02*
X125333333Y-42092942D01*
X125333333Y-42092942D02*
X125333333Y-41902466D01*
X125333333Y-41902466D02*
X125285714Y-41807228D01*
X125285714Y-41807228D02*
X125238095Y-41759609D01*
X125238095Y-41759609D02*
X125142857Y-41711990D01*
X125952381Y-41283419D02*
X126047619Y-41283419D01*
X126047619Y-41283419D02*
X126142857Y-41331038D01*
X126142857Y-41331038D02*
X126190476Y-41378657D01*
X126190476Y-41378657D02*
X126238095Y-41473895D01*
X126238095Y-41473895D02*
X126285714Y-41664371D01*
X126285714Y-41664371D02*
X126285714Y-41902466D01*
X126285714Y-41902466D02*
X126238095Y-42092942D01*
X126238095Y-42092942D02*
X126190476Y-42188180D01*
X126190476Y-42188180D02*
X126142857Y-42235800D01*
X126142857Y-42235800D02*
X126047619Y-42283419D01*
X126047619Y-42283419D02*
X125952381Y-42283419D01*
X125952381Y-42283419D02*
X125857143Y-42235800D01*
X125857143Y-42235800D02*
X125809524Y-42188180D01*
X125809524Y-42188180D02*
X125761905Y-42092942D01*
X125761905Y-42092942D02*
X125714286Y-41902466D01*
X125714286Y-41902466D02*
X125714286Y-41664371D01*
X125714286Y-41664371D02*
X125761905Y-41473895D01*
X125761905Y-41473895D02*
X125809524Y-41378657D01*
X125809524Y-41378657D02*
X125857143Y-41331038D01*
X125857143Y-41331038D02*
X125952381Y-41283419D01*
X126904762Y-41283419D02*
X127000000Y-41283419D01*
X127000000Y-41283419D02*
X127095238Y-41331038D01*
X127095238Y-41331038D02*
X127142857Y-41378657D01*
X127142857Y-41378657D02*
X127190476Y-41473895D01*
X127190476Y-41473895D02*
X127238095Y-41664371D01*
X127238095Y-41664371D02*
X127238095Y-41902466D01*
X127238095Y-41902466D02*
X127190476Y-42092942D01*
X127190476Y-42092942D02*
X127142857Y-42188180D01*
X127142857Y-42188180D02*
X127095238Y-42235800D01*
X127095238Y-42235800D02*
X127000000Y-42283419D01*
X127000000Y-42283419D02*
X126904762Y-42283419D01*
X126904762Y-42283419D02*
X126809524Y-42235800D01*
X126809524Y-42235800D02*
X126761905Y-42188180D01*
X126761905Y-42188180D02*
X126714286Y-42092942D01*
X126714286Y-42092942D02*
X126666667Y-41902466D01*
X126666667Y-41902466D02*
X126666667Y-41664371D01*
X126666667Y-41664371D02*
X126714286Y-41473895D01*
X126714286Y-41473895D02*
X126761905Y-41378657D01*
X126761905Y-41378657D02*
X126809524Y-41331038D01*
X126809524Y-41331038D02*
X126904762Y-41283419D01*
X127857143Y-41283419D02*
X127952381Y-41283419D01*
X127952381Y-41283419D02*
X128047619Y-41331038D01*
X128047619Y-41331038D02*
X128095238Y-41378657D01*
X128095238Y-41378657D02*
X128142857Y-41473895D01*
X128142857Y-41473895D02*
X128190476Y-41664371D01*
X128190476Y-41664371D02*
X128190476Y-41902466D01*
X128190476Y-41902466D02*
X128142857Y-42092942D01*
X128142857Y-42092942D02*
X128095238Y-42188180D01*
X128095238Y-42188180D02*
X128047619Y-42235800D01*
X128047619Y-42235800D02*
X127952381Y-42283419D01*
X127952381Y-42283419D02*
X127857143Y-42283419D01*
X127857143Y-42283419D02*
X127761905Y-42235800D01*
X127761905Y-42235800D02*
X127714286Y-42188180D01*
X127714286Y-42188180D02*
X127666667Y-42092942D01*
X127666667Y-42092942D02*
X127619048Y-41902466D01*
X127619048Y-41902466D02*
X127619048Y-41664371D01*
X127619048Y-41664371D02*
X127666667Y-41473895D01*
X127666667Y-41473895D02*
X127714286Y-41378657D01*
X127714286Y-41378657D02*
X127761905Y-41331038D01*
X127761905Y-41331038D02*
X127857143Y-41283419D01*
X129380953Y-42283419D02*
X129380953Y-41616752D01*
X129380953Y-41711990D02*
X129428572Y-41664371D01*
X129428572Y-41664371D02*
X129523810Y-41616752D01*
X129523810Y-41616752D02*
X129666667Y-41616752D01*
X129666667Y-41616752D02*
X129761905Y-41664371D01*
X129761905Y-41664371D02*
X129809524Y-41759609D01*
X129809524Y-41759609D02*
X129809524Y-42283419D01*
X129809524Y-41759609D02*
X129857143Y-41664371D01*
X129857143Y-41664371D02*
X129952381Y-41616752D01*
X129952381Y-41616752D02*
X130095238Y-41616752D01*
X130095238Y-41616752D02*
X130190477Y-41664371D01*
X130190477Y-41664371D02*
X130238096Y-41759609D01*
X130238096Y-41759609D02*
X130238096Y-42283419D01*
X130714286Y-42283419D02*
X130714286Y-41616752D01*
X130714286Y-41711990D02*
X130761905Y-41664371D01*
X130761905Y-41664371D02*
X130857143Y-41616752D01*
X130857143Y-41616752D02*
X131000000Y-41616752D01*
X131000000Y-41616752D02*
X131095238Y-41664371D01*
X131095238Y-41664371D02*
X131142857Y-41759609D01*
X131142857Y-41759609D02*
X131142857Y-42283419D01*
X131142857Y-41759609D02*
X131190476Y-41664371D01*
X131190476Y-41664371D02*
X131285714Y-41616752D01*
X131285714Y-41616752D02*
X131428571Y-41616752D01*
X131428571Y-41616752D02*
X131523810Y-41664371D01*
X131523810Y-41664371D02*
X131571429Y-41759609D01*
X131571429Y-41759609D02*
X131571429Y-42283419D01*
X101600000Y-50300000D02*
X101600000Y-42339580D01*
X152400000Y-50300000D02*
X152400000Y-42339580D01*
X101600000Y-42926000D02*
X152400000Y-42926000D01*
X101600000Y-42926000D02*
X152400000Y-42926000D01*
X101600000Y-42926000D02*
X102726504Y-42339579D01*
X101600000Y-42926000D02*
X102726504Y-43512421D01*
X152400000Y-42926000D02*
X151273496Y-43512421D01*
X152400000Y-42926000D02*
X151273496Y-42339579D01*
X158377419Y-80295237D02*
X158377419Y-80771427D01*
X158377419Y-80771427D02*
X158853609Y-80819046D01*
X158853609Y-80819046D02*
X158805990Y-80771427D01*
X158805990Y-80771427D02*
X158758371Y-80676189D01*
X158758371Y-80676189D02*
X158758371Y-80438094D01*
X158758371Y-80438094D02*
X158805990Y-80342856D01*
X158805990Y-80342856D02*
X158853609Y-80295237D01*
X158853609Y-80295237D02*
X158948847Y-80247618D01*
X158948847Y-80247618D02*
X159186942Y-80247618D01*
X159186942Y-80247618D02*
X159282180Y-80295237D01*
X159282180Y-80295237D02*
X159329800Y-80342856D01*
X159329800Y-80342856D02*
X159377419Y-80438094D01*
X159377419Y-80438094D02*
X159377419Y-80676189D01*
X159377419Y-80676189D02*
X159329800Y-80771427D01*
X159329800Y-80771427D02*
X159282180Y-80819046D01*
X158377419Y-79628570D02*
X158377419Y-79533332D01*
X158377419Y-79533332D02*
X158425038Y-79438094D01*
X158425038Y-79438094D02*
X158472657Y-79390475D01*
X158472657Y-79390475D02*
X158567895Y-79342856D01*
X158567895Y-79342856D02*
X158758371Y-79295237D01*
X158758371Y-79295237D02*
X158996466Y-79295237D01*
X158996466Y-79295237D02*
X159186942Y-79342856D01*
X159186942Y-79342856D02*
X159282180Y-79390475D01*
X159282180Y-79390475D02*
X159329800Y-79438094D01*
X159329800Y-79438094D02*
X159377419Y-79533332D01*
X159377419Y-79533332D02*
X159377419Y-79628570D01*
X159377419Y-79628570D02*
X159329800Y-79723808D01*
X159329800Y-79723808D02*
X159282180Y-79771427D01*
X159282180Y-79771427D02*
X159186942Y-79819046D01*
X159186942Y-79819046D02*
X158996466Y-79866665D01*
X158996466Y-79866665D02*
X158758371Y-79866665D01*
X158758371Y-79866665D02*
X158567895Y-79819046D01*
X158567895Y-79819046D02*
X158472657Y-79771427D01*
X158472657Y-79771427D02*
X158425038Y-79723808D01*
X158425038Y-79723808D02*
X158377419Y-79628570D01*
X159282180Y-78866665D02*
X159329800Y-78819046D01*
X159329800Y-78819046D02*
X159377419Y-78866665D01*
X159377419Y-78866665D02*
X159329800Y-78914284D01*
X159329800Y-78914284D02*
X159282180Y-78866665D01*
X159282180Y-78866665D02*
X159377419Y-78866665D01*
X158805990Y-78247618D02*
X158758371Y-78342856D01*
X158758371Y-78342856D02*
X158710752Y-78390475D01*
X158710752Y-78390475D02*
X158615514Y-78438094D01*
X158615514Y-78438094D02*
X158567895Y-78438094D01*
X158567895Y-78438094D02*
X158472657Y-78390475D01*
X158472657Y-78390475D02*
X158425038Y-78342856D01*
X158425038Y-78342856D02*
X158377419Y-78247618D01*
X158377419Y-78247618D02*
X158377419Y-78057142D01*
X158377419Y-78057142D02*
X158425038Y-77961904D01*
X158425038Y-77961904D02*
X158472657Y-77914285D01*
X158472657Y-77914285D02*
X158567895Y-77866666D01*
X158567895Y-77866666D02*
X158615514Y-77866666D01*
X158615514Y-77866666D02*
X158710752Y-77914285D01*
X158710752Y-77914285D02*
X158758371Y-77961904D01*
X158758371Y-77961904D02*
X158805990Y-78057142D01*
X158805990Y-78057142D02*
X158805990Y-78247618D01*
X158805990Y-78247618D02*
X158853609Y-78342856D01*
X158853609Y-78342856D02*
X158901228Y-78390475D01*
X158901228Y-78390475D02*
X158996466Y-78438094D01*
X158996466Y-78438094D02*
X159186942Y-78438094D01*
X159186942Y-78438094D02*
X159282180Y-78390475D01*
X159282180Y-78390475D02*
X159329800Y-78342856D01*
X159329800Y-78342856D02*
X159377419Y-78247618D01*
X159377419Y-78247618D02*
X159377419Y-78057142D01*
X159377419Y-78057142D02*
X159329800Y-77961904D01*
X159329800Y-77961904D02*
X159282180Y-77914285D01*
X159282180Y-77914285D02*
X159186942Y-77866666D01*
X159186942Y-77866666D02*
X158996466Y-77866666D01*
X158996466Y-77866666D02*
X158901228Y-77914285D01*
X158901228Y-77914285D02*
X158853609Y-77961904D01*
X158853609Y-77961904D02*
X158805990Y-78057142D01*
X158377419Y-77247618D02*
X158377419Y-77152380D01*
X158377419Y-77152380D02*
X158425038Y-77057142D01*
X158425038Y-77057142D02*
X158472657Y-77009523D01*
X158472657Y-77009523D02*
X158567895Y-76961904D01*
X158567895Y-76961904D02*
X158758371Y-76914285D01*
X158758371Y-76914285D02*
X158996466Y-76914285D01*
X158996466Y-76914285D02*
X159186942Y-76961904D01*
X159186942Y-76961904D02*
X159282180Y-77009523D01*
X159282180Y-77009523D02*
X159329800Y-77057142D01*
X159329800Y-77057142D02*
X159377419Y-77152380D01*
X159377419Y-77152380D02*
X159377419Y-77247618D01*
X159377419Y-77247618D02*
X159329800Y-77342856D01*
X159329800Y-77342856D02*
X159282180Y-77390475D01*
X159282180Y-77390475D02*
X159186942Y-77438094D01*
X159186942Y-77438094D02*
X158996466Y-77485713D01*
X158996466Y-77485713D02*
X158758371Y-77485713D01*
X158758371Y-77485713D02*
X158567895Y-77438094D01*
X158567895Y-77438094D02*
X158472657Y-77390475D01*
X158472657Y-77390475D02*
X158425038Y-77342856D01*
X158425038Y-77342856D02*
X158377419Y-77247618D01*
X158377419Y-76295237D02*
X158377419Y-76199999D01*
X158377419Y-76199999D02*
X158425038Y-76104761D01*
X158425038Y-76104761D02*
X158472657Y-76057142D01*
X158472657Y-76057142D02*
X158567895Y-76009523D01*
X158567895Y-76009523D02*
X158758371Y-75961904D01*
X158758371Y-75961904D02*
X158996466Y-75961904D01*
X158996466Y-75961904D02*
X159186942Y-76009523D01*
X159186942Y-76009523D02*
X159282180Y-76057142D01*
X159282180Y-76057142D02*
X159329800Y-76104761D01*
X159329800Y-76104761D02*
X159377419Y-76199999D01*
X159377419Y-76199999D02*
X159377419Y-76295237D01*
X159377419Y-76295237D02*
X159329800Y-76390475D01*
X159329800Y-76390475D02*
X159282180Y-76438094D01*
X159282180Y-76438094D02*
X159186942Y-76485713D01*
X159186942Y-76485713D02*
X158996466Y-76533332D01*
X158996466Y-76533332D02*
X158758371Y-76533332D01*
X158758371Y-76533332D02*
X158567895Y-76485713D01*
X158567895Y-76485713D02*
X158472657Y-76438094D01*
X158472657Y-76438094D02*
X158425038Y-76390475D01*
X158425038Y-76390475D02*
X158377419Y-76295237D01*
X158377419Y-75342856D02*
X158377419Y-75247618D01*
X158377419Y-75247618D02*
X158425038Y-75152380D01*
X158425038Y-75152380D02*
X158472657Y-75104761D01*
X158472657Y-75104761D02*
X158567895Y-75057142D01*
X158567895Y-75057142D02*
X158758371Y-75009523D01*
X158758371Y-75009523D02*
X158996466Y-75009523D01*
X158996466Y-75009523D02*
X159186942Y-75057142D01*
X159186942Y-75057142D02*
X159282180Y-75104761D01*
X159282180Y-75104761D02*
X159329800Y-75152380D01*
X159329800Y-75152380D02*
X159377419Y-75247618D01*
X159377419Y-75247618D02*
X159377419Y-75342856D01*
X159377419Y-75342856D02*
X159329800Y-75438094D01*
X159329800Y-75438094D02*
X159282180Y-75485713D01*
X159282180Y-75485713D02*
X159186942Y-75533332D01*
X159186942Y-75533332D02*
X158996466Y-75580951D01*
X158996466Y-75580951D02*
X158758371Y-75580951D01*
X158758371Y-75580951D02*
X158567895Y-75533332D01*
X158567895Y-75533332D02*
X158472657Y-75485713D01*
X158472657Y-75485713D02*
X158425038Y-75438094D01*
X158425038Y-75438094D02*
X158377419Y-75342856D01*
X159377419Y-73819046D02*
X158710752Y-73819046D01*
X158805990Y-73819046D02*
X158758371Y-73771427D01*
X158758371Y-73771427D02*
X158710752Y-73676189D01*
X158710752Y-73676189D02*
X158710752Y-73533332D01*
X158710752Y-73533332D02*
X158758371Y-73438094D01*
X158758371Y-73438094D02*
X158853609Y-73390475D01*
X158853609Y-73390475D02*
X159377419Y-73390475D01*
X158853609Y-73390475D02*
X158758371Y-73342856D01*
X158758371Y-73342856D02*
X158710752Y-73247618D01*
X158710752Y-73247618D02*
X158710752Y-73104761D01*
X158710752Y-73104761D02*
X158758371Y-73009522D01*
X158758371Y-73009522D02*
X158853609Y-72961903D01*
X158853609Y-72961903D02*
X159377419Y-72961903D01*
X159377419Y-72485713D02*
X158710752Y-72485713D01*
X158805990Y-72485713D02*
X158758371Y-72438094D01*
X158758371Y-72438094D02*
X158710752Y-72342856D01*
X158710752Y-72342856D02*
X158710752Y-72199999D01*
X158710752Y-72199999D02*
X158758371Y-72104761D01*
X158758371Y-72104761D02*
X158853609Y-72057142D01*
X158853609Y-72057142D02*
X159377419Y-72057142D01*
X158853609Y-72057142D02*
X158758371Y-72009523D01*
X158758371Y-72009523D02*
X158710752Y-71914285D01*
X158710752Y-71914285D02*
X158710752Y-71771428D01*
X158710752Y-71771428D02*
X158758371Y-71676189D01*
X158758371Y-71676189D02*
X158853609Y-71628570D01*
X158853609Y-71628570D02*
X159377419Y-71628570D01*
X152900000Y-101600000D02*
X160606420Y-101600000D01*
X152900000Y-50800000D02*
X160606420Y-50800000D01*
X160020000Y-101600000D02*
X160020000Y-50800000D01*
X160020000Y-101600000D02*
X160020000Y-50800000D01*
X160020000Y-101600000D02*
X159433579Y-100473496D01*
X160020000Y-101600000D02*
X160606421Y-100473496D01*
X160020000Y-50800000D02*
X160606421Y-51926504D01*
X160020000Y-50800000D02*
X159433579Y-51926504D01*
D11*
X122036819Y-66206666D02*
X121560628Y-66539999D01*
X122036819Y-66778094D02*
X121036819Y-66778094D01*
X121036819Y-66778094D02*
X121036819Y-66397142D01*
X121036819Y-66397142D02*
X121084438Y-66301904D01*
X121084438Y-66301904D02*
X121132057Y-66254285D01*
X121132057Y-66254285D02*
X121227295Y-66206666D01*
X121227295Y-66206666D02*
X121370152Y-66206666D01*
X121370152Y-66206666D02*
X121465390Y-66254285D01*
X121465390Y-66254285D02*
X121513009Y-66301904D01*
X121513009Y-66301904D02*
X121560628Y-66397142D01*
X121560628Y-66397142D02*
X121560628Y-66778094D01*
X122036819Y-65254285D02*
X122036819Y-65825713D01*
X122036819Y-65539999D02*
X121036819Y-65539999D01*
X121036819Y-65539999D02*
X121179676Y-65635237D01*
X121179676Y-65635237D02*
X121274914Y-65730475D01*
X121274914Y-65730475D02*
X121322533Y-65825713D01*
X123269523Y-83258819D02*
X122793333Y-83258819D01*
X122793333Y-83258819D02*
X122793333Y-82258819D01*
X123460000Y-82592152D02*
X123840952Y-82592152D01*
X123602857Y-82258819D02*
X123602857Y-83115961D01*
X123602857Y-83115961D02*
X123650476Y-83211200D01*
X123650476Y-83211200D02*
X123745714Y-83258819D01*
X123745714Y-83258819D02*
X123840952Y-83258819D01*
X124602857Y-82592152D02*
X124602857Y-83258819D01*
X124174286Y-82592152D02*
X124174286Y-83115961D01*
X124174286Y-83115961D02*
X124221905Y-83211200D01*
X124221905Y-83211200D02*
X124317143Y-83258819D01*
X124317143Y-83258819D02*
X124460000Y-83258819D01*
X124460000Y-83258819D02*
X124555238Y-83211200D01*
X124555238Y-83211200D02*
X124602857Y-83163580D01*
X125079048Y-83258819D02*
X125079048Y-82592152D01*
X125079048Y-82782628D02*
X125126667Y-82687390D01*
X125126667Y-82687390D02*
X125174286Y-82639771D01*
X125174286Y-82639771D02*
X125269524Y-82592152D01*
X125269524Y-82592152D02*
X125364762Y-82592152D01*
X125698096Y-82592152D02*
X125698096Y-83258819D01*
X125698096Y-82687390D02*
X125745715Y-82639771D01*
X125745715Y-82639771D02*
X125840953Y-82592152D01*
X125840953Y-82592152D02*
X125983810Y-82592152D01*
X125983810Y-82592152D02*
X126079048Y-82639771D01*
X126079048Y-82639771D02*
X126126667Y-82735009D01*
X126126667Y-82735009D02*
X126126667Y-83258819D01*
X112926667Y-70288500D02*
X113069524Y-70336119D01*
X113069524Y-70336119D02*
X113307619Y-70336119D01*
X113307619Y-70336119D02*
X113402857Y-70288500D01*
X113402857Y-70288500D02*
X113450476Y-70240880D01*
X113450476Y-70240880D02*
X113498095Y-70145642D01*
X113498095Y-70145642D02*
X113498095Y-70050404D01*
X113498095Y-70050404D02*
X113450476Y-69955166D01*
X113450476Y-69955166D02*
X113402857Y-69907547D01*
X113402857Y-69907547D02*
X113307619Y-69859928D01*
X113307619Y-69859928D02*
X113117143Y-69812309D01*
X113117143Y-69812309D02*
X113021905Y-69764690D01*
X113021905Y-69764690D02*
X112974286Y-69717071D01*
X112974286Y-69717071D02*
X112926667Y-69621833D01*
X112926667Y-69621833D02*
X112926667Y-69526595D01*
X112926667Y-69526595D02*
X112974286Y-69431357D01*
X112974286Y-69431357D02*
X113021905Y-69383738D01*
X113021905Y-69383738D02*
X113117143Y-69336119D01*
X113117143Y-69336119D02*
X113355238Y-69336119D01*
X113355238Y-69336119D02*
X113498095Y-69383738D01*
X113831429Y-69336119D02*
X114069524Y-70336119D01*
X114069524Y-70336119D02*
X114260000Y-69621833D01*
X114260000Y-69621833D02*
X114450476Y-70336119D01*
X114450476Y-70336119D02*
X114688572Y-69336119D01*
X115593333Y-70336119D02*
X115021905Y-70336119D01*
X115307619Y-70336119D02*
X115307619Y-69336119D01*
X115307619Y-69336119D02*
X115212381Y-69478976D01*
X115212381Y-69478976D02*
X115117143Y-69574214D01*
X115117143Y-69574214D02*
X115021905Y-69621833D01*
X133977142Y-82306438D02*
X133881904Y-82258819D01*
X133881904Y-82258819D02*
X133739047Y-82258819D01*
X133739047Y-82258819D02*
X133596190Y-82306438D01*
X133596190Y-82306438D02*
X133500952Y-82401676D01*
X133500952Y-82401676D02*
X133453333Y-82496914D01*
X133453333Y-82496914D02*
X133405714Y-82687390D01*
X133405714Y-82687390D02*
X133405714Y-82830247D01*
X133405714Y-82830247D02*
X133453333Y-83020723D01*
X133453333Y-83020723D02*
X133500952Y-83115961D01*
X133500952Y-83115961D02*
X133596190Y-83211200D01*
X133596190Y-83211200D02*
X133739047Y-83258819D01*
X133739047Y-83258819D02*
X133834285Y-83258819D01*
X133834285Y-83258819D02*
X133977142Y-83211200D01*
X133977142Y-83211200D02*
X134024761Y-83163580D01*
X134024761Y-83163580D02*
X134024761Y-82830247D01*
X134024761Y-82830247D02*
X133834285Y-82830247D01*
X134453333Y-82592152D02*
X134453333Y-83258819D01*
X134453333Y-82687390D02*
X134500952Y-82639771D01*
X134500952Y-82639771D02*
X134596190Y-82592152D01*
X134596190Y-82592152D02*
X134739047Y-82592152D01*
X134739047Y-82592152D02*
X134834285Y-82639771D01*
X134834285Y-82639771D02*
X134881904Y-82735009D01*
X134881904Y-82735009D02*
X134881904Y-83258819D01*
X135786666Y-83258819D02*
X135786666Y-82258819D01*
X135786666Y-83211200D02*
X135691428Y-83258819D01*
X135691428Y-83258819D02*
X135500952Y-83258819D01*
X135500952Y-83258819D02*
X135405714Y-83211200D01*
X135405714Y-83211200D02*
X135358095Y-83163580D01*
X135358095Y-83163580D02*
X135310476Y-83068342D01*
X135310476Y-83068342D02*
X135310476Y-82782628D01*
X135310476Y-82782628D02*
X135358095Y-82687390D01*
X135358095Y-82687390D02*
X135405714Y-82639771D01*
X135405714Y-82639771D02*
X135500952Y-82592152D01*
X135500952Y-82592152D02*
X135691428Y-82592152D01*
X135691428Y-82592152D02*
X135786666Y-82639771D01*
X128136819Y-66206666D02*
X127660628Y-66539999D01*
X128136819Y-66778094D02*
X127136819Y-66778094D01*
X127136819Y-66778094D02*
X127136819Y-66397142D01*
X127136819Y-66397142D02*
X127184438Y-66301904D01*
X127184438Y-66301904D02*
X127232057Y-66254285D01*
X127232057Y-66254285D02*
X127327295Y-66206666D01*
X127327295Y-66206666D02*
X127470152Y-66206666D01*
X127470152Y-66206666D02*
X127565390Y-66254285D01*
X127565390Y-66254285D02*
X127613009Y-66301904D01*
X127613009Y-66301904D02*
X127660628Y-66397142D01*
X127660628Y-66397142D02*
X127660628Y-66778094D01*
X127232057Y-65825713D02*
X127184438Y-65778094D01*
X127184438Y-65778094D02*
X127136819Y-65682856D01*
X127136819Y-65682856D02*
X127136819Y-65444761D01*
X127136819Y-65444761D02*
X127184438Y-65349523D01*
X127184438Y-65349523D02*
X127232057Y-65301904D01*
X127232057Y-65301904D02*
X127327295Y-65254285D01*
X127327295Y-65254285D02*
X127422533Y-65254285D01*
X127422533Y-65254285D02*
X127565390Y-65301904D01*
X127565390Y-65301904D02*
X128136819Y-65873332D01*
X128136819Y-65873332D02*
X128136819Y-65254285D01*
X113556905Y-52628819D02*
X113556905Y-51628819D01*
X113556905Y-51628819D02*
X113795000Y-51628819D01*
X113795000Y-51628819D02*
X113937857Y-51676438D01*
X113937857Y-51676438D02*
X114033095Y-51771676D01*
X114033095Y-51771676D02*
X114080714Y-51866914D01*
X114080714Y-51866914D02*
X114128333Y-52057390D01*
X114128333Y-52057390D02*
X114128333Y-52200247D01*
X114128333Y-52200247D02*
X114080714Y-52390723D01*
X114080714Y-52390723D02*
X114033095Y-52485961D01*
X114033095Y-52485961D02*
X113937857Y-52581200D01*
X113937857Y-52581200D02*
X113795000Y-52628819D01*
X113795000Y-52628819D02*
X113556905Y-52628819D01*
X115080714Y-52628819D02*
X114509286Y-52628819D01*
X114795000Y-52628819D02*
X114795000Y-51628819D01*
X114795000Y-51628819D02*
X114699762Y-51771676D01*
X114699762Y-51771676D02*
X114604524Y-51866914D01*
X114604524Y-51866914D02*
X114509286Y-51914533D01*
X135913905Y-52646739D02*
X135913905Y-51646739D01*
X135913905Y-51646739D02*
X136152000Y-51646739D01*
X136152000Y-51646739D02*
X136294857Y-51694358D01*
X136294857Y-51694358D02*
X136390095Y-51789596D01*
X136390095Y-51789596D02*
X136437714Y-51884834D01*
X136437714Y-51884834D02*
X136485333Y-52075310D01*
X136485333Y-52075310D02*
X136485333Y-52218167D01*
X136485333Y-52218167D02*
X136437714Y-52408643D01*
X136437714Y-52408643D02*
X136390095Y-52503881D01*
X136390095Y-52503881D02*
X136294857Y-52599120D01*
X136294857Y-52599120D02*
X136152000Y-52646739D01*
X136152000Y-52646739D02*
X135913905Y-52646739D01*
X136866286Y-51741977D02*
X136913905Y-51694358D01*
X136913905Y-51694358D02*
X137009143Y-51646739D01*
X137009143Y-51646739D02*
X137247238Y-51646739D01*
X137247238Y-51646739D02*
X137342476Y-51694358D01*
X137342476Y-51694358D02*
X137390095Y-51741977D01*
X137390095Y-51741977D02*
X137437714Y-51837215D01*
X137437714Y-51837215D02*
X137437714Y-51932453D01*
X137437714Y-51932453D02*
X137390095Y-52075310D01*
X137390095Y-52075310D02*
X136818667Y-52646739D01*
X136818667Y-52646739D02*
X137437714Y-52646739D01*
X117570476Y-82258819D02*
X117903809Y-83258819D01*
X117903809Y-83258819D02*
X118237142Y-82258819D01*
X118570476Y-83258819D02*
X118570476Y-82258819D01*
X118570476Y-82639771D02*
X118665714Y-82592152D01*
X118665714Y-82592152D02*
X118856190Y-82592152D01*
X118856190Y-82592152D02*
X118951428Y-82639771D01*
X118951428Y-82639771D02*
X118999047Y-82687390D01*
X118999047Y-82687390D02*
X119046666Y-82782628D01*
X119046666Y-82782628D02*
X119046666Y-83068342D01*
X119046666Y-83068342D02*
X118999047Y-83163580D01*
X118999047Y-83163580D02*
X118951428Y-83211200D01*
X118951428Y-83211200D02*
X118856190Y-83258819D01*
X118856190Y-83258819D02*
X118665714Y-83258819D01*
X118665714Y-83258819D02*
X118570476Y-83211200D01*
X119903809Y-83258819D02*
X119903809Y-82735009D01*
X119903809Y-82735009D02*
X119856190Y-82639771D01*
X119856190Y-82639771D02*
X119760952Y-82592152D01*
X119760952Y-82592152D02*
X119570476Y-82592152D01*
X119570476Y-82592152D02*
X119475238Y-82639771D01*
X119903809Y-83211200D02*
X119808571Y-83258819D01*
X119808571Y-83258819D02*
X119570476Y-83258819D01*
X119570476Y-83258819D02*
X119475238Y-83211200D01*
X119475238Y-83211200D02*
X119427619Y-83115961D01*
X119427619Y-83115961D02*
X119427619Y-83020723D01*
X119427619Y-83020723D02*
X119475238Y-82925485D01*
X119475238Y-82925485D02*
X119570476Y-82877866D01*
X119570476Y-82877866D02*
X119808571Y-82877866D01*
X119808571Y-82877866D02*
X119903809Y-82830247D01*
X120237143Y-82592152D02*
X120618095Y-82592152D01*
X120380000Y-82258819D02*
X120380000Y-83115961D01*
X120380000Y-83115961D02*
X120427619Y-83211200D01*
X120427619Y-83211200D02*
X120522857Y-83258819D01*
X120522857Y-83258819D02*
X120618095Y-83258819D01*
X120808572Y-82592152D02*
X121189524Y-82592152D01*
X120951429Y-82258819D02*
X120951429Y-83115961D01*
X120951429Y-83115961D02*
X120999048Y-83211200D01*
X120999048Y-83211200D02*
X121094286Y-83258819D01*
X121094286Y-83258819D02*
X121189524Y-83258819D01*
X138406667Y-70288500D02*
X138549524Y-70336119D01*
X138549524Y-70336119D02*
X138787619Y-70336119D01*
X138787619Y-70336119D02*
X138882857Y-70288500D01*
X138882857Y-70288500D02*
X138930476Y-70240880D01*
X138930476Y-70240880D02*
X138978095Y-70145642D01*
X138978095Y-70145642D02*
X138978095Y-70050404D01*
X138978095Y-70050404D02*
X138930476Y-69955166D01*
X138930476Y-69955166D02*
X138882857Y-69907547D01*
X138882857Y-69907547D02*
X138787619Y-69859928D01*
X138787619Y-69859928D02*
X138597143Y-69812309D01*
X138597143Y-69812309D02*
X138501905Y-69764690D01*
X138501905Y-69764690D02*
X138454286Y-69717071D01*
X138454286Y-69717071D02*
X138406667Y-69621833D01*
X138406667Y-69621833D02*
X138406667Y-69526595D01*
X138406667Y-69526595D02*
X138454286Y-69431357D01*
X138454286Y-69431357D02*
X138501905Y-69383738D01*
X138501905Y-69383738D02*
X138597143Y-69336119D01*
X138597143Y-69336119D02*
X138835238Y-69336119D01*
X138835238Y-69336119D02*
X138978095Y-69383738D01*
X139311429Y-69336119D02*
X139549524Y-70336119D01*
X139549524Y-70336119D02*
X139740000Y-69621833D01*
X139740000Y-69621833D02*
X139930476Y-70336119D01*
X139930476Y-70336119D02*
X140168572Y-69336119D01*
X140501905Y-69431357D02*
X140549524Y-69383738D01*
X140549524Y-69383738D02*
X140644762Y-69336119D01*
X140644762Y-69336119D02*
X140882857Y-69336119D01*
X140882857Y-69336119D02*
X140978095Y-69383738D01*
X140978095Y-69383738D02*
X141025714Y-69431357D01*
X141025714Y-69431357D02*
X141073333Y-69526595D01*
X141073333Y-69526595D02*
X141073333Y-69621833D01*
X141073333Y-69621833D02*
X141025714Y-69764690D01*
X141025714Y-69764690D02*
X140454286Y-70336119D01*
X140454286Y-70336119D02*
X141073333Y-70336119D01*
X126666666Y-87754819D02*
X126666666Y-88469104D01*
X126666666Y-88469104D02*
X126619047Y-88611961D01*
X126619047Y-88611961D02*
X126523809Y-88707200D01*
X126523809Y-88707200D02*
X126380952Y-88754819D01*
X126380952Y-88754819D02*
X126285714Y-88754819D01*
X127666666Y-88754819D02*
X127095238Y-88754819D01*
X127380952Y-88754819D02*
X127380952Y-87754819D01*
X127380952Y-87754819D02*
X127285714Y-87897676D01*
X127285714Y-87897676D02*
X127190476Y-87992914D01*
X127190476Y-87992914D02*
X127095238Y-88040533D01*
X128349523Y-83258819D02*
X128016190Y-82782628D01*
X127778095Y-83258819D02*
X127778095Y-82258819D01*
X127778095Y-82258819D02*
X128159047Y-82258819D01*
X128159047Y-82258819D02*
X128254285Y-82306438D01*
X128254285Y-82306438D02*
X128301904Y-82354057D01*
X128301904Y-82354057D02*
X128349523Y-82449295D01*
X128349523Y-82449295D02*
X128349523Y-82592152D01*
X128349523Y-82592152D02*
X128301904Y-82687390D01*
X128301904Y-82687390D02*
X128254285Y-82735009D01*
X128254285Y-82735009D02*
X128159047Y-82782628D01*
X128159047Y-82782628D02*
X127778095Y-82782628D01*
X128635238Y-82592152D02*
X129016190Y-82592152D01*
X128778095Y-82258819D02*
X128778095Y-83115961D01*
X128778095Y-83115961D02*
X128825714Y-83211200D01*
X128825714Y-83211200D02*
X128920952Y-83258819D01*
X128920952Y-83258819D02*
X129016190Y-83258819D01*
X129778095Y-82592152D02*
X129778095Y-83258819D01*
X129349524Y-82592152D02*
X129349524Y-83115961D01*
X129349524Y-83115961D02*
X129397143Y-83211200D01*
X129397143Y-83211200D02*
X129492381Y-83258819D01*
X129492381Y-83258819D02*
X129635238Y-83258819D01*
X129635238Y-83258819D02*
X129730476Y-83211200D01*
X129730476Y-83211200D02*
X129778095Y-83163580D01*
X130254286Y-83258819D02*
X130254286Y-82592152D01*
X130254286Y-82782628D02*
X130301905Y-82687390D01*
X130301905Y-82687390D02*
X130349524Y-82639771D01*
X130349524Y-82639771D02*
X130444762Y-82592152D01*
X130444762Y-82592152D02*
X130540000Y-82592152D01*
X130873334Y-82592152D02*
X130873334Y-83258819D01*
X130873334Y-82687390D02*
X130920953Y-82639771D01*
X130920953Y-82639771D02*
X131016191Y-82592152D01*
X131016191Y-82592152D02*
X131159048Y-82592152D01*
X131159048Y-82592152D02*
X131254286Y-82639771D01*
X131254286Y-82639771D02*
X131301905Y-82735009D01*
X131301905Y-82735009D02*
X131301905Y-83258819D01*
D12*
%TO.C,R1*%
X122582000Y-62770000D02*
X122582000Y-69310000D01*
X122582000Y-69310000D02*
X125322000Y-69310000D01*
X123952000Y-62000000D02*
X123952000Y-62770000D01*
X123952000Y-70080000D02*
X123952000Y-69310000D01*
X125322000Y-62770000D02*
X122582000Y-62770000D01*
X125322000Y-69310000D02*
X125322000Y-62770000D01*
D11*
%TO.C,TP2*%
X125860000Y-85344000D02*
G75*
G02*
X123060000Y-85344000I-1400000J0D01*
G01*
X123060000Y-85344000D02*
G75*
G02*
X125860000Y-85344000I1400000J0D01*
G01*
D12*
%TO.C,SW1*%
X108990000Y-71661300D02*
X108990000Y-70661300D01*
X109240000Y-80351300D02*
X109240000Y-70911300D01*
X109990000Y-70661300D02*
X108990000Y-70661300D01*
X112560000Y-73931300D02*
X112560000Y-77231300D01*
X115860000Y-73931300D02*
X112560000Y-73931300D01*
X115860000Y-73931300D02*
X115860000Y-77231300D01*
X115860000Y-77231300D02*
X112560000Y-77231300D01*
X119280000Y-70911300D02*
X109240000Y-70911300D01*
X119280000Y-80351300D02*
X109240000Y-80351300D01*
X119280000Y-80351300D02*
X119280000Y-70911300D01*
D11*
%TO.C,TP4*%
X136020000Y-85344000D02*
G75*
G02*
X133220000Y-85344000I-1400000J0D01*
G01*
X133220000Y-85344000D02*
G75*
G02*
X136020000Y-85344000I1400000J0D01*
G01*
D12*
%TO.C,R2*%
X128682000Y-62770000D02*
X128682000Y-69310000D01*
X128682000Y-69310000D02*
X131422000Y-69310000D01*
X130052000Y-62000000D02*
X130052000Y-62770000D01*
X130052000Y-70080000D02*
X130052000Y-69310000D01*
X131422000Y-62770000D02*
X128682000Y-62770000D01*
X131422000Y-69310000D02*
X131422000Y-62770000D01*
%TO.C,D1*%
X111735000Y-54589000D02*
X111735000Y-57679000D01*
X111735000Y-54589170D02*
G75*
G02*
X117285000Y-56133952I2560000J-1544830D01*
G01*
X117285000Y-56134048D02*
G75*
G02*
X111735000Y-57678830I-2990000J48D01*
G01*
X116795000Y-56134000D02*
G75*
G02*
X111795000Y-56134000I-2500000J0D01*
G01*
X111795000Y-56134000D02*
G75*
G02*
X116795000Y-56134000I2500000J0D01*
G01*
%TO.C,D2*%
X139212000Y-57679000D02*
X139212000Y-54589000D01*
X133662000Y-56133952D02*
G75*
G02*
X139212000Y-54589170I2990000J-48D01*
G01*
X139212000Y-57678830D02*
G75*
G02*
X133662000Y-56134048I-2560000J1544830D01*
G01*
X139152000Y-56134000D02*
G75*
G02*
X134152000Y-56134000I-2500000J0D01*
G01*
X134152000Y-56134000D02*
G75*
G02*
X139152000Y-56134000I2500000J0D01*
G01*
D11*
%TO.C,TP1*%
X120780000Y-85344000D02*
G75*
G02*
X117980000Y-85344000I-1400000J0D01*
G01*
X117980000Y-85344000D02*
G75*
G02*
X120780000Y-85344000I1400000J0D01*
G01*
D12*
%TO.C,SW2*%
X134470000Y-71661300D02*
X134470000Y-70661300D01*
X134720000Y-80351300D02*
X134720000Y-70911300D01*
X135470000Y-70661300D02*
X134470000Y-70661300D01*
X138040000Y-73931300D02*
X138040000Y-77231300D01*
X141340000Y-73931300D02*
X138040000Y-73931300D01*
X141340000Y-73931300D02*
X141340000Y-77231300D01*
X141340000Y-77231300D02*
X138040000Y-77231300D01*
X144760000Y-70911300D02*
X134720000Y-70911300D01*
X144760000Y-80351300D02*
X134720000Y-80351300D01*
X144760000Y-80351300D02*
X144760000Y-70911300D01*
%TO.C,J1*%
X120690000Y-89390000D02*
X122110000Y-89390000D01*
X120690000Y-101110000D02*
X120690000Y-89390000D01*
X122110000Y-89390000D02*
X122110000Y-93890000D01*
X122950000Y-91300000D02*
X123550000Y-91300000D01*
X123000000Y-95000000D02*
X123000000Y-100500000D01*
X123000000Y-100500000D02*
X123500000Y-100500000D01*
X123250000Y-91900000D02*
X122950000Y-91300000D01*
X123500000Y-95000000D02*
X123000000Y-95000000D01*
X123500000Y-100500000D02*
X123500000Y-95000000D01*
X123550000Y-91300000D02*
X123250000Y-91900000D01*
X125500000Y-95000000D02*
X125500000Y-100500000D01*
X125500000Y-100500000D02*
X126000000Y-100500000D01*
X126000000Y-95000000D02*
X125500000Y-95000000D01*
X126000000Y-100500000D02*
X126000000Y-95000000D01*
X127000000Y-101110000D02*
X120690000Y-101110000D01*
X127000000Y-101110000D02*
X133310000Y-101110000D01*
X128000000Y-95000000D02*
X128000000Y-100500000D01*
X128000000Y-100500000D02*
X128500000Y-100500000D01*
X128500000Y-95000000D02*
X128000000Y-95000000D01*
X128500000Y-100500000D02*
X128500000Y-95000000D01*
X130500000Y-95000000D02*
X130500000Y-100500000D01*
X130500000Y-100500000D02*
X131000000Y-100500000D01*
X131000000Y-95000000D02*
X130500000Y-95000000D01*
X131000000Y-100500000D02*
X131000000Y-95000000D01*
X131890000Y-89390000D02*
X131890000Y-93890000D01*
X133310000Y-89390000D02*
X131890000Y-89390000D01*
X133310000Y-101110000D02*
X133310000Y-89390000D01*
D11*
%TO.C,TP3*%
X130940000Y-85344000D02*
G75*
G02*
X128140000Y-85344000I-1400000J0D01*
G01*
X128140000Y-85344000D02*
G75*
G02*
X130940000Y-85344000I1400000J0D01*
G01*
%TD*%
M02*
