M48
; DRILL file {KiCad 8.0.8} date 2025-03-31T22:30:46-0400
; FORMAT={-:-/ absolute / inch / decimal}
; #@! TF.CreationDate,2025-03-31T22:30:46-04:00
; #@! TF.GenerationSoftware,Kicad,Pcbnew,8.0.8
; #@! TF.FileFunction,Plated,1,2,PTH
FMAT,2
INCH
; #@! TA.AperFunction,Plated,PTH,ComponentDrill
T1C0.0315
; #@! TA.AperFunction,Plated,PTH,ComponentDrill
T2C0.0354
; #@! TA.AperFunction,Plated,PTH,ComponentDrill
T3C0.0374
; #@! TA.AperFunction,Plated,PTH,ComponentDrill
T4C0.0394
%
G90
G05
T1
X4.5276Y-2.5016
X4.9276Y-2.5016
X5.0913Y-2.5016
X5.4913Y-2.5016
T2
X4.4498Y-2.21
X4.4591Y-2.7512
X4.4591Y-2.9875
X4.5498Y-2.21
X4.5575Y-2.7512
X4.5575Y-2.9875
X4.6559Y-2.7512
X4.6559Y-2.9875
X5.3441Y-2.7512
X5.3441Y-2.9875
X5.4425Y-2.7512
X5.4425Y-2.9875
X5.4502Y-2.21
X5.5409Y-2.7512
X5.5409Y-2.9875
X5.5502Y-2.21
T3
X4.8524Y-3.5689
X4.9508Y-3.5689
X5.0492Y-3.5689
X5.1476Y-3.5689
T4
X4.7Y-3.2517
X4.9Y-3.2517
X5.1Y-3.2517
X5.3Y-3.2517
M30
