%TF.GenerationSoftware,KiCad,Pcbnew,8.0.8*%
%TF.CreationDate,2025-03-31T22:30:43-04:00*%
%TF.ProjectId,rear_lights_unit_control_box,72656172-5f6c-4696-9768-74735f756e69,0*%
%TF.SameCoordinates,Original*%
%TF.FileFunction,Legend,Top*%
%TF.FilePolarity,Positive*%
%FSLAX46Y46*%
G04 Gerber Fmt 4.6, Leading zero omitted, Abs format (unit mm)*
G04 Created by KiCad (PCBNEW 8.0.8) date 2025-03-31 22:30:43*
%MOMM*%
%LPD*%
G01*
G04 APERTURE LIST*
%ADD10C,0.150000*%
%ADD11C,0.120000*%
G04 APERTURE END LIST*
D10*
X120033333Y-61654819D02*
X119700000Y-61178628D01*
X119461905Y-61654819D02*
X119461905Y-60654819D01*
X119461905Y-60654819D02*
X119842857Y-60654819D01*
X119842857Y-60654819D02*
X119938095Y-60702438D01*
X119938095Y-60702438D02*
X119985714Y-60750057D01*
X119985714Y-60750057D02*
X120033333Y-60845295D01*
X120033333Y-60845295D02*
X120033333Y-60988152D01*
X120033333Y-60988152D02*
X119985714Y-61083390D01*
X119985714Y-61083390D02*
X119938095Y-61131009D01*
X119938095Y-61131009D02*
X119842857Y-61178628D01*
X119842857Y-61178628D02*
X119461905Y-61178628D01*
X120985714Y-61654819D02*
X120414286Y-61654819D01*
X120700000Y-61654819D02*
X120700000Y-60654819D01*
X120700000Y-60654819D02*
X120604762Y-60797676D01*
X120604762Y-60797676D02*
X120509524Y-60892914D01*
X120509524Y-60892914D02*
X120414286Y-60940533D01*
X123507618Y-80508819D02*
X123031428Y-80508819D01*
X123031428Y-80508819D02*
X123031428Y-79508819D01*
X123840952Y-79985009D02*
X124174285Y-79985009D01*
X124317142Y-80508819D02*
X123840952Y-80508819D01*
X123840952Y-80508819D02*
X123840952Y-79508819D01*
X123840952Y-79508819D02*
X124317142Y-79508819D01*
X125079047Y-79985009D02*
X124745714Y-79985009D01*
X124745714Y-80508819D02*
X124745714Y-79508819D01*
X124745714Y-79508819D02*
X125221904Y-79508819D01*
X125460000Y-79508819D02*
X126031428Y-79508819D01*
X125745714Y-80508819D02*
X125745714Y-79508819D01*
X114426667Y-67538500D02*
X114569524Y-67586119D01*
X114569524Y-67586119D02*
X114807619Y-67586119D01*
X114807619Y-67586119D02*
X114902857Y-67538500D01*
X114902857Y-67538500D02*
X114950476Y-67490880D01*
X114950476Y-67490880D02*
X114998095Y-67395642D01*
X114998095Y-67395642D02*
X114998095Y-67300404D01*
X114998095Y-67300404D02*
X114950476Y-67205166D01*
X114950476Y-67205166D02*
X114902857Y-67157547D01*
X114902857Y-67157547D02*
X114807619Y-67109928D01*
X114807619Y-67109928D02*
X114617143Y-67062309D01*
X114617143Y-67062309D02*
X114521905Y-67014690D01*
X114521905Y-67014690D02*
X114474286Y-66967071D01*
X114474286Y-66967071D02*
X114426667Y-66871833D01*
X114426667Y-66871833D02*
X114426667Y-66776595D01*
X114426667Y-66776595D02*
X114474286Y-66681357D01*
X114474286Y-66681357D02*
X114521905Y-66633738D01*
X114521905Y-66633738D02*
X114617143Y-66586119D01*
X114617143Y-66586119D02*
X114855238Y-66586119D01*
X114855238Y-66586119D02*
X114998095Y-66633738D01*
X115331429Y-66586119D02*
X115569524Y-67586119D01*
X115569524Y-67586119D02*
X115760000Y-66871833D01*
X115760000Y-66871833D02*
X115950476Y-67586119D01*
X115950476Y-67586119D02*
X116188572Y-66586119D01*
X117093333Y-67586119D02*
X116521905Y-67586119D01*
X116807619Y-67586119D02*
X116807619Y-66586119D01*
X116807619Y-66586119D02*
X116712381Y-66728976D01*
X116712381Y-66728976D02*
X116617143Y-66824214D01*
X116617143Y-66824214D02*
X116521905Y-66871833D01*
X133858095Y-79556438D02*
X133762857Y-79508819D01*
X133762857Y-79508819D02*
X133620000Y-79508819D01*
X133620000Y-79508819D02*
X133477143Y-79556438D01*
X133477143Y-79556438D02*
X133381905Y-79651676D01*
X133381905Y-79651676D02*
X133334286Y-79746914D01*
X133334286Y-79746914D02*
X133286667Y-79937390D01*
X133286667Y-79937390D02*
X133286667Y-80080247D01*
X133286667Y-80080247D02*
X133334286Y-80270723D01*
X133334286Y-80270723D02*
X133381905Y-80365961D01*
X133381905Y-80365961D02*
X133477143Y-80461200D01*
X133477143Y-80461200D02*
X133620000Y-80508819D01*
X133620000Y-80508819D02*
X133715238Y-80508819D01*
X133715238Y-80508819D02*
X133858095Y-80461200D01*
X133858095Y-80461200D02*
X133905714Y-80413580D01*
X133905714Y-80413580D02*
X133905714Y-80080247D01*
X133905714Y-80080247D02*
X133715238Y-80080247D01*
X134334286Y-80508819D02*
X134334286Y-79508819D01*
X134334286Y-79508819D02*
X134905714Y-80508819D01*
X134905714Y-80508819D02*
X134905714Y-79508819D01*
X135381905Y-80508819D02*
X135381905Y-79508819D01*
X135381905Y-79508819D02*
X135620000Y-79508819D01*
X135620000Y-79508819D02*
X135762857Y-79556438D01*
X135762857Y-79556438D02*
X135858095Y-79651676D01*
X135858095Y-79651676D02*
X135905714Y-79746914D01*
X135905714Y-79746914D02*
X135953333Y-79937390D01*
X135953333Y-79937390D02*
X135953333Y-80080247D01*
X135953333Y-80080247D02*
X135905714Y-80270723D01*
X135905714Y-80270723D02*
X135858095Y-80365961D01*
X135858095Y-80365961D02*
X135762857Y-80461200D01*
X135762857Y-80461200D02*
X135620000Y-80508819D01*
X135620000Y-80508819D02*
X135381905Y-80508819D01*
X134233333Y-61654819D02*
X133900000Y-61178628D01*
X133661905Y-61654819D02*
X133661905Y-60654819D01*
X133661905Y-60654819D02*
X134042857Y-60654819D01*
X134042857Y-60654819D02*
X134138095Y-60702438D01*
X134138095Y-60702438D02*
X134185714Y-60750057D01*
X134185714Y-60750057D02*
X134233333Y-60845295D01*
X134233333Y-60845295D02*
X134233333Y-60988152D01*
X134233333Y-60988152D02*
X134185714Y-61083390D01*
X134185714Y-61083390D02*
X134138095Y-61131009D01*
X134138095Y-61131009D02*
X134042857Y-61178628D01*
X134042857Y-61178628D02*
X133661905Y-61178628D01*
X134614286Y-60750057D02*
X134661905Y-60702438D01*
X134661905Y-60702438D02*
X134757143Y-60654819D01*
X134757143Y-60654819D02*
X134995238Y-60654819D01*
X134995238Y-60654819D02*
X135090476Y-60702438D01*
X135090476Y-60702438D02*
X135138095Y-60750057D01*
X135138095Y-60750057D02*
X135185714Y-60845295D01*
X135185714Y-60845295D02*
X135185714Y-60940533D01*
X135185714Y-60940533D02*
X135138095Y-61083390D01*
X135138095Y-61083390D02*
X134566667Y-61654819D01*
X134566667Y-61654819D02*
X135185714Y-61654819D01*
X113556905Y-52628819D02*
X113556905Y-51628819D01*
X113556905Y-51628819D02*
X113795000Y-51628819D01*
X113795000Y-51628819D02*
X113937857Y-51676438D01*
X113937857Y-51676438D02*
X114033095Y-51771676D01*
X114033095Y-51771676D02*
X114080714Y-51866914D01*
X114080714Y-51866914D02*
X114128333Y-52057390D01*
X114128333Y-52057390D02*
X114128333Y-52200247D01*
X114128333Y-52200247D02*
X114080714Y-52390723D01*
X114080714Y-52390723D02*
X114033095Y-52485961D01*
X114033095Y-52485961D02*
X113937857Y-52581200D01*
X113937857Y-52581200D02*
X113795000Y-52628819D01*
X113795000Y-52628819D02*
X113556905Y-52628819D01*
X115080714Y-52628819D02*
X114509286Y-52628819D01*
X114795000Y-52628819D02*
X114795000Y-51628819D01*
X114795000Y-51628819D02*
X114699762Y-51771676D01*
X114699762Y-51771676D02*
X114604524Y-51866914D01*
X114604524Y-51866914D02*
X114509286Y-51914533D01*
X138965905Y-52646739D02*
X138965905Y-51646739D01*
X138965905Y-51646739D02*
X139204000Y-51646739D01*
X139204000Y-51646739D02*
X139346857Y-51694358D01*
X139346857Y-51694358D02*
X139442095Y-51789596D01*
X139442095Y-51789596D02*
X139489714Y-51884834D01*
X139489714Y-51884834D02*
X139537333Y-52075310D01*
X139537333Y-52075310D02*
X139537333Y-52218167D01*
X139537333Y-52218167D02*
X139489714Y-52408643D01*
X139489714Y-52408643D02*
X139442095Y-52503881D01*
X139442095Y-52503881D02*
X139346857Y-52599120D01*
X139346857Y-52599120D02*
X139204000Y-52646739D01*
X139204000Y-52646739D02*
X138965905Y-52646739D01*
X139918286Y-51741977D02*
X139965905Y-51694358D01*
X139965905Y-51694358D02*
X140061143Y-51646739D01*
X140061143Y-51646739D02*
X140299238Y-51646739D01*
X140299238Y-51646739D02*
X140394476Y-51694358D01*
X140394476Y-51694358D02*
X140442095Y-51741977D01*
X140442095Y-51741977D02*
X140489714Y-51837215D01*
X140489714Y-51837215D02*
X140489714Y-51932453D01*
X140489714Y-51932453D02*
X140442095Y-52075310D01*
X140442095Y-52075310D02*
X139870667Y-52646739D01*
X139870667Y-52646739D02*
X140489714Y-52646739D01*
X117356190Y-79508819D02*
X117689523Y-80508819D01*
X117689523Y-80508819D02*
X118022856Y-79508819D01*
X118689523Y-79985009D02*
X118832380Y-80032628D01*
X118832380Y-80032628D02*
X118879999Y-80080247D01*
X118879999Y-80080247D02*
X118927618Y-80175485D01*
X118927618Y-80175485D02*
X118927618Y-80318342D01*
X118927618Y-80318342D02*
X118879999Y-80413580D01*
X118879999Y-80413580D02*
X118832380Y-80461200D01*
X118832380Y-80461200D02*
X118737142Y-80508819D01*
X118737142Y-80508819D02*
X118356190Y-80508819D01*
X118356190Y-80508819D02*
X118356190Y-79508819D01*
X118356190Y-79508819D02*
X118689523Y-79508819D01*
X118689523Y-79508819D02*
X118784761Y-79556438D01*
X118784761Y-79556438D02*
X118832380Y-79604057D01*
X118832380Y-79604057D02*
X118879999Y-79699295D01*
X118879999Y-79699295D02*
X118879999Y-79794533D01*
X118879999Y-79794533D02*
X118832380Y-79889771D01*
X118832380Y-79889771D02*
X118784761Y-79937390D01*
X118784761Y-79937390D02*
X118689523Y-79985009D01*
X118689523Y-79985009D02*
X118356190Y-79985009D01*
X119308571Y-80223104D02*
X119784761Y-80223104D01*
X119213333Y-80508819D02*
X119546666Y-79508819D01*
X119546666Y-79508819D02*
X119879999Y-80508819D01*
X120070476Y-79508819D02*
X120641904Y-79508819D01*
X120356190Y-80508819D02*
X120356190Y-79508819D01*
X120832381Y-79508819D02*
X121403809Y-79508819D01*
X121118095Y-80508819D02*
X121118095Y-79508819D01*
X136906667Y-67538500D02*
X137049524Y-67586119D01*
X137049524Y-67586119D02*
X137287619Y-67586119D01*
X137287619Y-67586119D02*
X137382857Y-67538500D01*
X137382857Y-67538500D02*
X137430476Y-67490880D01*
X137430476Y-67490880D02*
X137478095Y-67395642D01*
X137478095Y-67395642D02*
X137478095Y-67300404D01*
X137478095Y-67300404D02*
X137430476Y-67205166D01*
X137430476Y-67205166D02*
X137382857Y-67157547D01*
X137382857Y-67157547D02*
X137287619Y-67109928D01*
X137287619Y-67109928D02*
X137097143Y-67062309D01*
X137097143Y-67062309D02*
X137001905Y-67014690D01*
X137001905Y-67014690D02*
X136954286Y-66967071D01*
X136954286Y-66967071D02*
X136906667Y-66871833D01*
X136906667Y-66871833D02*
X136906667Y-66776595D01*
X136906667Y-66776595D02*
X136954286Y-66681357D01*
X136954286Y-66681357D02*
X137001905Y-66633738D01*
X137001905Y-66633738D02*
X137097143Y-66586119D01*
X137097143Y-66586119D02*
X137335238Y-66586119D01*
X137335238Y-66586119D02*
X137478095Y-66633738D01*
X137811429Y-66586119D02*
X138049524Y-67586119D01*
X138049524Y-67586119D02*
X138240000Y-66871833D01*
X138240000Y-66871833D02*
X138430476Y-67586119D01*
X138430476Y-67586119D02*
X138668572Y-66586119D01*
X139001905Y-66681357D02*
X139049524Y-66633738D01*
X139049524Y-66633738D02*
X139144762Y-66586119D01*
X139144762Y-66586119D02*
X139382857Y-66586119D01*
X139382857Y-66586119D02*
X139478095Y-66633738D01*
X139478095Y-66633738D02*
X139525714Y-66681357D01*
X139525714Y-66681357D02*
X139573333Y-66776595D01*
X139573333Y-66776595D02*
X139573333Y-66871833D01*
X139573333Y-66871833D02*
X139525714Y-67014690D01*
X139525714Y-67014690D02*
X138954286Y-67586119D01*
X138954286Y-67586119D02*
X139573333Y-67586119D01*
X126666666Y-85004819D02*
X126666666Y-85719104D01*
X126666666Y-85719104D02*
X126619047Y-85861961D01*
X126619047Y-85861961D02*
X126523809Y-85957200D01*
X126523809Y-85957200D02*
X126380952Y-86004819D01*
X126380952Y-86004819D02*
X126285714Y-86004819D01*
X127666666Y-86004819D02*
X127095238Y-86004819D01*
X127380952Y-86004819D02*
X127380952Y-85004819D01*
X127380952Y-85004819D02*
X127285714Y-85147676D01*
X127285714Y-85147676D02*
X127190476Y-85242914D01*
X127190476Y-85242914D02*
X127095238Y-85290533D01*
X128206666Y-80508819D02*
X127873333Y-80032628D01*
X127635238Y-80508819D02*
X127635238Y-79508819D01*
X127635238Y-79508819D02*
X128016190Y-79508819D01*
X128016190Y-79508819D02*
X128111428Y-79556438D01*
X128111428Y-79556438D02*
X128159047Y-79604057D01*
X128159047Y-79604057D02*
X128206666Y-79699295D01*
X128206666Y-79699295D02*
X128206666Y-79842152D01*
X128206666Y-79842152D02*
X128159047Y-79937390D01*
X128159047Y-79937390D02*
X128111428Y-79985009D01*
X128111428Y-79985009D02*
X128016190Y-80032628D01*
X128016190Y-80032628D02*
X127635238Y-80032628D01*
X128635238Y-80508819D02*
X128635238Y-79508819D01*
X129635237Y-79556438D02*
X129539999Y-79508819D01*
X129539999Y-79508819D02*
X129397142Y-79508819D01*
X129397142Y-79508819D02*
X129254285Y-79556438D01*
X129254285Y-79556438D02*
X129159047Y-79651676D01*
X129159047Y-79651676D02*
X129111428Y-79746914D01*
X129111428Y-79746914D02*
X129063809Y-79937390D01*
X129063809Y-79937390D02*
X129063809Y-80080247D01*
X129063809Y-80080247D02*
X129111428Y-80270723D01*
X129111428Y-80270723D02*
X129159047Y-80365961D01*
X129159047Y-80365961D02*
X129254285Y-80461200D01*
X129254285Y-80461200D02*
X129397142Y-80508819D01*
X129397142Y-80508819D02*
X129492380Y-80508819D01*
X129492380Y-80508819D02*
X129635237Y-80461200D01*
X129635237Y-80461200D02*
X129682856Y-80413580D01*
X129682856Y-80413580D02*
X129682856Y-80080247D01*
X129682856Y-80080247D02*
X129492380Y-80080247D01*
X130111428Y-80508819D02*
X130111428Y-79508819D01*
X130111428Y-79985009D02*
X130682856Y-79985009D01*
X130682856Y-80508819D02*
X130682856Y-79508819D01*
X131016190Y-79508819D02*
X131587618Y-79508819D01*
X131301904Y-80508819D02*
X131301904Y-79508819D01*
D11*
%TO.C,R1*%
X116040000Y-63540000D02*
X116810000Y-63540000D01*
X116810000Y-62170000D02*
X116810000Y-64910000D01*
X116810000Y-64910000D02*
X123350000Y-64910000D01*
X123350000Y-62170000D02*
X116810000Y-62170000D01*
X123350000Y-64910000D02*
X123350000Y-62170000D01*
X124120000Y-63540000D02*
X123350000Y-63540000D01*
D10*
%TO.C,TP2*%
X125860000Y-82594000D02*
G75*
G02*
X123060000Y-82594000I-1400000J0D01*
G01*
X123060000Y-82594000D02*
G75*
G02*
X125860000Y-82594000I1400000J0D01*
G01*
D11*
%TO.C,SW1*%
X110490000Y-68911300D02*
X110490000Y-67911300D01*
X110740000Y-77601300D02*
X110740000Y-68161300D01*
X111490000Y-67911300D02*
X110490000Y-67911300D01*
X114060000Y-71181300D02*
X114060000Y-74481300D01*
X117360000Y-71181300D02*
X114060000Y-71181300D01*
X117360000Y-71181300D02*
X117360000Y-74481300D01*
X117360000Y-74481300D02*
X114060000Y-74481300D01*
X120780000Y-68161300D02*
X110740000Y-68161300D01*
X120780000Y-77601300D02*
X110740000Y-77601300D01*
X120780000Y-77601300D02*
X120780000Y-68161300D01*
D10*
%TO.C,TP4*%
X136020000Y-82594000D02*
G75*
G02*
X133220000Y-82594000I-1400000J0D01*
G01*
X133220000Y-82594000D02*
G75*
G02*
X136020000Y-82594000I1400000J0D01*
G01*
D11*
%TO.C,R2*%
X130360000Y-63540000D02*
X131130000Y-63540000D01*
X131130000Y-62170000D02*
X131130000Y-64910000D01*
X131130000Y-64910000D02*
X137670000Y-64910000D01*
X137670000Y-62170000D02*
X131130000Y-62170000D01*
X137670000Y-64910000D02*
X137670000Y-62170000D01*
X138440000Y-63540000D02*
X137670000Y-63540000D01*
%TO.C,D1*%
X111735000Y-54589000D02*
X111735000Y-57679000D01*
X111735000Y-54589170D02*
G75*
G02*
X117285000Y-56133952I2560000J-1544830D01*
G01*
X117285000Y-56134048D02*
G75*
G02*
X111735000Y-57678830I-2990000J48D01*
G01*
X116795000Y-56134000D02*
G75*
G02*
X111795000Y-56134000I-2500000J0D01*
G01*
X111795000Y-56134000D02*
G75*
G02*
X116795000Y-56134000I2500000J0D01*
G01*
%TO.C,D2*%
X142264000Y-57679000D02*
X142264000Y-54589000D01*
X136714000Y-56133952D02*
G75*
G02*
X142264000Y-54589170I2990000J-48D01*
G01*
X142264000Y-57678830D02*
G75*
G02*
X136714000Y-56134048I-2560000J1544830D01*
G01*
X142204000Y-56134000D02*
G75*
G02*
X137204000Y-56134000I-2500000J0D01*
G01*
X137204000Y-56134000D02*
G75*
G02*
X142204000Y-56134000I2500000J0D01*
G01*
D10*
%TO.C,TP1*%
X120780000Y-82594000D02*
G75*
G02*
X117980000Y-82594000I-1400000J0D01*
G01*
X117980000Y-82594000D02*
G75*
G02*
X120780000Y-82594000I1400000J0D01*
G01*
D11*
%TO.C,SW2*%
X132970000Y-68911300D02*
X132970000Y-67911300D01*
X133220000Y-77601300D02*
X133220000Y-68161300D01*
X133970000Y-67911300D02*
X132970000Y-67911300D01*
X136540000Y-71181300D02*
X136540000Y-74481300D01*
X139840000Y-71181300D02*
X136540000Y-71181300D01*
X139840000Y-71181300D02*
X139840000Y-74481300D01*
X139840000Y-74481300D02*
X136540000Y-74481300D01*
X143260000Y-68161300D02*
X133220000Y-68161300D01*
X143260000Y-77601300D02*
X133220000Y-77601300D01*
X143260000Y-77601300D02*
X143260000Y-68161300D01*
%TO.C,J1*%
X120690000Y-86640000D02*
X122110000Y-86640000D01*
X120690000Y-98360000D02*
X120690000Y-86640000D01*
X122110000Y-86640000D02*
X122110000Y-91140000D01*
X122950000Y-88550000D02*
X123550000Y-88550000D01*
X123000000Y-92250000D02*
X123000000Y-97750000D01*
X123000000Y-97750000D02*
X123500000Y-97750000D01*
X123250000Y-89150000D02*
X122950000Y-88550000D01*
X123500000Y-92250000D02*
X123000000Y-92250000D01*
X123500000Y-97750000D02*
X123500000Y-92250000D01*
X123550000Y-88550000D02*
X123250000Y-89150000D01*
X125500000Y-92250000D02*
X125500000Y-97750000D01*
X125500000Y-97750000D02*
X126000000Y-97750000D01*
X126000000Y-92250000D02*
X125500000Y-92250000D01*
X126000000Y-97750000D02*
X126000000Y-92250000D01*
X127000000Y-98360000D02*
X120690000Y-98360000D01*
X127000000Y-98360000D02*
X133310000Y-98360000D01*
X128000000Y-92250000D02*
X128000000Y-97750000D01*
X128000000Y-97750000D02*
X128500000Y-97750000D01*
X128500000Y-92250000D02*
X128000000Y-92250000D01*
X128500000Y-97750000D02*
X128500000Y-92250000D01*
X130500000Y-92250000D02*
X130500000Y-97750000D01*
X130500000Y-97750000D02*
X131000000Y-97750000D01*
X131000000Y-92250000D02*
X130500000Y-92250000D01*
X131000000Y-97750000D02*
X131000000Y-92250000D01*
X131890000Y-86640000D02*
X131890000Y-91140000D01*
X133310000Y-86640000D02*
X131890000Y-86640000D01*
X133310000Y-98360000D02*
X133310000Y-86640000D01*
D10*
%TO.C,TP3*%
X130940000Y-82594000D02*
G75*
G02*
X128140000Y-82594000I-1400000J0D01*
G01*
X128140000Y-82594000D02*
G75*
G02*
X130940000Y-82594000I1400000J0D01*
G01*
%TD*%
M02*
