M48
; DRILL file {KiCad 8.0.8} date 2025-03-27T00:10:55-0400
; FORMAT={-:-/ absolute / inch / decimal}
; #@! TF.CreationDate,2025-03-27T00:10:55-04:00
; #@! TF.GenerationSoftware,Kicad,Pcbnew,8.0.8
; #@! TF.FileFunction,Plated,1,2,PTH
FMAT,2
INCH
; #@! TA.AperFunction,Plated,PTH,ComponentDrill
T1C0.0315
; #@! TA.AperFunction,Plated,PTH,ComponentDrill
T2C0.0354
; #@! TA.AperFunction,Plated,PTH,ComponentDrill
T3C0.0374
; #@! TA.AperFunction,Plated,PTH,ComponentDrill
T4C0.0394
%
G90
G05
T1
X4.88Y-2.4
X4.88Y-2.8
X5.1202Y-2.4
X5.1202Y-2.8
T2
X4.4Y-2.8595
X4.4Y-3.0957
X4.4498Y-2.21
X4.4984Y-2.8595
X4.4984Y-3.0957
X4.5498Y-2.21
X4.5969Y-2.8595
X4.5969Y-3.0957
X5.33Y-2.21
X5.4031Y-2.8595
X5.4031Y-3.0957
X5.43Y-2.21
X5.5016Y-2.8595
X5.5016Y-3.0957
X5.6Y-2.8595
X5.6Y-3.0957
T3
X4.8524Y-3.6772
X4.9508Y-3.6772
X5.0492Y-3.6772
X5.1476Y-3.6772
T4
X4.7Y-3.36
X4.9Y-3.36
X5.1Y-3.36
X5.3Y-3.36
M30
