%TF.GenerationSoftware,KiCad,Pcbnew,8.0.8*%
%TF.CreationDate,2025-03-27T00:10:53-04:00*%
%TF.ProjectId,rear_lights_unit_control_box,72656172-5f6c-4696-9768-74735f756e69,0*%
%TF.SameCoordinates,Original*%
%TF.FileFunction,Copper,L1,Top*%
%TF.FilePolarity,Positive*%
%FSLAX46Y46*%
G04 Gerber Fmt 4.6, Leading zero omitted, Abs format (unit mm)*
G04 Created by KiCad (PCBNEW 8.0.8) date 2025-03-27 00:10:53*
%MOMM*%
%LPD*%
G01*
G04 APERTURE LIST*
G04 Aperture macros list*
%AMRoundRect*
0 Rectangle with rounded corners*
0 $1 Rounding radius*
0 $2 $3 $4 $5 $6 $7 $8 $9 X,Y pos of 4 corners*
0 Add a 4 corners polygon primitive as box body*
4,1,4,$2,$3,$4,$5,$6,$7,$8,$9,$2,$3,0*
0 Add four circle primitives for the rounded corners*
1,1,$1+$1,$2,$3*
1,1,$1+$1,$4,$5*
1,1,$1+$1,$6,$7*
1,1,$1+$1,$8,$9*
0 Add four rect primitives between the rounded corners*
20,1,$1+$1,$2,$3,$4,$5,0*
20,1,$1+$1,$4,$5,$6,$7,0*
20,1,$1+$1,$6,$7,$8,$9,0*
20,1,$1+$1,$8,$9,$2,$3,0*%
G04 Aperture macros list end*
%TA.AperFunction,ComponentPad*%
%ADD10C,1.600000*%
%TD*%
%TA.AperFunction,ComponentPad*%
%ADD11O,1.600000X1.600000*%
%TD*%
%TA.AperFunction,ComponentPad*%
%ADD12C,2.000000*%
%TD*%
%TA.AperFunction,ComponentPad*%
%ADD13R,1.800000X1.800000*%
%TD*%
%TA.AperFunction,ComponentPad*%
%ADD14C,1.800000*%
%TD*%
%TA.AperFunction,ComponentPad*%
%ADD15RoundRect,0.250000X-0.600000X-0.725000X0.600000X-0.725000X0.600000X0.725000X-0.600000X0.725000X0*%
%TD*%
%TA.AperFunction,ComponentPad*%
%ADD16O,1.700000X1.950000*%
%TD*%
%TA.AperFunction,Conductor*%
%ADD17C,0.200000*%
%TD*%
G04 APERTURE END LIST*
D10*
%TO.P,R1,1*%
%TO.N,LEFT_TURN_EN*%
X123952000Y-71120000D03*
D11*
%TO.P,R1,2*%
%TO.N,Net-(D1-A)*%
X123952000Y-60960000D03*
%TD*%
D12*
%TO.P,TP2,1,1*%
%TO.N,LEFT_TURN_EN*%
X124460000Y-85344000D03*
%TD*%
D13*
%TO.P,SW1,1,A*%
%TO.N,GND*%
X111760000Y-72631300D03*
D14*
%TO.P,SW1,2,B*%
%TO.N,LEFT_TURN_EN*%
X114260000Y-72631300D03*
%TO.P,SW1,3,C*%
%TO.N,V_OUT*%
X116760000Y-72631300D03*
%TO.P,SW1,4*%
%TO.N,N/C*%
X111760000Y-78631300D03*
%TO.P,SW1,5*%
X114260000Y-78631300D03*
%TO.P,SW1,6*%
X116760000Y-78631300D03*
%TD*%
D12*
%TO.P,TP4,1,1*%
%TO.N,GND*%
X134620000Y-85344000D03*
%TD*%
D10*
%TO.P,R2,1*%
%TO.N,RIGHT_TURN_EN*%
X130052000Y-71120000D03*
D11*
%TO.P,R2,2*%
%TO.N,Net-(D2-A)*%
X130052000Y-60960000D03*
%TD*%
D13*
%TO.P,D1,1,K*%
%TO.N,GND*%
X113025000Y-56134000D03*
D14*
%TO.P,D1,2,A*%
%TO.N,Net-(D1-A)*%
X115565000Y-56134000D03*
%TD*%
D13*
%TO.P,D2,1,K*%
%TO.N,GND*%
X137922000Y-56134000D03*
D14*
%TO.P,D2,2,A*%
%TO.N,Net-(D2-A)*%
X135382000Y-56134000D03*
%TD*%
D12*
%TO.P,TP1,1,1*%
%TO.N,V_OUT*%
X119380000Y-85344000D03*
%TD*%
D13*
%TO.P,SW2,1,A*%
%TO.N,GND*%
X137240000Y-72631300D03*
D14*
%TO.P,SW2,2,B*%
%TO.N,RIGHT_TURN_EN*%
X139740000Y-72631300D03*
%TO.P,SW2,3,C*%
%TO.N,V_OUT*%
X142240000Y-72631300D03*
%TO.P,SW2,4*%
%TO.N,N/C*%
X137240000Y-78631300D03*
%TO.P,SW2,5*%
X139740000Y-78631300D03*
%TO.P,SW2,6*%
X142240000Y-78631300D03*
%TD*%
D15*
%TO.P,J1,1,Pin_1*%
%TO.N,V_OUT*%
X123250000Y-93400000D03*
D16*
%TO.P,J1,2,Pin_2*%
%TO.N,LEFT_TURN_EN*%
X125750000Y-93400000D03*
%TO.P,J1,3,Pin_3*%
%TO.N,RIGHT_TURN_EN*%
X128250000Y-93400000D03*
%TO.P,J1,4,Pin_4*%
%TO.N,GND*%
X130750000Y-93400000D03*
%TD*%
D12*
%TO.P,TP3,1,1*%
%TO.N,RIGHT_TURN_EN*%
X129540000Y-85344000D03*
%TD*%
D17*
%TO.N,Net-(D1-A)*%
X123952000Y-56896000D02*
X123190000Y-56134000D01*
X123190000Y-56134000D02*
X115565000Y-56134000D01*
X123952000Y-60960000D02*
X123952000Y-56896000D01*
%TO.N,GND*%
X133604000Y-80518000D02*
X133604000Y-73406000D01*
X134620000Y-91948000D02*
X134620000Y-85344000D01*
X134620000Y-85344000D02*
X134620000Y-81534000D01*
X134378700Y-72631300D02*
X137240000Y-72631300D01*
X134620000Y-81534000D02*
X133604000Y-80518000D01*
X133168000Y-93400000D02*
X134620000Y-91948000D01*
X113025000Y-56134000D02*
X113030000Y-56134000D01*
X130750000Y-93400000D02*
X133168000Y-93400000D01*
X133604000Y-73406000D02*
X134378700Y-72631300D01*
X113030000Y-68580000D02*
X111760000Y-69850000D01*
X111760000Y-69850000D02*
X111760000Y-72631300D01*
X113030000Y-56134000D02*
X113030000Y-68580000D01*
%TO.N,Net-(D2-A)*%
X130048000Y-56896000D02*
X130810000Y-56134000D01*
X130048000Y-60960000D02*
X130048000Y-56896000D01*
X130810000Y-56134000D02*
X135382000Y-56134000D01*
%TO.N,V_OUT*%
X119621300Y-72631300D02*
X116760000Y-72631300D01*
X120832000Y-93400000D02*
X119380000Y-91948000D01*
X119380000Y-81534000D02*
X120396000Y-80518000D01*
X119380000Y-91948000D02*
X119380000Y-85344000D01*
X119380000Y-85344000D02*
X119380000Y-81534000D01*
X120396000Y-80518000D02*
X120396000Y-73406000D01*
X123250000Y-93400000D02*
X120832000Y-93400000D01*
X120396000Y-73406000D02*
X119621300Y-72631300D01*
%TO.N,LEFT_TURN_EN*%
X123952000Y-72898000D02*
X123952000Y-71120000D01*
X114287300Y-72631300D02*
X114300000Y-72644000D01*
X124460000Y-85344000D02*
X124460000Y-73406000D01*
X119380000Y-70104000D02*
X114808000Y-70104000D01*
X114260000Y-70652000D02*
X114260000Y-72631300D01*
X120396000Y-71120000D02*
X119380000Y-70104000D01*
X114808000Y-70104000D02*
X114260000Y-70652000D01*
X124460000Y-73406000D02*
X123952000Y-72898000D01*
X124460000Y-85344000D02*
X124460000Y-92110000D01*
X114260000Y-72631300D02*
X114287300Y-72631300D01*
X124460000Y-92110000D02*
X125750000Y-93400000D01*
X123952000Y-71120000D02*
X120396000Y-71120000D01*
%TO.N,RIGHT_TURN_EN*%
X129540000Y-85344000D02*
X129540000Y-92110000D01*
X139740000Y-70652000D02*
X139740000Y-72631300D01*
X130048000Y-71120000D02*
X133604000Y-71120000D01*
X139740000Y-72631300D02*
X139712700Y-72631300D01*
X129540000Y-73406000D02*
X130052000Y-72894000D01*
X139192000Y-70104000D02*
X139740000Y-70652000D01*
X129540000Y-85344000D02*
X129540000Y-73406000D01*
X133604000Y-71120000D02*
X134620000Y-70104000D01*
X139712700Y-72631300D02*
X139700000Y-72644000D01*
X130052000Y-72894000D02*
X130052000Y-71120000D01*
X129540000Y-92110000D02*
X128250000Y-93400000D01*
X134620000Y-70104000D02*
X139192000Y-70104000D01*
%TD*%
M02*
