%TF.GenerationSoftware,KiCad,Pcbnew,8.0.8*%
%TF.CreationDate,2025-03-31T22:30:43-04:00*%
%TF.ProjectId,rear_lights_unit_control_box,72656172-5f6c-4696-9768-74735f756e69,0*%
%TF.SameCoordinates,Original*%
%TF.FileFunction,Legend,Bot*%
%TF.FilePolarity,Positive*%
%FSLAX46Y46*%
G04 Gerber Fmt 4.6, Leading zero omitted, Abs format (unit mm)*
G04 Created by KiCad (PCBNEW 8.0.8) date 2025-03-31 22:30:43*
%MOMM*%
%LPD*%
G01*
G04 APERTURE LIST*
%ADD10C,0.100000*%
%ADD11C,0.000000*%
G04 APERTURE END LIST*
D10*
X134362782Y-93238665D02*
X134696115Y-93238665D01*
X134696115Y-93762475D02*
X134696115Y-92762475D01*
X134696115Y-92762475D02*
X134219925Y-92762475D01*
X133410401Y-93762475D02*
X133410401Y-93238665D01*
X133410401Y-93238665D02*
X133458020Y-93143427D01*
X133458020Y-93143427D02*
X133553258Y-93095808D01*
X133553258Y-93095808D02*
X133743734Y-93095808D01*
X133743734Y-93095808D02*
X133838972Y-93143427D01*
X133410401Y-93714856D02*
X133505639Y-93762475D01*
X133505639Y-93762475D02*
X133743734Y-93762475D01*
X133743734Y-93762475D02*
X133838972Y-93714856D01*
X133838972Y-93714856D02*
X133886591Y-93619617D01*
X133886591Y-93619617D02*
X133886591Y-93524379D01*
X133886591Y-93524379D02*
X133838972Y-93429141D01*
X133838972Y-93429141D02*
X133743734Y-93381522D01*
X133743734Y-93381522D02*
X133505639Y-93381522D01*
X133505639Y-93381522D02*
X133410401Y-93333903D01*
X132934210Y-93762475D02*
X132934210Y-93095808D01*
X132934210Y-93286284D02*
X132886591Y-93191046D01*
X132886591Y-93191046D02*
X132838972Y-93143427D01*
X132838972Y-93143427D02*
X132743734Y-93095808D01*
X132743734Y-93095808D02*
X132648496Y-93095808D01*
X132315162Y-93762475D02*
X132315162Y-93095808D01*
X132315162Y-93286284D02*
X132267543Y-93191046D01*
X132267543Y-93191046D02*
X132219924Y-93143427D01*
X132219924Y-93143427D02*
X132124686Y-93095808D01*
X132124686Y-93095808D02*
X132029448Y-93095808D01*
X131696114Y-93762475D02*
X131696114Y-92762475D01*
X131267543Y-93762475D02*
X131267543Y-93238665D01*
X131267543Y-93238665D02*
X131315162Y-93143427D01*
X131315162Y-93143427D02*
X131410400Y-93095808D01*
X131410400Y-93095808D02*
X131553257Y-93095808D01*
X131553257Y-93095808D02*
X131648495Y-93143427D01*
X131648495Y-93143427D02*
X131696114Y-93191046D01*
X130362781Y-93762475D02*
X130362781Y-93238665D01*
X130362781Y-93238665D02*
X130410400Y-93143427D01*
X130410400Y-93143427D02*
X130505638Y-93095808D01*
X130505638Y-93095808D02*
X130696114Y-93095808D01*
X130696114Y-93095808D02*
X130791352Y-93143427D01*
X130362781Y-93714856D02*
X130458019Y-93762475D01*
X130458019Y-93762475D02*
X130696114Y-93762475D01*
X130696114Y-93762475D02*
X130791352Y-93714856D01*
X130791352Y-93714856D02*
X130838971Y-93619617D01*
X130838971Y-93619617D02*
X130838971Y-93524379D01*
X130838971Y-93524379D02*
X130791352Y-93429141D01*
X130791352Y-93429141D02*
X130696114Y-93381522D01*
X130696114Y-93381522D02*
X130458019Y-93381522D01*
X130458019Y-93381522D02*
X130362781Y-93333903D01*
X129458019Y-93762475D02*
X129458019Y-92762475D01*
X129458019Y-93714856D02*
X129553257Y-93762475D01*
X129553257Y-93762475D02*
X129743733Y-93762475D01*
X129743733Y-93762475D02*
X129838971Y-93714856D01*
X129838971Y-93714856D02*
X129886590Y-93667236D01*
X129886590Y-93667236D02*
X129934209Y-93571998D01*
X129934209Y-93571998D02*
X129934209Y-93286284D01*
X129934209Y-93286284D02*
X129886590Y-93191046D01*
X129886590Y-93191046D02*
X129838971Y-93143427D01*
X129838971Y-93143427D02*
X129743733Y-93095808D01*
X129743733Y-93095808D02*
X129553257Y-93095808D01*
X129553257Y-93095808D02*
X129458019Y-93143427D01*
X129124685Y-92762475D02*
X128553257Y-92762475D01*
X128838971Y-93762475D02*
X128838971Y-92762475D01*
X127838971Y-93714856D02*
X127934209Y-93762475D01*
X127934209Y-93762475D02*
X128124685Y-93762475D01*
X128124685Y-93762475D02*
X128219923Y-93714856D01*
X128219923Y-93714856D02*
X128267542Y-93619617D01*
X128267542Y-93619617D02*
X128267542Y-93238665D01*
X128267542Y-93238665D02*
X128219923Y-93143427D01*
X128219923Y-93143427D02*
X128124685Y-93095808D01*
X128124685Y-93095808D02*
X127934209Y-93095808D01*
X127934209Y-93095808D02*
X127838971Y-93143427D01*
X127838971Y-93143427D02*
X127791352Y-93238665D01*
X127791352Y-93238665D02*
X127791352Y-93333903D01*
X127791352Y-93333903D02*
X128267542Y-93429141D01*
X126934209Y-93714856D02*
X127029447Y-93762475D01*
X127029447Y-93762475D02*
X127219923Y-93762475D01*
X127219923Y-93762475D02*
X127315161Y-93714856D01*
X127315161Y-93714856D02*
X127362780Y-93667236D01*
X127362780Y-93667236D02*
X127410399Y-93571998D01*
X127410399Y-93571998D02*
X127410399Y-93286284D01*
X127410399Y-93286284D02*
X127362780Y-93191046D01*
X127362780Y-93191046D02*
X127315161Y-93143427D01*
X127315161Y-93143427D02*
X127219923Y-93095808D01*
X127219923Y-93095808D02*
X127029447Y-93095808D01*
X127029447Y-93095808D02*
X126934209Y-93143427D01*
X126505637Y-93762475D02*
X126505637Y-92762475D01*
X126077066Y-93762475D02*
X126077066Y-93238665D01*
X126077066Y-93238665D02*
X126124685Y-93143427D01*
X126124685Y-93143427D02*
X126219923Y-93095808D01*
X126219923Y-93095808D02*
X126362780Y-93095808D01*
X126362780Y-93095808D02*
X126458018Y-93143427D01*
X126458018Y-93143427D02*
X126505637Y-93191046D01*
X124267542Y-93762475D02*
X124600875Y-93286284D01*
X124838970Y-93762475D02*
X124838970Y-92762475D01*
X124838970Y-92762475D02*
X124458018Y-92762475D01*
X124458018Y-92762475D02*
X124362780Y-92810094D01*
X124362780Y-92810094D02*
X124315161Y-92857713D01*
X124315161Y-92857713D02*
X124267542Y-92952951D01*
X124267542Y-92952951D02*
X124267542Y-93095808D01*
X124267542Y-93095808D02*
X124315161Y-93191046D01*
X124315161Y-93191046D02*
X124362780Y-93238665D01*
X124362780Y-93238665D02*
X124458018Y-93286284D01*
X124458018Y-93286284D02*
X124838970Y-93286284D01*
X123458018Y-93714856D02*
X123553256Y-93762475D01*
X123553256Y-93762475D02*
X123743732Y-93762475D01*
X123743732Y-93762475D02*
X123838970Y-93714856D01*
X123838970Y-93714856D02*
X123886589Y-93619617D01*
X123886589Y-93619617D02*
X123886589Y-93238665D01*
X123886589Y-93238665D02*
X123838970Y-93143427D01*
X123838970Y-93143427D02*
X123743732Y-93095808D01*
X123743732Y-93095808D02*
X123553256Y-93095808D01*
X123553256Y-93095808D02*
X123458018Y-93143427D01*
X123458018Y-93143427D02*
X123410399Y-93238665D01*
X123410399Y-93238665D02*
X123410399Y-93333903D01*
X123410399Y-93333903D02*
X123886589Y-93429141D01*
X122553256Y-93762475D02*
X122553256Y-93238665D01*
X122553256Y-93238665D02*
X122600875Y-93143427D01*
X122600875Y-93143427D02*
X122696113Y-93095808D01*
X122696113Y-93095808D02*
X122886589Y-93095808D01*
X122886589Y-93095808D02*
X122981827Y-93143427D01*
X122553256Y-93714856D02*
X122648494Y-93762475D01*
X122648494Y-93762475D02*
X122886589Y-93762475D01*
X122886589Y-93762475D02*
X122981827Y-93714856D01*
X122981827Y-93714856D02*
X123029446Y-93619617D01*
X123029446Y-93619617D02*
X123029446Y-93524379D01*
X123029446Y-93524379D02*
X122981827Y-93429141D01*
X122981827Y-93429141D02*
X122886589Y-93381522D01*
X122886589Y-93381522D02*
X122648494Y-93381522D01*
X122648494Y-93381522D02*
X122553256Y-93333903D01*
X122077065Y-93762475D02*
X122077065Y-93095808D01*
X122077065Y-93286284D02*
X122029446Y-93191046D01*
X122029446Y-93191046D02*
X121981827Y-93143427D01*
X121981827Y-93143427D02*
X121886589Y-93095808D01*
X121886589Y-93095808D02*
X121791351Y-93095808D01*
X120219922Y-93762475D02*
X120696112Y-93762475D01*
X120696112Y-93762475D02*
X120696112Y-92762475D01*
X119886588Y-93762475D02*
X119886588Y-93095808D01*
X119886588Y-92762475D02*
X119934207Y-92810094D01*
X119934207Y-92810094D02*
X119886588Y-92857713D01*
X119886588Y-92857713D02*
X119838969Y-92810094D01*
X119838969Y-92810094D02*
X119886588Y-92762475D01*
X119886588Y-92762475D02*
X119886588Y-92857713D01*
X118981827Y-93095808D02*
X118981827Y-93905332D01*
X118981827Y-93905332D02*
X119029446Y-94000570D01*
X119029446Y-94000570D02*
X119077065Y-94048189D01*
X119077065Y-94048189D02*
X119172303Y-94095808D01*
X119172303Y-94095808D02*
X119315160Y-94095808D01*
X119315160Y-94095808D02*
X119410398Y-94048189D01*
X118981827Y-93714856D02*
X119077065Y-93762475D01*
X119077065Y-93762475D02*
X119267541Y-93762475D01*
X119267541Y-93762475D02*
X119362779Y-93714856D01*
X119362779Y-93714856D02*
X119410398Y-93667236D01*
X119410398Y-93667236D02*
X119458017Y-93571998D01*
X119458017Y-93571998D02*
X119458017Y-93286284D01*
X119458017Y-93286284D02*
X119410398Y-93191046D01*
X119410398Y-93191046D02*
X119362779Y-93143427D01*
X119362779Y-93143427D02*
X119267541Y-93095808D01*
X119267541Y-93095808D02*
X119077065Y-93095808D01*
X119077065Y-93095808D02*
X118981827Y-93143427D01*
X118505636Y-93762475D02*
X118505636Y-92762475D01*
X118077065Y-93762475D02*
X118077065Y-93238665D01*
X118077065Y-93238665D02*
X118124684Y-93143427D01*
X118124684Y-93143427D02*
X118219922Y-93095808D01*
X118219922Y-93095808D02*
X118362779Y-93095808D01*
X118362779Y-93095808D02*
X118458017Y-93143427D01*
X118458017Y-93143427D02*
X118505636Y-93191046D01*
X117743731Y-93095808D02*
X117362779Y-93095808D01*
X117600874Y-92762475D02*
X117600874Y-93619617D01*
X117600874Y-93619617D02*
X117553255Y-93714856D01*
X117553255Y-93714856D02*
X117458017Y-93762475D01*
X117458017Y-93762475D02*
X117362779Y-93762475D01*
X134696115Y-94372419D02*
X134696115Y-95181942D01*
X134696115Y-95181942D02*
X134648496Y-95277180D01*
X134648496Y-95277180D02*
X134600877Y-95324800D01*
X134600877Y-95324800D02*
X134505639Y-95372419D01*
X134505639Y-95372419D02*
X134315163Y-95372419D01*
X134315163Y-95372419D02*
X134219925Y-95324800D01*
X134219925Y-95324800D02*
X134172306Y-95277180D01*
X134172306Y-95277180D02*
X134124687Y-95181942D01*
X134124687Y-95181942D02*
X134124687Y-94372419D01*
X133648496Y-94705752D02*
X133648496Y-95372419D01*
X133648496Y-94800990D02*
X133600877Y-94753371D01*
X133600877Y-94753371D02*
X133505639Y-94705752D01*
X133505639Y-94705752D02*
X133362782Y-94705752D01*
X133362782Y-94705752D02*
X133267544Y-94753371D01*
X133267544Y-94753371D02*
X133219925Y-94848609D01*
X133219925Y-94848609D02*
X133219925Y-95372419D01*
X132743734Y-95372419D02*
X132743734Y-94705752D01*
X132743734Y-94372419D02*
X132791353Y-94420038D01*
X132791353Y-94420038D02*
X132743734Y-94467657D01*
X132743734Y-94467657D02*
X132696115Y-94420038D01*
X132696115Y-94420038D02*
X132743734Y-94372419D01*
X132743734Y-94372419D02*
X132743734Y-94467657D01*
X132410401Y-94705752D02*
X132029449Y-94705752D01*
X132267544Y-94372419D02*
X132267544Y-95229561D01*
X132267544Y-95229561D02*
X132219925Y-95324800D01*
X132219925Y-95324800D02*
X132124687Y-95372419D01*
X132124687Y-95372419D02*
X132029449Y-95372419D01*
X130362782Y-95277180D02*
X130410401Y-95324800D01*
X130410401Y-95324800D02*
X130553258Y-95372419D01*
X130553258Y-95372419D02*
X130648496Y-95372419D01*
X130648496Y-95372419D02*
X130791353Y-95324800D01*
X130791353Y-95324800D02*
X130886591Y-95229561D01*
X130886591Y-95229561D02*
X130934210Y-95134323D01*
X130934210Y-95134323D02*
X130981829Y-94943847D01*
X130981829Y-94943847D02*
X130981829Y-94800990D01*
X130981829Y-94800990D02*
X130934210Y-94610514D01*
X130934210Y-94610514D02*
X130886591Y-94515276D01*
X130886591Y-94515276D02*
X130791353Y-94420038D01*
X130791353Y-94420038D02*
X130648496Y-94372419D01*
X130648496Y-94372419D02*
X130553258Y-94372419D01*
X130553258Y-94372419D02*
X130410401Y-94420038D01*
X130410401Y-94420038D02*
X130362782Y-94467657D01*
X129791353Y-95372419D02*
X129886591Y-95324800D01*
X129886591Y-95324800D02*
X129934210Y-95277180D01*
X129934210Y-95277180D02*
X129981829Y-95181942D01*
X129981829Y-95181942D02*
X129981829Y-94896228D01*
X129981829Y-94896228D02*
X129934210Y-94800990D01*
X129934210Y-94800990D02*
X129886591Y-94753371D01*
X129886591Y-94753371D02*
X129791353Y-94705752D01*
X129791353Y-94705752D02*
X129648496Y-94705752D01*
X129648496Y-94705752D02*
X129553258Y-94753371D01*
X129553258Y-94753371D02*
X129505639Y-94800990D01*
X129505639Y-94800990D02*
X129458020Y-94896228D01*
X129458020Y-94896228D02*
X129458020Y-95181942D01*
X129458020Y-95181942D02*
X129505639Y-95277180D01*
X129505639Y-95277180D02*
X129553258Y-95324800D01*
X129553258Y-95324800D02*
X129648496Y-95372419D01*
X129648496Y-95372419D02*
X129791353Y-95372419D01*
X129029448Y-94705752D02*
X129029448Y-95372419D01*
X129029448Y-94800990D02*
X128981829Y-94753371D01*
X128981829Y-94753371D02*
X128886591Y-94705752D01*
X128886591Y-94705752D02*
X128743734Y-94705752D01*
X128743734Y-94705752D02*
X128648496Y-94753371D01*
X128648496Y-94753371D02*
X128600877Y-94848609D01*
X128600877Y-94848609D02*
X128600877Y-95372419D01*
X128267543Y-94705752D02*
X127886591Y-94705752D01*
X128124686Y-94372419D02*
X128124686Y-95229561D01*
X128124686Y-95229561D02*
X128077067Y-95324800D01*
X128077067Y-95324800D02*
X127981829Y-95372419D01*
X127981829Y-95372419D02*
X127886591Y-95372419D01*
X127553257Y-95372419D02*
X127553257Y-94705752D01*
X127553257Y-94896228D02*
X127505638Y-94800990D01*
X127505638Y-94800990D02*
X127458019Y-94753371D01*
X127458019Y-94753371D02*
X127362781Y-94705752D01*
X127362781Y-94705752D02*
X127267543Y-94705752D01*
X126791352Y-95372419D02*
X126886590Y-95324800D01*
X126886590Y-95324800D02*
X126934209Y-95277180D01*
X126934209Y-95277180D02*
X126981828Y-95181942D01*
X126981828Y-95181942D02*
X126981828Y-94896228D01*
X126981828Y-94896228D02*
X126934209Y-94800990D01*
X126934209Y-94800990D02*
X126886590Y-94753371D01*
X126886590Y-94753371D02*
X126791352Y-94705752D01*
X126791352Y-94705752D02*
X126648495Y-94705752D01*
X126648495Y-94705752D02*
X126553257Y-94753371D01*
X126553257Y-94753371D02*
X126505638Y-94800990D01*
X126505638Y-94800990D02*
X126458019Y-94896228D01*
X126458019Y-94896228D02*
X126458019Y-95181942D01*
X126458019Y-95181942D02*
X126505638Y-95277180D01*
X126505638Y-95277180D02*
X126553257Y-95324800D01*
X126553257Y-95324800D02*
X126648495Y-95372419D01*
X126648495Y-95372419D02*
X126791352Y-95372419D01*
X125886590Y-95372419D02*
X125981828Y-95324800D01*
X125981828Y-95324800D02*
X126029447Y-95229561D01*
X126029447Y-95229561D02*
X126029447Y-94372419D01*
X124410399Y-94848609D02*
X124267542Y-94896228D01*
X124267542Y-94896228D02*
X124219923Y-94943847D01*
X124219923Y-94943847D02*
X124172304Y-95039085D01*
X124172304Y-95039085D02*
X124172304Y-95181942D01*
X124172304Y-95181942D02*
X124219923Y-95277180D01*
X124219923Y-95277180D02*
X124267542Y-95324800D01*
X124267542Y-95324800D02*
X124362780Y-95372419D01*
X124362780Y-95372419D02*
X124743732Y-95372419D01*
X124743732Y-95372419D02*
X124743732Y-94372419D01*
X124743732Y-94372419D02*
X124410399Y-94372419D01*
X124410399Y-94372419D02*
X124315161Y-94420038D01*
X124315161Y-94420038D02*
X124267542Y-94467657D01*
X124267542Y-94467657D02*
X124219923Y-94562895D01*
X124219923Y-94562895D02*
X124219923Y-94658133D01*
X124219923Y-94658133D02*
X124267542Y-94753371D01*
X124267542Y-94753371D02*
X124315161Y-94800990D01*
X124315161Y-94800990D02*
X124410399Y-94848609D01*
X124410399Y-94848609D02*
X124743732Y-94848609D01*
X123600875Y-95372419D02*
X123696113Y-95324800D01*
X123696113Y-95324800D02*
X123743732Y-95277180D01*
X123743732Y-95277180D02*
X123791351Y-95181942D01*
X123791351Y-95181942D02*
X123791351Y-94896228D01*
X123791351Y-94896228D02*
X123743732Y-94800990D01*
X123743732Y-94800990D02*
X123696113Y-94753371D01*
X123696113Y-94753371D02*
X123600875Y-94705752D01*
X123600875Y-94705752D02*
X123458018Y-94705752D01*
X123458018Y-94705752D02*
X123362780Y-94753371D01*
X123362780Y-94753371D02*
X123315161Y-94800990D01*
X123315161Y-94800990D02*
X123267542Y-94896228D01*
X123267542Y-94896228D02*
X123267542Y-95181942D01*
X123267542Y-95181942D02*
X123315161Y-95277180D01*
X123315161Y-95277180D02*
X123362780Y-95324800D01*
X123362780Y-95324800D02*
X123458018Y-95372419D01*
X123458018Y-95372419D02*
X123600875Y-95372419D01*
X122934208Y-95372419D02*
X122410399Y-94705752D01*
X122934208Y-94705752D02*
X122410399Y-95372419D01*
X121362779Y-94705752D02*
X121124684Y-95372419D01*
X121124684Y-95372419D02*
X120886589Y-94705752D01*
X120315160Y-94372419D02*
X120219922Y-94372419D01*
X120219922Y-94372419D02*
X120124684Y-94420038D01*
X120124684Y-94420038D02*
X120077065Y-94467657D01*
X120077065Y-94467657D02*
X120029446Y-94562895D01*
X120029446Y-94562895D02*
X119981827Y-94753371D01*
X119981827Y-94753371D02*
X119981827Y-94991466D01*
X119981827Y-94991466D02*
X120029446Y-95181942D01*
X120029446Y-95181942D02*
X120077065Y-95277180D01*
X120077065Y-95277180D02*
X120124684Y-95324800D01*
X120124684Y-95324800D02*
X120219922Y-95372419D01*
X120219922Y-95372419D02*
X120315160Y-95372419D01*
X120315160Y-95372419D02*
X120410398Y-95324800D01*
X120410398Y-95324800D02*
X120458017Y-95277180D01*
X120458017Y-95277180D02*
X120505636Y-95181942D01*
X120505636Y-95181942D02*
X120553255Y-94991466D01*
X120553255Y-94991466D02*
X120553255Y-94753371D01*
X120553255Y-94753371D02*
X120505636Y-94562895D01*
X120505636Y-94562895D02*
X120458017Y-94467657D01*
X120458017Y-94467657D02*
X120410398Y-94420038D01*
X120410398Y-94420038D02*
X120315160Y-94372419D01*
D11*
%TO.C,G\u002A\u002A\u002A*%
G36*
X138713242Y-83857650D02*
G01*
X138802254Y-83868089D01*
X138889175Y-83888293D01*
X138972765Y-83918164D01*
X139051784Y-83957604D01*
X139124991Y-84006513D01*
X139191146Y-84064793D01*
X139249010Y-84132346D01*
X139256648Y-84143143D01*
X139271228Y-84165610D01*
X139285710Y-84189772D01*
X139298291Y-84212450D01*
X139307163Y-84230465D01*
X139310521Y-84240639D01*
X139305155Y-84242352D01*
X139289875Y-84243664D01*
X139268158Y-84244166D01*
X139225795Y-84244166D01*
X139206125Y-84209440D01*
X139191858Y-84186091D01*
X139145835Y-84127159D01*
X139089379Y-84073785D01*
X139024036Y-84026982D01*
X138951349Y-83987766D01*
X138872865Y-83957152D01*
X138790128Y-83936155D01*
X138752919Y-83931021D01*
X138699780Y-83927832D01*
X138642293Y-83927904D01*
X138584786Y-83931094D01*
X138531581Y-83937257D01*
X138487006Y-83946250D01*
X138441548Y-83960946D01*
X138386367Y-83984121D01*
X138331328Y-84012119D01*
X138280753Y-84042723D01*
X138238959Y-84073712D01*
X138230484Y-84081100D01*
X138201397Y-84109243D01*
X138172614Y-84140770D01*
X138146595Y-84172714D01*
X138125802Y-84202105D01*
X138112695Y-84225976D01*
X138111163Y-84229510D01*
X138106086Y-84237678D01*
X138098059Y-84242063D01*
X138083656Y-84243835D01*
X138059451Y-84244166D01*
X138013840Y-84244166D01*
X138031409Y-84209496D01*
X138032116Y-84208110D01*
X138056295Y-84167233D01*
X138087581Y-84123434D01*
X138122443Y-84081312D01*
X138157352Y-84045463D01*
X138204704Y-84005628D01*
X138280220Y-83955399D01*
X138361085Y-83915528D01*
X138446060Y-83885916D01*
X138533905Y-83866465D01*
X138623379Y-83857076D01*
X138713242Y-83857650D01*
G37*
G36*
X140995273Y-83857650D02*
G01*
X141084285Y-83868089D01*
X141171206Y-83888293D01*
X141254796Y-83918164D01*
X141333815Y-83957604D01*
X141407022Y-84006513D01*
X141473178Y-84064793D01*
X141531041Y-84132346D01*
X141538679Y-84143143D01*
X141553259Y-84165610D01*
X141567742Y-84189772D01*
X141580322Y-84212450D01*
X141589194Y-84230465D01*
X141592553Y-84240639D01*
X141587186Y-84242352D01*
X141571906Y-84243664D01*
X141550189Y-84244166D01*
X141507826Y-84244166D01*
X141488156Y-84209440D01*
X141473889Y-84186091D01*
X141427866Y-84127159D01*
X141371411Y-84073785D01*
X141306067Y-84026982D01*
X141233381Y-83987766D01*
X141154896Y-83957152D01*
X141072160Y-83936155D01*
X141034950Y-83931021D01*
X140981811Y-83927832D01*
X140924325Y-83927904D01*
X140866817Y-83931094D01*
X140813613Y-83937257D01*
X140769037Y-83946250D01*
X140723579Y-83960946D01*
X140668398Y-83984121D01*
X140613360Y-84012119D01*
X140562784Y-84042723D01*
X140520990Y-84073712D01*
X140512515Y-84081100D01*
X140483429Y-84109243D01*
X140454645Y-84140770D01*
X140428627Y-84172714D01*
X140407833Y-84202105D01*
X140394726Y-84225976D01*
X140393194Y-84229510D01*
X140388118Y-84237678D01*
X140380090Y-84242063D01*
X140365687Y-84243835D01*
X140341482Y-84244166D01*
X140295871Y-84244166D01*
X140313440Y-84209496D01*
X140314147Y-84208110D01*
X140338326Y-84167233D01*
X140369612Y-84123434D01*
X140404474Y-84081312D01*
X140439383Y-84045463D01*
X140486735Y-84005628D01*
X140562251Y-83955399D01*
X140643116Y-83915528D01*
X140728092Y-83885916D01*
X140815936Y-83866465D01*
X140905410Y-83857076D01*
X140995273Y-83857650D01*
G37*
G36*
X139250227Y-84773366D02*
G01*
X139247969Y-84824354D01*
X139242098Y-84867312D01*
X139220014Y-84946749D01*
X139185265Y-85026467D01*
X139139960Y-85099458D01*
X139084972Y-85164830D01*
X139021176Y-85221693D01*
X138949445Y-85269157D01*
X138870655Y-85306330D01*
X138785679Y-85332322D01*
X138765780Y-85335817D01*
X138725899Y-85339313D01*
X138679382Y-85340377D01*
X138630119Y-85339138D01*
X138581997Y-85335727D01*
X138538903Y-85330274D01*
X138504726Y-85322910D01*
X138449356Y-85303662D01*
X138371389Y-85264918D01*
X138298718Y-85214236D01*
X138231825Y-85151917D01*
X138192871Y-85105822D01*
X138146866Y-85034955D01*
X138112203Y-84959279D01*
X138088951Y-84880076D01*
X138077176Y-84798632D01*
X138076944Y-84716231D01*
X138088324Y-84634156D01*
X138111381Y-84553691D01*
X138112330Y-84551575D01*
X138186042Y-84551575D01*
X138187221Y-84551921D01*
X138196106Y-84547961D01*
X138210847Y-84539081D01*
X138254315Y-84517203D01*
X138304140Y-84504964D01*
X138355262Y-84503905D01*
X138405802Y-84513458D01*
X138453882Y-84533051D01*
X138497622Y-84562117D01*
X138535143Y-84600083D01*
X138564568Y-84646381D01*
X138572481Y-84662991D01*
X138579889Y-84681880D01*
X138584028Y-84700194D01*
X138585830Y-84722531D01*
X138586224Y-84753489D01*
X138586048Y-84776520D01*
X138584747Y-84800927D01*
X138581384Y-84819944D01*
X138575038Y-84838159D01*
X138564785Y-84860156D01*
X138560043Y-84869283D01*
X138527838Y-84915428D01*
X138486448Y-84954574D01*
X138438839Y-84983809D01*
X138432234Y-84986840D01*
X138412745Y-84994461D01*
X138393579Y-84998921D01*
X138370227Y-85001015D01*
X138338178Y-85001536D01*
X138328444Y-85001525D01*
X138304521Y-85001082D01*
X138285429Y-84999295D01*
X138267846Y-84995226D01*
X138248452Y-84987936D01*
X138223927Y-84976488D01*
X138190951Y-84959943D01*
X138188348Y-84961085D01*
X138191120Y-84971035D01*
X138199399Y-84988487D01*
X138212245Y-85011499D01*
X138228719Y-85038126D01*
X138241576Y-85057025D01*
X138293236Y-85118363D01*
X138353752Y-85170988D01*
X138421501Y-85213824D01*
X138494861Y-85245795D01*
X138572208Y-85265826D01*
X138606161Y-85270678D01*
X138689023Y-85273598D01*
X138769453Y-85263844D01*
X138846472Y-85241748D01*
X138919101Y-85207641D01*
X138986360Y-85161856D01*
X139047270Y-85104724D01*
X139087321Y-85054890D01*
X139128167Y-84986610D01*
X139158603Y-84913065D01*
X139177721Y-84836540D01*
X139184613Y-84759317D01*
X139184461Y-84744234D01*
X139176069Y-84666226D01*
X139155596Y-84589395D01*
X139123942Y-84515910D01*
X139082005Y-84447943D01*
X139030684Y-84387662D01*
X138968970Y-84334607D01*
X138900356Y-84292395D01*
X138826069Y-84262074D01*
X138746414Y-84243767D01*
X138661697Y-84237598D01*
X138656627Y-84237618D01*
X138574594Y-84244673D01*
X138496249Y-84264003D01*
X138422717Y-84295031D01*
X138355126Y-84337179D01*
X138294602Y-84389869D01*
X138242273Y-84452526D01*
X138227092Y-84475037D01*
X138211748Y-84499811D01*
X138198630Y-84522874D01*
X138189480Y-84541152D01*
X138186042Y-84551575D01*
X138112330Y-84551575D01*
X138146182Y-84476121D01*
X138192795Y-84402730D01*
X138234924Y-84352294D01*
X138297098Y-84295125D01*
X138366331Y-84247893D01*
X138441236Y-84211031D01*
X138520424Y-84184969D01*
X138602510Y-84170141D01*
X138686105Y-84166978D01*
X138769824Y-84175912D01*
X138852278Y-84197375D01*
X138905867Y-84218894D01*
X138980473Y-84260274D01*
X139048591Y-84311957D01*
X139108993Y-84372653D01*
X139160452Y-84441072D01*
X139201741Y-84515926D01*
X139231631Y-84595923D01*
X139237097Y-84618205D01*
X139244614Y-84665693D01*
X139249050Y-84718946D01*
X139249923Y-84759317D01*
X139250227Y-84773366D01*
G37*
G36*
X141532259Y-84733678D02*
G01*
X141530000Y-84784666D01*
X141524129Y-84827625D01*
X141502045Y-84907062D01*
X141467297Y-84986780D01*
X141421991Y-85059770D01*
X141367003Y-85125143D01*
X141303207Y-85182006D01*
X141231476Y-85229469D01*
X141152686Y-85266643D01*
X141067710Y-85292635D01*
X141047811Y-85296129D01*
X141007930Y-85299626D01*
X140961414Y-85300689D01*
X140912150Y-85299451D01*
X140864028Y-85296040D01*
X140820935Y-85290587D01*
X140786757Y-85283222D01*
X140731388Y-85263974D01*
X140653420Y-85225231D01*
X140580749Y-85174549D01*
X140513856Y-85112230D01*
X140474902Y-85066134D01*
X140428897Y-84995268D01*
X140394235Y-84919591D01*
X140370982Y-84840389D01*
X140359207Y-84758945D01*
X140358976Y-84676543D01*
X140370355Y-84594468D01*
X140393412Y-84514003D01*
X140394361Y-84511887D01*
X140468073Y-84511887D01*
X140469252Y-84512233D01*
X140478138Y-84508274D01*
X140492878Y-84499394D01*
X140536346Y-84477516D01*
X140586171Y-84465276D01*
X140637294Y-84464218D01*
X140687834Y-84473770D01*
X140735913Y-84493364D01*
X140779653Y-84522429D01*
X140817174Y-84560396D01*
X140846599Y-84606694D01*
X140854513Y-84623303D01*
X140861920Y-84642192D01*
X140866060Y-84660506D01*
X140867862Y-84682843D01*
X140868256Y-84713802D01*
X140868079Y-84736833D01*
X140866779Y-84761239D01*
X140863416Y-84780257D01*
X140857069Y-84798471D01*
X140846816Y-84820469D01*
X140842075Y-84829595D01*
X140809869Y-84875741D01*
X140768479Y-84914887D01*
X140720870Y-84944121D01*
X140714266Y-84947152D01*
X140694776Y-84954773D01*
X140675610Y-84959233D01*
X140652258Y-84961327D01*
X140620209Y-84961849D01*
X140610476Y-84961838D01*
X140586552Y-84961395D01*
X140567460Y-84959608D01*
X140549877Y-84955538D01*
X140530484Y-84948249D01*
X140505959Y-84936801D01*
X140472982Y-84920256D01*
X140470379Y-84921398D01*
X140473151Y-84931347D01*
X140481430Y-84948800D01*
X140494276Y-84971812D01*
X140510750Y-84998439D01*
X140523607Y-85017337D01*
X140575267Y-85078675D01*
X140635783Y-85131300D01*
X140703532Y-85174136D01*
X140776892Y-85206108D01*
X140854239Y-85226139D01*
X140888192Y-85230990D01*
X140971054Y-85233911D01*
X141051484Y-85224157D01*
X141128503Y-85202061D01*
X141201132Y-85167954D01*
X141268391Y-85122168D01*
X141329301Y-85065037D01*
X141369352Y-85015203D01*
X141410198Y-84946922D01*
X141440634Y-84873378D01*
X141459752Y-84796852D01*
X141466645Y-84719629D01*
X141466492Y-84704547D01*
X141458100Y-84626538D01*
X141437628Y-84549707D01*
X141405974Y-84476223D01*
X141364036Y-84408255D01*
X141312715Y-84347974D01*
X141251001Y-84294919D01*
X141182388Y-84252708D01*
X141108100Y-84222386D01*
X141028445Y-84204079D01*
X140943728Y-84197911D01*
X140938659Y-84197931D01*
X140856625Y-84204986D01*
X140778280Y-84224316D01*
X140704748Y-84255343D01*
X140637157Y-84297491D01*
X140576634Y-84350182D01*
X140524304Y-84412838D01*
X140509123Y-84435349D01*
X140493780Y-84460124D01*
X140480661Y-84483186D01*
X140471511Y-84501465D01*
X140468073Y-84511887D01*
X140394361Y-84511887D01*
X140428213Y-84436433D01*
X140474826Y-84363042D01*
X140516955Y-84312607D01*
X140579130Y-84255438D01*
X140648363Y-84208206D01*
X140723267Y-84171343D01*
X140802455Y-84145282D01*
X140884541Y-84130454D01*
X140968136Y-84127291D01*
X141051855Y-84136224D01*
X141134310Y-84157687D01*
X141187898Y-84179206D01*
X141262504Y-84220587D01*
X141330622Y-84272269D01*
X141391024Y-84332965D01*
X141442483Y-84401385D01*
X141483772Y-84476238D01*
X141513663Y-84556236D01*
X141519129Y-84578518D01*
X141526645Y-84626006D01*
X141531081Y-84679259D01*
X141531955Y-84719629D01*
X141532259Y-84733678D01*
G37*
G36*
X139958750Y-84680338D02*
G01*
X139958750Y-84691164D01*
X139958697Y-84837453D01*
X139958552Y-84971595D01*
X139958314Y-85093491D01*
X139957986Y-85203044D01*
X139957567Y-85300155D01*
X139957059Y-85384725D01*
X139956461Y-85456657D01*
X139955775Y-85515851D01*
X139955001Y-85562210D01*
X139954141Y-85595636D01*
X139953194Y-85616029D01*
X139952162Y-85623291D01*
X139951971Y-85623418D01*
X139947939Y-85632572D01*
X139947201Y-85648342D01*
X139948829Y-85669321D01*
X139286200Y-85910965D01*
X139197411Y-85943364D01*
X139111178Y-85974869D01*
X139029261Y-86004836D01*
X138952472Y-86032966D01*
X138881621Y-86058961D01*
X138817521Y-86082522D01*
X138760983Y-86103350D01*
X138712819Y-86121148D01*
X138673840Y-86135615D01*
X138644857Y-86146454D01*
X138626683Y-86153366D01*
X138620129Y-86156052D01*
X138624042Y-86157863D01*
X138639313Y-86163885D01*
X138665171Y-86173753D01*
X138700608Y-86187098D01*
X138744616Y-86203551D01*
X138796189Y-86222741D01*
X138854319Y-86244298D01*
X138917998Y-86267853D01*
X138986219Y-86293037D01*
X139057974Y-86319478D01*
X139132256Y-86346807D01*
X139208058Y-86374655D01*
X139284371Y-86402652D01*
X139360188Y-86430427D01*
X139434502Y-86457612D01*
X139506306Y-86483835D01*
X139574592Y-86508728D01*
X139638352Y-86531920D01*
X139696578Y-86553042D01*
X139748265Y-86571724D01*
X139792403Y-86587596D01*
X139827985Y-86600288D01*
X139854005Y-86609430D01*
X139869454Y-86614653D01*
X139874251Y-86616256D01*
X139895139Y-86624028D01*
X139917337Y-86633126D01*
X139925644Y-86636599D01*
X139942363Y-86642803D01*
X139952064Y-86645260D01*
X139954566Y-86650071D01*
X139956736Y-86665689D01*
X139958207Y-86689589D01*
X139958998Y-86719150D01*
X139959126Y-86751751D01*
X139958610Y-86784770D01*
X139957470Y-86815586D01*
X139955722Y-86841578D01*
X139953387Y-86860124D01*
X139950482Y-86868604D01*
X139942527Y-86872849D01*
X139924845Y-86879734D01*
X139902527Y-86886940D01*
X139892249Y-86890287D01*
X139870225Y-86897877D01*
X139838148Y-86909150D01*
X139797042Y-86923733D01*
X139747929Y-86941257D01*
X139691831Y-86961350D01*
X139629773Y-86983641D01*
X139562775Y-87007761D01*
X139491862Y-87033337D01*
X139418056Y-87060000D01*
X139342380Y-87087378D01*
X139265856Y-87115100D01*
X139189508Y-87142797D01*
X139114358Y-87170096D01*
X139041429Y-87196627D01*
X138971744Y-87222020D01*
X138906326Y-87245903D01*
X138846196Y-87267905D01*
X138792379Y-87287657D01*
X138745897Y-87304787D01*
X138707773Y-87318924D01*
X138679029Y-87329697D01*
X138660689Y-87336736D01*
X138653775Y-87339670D01*
X138658273Y-87342122D01*
X138674372Y-87348839D01*
X138701367Y-87359482D01*
X138738454Y-87373751D01*
X138784829Y-87391346D01*
X138839688Y-87411964D01*
X138902228Y-87435306D01*
X138971644Y-87461070D01*
X139047134Y-87488956D01*
X139127893Y-87518663D01*
X139213117Y-87549889D01*
X139302004Y-87582335D01*
X139955443Y-87820411D01*
X139957131Y-88429129D01*
X139958819Y-89037846D01*
X140936089Y-89393260D01*
X140997899Y-89415749D01*
X141105317Y-89454879D01*
X141208957Y-89492692D01*
X141308151Y-89528942D01*
X141402234Y-89563384D01*
X141490540Y-89595772D01*
X141572403Y-89625861D01*
X141647158Y-89653405D01*
X141714137Y-89678159D01*
X141772675Y-89699876D01*
X141822106Y-89718312D01*
X141861764Y-89733221D01*
X141890983Y-89744357D01*
X141909097Y-89751475D01*
X141915441Y-89754330D01*
X141915898Y-89755120D01*
X141924681Y-89761096D01*
X141940245Y-89767484D01*
X141943326Y-89768592D01*
X141957293Y-89776470D01*
X141962969Y-89784846D01*
X141961968Y-89796927D01*
X141958760Y-89819081D01*
X141953883Y-89847603D01*
X141947890Y-89879721D01*
X141941335Y-89912660D01*
X141934772Y-89943648D01*
X141928754Y-89969912D01*
X141923835Y-89988678D01*
X141920570Y-89997173D01*
X141916533Y-89999051D01*
X141900912Y-90005116D01*
X141874419Y-90014955D01*
X141837953Y-90028252D01*
X141792409Y-90044692D01*
X141738687Y-90063960D01*
X141677684Y-90085740D01*
X141610297Y-90109718D01*
X141537424Y-90135576D01*
X141459963Y-90163001D01*
X141378811Y-90191677D01*
X141294866Y-90221288D01*
X141209025Y-90251520D01*
X141122187Y-90282056D01*
X141035249Y-90312582D01*
X140949109Y-90342781D01*
X140864664Y-90372340D01*
X140782811Y-90400942D01*
X140704449Y-90428271D01*
X140630476Y-90454014D01*
X140561788Y-90477854D01*
X140499283Y-90499475D01*
X140443860Y-90518564D01*
X140396415Y-90534803D01*
X140357847Y-90547879D01*
X140329053Y-90557475D01*
X140310930Y-90563276D01*
X140304377Y-90564967D01*
X140302366Y-90561534D01*
X140296409Y-90547334D01*
X140287914Y-90524604D01*
X140277657Y-90495677D01*
X140266410Y-90462886D01*
X140254951Y-90428563D01*
X140244052Y-90395041D01*
X140234489Y-90364652D01*
X140227037Y-90339729D01*
X140222470Y-90322605D01*
X140221563Y-90315612D01*
X140223396Y-90314257D01*
X140235427Y-90308339D01*
X140253099Y-90301533D01*
X140282407Y-90291402D01*
X140338652Y-90271890D01*
X140401118Y-90250148D01*
X140468821Y-90226522D01*
X140540775Y-90201360D01*
X140615995Y-90175009D01*
X140693499Y-90147817D01*
X140772300Y-90120131D01*
X140851414Y-90092298D01*
X140929856Y-90064667D01*
X141006643Y-90037583D01*
X141080789Y-90011396D01*
X141151310Y-89986451D01*
X141217220Y-89963096D01*
X141277537Y-89941680D01*
X141331274Y-89922548D01*
X141377447Y-89906049D01*
X141415072Y-89892530D01*
X141443165Y-89882338D01*
X141460739Y-89875820D01*
X141466812Y-89873325D01*
X141463925Y-89872041D01*
X141449851Y-89866585D01*
X141424905Y-89857180D01*
X141390009Y-89844163D01*
X141346089Y-89827872D01*
X141294069Y-89808645D01*
X141234874Y-89786821D01*
X141169428Y-89762737D01*
X141098655Y-89736731D01*
X141023480Y-89709141D01*
X140944829Y-89680306D01*
X140863624Y-89650563D01*
X140780791Y-89620251D01*
X140697255Y-89589707D01*
X140613939Y-89559269D01*
X140531768Y-89529275D01*
X140451668Y-89500063D01*
X140374562Y-89471972D01*
X140301374Y-89445339D01*
X140233030Y-89420503D01*
X140170455Y-89397801D01*
X140114571Y-89377571D01*
X140066305Y-89360151D01*
X140026580Y-89345879D01*
X139996321Y-89335094D01*
X139976453Y-89328134D01*
X139967900Y-89325335D01*
X139967842Y-89325323D01*
X139966289Y-89326670D01*
X139964917Y-89331760D01*
X139963716Y-89341323D01*
X139962674Y-89356088D01*
X139961782Y-89376786D01*
X139961028Y-89404145D01*
X139960402Y-89438897D01*
X139959893Y-89481769D01*
X139959490Y-89533492D01*
X139959182Y-89594796D01*
X139958959Y-89666411D01*
X139958810Y-89749065D01*
X139958725Y-89843490D01*
X139958691Y-89950413D01*
X139958632Y-90577630D01*
X139413042Y-90776067D01*
X139341205Y-90802225D01*
X139263191Y-90830703D01*
X139189614Y-90857637D01*
X139121362Y-90882695D01*
X139059325Y-90905551D01*
X139004392Y-90925874D01*
X138957451Y-90943337D01*
X138919392Y-90957608D01*
X138891105Y-90968361D01*
X138873477Y-90975266D01*
X138867398Y-90977993D01*
X138871048Y-90979371D01*
X138886024Y-90982870D01*
X138910942Y-90987970D01*
X138944041Y-90994327D01*
X138983563Y-91001595D01*
X139027748Y-91009429D01*
X139051075Y-91013503D01*
X139103294Y-91022663D01*
X139163896Y-91033335D01*
X139229854Y-91044986D01*
X139298140Y-91057078D01*
X139365726Y-91069078D01*
X139429584Y-91080451D01*
X139479914Y-91089400D01*
X139536708Y-91099429D01*
X139590344Y-91108830D01*
X139638849Y-91117260D01*
X139680251Y-91124377D01*
X139712577Y-91129838D01*
X139733855Y-91133301D01*
X139764087Y-91138189D01*
X139803537Y-91144862D01*
X139845892Y-91152252D01*
X139885990Y-91159472D01*
X139915045Y-91164779D01*
X139961549Y-91173203D01*
X140016575Y-91183109D01*
X140079144Y-91194324D01*
X140148278Y-91206676D01*
X140222996Y-91219992D01*
X140302320Y-91234099D01*
X140385269Y-91248825D01*
X140470864Y-91263997D01*
X140558126Y-91279441D01*
X140646076Y-91294986D01*
X140733734Y-91310458D01*
X140820120Y-91325686D01*
X140904255Y-91340495D01*
X140985161Y-91354714D01*
X141061856Y-91368169D01*
X141133363Y-91380689D01*
X141198701Y-91392099D01*
X141256891Y-91402228D01*
X141306953Y-91410903D01*
X141347909Y-91417950D01*
X141378779Y-91423198D01*
X141398582Y-91426474D01*
X141406341Y-91427604D01*
X141406821Y-91427702D01*
X141409536Y-91433386D01*
X141411553Y-91448499D01*
X141412926Y-91473990D01*
X141413710Y-91510807D01*
X141413959Y-91559896D01*
X141413953Y-91568228D01*
X141413626Y-91615380D01*
X141412756Y-91650405D01*
X141411288Y-91674249D01*
X141409168Y-91687861D01*
X141406341Y-91692187D01*
X141404842Y-91692359D01*
X141392333Y-91694339D01*
X141368149Y-91698398D01*
X141333261Y-91704364D01*
X141288644Y-91712067D01*
X141235269Y-91721335D01*
X141174109Y-91731996D01*
X141106138Y-91743878D01*
X141032327Y-91756811D01*
X140953651Y-91770622D01*
X140871081Y-91785141D01*
X140785590Y-91800196D01*
X140698151Y-91815614D01*
X140609738Y-91831226D01*
X140521322Y-91846858D01*
X140433877Y-91862341D01*
X140348375Y-91877502D01*
X140265789Y-91892169D01*
X140187092Y-91906172D01*
X140113257Y-91919338D01*
X140045257Y-91931497D01*
X139984064Y-91942477D01*
X139930650Y-91952106D01*
X139885990Y-91960212D01*
X139884180Y-91960542D01*
X139846228Y-91967378D01*
X139808421Y-91974054D01*
X139775046Y-91979819D01*
X139750391Y-91983924D01*
X139749013Y-91984146D01*
X139730568Y-91987236D01*
X139701106Y-91992285D01*
X139662424Y-91998978D01*
X139616316Y-92006999D01*
X139564578Y-92016033D01*
X139509006Y-92025764D01*
X139451395Y-92035877D01*
X139393541Y-92046056D01*
X139337238Y-92055986D01*
X139284284Y-92065351D01*
X139236472Y-92073837D01*
X139195599Y-92081126D01*
X139163459Y-92086904D01*
X139141849Y-92090856D01*
X139095547Y-92099480D01*
X139141849Y-92107488D01*
X139157336Y-92110198D01*
X139184980Y-92115077D01*
X139222144Y-92121663D01*
X139267008Y-92129632D01*
X139317750Y-92138660D01*
X139372549Y-92148423D01*
X139429584Y-92158598D01*
X139479918Y-92167554D01*
X139536711Y-92177589D01*
X139590346Y-92186996D01*
X139638850Y-92195431D01*
X139680251Y-92202551D01*
X139712577Y-92208015D01*
X139733855Y-92211478D01*
X139764087Y-92216366D01*
X139803537Y-92223039D01*
X139845892Y-92230430D01*
X139885990Y-92237649D01*
X139915045Y-92242957D01*
X139961549Y-92251380D01*
X140016575Y-92261286D01*
X140079144Y-92272501D01*
X140148278Y-92284853D01*
X140222996Y-92298169D01*
X140302320Y-92312276D01*
X140385269Y-92327002D01*
X140470864Y-92342174D01*
X140558126Y-92357618D01*
X140646076Y-92373163D01*
X140733734Y-92388635D01*
X140820120Y-92403863D01*
X140904255Y-92418672D01*
X140985161Y-92432891D01*
X141061856Y-92446346D01*
X141133363Y-92458866D01*
X141198701Y-92470276D01*
X141256891Y-92480405D01*
X141306953Y-92489080D01*
X141347909Y-92496127D01*
X141378779Y-92501375D01*
X141398582Y-92504651D01*
X141406341Y-92505781D01*
X141406821Y-92505879D01*
X141409536Y-92511563D01*
X141411553Y-92526676D01*
X141412926Y-92552167D01*
X141413710Y-92588984D01*
X141413959Y-92638073D01*
X141413953Y-92646405D01*
X141413626Y-92693557D01*
X141412756Y-92728582D01*
X141411288Y-92752426D01*
X141409168Y-92766038D01*
X141406341Y-92770364D01*
X141404842Y-92770536D01*
X141392333Y-92772516D01*
X141368149Y-92776575D01*
X141333261Y-92782541D01*
X141288644Y-92790244D01*
X141235269Y-92799512D01*
X141174109Y-92810173D01*
X141106138Y-92822055D01*
X141032327Y-92834988D01*
X140953651Y-92848799D01*
X140871081Y-92863318D01*
X140785590Y-92878373D01*
X140698151Y-92893791D01*
X140609738Y-92909403D01*
X140521322Y-92925035D01*
X140433877Y-92940518D01*
X140348375Y-92955679D01*
X140265789Y-92970346D01*
X140187092Y-92984349D01*
X140113257Y-92997515D01*
X140045257Y-93009674D01*
X139984064Y-93020654D01*
X139930650Y-93030283D01*
X139885990Y-93038389D01*
X139884180Y-93038719D01*
X139846228Y-93045555D01*
X139808421Y-93052231D01*
X139775046Y-93057996D01*
X139750391Y-93062101D01*
X139749013Y-93062323D01*
X139730568Y-93065413D01*
X139701106Y-93070462D01*
X139662424Y-93077155D01*
X139616316Y-93085176D01*
X139564578Y-93094210D01*
X139509006Y-93103941D01*
X139451395Y-93114054D01*
X139393541Y-93124233D01*
X139337238Y-93134163D01*
X139284284Y-93143528D01*
X139236472Y-93152014D01*
X139195599Y-93159303D01*
X139163459Y-93165081D01*
X139141849Y-93169033D01*
X139095547Y-93177657D01*
X139141849Y-93185665D01*
X139157336Y-93188375D01*
X139184980Y-93193254D01*
X139222144Y-93199840D01*
X139267008Y-93207809D01*
X139317750Y-93216837D01*
X139372549Y-93226600D01*
X139429584Y-93236775D01*
X139479918Y-93245731D01*
X139536711Y-93255766D01*
X139590346Y-93265173D01*
X139638850Y-93273608D01*
X139680251Y-93280728D01*
X139712577Y-93286192D01*
X139733855Y-93289655D01*
X139764087Y-93294544D01*
X139803537Y-93301216D01*
X139845892Y-93308607D01*
X139885990Y-93315826D01*
X139915045Y-93321134D01*
X139961549Y-93329557D01*
X140016575Y-93339463D01*
X140079144Y-93350678D01*
X140148278Y-93363030D01*
X140222996Y-93376346D01*
X140302320Y-93390454D01*
X140385269Y-93405179D01*
X140470864Y-93420351D01*
X140558126Y-93435795D01*
X140646076Y-93451340D01*
X140733734Y-93466813D01*
X140820120Y-93482040D01*
X140904255Y-93496849D01*
X140985161Y-93511068D01*
X141061856Y-93524523D01*
X141133363Y-93537043D01*
X141198701Y-93548453D01*
X141256891Y-93558582D01*
X141306953Y-93567257D01*
X141347909Y-93574305D01*
X141378779Y-93579552D01*
X141398582Y-93582828D01*
X141406341Y-93583958D01*
X141406821Y-93584056D01*
X141409536Y-93589740D01*
X141411553Y-93604853D01*
X141412926Y-93630344D01*
X141413710Y-93667161D01*
X141413959Y-93716250D01*
X141413959Y-93848541D01*
X141371596Y-93848541D01*
X141368243Y-93848588D01*
X141360437Y-93849102D01*
X141351252Y-93850384D01*
X141339950Y-93852688D01*
X141325795Y-93856265D01*
X141308052Y-93861368D01*
X141285985Y-93868247D01*
X141258856Y-93877156D01*
X141225930Y-93888346D01*
X141186471Y-93902069D01*
X141139742Y-93918576D01*
X141085008Y-93938121D01*
X141021533Y-93960955D01*
X140948579Y-93987330D01*
X140865411Y-94017498D01*
X140771293Y-94051710D01*
X140665489Y-94090219D01*
X140579557Y-94121511D01*
X140492115Y-94153359D01*
X140408590Y-94183786D01*
X140329835Y-94212481D01*
X140256699Y-94239135D01*
X140190035Y-94263437D01*
X140130694Y-94285077D01*
X140079528Y-94303743D01*
X140037387Y-94319127D01*
X140005124Y-94330916D01*
X139983589Y-94338801D01*
X139973633Y-94342472D01*
X139945521Y-94353047D01*
X139945521Y-95608919D01*
X139945521Y-96864791D01*
X140874870Y-96864791D01*
X141804219Y-96864791D01*
X141804219Y-96997083D01*
X141804219Y-97129375D01*
X139819844Y-97129375D01*
X137835469Y-97129375D01*
X137835469Y-96997083D01*
X137835469Y-96864791D01*
X138761511Y-96864791D01*
X139687553Y-96864791D01*
X139687553Y-95526602D01*
X139687562Y-95393680D01*
X139687603Y-95241518D01*
X139687678Y-95101754D01*
X139687790Y-94973930D01*
X139687942Y-94857588D01*
X139688136Y-94752268D01*
X139688376Y-94657512D01*
X139688664Y-94572862D01*
X139689003Y-94497860D01*
X139689396Y-94432046D01*
X139689846Y-94374962D01*
X139690355Y-94326149D01*
X139690926Y-94285149D01*
X139691563Y-94251504D01*
X139692267Y-94224755D01*
X139693043Y-94204443D01*
X139693891Y-94190110D01*
X139694817Y-94181297D01*
X139695821Y-94177545D01*
X139696068Y-94177311D01*
X139704851Y-94172976D01*
X139725083Y-94164527D01*
X139755878Y-94152297D01*
X139796350Y-94136622D01*
X139845615Y-94117835D01*
X139902786Y-94096271D01*
X139966978Y-94072263D01*
X140037306Y-94046147D01*
X140112885Y-94018255D01*
X140192828Y-93988923D01*
X140276250Y-93958484D01*
X140290088Y-93953447D01*
X140372456Y-93923379D01*
X140450867Y-93894613D01*
X140524472Y-93867469D01*
X140592424Y-93842266D01*
X140653872Y-93819322D01*
X140707970Y-93798957D01*
X140753867Y-93781491D01*
X140790717Y-93767242D01*
X140817669Y-93756529D01*
X140833877Y-93749672D01*
X140838490Y-93746991D01*
X140830266Y-93744904D01*
X140811798Y-93741141D01*
X140788881Y-93737044D01*
X140782920Y-93736031D01*
X140762523Y-93732507D01*
X140731173Y-93727053D01*
X140690220Y-93719908D01*
X140641016Y-93711305D01*
X140584911Y-93701483D01*
X140523255Y-93690676D01*
X140457401Y-93679122D01*
X140388698Y-93667056D01*
X140368289Y-93663470D01*
X140295505Y-93650683D01*
X140223004Y-93637948D01*
X140152607Y-93625585D01*
X140086134Y-93613913D01*
X140025408Y-93603252D01*
X139972248Y-93593922D01*
X139928476Y-93586243D01*
X139895912Y-93580533D01*
X139882531Y-93578185D01*
X139832422Y-93569340D01*
X139774767Y-93559106D01*
X139713738Y-93548225D01*
X139653510Y-93537441D01*
X139598256Y-93527497D01*
X139555236Y-93519746D01*
X139476937Y-93505709D01*
X139394717Y-93491049D01*
X139309574Y-93475938D01*
X139222505Y-93460551D01*
X139134506Y-93445059D01*
X139046574Y-93429635D01*
X138959706Y-93414452D01*
X138874898Y-93399682D01*
X138793148Y-93385500D01*
X138715451Y-93372076D01*
X138642806Y-93359585D01*
X138576209Y-93348199D01*
X138516656Y-93338090D01*
X138465144Y-93329432D01*
X138422670Y-93322397D01*
X138390231Y-93317158D01*
X138368824Y-93313888D01*
X138359445Y-93312760D01*
X138338178Y-93312760D01*
X138338178Y-93177161D01*
X138338178Y-93041562D01*
X138359345Y-93041562D01*
X138359665Y-93041556D01*
X138370831Y-93040245D01*
X138394153Y-93036749D01*
X138428822Y-93031208D01*
X138474031Y-93023760D01*
X138528975Y-93014545D01*
X138592845Y-93003702D01*
X138664834Y-92991370D01*
X138744136Y-92977688D01*
X138829943Y-92962796D01*
X138921448Y-92946833D01*
X139017845Y-92929937D01*
X139118325Y-92912249D01*
X139222082Y-92893908D01*
X139328309Y-92875052D01*
X139436198Y-92855820D01*
X139454220Y-92852601D01*
X139558819Y-92833925D01*
X139652286Y-92817251D01*
X139736246Y-92802292D01*
X139812327Y-92788760D01*
X139882154Y-92776368D01*
X139947355Y-92764829D01*
X140009555Y-92753855D01*
X140070381Y-92743159D01*
X140131460Y-92732452D01*
X140194417Y-92721448D01*
X140260880Y-92709860D01*
X140332474Y-92697399D01*
X140333509Y-92697219D01*
X140395838Y-92686333D01*
X140454080Y-92676077D01*
X140506957Y-92666681D01*
X140553191Y-92658376D01*
X140591502Y-92651395D01*
X140620613Y-92645968D01*
X140639243Y-92642325D01*
X140646116Y-92640700D01*
X140646116Y-92635446D01*
X140646105Y-92635437D01*
X140639032Y-92633776D01*
X140620222Y-92630103D01*
X140590952Y-92624649D01*
X140552502Y-92617644D01*
X140506151Y-92609321D01*
X140453177Y-92599909D01*
X140394859Y-92589640D01*
X140332474Y-92578746D01*
X140320513Y-92576666D01*
X140249857Y-92564365D01*
X140184069Y-92552890D01*
X140121525Y-92541954D01*
X140060597Y-92531268D01*
X139999659Y-92520546D01*
X139937085Y-92509501D01*
X139871248Y-92497844D01*
X139800522Y-92485287D01*
X139723281Y-92471545D01*
X139637897Y-92456329D01*
X139542745Y-92439351D01*
X139436198Y-92420325D01*
X139428197Y-92418896D01*
X139320402Y-92399687D01*
X139214330Y-92380865D01*
X139110787Y-92362566D01*
X139010581Y-92344932D01*
X138914518Y-92328101D01*
X138823406Y-92312212D01*
X138738051Y-92297404D01*
X138659261Y-92283817D01*
X138587844Y-92271590D01*
X138524605Y-92260863D01*
X138470352Y-92251773D01*
X138425893Y-92244461D01*
X138392034Y-92239066D01*
X138369582Y-92235727D01*
X138359345Y-92234583D01*
X138338178Y-92234583D01*
X138338178Y-92098984D01*
X138338178Y-91963385D01*
X138359345Y-91963385D01*
X138359665Y-91963379D01*
X138370831Y-91962068D01*
X138394153Y-91958572D01*
X138428822Y-91953031D01*
X138474031Y-91945583D01*
X138528975Y-91936368D01*
X138592845Y-91925525D01*
X138664834Y-91913193D01*
X138744136Y-91899511D01*
X138829943Y-91884619D01*
X138921448Y-91868656D01*
X139017845Y-91851760D01*
X139118325Y-91834072D01*
X139222082Y-91815730D01*
X139328309Y-91796874D01*
X139436198Y-91777643D01*
X139454220Y-91774424D01*
X139558819Y-91755748D01*
X139652286Y-91739074D01*
X139736246Y-91724115D01*
X139812327Y-91710583D01*
X139882154Y-91698191D01*
X139947355Y-91686652D01*
X140009555Y-91675678D01*
X140070381Y-91664982D01*
X140131460Y-91654275D01*
X140194417Y-91643271D01*
X140260880Y-91631683D01*
X140332474Y-91619222D01*
X140333509Y-91619042D01*
X140395838Y-91608156D01*
X140454080Y-91597899D01*
X140506957Y-91588504D01*
X140553191Y-91580199D01*
X140591502Y-91573218D01*
X140620613Y-91567791D01*
X140639243Y-91564148D01*
X140646116Y-91562522D01*
X140646116Y-91557269D01*
X140646105Y-91557259D01*
X140639032Y-91555599D01*
X140620222Y-91551926D01*
X140590952Y-91546472D01*
X140552502Y-91539467D01*
X140506151Y-91531144D01*
X140453177Y-91521732D01*
X140394859Y-91511463D01*
X140332474Y-91500569D01*
X140320513Y-91498489D01*
X140249857Y-91486188D01*
X140184069Y-91474713D01*
X140121525Y-91463777D01*
X140060597Y-91453091D01*
X139999659Y-91442369D01*
X139937085Y-91431324D01*
X139871248Y-91419666D01*
X139800522Y-91407110D01*
X139723281Y-91393368D01*
X139637897Y-91378152D01*
X139542745Y-91361174D01*
X139436198Y-91342148D01*
X139337880Y-91324609D01*
X139184903Y-91297428D01*
X139044911Y-91272698D01*
X138917897Y-91250418D01*
X138803850Y-91230585D01*
X138702763Y-91213199D01*
X138614626Y-91198258D01*
X138539431Y-91185761D01*
X138477170Y-91175706D01*
X138427832Y-91168091D01*
X138391411Y-91162916D01*
X138367896Y-91160178D01*
X138357279Y-91159876D01*
X138338178Y-91164072D01*
X138338178Y-91027740D01*
X138338255Y-90995754D01*
X138338734Y-90954681D01*
X138339716Y-90924747D01*
X138341278Y-90904670D01*
X138343496Y-90893167D01*
X138346446Y-90888958D01*
X138346555Y-90888924D01*
X138354603Y-90886082D01*
X138374219Y-90879047D01*
X138404590Y-90868113D01*
X138444900Y-90853574D01*
X138494337Y-90835724D01*
X138552087Y-90814857D01*
X138617337Y-90791268D01*
X138689273Y-90765250D01*
X138767081Y-90737098D01*
X138849949Y-90707105D01*
X138937061Y-90675565D01*
X139027606Y-90642773D01*
X139700498Y-90399036D01*
X139700640Y-89871817D01*
X139700782Y-89344597D01*
X139675977Y-89353499D01*
X139671372Y-89355161D01*
X139653562Y-89361624D01*
X139625129Y-89371964D01*
X139587267Y-89385745D01*
X139541171Y-89402531D01*
X139488036Y-89421886D01*
X139429058Y-89443376D01*
X139365431Y-89466564D01*
X139298350Y-89491014D01*
X139229011Y-89516291D01*
X139158608Y-89541959D01*
X139088337Y-89567583D01*
X139019392Y-89592726D01*
X138952968Y-89616953D01*
X138890261Y-89639828D01*
X138832465Y-89660916D01*
X138780776Y-89679781D01*
X138736389Y-89695987D01*
X138700497Y-89709099D01*
X138674298Y-89718680D01*
X138658985Y-89724295D01*
X138641500Y-89730701D01*
X138610511Y-89741991D01*
X138571496Y-89756159D01*
X138526905Y-89772318D01*
X138479185Y-89789579D01*
X138430782Y-89807056D01*
X138386094Y-89823316D01*
X138344186Y-89838838D01*
X138307554Y-89852682D01*
X138277995Y-89864159D01*
X138257307Y-89872583D01*
X138247287Y-89877266D01*
X138245714Y-89878020D01*
X138242083Y-89878659D01*
X138236549Y-89878407D01*
X138228492Y-89877049D01*
X138217295Y-89874370D01*
X138202337Y-89870155D01*
X138183000Y-89864190D01*
X138158665Y-89856260D01*
X138128713Y-89846150D01*
X138092525Y-89833646D01*
X138049482Y-89818534D01*
X137998965Y-89800599D01*
X137940355Y-89779625D01*
X137873034Y-89755399D01*
X137796381Y-89727706D01*
X137709779Y-89696331D01*
X137612608Y-89661060D01*
X137504249Y-89621678D01*
X137384084Y-89577970D01*
X137325655Y-89556711D01*
X137225882Y-89520402D01*
X137129973Y-89485493D01*
X137038641Y-89452242D01*
X136952601Y-89420909D01*
X136872567Y-89391756D01*
X136799253Y-89365043D01*
X136733372Y-89341029D01*
X136675640Y-89319975D01*
X136626769Y-89302141D01*
X136587475Y-89287788D01*
X136558471Y-89277176D01*
X136540471Y-89270564D01*
X136534190Y-89268214D01*
X136535174Y-89263118D01*
X136540044Y-89247703D01*
X136548097Y-89224234D01*
X136558489Y-89194991D01*
X136570379Y-89162252D01*
X136582922Y-89128296D01*
X136595278Y-89095399D01*
X136606604Y-89065842D01*
X136616057Y-89041902D01*
X136622795Y-89025857D01*
X136625975Y-89019987D01*
X136626092Y-89020008D01*
X136633930Y-89022656D01*
X136653382Y-89029534D01*
X136683703Y-89040376D01*
X136724152Y-89054911D01*
X136773985Y-89072871D01*
X136832460Y-89093989D01*
X136898833Y-89117994D01*
X136972361Y-89144619D01*
X137052302Y-89173594D01*
X137137914Y-89204652D01*
X137228452Y-89237523D01*
X137323174Y-89271938D01*
X137421337Y-89307630D01*
X137430168Y-89310842D01*
X137528210Y-89346461D01*
X137622845Y-89380774D01*
X137713323Y-89413513D01*
X137798891Y-89444408D01*
X137878798Y-89473191D01*
X137952292Y-89499591D01*
X138018621Y-89523339D01*
X138077034Y-89544167D01*
X138126778Y-89561805D01*
X138167102Y-89575984D01*
X138197254Y-89586435D01*
X138216482Y-89592888D01*
X138224035Y-89595075D01*
X138226982Y-89594299D01*
X138241435Y-89589535D01*
X138267077Y-89580677D01*
X138303125Y-89568005D01*
X138348794Y-89551800D01*
X138403303Y-89532343D01*
X138465867Y-89509915D01*
X138535704Y-89484798D01*
X138612031Y-89457271D01*
X138694063Y-89427617D01*
X138781018Y-89396116D01*
X138872112Y-89363049D01*
X138966563Y-89328697D01*
X139697474Y-89062609D01*
X139697474Y-88531078D01*
X139697474Y-87999548D01*
X138984944Y-87739988D01*
X138947007Y-87726173D01*
X138854753Y-87692619D01*
X138766043Y-87660412D01*
X138681686Y-87629841D01*
X138602490Y-87601197D01*
X138529260Y-87574770D01*
X138462805Y-87550851D01*
X138403932Y-87529730D01*
X138353449Y-87511698D01*
X138312161Y-87497043D01*
X138280878Y-87486058D01*
X138260406Y-87479032D01*
X138251552Y-87476255D01*
X138238534Y-87472675D01*
X138215876Y-87464619D01*
X138191659Y-87454567D01*
X138152627Y-87437050D01*
X138154452Y-87341786D01*
X138156277Y-87246523D01*
X138212500Y-87224556D01*
X138215272Y-87223487D01*
X138232854Y-87216890D01*
X138261651Y-87206241D01*
X138300704Y-87191889D01*
X138349055Y-87174184D01*
X138405746Y-87153476D01*
X138469817Y-87130113D01*
X138540312Y-87104446D01*
X138616270Y-87076824D01*
X138696734Y-87047596D01*
X138780745Y-87017113D01*
X138867344Y-86985724D01*
X138898966Y-86974268D01*
X138983381Y-86943686D01*
X139064146Y-86914425D01*
X139140382Y-86886805D01*
X139211210Y-86861143D01*
X139275751Y-86837759D01*
X139333126Y-86816969D01*
X139382458Y-86799094D01*
X139422866Y-86784451D01*
X139453472Y-86773358D01*
X139473398Y-86766135D01*
X139481764Y-86763098D01*
X139491569Y-86758474D01*
X139494589Y-86754363D01*
X139492919Y-86753511D01*
X139480652Y-86748568D01*
X139457396Y-86739701D01*
X139424159Y-86727274D01*
X139381948Y-86711652D01*
X139331774Y-86693199D01*
X139274643Y-86672279D01*
X139211565Y-86649257D01*
X139143547Y-86624496D01*
X139071599Y-86598361D01*
X138996728Y-86571215D01*
X138919943Y-86543424D01*
X138842252Y-86515352D01*
X138764664Y-86487362D01*
X138688188Y-86459818D01*
X138613831Y-86433086D01*
X138542602Y-86407529D01*
X138475509Y-86383512D01*
X138413561Y-86361398D01*
X138357766Y-86341552D01*
X138309132Y-86324338D01*
X138268669Y-86310121D01*
X138237384Y-86299264D01*
X138216285Y-86292132D01*
X138206382Y-86289088D01*
X138191957Y-86285490D01*
X138172849Y-86279330D01*
X138161734Y-86273883D01*
X138158476Y-86268229D01*
X138155891Y-86255282D01*
X138154189Y-86233750D01*
X138153255Y-86202089D01*
X138152969Y-86158754D01*
X138152969Y-86050898D01*
X138187696Y-86037915D01*
X138191566Y-86036483D01*
X138208182Y-86030392D01*
X138235999Y-86020226D01*
X138274197Y-86006284D01*
X138321957Y-85988865D01*
X138378461Y-85968266D01*
X138442890Y-85944787D01*
X138514425Y-85918725D01*
X138592247Y-85890379D01*
X138675537Y-85860047D01*
X138763476Y-85828028D01*
X138855246Y-85794620D01*
X138950027Y-85760122D01*
X139002098Y-85741170D01*
X139094607Y-85707497D01*
X139183325Y-85675198D01*
X139267467Y-85644561D01*
X139346248Y-85615871D01*
X139418881Y-85589415D01*
X139484582Y-85565478D01*
X139542565Y-85544348D01*
X139592043Y-85526309D01*
X139632232Y-85511649D01*
X139662346Y-85500654D01*
X139681599Y-85493610D01*
X139689206Y-85490803D01*
X139690502Y-85490007D01*
X139692035Y-85487816D01*
X139693409Y-85483705D01*
X139694631Y-85477008D01*
X139695711Y-85467059D01*
X139696656Y-85453193D01*
X139697477Y-85434746D01*
X139698182Y-85411052D01*
X139698780Y-85381446D01*
X139699279Y-85345262D01*
X139699688Y-85301836D01*
X139700016Y-85250502D01*
X139700272Y-85190596D01*
X139700464Y-85121451D01*
X139700602Y-85042403D01*
X139700694Y-84952787D01*
X139700748Y-84851937D01*
X139700775Y-84739188D01*
X139700782Y-84613875D01*
X139700782Y-83741458D01*
X139829766Y-83741458D01*
X139958750Y-83741458D01*
X139958750Y-84680338D01*
G37*
%TD*%
M02*
