%TF.GenerationSoftware,KiCad,Pcbnew,8.0.8*%
%TF.CreationDate,2025-03-27T00:10:53-04:00*%
%TF.ProjectId,rear_lights_unit_control_box,72656172-5f6c-4696-9768-74735f756e69,0*%
%TF.SameCoordinates,Original*%
%TF.FileFunction,Legend,Bot*%
%TF.FilePolarity,Positive*%
%FSLAX46Y46*%
G04 Gerber Fmt 4.6, Leading zero omitted, Abs format (unit mm)*
G04 Created by KiCad (PCBNEW 8.0.8) date 2025-03-27 00:10:53*
%MOMM*%
%LPD*%
G01*
G04 APERTURE LIST*
%ADD10C,0.100000*%
%ADD11C,0.000000*%
G04 APERTURE END LIST*
D10*
X141348782Y-98154609D02*
X141682115Y-98154609D01*
X141682115Y-98678419D02*
X141682115Y-97678419D01*
X141682115Y-97678419D02*
X141205925Y-97678419D01*
X140396401Y-98678419D02*
X140396401Y-98154609D01*
X140396401Y-98154609D02*
X140444020Y-98059371D01*
X140444020Y-98059371D02*
X140539258Y-98011752D01*
X140539258Y-98011752D02*
X140729734Y-98011752D01*
X140729734Y-98011752D02*
X140824972Y-98059371D01*
X140396401Y-98630800D02*
X140491639Y-98678419D01*
X140491639Y-98678419D02*
X140729734Y-98678419D01*
X140729734Y-98678419D02*
X140824972Y-98630800D01*
X140824972Y-98630800D02*
X140872591Y-98535561D01*
X140872591Y-98535561D02*
X140872591Y-98440323D01*
X140872591Y-98440323D02*
X140824972Y-98345085D01*
X140824972Y-98345085D02*
X140729734Y-98297466D01*
X140729734Y-98297466D02*
X140491639Y-98297466D01*
X140491639Y-98297466D02*
X140396401Y-98249847D01*
X139920210Y-98678419D02*
X139920210Y-98011752D01*
X139920210Y-98202228D02*
X139872591Y-98106990D01*
X139872591Y-98106990D02*
X139824972Y-98059371D01*
X139824972Y-98059371D02*
X139729734Y-98011752D01*
X139729734Y-98011752D02*
X139634496Y-98011752D01*
X139301162Y-98678419D02*
X139301162Y-98011752D01*
X139301162Y-98202228D02*
X139253543Y-98106990D01*
X139253543Y-98106990D02*
X139205924Y-98059371D01*
X139205924Y-98059371D02*
X139110686Y-98011752D01*
X139110686Y-98011752D02*
X139015448Y-98011752D01*
X138682114Y-98678419D02*
X138682114Y-97678419D01*
X138253543Y-98678419D02*
X138253543Y-98154609D01*
X138253543Y-98154609D02*
X138301162Y-98059371D01*
X138301162Y-98059371D02*
X138396400Y-98011752D01*
X138396400Y-98011752D02*
X138539257Y-98011752D01*
X138539257Y-98011752D02*
X138634495Y-98059371D01*
X138634495Y-98059371D02*
X138682114Y-98106990D01*
X137348781Y-98678419D02*
X137348781Y-98154609D01*
X137348781Y-98154609D02*
X137396400Y-98059371D01*
X137396400Y-98059371D02*
X137491638Y-98011752D01*
X137491638Y-98011752D02*
X137682114Y-98011752D01*
X137682114Y-98011752D02*
X137777352Y-98059371D01*
X137348781Y-98630800D02*
X137444019Y-98678419D01*
X137444019Y-98678419D02*
X137682114Y-98678419D01*
X137682114Y-98678419D02*
X137777352Y-98630800D01*
X137777352Y-98630800D02*
X137824971Y-98535561D01*
X137824971Y-98535561D02*
X137824971Y-98440323D01*
X137824971Y-98440323D02*
X137777352Y-98345085D01*
X137777352Y-98345085D02*
X137682114Y-98297466D01*
X137682114Y-98297466D02*
X137444019Y-98297466D01*
X137444019Y-98297466D02*
X137348781Y-98249847D01*
X136444019Y-98678419D02*
X136444019Y-97678419D01*
X136444019Y-98630800D02*
X136539257Y-98678419D01*
X136539257Y-98678419D02*
X136729733Y-98678419D01*
X136729733Y-98678419D02*
X136824971Y-98630800D01*
X136824971Y-98630800D02*
X136872590Y-98583180D01*
X136872590Y-98583180D02*
X136920209Y-98487942D01*
X136920209Y-98487942D02*
X136920209Y-98202228D01*
X136920209Y-98202228D02*
X136872590Y-98106990D01*
X136872590Y-98106990D02*
X136824971Y-98059371D01*
X136824971Y-98059371D02*
X136729733Y-98011752D01*
X136729733Y-98011752D02*
X136539257Y-98011752D01*
X136539257Y-98011752D02*
X136444019Y-98059371D01*
X136110685Y-97678419D02*
X135539257Y-97678419D01*
X135824971Y-98678419D02*
X135824971Y-97678419D01*
X134824971Y-98630800D02*
X134920209Y-98678419D01*
X134920209Y-98678419D02*
X135110685Y-98678419D01*
X135110685Y-98678419D02*
X135205923Y-98630800D01*
X135205923Y-98630800D02*
X135253542Y-98535561D01*
X135253542Y-98535561D02*
X135253542Y-98154609D01*
X135253542Y-98154609D02*
X135205923Y-98059371D01*
X135205923Y-98059371D02*
X135110685Y-98011752D01*
X135110685Y-98011752D02*
X134920209Y-98011752D01*
X134920209Y-98011752D02*
X134824971Y-98059371D01*
X134824971Y-98059371D02*
X134777352Y-98154609D01*
X134777352Y-98154609D02*
X134777352Y-98249847D01*
X134777352Y-98249847D02*
X135253542Y-98345085D01*
X133920209Y-98630800D02*
X134015447Y-98678419D01*
X134015447Y-98678419D02*
X134205923Y-98678419D01*
X134205923Y-98678419D02*
X134301161Y-98630800D01*
X134301161Y-98630800D02*
X134348780Y-98583180D01*
X134348780Y-98583180D02*
X134396399Y-98487942D01*
X134396399Y-98487942D02*
X134396399Y-98202228D01*
X134396399Y-98202228D02*
X134348780Y-98106990D01*
X134348780Y-98106990D02*
X134301161Y-98059371D01*
X134301161Y-98059371D02*
X134205923Y-98011752D01*
X134205923Y-98011752D02*
X134015447Y-98011752D01*
X134015447Y-98011752D02*
X133920209Y-98059371D01*
X133491637Y-98678419D02*
X133491637Y-97678419D01*
X133063066Y-98678419D02*
X133063066Y-98154609D01*
X133063066Y-98154609D02*
X133110685Y-98059371D01*
X133110685Y-98059371D02*
X133205923Y-98011752D01*
X133205923Y-98011752D02*
X133348780Y-98011752D01*
X133348780Y-98011752D02*
X133444018Y-98059371D01*
X133444018Y-98059371D02*
X133491637Y-98106990D01*
X131253542Y-98678419D02*
X131586875Y-98202228D01*
X131824970Y-98678419D02*
X131824970Y-97678419D01*
X131824970Y-97678419D02*
X131444018Y-97678419D01*
X131444018Y-97678419D02*
X131348780Y-97726038D01*
X131348780Y-97726038D02*
X131301161Y-97773657D01*
X131301161Y-97773657D02*
X131253542Y-97868895D01*
X131253542Y-97868895D02*
X131253542Y-98011752D01*
X131253542Y-98011752D02*
X131301161Y-98106990D01*
X131301161Y-98106990D02*
X131348780Y-98154609D01*
X131348780Y-98154609D02*
X131444018Y-98202228D01*
X131444018Y-98202228D02*
X131824970Y-98202228D01*
X130444018Y-98630800D02*
X130539256Y-98678419D01*
X130539256Y-98678419D02*
X130729732Y-98678419D01*
X130729732Y-98678419D02*
X130824970Y-98630800D01*
X130824970Y-98630800D02*
X130872589Y-98535561D01*
X130872589Y-98535561D02*
X130872589Y-98154609D01*
X130872589Y-98154609D02*
X130824970Y-98059371D01*
X130824970Y-98059371D02*
X130729732Y-98011752D01*
X130729732Y-98011752D02*
X130539256Y-98011752D01*
X130539256Y-98011752D02*
X130444018Y-98059371D01*
X130444018Y-98059371D02*
X130396399Y-98154609D01*
X130396399Y-98154609D02*
X130396399Y-98249847D01*
X130396399Y-98249847D02*
X130872589Y-98345085D01*
X129539256Y-98678419D02*
X129539256Y-98154609D01*
X129539256Y-98154609D02*
X129586875Y-98059371D01*
X129586875Y-98059371D02*
X129682113Y-98011752D01*
X129682113Y-98011752D02*
X129872589Y-98011752D01*
X129872589Y-98011752D02*
X129967827Y-98059371D01*
X129539256Y-98630800D02*
X129634494Y-98678419D01*
X129634494Y-98678419D02*
X129872589Y-98678419D01*
X129872589Y-98678419D02*
X129967827Y-98630800D01*
X129967827Y-98630800D02*
X130015446Y-98535561D01*
X130015446Y-98535561D02*
X130015446Y-98440323D01*
X130015446Y-98440323D02*
X129967827Y-98345085D01*
X129967827Y-98345085D02*
X129872589Y-98297466D01*
X129872589Y-98297466D02*
X129634494Y-98297466D01*
X129634494Y-98297466D02*
X129539256Y-98249847D01*
X129063065Y-98678419D02*
X129063065Y-98011752D01*
X129063065Y-98202228D02*
X129015446Y-98106990D01*
X129015446Y-98106990D02*
X128967827Y-98059371D01*
X128967827Y-98059371D02*
X128872589Y-98011752D01*
X128872589Y-98011752D02*
X128777351Y-98011752D01*
X127205922Y-98678419D02*
X127682112Y-98678419D01*
X127682112Y-98678419D02*
X127682112Y-97678419D01*
X126872588Y-98678419D02*
X126872588Y-98011752D01*
X126872588Y-97678419D02*
X126920207Y-97726038D01*
X126920207Y-97726038D02*
X126872588Y-97773657D01*
X126872588Y-97773657D02*
X126824969Y-97726038D01*
X126824969Y-97726038D02*
X126872588Y-97678419D01*
X126872588Y-97678419D02*
X126872588Y-97773657D01*
X125967827Y-98011752D02*
X125967827Y-98821276D01*
X125967827Y-98821276D02*
X126015446Y-98916514D01*
X126015446Y-98916514D02*
X126063065Y-98964133D01*
X126063065Y-98964133D02*
X126158303Y-99011752D01*
X126158303Y-99011752D02*
X126301160Y-99011752D01*
X126301160Y-99011752D02*
X126396398Y-98964133D01*
X125967827Y-98630800D02*
X126063065Y-98678419D01*
X126063065Y-98678419D02*
X126253541Y-98678419D01*
X126253541Y-98678419D02*
X126348779Y-98630800D01*
X126348779Y-98630800D02*
X126396398Y-98583180D01*
X126396398Y-98583180D02*
X126444017Y-98487942D01*
X126444017Y-98487942D02*
X126444017Y-98202228D01*
X126444017Y-98202228D02*
X126396398Y-98106990D01*
X126396398Y-98106990D02*
X126348779Y-98059371D01*
X126348779Y-98059371D02*
X126253541Y-98011752D01*
X126253541Y-98011752D02*
X126063065Y-98011752D01*
X126063065Y-98011752D02*
X125967827Y-98059371D01*
X125491636Y-98678419D02*
X125491636Y-97678419D01*
X125063065Y-98678419D02*
X125063065Y-98154609D01*
X125063065Y-98154609D02*
X125110684Y-98059371D01*
X125110684Y-98059371D02*
X125205922Y-98011752D01*
X125205922Y-98011752D02*
X125348779Y-98011752D01*
X125348779Y-98011752D02*
X125444017Y-98059371D01*
X125444017Y-98059371D02*
X125491636Y-98106990D01*
X124729731Y-98011752D02*
X124348779Y-98011752D01*
X124586874Y-97678419D02*
X124586874Y-98535561D01*
X124586874Y-98535561D02*
X124539255Y-98630800D01*
X124539255Y-98630800D02*
X124444017Y-98678419D01*
X124444017Y-98678419D02*
X124348779Y-98678419D01*
X123253540Y-97678419D02*
X123253540Y-98487942D01*
X123253540Y-98487942D02*
X123205921Y-98583180D01*
X123205921Y-98583180D02*
X123158302Y-98630800D01*
X123158302Y-98630800D02*
X123063064Y-98678419D01*
X123063064Y-98678419D02*
X122872588Y-98678419D01*
X122872588Y-98678419D02*
X122777350Y-98630800D01*
X122777350Y-98630800D02*
X122729731Y-98583180D01*
X122729731Y-98583180D02*
X122682112Y-98487942D01*
X122682112Y-98487942D02*
X122682112Y-97678419D01*
X122205921Y-98011752D02*
X122205921Y-98678419D01*
X122205921Y-98106990D02*
X122158302Y-98059371D01*
X122158302Y-98059371D02*
X122063064Y-98011752D01*
X122063064Y-98011752D02*
X121920207Y-98011752D01*
X121920207Y-98011752D02*
X121824969Y-98059371D01*
X121824969Y-98059371D02*
X121777350Y-98154609D01*
X121777350Y-98154609D02*
X121777350Y-98678419D01*
X121301159Y-98678419D02*
X121301159Y-98011752D01*
X121301159Y-97678419D02*
X121348778Y-97726038D01*
X121348778Y-97726038D02*
X121301159Y-97773657D01*
X121301159Y-97773657D02*
X121253540Y-97726038D01*
X121253540Y-97726038D02*
X121301159Y-97678419D01*
X121301159Y-97678419D02*
X121301159Y-97773657D01*
X120967826Y-98011752D02*
X120586874Y-98011752D01*
X120824969Y-97678419D02*
X120824969Y-98535561D01*
X120824969Y-98535561D02*
X120777350Y-98630800D01*
X120777350Y-98630800D02*
X120682112Y-98678419D01*
X120682112Y-98678419D02*
X120586874Y-98678419D01*
X118920207Y-98583180D02*
X118967826Y-98630800D01*
X118967826Y-98630800D02*
X119110683Y-98678419D01*
X119110683Y-98678419D02*
X119205921Y-98678419D01*
X119205921Y-98678419D02*
X119348778Y-98630800D01*
X119348778Y-98630800D02*
X119444016Y-98535561D01*
X119444016Y-98535561D02*
X119491635Y-98440323D01*
X119491635Y-98440323D02*
X119539254Y-98249847D01*
X119539254Y-98249847D02*
X119539254Y-98106990D01*
X119539254Y-98106990D02*
X119491635Y-97916514D01*
X119491635Y-97916514D02*
X119444016Y-97821276D01*
X119444016Y-97821276D02*
X119348778Y-97726038D01*
X119348778Y-97726038D02*
X119205921Y-97678419D01*
X119205921Y-97678419D02*
X119110683Y-97678419D01*
X119110683Y-97678419D02*
X118967826Y-97726038D01*
X118967826Y-97726038D02*
X118920207Y-97773657D01*
X118348778Y-98678419D02*
X118444016Y-98630800D01*
X118444016Y-98630800D02*
X118491635Y-98583180D01*
X118491635Y-98583180D02*
X118539254Y-98487942D01*
X118539254Y-98487942D02*
X118539254Y-98202228D01*
X118539254Y-98202228D02*
X118491635Y-98106990D01*
X118491635Y-98106990D02*
X118444016Y-98059371D01*
X118444016Y-98059371D02*
X118348778Y-98011752D01*
X118348778Y-98011752D02*
X118205921Y-98011752D01*
X118205921Y-98011752D02*
X118110683Y-98059371D01*
X118110683Y-98059371D02*
X118063064Y-98106990D01*
X118063064Y-98106990D02*
X118015445Y-98202228D01*
X118015445Y-98202228D02*
X118015445Y-98487942D01*
X118015445Y-98487942D02*
X118063064Y-98583180D01*
X118063064Y-98583180D02*
X118110683Y-98630800D01*
X118110683Y-98630800D02*
X118205921Y-98678419D01*
X118205921Y-98678419D02*
X118348778Y-98678419D01*
X117586873Y-98011752D02*
X117586873Y-98678419D01*
X117586873Y-98106990D02*
X117539254Y-98059371D01*
X117539254Y-98059371D02*
X117444016Y-98011752D01*
X117444016Y-98011752D02*
X117301159Y-98011752D01*
X117301159Y-98011752D02*
X117205921Y-98059371D01*
X117205921Y-98059371D02*
X117158302Y-98154609D01*
X117158302Y-98154609D02*
X117158302Y-98678419D01*
X116824968Y-98011752D02*
X116444016Y-98011752D01*
X116682111Y-97678419D02*
X116682111Y-98535561D01*
X116682111Y-98535561D02*
X116634492Y-98630800D01*
X116634492Y-98630800D02*
X116539254Y-98678419D01*
X116539254Y-98678419D02*
X116444016Y-98678419D01*
X116110682Y-98678419D02*
X116110682Y-98011752D01*
X116110682Y-98202228D02*
X116063063Y-98106990D01*
X116063063Y-98106990D02*
X116015444Y-98059371D01*
X116015444Y-98059371D02*
X115920206Y-98011752D01*
X115920206Y-98011752D02*
X115824968Y-98011752D01*
X115348777Y-98678419D02*
X115444015Y-98630800D01*
X115444015Y-98630800D02*
X115491634Y-98583180D01*
X115491634Y-98583180D02*
X115539253Y-98487942D01*
X115539253Y-98487942D02*
X115539253Y-98202228D01*
X115539253Y-98202228D02*
X115491634Y-98106990D01*
X115491634Y-98106990D02*
X115444015Y-98059371D01*
X115444015Y-98059371D02*
X115348777Y-98011752D01*
X115348777Y-98011752D02*
X115205920Y-98011752D01*
X115205920Y-98011752D02*
X115110682Y-98059371D01*
X115110682Y-98059371D02*
X115063063Y-98106990D01*
X115063063Y-98106990D02*
X115015444Y-98202228D01*
X115015444Y-98202228D02*
X115015444Y-98487942D01*
X115015444Y-98487942D02*
X115063063Y-98583180D01*
X115063063Y-98583180D02*
X115110682Y-98630800D01*
X115110682Y-98630800D02*
X115205920Y-98678419D01*
X115205920Y-98678419D02*
X115348777Y-98678419D01*
X114444015Y-98678419D02*
X114539253Y-98630800D01*
X114539253Y-98630800D02*
X114586872Y-98535561D01*
X114586872Y-98535561D02*
X114586872Y-97678419D01*
X112967824Y-98154609D02*
X112824967Y-98202228D01*
X112824967Y-98202228D02*
X112777348Y-98249847D01*
X112777348Y-98249847D02*
X112729729Y-98345085D01*
X112729729Y-98345085D02*
X112729729Y-98487942D01*
X112729729Y-98487942D02*
X112777348Y-98583180D01*
X112777348Y-98583180D02*
X112824967Y-98630800D01*
X112824967Y-98630800D02*
X112920205Y-98678419D01*
X112920205Y-98678419D02*
X113301157Y-98678419D01*
X113301157Y-98678419D02*
X113301157Y-97678419D01*
X113301157Y-97678419D02*
X112967824Y-97678419D01*
X112967824Y-97678419D02*
X112872586Y-97726038D01*
X112872586Y-97726038D02*
X112824967Y-97773657D01*
X112824967Y-97773657D02*
X112777348Y-97868895D01*
X112777348Y-97868895D02*
X112777348Y-97964133D01*
X112777348Y-97964133D02*
X112824967Y-98059371D01*
X112824967Y-98059371D02*
X112872586Y-98106990D01*
X112872586Y-98106990D02*
X112967824Y-98154609D01*
X112967824Y-98154609D02*
X113301157Y-98154609D01*
X112158300Y-98678419D02*
X112253538Y-98630800D01*
X112253538Y-98630800D02*
X112301157Y-98583180D01*
X112301157Y-98583180D02*
X112348776Y-98487942D01*
X112348776Y-98487942D02*
X112348776Y-98202228D01*
X112348776Y-98202228D02*
X112301157Y-98106990D01*
X112301157Y-98106990D02*
X112253538Y-98059371D01*
X112253538Y-98059371D02*
X112158300Y-98011752D01*
X112158300Y-98011752D02*
X112015443Y-98011752D01*
X112015443Y-98011752D02*
X111920205Y-98059371D01*
X111920205Y-98059371D02*
X111872586Y-98106990D01*
X111872586Y-98106990D02*
X111824967Y-98202228D01*
X111824967Y-98202228D02*
X111824967Y-98487942D01*
X111824967Y-98487942D02*
X111872586Y-98583180D01*
X111872586Y-98583180D02*
X111920205Y-98630800D01*
X111920205Y-98630800D02*
X112015443Y-98678419D01*
X112015443Y-98678419D02*
X112158300Y-98678419D01*
X111491633Y-98678419D02*
X110967824Y-98011752D01*
X111491633Y-98011752D02*
X110967824Y-98678419D01*
X109920204Y-98011752D02*
X109682109Y-98678419D01*
X109682109Y-98678419D02*
X109444014Y-98011752D01*
X108872585Y-97678419D02*
X108777347Y-97678419D01*
X108777347Y-97678419D02*
X108682109Y-97726038D01*
X108682109Y-97726038D02*
X108634490Y-97773657D01*
X108634490Y-97773657D02*
X108586871Y-97868895D01*
X108586871Y-97868895D02*
X108539252Y-98059371D01*
X108539252Y-98059371D02*
X108539252Y-98297466D01*
X108539252Y-98297466D02*
X108586871Y-98487942D01*
X108586871Y-98487942D02*
X108634490Y-98583180D01*
X108634490Y-98583180D02*
X108682109Y-98630800D01*
X108682109Y-98630800D02*
X108777347Y-98678419D01*
X108777347Y-98678419D02*
X108872585Y-98678419D01*
X108872585Y-98678419D02*
X108967823Y-98630800D01*
X108967823Y-98630800D02*
X109015442Y-98583180D01*
X109015442Y-98583180D02*
X109063061Y-98487942D01*
X109063061Y-98487942D02*
X109110680Y-98297466D01*
X109110680Y-98297466D02*
X109110680Y-98059371D01*
X109110680Y-98059371D02*
X109063061Y-97868895D01*
X109063061Y-97868895D02*
X109015442Y-97773657D01*
X109015442Y-97773657D02*
X108967823Y-97726038D01*
X108967823Y-97726038D02*
X108872585Y-97678419D01*
D11*
%TO.C,G\u002A\u002A\u002A*%
G36*
X143947242Y-87137650D02*
G01*
X144036254Y-87148089D01*
X144123175Y-87168293D01*
X144206765Y-87198164D01*
X144285784Y-87237604D01*
X144358991Y-87286513D01*
X144425146Y-87344793D01*
X144483010Y-87412346D01*
X144490648Y-87423143D01*
X144505228Y-87445610D01*
X144519710Y-87469772D01*
X144532291Y-87492450D01*
X144541163Y-87510465D01*
X144544521Y-87520639D01*
X144539155Y-87522352D01*
X144523875Y-87523664D01*
X144502158Y-87524166D01*
X144459795Y-87524166D01*
X144440125Y-87489440D01*
X144425858Y-87466091D01*
X144379835Y-87407159D01*
X144323379Y-87353785D01*
X144258036Y-87306982D01*
X144185349Y-87267766D01*
X144106865Y-87237152D01*
X144024128Y-87216155D01*
X143986919Y-87211021D01*
X143933780Y-87207832D01*
X143876293Y-87207904D01*
X143818786Y-87211094D01*
X143765581Y-87217257D01*
X143721006Y-87226250D01*
X143675548Y-87240946D01*
X143620367Y-87264121D01*
X143565328Y-87292119D01*
X143514753Y-87322723D01*
X143472959Y-87353712D01*
X143464484Y-87361100D01*
X143435397Y-87389243D01*
X143406614Y-87420770D01*
X143380595Y-87452714D01*
X143359802Y-87482105D01*
X143346695Y-87505976D01*
X143345163Y-87509510D01*
X143340086Y-87517678D01*
X143332059Y-87522063D01*
X143317656Y-87523835D01*
X143293451Y-87524166D01*
X143247840Y-87524166D01*
X143265409Y-87489496D01*
X143266116Y-87488110D01*
X143290295Y-87447233D01*
X143321581Y-87403434D01*
X143356443Y-87361312D01*
X143391352Y-87325463D01*
X143438704Y-87285628D01*
X143514220Y-87235399D01*
X143595085Y-87195528D01*
X143680060Y-87165916D01*
X143767905Y-87146465D01*
X143857379Y-87137076D01*
X143947242Y-87137650D01*
G37*
G36*
X146229273Y-87137650D02*
G01*
X146318285Y-87148089D01*
X146405206Y-87168293D01*
X146488796Y-87198164D01*
X146567815Y-87237604D01*
X146641022Y-87286513D01*
X146707178Y-87344793D01*
X146765041Y-87412346D01*
X146772679Y-87423143D01*
X146787259Y-87445610D01*
X146801742Y-87469772D01*
X146814322Y-87492450D01*
X146823194Y-87510465D01*
X146826553Y-87520639D01*
X146821186Y-87522352D01*
X146805906Y-87523664D01*
X146784189Y-87524166D01*
X146741826Y-87524166D01*
X146722156Y-87489440D01*
X146707889Y-87466091D01*
X146661866Y-87407159D01*
X146605411Y-87353785D01*
X146540067Y-87306982D01*
X146467381Y-87267766D01*
X146388896Y-87237152D01*
X146306160Y-87216155D01*
X146268950Y-87211021D01*
X146215811Y-87207832D01*
X146158325Y-87207904D01*
X146100817Y-87211094D01*
X146047613Y-87217257D01*
X146003037Y-87226250D01*
X145957579Y-87240946D01*
X145902398Y-87264121D01*
X145847360Y-87292119D01*
X145796784Y-87322723D01*
X145754990Y-87353712D01*
X145746515Y-87361100D01*
X145717429Y-87389243D01*
X145688645Y-87420770D01*
X145662627Y-87452714D01*
X145641833Y-87482105D01*
X145628726Y-87505976D01*
X145627194Y-87509510D01*
X145622118Y-87517678D01*
X145614090Y-87522063D01*
X145599687Y-87523835D01*
X145575482Y-87524166D01*
X145529871Y-87524166D01*
X145547440Y-87489496D01*
X145548147Y-87488110D01*
X145572326Y-87447233D01*
X145603612Y-87403434D01*
X145638474Y-87361312D01*
X145673383Y-87325463D01*
X145720735Y-87285628D01*
X145796251Y-87235399D01*
X145877116Y-87195528D01*
X145962092Y-87165916D01*
X146049936Y-87146465D01*
X146139410Y-87137076D01*
X146229273Y-87137650D01*
G37*
G36*
X144484227Y-88053366D02*
G01*
X144481969Y-88104354D01*
X144476098Y-88147312D01*
X144454014Y-88226749D01*
X144419265Y-88306467D01*
X144373960Y-88379458D01*
X144318972Y-88444830D01*
X144255176Y-88501693D01*
X144183445Y-88549157D01*
X144104655Y-88586330D01*
X144019679Y-88612322D01*
X143999780Y-88615817D01*
X143959899Y-88619313D01*
X143913382Y-88620377D01*
X143864119Y-88619138D01*
X143815997Y-88615727D01*
X143772903Y-88610274D01*
X143738726Y-88602910D01*
X143683356Y-88583662D01*
X143605389Y-88544918D01*
X143532718Y-88494236D01*
X143465825Y-88431917D01*
X143426871Y-88385822D01*
X143380866Y-88314955D01*
X143346203Y-88239279D01*
X143322951Y-88160076D01*
X143311176Y-88078632D01*
X143310944Y-87996231D01*
X143322324Y-87914156D01*
X143345381Y-87833691D01*
X143346330Y-87831575D01*
X143420042Y-87831575D01*
X143421221Y-87831921D01*
X143430106Y-87827961D01*
X143444847Y-87819081D01*
X143488315Y-87797203D01*
X143538140Y-87784964D01*
X143589262Y-87783905D01*
X143639802Y-87793458D01*
X143687882Y-87813051D01*
X143731622Y-87842117D01*
X143769143Y-87880083D01*
X143798568Y-87926381D01*
X143806481Y-87942991D01*
X143813889Y-87961880D01*
X143818028Y-87980194D01*
X143819830Y-88002531D01*
X143820224Y-88033489D01*
X143820048Y-88056520D01*
X143818747Y-88080927D01*
X143815384Y-88099944D01*
X143809038Y-88118159D01*
X143798785Y-88140156D01*
X143794043Y-88149283D01*
X143761838Y-88195428D01*
X143720448Y-88234574D01*
X143672839Y-88263809D01*
X143666234Y-88266840D01*
X143646745Y-88274461D01*
X143627579Y-88278921D01*
X143604227Y-88281015D01*
X143572178Y-88281536D01*
X143562444Y-88281525D01*
X143538521Y-88281082D01*
X143519429Y-88279295D01*
X143501846Y-88275226D01*
X143482452Y-88267936D01*
X143457927Y-88256488D01*
X143424951Y-88239943D01*
X143422348Y-88241085D01*
X143425120Y-88251035D01*
X143433399Y-88268487D01*
X143446245Y-88291499D01*
X143462719Y-88318126D01*
X143475576Y-88337025D01*
X143527236Y-88398363D01*
X143587752Y-88450988D01*
X143655501Y-88493824D01*
X143728861Y-88525795D01*
X143806208Y-88545826D01*
X143840161Y-88550678D01*
X143923023Y-88553598D01*
X144003453Y-88543844D01*
X144080472Y-88521748D01*
X144153101Y-88487641D01*
X144220360Y-88441856D01*
X144281270Y-88384724D01*
X144321321Y-88334890D01*
X144362167Y-88266610D01*
X144392603Y-88193065D01*
X144411721Y-88116540D01*
X144418613Y-88039317D01*
X144418461Y-88024234D01*
X144410069Y-87946226D01*
X144389596Y-87869395D01*
X144357942Y-87795910D01*
X144316005Y-87727943D01*
X144264684Y-87667662D01*
X144202970Y-87614607D01*
X144134356Y-87572395D01*
X144060069Y-87542074D01*
X143980414Y-87523767D01*
X143895697Y-87517598D01*
X143890627Y-87517618D01*
X143808594Y-87524673D01*
X143730249Y-87544003D01*
X143656717Y-87575031D01*
X143589126Y-87617179D01*
X143528602Y-87669869D01*
X143476273Y-87732526D01*
X143461092Y-87755037D01*
X143445748Y-87779811D01*
X143432630Y-87802874D01*
X143423480Y-87821152D01*
X143420042Y-87831575D01*
X143346330Y-87831575D01*
X143380182Y-87756121D01*
X143426795Y-87682730D01*
X143468924Y-87632294D01*
X143531098Y-87575125D01*
X143600331Y-87527893D01*
X143675236Y-87491031D01*
X143754424Y-87464969D01*
X143836510Y-87450141D01*
X143920105Y-87446978D01*
X144003824Y-87455912D01*
X144086278Y-87477375D01*
X144139867Y-87498894D01*
X144214473Y-87540274D01*
X144282591Y-87591957D01*
X144342993Y-87652653D01*
X144394452Y-87721072D01*
X144435741Y-87795926D01*
X144465631Y-87875923D01*
X144471097Y-87898205D01*
X144478614Y-87945693D01*
X144483050Y-87998946D01*
X144483923Y-88039317D01*
X144484227Y-88053366D01*
G37*
G36*
X146766259Y-88013678D02*
G01*
X146764000Y-88064666D01*
X146758129Y-88107625D01*
X146736045Y-88187062D01*
X146701297Y-88266780D01*
X146655991Y-88339770D01*
X146601003Y-88405143D01*
X146537207Y-88462006D01*
X146465476Y-88509469D01*
X146386686Y-88546643D01*
X146301710Y-88572635D01*
X146281811Y-88576129D01*
X146241930Y-88579626D01*
X146195414Y-88580689D01*
X146146150Y-88579451D01*
X146098028Y-88576040D01*
X146054935Y-88570587D01*
X146020757Y-88563222D01*
X145965388Y-88543974D01*
X145887420Y-88505231D01*
X145814749Y-88454549D01*
X145747856Y-88392230D01*
X145708902Y-88346134D01*
X145662897Y-88275268D01*
X145628235Y-88199591D01*
X145604982Y-88120389D01*
X145593207Y-88038945D01*
X145592976Y-87956543D01*
X145604355Y-87874468D01*
X145627412Y-87794003D01*
X145628361Y-87791887D01*
X145702073Y-87791887D01*
X145703252Y-87792233D01*
X145712138Y-87788274D01*
X145726878Y-87779394D01*
X145770346Y-87757516D01*
X145820171Y-87745276D01*
X145871294Y-87744218D01*
X145921834Y-87753770D01*
X145969913Y-87773364D01*
X146013653Y-87802429D01*
X146051174Y-87840396D01*
X146080599Y-87886694D01*
X146088513Y-87903303D01*
X146095920Y-87922192D01*
X146100060Y-87940506D01*
X146101862Y-87962843D01*
X146102256Y-87993802D01*
X146102079Y-88016833D01*
X146100779Y-88041239D01*
X146097416Y-88060257D01*
X146091069Y-88078471D01*
X146080816Y-88100469D01*
X146076075Y-88109595D01*
X146043869Y-88155741D01*
X146002479Y-88194887D01*
X145954870Y-88224121D01*
X145948266Y-88227152D01*
X145928776Y-88234773D01*
X145909610Y-88239233D01*
X145886258Y-88241327D01*
X145854209Y-88241849D01*
X145844476Y-88241838D01*
X145820552Y-88241395D01*
X145801460Y-88239608D01*
X145783877Y-88235538D01*
X145764484Y-88228249D01*
X145739959Y-88216801D01*
X145706982Y-88200256D01*
X145704379Y-88201398D01*
X145707151Y-88211347D01*
X145715430Y-88228800D01*
X145728276Y-88251812D01*
X145744750Y-88278439D01*
X145757607Y-88297337D01*
X145809267Y-88358675D01*
X145869783Y-88411300D01*
X145937532Y-88454136D01*
X146010892Y-88486108D01*
X146088239Y-88506139D01*
X146122192Y-88510990D01*
X146205054Y-88513911D01*
X146285484Y-88504157D01*
X146362503Y-88482061D01*
X146435132Y-88447954D01*
X146502391Y-88402168D01*
X146563301Y-88345037D01*
X146603352Y-88295203D01*
X146644198Y-88226922D01*
X146674634Y-88153378D01*
X146693752Y-88076852D01*
X146700645Y-87999629D01*
X146700492Y-87984547D01*
X146692100Y-87906538D01*
X146671628Y-87829707D01*
X146639974Y-87756223D01*
X146598036Y-87688255D01*
X146546715Y-87627974D01*
X146485001Y-87574919D01*
X146416388Y-87532708D01*
X146342100Y-87502386D01*
X146262445Y-87484079D01*
X146177728Y-87477911D01*
X146172659Y-87477931D01*
X146090625Y-87484986D01*
X146012280Y-87504316D01*
X145938748Y-87535343D01*
X145871157Y-87577491D01*
X145810634Y-87630182D01*
X145758304Y-87692838D01*
X145743123Y-87715349D01*
X145727780Y-87740124D01*
X145714661Y-87763186D01*
X145705511Y-87781465D01*
X145702073Y-87791887D01*
X145628361Y-87791887D01*
X145662213Y-87716433D01*
X145708826Y-87643042D01*
X145750955Y-87592607D01*
X145813130Y-87535438D01*
X145882363Y-87488206D01*
X145957267Y-87451343D01*
X146036455Y-87425282D01*
X146118541Y-87410454D01*
X146202136Y-87407291D01*
X146285855Y-87416224D01*
X146368310Y-87437687D01*
X146421898Y-87459206D01*
X146496504Y-87500587D01*
X146564622Y-87552269D01*
X146625024Y-87612965D01*
X146676483Y-87681385D01*
X146717772Y-87756238D01*
X146747663Y-87836236D01*
X146753129Y-87858518D01*
X146760645Y-87906006D01*
X146765081Y-87959259D01*
X146765955Y-87999629D01*
X146766259Y-88013678D01*
G37*
G36*
X145192750Y-87960338D02*
G01*
X145192750Y-87971164D01*
X145192697Y-88117453D01*
X145192552Y-88251595D01*
X145192314Y-88373491D01*
X145191986Y-88483044D01*
X145191567Y-88580155D01*
X145191059Y-88664725D01*
X145190461Y-88736657D01*
X145189775Y-88795851D01*
X145189001Y-88842210D01*
X145188141Y-88875636D01*
X145187194Y-88896029D01*
X145186162Y-88903291D01*
X145185971Y-88903418D01*
X145181939Y-88912572D01*
X145181201Y-88928342D01*
X145182829Y-88949321D01*
X144520200Y-89190965D01*
X144431411Y-89223364D01*
X144345178Y-89254869D01*
X144263261Y-89284836D01*
X144186472Y-89312966D01*
X144115621Y-89338961D01*
X144051521Y-89362522D01*
X143994983Y-89383350D01*
X143946819Y-89401148D01*
X143907840Y-89415615D01*
X143878857Y-89426454D01*
X143860683Y-89433366D01*
X143854129Y-89436052D01*
X143858042Y-89437863D01*
X143873313Y-89443885D01*
X143899171Y-89453753D01*
X143934608Y-89467098D01*
X143978616Y-89483551D01*
X144030189Y-89502741D01*
X144088319Y-89524298D01*
X144151998Y-89547853D01*
X144220219Y-89573037D01*
X144291974Y-89599478D01*
X144366256Y-89626807D01*
X144442058Y-89654655D01*
X144518371Y-89682652D01*
X144594188Y-89710427D01*
X144668502Y-89737612D01*
X144740306Y-89763835D01*
X144808592Y-89788728D01*
X144872352Y-89811920D01*
X144930578Y-89833042D01*
X144982265Y-89851724D01*
X145026403Y-89867596D01*
X145061985Y-89880288D01*
X145088005Y-89889430D01*
X145103454Y-89894653D01*
X145108251Y-89896256D01*
X145129139Y-89904028D01*
X145151337Y-89913126D01*
X145159644Y-89916599D01*
X145176363Y-89922803D01*
X145186064Y-89925260D01*
X145188566Y-89930071D01*
X145190736Y-89945689D01*
X145192207Y-89969589D01*
X145192998Y-89999150D01*
X145193126Y-90031751D01*
X145192610Y-90064770D01*
X145191470Y-90095586D01*
X145189722Y-90121578D01*
X145187387Y-90140124D01*
X145184482Y-90148604D01*
X145176527Y-90152849D01*
X145158845Y-90159734D01*
X145136527Y-90166940D01*
X145126249Y-90170287D01*
X145104225Y-90177877D01*
X145072148Y-90189150D01*
X145031042Y-90203733D01*
X144981929Y-90221257D01*
X144925831Y-90241350D01*
X144863773Y-90263641D01*
X144796775Y-90287761D01*
X144725862Y-90313337D01*
X144652056Y-90340000D01*
X144576380Y-90367378D01*
X144499856Y-90395100D01*
X144423508Y-90422797D01*
X144348358Y-90450096D01*
X144275429Y-90476627D01*
X144205744Y-90502020D01*
X144140326Y-90525903D01*
X144080196Y-90547905D01*
X144026379Y-90567657D01*
X143979897Y-90584787D01*
X143941773Y-90598924D01*
X143913029Y-90609697D01*
X143894689Y-90616736D01*
X143887775Y-90619670D01*
X143892273Y-90622122D01*
X143908372Y-90628839D01*
X143935367Y-90639482D01*
X143972454Y-90653751D01*
X144018829Y-90671346D01*
X144073688Y-90691964D01*
X144136228Y-90715306D01*
X144205644Y-90741070D01*
X144281134Y-90768956D01*
X144361893Y-90798663D01*
X144447117Y-90829889D01*
X144536004Y-90862335D01*
X145189443Y-91100411D01*
X145191131Y-91709129D01*
X145192819Y-92317846D01*
X146170089Y-92673260D01*
X146231899Y-92695749D01*
X146339317Y-92734879D01*
X146442957Y-92772692D01*
X146542151Y-92808942D01*
X146636234Y-92843384D01*
X146724540Y-92875772D01*
X146806403Y-92905861D01*
X146881158Y-92933405D01*
X146948137Y-92958159D01*
X147006675Y-92979876D01*
X147056106Y-92998312D01*
X147095764Y-93013221D01*
X147124983Y-93024357D01*
X147143097Y-93031475D01*
X147149441Y-93034330D01*
X147149898Y-93035120D01*
X147158681Y-93041096D01*
X147174245Y-93047484D01*
X147177326Y-93048592D01*
X147191293Y-93056470D01*
X147196969Y-93064846D01*
X147195968Y-93076927D01*
X147192760Y-93099081D01*
X147187883Y-93127603D01*
X147181890Y-93159721D01*
X147175335Y-93192660D01*
X147168772Y-93223648D01*
X147162754Y-93249912D01*
X147157835Y-93268678D01*
X147154570Y-93277173D01*
X147150533Y-93279051D01*
X147134912Y-93285116D01*
X147108419Y-93294955D01*
X147071953Y-93308252D01*
X147026409Y-93324692D01*
X146972687Y-93343960D01*
X146911684Y-93365740D01*
X146844297Y-93389718D01*
X146771424Y-93415576D01*
X146693963Y-93443001D01*
X146612811Y-93471677D01*
X146528866Y-93501288D01*
X146443025Y-93531520D01*
X146356187Y-93562056D01*
X146269249Y-93592582D01*
X146183109Y-93622781D01*
X146098664Y-93652340D01*
X146016811Y-93680942D01*
X145938449Y-93708271D01*
X145864476Y-93734014D01*
X145795788Y-93757854D01*
X145733283Y-93779475D01*
X145677860Y-93798564D01*
X145630415Y-93814803D01*
X145591847Y-93827879D01*
X145563053Y-93837475D01*
X145544930Y-93843276D01*
X145538377Y-93844967D01*
X145536366Y-93841534D01*
X145530409Y-93827334D01*
X145521914Y-93804604D01*
X145511657Y-93775677D01*
X145500410Y-93742886D01*
X145488951Y-93708563D01*
X145478052Y-93675041D01*
X145468489Y-93644652D01*
X145461037Y-93619729D01*
X145456470Y-93602605D01*
X145455563Y-93595612D01*
X145457396Y-93594257D01*
X145469427Y-93588339D01*
X145487099Y-93581533D01*
X145516407Y-93571402D01*
X145572652Y-93551890D01*
X145635118Y-93530148D01*
X145702821Y-93506522D01*
X145774775Y-93481360D01*
X145849995Y-93455009D01*
X145927499Y-93427817D01*
X146006300Y-93400131D01*
X146085414Y-93372298D01*
X146163856Y-93344667D01*
X146240643Y-93317583D01*
X146314789Y-93291396D01*
X146385310Y-93266451D01*
X146451220Y-93243096D01*
X146511537Y-93221680D01*
X146565274Y-93202548D01*
X146611447Y-93186049D01*
X146649072Y-93172530D01*
X146677165Y-93162338D01*
X146694739Y-93155820D01*
X146700812Y-93153325D01*
X146697925Y-93152041D01*
X146683851Y-93146585D01*
X146658905Y-93137180D01*
X146624009Y-93124163D01*
X146580089Y-93107872D01*
X146528069Y-93088645D01*
X146468874Y-93066821D01*
X146403428Y-93042737D01*
X146332655Y-93016731D01*
X146257480Y-92989141D01*
X146178829Y-92960306D01*
X146097624Y-92930563D01*
X146014791Y-92900251D01*
X145931255Y-92869707D01*
X145847939Y-92839269D01*
X145765768Y-92809275D01*
X145685668Y-92780063D01*
X145608562Y-92751972D01*
X145535374Y-92725339D01*
X145467030Y-92700503D01*
X145404455Y-92677801D01*
X145348571Y-92657571D01*
X145300305Y-92640151D01*
X145260580Y-92625879D01*
X145230321Y-92615094D01*
X145210453Y-92608134D01*
X145201900Y-92605335D01*
X145201842Y-92605323D01*
X145200289Y-92606670D01*
X145198917Y-92611760D01*
X145197716Y-92621323D01*
X145196674Y-92636088D01*
X145195782Y-92656786D01*
X145195028Y-92684145D01*
X145194402Y-92718897D01*
X145193893Y-92761769D01*
X145193490Y-92813492D01*
X145193182Y-92874796D01*
X145192959Y-92946411D01*
X145192810Y-93029065D01*
X145192725Y-93123490D01*
X145192691Y-93230413D01*
X145192632Y-93857630D01*
X144647042Y-94056067D01*
X144575205Y-94082225D01*
X144497191Y-94110703D01*
X144423614Y-94137637D01*
X144355362Y-94162695D01*
X144293325Y-94185551D01*
X144238392Y-94205874D01*
X144191451Y-94223337D01*
X144153392Y-94237608D01*
X144125105Y-94248361D01*
X144107477Y-94255266D01*
X144101398Y-94257993D01*
X144105048Y-94259371D01*
X144120024Y-94262870D01*
X144144942Y-94267970D01*
X144178041Y-94274327D01*
X144217563Y-94281595D01*
X144261748Y-94289429D01*
X144285075Y-94293503D01*
X144337294Y-94302663D01*
X144397896Y-94313335D01*
X144463854Y-94324986D01*
X144532140Y-94337078D01*
X144599726Y-94349078D01*
X144663584Y-94360451D01*
X144713914Y-94369400D01*
X144770708Y-94379429D01*
X144824344Y-94388830D01*
X144872849Y-94397260D01*
X144914251Y-94404377D01*
X144946577Y-94409838D01*
X144967855Y-94413301D01*
X144998087Y-94418189D01*
X145037537Y-94424862D01*
X145079892Y-94432252D01*
X145119990Y-94439472D01*
X145149045Y-94444779D01*
X145195549Y-94453203D01*
X145250575Y-94463109D01*
X145313144Y-94474324D01*
X145382278Y-94486676D01*
X145456996Y-94499992D01*
X145536320Y-94514099D01*
X145619269Y-94528825D01*
X145704864Y-94543997D01*
X145792126Y-94559441D01*
X145880076Y-94574986D01*
X145967734Y-94590458D01*
X146054120Y-94605686D01*
X146138255Y-94620495D01*
X146219161Y-94634714D01*
X146295856Y-94648169D01*
X146367363Y-94660689D01*
X146432701Y-94672099D01*
X146490891Y-94682228D01*
X146540953Y-94690903D01*
X146581909Y-94697950D01*
X146612779Y-94703198D01*
X146632582Y-94706474D01*
X146640341Y-94707604D01*
X146640821Y-94707702D01*
X146643536Y-94713386D01*
X146645553Y-94728499D01*
X146646926Y-94753990D01*
X146647710Y-94790807D01*
X146647959Y-94839896D01*
X146647953Y-94848228D01*
X146647626Y-94895380D01*
X146646756Y-94930405D01*
X146645288Y-94954249D01*
X146643168Y-94967861D01*
X146640341Y-94972187D01*
X146638842Y-94972359D01*
X146626333Y-94974339D01*
X146602149Y-94978398D01*
X146567261Y-94984364D01*
X146522644Y-94992067D01*
X146469269Y-95001335D01*
X146408109Y-95011996D01*
X146340138Y-95023878D01*
X146266327Y-95036811D01*
X146187651Y-95050622D01*
X146105081Y-95065141D01*
X146019590Y-95080196D01*
X145932151Y-95095614D01*
X145843738Y-95111226D01*
X145755322Y-95126858D01*
X145667877Y-95142341D01*
X145582375Y-95157502D01*
X145499789Y-95172169D01*
X145421092Y-95186172D01*
X145347257Y-95199338D01*
X145279257Y-95211497D01*
X145218064Y-95222477D01*
X145164650Y-95232106D01*
X145119990Y-95240212D01*
X145118180Y-95240542D01*
X145080228Y-95247378D01*
X145042421Y-95254054D01*
X145009046Y-95259819D01*
X144984391Y-95263924D01*
X144983013Y-95264146D01*
X144964568Y-95267236D01*
X144935106Y-95272285D01*
X144896424Y-95278978D01*
X144850316Y-95286999D01*
X144798578Y-95296033D01*
X144743006Y-95305764D01*
X144685395Y-95315877D01*
X144627541Y-95326056D01*
X144571238Y-95335986D01*
X144518284Y-95345351D01*
X144470472Y-95353837D01*
X144429599Y-95361126D01*
X144397459Y-95366904D01*
X144375849Y-95370856D01*
X144329547Y-95379480D01*
X144375849Y-95387488D01*
X144391336Y-95390198D01*
X144418980Y-95395077D01*
X144456144Y-95401663D01*
X144501008Y-95409632D01*
X144551750Y-95418660D01*
X144606549Y-95428423D01*
X144663584Y-95438598D01*
X144713918Y-95447554D01*
X144770711Y-95457589D01*
X144824346Y-95466996D01*
X144872850Y-95475431D01*
X144914251Y-95482551D01*
X144946577Y-95488015D01*
X144967855Y-95491478D01*
X144998087Y-95496366D01*
X145037537Y-95503039D01*
X145079892Y-95510430D01*
X145119990Y-95517649D01*
X145149045Y-95522957D01*
X145195549Y-95531380D01*
X145250575Y-95541286D01*
X145313144Y-95552501D01*
X145382278Y-95564853D01*
X145456996Y-95578169D01*
X145536320Y-95592276D01*
X145619269Y-95607002D01*
X145704864Y-95622174D01*
X145792126Y-95637618D01*
X145880076Y-95653163D01*
X145967734Y-95668635D01*
X146054120Y-95683863D01*
X146138255Y-95698672D01*
X146219161Y-95712891D01*
X146295856Y-95726346D01*
X146367363Y-95738866D01*
X146432701Y-95750276D01*
X146490891Y-95760405D01*
X146540953Y-95769080D01*
X146581909Y-95776127D01*
X146612779Y-95781375D01*
X146632582Y-95784651D01*
X146640341Y-95785781D01*
X146640821Y-95785879D01*
X146643536Y-95791563D01*
X146645553Y-95806676D01*
X146646926Y-95832167D01*
X146647710Y-95868984D01*
X146647959Y-95918073D01*
X146647953Y-95926405D01*
X146647626Y-95973557D01*
X146646756Y-96008582D01*
X146645288Y-96032426D01*
X146643168Y-96046038D01*
X146640341Y-96050364D01*
X146638842Y-96050536D01*
X146626333Y-96052516D01*
X146602149Y-96056575D01*
X146567261Y-96062541D01*
X146522644Y-96070244D01*
X146469269Y-96079512D01*
X146408109Y-96090173D01*
X146340138Y-96102055D01*
X146266327Y-96114988D01*
X146187651Y-96128799D01*
X146105081Y-96143318D01*
X146019590Y-96158373D01*
X145932151Y-96173791D01*
X145843738Y-96189403D01*
X145755322Y-96205035D01*
X145667877Y-96220518D01*
X145582375Y-96235679D01*
X145499789Y-96250346D01*
X145421092Y-96264349D01*
X145347257Y-96277515D01*
X145279257Y-96289674D01*
X145218064Y-96300654D01*
X145164650Y-96310283D01*
X145119990Y-96318389D01*
X145118180Y-96318719D01*
X145080228Y-96325555D01*
X145042421Y-96332231D01*
X145009046Y-96337996D01*
X144984391Y-96342101D01*
X144983013Y-96342323D01*
X144964568Y-96345413D01*
X144935106Y-96350462D01*
X144896424Y-96357155D01*
X144850316Y-96365176D01*
X144798578Y-96374210D01*
X144743006Y-96383941D01*
X144685395Y-96394054D01*
X144627541Y-96404233D01*
X144571238Y-96414163D01*
X144518284Y-96423528D01*
X144470472Y-96432014D01*
X144429599Y-96439303D01*
X144397459Y-96445081D01*
X144375849Y-96449033D01*
X144329547Y-96457657D01*
X144375849Y-96465665D01*
X144391336Y-96468375D01*
X144418980Y-96473254D01*
X144456144Y-96479840D01*
X144501008Y-96487809D01*
X144551750Y-96496837D01*
X144606549Y-96506600D01*
X144663584Y-96516775D01*
X144713918Y-96525731D01*
X144770711Y-96535766D01*
X144824346Y-96545173D01*
X144872850Y-96553608D01*
X144914251Y-96560728D01*
X144946577Y-96566192D01*
X144967855Y-96569655D01*
X144998087Y-96574544D01*
X145037537Y-96581216D01*
X145079892Y-96588607D01*
X145119990Y-96595826D01*
X145149045Y-96601134D01*
X145195549Y-96609557D01*
X145250575Y-96619463D01*
X145313144Y-96630678D01*
X145382278Y-96643030D01*
X145456996Y-96656346D01*
X145536320Y-96670454D01*
X145619269Y-96685179D01*
X145704864Y-96700351D01*
X145792126Y-96715795D01*
X145880076Y-96731340D01*
X145967734Y-96746813D01*
X146054120Y-96762040D01*
X146138255Y-96776849D01*
X146219161Y-96791068D01*
X146295856Y-96804523D01*
X146367363Y-96817043D01*
X146432701Y-96828453D01*
X146490891Y-96838582D01*
X146540953Y-96847257D01*
X146581909Y-96854305D01*
X146612779Y-96859552D01*
X146632582Y-96862828D01*
X146640341Y-96863958D01*
X146640821Y-96864056D01*
X146643536Y-96869740D01*
X146645553Y-96884853D01*
X146646926Y-96910344D01*
X146647710Y-96947161D01*
X146647959Y-96996250D01*
X146647959Y-97128541D01*
X146605596Y-97128541D01*
X146602243Y-97128588D01*
X146594437Y-97129102D01*
X146585252Y-97130384D01*
X146573950Y-97132688D01*
X146559795Y-97136265D01*
X146542052Y-97141368D01*
X146519985Y-97148247D01*
X146492856Y-97157156D01*
X146459930Y-97168346D01*
X146420471Y-97182069D01*
X146373742Y-97198576D01*
X146319008Y-97218121D01*
X146255533Y-97240955D01*
X146182579Y-97267330D01*
X146099411Y-97297498D01*
X146005293Y-97331710D01*
X145899489Y-97370219D01*
X145813557Y-97401511D01*
X145726115Y-97433359D01*
X145642590Y-97463786D01*
X145563835Y-97492481D01*
X145490699Y-97519135D01*
X145424035Y-97543437D01*
X145364694Y-97565077D01*
X145313528Y-97583743D01*
X145271387Y-97599127D01*
X145239124Y-97610916D01*
X145217589Y-97618801D01*
X145207633Y-97622472D01*
X145179521Y-97633047D01*
X145179521Y-98888919D01*
X145179521Y-100144791D01*
X146108870Y-100144791D01*
X147038219Y-100144791D01*
X147038219Y-100277083D01*
X147038219Y-100409375D01*
X145053844Y-100409375D01*
X143069469Y-100409375D01*
X143069469Y-100277083D01*
X143069469Y-100144791D01*
X143995511Y-100144791D01*
X144921553Y-100144791D01*
X144921553Y-98806602D01*
X144921562Y-98673680D01*
X144921603Y-98521518D01*
X144921678Y-98381754D01*
X144921790Y-98253930D01*
X144921942Y-98137588D01*
X144922136Y-98032268D01*
X144922376Y-97937512D01*
X144922664Y-97852862D01*
X144923003Y-97777860D01*
X144923396Y-97712046D01*
X144923846Y-97654962D01*
X144924355Y-97606149D01*
X144924926Y-97565149D01*
X144925563Y-97531504D01*
X144926267Y-97504755D01*
X144927043Y-97484443D01*
X144927891Y-97470110D01*
X144928817Y-97461297D01*
X144929821Y-97457545D01*
X144930068Y-97457311D01*
X144938851Y-97452976D01*
X144959083Y-97444527D01*
X144989878Y-97432297D01*
X145030350Y-97416622D01*
X145079615Y-97397835D01*
X145136786Y-97376271D01*
X145200978Y-97352263D01*
X145271306Y-97326147D01*
X145346885Y-97298255D01*
X145426828Y-97268923D01*
X145510250Y-97238484D01*
X145524088Y-97233447D01*
X145606456Y-97203379D01*
X145684867Y-97174613D01*
X145758472Y-97147469D01*
X145826424Y-97122266D01*
X145887872Y-97099322D01*
X145941970Y-97078957D01*
X145987867Y-97061491D01*
X146024717Y-97047242D01*
X146051669Y-97036529D01*
X146067877Y-97029672D01*
X146072490Y-97026991D01*
X146064266Y-97024904D01*
X146045798Y-97021141D01*
X146022881Y-97017044D01*
X146016920Y-97016031D01*
X145996523Y-97012507D01*
X145965173Y-97007053D01*
X145924220Y-96999908D01*
X145875016Y-96991305D01*
X145818911Y-96981483D01*
X145757255Y-96970676D01*
X145691401Y-96959122D01*
X145622698Y-96947056D01*
X145602289Y-96943470D01*
X145529505Y-96930683D01*
X145457004Y-96917948D01*
X145386607Y-96905585D01*
X145320134Y-96893913D01*
X145259408Y-96883252D01*
X145206248Y-96873922D01*
X145162476Y-96866243D01*
X145129912Y-96860533D01*
X145116531Y-96858185D01*
X145066422Y-96849340D01*
X145008767Y-96839106D01*
X144947738Y-96828225D01*
X144887510Y-96817441D01*
X144832256Y-96807497D01*
X144789236Y-96799746D01*
X144710937Y-96785709D01*
X144628717Y-96771049D01*
X144543574Y-96755938D01*
X144456505Y-96740551D01*
X144368506Y-96725059D01*
X144280574Y-96709635D01*
X144193706Y-96694452D01*
X144108898Y-96679682D01*
X144027148Y-96665500D01*
X143949451Y-96652076D01*
X143876806Y-96639585D01*
X143810209Y-96628199D01*
X143750656Y-96618090D01*
X143699144Y-96609432D01*
X143656670Y-96602397D01*
X143624231Y-96597158D01*
X143602824Y-96593888D01*
X143593445Y-96592760D01*
X143572178Y-96592760D01*
X143572178Y-96457161D01*
X143572178Y-96321562D01*
X143593345Y-96321562D01*
X143593665Y-96321556D01*
X143604831Y-96320245D01*
X143628153Y-96316749D01*
X143662822Y-96311208D01*
X143708031Y-96303760D01*
X143762975Y-96294545D01*
X143826845Y-96283702D01*
X143898834Y-96271370D01*
X143978136Y-96257688D01*
X144063943Y-96242796D01*
X144155448Y-96226833D01*
X144251845Y-96209937D01*
X144352325Y-96192249D01*
X144456082Y-96173908D01*
X144562309Y-96155052D01*
X144670198Y-96135820D01*
X144688220Y-96132601D01*
X144792819Y-96113925D01*
X144886286Y-96097251D01*
X144970246Y-96082292D01*
X145046327Y-96068760D01*
X145116154Y-96056368D01*
X145181355Y-96044829D01*
X145243555Y-96033855D01*
X145304381Y-96023159D01*
X145365460Y-96012452D01*
X145428417Y-96001448D01*
X145494880Y-95989860D01*
X145566474Y-95977399D01*
X145567509Y-95977219D01*
X145629838Y-95966333D01*
X145688080Y-95956077D01*
X145740957Y-95946681D01*
X145787191Y-95938376D01*
X145825502Y-95931395D01*
X145854613Y-95925968D01*
X145873243Y-95922325D01*
X145880116Y-95920700D01*
X145880116Y-95915446D01*
X145880105Y-95915437D01*
X145873032Y-95913776D01*
X145854222Y-95910103D01*
X145824952Y-95904649D01*
X145786502Y-95897644D01*
X145740151Y-95889321D01*
X145687177Y-95879909D01*
X145628859Y-95869640D01*
X145566474Y-95858746D01*
X145554513Y-95856666D01*
X145483857Y-95844365D01*
X145418069Y-95832890D01*
X145355525Y-95821954D01*
X145294597Y-95811268D01*
X145233659Y-95800546D01*
X145171085Y-95789501D01*
X145105248Y-95777844D01*
X145034522Y-95765287D01*
X144957281Y-95751545D01*
X144871897Y-95736329D01*
X144776745Y-95719351D01*
X144670198Y-95700325D01*
X144662197Y-95698896D01*
X144554402Y-95679687D01*
X144448330Y-95660865D01*
X144344787Y-95642566D01*
X144244581Y-95624932D01*
X144148518Y-95608101D01*
X144057406Y-95592212D01*
X143972051Y-95577404D01*
X143893261Y-95563817D01*
X143821844Y-95551590D01*
X143758605Y-95540863D01*
X143704352Y-95531773D01*
X143659893Y-95524461D01*
X143626034Y-95519066D01*
X143603582Y-95515727D01*
X143593345Y-95514583D01*
X143572178Y-95514583D01*
X143572178Y-95378984D01*
X143572178Y-95243385D01*
X143593345Y-95243385D01*
X143593665Y-95243379D01*
X143604831Y-95242068D01*
X143628153Y-95238572D01*
X143662822Y-95233031D01*
X143708031Y-95225583D01*
X143762975Y-95216368D01*
X143826845Y-95205525D01*
X143898834Y-95193193D01*
X143978136Y-95179511D01*
X144063943Y-95164619D01*
X144155448Y-95148656D01*
X144251845Y-95131760D01*
X144352325Y-95114072D01*
X144456082Y-95095730D01*
X144562309Y-95076874D01*
X144670198Y-95057643D01*
X144688220Y-95054424D01*
X144792819Y-95035748D01*
X144886286Y-95019074D01*
X144970246Y-95004115D01*
X145046327Y-94990583D01*
X145116154Y-94978191D01*
X145181355Y-94966652D01*
X145243555Y-94955678D01*
X145304381Y-94944982D01*
X145365460Y-94934275D01*
X145428417Y-94923271D01*
X145494880Y-94911683D01*
X145566474Y-94899222D01*
X145567509Y-94899042D01*
X145629838Y-94888156D01*
X145688080Y-94877899D01*
X145740957Y-94868504D01*
X145787191Y-94860199D01*
X145825502Y-94853218D01*
X145854613Y-94847791D01*
X145873243Y-94844148D01*
X145880116Y-94842522D01*
X145880116Y-94837269D01*
X145880105Y-94837259D01*
X145873032Y-94835599D01*
X145854222Y-94831926D01*
X145824952Y-94826472D01*
X145786502Y-94819467D01*
X145740151Y-94811144D01*
X145687177Y-94801732D01*
X145628859Y-94791463D01*
X145566474Y-94780569D01*
X145554513Y-94778489D01*
X145483857Y-94766188D01*
X145418069Y-94754713D01*
X145355525Y-94743777D01*
X145294597Y-94733091D01*
X145233659Y-94722369D01*
X145171085Y-94711324D01*
X145105248Y-94699666D01*
X145034522Y-94687110D01*
X144957281Y-94673368D01*
X144871897Y-94658152D01*
X144776745Y-94641174D01*
X144670198Y-94622148D01*
X144571880Y-94604609D01*
X144418903Y-94577428D01*
X144278911Y-94552698D01*
X144151897Y-94530418D01*
X144037850Y-94510585D01*
X143936763Y-94493199D01*
X143848626Y-94478258D01*
X143773431Y-94465761D01*
X143711170Y-94455706D01*
X143661832Y-94448091D01*
X143625411Y-94442916D01*
X143601896Y-94440178D01*
X143591279Y-94439876D01*
X143572178Y-94444072D01*
X143572178Y-94307740D01*
X143572255Y-94275754D01*
X143572734Y-94234681D01*
X143573716Y-94204747D01*
X143575278Y-94184670D01*
X143577496Y-94173167D01*
X143580446Y-94168958D01*
X143580555Y-94168924D01*
X143588603Y-94166082D01*
X143608219Y-94159047D01*
X143638590Y-94148113D01*
X143678900Y-94133574D01*
X143728337Y-94115724D01*
X143786087Y-94094857D01*
X143851337Y-94071268D01*
X143923273Y-94045250D01*
X144001081Y-94017098D01*
X144083949Y-93987105D01*
X144171061Y-93955565D01*
X144261606Y-93922773D01*
X144934498Y-93679036D01*
X144934640Y-93151817D01*
X144934782Y-92624597D01*
X144909977Y-92633499D01*
X144905372Y-92635161D01*
X144887562Y-92641624D01*
X144859129Y-92651964D01*
X144821267Y-92665745D01*
X144775171Y-92682531D01*
X144722036Y-92701886D01*
X144663058Y-92723376D01*
X144599431Y-92746564D01*
X144532350Y-92771014D01*
X144463011Y-92796291D01*
X144392608Y-92821959D01*
X144322337Y-92847583D01*
X144253392Y-92872726D01*
X144186968Y-92896953D01*
X144124261Y-92919828D01*
X144066465Y-92940916D01*
X144014776Y-92959781D01*
X143970389Y-92975987D01*
X143934497Y-92989099D01*
X143908298Y-92998680D01*
X143892985Y-93004295D01*
X143875500Y-93010701D01*
X143844511Y-93021991D01*
X143805496Y-93036159D01*
X143760905Y-93052318D01*
X143713185Y-93069579D01*
X143664782Y-93087056D01*
X143620094Y-93103316D01*
X143578186Y-93118838D01*
X143541554Y-93132682D01*
X143511995Y-93144159D01*
X143491307Y-93152583D01*
X143481287Y-93157266D01*
X143479714Y-93158020D01*
X143476083Y-93158659D01*
X143470549Y-93158407D01*
X143462492Y-93157049D01*
X143451295Y-93154370D01*
X143436337Y-93150155D01*
X143417000Y-93144190D01*
X143392665Y-93136260D01*
X143362713Y-93126150D01*
X143326525Y-93113646D01*
X143283482Y-93098534D01*
X143232965Y-93080599D01*
X143174355Y-93059625D01*
X143107034Y-93035399D01*
X143030381Y-93007706D01*
X142943779Y-92976331D01*
X142846608Y-92941060D01*
X142738249Y-92901678D01*
X142618084Y-92857970D01*
X142559655Y-92836711D01*
X142459882Y-92800402D01*
X142363973Y-92765493D01*
X142272641Y-92732242D01*
X142186601Y-92700909D01*
X142106567Y-92671756D01*
X142033253Y-92645043D01*
X141967372Y-92621029D01*
X141909640Y-92599975D01*
X141860769Y-92582141D01*
X141821475Y-92567788D01*
X141792471Y-92557176D01*
X141774471Y-92550564D01*
X141768190Y-92548214D01*
X141769174Y-92543118D01*
X141774044Y-92527703D01*
X141782097Y-92504234D01*
X141792489Y-92474991D01*
X141804379Y-92442252D01*
X141816922Y-92408296D01*
X141829278Y-92375399D01*
X141840604Y-92345842D01*
X141850057Y-92321902D01*
X141856795Y-92305857D01*
X141859975Y-92299987D01*
X141860092Y-92300008D01*
X141867930Y-92302656D01*
X141887382Y-92309534D01*
X141917703Y-92320376D01*
X141958152Y-92334911D01*
X142007985Y-92352871D01*
X142066460Y-92373989D01*
X142132833Y-92397994D01*
X142206361Y-92424619D01*
X142286302Y-92453594D01*
X142371914Y-92484652D01*
X142462452Y-92517523D01*
X142557174Y-92551938D01*
X142655337Y-92587630D01*
X142664168Y-92590842D01*
X142762210Y-92626461D01*
X142856845Y-92660774D01*
X142947323Y-92693513D01*
X143032891Y-92724408D01*
X143112798Y-92753191D01*
X143186292Y-92779591D01*
X143252621Y-92803339D01*
X143311034Y-92824167D01*
X143360778Y-92841805D01*
X143401102Y-92855984D01*
X143431254Y-92866435D01*
X143450482Y-92872888D01*
X143458035Y-92875075D01*
X143460982Y-92874299D01*
X143475435Y-92869535D01*
X143501077Y-92860677D01*
X143537125Y-92848005D01*
X143582794Y-92831800D01*
X143637303Y-92812343D01*
X143699867Y-92789915D01*
X143769704Y-92764798D01*
X143846031Y-92737271D01*
X143928063Y-92707617D01*
X144015018Y-92676116D01*
X144106112Y-92643049D01*
X144200563Y-92608697D01*
X144931474Y-92342609D01*
X144931474Y-91811078D01*
X144931474Y-91279548D01*
X144218944Y-91019988D01*
X144181007Y-91006173D01*
X144088753Y-90972619D01*
X144000043Y-90940412D01*
X143915686Y-90909841D01*
X143836490Y-90881197D01*
X143763260Y-90854770D01*
X143696805Y-90830851D01*
X143637932Y-90809730D01*
X143587449Y-90791698D01*
X143546161Y-90777043D01*
X143514878Y-90766058D01*
X143494406Y-90759032D01*
X143485552Y-90756255D01*
X143472534Y-90752675D01*
X143449876Y-90744619D01*
X143425659Y-90734567D01*
X143386627Y-90717050D01*
X143388452Y-90621786D01*
X143390277Y-90526523D01*
X143446500Y-90504556D01*
X143449272Y-90503487D01*
X143466854Y-90496890D01*
X143495651Y-90486241D01*
X143534704Y-90471889D01*
X143583055Y-90454184D01*
X143639746Y-90433476D01*
X143703817Y-90410113D01*
X143774312Y-90384446D01*
X143850270Y-90356824D01*
X143930734Y-90327596D01*
X144014745Y-90297113D01*
X144101344Y-90265724D01*
X144132966Y-90254268D01*
X144217381Y-90223686D01*
X144298146Y-90194425D01*
X144374382Y-90166805D01*
X144445210Y-90141143D01*
X144509751Y-90117759D01*
X144567126Y-90096969D01*
X144616458Y-90079094D01*
X144656866Y-90064451D01*
X144687472Y-90053358D01*
X144707398Y-90046135D01*
X144715764Y-90043098D01*
X144725569Y-90038474D01*
X144728589Y-90034363D01*
X144726919Y-90033511D01*
X144714652Y-90028568D01*
X144691396Y-90019701D01*
X144658159Y-90007274D01*
X144615948Y-89991652D01*
X144565774Y-89973199D01*
X144508643Y-89952279D01*
X144445565Y-89929257D01*
X144377547Y-89904496D01*
X144305599Y-89878361D01*
X144230728Y-89851215D01*
X144153943Y-89823424D01*
X144076252Y-89795352D01*
X143998664Y-89767362D01*
X143922188Y-89739818D01*
X143847831Y-89713086D01*
X143776602Y-89687529D01*
X143709509Y-89663512D01*
X143647561Y-89641398D01*
X143591766Y-89621552D01*
X143543132Y-89604338D01*
X143502669Y-89590121D01*
X143471384Y-89579264D01*
X143450285Y-89572132D01*
X143440382Y-89569088D01*
X143425957Y-89565490D01*
X143406849Y-89559330D01*
X143395734Y-89553883D01*
X143392476Y-89548229D01*
X143389891Y-89535282D01*
X143388189Y-89513750D01*
X143387255Y-89482089D01*
X143386969Y-89438754D01*
X143386969Y-89330898D01*
X143421696Y-89317915D01*
X143425566Y-89316483D01*
X143442182Y-89310392D01*
X143469999Y-89300226D01*
X143508197Y-89286284D01*
X143555957Y-89268865D01*
X143612461Y-89248266D01*
X143676890Y-89224787D01*
X143748425Y-89198725D01*
X143826247Y-89170379D01*
X143909537Y-89140047D01*
X143997476Y-89108028D01*
X144089246Y-89074620D01*
X144184027Y-89040122D01*
X144236098Y-89021170D01*
X144328607Y-88987497D01*
X144417325Y-88955198D01*
X144501467Y-88924561D01*
X144580248Y-88895871D01*
X144652881Y-88869415D01*
X144718582Y-88845478D01*
X144776565Y-88824348D01*
X144826043Y-88806309D01*
X144866232Y-88791649D01*
X144896346Y-88780654D01*
X144915599Y-88773610D01*
X144923206Y-88770803D01*
X144924502Y-88770007D01*
X144926035Y-88767816D01*
X144927409Y-88763705D01*
X144928631Y-88757008D01*
X144929711Y-88747059D01*
X144930656Y-88733193D01*
X144931477Y-88714746D01*
X144932182Y-88691052D01*
X144932780Y-88661446D01*
X144933279Y-88625262D01*
X144933688Y-88581836D01*
X144934016Y-88530502D01*
X144934272Y-88470596D01*
X144934464Y-88401451D01*
X144934602Y-88322403D01*
X144934694Y-88232787D01*
X144934748Y-88131937D01*
X144934775Y-88019188D01*
X144934782Y-87893875D01*
X144934782Y-87021458D01*
X145063766Y-87021458D01*
X145192750Y-87021458D01*
X145192750Y-87960338D01*
G37*
%TD*%
M02*
