M48
; DRILL file {KiCad 8.0.8} date 2025-03-31T23:20:14-0400
; FORMAT={-:-/ absolute / inch / decimal}
; #@! TF.CreationDate,2025-03-31T23:20:14-04:00
; #@! TF.GenerationSoftware,Kicad,Pcbnew,8.0.8
; #@! TF.FileFunction,Plated,1,2,PTH
FMAT,2
INCH
; #@! TA.AperFunction,Plated,PTH,ComponentDrill
T1C0.0236
; #@! TA.AperFunction,Plated,PTH,ComponentDrill
T2C0.0276
; #@! TA.AperFunction,Plated,PTH,ComponentDrill
T3C0.0315
; #@! TA.AperFunction,Plated,PTH,ComponentDrill
T4C0.0354
; #@! TA.AperFunction,Plated,PTH,ComponentDrill
T5C0.0374
; #@! TA.AperFunction,Plated,PTH,ComponentDrill
T6C0.0394
; #@! TA.AperFunction,Plated,PTH,ComponentDrill
T7C0.0433
%
G90
G05
T1
X7.7402Y-3.4366
X7.7402Y-3.5366
X7.7402Y-3.6366
T2
X2.4242Y-4.64
X2.5226Y-4.64
X2.87Y-4.0212
X2.87Y-4.1196
X3.7225Y-4.64
X3.8209Y-4.64
X4.1683Y-4.0212
X4.1683Y-4.1196
T3
X2.1198Y-2.69
X2.1198Y-3.05
X2.15Y-3.81
X2.18Y-4.0704
X2.18Y-4.4704
X2.2287Y-3.81
X2.3196Y-4.0904
X2.3196Y-4.1904
X2.3196Y-4.2904
X2.3196Y-4.3904
X2.5198Y-2.69
X2.5198Y-3.05
X2.6196Y-4.0904
X2.6196Y-4.1904
X2.6196Y-4.2904
X2.6196Y-4.3904
X2.8334Y-4.45
X2.8334Y-4.64
X2.8598Y-2.51
X2.8598Y-2.87
X2.8598Y-3.23
X2.86Y-4.26
X3.2334Y-4.45
X3.2334Y-4.64
X3.2598Y-2.51
X3.2598Y-2.87
X3.2598Y-3.23
X3.26Y-4.26
X3.4783Y-4.0704
X3.4783Y-4.4704
X3.5998Y-2.36
X3.5998Y-2.68
X3.5998Y-3.0
X3.5998Y-3.32
X3.62Y-4.0904
X3.62Y-4.1904
X3.62Y-4.2904
X3.62Y-4.3904
X3.92Y-4.0904
X3.92Y-4.1904
X3.92Y-4.2904
X3.92Y-4.3904
X3.9998Y-2.36
X3.9998Y-2.68
X3.9998Y-3.0
X3.9998Y-3.32
X4.1317Y-4.45
X4.1317Y-4.64
X4.1617Y-4.26
X4.5317Y-4.45
X4.5317Y-4.64
X4.5617Y-4.26
X4.5798Y-2.37
X4.5798Y-2.69
X4.5798Y-3.01
X4.5798Y-3.33
X4.9798Y-2.37
X4.9798Y-2.69
X4.9798Y-3.01
X4.9798Y-3.33
X5.5398Y-2.37
X5.5398Y-2.69
X5.5398Y-3.01
X5.5398Y-3.33
X5.9398Y-2.37
X5.9398Y-2.69
X5.9398Y-3.01
X5.9398Y-3.33
X6.4998Y-2.36
X6.4998Y-2.68
X6.4998Y-3.0
X6.4998Y-3.32
X6.8998Y-2.36
X6.8998Y-2.68
X6.8998Y-3.0
X6.8998Y-3.32
X7.2398Y-2.45
X7.2398Y-2.81
X7.2398Y-3.17
X7.6398Y-2.45
X7.6398Y-2.81
X7.6398Y-3.17
X7.9798Y-2.63
X7.9798Y-2.99
X8.3798Y-2.63
X8.3798Y-2.99
T4
X2.6396Y-2.69
X2.6396Y-3.05
X2.7396Y-2.69
X2.7396Y-3.05
X3.3798Y-2.51
X3.3798Y-2.87
X3.3798Y-3.23
X3.4798Y-2.51
X3.4798Y-2.87
X3.4798Y-3.23
X4.1196Y-2.36
X4.1196Y-2.68
X4.1198Y-3.0
X4.1198Y-3.32
X4.2196Y-2.36
X4.2196Y-2.68
X4.2198Y-3.0
X4.2198Y-3.32
X5.0794Y-3.33
X5.0796Y-2.37
X5.0796Y-2.69
X5.0796Y-3.01
X5.1794Y-3.33
X5.1796Y-2.37
X5.1796Y-2.69
X5.1796Y-3.01
X5.3398Y-2.37
X5.3398Y-2.69
X5.3398Y-3.01
X5.3398Y-3.33
X5.4398Y-2.37
X5.4398Y-2.69
X5.4398Y-3.01
X5.4398Y-3.33
X6.28Y-2.36
X6.28Y-2.68
X6.28Y-3.0
X6.28Y-3.32
X6.38Y-2.36
X6.38Y-2.68
X6.38Y-3.0
X6.38Y-3.32
X7.0196Y-2.45
X7.0196Y-3.17
X7.0198Y-2.81
X7.1196Y-2.45
X7.1196Y-3.17
X7.1198Y-2.81
X7.76Y-2.63
X7.7602Y-2.99
X7.86Y-2.63
X7.8602Y-2.99
T5
X8.11Y-3.33
X8.11Y-3.4284
X8.11Y-3.5269
X8.11Y-3.6253
T6
X4.7083Y-3.7598
X4.7083Y-4.6697
X4.8083Y-3.7598
X5.1594Y-3.7642
X5.2594Y-3.7642
X5.2594Y-4.6697
X6.4451Y-3.7985
X6.65Y-3.77
X6.86Y-3.77
X7.06Y-3.77
X7.27Y-3.77
X7.4451Y-3.7985
T7
X3.16Y-3.63
X3.16Y-3.73
X3.16Y-3.83
X4.45Y-3.63
X4.45Y-3.73
X4.45Y-3.83
M30
