%TF.GenerationSoftware,KiCad,Pcbnew,8.0.8*%
%TF.CreationDate,2025-03-31T23:20:11-04:00*%
%TF.ProjectId,rear_lights_unit,72656172-5f6c-4696-9768-74735f756e69,0*%
%TF.SameCoordinates,Original*%
%TF.FileFunction,Legend,Bot*%
%TF.FilePolarity,Positive*%
%FSLAX46Y46*%
G04 Gerber Fmt 4.6, Leading zero omitted, Abs format (unit mm)*
G04 Created by KiCad (PCBNEW 8.0.8) date 2025-03-31 23:20:11*
%MOMM*%
%LPD*%
G01*
G04 APERTURE LIST*
%ADD10C,0.100000*%
%ADD11C,0.150000*%
%ADD12C,0.120000*%
G04 APERTURE END LIST*
D10*
X164172782Y-97938609D02*
X164029925Y-97986228D01*
X164029925Y-97986228D02*
X163982306Y-98033847D01*
X163982306Y-98033847D02*
X163934687Y-98129085D01*
X163934687Y-98129085D02*
X163934687Y-98271942D01*
X163934687Y-98271942D02*
X163982306Y-98367180D01*
X163982306Y-98367180D02*
X164029925Y-98414800D01*
X164029925Y-98414800D02*
X164125163Y-98462419D01*
X164125163Y-98462419D02*
X164506115Y-98462419D01*
X164506115Y-98462419D02*
X164506115Y-97462419D01*
X164506115Y-97462419D02*
X164172782Y-97462419D01*
X164172782Y-97462419D02*
X164077544Y-97510038D01*
X164077544Y-97510038D02*
X164029925Y-97557657D01*
X164029925Y-97557657D02*
X163982306Y-97652895D01*
X163982306Y-97652895D02*
X163982306Y-97748133D01*
X163982306Y-97748133D02*
X164029925Y-97843371D01*
X164029925Y-97843371D02*
X164077544Y-97890990D01*
X164077544Y-97890990D02*
X164172782Y-97938609D01*
X164172782Y-97938609D02*
X164506115Y-97938609D01*
X163506115Y-98081466D02*
X162744211Y-98081466D01*
X163125163Y-98462419D02*
X163125163Y-97700514D01*
X189592782Y-97888609D02*
X189449925Y-97936228D01*
X189449925Y-97936228D02*
X189402306Y-97983847D01*
X189402306Y-97983847D02*
X189354687Y-98079085D01*
X189354687Y-98079085D02*
X189354687Y-98221942D01*
X189354687Y-98221942D02*
X189402306Y-98317180D01*
X189402306Y-98317180D02*
X189449925Y-98364800D01*
X189449925Y-98364800D02*
X189545163Y-98412419D01*
X189545163Y-98412419D02*
X189926115Y-98412419D01*
X189926115Y-98412419D02*
X189926115Y-97412419D01*
X189926115Y-97412419D02*
X189592782Y-97412419D01*
X189592782Y-97412419D02*
X189497544Y-97460038D01*
X189497544Y-97460038D02*
X189449925Y-97507657D01*
X189449925Y-97507657D02*
X189402306Y-97602895D01*
X189402306Y-97602895D02*
X189402306Y-97698133D01*
X189402306Y-97698133D02*
X189449925Y-97793371D01*
X189449925Y-97793371D02*
X189497544Y-97840990D01*
X189497544Y-97840990D02*
X189592782Y-97888609D01*
X189592782Y-97888609D02*
X189926115Y-97888609D01*
X188926115Y-98031466D02*
X188164211Y-98031466D01*
D11*
X199253332Y-85712200D02*
X199110475Y-85759819D01*
X199110475Y-85759819D02*
X198872380Y-85759819D01*
X198872380Y-85759819D02*
X198777142Y-85712200D01*
X198777142Y-85712200D02*
X198729523Y-85664580D01*
X198729523Y-85664580D02*
X198681904Y-85569342D01*
X198681904Y-85569342D02*
X198681904Y-85474104D01*
X198681904Y-85474104D02*
X198729523Y-85378866D01*
X198729523Y-85378866D02*
X198777142Y-85331247D01*
X198777142Y-85331247D02*
X198872380Y-85283628D01*
X198872380Y-85283628D02*
X199062856Y-85236009D01*
X199062856Y-85236009D02*
X199158094Y-85188390D01*
X199158094Y-85188390D02*
X199205713Y-85140771D01*
X199205713Y-85140771D02*
X199253332Y-85045533D01*
X199253332Y-85045533D02*
X199253332Y-84950295D01*
X199253332Y-84950295D02*
X199205713Y-84855057D01*
X199205713Y-84855057D02*
X199158094Y-84807438D01*
X199158094Y-84807438D02*
X199062856Y-84759819D01*
X199062856Y-84759819D02*
X198824761Y-84759819D01*
X198824761Y-84759819D02*
X198681904Y-84807438D01*
X198348570Y-84759819D02*
X198110475Y-85759819D01*
X198110475Y-85759819D02*
X197919999Y-85045533D01*
X197919999Y-85045533D02*
X197729523Y-85759819D01*
X197729523Y-85759819D02*
X197491428Y-84759819D01*
X196586666Y-85759819D02*
X197158094Y-85759819D01*
X196872380Y-85759819D02*
X196872380Y-84759819D01*
X196872380Y-84759819D02*
X196967618Y-84902676D01*
X196967618Y-84902676D02*
X197062856Y-84997914D01*
X197062856Y-84997914D02*
X197158094Y-85045533D01*
D10*
X137032580Y-106871904D02*
X136223057Y-106871904D01*
X136223057Y-106871904D02*
X136127819Y-106824285D01*
X136127819Y-106824285D02*
X136080200Y-106776666D01*
X136080200Y-106776666D02*
X136032580Y-106681428D01*
X136032580Y-106681428D02*
X136032580Y-106490952D01*
X136032580Y-106490952D02*
X136080200Y-106395714D01*
X136080200Y-106395714D02*
X136127819Y-106348095D01*
X136127819Y-106348095D02*
X136223057Y-106300476D01*
X136223057Y-106300476D02*
X137032580Y-106300476D01*
X137032580Y-105919523D02*
X137032580Y-105300476D01*
X137032580Y-105300476D02*
X136651628Y-105633809D01*
X136651628Y-105633809D02*
X136651628Y-105490952D01*
X136651628Y-105490952D02*
X136604009Y-105395714D01*
X136604009Y-105395714D02*
X136556390Y-105348095D01*
X136556390Y-105348095D02*
X136461152Y-105300476D01*
X136461152Y-105300476D02*
X136223057Y-105300476D01*
X136223057Y-105300476D02*
X136127819Y-105348095D01*
X136127819Y-105348095D02*
X136080200Y-105395714D01*
X136080200Y-105395714D02*
X136032580Y-105490952D01*
X136032580Y-105490952D02*
X136032580Y-105776666D01*
X136032580Y-105776666D02*
X136080200Y-105871904D01*
X136080200Y-105871904D02*
X136127819Y-105919523D01*
D11*
X55776666Y-100883580D02*
X55824285Y-100931200D01*
X55824285Y-100931200D02*
X55967142Y-100978819D01*
X55967142Y-100978819D02*
X56062380Y-100978819D01*
X56062380Y-100978819D02*
X56205237Y-100931200D01*
X56205237Y-100931200D02*
X56300475Y-100835961D01*
X56300475Y-100835961D02*
X56348094Y-100740723D01*
X56348094Y-100740723D02*
X56395713Y-100550247D01*
X56395713Y-100550247D02*
X56395713Y-100407390D01*
X56395713Y-100407390D02*
X56348094Y-100216914D01*
X56348094Y-100216914D02*
X56300475Y-100121676D01*
X56300475Y-100121676D02*
X56205237Y-100026438D01*
X56205237Y-100026438D02*
X56062380Y-99978819D01*
X56062380Y-99978819D02*
X55967142Y-99978819D01*
X55967142Y-99978819D02*
X55824285Y-100026438D01*
X55824285Y-100026438D02*
X55776666Y-100074057D01*
X54871904Y-99978819D02*
X55348094Y-99978819D01*
X55348094Y-99978819D02*
X55395713Y-100455009D01*
X55395713Y-100455009D02*
X55348094Y-100407390D01*
X55348094Y-100407390D02*
X55252856Y-100359771D01*
X55252856Y-100359771D02*
X55014761Y-100359771D01*
X55014761Y-100359771D02*
X54919523Y-100407390D01*
X54919523Y-100407390D02*
X54871904Y-100455009D01*
X54871904Y-100455009D02*
X54824285Y-100550247D01*
X54824285Y-100550247D02*
X54824285Y-100788342D01*
X54824285Y-100788342D02*
X54871904Y-100883580D01*
X54871904Y-100883580D02*
X54919523Y-100931200D01*
X54919523Y-100931200D02*
X55014761Y-100978819D01*
X55014761Y-100978819D02*
X55252856Y-100978819D01*
X55252856Y-100978819D02*
X55348094Y-100931200D01*
X55348094Y-100931200D02*
X55395713Y-100883580D01*
X96681666Y-82412819D02*
X97014999Y-81936628D01*
X97253094Y-82412819D02*
X97253094Y-81412819D01*
X97253094Y-81412819D02*
X96872142Y-81412819D01*
X96872142Y-81412819D02*
X96776904Y-81460438D01*
X96776904Y-81460438D02*
X96729285Y-81508057D01*
X96729285Y-81508057D02*
X96681666Y-81603295D01*
X96681666Y-81603295D02*
X96681666Y-81746152D01*
X96681666Y-81746152D02*
X96729285Y-81841390D01*
X96729285Y-81841390D02*
X96776904Y-81889009D01*
X96776904Y-81889009D02*
X96872142Y-81936628D01*
X96872142Y-81936628D02*
X97253094Y-81936628D01*
X95824523Y-81746152D02*
X95824523Y-82412819D01*
X96062618Y-81365200D02*
X96300713Y-82079485D01*
X96300713Y-82079485D02*
X95681666Y-82079485D01*
X103984580Y-103221333D02*
X104032200Y-103173714D01*
X104032200Y-103173714D02*
X104079819Y-103030857D01*
X104079819Y-103030857D02*
X104079819Y-102935619D01*
X104079819Y-102935619D02*
X104032200Y-102792762D01*
X104032200Y-102792762D02*
X103936961Y-102697524D01*
X103936961Y-102697524D02*
X103841723Y-102649905D01*
X103841723Y-102649905D02*
X103651247Y-102602286D01*
X103651247Y-102602286D02*
X103508390Y-102602286D01*
X103508390Y-102602286D02*
X103317914Y-102649905D01*
X103317914Y-102649905D02*
X103222676Y-102697524D01*
X103222676Y-102697524D02*
X103127438Y-102792762D01*
X103127438Y-102792762D02*
X103079819Y-102935619D01*
X103079819Y-102935619D02*
X103079819Y-103030857D01*
X103079819Y-103030857D02*
X103127438Y-103173714D01*
X103127438Y-103173714D02*
X103175057Y-103221333D01*
X103413152Y-104078476D02*
X104079819Y-104078476D01*
X103032200Y-103840381D02*
X103746485Y-103602286D01*
X103746485Y-103602286D02*
X103746485Y-104221333D01*
X170817857Y-82496819D02*
X171151190Y-82020628D01*
X171389285Y-82496819D02*
X171389285Y-81496819D01*
X171389285Y-81496819D02*
X171008333Y-81496819D01*
X171008333Y-81496819D02*
X170913095Y-81544438D01*
X170913095Y-81544438D02*
X170865476Y-81592057D01*
X170865476Y-81592057D02*
X170817857Y-81687295D01*
X170817857Y-81687295D02*
X170817857Y-81830152D01*
X170817857Y-81830152D02*
X170865476Y-81925390D01*
X170865476Y-81925390D02*
X170913095Y-81973009D01*
X170913095Y-81973009D02*
X171008333Y-82020628D01*
X171008333Y-82020628D02*
X171389285Y-82020628D01*
X169865476Y-82496819D02*
X170436904Y-82496819D01*
X170151190Y-82496819D02*
X170151190Y-81496819D01*
X170151190Y-81496819D02*
X170246428Y-81639676D01*
X170246428Y-81639676D02*
X170341666Y-81734914D01*
X170341666Y-81734914D02*
X170436904Y-81782533D01*
X169484523Y-81592057D02*
X169436904Y-81544438D01*
X169436904Y-81544438D02*
X169341666Y-81496819D01*
X169341666Y-81496819D02*
X169103571Y-81496819D01*
X169103571Y-81496819D02*
X169008333Y-81544438D01*
X169008333Y-81544438D02*
X168960714Y-81592057D01*
X168960714Y-81592057D02*
X168913095Y-81687295D01*
X168913095Y-81687295D02*
X168913095Y-81782533D01*
X168913095Y-81782533D02*
X168960714Y-81925390D01*
X168960714Y-81925390D02*
X169532142Y-82496819D01*
X169532142Y-82496819D02*
X168913095Y-82496819D01*
X78366857Y-106372819D02*
X78700190Y-105896628D01*
X78938285Y-106372819D02*
X78938285Y-105372819D01*
X78938285Y-105372819D02*
X78557333Y-105372819D01*
X78557333Y-105372819D02*
X78462095Y-105420438D01*
X78462095Y-105420438D02*
X78414476Y-105468057D01*
X78414476Y-105468057D02*
X78366857Y-105563295D01*
X78366857Y-105563295D02*
X78366857Y-105706152D01*
X78366857Y-105706152D02*
X78414476Y-105801390D01*
X78414476Y-105801390D02*
X78462095Y-105849009D01*
X78462095Y-105849009D02*
X78557333Y-105896628D01*
X78557333Y-105896628D02*
X78938285Y-105896628D01*
X77985904Y-105468057D02*
X77938285Y-105420438D01*
X77938285Y-105420438D02*
X77843047Y-105372819D01*
X77843047Y-105372819D02*
X77604952Y-105372819D01*
X77604952Y-105372819D02*
X77509714Y-105420438D01*
X77509714Y-105420438D02*
X77462095Y-105468057D01*
X77462095Y-105468057D02*
X77414476Y-105563295D01*
X77414476Y-105563295D02*
X77414476Y-105658533D01*
X77414476Y-105658533D02*
X77462095Y-105801390D01*
X77462095Y-105801390D02*
X78033523Y-106372819D01*
X78033523Y-106372819D02*
X77414476Y-106372819D01*
X77081142Y-105372819D02*
X76414476Y-105372819D01*
X76414476Y-105372819D02*
X76843047Y-106372819D01*
X77885666Y-80126819D02*
X78218999Y-79650628D01*
X78457094Y-80126819D02*
X78457094Y-79126819D01*
X78457094Y-79126819D02*
X78076142Y-79126819D01*
X78076142Y-79126819D02*
X77980904Y-79174438D01*
X77980904Y-79174438D02*
X77933285Y-79222057D01*
X77933285Y-79222057D02*
X77885666Y-79317295D01*
X77885666Y-79317295D02*
X77885666Y-79460152D01*
X77885666Y-79460152D02*
X77933285Y-79555390D01*
X77933285Y-79555390D02*
X77980904Y-79603009D01*
X77980904Y-79603009D02*
X78076142Y-79650628D01*
X78076142Y-79650628D02*
X78457094Y-79650628D01*
X77552332Y-79126819D02*
X76885666Y-79126819D01*
X76885666Y-79126819D02*
X77314237Y-80126819D01*
X208409857Y-64970819D02*
X208743190Y-64494628D01*
X208981285Y-64970819D02*
X208981285Y-63970819D01*
X208981285Y-63970819D02*
X208600333Y-63970819D01*
X208600333Y-63970819D02*
X208505095Y-64018438D01*
X208505095Y-64018438D02*
X208457476Y-64066057D01*
X208457476Y-64066057D02*
X208409857Y-64161295D01*
X208409857Y-64161295D02*
X208409857Y-64304152D01*
X208409857Y-64304152D02*
X208457476Y-64399390D01*
X208457476Y-64399390D02*
X208505095Y-64447009D01*
X208505095Y-64447009D02*
X208600333Y-64494628D01*
X208600333Y-64494628D02*
X208981285Y-64494628D01*
X207457476Y-64970819D02*
X208028904Y-64970819D01*
X207743190Y-64970819D02*
X207743190Y-63970819D01*
X207743190Y-63970819D02*
X207838428Y-64113676D01*
X207838428Y-64113676D02*
X207933666Y-64208914D01*
X207933666Y-64208914D02*
X208028904Y-64256533D01*
X206600333Y-63970819D02*
X206790809Y-63970819D01*
X206790809Y-63970819D02*
X206886047Y-64018438D01*
X206886047Y-64018438D02*
X206933666Y-64066057D01*
X206933666Y-64066057D02*
X207028904Y-64208914D01*
X207028904Y-64208914D02*
X207076523Y-64399390D01*
X207076523Y-64399390D02*
X207076523Y-64780342D01*
X207076523Y-64780342D02*
X207028904Y-64875580D01*
X207028904Y-64875580D02*
X206981285Y-64923200D01*
X206981285Y-64923200D02*
X206886047Y-64970819D01*
X206886047Y-64970819D02*
X206695571Y-64970819D01*
X206695571Y-64970819D02*
X206600333Y-64923200D01*
X206600333Y-64923200D02*
X206552714Y-64875580D01*
X206552714Y-64875580D02*
X206505095Y-64780342D01*
X206505095Y-64780342D02*
X206505095Y-64542247D01*
X206505095Y-64542247D02*
X206552714Y-64447009D01*
X206552714Y-64447009D02*
X206600333Y-64399390D01*
X206600333Y-64399390D02*
X206695571Y-64351771D01*
X206695571Y-64351771D02*
X206886047Y-64351771D01*
X206886047Y-64351771D02*
X206981285Y-64399390D01*
X206981285Y-64399390D02*
X207028904Y-64447009D01*
X207028904Y-64447009D02*
X207076523Y-64542247D01*
X110667857Y-115854819D02*
X111001190Y-115378628D01*
X111239285Y-115854819D02*
X111239285Y-114854819D01*
X111239285Y-114854819D02*
X110858333Y-114854819D01*
X110858333Y-114854819D02*
X110763095Y-114902438D01*
X110763095Y-114902438D02*
X110715476Y-114950057D01*
X110715476Y-114950057D02*
X110667857Y-115045295D01*
X110667857Y-115045295D02*
X110667857Y-115188152D01*
X110667857Y-115188152D02*
X110715476Y-115283390D01*
X110715476Y-115283390D02*
X110763095Y-115331009D01*
X110763095Y-115331009D02*
X110858333Y-115378628D01*
X110858333Y-115378628D02*
X111239285Y-115378628D01*
X110286904Y-114950057D02*
X110239285Y-114902438D01*
X110239285Y-114902438D02*
X110144047Y-114854819D01*
X110144047Y-114854819D02*
X109905952Y-114854819D01*
X109905952Y-114854819D02*
X109810714Y-114902438D01*
X109810714Y-114902438D02*
X109763095Y-114950057D01*
X109763095Y-114950057D02*
X109715476Y-115045295D01*
X109715476Y-115045295D02*
X109715476Y-115140533D01*
X109715476Y-115140533D02*
X109763095Y-115283390D01*
X109763095Y-115283390D02*
X110334523Y-115854819D01*
X110334523Y-115854819D02*
X109715476Y-115854819D01*
X109239285Y-115854819D02*
X109048809Y-115854819D01*
X109048809Y-115854819D02*
X108953571Y-115807200D01*
X108953571Y-115807200D02*
X108905952Y-115759580D01*
X108905952Y-115759580D02*
X108810714Y-115616723D01*
X108810714Y-115616723D02*
X108763095Y-115426247D01*
X108763095Y-115426247D02*
X108763095Y-115045295D01*
X108763095Y-115045295D02*
X108810714Y-114950057D01*
X108810714Y-114950057D02*
X108858333Y-114902438D01*
X108858333Y-114902438D02*
X108953571Y-114854819D01*
X108953571Y-114854819D02*
X109144047Y-114854819D01*
X109144047Y-114854819D02*
X109239285Y-114902438D01*
X109239285Y-114902438D02*
X109286904Y-114950057D01*
X109286904Y-114950057D02*
X109334523Y-115045295D01*
X109334523Y-115045295D02*
X109334523Y-115283390D01*
X109334523Y-115283390D02*
X109286904Y-115378628D01*
X109286904Y-115378628D02*
X109239285Y-115426247D01*
X109239285Y-115426247D02*
X109144047Y-115473866D01*
X109144047Y-115473866D02*
X108953571Y-115473866D01*
X108953571Y-115473866D02*
X108858333Y-115426247D01*
X108858333Y-115426247D02*
X108810714Y-115378628D01*
X108810714Y-115378628D02*
X108763095Y-115283390D01*
X111429857Y-111028819D02*
X111763190Y-110552628D01*
X112001285Y-111028819D02*
X112001285Y-110028819D01*
X112001285Y-110028819D02*
X111620333Y-110028819D01*
X111620333Y-110028819D02*
X111525095Y-110076438D01*
X111525095Y-110076438D02*
X111477476Y-110124057D01*
X111477476Y-110124057D02*
X111429857Y-110219295D01*
X111429857Y-110219295D02*
X111429857Y-110362152D01*
X111429857Y-110362152D02*
X111477476Y-110457390D01*
X111477476Y-110457390D02*
X111525095Y-110505009D01*
X111525095Y-110505009D02*
X111620333Y-110552628D01*
X111620333Y-110552628D02*
X112001285Y-110552628D01*
X111096523Y-110028819D02*
X110477476Y-110028819D01*
X110477476Y-110028819D02*
X110810809Y-110409771D01*
X110810809Y-110409771D02*
X110667952Y-110409771D01*
X110667952Y-110409771D02*
X110572714Y-110457390D01*
X110572714Y-110457390D02*
X110525095Y-110505009D01*
X110525095Y-110505009D02*
X110477476Y-110600247D01*
X110477476Y-110600247D02*
X110477476Y-110838342D01*
X110477476Y-110838342D02*
X110525095Y-110933580D01*
X110525095Y-110933580D02*
X110572714Y-110981200D01*
X110572714Y-110981200D02*
X110667952Y-111028819D01*
X110667952Y-111028819D02*
X110953666Y-111028819D01*
X110953666Y-111028819D02*
X111048904Y-110981200D01*
X111048904Y-110981200D02*
X111096523Y-110933580D01*
X110096523Y-110124057D02*
X110048904Y-110076438D01*
X110048904Y-110076438D02*
X109953666Y-110028819D01*
X109953666Y-110028819D02*
X109715571Y-110028819D01*
X109715571Y-110028819D02*
X109620333Y-110076438D01*
X109620333Y-110076438D02*
X109572714Y-110124057D01*
X109572714Y-110124057D02*
X109525095Y-110219295D01*
X109525095Y-110219295D02*
X109525095Y-110314533D01*
X109525095Y-110314533D02*
X109572714Y-110457390D01*
X109572714Y-110457390D02*
X110144142Y-111028819D01*
X110144142Y-111028819D02*
X109525095Y-111028819D01*
X122049857Y-82666819D02*
X122383190Y-82190628D01*
X122621285Y-82666819D02*
X122621285Y-81666819D01*
X122621285Y-81666819D02*
X122240333Y-81666819D01*
X122240333Y-81666819D02*
X122145095Y-81714438D01*
X122145095Y-81714438D02*
X122097476Y-81762057D01*
X122097476Y-81762057D02*
X122049857Y-81857295D01*
X122049857Y-81857295D02*
X122049857Y-82000152D01*
X122049857Y-82000152D02*
X122097476Y-82095390D01*
X122097476Y-82095390D02*
X122145095Y-82143009D01*
X122145095Y-82143009D02*
X122240333Y-82190628D01*
X122240333Y-82190628D02*
X122621285Y-82190628D01*
X121668904Y-81762057D02*
X121621285Y-81714438D01*
X121621285Y-81714438D02*
X121526047Y-81666819D01*
X121526047Y-81666819D02*
X121287952Y-81666819D01*
X121287952Y-81666819D02*
X121192714Y-81714438D01*
X121192714Y-81714438D02*
X121145095Y-81762057D01*
X121145095Y-81762057D02*
X121097476Y-81857295D01*
X121097476Y-81857295D02*
X121097476Y-81952533D01*
X121097476Y-81952533D02*
X121145095Y-82095390D01*
X121145095Y-82095390D02*
X121716523Y-82666819D01*
X121716523Y-82666819D02*
X121097476Y-82666819D01*
X120478428Y-81666819D02*
X120383190Y-81666819D01*
X120383190Y-81666819D02*
X120287952Y-81714438D01*
X120287952Y-81714438D02*
X120240333Y-81762057D01*
X120240333Y-81762057D02*
X120192714Y-81857295D01*
X120192714Y-81857295D02*
X120145095Y-82047771D01*
X120145095Y-82047771D02*
X120145095Y-82285866D01*
X120145095Y-82285866D02*
X120192714Y-82476342D01*
X120192714Y-82476342D02*
X120240333Y-82571580D01*
X120240333Y-82571580D02*
X120287952Y-82619200D01*
X120287952Y-82619200D02*
X120383190Y-82666819D01*
X120383190Y-82666819D02*
X120478428Y-82666819D01*
X120478428Y-82666819D02*
X120573666Y-82619200D01*
X120573666Y-82619200D02*
X120621285Y-82571580D01*
X120621285Y-82571580D02*
X120668904Y-82476342D01*
X120668904Y-82476342D02*
X120716523Y-82285866D01*
X120716523Y-82285866D02*
X120716523Y-82047771D01*
X120716523Y-82047771D02*
X120668904Y-81857295D01*
X120668904Y-81857295D02*
X120621285Y-81762057D01*
X120621285Y-81762057D02*
X120573666Y-81714438D01*
X120573666Y-81714438D02*
X120478428Y-81666819D01*
X77885666Y-61838819D02*
X78218999Y-61362628D01*
X78457094Y-61838819D02*
X78457094Y-60838819D01*
X78457094Y-60838819D02*
X78076142Y-60838819D01*
X78076142Y-60838819D02*
X77980904Y-60886438D01*
X77980904Y-60886438D02*
X77933285Y-60934057D01*
X77933285Y-60934057D02*
X77885666Y-61029295D01*
X77885666Y-61029295D02*
X77885666Y-61172152D01*
X77885666Y-61172152D02*
X77933285Y-61267390D01*
X77933285Y-61267390D02*
X77980904Y-61315009D01*
X77980904Y-61315009D02*
X78076142Y-61362628D01*
X78076142Y-61362628D02*
X78457094Y-61362628D01*
X76980904Y-60838819D02*
X77457094Y-60838819D01*
X77457094Y-60838819D02*
X77504713Y-61315009D01*
X77504713Y-61315009D02*
X77457094Y-61267390D01*
X77457094Y-61267390D02*
X77361856Y-61219771D01*
X77361856Y-61219771D02*
X77123761Y-61219771D01*
X77123761Y-61219771D02*
X77028523Y-61267390D01*
X77028523Y-61267390D02*
X76980904Y-61315009D01*
X76980904Y-61315009D02*
X76933285Y-61410247D01*
X76933285Y-61410247D02*
X76933285Y-61648342D01*
X76933285Y-61648342D02*
X76980904Y-61743580D01*
X76980904Y-61743580D02*
X77028523Y-61791200D01*
X77028523Y-61791200D02*
X77123761Y-61838819D01*
X77123761Y-61838819D02*
X77361856Y-61838819D01*
X77361856Y-61838819D02*
X77457094Y-61791200D01*
X77457094Y-61791200D02*
X77504713Y-61743580D01*
X122049857Y-58282819D02*
X122383190Y-57806628D01*
X122621285Y-58282819D02*
X122621285Y-57282819D01*
X122621285Y-57282819D02*
X122240333Y-57282819D01*
X122240333Y-57282819D02*
X122145095Y-57330438D01*
X122145095Y-57330438D02*
X122097476Y-57378057D01*
X122097476Y-57378057D02*
X122049857Y-57473295D01*
X122049857Y-57473295D02*
X122049857Y-57616152D01*
X122049857Y-57616152D02*
X122097476Y-57711390D01*
X122097476Y-57711390D02*
X122145095Y-57759009D01*
X122145095Y-57759009D02*
X122240333Y-57806628D01*
X122240333Y-57806628D02*
X122621285Y-57806628D01*
X121097476Y-58282819D02*
X121668904Y-58282819D01*
X121383190Y-58282819D02*
X121383190Y-57282819D01*
X121383190Y-57282819D02*
X121478428Y-57425676D01*
X121478428Y-57425676D02*
X121573666Y-57520914D01*
X121573666Y-57520914D02*
X121668904Y-57568533D01*
X120764142Y-57282819D02*
X120097476Y-57282819D01*
X120097476Y-57282819D02*
X120526047Y-58282819D01*
X185919904Y-92712819D02*
X185348476Y-92712819D01*
X185634190Y-93712819D02*
X185634190Y-92712819D01*
X185015142Y-93712819D02*
X185015142Y-92712819D01*
X185015142Y-92712819D02*
X184634190Y-92712819D01*
X184634190Y-92712819D02*
X184538952Y-92760438D01*
X184538952Y-92760438D02*
X184491333Y-92808057D01*
X184491333Y-92808057D02*
X184443714Y-92903295D01*
X184443714Y-92903295D02*
X184443714Y-93046152D01*
X184443714Y-93046152D02*
X184491333Y-93141390D01*
X184491333Y-93141390D02*
X184538952Y-93189009D01*
X184538952Y-93189009D02*
X184634190Y-93236628D01*
X184634190Y-93236628D02*
X185015142Y-93236628D01*
X183491333Y-93712819D02*
X184062761Y-93712819D01*
X183777047Y-93712819D02*
X183777047Y-92712819D01*
X183777047Y-92712819D02*
X183872285Y-92855676D01*
X183872285Y-92855676D02*
X183967523Y-92950914D01*
X183967523Y-92950914D02*
X184062761Y-92998533D01*
X186681809Y-97712819D02*
X186348476Y-98712819D01*
X186348476Y-98712819D02*
X186015143Y-97712819D01*
X185348476Y-98189009D02*
X185205619Y-98236628D01*
X185205619Y-98236628D02*
X185158000Y-98284247D01*
X185158000Y-98284247D02*
X185110381Y-98379485D01*
X185110381Y-98379485D02*
X185110381Y-98522342D01*
X185110381Y-98522342D02*
X185158000Y-98617580D01*
X185158000Y-98617580D02*
X185205619Y-98665200D01*
X185205619Y-98665200D02*
X185300857Y-98712819D01*
X185300857Y-98712819D02*
X185681809Y-98712819D01*
X185681809Y-98712819D02*
X185681809Y-97712819D01*
X185681809Y-97712819D02*
X185348476Y-97712819D01*
X185348476Y-97712819D02*
X185253238Y-97760438D01*
X185253238Y-97760438D02*
X185205619Y-97808057D01*
X185205619Y-97808057D02*
X185158000Y-97903295D01*
X185158000Y-97903295D02*
X185158000Y-97998533D01*
X185158000Y-97998533D02*
X185205619Y-98093771D01*
X185205619Y-98093771D02*
X185253238Y-98141390D01*
X185253238Y-98141390D02*
X185348476Y-98189009D01*
X185348476Y-98189009D02*
X185681809Y-98189009D01*
X184729428Y-98427104D02*
X184253238Y-98427104D01*
X184824666Y-98712819D02*
X184491333Y-97712819D01*
X184491333Y-97712819D02*
X184158000Y-98712819D01*
X183967523Y-97712819D02*
X183396095Y-97712819D01*
X183681809Y-98712819D02*
X183681809Y-97712819D01*
X183205618Y-97712819D02*
X182634190Y-97712819D01*
X182919904Y-98712819D02*
X182919904Y-97712819D01*
X208409857Y-74114819D02*
X208743190Y-73638628D01*
X208981285Y-74114819D02*
X208981285Y-73114819D01*
X208981285Y-73114819D02*
X208600333Y-73114819D01*
X208600333Y-73114819D02*
X208505095Y-73162438D01*
X208505095Y-73162438D02*
X208457476Y-73210057D01*
X208457476Y-73210057D02*
X208409857Y-73305295D01*
X208409857Y-73305295D02*
X208409857Y-73448152D01*
X208409857Y-73448152D02*
X208457476Y-73543390D01*
X208457476Y-73543390D02*
X208505095Y-73591009D01*
X208505095Y-73591009D02*
X208600333Y-73638628D01*
X208600333Y-73638628D02*
X208981285Y-73638628D01*
X208076523Y-73114819D02*
X207457476Y-73114819D01*
X207457476Y-73114819D02*
X207790809Y-73495771D01*
X207790809Y-73495771D02*
X207647952Y-73495771D01*
X207647952Y-73495771D02*
X207552714Y-73543390D01*
X207552714Y-73543390D02*
X207505095Y-73591009D01*
X207505095Y-73591009D02*
X207457476Y-73686247D01*
X207457476Y-73686247D02*
X207457476Y-73924342D01*
X207457476Y-73924342D02*
X207505095Y-74019580D01*
X207505095Y-74019580D02*
X207552714Y-74067200D01*
X207552714Y-74067200D02*
X207647952Y-74114819D01*
X207647952Y-74114819D02*
X207933666Y-74114819D01*
X207933666Y-74114819D02*
X208028904Y-74067200D01*
X208028904Y-74067200D02*
X208076523Y-74019580D01*
X206600333Y-73448152D02*
X206600333Y-74114819D01*
X206838428Y-73067200D02*
X207076523Y-73781485D01*
X207076523Y-73781485D02*
X206457476Y-73781485D01*
X170817857Y-66240819D02*
X171151190Y-65764628D01*
X171389285Y-66240819D02*
X171389285Y-65240819D01*
X171389285Y-65240819D02*
X171008333Y-65240819D01*
X171008333Y-65240819D02*
X170913095Y-65288438D01*
X170913095Y-65288438D02*
X170865476Y-65336057D01*
X170865476Y-65336057D02*
X170817857Y-65431295D01*
X170817857Y-65431295D02*
X170817857Y-65574152D01*
X170817857Y-65574152D02*
X170865476Y-65669390D01*
X170865476Y-65669390D02*
X170913095Y-65717009D01*
X170913095Y-65717009D02*
X171008333Y-65764628D01*
X171008333Y-65764628D02*
X171389285Y-65764628D01*
X169865476Y-66240819D02*
X170436904Y-66240819D01*
X170151190Y-66240819D02*
X170151190Y-65240819D01*
X170151190Y-65240819D02*
X170246428Y-65383676D01*
X170246428Y-65383676D02*
X170341666Y-65478914D01*
X170341666Y-65478914D02*
X170436904Y-65526533D01*
X169246428Y-65240819D02*
X169151190Y-65240819D01*
X169151190Y-65240819D02*
X169055952Y-65288438D01*
X169055952Y-65288438D02*
X169008333Y-65336057D01*
X169008333Y-65336057D02*
X168960714Y-65431295D01*
X168960714Y-65431295D02*
X168913095Y-65621771D01*
X168913095Y-65621771D02*
X168913095Y-65859866D01*
X168913095Y-65859866D02*
X168960714Y-66050342D01*
X168960714Y-66050342D02*
X169008333Y-66145580D01*
X169008333Y-66145580D02*
X169055952Y-66193200D01*
X169055952Y-66193200D02*
X169151190Y-66240819D01*
X169151190Y-66240819D02*
X169246428Y-66240819D01*
X169246428Y-66240819D02*
X169341666Y-66193200D01*
X169341666Y-66193200D02*
X169389285Y-66145580D01*
X169389285Y-66145580D02*
X169436904Y-66050342D01*
X169436904Y-66050342D02*
X169484523Y-65859866D01*
X169484523Y-65859866D02*
X169484523Y-65621771D01*
X169484523Y-65621771D02*
X169436904Y-65431295D01*
X169436904Y-65431295D02*
X169389285Y-65336057D01*
X169389285Y-65336057D02*
X169341666Y-65288438D01*
X169341666Y-65288438D02*
X169246428Y-65240819D01*
X122049857Y-74538819D02*
X122383190Y-74062628D01*
X122621285Y-74538819D02*
X122621285Y-73538819D01*
X122621285Y-73538819D02*
X122240333Y-73538819D01*
X122240333Y-73538819D02*
X122145095Y-73586438D01*
X122145095Y-73586438D02*
X122097476Y-73634057D01*
X122097476Y-73634057D02*
X122049857Y-73729295D01*
X122049857Y-73729295D02*
X122049857Y-73872152D01*
X122049857Y-73872152D02*
X122097476Y-73967390D01*
X122097476Y-73967390D02*
X122145095Y-74015009D01*
X122145095Y-74015009D02*
X122240333Y-74062628D01*
X122240333Y-74062628D02*
X122621285Y-74062628D01*
X121097476Y-74538819D02*
X121668904Y-74538819D01*
X121383190Y-74538819D02*
X121383190Y-73538819D01*
X121383190Y-73538819D02*
X121478428Y-73681676D01*
X121478428Y-73681676D02*
X121573666Y-73776914D01*
X121573666Y-73776914D02*
X121668904Y-73824533D01*
X120621285Y-74538819D02*
X120430809Y-74538819D01*
X120430809Y-74538819D02*
X120335571Y-74491200D01*
X120335571Y-74491200D02*
X120287952Y-74443580D01*
X120287952Y-74443580D02*
X120192714Y-74300723D01*
X120192714Y-74300723D02*
X120145095Y-74110247D01*
X120145095Y-74110247D02*
X120145095Y-73729295D01*
X120145095Y-73729295D02*
X120192714Y-73634057D01*
X120192714Y-73634057D02*
X120240333Y-73586438D01*
X120240333Y-73586438D02*
X120335571Y-73538819D01*
X120335571Y-73538819D02*
X120526047Y-73538819D01*
X120526047Y-73538819D02*
X120621285Y-73586438D01*
X120621285Y-73586438D02*
X120668904Y-73634057D01*
X120668904Y-73634057D02*
X120716523Y-73729295D01*
X120716523Y-73729295D02*
X120716523Y-73967390D01*
X120716523Y-73967390D02*
X120668904Y-74062628D01*
X120668904Y-74062628D02*
X120621285Y-74110247D01*
X120621285Y-74110247D02*
X120526047Y-74157866D01*
X120526047Y-74157866D02*
X120335571Y-74157866D01*
X120335571Y-74157866D02*
X120240333Y-74110247D01*
X120240333Y-74110247D02*
X120192714Y-74062628D01*
X120192714Y-74062628D02*
X120145095Y-73967390D01*
X62990666Y-116183580D02*
X63038285Y-116231200D01*
X63038285Y-116231200D02*
X63181142Y-116278819D01*
X63181142Y-116278819D02*
X63276380Y-116278819D01*
X63276380Y-116278819D02*
X63419237Y-116231200D01*
X63419237Y-116231200D02*
X63514475Y-116135961D01*
X63514475Y-116135961D02*
X63562094Y-116040723D01*
X63562094Y-116040723D02*
X63609713Y-115850247D01*
X63609713Y-115850247D02*
X63609713Y-115707390D01*
X63609713Y-115707390D02*
X63562094Y-115516914D01*
X63562094Y-115516914D02*
X63514475Y-115421676D01*
X63514475Y-115421676D02*
X63419237Y-115326438D01*
X63419237Y-115326438D02*
X63276380Y-115278819D01*
X63276380Y-115278819D02*
X63181142Y-115278819D01*
X63181142Y-115278819D02*
X63038285Y-115326438D01*
X63038285Y-115326438D02*
X62990666Y-115374057D01*
X62038285Y-116278819D02*
X62609713Y-116278819D01*
X62323999Y-116278819D02*
X62323999Y-115278819D01*
X62323999Y-115278819D02*
X62419237Y-115421676D01*
X62419237Y-115421676D02*
X62514475Y-115516914D01*
X62514475Y-115516914D02*
X62609713Y-115564533D01*
X96519904Y-101020819D02*
X96519904Y-101830342D01*
X96519904Y-101830342D02*
X96472285Y-101925580D01*
X96472285Y-101925580D02*
X96424666Y-101973200D01*
X96424666Y-101973200D02*
X96329428Y-102020819D01*
X96329428Y-102020819D02*
X96138952Y-102020819D01*
X96138952Y-102020819D02*
X96043714Y-101973200D01*
X96043714Y-101973200D02*
X95996095Y-101925580D01*
X95996095Y-101925580D02*
X95948476Y-101830342D01*
X95948476Y-101830342D02*
X95948476Y-101020819D01*
X95519904Y-101116057D02*
X95472285Y-101068438D01*
X95472285Y-101068438D02*
X95377047Y-101020819D01*
X95377047Y-101020819D02*
X95138952Y-101020819D01*
X95138952Y-101020819D02*
X95043714Y-101068438D01*
X95043714Y-101068438D02*
X94996095Y-101116057D01*
X94996095Y-101116057D02*
X94948476Y-101211295D01*
X94948476Y-101211295D02*
X94948476Y-101306533D01*
X94948476Y-101306533D02*
X94996095Y-101449390D01*
X94996095Y-101449390D02*
X95567523Y-102020819D01*
X95567523Y-102020819D02*
X94948476Y-102020819D01*
X175505904Y-92712819D02*
X174934476Y-92712819D01*
X175220190Y-93712819D02*
X175220190Y-92712819D01*
X174601142Y-93712819D02*
X174601142Y-92712819D01*
X174601142Y-92712819D02*
X174220190Y-92712819D01*
X174220190Y-92712819D02*
X174124952Y-92760438D01*
X174124952Y-92760438D02*
X174077333Y-92808057D01*
X174077333Y-92808057D02*
X174029714Y-92903295D01*
X174029714Y-92903295D02*
X174029714Y-93046152D01*
X174029714Y-93046152D02*
X174077333Y-93141390D01*
X174077333Y-93141390D02*
X174124952Y-93189009D01*
X174124952Y-93189009D02*
X174220190Y-93236628D01*
X174220190Y-93236628D02*
X174601142Y-93236628D01*
X173172571Y-93046152D02*
X173172571Y-93712819D01*
X173410666Y-92665200D02*
X173648761Y-93379485D01*
X173648761Y-93379485D02*
X173029714Y-93379485D01*
X175577333Y-98712819D02*
X175910666Y-98236628D01*
X176148761Y-98712819D02*
X176148761Y-97712819D01*
X176148761Y-97712819D02*
X175767809Y-97712819D01*
X175767809Y-97712819D02*
X175672571Y-97760438D01*
X175672571Y-97760438D02*
X175624952Y-97808057D01*
X175624952Y-97808057D02*
X175577333Y-97903295D01*
X175577333Y-97903295D02*
X175577333Y-98046152D01*
X175577333Y-98046152D02*
X175624952Y-98141390D01*
X175624952Y-98141390D02*
X175672571Y-98189009D01*
X175672571Y-98189009D02*
X175767809Y-98236628D01*
X175767809Y-98236628D02*
X176148761Y-98236628D01*
X175148761Y-98712819D02*
X175148761Y-97712819D01*
X174148762Y-97760438D02*
X174244000Y-97712819D01*
X174244000Y-97712819D02*
X174386857Y-97712819D01*
X174386857Y-97712819D02*
X174529714Y-97760438D01*
X174529714Y-97760438D02*
X174624952Y-97855676D01*
X174624952Y-97855676D02*
X174672571Y-97950914D01*
X174672571Y-97950914D02*
X174720190Y-98141390D01*
X174720190Y-98141390D02*
X174720190Y-98284247D01*
X174720190Y-98284247D02*
X174672571Y-98474723D01*
X174672571Y-98474723D02*
X174624952Y-98569961D01*
X174624952Y-98569961D02*
X174529714Y-98665200D01*
X174529714Y-98665200D02*
X174386857Y-98712819D01*
X174386857Y-98712819D02*
X174291619Y-98712819D01*
X174291619Y-98712819D02*
X174148762Y-98665200D01*
X174148762Y-98665200D02*
X174101143Y-98617580D01*
X174101143Y-98617580D02*
X174101143Y-98284247D01*
X174101143Y-98284247D02*
X174291619Y-98284247D01*
X173672571Y-98712819D02*
X173672571Y-97712819D01*
X173672571Y-98189009D02*
X173101143Y-98189009D01*
X173101143Y-98712819D02*
X173101143Y-97712819D01*
X172767809Y-97712819D02*
X172196381Y-97712819D01*
X172482095Y-98712819D02*
X172482095Y-97712819D01*
X189613857Y-78686819D02*
X189947190Y-78210628D01*
X190185285Y-78686819D02*
X190185285Y-77686819D01*
X190185285Y-77686819D02*
X189804333Y-77686819D01*
X189804333Y-77686819D02*
X189709095Y-77734438D01*
X189709095Y-77734438D02*
X189661476Y-77782057D01*
X189661476Y-77782057D02*
X189613857Y-77877295D01*
X189613857Y-77877295D02*
X189613857Y-78020152D01*
X189613857Y-78020152D02*
X189661476Y-78115390D01*
X189661476Y-78115390D02*
X189709095Y-78163009D01*
X189709095Y-78163009D02*
X189804333Y-78210628D01*
X189804333Y-78210628D02*
X190185285Y-78210628D01*
X188661476Y-78686819D02*
X189232904Y-78686819D01*
X188947190Y-78686819D02*
X188947190Y-77686819D01*
X188947190Y-77686819D02*
X189042428Y-77829676D01*
X189042428Y-77829676D02*
X189137666Y-77924914D01*
X189137666Y-77924914D02*
X189232904Y-77972533D01*
X187756714Y-77686819D02*
X188232904Y-77686819D01*
X188232904Y-77686819D02*
X188280523Y-78163009D01*
X188280523Y-78163009D02*
X188232904Y-78115390D01*
X188232904Y-78115390D02*
X188137666Y-78067771D01*
X188137666Y-78067771D02*
X187899571Y-78067771D01*
X187899571Y-78067771D02*
X187804333Y-78115390D01*
X187804333Y-78115390D02*
X187756714Y-78163009D01*
X187756714Y-78163009D02*
X187709095Y-78258247D01*
X187709095Y-78258247D02*
X187709095Y-78496342D01*
X187709095Y-78496342D02*
X187756714Y-78591580D01*
X187756714Y-78591580D02*
X187804333Y-78639200D01*
X187804333Y-78639200D02*
X187899571Y-78686819D01*
X187899571Y-78686819D02*
X188137666Y-78686819D01*
X188137666Y-78686819D02*
X188232904Y-78639200D01*
X188232904Y-78639200D02*
X188280523Y-78591580D01*
X93000057Y-94646761D02*
X92952438Y-94551523D01*
X92952438Y-94551523D02*
X92857200Y-94456285D01*
X92857200Y-94456285D02*
X92714342Y-94313428D01*
X92714342Y-94313428D02*
X92666723Y-94218190D01*
X92666723Y-94218190D02*
X92666723Y-94122952D01*
X92904819Y-94170571D02*
X92857200Y-94075333D01*
X92857200Y-94075333D02*
X92761961Y-93980095D01*
X92761961Y-93980095D02*
X92571485Y-93932476D01*
X92571485Y-93932476D02*
X92238152Y-93932476D01*
X92238152Y-93932476D02*
X92047676Y-93980095D01*
X92047676Y-93980095D02*
X91952438Y-94075333D01*
X91952438Y-94075333D02*
X91904819Y-94170571D01*
X91904819Y-94170571D02*
X91904819Y-94361047D01*
X91904819Y-94361047D02*
X91952438Y-94456285D01*
X91952438Y-94456285D02*
X92047676Y-94551523D01*
X92047676Y-94551523D02*
X92238152Y-94599142D01*
X92238152Y-94599142D02*
X92571485Y-94599142D01*
X92571485Y-94599142D02*
X92761961Y-94551523D01*
X92761961Y-94551523D02*
X92857200Y-94456285D01*
X92857200Y-94456285D02*
X92904819Y-94361047D01*
X92904819Y-94361047D02*
X92904819Y-94170571D01*
X92000057Y-94980095D02*
X91952438Y-95027714D01*
X91952438Y-95027714D02*
X91904819Y-95122952D01*
X91904819Y-95122952D02*
X91904819Y-95361047D01*
X91904819Y-95361047D02*
X91952438Y-95456285D01*
X91952438Y-95456285D02*
X92000057Y-95503904D01*
X92000057Y-95503904D02*
X92095295Y-95551523D01*
X92095295Y-95551523D02*
X92190533Y-95551523D01*
X92190533Y-95551523D02*
X92333390Y-95503904D01*
X92333390Y-95503904D02*
X92904819Y-94932476D01*
X92904819Y-94932476D02*
X92904819Y-95551523D01*
X53540819Y-107815142D02*
X53064628Y-107481809D01*
X53540819Y-107243714D02*
X52540819Y-107243714D01*
X52540819Y-107243714D02*
X52540819Y-107624666D01*
X52540819Y-107624666D02*
X52588438Y-107719904D01*
X52588438Y-107719904D02*
X52636057Y-107767523D01*
X52636057Y-107767523D02*
X52731295Y-107815142D01*
X52731295Y-107815142D02*
X52874152Y-107815142D01*
X52874152Y-107815142D02*
X52969390Y-107767523D01*
X52969390Y-107767523D02*
X53017009Y-107719904D01*
X53017009Y-107719904D02*
X53064628Y-107624666D01*
X53064628Y-107624666D02*
X53064628Y-107243714D01*
X52636057Y-108196095D02*
X52588438Y-108243714D01*
X52588438Y-108243714D02*
X52540819Y-108338952D01*
X52540819Y-108338952D02*
X52540819Y-108577047D01*
X52540819Y-108577047D02*
X52588438Y-108672285D01*
X52588438Y-108672285D02*
X52636057Y-108719904D01*
X52636057Y-108719904D02*
X52731295Y-108767523D01*
X52731295Y-108767523D02*
X52826533Y-108767523D01*
X52826533Y-108767523D02*
X52969390Y-108719904D01*
X52969390Y-108719904D02*
X53540819Y-108148476D01*
X53540819Y-108148476D02*
X53540819Y-108767523D01*
X52540819Y-109624666D02*
X52540819Y-109434190D01*
X52540819Y-109434190D02*
X52588438Y-109338952D01*
X52588438Y-109338952D02*
X52636057Y-109291333D01*
X52636057Y-109291333D02*
X52778914Y-109196095D01*
X52778914Y-109196095D02*
X52969390Y-109148476D01*
X52969390Y-109148476D02*
X53350342Y-109148476D01*
X53350342Y-109148476D02*
X53445580Y-109196095D01*
X53445580Y-109196095D02*
X53493200Y-109243714D01*
X53493200Y-109243714D02*
X53540819Y-109338952D01*
X53540819Y-109338952D02*
X53540819Y-109529428D01*
X53540819Y-109529428D02*
X53493200Y-109624666D01*
X53493200Y-109624666D02*
X53445580Y-109672285D01*
X53445580Y-109672285D02*
X53350342Y-109719904D01*
X53350342Y-109719904D02*
X53112247Y-109719904D01*
X53112247Y-109719904D02*
X53017009Y-109672285D01*
X53017009Y-109672285D02*
X52969390Y-109624666D01*
X52969390Y-109624666D02*
X52921771Y-109529428D01*
X52921771Y-109529428D02*
X52921771Y-109338952D01*
X52921771Y-109338952D02*
X52969390Y-109243714D01*
X52969390Y-109243714D02*
X53017009Y-109196095D01*
X53017009Y-109196095D02*
X53112247Y-109148476D01*
X96681666Y-66156819D02*
X97014999Y-65680628D01*
X97253094Y-66156819D02*
X97253094Y-65156819D01*
X97253094Y-65156819D02*
X96872142Y-65156819D01*
X96872142Y-65156819D02*
X96776904Y-65204438D01*
X96776904Y-65204438D02*
X96729285Y-65252057D01*
X96729285Y-65252057D02*
X96681666Y-65347295D01*
X96681666Y-65347295D02*
X96681666Y-65490152D01*
X96681666Y-65490152D02*
X96729285Y-65585390D01*
X96729285Y-65585390D02*
X96776904Y-65633009D01*
X96776904Y-65633009D02*
X96872142Y-65680628D01*
X96872142Y-65680628D02*
X97253094Y-65680628D01*
X96300713Y-65252057D02*
X96253094Y-65204438D01*
X96253094Y-65204438D02*
X96157856Y-65156819D01*
X96157856Y-65156819D02*
X95919761Y-65156819D01*
X95919761Y-65156819D02*
X95824523Y-65204438D01*
X95824523Y-65204438D02*
X95776904Y-65252057D01*
X95776904Y-65252057D02*
X95729285Y-65347295D01*
X95729285Y-65347295D02*
X95729285Y-65442533D01*
X95729285Y-65442533D02*
X95776904Y-65585390D01*
X95776904Y-65585390D02*
X96348332Y-66156819D01*
X96348332Y-66156819D02*
X95729285Y-66156819D01*
X75543580Y-103221333D02*
X75591200Y-103173714D01*
X75591200Y-103173714D02*
X75638819Y-103030857D01*
X75638819Y-103030857D02*
X75638819Y-102935619D01*
X75638819Y-102935619D02*
X75591200Y-102792762D01*
X75591200Y-102792762D02*
X75495961Y-102697524D01*
X75495961Y-102697524D02*
X75400723Y-102649905D01*
X75400723Y-102649905D02*
X75210247Y-102602286D01*
X75210247Y-102602286D02*
X75067390Y-102602286D01*
X75067390Y-102602286D02*
X74876914Y-102649905D01*
X74876914Y-102649905D02*
X74781676Y-102697524D01*
X74781676Y-102697524D02*
X74686438Y-102792762D01*
X74686438Y-102792762D02*
X74638819Y-102935619D01*
X74638819Y-102935619D02*
X74638819Y-103030857D01*
X74638819Y-103030857D02*
X74686438Y-103173714D01*
X74686438Y-103173714D02*
X74734057Y-103221333D01*
X74734057Y-103602286D02*
X74686438Y-103649905D01*
X74686438Y-103649905D02*
X74638819Y-103745143D01*
X74638819Y-103745143D02*
X74638819Y-103983238D01*
X74638819Y-103983238D02*
X74686438Y-104078476D01*
X74686438Y-104078476D02*
X74734057Y-104126095D01*
X74734057Y-104126095D02*
X74829295Y-104173714D01*
X74829295Y-104173714D02*
X74924533Y-104173714D01*
X74924533Y-104173714D02*
X75067390Y-104126095D01*
X75067390Y-104126095D02*
X75638819Y-103554667D01*
X75638819Y-103554667D02*
X75638819Y-104173714D01*
X86306819Y-107815142D02*
X85830628Y-107481809D01*
X86306819Y-107243714D02*
X85306819Y-107243714D01*
X85306819Y-107243714D02*
X85306819Y-107624666D01*
X85306819Y-107624666D02*
X85354438Y-107719904D01*
X85354438Y-107719904D02*
X85402057Y-107767523D01*
X85402057Y-107767523D02*
X85497295Y-107815142D01*
X85497295Y-107815142D02*
X85640152Y-107815142D01*
X85640152Y-107815142D02*
X85735390Y-107767523D01*
X85735390Y-107767523D02*
X85783009Y-107719904D01*
X85783009Y-107719904D02*
X85830628Y-107624666D01*
X85830628Y-107624666D02*
X85830628Y-107243714D01*
X85306819Y-108148476D02*
X85306819Y-108767523D01*
X85306819Y-108767523D02*
X85687771Y-108434190D01*
X85687771Y-108434190D02*
X85687771Y-108577047D01*
X85687771Y-108577047D02*
X85735390Y-108672285D01*
X85735390Y-108672285D02*
X85783009Y-108719904D01*
X85783009Y-108719904D02*
X85878247Y-108767523D01*
X85878247Y-108767523D02*
X86116342Y-108767523D01*
X86116342Y-108767523D02*
X86211580Y-108719904D01*
X86211580Y-108719904D02*
X86259200Y-108672285D01*
X86259200Y-108672285D02*
X86306819Y-108577047D01*
X86306819Y-108577047D02*
X86306819Y-108291333D01*
X86306819Y-108291333D02*
X86259200Y-108196095D01*
X86259200Y-108196095D02*
X86211580Y-108148476D01*
X85306819Y-109386571D02*
X85306819Y-109481809D01*
X85306819Y-109481809D02*
X85354438Y-109577047D01*
X85354438Y-109577047D02*
X85402057Y-109624666D01*
X85402057Y-109624666D02*
X85497295Y-109672285D01*
X85497295Y-109672285D02*
X85687771Y-109719904D01*
X85687771Y-109719904D02*
X85925866Y-109719904D01*
X85925866Y-109719904D02*
X86116342Y-109672285D01*
X86116342Y-109672285D02*
X86211580Y-109624666D01*
X86211580Y-109624666D02*
X86259200Y-109577047D01*
X86259200Y-109577047D02*
X86306819Y-109481809D01*
X86306819Y-109481809D02*
X86306819Y-109386571D01*
X86306819Y-109386571D02*
X86259200Y-109291333D01*
X86259200Y-109291333D02*
X86211580Y-109243714D01*
X86211580Y-109243714D02*
X86116342Y-109196095D01*
X86116342Y-109196095D02*
X85925866Y-109148476D01*
X85925866Y-109148476D02*
X85687771Y-109148476D01*
X85687771Y-109148476D02*
X85497295Y-109196095D01*
X85497295Y-109196095D02*
X85402057Y-109243714D01*
X85402057Y-109243714D02*
X85354438Y-109291333D01*
X85354438Y-109291333D02*
X85306819Y-109386571D01*
X201948819Y-87998666D02*
X202663104Y-87998666D01*
X202663104Y-87998666D02*
X202805961Y-87951047D01*
X202805961Y-87951047D02*
X202901200Y-87855809D01*
X202901200Y-87855809D02*
X202948819Y-87712952D01*
X202948819Y-87712952D02*
X202948819Y-87617714D01*
X202948819Y-88998666D02*
X202948819Y-88427238D01*
X202948819Y-88712952D02*
X201948819Y-88712952D01*
X201948819Y-88712952D02*
X202091676Y-88617714D01*
X202091676Y-88617714D02*
X202186914Y-88522476D01*
X202186914Y-88522476D02*
X202234533Y-88427238D01*
X170171904Y-92712819D02*
X169600476Y-92712819D01*
X169886190Y-93712819D02*
X169886190Y-92712819D01*
X169267142Y-93712819D02*
X169267142Y-92712819D01*
X169267142Y-92712819D02*
X168886190Y-92712819D01*
X168886190Y-92712819D02*
X168790952Y-92760438D01*
X168790952Y-92760438D02*
X168743333Y-92808057D01*
X168743333Y-92808057D02*
X168695714Y-92903295D01*
X168695714Y-92903295D02*
X168695714Y-93046152D01*
X168695714Y-93046152D02*
X168743333Y-93141390D01*
X168743333Y-93141390D02*
X168790952Y-93189009D01*
X168790952Y-93189009D02*
X168886190Y-93236628D01*
X168886190Y-93236628D02*
X169267142Y-93236628D01*
X168314761Y-92808057D02*
X168267142Y-92760438D01*
X168267142Y-92760438D02*
X168171904Y-92712819D01*
X168171904Y-92712819D02*
X167933809Y-92712819D01*
X167933809Y-92712819D02*
X167838571Y-92760438D01*
X167838571Y-92760438D02*
X167790952Y-92808057D01*
X167790952Y-92808057D02*
X167743333Y-92903295D01*
X167743333Y-92903295D02*
X167743333Y-92998533D01*
X167743333Y-92998533D02*
X167790952Y-93141390D01*
X167790952Y-93141390D02*
X168362380Y-93712819D01*
X168362380Y-93712819D02*
X167743333Y-93712819D01*
X169671904Y-97760438D02*
X169767142Y-97712819D01*
X169767142Y-97712819D02*
X169909999Y-97712819D01*
X169909999Y-97712819D02*
X170052856Y-97760438D01*
X170052856Y-97760438D02*
X170148094Y-97855676D01*
X170148094Y-97855676D02*
X170195713Y-97950914D01*
X170195713Y-97950914D02*
X170243332Y-98141390D01*
X170243332Y-98141390D02*
X170243332Y-98284247D01*
X170243332Y-98284247D02*
X170195713Y-98474723D01*
X170195713Y-98474723D02*
X170148094Y-98569961D01*
X170148094Y-98569961D02*
X170052856Y-98665200D01*
X170052856Y-98665200D02*
X169909999Y-98712819D01*
X169909999Y-98712819D02*
X169814761Y-98712819D01*
X169814761Y-98712819D02*
X169671904Y-98665200D01*
X169671904Y-98665200D02*
X169624285Y-98617580D01*
X169624285Y-98617580D02*
X169624285Y-98284247D01*
X169624285Y-98284247D02*
X169814761Y-98284247D01*
X169195713Y-98712819D02*
X169195713Y-97712819D01*
X169195713Y-97712819D02*
X168624285Y-98712819D01*
X168624285Y-98712819D02*
X168624285Y-97712819D01*
X168148094Y-98712819D02*
X168148094Y-97712819D01*
X168148094Y-97712819D02*
X167909999Y-97712819D01*
X167909999Y-97712819D02*
X167767142Y-97760438D01*
X167767142Y-97760438D02*
X167671904Y-97855676D01*
X167671904Y-97855676D02*
X167624285Y-97950914D01*
X167624285Y-97950914D02*
X167576666Y-98141390D01*
X167576666Y-98141390D02*
X167576666Y-98284247D01*
X167576666Y-98284247D02*
X167624285Y-98474723D01*
X167624285Y-98474723D02*
X167671904Y-98569961D01*
X167671904Y-98569961D02*
X167767142Y-98665200D01*
X167767142Y-98665200D02*
X167909999Y-98712819D01*
X167909999Y-98712819D02*
X168148094Y-98712819D01*
X110667857Y-120680819D02*
X111001190Y-120204628D01*
X111239285Y-120680819D02*
X111239285Y-119680819D01*
X111239285Y-119680819D02*
X110858333Y-119680819D01*
X110858333Y-119680819D02*
X110763095Y-119728438D01*
X110763095Y-119728438D02*
X110715476Y-119776057D01*
X110715476Y-119776057D02*
X110667857Y-119871295D01*
X110667857Y-119871295D02*
X110667857Y-120014152D01*
X110667857Y-120014152D02*
X110715476Y-120109390D01*
X110715476Y-120109390D02*
X110763095Y-120157009D01*
X110763095Y-120157009D02*
X110858333Y-120204628D01*
X110858333Y-120204628D02*
X111239285Y-120204628D01*
X110334523Y-119680819D02*
X109715476Y-119680819D01*
X109715476Y-119680819D02*
X110048809Y-120061771D01*
X110048809Y-120061771D02*
X109905952Y-120061771D01*
X109905952Y-120061771D02*
X109810714Y-120109390D01*
X109810714Y-120109390D02*
X109763095Y-120157009D01*
X109763095Y-120157009D02*
X109715476Y-120252247D01*
X109715476Y-120252247D02*
X109715476Y-120490342D01*
X109715476Y-120490342D02*
X109763095Y-120585580D01*
X109763095Y-120585580D02*
X109810714Y-120633200D01*
X109810714Y-120633200D02*
X109905952Y-120680819D01*
X109905952Y-120680819D02*
X110191666Y-120680819D01*
X110191666Y-120680819D02*
X110286904Y-120633200D01*
X110286904Y-120633200D02*
X110334523Y-120585580D01*
X108763095Y-120680819D02*
X109334523Y-120680819D01*
X109048809Y-120680819D02*
X109048809Y-119680819D01*
X109048809Y-119680819D02*
X109144047Y-119823676D01*
X109144047Y-119823676D02*
X109239285Y-119918914D01*
X109239285Y-119918914D02*
X109334523Y-119966533D01*
X189613857Y-69542819D02*
X189947190Y-69066628D01*
X190185285Y-69542819D02*
X190185285Y-68542819D01*
X190185285Y-68542819D02*
X189804333Y-68542819D01*
X189804333Y-68542819D02*
X189709095Y-68590438D01*
X189709095Y-68590438D02*
X189661476Y-68638057D01*
X189661476Y-68638057D02*
X189613857Y-68733295D01*
X189613857Y-68733295D02*
X189613857Y-68876152D01*
X189613857Y-68876152D02*
X189661476Y-68971390D01*
X189661476Y-68971390D02*
X189709095Y-69019009D01*
X189709095Y-69019009D02*
X189804333Y-69066628D01*
X189804333Y-69066628D02*
X190185285Y-69066628D01*
X188661476Y-69542819D02*
X189232904Y-69542819D01*
X188947190Y-69542819D02*
X188947190Y-68542819D01*
X188947190Y-68542819D02*
X189042428Y-68685676D01*
X189042428Y-68685676D02*
X189137666Y-68780914D01*
X189137666Y-68780914D02*
X189232904Y-68828533D01*
X187804333Y-68876152D02*
X187804333Y-69542819D01*
X188042428Y-68495200D02*
X188280523Y-69209485D01*
X188280523Y-69209485D02*
X187661476Y-69209485D01*
X177315714Y-107373009D02*
X177172857Y-107420628D01*
X177172857Y-107420628D02*
X177125238Y-107468247D01*
X177125238Y-107468247D02*
X177077619Y-107563485D01*
X177077619Y-107563485D02*
X177077619Y-107706342D01*
X177077619Y-107706342D02*
X177125238Y-107801580D01*
X177125238Y-107801580D02*
X177172857Y-107849200D01*
X177172857Y-107849200D02*
X177268095Y-107896819D01*
X177268095Y-107896819D02*
X177649047Y-107896819D01*
X177649047Y-107896819D02*
X177649047Y-106896819D01*
X177649047Y-106896819D02*
X177315714Y-106896819D01*
X177315714Y-106896819D02*
X177220476Y-106944438D01*
X177220476Y-106944438D02*
X177172857Y-106992057D01*
X177172857Y-106992057D02*
X177125238Y-107087295D01*
X177125238Y-107087295D02*
X177125238Y-107182533D01*
X177125238Y-107182533D02*
X177172857Y-107277771D01*
X177172857Y-107277771D02*
X177220476Y-107325390D01*
X177220476Y-107325390D02*
X177315714Y-107373009D01*
X177315714Y-107373009D02*
X177649047Y-107373009D01*
X176791904Y-106896819D02*
X176220476Y-106896819D01*
X176506190Y-107896819D02*
X176506190Y-106896819D01*
X175363333Y-107896819D02*
X175934761Y-107896819D01*
X175649047Y-107896819D02*
X175649047Y-106896819D01*
X175649047Y-106896819D02*
X175744285Y-107039676D01*
X175744285Y-107039676D02*
X175839523Y-107134914D01*
X175839523Y-107134914D02*
X175934761Y-107182533D01*
X147920813Y-110304325D02*
X146469385Y-110304325D01*
X147195099Y-109578610D02*
X147195099Y-111030039D01*
X206340813Y-110304325D02*
X204889385Y-110304325D01*
X60234057Y-94646761D02*
X60186438Y-94551523D01*
X60186438Y-94551523D02*
X60091200Y-94456285D01*
X60091200Y-94456285D02*
X59948342Y-94313428D01*
X59948342Y-94313428D02*
X59900723Y-94218190D01*
X59900723Y-94218190D02*
X59900723Y-94122952D01*
X60138819Y-94170571D02*
X60091200Y-94075333D01*
X60091200Y-94075333D02*
X59995961Y-93980095D01*
X59995961Y-93980095D02*
X59805485Y-93932476D01*
X59805485Y-93932476D02*
X59472152Y-93932476D01*
X59472152Y-93932476D02*
X59281676Y-93980095D01*
X59281676Y-93980095D02*
X59186438Y-94075333D01*
X59186438Y-94075333D02*
X59138819Y-94170571D01*
X59138819Y-94170571D02*
X59138819Y-94361047D01*
X59138819Y-94361047D02*
X59186438Y-94456285D01*
X59186438Y-94456285D02*
X59281676Y-94551523D01*
X59281676Y-94551523D02*
X59472152Y-94599142D01*
X59472152Y-94599142D02*
X59805485Y-94599142D01*
X59805485Y-94599142D02*
X59995961Y-94551523D01*
X59995961Y-94551523D02*
X60091200Y-94456285D01*
X60091200Y-94456285D02*
X60138819Y-94361047D01*
X60138819Y-94361047D02*
X60138819Y-94170571D01*
X60138819Y-95551523D02*
X60138819Y-94980095D01*
X60138819Y-95265809D02*
X59138819Y-95265809D01*
X59138819Y-95265809D02*
X59281676Y-95170571D01*
X59281676Y-95170571D02*
X59376914Y-95075333D01*
X59376914Y-95075333D02*
X59424533Y-94980095D01*
X59565857Y-75554819D02*
X59899190Y-75078628D01*
X60137285Y-75554819D02*
X60137285Y-74554819D01*
X60137285Y-74554819D02*
X59756333Y-74554819D01*
X59756333Y-74554819D02*
X59661095Y-74602438D01*
X59661095Y-74602438D02*
X59613476Y-74650057D01*
X59613476Y-74650057D02*
X59565857Y-74745295D01*
X59565857Y-74745295D02*
X59565857Y-74888152D01*
X59565857Y-74888152D02*
X59613476Y-74983390D01*
X59613476Y-74983390D02*
X59661095Y-75031009D01*
X59661095Y-75031009D02*
X59756333Y-75078628D01*
X59756333Y-75078628D02*
X60137285Y-75078628D01*
X59232523Y-74554819D02*
X58613476Y-74554819D01*
X58613476Y-74554819D02*
X58946809Y-74935771D01*
X58946809Y-74935771D02*
X58803952Y-74935771D01*
X58803952Y-74935771D02*
X58708714Y-74983390D01*
X58708714Y-74983390D02*
X58661095Y-75031009D01*
X58661095Y-75031009D02*
X58613476Y-75126247D01*
X58613476Y-75126247D02*
X58613476Y-75364342D01*
X58613476Y-75364342D02*
X58661095Y-75459580D01*
X58661095Y-75459580D02*
X58708714Y-75507200D01*
X58708714Y-75507200D02*
X58803952Y-75554819D01*
X58803952Y-75554819D02*
X59089666Y-75554819D01*
X59089666Y-75554819D02*
X59184904Y-75507200D01*
X59184904Y-75507200D02*
X59232523Y-75459580D01*
X58280142Y-74554819D02*
X57661095Y-74554819D01*
X57661095Y-74554819D02*
X57994428Y-74935771D01*
X57994428Y-74935771D02*
X57851571Y-74935771D01*
X57851571Y-74935771D02*
X57756333Y-74983390D01*
X57756333Y-74983390D02*
X57708714Y-75031009D01*
X57708714Y-75031009D02*
X57661095Y-75126247D01*
X57661095Y-75126247D02*
X57661095Y-75364342D01*
X57661095Y-75364342D02*
X57708714Y-75459580D01*
X57708714Y-75459580D02*
X57756333Y-75507200D01*
X57756333Y-75507200D02*
X57851571Y-75554819D01*
X57851571Y-75554819D02*
X58137285Y-75554819D01*
X58137285Y-75554819D02*
X58232523Y-75507200D01*
X58232523Y-75507200D02*
X58280142Y-75459580D01*
X170817857Y-74368819D02*
X171151190Y-73892628D01*
X171389285Y-74368819D02*
X171389285Y-73368819D01*
X171389285Y-73368819D02*
X171008333Y-73368819D01*
X171008333Y-73368819D02*
X170913095Y-73416438D01*
X170913095Y-73416438D02*
X170865476Y-73464057D01*
X170865476Y-73464057D02*
X170817857Y-73559295D01*
X170817857Y-73559295D02*
X170817857Y-73702152D01*
X170817857Y-73702152D02*
X170865476Y-73797390D01*
X170865476Y-73797390D02*
X170913095Y-73845009D01*
X170913095Y-73845009D02*
X171008333Y-73892628D01*
X171008333Y-73892628D02*
X171389285Y-73892628D01*
X169865476Y-74368819D02*
X170436904Y-74368819D01*
X170151190Y-74368819D02*
X170151190Y-73368819D01*
X170151190Y-73368819D02*
X170246428Y-73511676D01*
X170246428Y-73511676D02*
X170341666Y-73606914D01*
X170341666Y-73606914D02*
X170436904Y-73654533D01*
X168913095Y-74368819D02*
X169484523Y-74368819D01*
X169198809Y-74368819D02*
X169198809Y-73368819D01*
X169198809Y-73368819D02*
X169294047Y-73511676D01*
X169294047Y-73511676D02*
X169389285Y-73606914D01*
X169389285Y-73606914D02*
X169484523Y-73654533D01*
X146433857Y-58282819D02*
X146767190Y-57806628D01*
X147005285Y-58282819D02*
X147005285Y-57282819D01*
X147005285Y-57282819D02*
X146624333Y-57282819D01*
X146624333Y-57282819D02*
X146529095Y-57330438D01*
X146529095Y-57330438D02*
X146481476Y-57378057D01*
X146481476Y-57378057D02*
X146433857Y-57473295D01*
X146433857Y-57473295D02*
X146433857Y-57616152D01*
X146433857Y-57616152D02*
X146481476Y-57711390D01*
X146481476Y-57711390D02*
X146529095Y-57759009D01*
X146529095Y-57759009D02*
X146624333Y-57806628D01*
X146624333Y-57806628D02*
X147005285Y-57806628D01*
X146052904Y-57378057D02*
X146005285Y-57330438D01*
X146005285Y-57330438D02*
X145910047Y-57282819D01*
X145910047Y-57282819D02*
X145671952Y-57282819D01*
X145671952Y-57282819D02*
X145576714Y-57330438D01*
X145576714Y-57330438D02*
X145529095Y-57378057D01*
X145529095Y-57378057D02*
X145481476Y-57473295D01*
X145481476Y-57473295D02*
X145481476Y-57568533D01*
X145481476Y-57568533D02*
X145529095Y-57711390D01*
X145529095Y-57711390D02*
X146100523Y-58282819D01*
X146100523Y-58282819D02*
X145481476Y-58282819D01*
X144529095Y-58282819D02*
X145100523Y-58282819D01*
X144814809Y-58282819D02*
X144814809Y-57282819D01*
X144814809Y-57282819D02*
X144910047Y-57425676D01*
X144910047Y-57425676D02*
X145005285Y-57520914D01*
X145005285Y-57520914D02*
X145100523Y-57568533D01*
X122049857Y-66410819D02*
X122383190Y-65934628D01*
X122621285Y-66410819D02*
X122621285Y-65410819D01*
X122621285Y-65410819D02*
X122240333Y-65410819D01*
X122240333Y-65410819D02*
X122145095Y-65458438D01*
X122145095Y-65458438D02*
X122097476Y-65506057D01*
X122097476Y-65506057D02*
X122049857Y-65601295D01*
X122049857Y-65601295D02*
X122049857Y-65744152D01*
X122049857Y-65744152D02*
X122097476Y-65839390D01*
X122097476Y-65839390D02*
X122145095Y-65887009D01*
X122145095Y-65887009D02*
X122240333Y-65934628D01*
X122240333Y-65934628D02*
X122621285Y-65934628D01*
X121097476Y-66410819D02*
X121668904Y-66410819D01*
X121383190Y-66410819D02*
X121383190Y-65410819D01*
X121383190Y-65410819D02*
X121478428Y-65553676D01*
X121478428Y-65553676D02*
X121573666Y-65648914D01*
X121573666Y-65648914D02*
X121668904Y-65696533D01*
X120526047Y-65839390D02*
X120621285Y-65791771D01*
X120621285Y-65791771D02*
X120668904Y-65744152D01*
X120668904Y-65744152D02*
X120716523Y-65648914D01*
X120716523Y-65648914D02*
X120716523Y-65601295D01*
X120716523Y-65601295D02*
X120668904Y-65506057D01*
X120668904Y-65506057D02*
X120621285Y-65458438D01*
X120621285Y-65458438D02*
X120526047Y-65410819D01*
X120526047Y-65410819D02*
X120335571Y-65410819D01*
X120335571Y-65410819D02*
X120240333Y-65458438D01*
X120240333Y-65458438D02*
X120192714Y-65506057D01*
X120192714Y-65506057D02*
X120145095Y-65601295D01*
X120145095Y-65601295D02*
X120145095Y-65648914D01*
X120145095Y-65648914D02*
X120192714Y-65744152D01*
X120192714Y-65744152D02*
X120240333Y-65791771D01*
X120240333Y-65791771D02*
X120335571Y-65839390D01*
X120335571Y-65839390D02*
X120526047Y-65839390D01*
X120526047Y-65839390D02*
X120621285Y-65887009D01*
X120621285Y-65887009D02*
X120668904Y-65934628D01*
X120668904Y-65934628D02*
X120716523Y-66029866D01*
X120716523Y-66029866D02*
X120716523Y-66220342D01*
X120716523Y-66220342D02*
X120668904Y-66315580D01*
X120668904Y-66315580D02*
X120621285Y-66363200D01*
X120621285Y-66363200D02*
X120526047Y-66410819D01*
X120526047Y-66410819D02*
X120335571Y-66410819D01*
X120335571Y-66410819D02*
X120240333Y-66363200D01*
X120240333Y-66363200D02*
X120192714Y-66315580D01*
X120192714Y-66315580D02*
X120145095Y-66220342D01*
X120145095Y-66220342D02*
X120145095Y-66029866D01*
X120145095Y-66029866D02*
X120192714Y-65934628D01*
X120192714Y-65934628D02*
X120240333Y-65887009D01*
X120240333Y-65887009D02*
X120335571Y-65839390D01*
X77690857Y-111198819D02*
X78024190Y-110722628D01*
X78262285Y-111198819D02*
X78262285Y-110198819D01*
X78262285Y-110198819D02*
X77881333Y-110198819D01*
X77881333Y-110198819D02*
X77786095Y-110246438D01*
X77786095Y-110246438D02*
X77738476Y-110294057D01*
X77738476Y-110294057D02*
X77690857Y-110389295D01*
X77690857Y-110389295D02*
X77690857Y-110532152D01*
X77690857Y-110532152D02*
X77738476Y-110627390D01*
X77738476Y-110627390D02*
X77786095Y-110675009D01*
X77786095Y-110675009D02*
X77881333Y-110722628D01*
X77881333Y-110722628D02*
X78262285Y-110722628D01*
X77309904Y-110294057D02*
X77262285Y-110246438D01*
X77262285Y-110246438D02*
X77167047Y-110198819D01*
X77167047Y-110198819D02*
X76928952Y-110198819D01*
X76928952Y-110198819D02*
X76833714Y-110246438D01*
X76833714Y-110246438D02*
X76786095Y-110294057D01*
X76786095Y-110294057D02*
X76738476Y-110389295D01*
X76738476Y-110389295D02*
X76738476Y-110484533D01*
X76738476Y-110484533D02*
X76786095Y-110627390D01*
X76786095Y-110627390D02*
X77357523Y-111198819D01*
X77357523Y-111198819D02*
X76738476Y-111198819D01*
X75833714Y-110198819D02*
X76309904Y-110198819D01*
X76309904Y-110198819D02*
X76357523Y-110675009D01*
X76357523Y-110675009D02*
X76309904Y-110627390D01*
X76309904Y-110627390D02*
X76214666Y-110579771D01*
X76214666Y-110579771D02*
X75976571Y-110579771D01*
X75976571Y-110579771D02*
X75881333Y-110627390D01*
X75881333Y-110627390D02*
X75833714Y-110675009D01*
X75833714Y-110675009D02*
X75786095Y-110770247D01*
X75786095Y-110770247D02*
X75786095Y-111008342D01*
X75786095Y-111008342D02*
X75833714Y-111103580D01*
X75833714Y-111103580D02*
X75881333Y-111151200D01*
X75881333Y-111151200D02*
X75976571Y-111198819D01*
X75976571Y-111198819D02*
X76214666Y-111198819D01*
X76214666Y-111198819D02*
X76309904Y-111151200D01*
X76309904Y-111151200D02*
X76357523Y-111103580D01*
X146433857Y-66410819D02*
X146767190Y-65934628D01*
X147005285Y-66410819D02*
X147005285Y-65410819D01*
X147005285Y-65410819D02*
X146624333Y-65410819D01*
X146624333Y-65410819D02*
X146529095Y-65458438D01*
X146529095Y-65458438D02*
X146481476Y-65506057D01*
X146481476Y-65506057D02*
X146433857Y-65601295D01*
X146433857Y-65601295D02*
X146433857Y-65744152D01*
X146433857Y-65744152D02*
X146481476Y-65839390D01*
X146481476Y-65839390D02*
X146529095Y-65887009D01*
X146529095Y-65887009D02*
X146624333Y-65934628D01*
X146624333Y-65934628D02*
X147005285Y-65934628D01*
X146052904Y-65506057D02*
X146005285Y-65458438D01*
X146005285Y-65458438D02*
X145910047Y-65410819D01*
X145910047Y-65410819D02*
X145671952Y-65410819D01*
X145671952Y-65410819D02*
X145576714Y-65458438D01*
X145576714Y-65458438D02*
X145529095Y-65506057D01*
X145529095Y-65506057D02*
X145481476Y-65601295D01*
X145481476Y-65601295D02*
X145481476Y-65696533D01*
X145481476Y-65696533D02*
X145529095Y-65839390D01*
X145529095Y-65839390D02*
X146100523Y-66410819D01*
X146100523Y-66410819D02*
X145481476Y-66410819D01*
X145100523Y-65506057D02*
X145052904Y-65458438D01*
X145052904Y-65458438D02*
X144957666Y-65410819D01*
X144957666Y-65410819D02*
X144719571Y-65410819D01*
X144719571Y-65410819D02*
X144624333Y-65458438D01*
X144624333Y-65458438D02*
X144576714Y-65506057D01*
X144576714Y-65506057D02*
X144529095Y-65601295D01*
X144529095Y-65601295D02*
X144529095Y-65696533D01*
X144529095Y-65696533D02*
X144576714Y-65839390D01*
X144576714Y-65839390D02*
X145148142Y-66410819D01*
X145148142Y-66410819D02*
X144529095Y-66410819D01*
X77690857Y-116024819D02*
X78024190Y-115548628D01*
X78262285Y-116024819D02*
X78262285Y-115024819D01*
X78262285Y-115024819D02*
X77881333Y-115024819D01*
X77881333Y-115024819D02*
X77786095Y-115072438D01*
X77786095Y-115072438D02*
X77738476Y-115120057D01*
X77738476Y-115120057D02*
X77690857Y-115215295D01*
X77690857Y-115215295D02*
X77690857Y-115358152D01*
X77690857Y-115358152D02*
X77738476Y-115453390D01*
X77738476Y-115453390D02*
X77786095Y-115501009D01*
X77786095Y-115501009D02*
X77881333Y-115548628D01*
X77881333Y-115548628D02*
X78262285Y-115548628D01*
X77309904Y-115120057D02*
X77262285Y-115072438D01*
X77262285Y-115072438D02*
X77167047Y-115024819D01*
X77167047Y-115024819D02*
X76928952Y-115024819D01*
X76928952Y-115024819D02*
X76833714Y-115072438D01*
X76833714Y-115072438D02*
X76786095Y-115120057D01*
X76786095Y-115120057D02*
X76738476Y-115215295D01*
X76738476Y-115215295D02*
X76738476Y-115310533D01*
X76738476Y-115310533D02*
X76786095Y-115453390D01*
X76786095Y-115453390D02*
X77357523Y-116024819D01*
X77357523Y-116024819D02*
X76738476Y-116024819D01*
X76167047Y-115453390D02*
X76262285Y-115405771D01*
X76262285Y-115405771D02*
X76309904Y-115358152D01*
X76309904Y-115358152D02*
X76357523Y-115262914D01*
X76357523Y-115262914D02*
X76357523Y-115215295D01*
X76357523Y-115215295D02*
X76309904Y-115120057D01*
X76309904Y-115120057D02*
X76262285Y-115072438D01*
X76262285Y-115072438D02*
X76167047Y-115024819D01*
X76167047Y-115024819D02*
X75976571Y-115024819D01*
X75976571Y-115024819D02*
X75881333Y-115072438D01*
X75881333Y-115072438D02*
X75833714Y-115120057D01*
X75833714Y-115120057D02*
X75786095Y-115215295D01*
X75786095Y-115215295D02*
X75786095Y-115262914D01*
X75786095Y-115262914D02*
X75833714Y-115358152D01*
X75833714Y-115358152D02*
X75881333Y-115405771D01*
X75881333Y-115405771D02*
X75976571Y-115453390D01*
X75976571Y-115453390D02*
X76167047Y-115453390D01*
X76167047Y-115453390D02*
X76262285Y-115501009D01*
X76262285Y-115501009D02*
X76309904Y-115548628D01*
X76309904Y-115548628D02*
X76357523Y-115643866D01*
X76357523Y-115643866D02*
X76357523Y-115834342D01*
X76357523Y-115834342D02*
X76309904Y-115929580D01*
X76309904Y-115929580D02*
X76262285Y-115977200D01*
X76262285Y-115977200D02*
X76167047Y-116024819D01*
X76167047Y-116024819D02*
X75976571Y-116024819D01*
X75976571Y-116024819D02*
X75881333Y-115977200D01*
X75881333Y-115977200D02*
X75833714Y-115929580D01*
X75833714Y-115929580D02*
X75786095Y-115834342D01*
X75786095Y-115834342D02*
X75786095Y-115643866D01*
X75786095Y-115643866D02*
X75833714Y-115548628D01*
X75833714Y-115548628D02*
X75881333Y-115501009D01*
X75881333Y-115501009D02*
X75976571Y-115453390D01*
X96681666Y-74284819D02*
X97014999Y-73808628D01*
X97253094Y-74284819D02*
X97253094Y-73284819D01*
X97253094Y-73284819D02*
X96872142Y-73284819D01*
X96872142Y-73284819D02*
X96776904Y-73332438D01*
X96776904Y-73332438D02*
X96729285Y-73380057D01*
X96729285Y-73380057D02*
X96681666Y-73475295D01*
X96681666Y-73475295D02*
X96681666Y-73618152D01*
X96681666Y-73618152D02*
X96729285Y-73713390D01*
X96729285Y-73713390D02*
X96776904Y-73761009D01*
X96776904Y-73761009D02*
X96872142Y-73808628D01*
X96872142Y-73808628D02*
X97253094Y-73808628D01*
X96348332Y-73284819D02*
X95729285Y-73284819D01*
X95729285Y-73284819D02*
X96062618Y-73665771D01*
X96062618Y-73665771D02*
X95919761Y-73665771D01*
X95919761Y-73665771D02*
X95824523Y-73713390D01*
X95824523Y-73713390D02*
X95776904Y-73761009D01*
X95776904Y-73761009D02*
X95729285Y-73856247D01*
X95729285Y-73856247D02*
X95729285Y-74094342D01*
X95729285Y-74094342D02*
X95776904Y-74189580D01*
X95776904Y-74189580D02*
X95824523Y-74237200D01*
X95824523Y-74237200D02*
X95919761Y-74284819D01*
X95919761Y-74284819D02*
X96205475Y-74284819D01*
X96205475Y-74284819D02*
X96300713Y-74237200D01*
X96300713Y-74237200D02*
X96348332Y-74189580D01*
X146433857Y-74538819D02*
X146767190Y-74062628D01*
X147005285Y-74538819D02*
X147005285Y-73538819D01*
X147005285Y-73538819D02*
X146624333Y-73538819D01*
X146624333Y-73538819D02*
X146529095Y-73586438D01*
X146529095Y-73586438D02*
X146481476Y-73634057D01*
X146481476Y-73634057D02*
X146433857Y-73729295D01*
X146433857Y-73729295D02*
X146433857Y-73872152D01*
X146433857Y-73872152D02*
X146481476Y-73967390D01*
X146481476Y-73967390D02*
X146529095Y-74015009D01*
X146529095Y-74015009D02*
X146624333Y-74062628D01*
X146624333Y-74062628D02*
X147005285Y-74062628D01*
X146052904Y-73634057D02*
X146005285Y-73586438D01*
X146005285Y-73586438D02*
X145910047Y-73538819D01*
X145910047Y-73538819D02*
X145671952Y-73538819D01*
X145671952Y-73538819D02*
X145576714Y-73586438D01*
X145576714Y-73586438D02*
X145529095Y-73634057D01*
X145529095Y-73634057D02*
X145481476Y-73729295D01*
X145481476Y-73729295D02*
X145481476Y-73824533D01*
X145481476Y-73824533D02*
X145529095Y-73967390D01*
X145529095Y-73967390D02*
X146100523Y-74538819D01*
X146100523Y-74538819D02*
X145481476Y-74538819D01*
X145148142Y-73538819D02*
X144529095Y-73538819D01*
X144529095Y-73538819D02*
X144862428Y-73919771D01*
X144862428Y-73919771D02*
X144719571Y-73919771D01*
X144719571Y-73919771D02*
X144624333Y-73967390D01*
X144624333Y-73967390D02*
X144576714Y-74015009D01*
X144576714Y-74015009D02*
X144529095Y-74110247D01*
X144529095Y-74110247D02*
X144529095Y-74348342D01*
X144529095Y-74348342D02*
X144576714Y-74443580D01*
X144576714Y-74443580D02*
X144624333Y-74491200D01*
X144624333Y-74491200D02*
X144719571Y-74538819D01*
X144719571Y-74538819D02*
X145005285Y-74538819D01*
X145005285Y-74538819D02*
X145100523Y-74491200D01*
X145100523Y-74491200D02*
X145148142Y-74443580D01*
X96681666Y-58028819D02*
X97014999Y-57552628D01*
X97253094Y-58028819D02*
X97253094Y-57028819D01*
X97253094Y-57028819D02*
X96872142Y-57028819D01*
X96872142Y-57028819D02*
X96776904Y-57076438D01*
X96776904Y-57076438D02*
X96729285Y-57124057D01*
X96729285Y-57124057D02*
X96681666Y-57219295D01*
X96681666Y-57219295D02*
X96681666Y-57362152D01*
X96681666Y-57362152D02*
X96729285Y-57457390D01*
X96729285Y-57457390D02*
X96776904Y-57505009D01*
X96776904Y-57505009D02*
X96872142Y-57552628D01*
X96872142Y-57552628D02*
X97253094Y-57552628D01*
X95729285Y-58028819D02*
X96300713Y-58028819D01*
X96014999Y-58028819D02*
X96014999Y-57028819D01*
X96014999Y-57028819D02*
X96110237Y-57171676D01*
X96110237Y-57171676D02*
X96205475Y-57266914D01*
X96205475Y-57266914D02*
X96300713Y-57314533D01*
X95967666Y-120465580D02*
X96015285Y-120513200D01*
X96015285Y-120513200D02*
X96158142Y-120560819D01*
X96158142Y-120560819D02*
X96253380Y-120560819D01*
X96253380Y-120560819D02*
X96396237Y-120513200D01*
X96396237Y-120513200D02*
X96491475Y-120417961D01*
X96491475Y-120417961D02*
X96539094Y-120322723D01*
X96539094Y-120322723D02*
X96586713Y-120132247D01*
X96586713Y-120132247D02*
X96586713Y-119989390D01*
X96586713Y-119989390D02*
X96539094Y-119798914D01*
X96539094Y-119798914D02*
X96491475Y-119703676D01*
X96491475Y-119703676D02*
X96396237Y-119608438D01*
X96396237Y-119608438D02*
X96253380Y-119560819D01*
X96253380Y-119560819D02*
X96158142Y-119560819D01*
X96158142Y-119560819D02*
X96015285Y-119608438D01*
X96015285Y-119608438D02*
X95967666Y-119656057D01*
X95634332Y-119560819D02*
X95015285Y-119560819D01*
X95015285Y-119560819D02*
X95348618Y-119941771D01*
X95348618Y-119941771D02*
X95205761Y-119941771D01*
X95205761Y-119941771D02*
X95110523Y-119989390D01*
X95110523Y-119989390D02*
X95062904Y-120037009D01*
X95062904Y-120037009D02*
X95015285Y-120132247D01*
X95015285Y-120132247D02*
X95015285Y-120370342D01*
X95015285Y-120370342D02*
X95062904Y-120465580D01*
X95062904Y-120465580D02*
X95110523Y-120513200D01*
X95110523Y-120513200D02*
X95205761Y-120560819D01*
X95205761Y-120560819D02*
X95491475Y-120560819D01*
X95491475Y-120560819D02*
X95586713Y-120513200D01*
X95586713Y-120513200D02*
X95634332Y-120465580D01*
X170341666Y-58112819D02*
X170674999Y-57636628D01*
X170913094Y-58112819D02*
X170913094Y-57112819D01*
X170913094Y-57112819D02*
X170532142Y-57112819D01*
X170532142Y-57112819D02*
X170436904Y-57160438D01*
X170436904Y-57160438D02*
X170389285Y-57208057D01*
X170389285Y-57208057D02*
X170341666Y-57303295D01*
X170341666Y-57303295D02*
X170341666Y-57446152D01*
X170341666Y-57446152D02*
X170389285Y-57541390D01*
X170389285Y-57541390D02*
X170436904Y-57589009D01*
X170436904Y-57589009D02*
X170532142Y-57636628D01*
X170532142Y-57636628D02*
X170913094Y-57636628D01*
X169865475Y-58112819D02*
X169674999Y-58112819D01*
X169674999Y-58112819D02*
X169579761Y-58065200D01*
X169579761Y-58065200D02*
X169532142Y-58017580D01*
X169532142Y-58017580D02*
X169436904Y-57874723D01*
X169436904Y-57874723D02*
X169389285Y-57684247D01*
X169389285Y-57684247D02*
X169389285Y-57303295D01*
X169389285Y-57303295D02*
X169436904Y-57208057D01*
X169436904Y-57208057D02*
X169484523Y-57160438D01*
X169484523Y-57160438D02*
X169579761Y-57112819D01*
X169579761Y-57112819D02*
X169770237Y-57112819D01*
X169770237Y-57112819D02*
X169865475Y-57160438D01*
X169865475Y-57160438D02*
X169913094Y-57208057D01*
X169913094Y-57208057D02*
X169960713Y-57303295D01*
X169960713Y-57303295D02*
X169960713Y-57541390D01*
X169960713Y-57541390D02*
X169913094Y-57636628D01*
X169913094Y-57636628D02*
X169865475Y-57684247D01*
X169865475Y-57684247D02*
X169770237Y-57731866D01*
X169770237Y-57731866D02*
X169579761Y-57731866D01*
X169579761Y-57731866D02*
X169484523Y-57684247D01*
X169484523Y-57684247D02*
X169436904Y-57636628D01*
X169436904Y-57636628D02*
X169389285Y-57541390D01*
X63489904Y-101020819D02*
X63489904Y-101830342D01*
X63489904Y-101830342D02*
X63442285Y-101925580D01*
X63442285Y-101925580D02*
X63394666Y-101973200D01*
X63394666Y-101973200D02*
X63299428Y-102020819D01*
X63299428Y-102020819D02*
X63108952Y-102020819D01*
X63108952Y-102020819D02*
X63013714Y-101973200D01*
X63013714Y-101973200D02*
X62966095Y-101925580D01*
X62966095Y-101925580D02*
X62918476Y-101830342D01*
X62918476Y-101830342D02*
X62918476Y-101020819D01*
X61918476Y-102020819D02*
X62489904Y-102020819D01*
X62204190Y-102020819D02*
X62204190Y-101020819D01*
X62204190Y-101020819D02*
X62299428Y-101163676D01*
X62299428Y-101163676D02*
X62394666Y-101258914D01*
X62394666Y-101258914D02*
X62489904Y-101306533D01*
X77885666Y-70982819D02*
X78218999Y-70506628D01*
X78457094Y-70982819D02*
X78457094Y-69982819D01*
X78457094Y-69982819D02*
X78076142Y-69982819D01*
X78076142Y-69982819D02*
X77980904Y-70030438D01*
X77980904Y-70030438D02*
X77933285Y-70078057D01*
X77933285Y-70078057D02*
X77885666Y-70173295D01*
X77885666Y-70173295D02*
X77885666Y-70316152D01*
X77885666Y-70316152D02*
X77933285Y-70411390D01*
X77933285Y-70411390D02*
X77980904Y-70459009D01*
X77980904Y-70459009D02*
X78076142Y-70506628D01*
X78076142Y-70506628D02*
X78457094Y-70506628D01*
X77028523Y-69982819D02*
X77218999Y-69982819D01*
X77218999Y-69982819D02*
X77314237Y-70030438D01*
X77314237Y-70030438D02*
X77361856Y-70078057D01*
X77361856Y-70078057D02*
X77457094Y-70220914D01*
X77457094Y-70220914D02*
X77504713Y-70411390D01*
X77504713Y-70411390D02*
X77504713Y-70792342D01*
X77504713Y-70792342D02*
X77457094Y-70887580D01*
X77457094Y-70887580D02*
X77409475Y-70935200D01*
X77409475Y-70935200D02*
X77314237Y-70982819D01*
X77314237Y-70982819D02*
X77123761Y-70982819D01*
X77123761Y-70982819D02*
X77028523Y-70935200D01*
X77028523Y-70935200D02*
X76980904Y-70887580D01*
X76980904Y-70887580D02*
X76933285Y-70792342D01*
X76933285Y-70792342D02*
X76933285Y-70554247D01*
X76933285Y-70554247D02*
X76980904Y-70459009D01*
X76980904Y-70459009D02*
X77028523Y-70411390D01*
X77028523Y-70411390D02*
X77123761Y-70363771D01*
X77123761Y-70363771D02*
X77314237Y-70363771D01*
X77314237Y-70363771D02*
X77409475Y-70411390D01*
X77409475Y-70411390D02*
X77457094Y-70459009D01*
X77457094Y-70459009D02*
X77504713Y-70554247D01*
X180585904Y-92712819D02*
X180014476Y-92712819D01*
X180300190Y-93712819D02*
X180300190Y-92712819D01*
X179681142Y-93712819D02*
X179681142Y-92712819D01*
X179681142Y-92712819D02*
X179300190Y-92712819D01*
X179300190Y-92712819D02*
X179204952Y-92760438D01*
X179204952Y-92760438D02*
X179157333Y-92808057D01*
X179157333Y-92808057D02*
X179109714Y-92903295D01*
X179109714Y-92903295D02*
X179109714Y-93046152D01*
X179109714Y-93046152D02*
X179157333Y-93141390D01*
X179157333Y-93141390D02*
X179204952Y-93189009D01*
X179204952Y-93189009D02*
X179300190Y-93236628D01*
X179300190Y-93236628D02*
X179681142Y-93236628D01*
X178776380Y-92712819D02*
X178157333Y-92712819D01*
X178157333Y-92712819D02*
X178490666Y-93093771D01*
X178490666Y-93093771D02*
X178347809Y-93093771D01*
X178347809Y-93093771D02*
X178252571Y-93141390D01*
X178252571Y-93141390D02*
X178204952Y-93189009D01*
X178204952Y-93189009D02*
X178157333Y-93284247D01*
X178157333Y-93284247D02*
X178157333Y-93522342D01*
X178157333Y-93522342D02*
X178204952Y-93617580D01*
X178204952Y-93617580D02*
X178252571Y-93665200D01*
X178252571Y-93665200D02*
X178347809Y-93712819D01*
X178347809Y-93712819D02*
X178633523Y-93712819D01*
X178633523Y-93712819D02*
X178728761Y-93665200D01*
X178728761Y-93665200D02*
X178776380Y-93617580D01*
X180276381Y-98712819D02*
X180752571Y-98712819D01*
X180752571Y-98712819D02*
X180752571Y-97712819D01*
X179943047Y-98189009D02*
X179609714Y-98189009D01*
X179466857Y-98712819D02*
X179943047Y-98712819D01*
X179943047Y-98712819D02*
X179943047Y-97712819D01*
X179943047Y-97712819D02*
X179466857Y-97712819D01*
X178704952Y-98189009D02*
X179038285Y-98189009D01*
X179038285Y-98712819D02*
X179038285Y-97712819D01*
X179038285Y-97712819D02*
X178562095Y-97712819D01*
X178323999Y-97712819D02*
X177752571Y-97712819D01*
X178038285Y-98712819D02*
X178038285Y-97712819D01*
X146433857Y-82666819D02*
X146767190Y-82190628D01*
X147005285Y-82666819D02*
X147005285Y-81666819D01*
X147005285Y-81666819D02*
X146624333Y-81666819D01*
X146624333Y-81666819D02*
X146529095Y-81714438D01*
X146529095Y-81714438D02*
X146481476Y-81762057D01*
X146481476Y-81762057D02*
X146433857Y-81857295D01*
X146433857Y-81857295D02*
X146433857Y-82000152D01*
X146433857Y-82000152D02*
X146481476Y-82095390D01*
X146481476Y-82095390D02*
X146529095Y-82143009D01*
X146529095Y-82143009D02*
X146624333Y-82190628D01*
X146624333Y-82190628D02*
X147005285Y-82190628D01*
X146052904Y-81762057D02*
X146005285Y-81714438D01*
X146005285Y-81714438D02*
X145910047Y-81666819D01*
X145910047Y-81666819D02*
X145671952Y-81666819D01*
X145671952Y-81666819D02*
X145576714Y-81714438D01*
X145576714Y-81714438D02*
X145529095Y-81762057D01*
X145529095Y-81762057D02*
X145481476Y-81857295D01*
X145481476Y-81857295D02*
X145481476Y-81952533D01*
X145481476Y-81952533D02*
X145529095Y-82095390D01*
X145529095Y-82095390D02*
X146100523Y-82666819D01*
X146100523Y-82666819D02*
X145481476Y-82666819D01*
X144624333Y-82000152D02*
X144624333Y-82666819D01*
X144862428Y-81619200D02*
X145100523Y-82333485D01*
X145100523Y-82333485D02*
X144481476Y-82333485D01*
X59089666Y-66410819D02*
X59422999Y-65934628D01*
X59661094Y-66410819D02*
X59661094Y-65410819D01*
X59661094Y-65410819D02*
X59280142Y-65410819D01*
X59280142Y-65410819D02*
X59184904Y-65458438D01*
X59184904Y-65458438D02*
X59137285Y-65506057D01*
X59137285Y-65506057D02*
X59089666Y-65601295D01*
X59089666Y-65601295D02*
X59089666Y-65744152D01*
X59089666Y-65744152D02*
X59137285Y-65839390D01*
X59137285Y-65839390D02*
X59184904Y-65887009D01*
X59184904Y-65887009D02*
X59280142Y-65934628D01*
X59280142Y-65934628D02*
X59661094Y-65934628D01*
X58518237Y-65839390D02*
X58613475Y-65791771D01*
X58613475Y-65791771D02*
X58661094Y-65744152D01*
X58661094Y-65744152D02*
X58708713Y-65648914D01*
X58708713Y-65648914D02*
X58708713Y-65601295D01*
X58708713Y-65601295D02*
X58661094Y-65506057D01*
X58661094Y-65506057D02*
X58613475Y-65458438D01*
X58613475Y-65458438D02*
X58518237Y-65410819D01*
X58518237Y-65410819D02*
X58327761Y-65410819D01*
X58327761Y-65410819D02*
X58232523Y-65458438D01*
X58232523Y-65458438D02*
X58184904Y-65506057D01*
X58184904Y-65506057D02*
X58137285Y-65601295D01*
X58137285Y-65601295D02*
X58137285Y-65648914D01*
X58137285Y-65648914D02*
X58184904Y-65744152D01*
X58184904Y-65744152D02*
X58232523Y-65791771D01*
X58232523Y-65791771D02*
X58327761Y-65839390D01*
X58327761Y-65839390D02*
X58518237Y-65839390D01*
X58518237Y-65839390D02*
X58613475Y-65887009D01*
X58613475Y-65887009D02*
X58661094Y-65934628D01*
X58661094Y-65934628D02*
X58708713Y-66029866D01*
X58708713Y-66029866D02*
X58708713Y-66220342D01*
X58708713Y-66220342D02*
X58661094Y-66315580D01*
X58661094Y-66315580D02*
X58613475Y-66363200D01*
X58613475Y-66363200D02*
X58518237Y-66410819D01*
X58518237Y-66410819D02*
X58327761Y-66410819D01*
X58327761Y-66410819D02*
X58232523Y-66363200D01*
X58232523Y-66363200D02*
X58184904Y-66315580D01*
X58184904Y-66315580D02*
X58137285Y-66220342D01*
X58137285Y-66220342D02*
X58137285Y-66029866D01*
X58137285Y-66029866D02*
X58184904Y-65934628D01*
X58184904Y-65934628D02*
X58232523Y-65887009D01*
X58232523Y-65887009D02*
X58327761Y-65839390D01*
X189613857Y-60398819D02*
X189947190Y-59922628D01*
X190185285Y-60398819D02*
X190185285Y-59398819D01*
X190185285Y-59398819D02*
X189804333Y-59398819D01*
X189804333Y-59398819D02*
X189709095Y-59446438D01*
X189709095Y-59446438D02*
X189661476Y-59494057D01*
X189661476Y-59494057D02*
X189613857Y-59589295D01*
X189613857Y-59589295D02*
X189613857Y-59732152D01*
X189613857Y-59732152D02*
X189661476Y-59827390D01*
X189661476Y-59827390D02*
X189709095Y-59875009D01*
X189709095Y-59875009D02*
X189804333Y-59922628D01*
X189804333Y-59922628D02*
X190185285Y-59922628D01*
X188661476Y-60398819D02*
X189232904Y-60398819D01*
X188947190Y-60398819D02*
X188947190Y-59398819D01*
X188947190Y-59398819D02*
X189042428Y-59541676D01*
X189042428Y-59541676D02*
X189137666Y-59636914D01*
X189137666Y-59636914D02*
X189232904Y-59684533D01*
X188328142Y-59398819D02*
X187709095Y-59398819D01*
X187709095Y-59398819D02*
X188042428Y-59779771D01*
X188042428Y-59779771D02*
X187899571Y-59779771D01*
X187899571Y-59779771D02*
X187804333Y-59827390D01*
X187804333Y-59827390D02*
X187756714Y-59875009D01*
X187756714Y-59875009D02*
X187709095Y-59970247D01*
X187709095Y-59970247D02*
X187709095Y-60208342D01*
X187709095Y-60208342D02*
X187756714Y-60303580D01*
X187756714Y-60303580D02*
X187804333Y-60351200D01*
X187804333Y-60351200D02*
X187899571Y-60398819D01*
X187899571Y-60398819D02*
X188185285Y-60398819D01*
X188185285Y-60398819D02*
X188280523Y-60351200D01*
X188280523Y-60351200D02*
X188328142Y-60303580D01*
%TO.C,SW1*%
D10*
X200245000Y-86205000D02*
X195495000Y-86205000D01*
X195495000Y-93455000D01*
X200245000Y-93455000D01*
X200245000Y-86205000D01*
%TO.C,U3*%
X135190000Y-120610000D02*
X117990000Y-120610000D01*
X117990000Y-92610000D01*
X135190000Y-92610000D01*
X135190000Y-120610000D01*
D12*
%TO.C,C5*%
X53055225Y-97999000D02*
X53055225Y-98499000D01*
X53305225Y-98249000D02*
X52805225Y-98249000D01*
X55610000Y-94194000D02*
X55610000Y-95734000D01*
X55610000Y-97814000D02*
X55610000Y-99354000D01*
X55650000Y-94194000D02*
X55650000Y-95734000D01*
X55650000Y-97814000D02*
X55650000Y-99354000D01*
X55690000Y-94195000D02*
X55690000Y-95734000D01*
X55690000Y-97814000D02*
X55690000Y-99353000D01*
X55730000Y-94196000D02*
X55730000Y-95734000D01*
X55730000Y-97814000D02*
X55730000Y-99352000D01*
X55770000Y-94198000D02*
X55770000Y-95734000D01*
X55770000Y-97814000D02*
X55770000Y-99350000D01*
X55810000Y-94201000D02*
X55810000Y-95734000D01*
X55810000Y-97814000D02*
X55810000Y-99347000D01*
X55850000Y-94205000D02*
X55850000Y-95734000D01*
X55850000Y-97814000D02*
X55850000Y-99343000D01*
X55890000Y-94209000D02*
X55890000Y-95734000D01*
X55890000Y-97814000D02*
X55890000Y-99339000D01*
X55930000Y-94213000D02*
X55930000Y-95734000D01*
X55930000Y-97814000D02*
X55930000Y-99335000D01*
X55970000Y-94218000D02*
X55970000Y-95734000D01*
X55970000Y-97814000D02*
X55970000Y-99330000D01*
X56010000Y-94224000D02*
X56010000Y-95734000D01*
X56010000Y-97814000D02*
X56010000Y-99324000D01*
X56050000Y-94231000D02*
X56050000Y-95734000D01*
X56050000Y-97814000D02*
X56050000Y-99317000D01*
X56090000Y-94238000D02*
X56090000Y-95734000D01*
X56090000Y-97814000D02*
X56090000Y-99310000D01*
X56130000Y-94246000D02*
X56130000Y-95734000D01*
X56130000Y-97814000D02*
X56130000Y-99302000D01*
X56170000Y-94254000D02*
X56170000Y-95734000D01*
X56170000Y-97814000D02*
X56170000Y-99294000D01*
X56210000Y-94263000D02*
X56210000Y-95734000D01*
X56210000Y-97814000D02*
X56210000Y-99285000D01*
X56250000Y-94273000D02*
X56250000Y-95734000D01*
X56250000Y-97814000D02*
X56250000Y-99275000D01*
X56290000Y-94283000D02*
X56290000Y-95734000D01*
X56290000Y-97814000D02*
X56290000Y-99265000D01*
X56331000Y-94294000D02*
X56331000Y-95734000D01*
X56331000Y-97814000D02*
X56331000Y-99254000D01*
X56371000Y-94306000D02*
X56371000Y-95734000D01*
X56371000Y-97814000D02*
X56371000Y-99242000D01*
X56411000Y-94319000D02*
X56411000Y-95734000D01*
X56411000Y-97814000D02*
X56411000Y-99229000D01*
X56451000Y-94332000D02*
X56451000Y-95734000D01*
X56451000Y-97814000D02*
X56451000Y-99216000D01*
X56491000Y-94346000D02*
X56491000Y-95734000D01*
X56491000Y-97814000D02*
X56491000Y-99202000D01*
X56531000Y-94360000D02*
X56531000Y-95734000D01*
X56531000Y-97814000D02*
X56531000Y-99188000D01*
X56571000Y-94376000D02*
X56571000Y-95734000D01*
X56571000Y-97814000D02*
X56571000Y-99172000D01*
X56611000Y-94392000D02*
X56611000Y-95734000D01*
X56611000Y-97814000D02*
X56611000Y-99156000D01*
X56651000Y-94409000D02*
X56651000Y-95734000D01*
X56651000Y-97814000D02*
X56651000Y-99139000D01*
X56691000Y-94426000D02*
X56691000Y-95734000D01*
X56691000Y-97814000D02*
X56691000Y-99122000D01*
X56731000Y-94445000D02*
X56731000Y-95734000D01*
X56731000Y-97814000D02*
X56731000Y-99103000D01*
X56771000Y-94464000D02*
X56771000Y-95734000D01*
X56771000Y-97814000D02*
X56771000Y-99084000D01*
X56811000Y-94484000D02*
X56811000Y-95734000D01*
X56811000Y-97814000D02*
X56811000Y-99064000D01*
X56851000Y-94506000D02*
X56851000Y-95734000D01*
X56851000Y-97814000D02*
X56851000Y-99042000D01*
X56891000Y-94527000D02*
X56891000Y-95734000D01*
X56891000Y-97814000D02*
X56891000Y-99021000D01*
X56931000Y-94550000D02*
X56931000Y-95734000D01*
X56931000Y-97814000D02*
X56931000Y-98998000D01*
X56971000Y-94574000D02*
X56971000Y-95734000D01*
X56971000Y-97814000D02*
X56971000Y-98974000D01*
X57011000Y-94599000D02*
X57011000Y-95734000D01*
X57011000Y-97814000D02*
X57011000Y-98949000D01*
X57051000Y-94625000D02*
X57051000Y-95734000D01*
X57051000Y-97814000D02*
X57051000Y-98923000D01*
X57091000Y-94652000D02*
X57091000Y-95734000D01*
X57091000Y-97814000D02*
X57091000Y-98896000D01*
X57131000Y-94679000D02*
X57131000Y-95734000D01*
X57131000Y-97814000D02*
X57131000Y-98869000D01*
X57171000Y-94709000D02*
X57171000Y-95734000D01*
X57171000Y-97814000D02*
X57171000Y-98839000D01*
X57211000Y-94739000D02*
X57211000Y-95734000D01*
X57211000Y-97814000D02*
X57211000Y-98809000D01*
X57251000Y-94770000D02*
X57251000Y-95734000D01*
X57251000Y-97814000D02*
X57251000Y-98778000D01*
X57291000Y-94803000D02*
X57291000Y-95734000D01*
X57291000Y-97814000D02*
X57291000Y-98745000D01*
X57331000Y-94837000D02*
X57331000Y-95734000D01*
X57331000Y-97814000D02*
X57331000Y-98711000D01*
X57371000Y-94873000D02*
X57371000Y-95734000D01*
X57371000Y-97814000D02*
X57371000Y-98675000D01*
X57411000Y-94910000D02*
X57411000Y-95734000D01*
X57411000Y-97814000D02*
X57411000Y-98638000D01*
X57451000Y-94948000D02*
X57451000Y-95734000D01*
X57451000Y-97814000D02*
X57451000Y-98600000D01*
X57491000Y-94989000D02*
X57491000Y-95734000D01*
X57491000Y-97814000D02*
X57491000Y-98559000D01*
X57531000Y-95031000D02*
X57531000Y-95734000D01*
X57531000Y-97814000D02*
X57531000Y-98517000D01*
X57571000Y-95075000D02*
X57571000Y-95734000D01*
X57571000Y-97814000D02*
X57571000Y-98473000D01*
X57611000Y-95121000D02*
X57611000Y-95734000D01*
X57611000Y-97814000D02*
X57611000Y-98427000D01*
X57651000Y-95169000D02*
X57651000Y-98379000D01*
X57691000Y-95220000D02*
X57691000Y-98328000D01*
X57731000Y-95274000D02*
X57731000Y-98274000D01*
X57771000Y-95331000D02*
X57771000Y-98217000D01*
X57811000Y-95391000D02*
X57811000Y-98157000D01*
X57851000Y-95455000D02*
X57851000Y-98093000D01*
X57891000Y-95523000D02*
X57891000Y-98025000D01*
X57931000Y-95596000D02*
X57931000Y-97952000D01*
X57971000Y-95676000D02*
X57971000Y-97872000D01*
X58011000Y-95763000D02*
X58011000Y-97785000D01*
X58051000Y-95859000D02*
X58051000Y-97689000D01*
X58091000Y-95969000D02*
X58091000Y-97579000D01*
X58131000Y-96097000D02*
X58131000Y-97451000D01*
X58171000Y-96256000D02*
X58171000Y-97292000D01*
X58211000Y-96490000D02*
X58211000Y-97058000D01*
X58230000Y-96774000D02*
G75*
G02*
X52990000Y-96774000I-2620000J0D01*
G01*
X52990000Y-96774000D02*
G75*
G02*
X58230000Y-96774000I2620000J0D01*
G01*
%TO.C,R4*%
X93245000Y-82958000D02*
X93245000Y-85698000D01*
X93245000Y-84328000D02*
X92475000Y-84328000D01*
X93245000Y-85698000D02*
X99785000Y-85698000D01*
X99785000Y-82958000D02*
X93245000Y-82958000D01*
X99785000Y-84328000D02*
X100555000Y-84328000D01*
X99785000Y-85698000D02*
X99785000Y-82958000D01*
%TO.C,C4*%
X104755000Y-105808000D02*
X104755000Y-100968000D01*
X106995000Y-100968000D02*
X104755000Y-100968000D01*
X106995000Y-105808000D02*
X104755000Y-105808000D01*
X106995000Y-105808000D02*
X106995000Y-100968000D01*
%TO.C,R12*%
X166905000Y-82958000D02*
X166905000Y-85698000D01*
X166905000Y-84328000D02*
X166135000Y-84328000D01*
X166905000Y-85698000D02*
X173445000Y-85698000D01*
X173445000Y-82958000D02*
X166905000Y-82958000D01*
X173445000Y-84328000D02*
X174215000Y-84328000D01*
X173445000Y-85698000D02*
X173445000Y-82958000D01*
%TO.C,R27*%
X74454000Y-106834000D02*
X74454000Y-109574000D01*
X74454000Y-108204000D02*
X73684000Y-108204000D01*
X74454000Y-109574000D02*
X80994000Y-109574000D01*
X80994000Y-106834000D02*
X74454000Y-106834000D01*
X80994000Y-108204000D02*
X81764000Y-108204000D01*
X80994000Y-109574000D02*
X80994000Y-106834000D01*
%TO.C,R7*%
X74449000Y-80672000D02*
X74449000Y-83412000D01*
X74449000Y-82042000D02*
X73679000Y-82042000D01*
X74449000Y-83412000D02*
X80989000Y-83412000D01*
X80989000Y-80672000D02*
X74449000Y-80672000D01*
X80989000Y-82042000D02*
X81759000Y-82042000D01*
X80989000Y-83412000D02*
X80989000Y-80672000D01*
%TO.C,R16*%
X204497000Y-65432000D02*
X204497000Y-68172000D01*
X204497000Y-66802000D02*
X203727000Y-66802000D01*
X204497000Y-68172000D02*
X211037000Y-68172000D01*
X211037000Y-65432000D02*
X204497000Y-65432000D01*
X211037000Y-66802000D02*
X211807000Y-66802000D01*
X211037000Y-68172000D02*
X211037000Y-65432000D01*
%TO.C,R29*%
X106755000Y-111660000D02*
X106755000Y-114400000D01*
X106755000Y-113030000D02*
X105985000Y-113030000D01*
X106755000Y-114400000D02*
X113295000Y-114400000D01*
X113295000Y-111660000D02*
X106755000Y-111660000D01*
X113295000Y-113030000D02*
X114065000Y-113030000D01*
X113295000Y-114400000D02*
X113295000Y-111660000D01*
%TO.C,R32*%
X107517000Y-106834000D02*
X107517000Y-109574000D01*
X107517000Y-108204000D02*
X106747000Y-108204000D01*
X107517000Y-109574000D02*
X114057000Y-109574000D01*
X114057000Y-106834000D02*
X107517000Y-106834000D01*
X114057000Y-108204000D02*
X114827000Y-108204000D01*
X114057000Y-109574000D02*
X114057000Y-106834000D01*
%TO.C,R20*%
X118137000Y-83212000D02*
X118137000Y-85952000D01*
X118137000Y-84582000D02*
X117367000Y-84582000D01*
X118137000Y-85952000D02*
X124677000Y-85952000D01*
X124677000Y-83212000D02*
X118137000Y-83212000D01*
X124677000Y-84582000D02*
X125447000Y-84582000D01*
X124677000Y-85952000D02*
X124677000Y-83212000D01*
%TO.C,R5*%
X74449000Y-62384000D02*
X74449000Y-65124000D01*
X74449000Y-63754000D02*
X73679000Y-63754000D01*
X74449000Y-65124000D02*
X80989000Y-65124000D01*
X80989000Y-62384000D02*
X74449000Y-62384000D01*
X80989000Y-63754000D02*
X81759000Y-63754000D01*
X80989000Y-65124000D02*
X80989000Y-62384000D01*
%TO.C,R17*%
X118137000Y-58828000D02*
X118137000Y-61568000D01*
X118137000Y-60198000D02*
X117367000Y-60198000D01*
X118137000Y-61568000D02*
X124677000Y-61568000D01*
X124677000Y-58828000D02*
X118137000Y-58828000D01*
X124677000Y-60198000D02*
X125447000Y-60198000D01*
X124677000Y-61568000D02*
X124677000Y-58828000D01*
D11*
%TO.C,TP1*%
X186058000Y-95758000D02*
G75*
G02*
X183258000Y-95758000I-1400000J0D01*
G01*
X183258000Y-95758000D02*
G75*
G02*
X186058000Y-95758000I1400000J0D01*
G01*
D12*
%TO.C,R34*%
X204497000Y-74576000D02*
X204497000Y-77316000D01*
X204497000Y-75946000D02*
X203727000Y-75946000D01*
X204497000Y-77316000D02*
X211037000Y-77316000D01*
X211037000Y-74576000D02*
X204497000Y-74576000D01*
X211037000Y-75946000D02*
X211807000Y-75946000D01*
X211037000Y-77316000D02*
X211037000Y-74576000D01*
%TO.C,R10*%
X166905000Y-66702000D02*
X166905000Y-69442000D01*
X166905000Y-68072000D02*
X166135000Y-68072000D01*
X166905000Y-69442000D02*
X173445000Y-69442000D01*
X173445000Y-66702000D02*
X166905000Y-66702000D01*
X173445000Y-68072000D02*
X174215000Y-68072000D01*
X173445000Y-69442000D02*
X173445000Y-66702000D01*
%TO.C,R19*%
X118137000Y-75084000D02*
X118137000Y-77824000D01*
X118137000Y-76454000D02*
X117367000Y-76454000D01*
X118137000Y-77824000D02*
X124677000Y-77824000D01*
X124677000Y-75084000D02*
X118137000Y-75084000D01*
X124677000Y-76454000D02*
X125447000Y-76454000D01*
X124677000Y-77824000D02*
X124677000Y-75084000D01*
%TO.C,C1*%
X60404000Y-116736000D02*
X60404000Y-118976000D01*
X65244000Y-116736000D02*
X60404000Y-116736000D01*
X65244000Y-116736000D02*
X65244000Y-118976000D01*
X65244000Y-118976000D02*
X60404000Y-118976000D01*
%TO.C,U2*%
X93108000Y-102566000D02*
X93108000Y-112846000D01*
X93108000Y-112846000D02*
X98408000Y-112846000D01*
X94758000Y-102566000D02*
X93108000Y-102566000D01*
X98408000Y-102566000D02*
X96758000Y-102566000D01*
X98408000Y-112846000D02*
X98408000Y-102566000D01*
X96758000Y-102566000D02*
G75*
G02*
X94758000Y-102566000I-1000000J0D01*
G01*
D11*
%TO.C,TP4*%
X175644000Y-95758000D02*
G75*
G02*
X172844000Y-95758000I-1400000J0D01*
G01*
X172844000Y-95758000D02*
G75*
G02*
X175644000Y-95758000I1400000J0D01*
G01*
D12*
%TO.C,R15*%
X185701000Y-79148000D02*
X185701000Y-81888000D01*
X185701000Y-80518000D02*
X184931000Y-80518000D01*
X185701000Y-81888000D02*
X192241000Y-81888000D01*
X192241000Y-79148000D02*
X185701000Y-79148000D01*
X192241000Y-80518000D02*
X193011000Y-80518000D01*
X192241000Y-81888000D02*
X192241000Y-79148000D01*
%TO.C,Q2*%
X93450000Y-89622000D02*
X93450000Y-90262000D01*
X93450000Y-91462000D02*
X93450000Y-92662000D01*
X93450000Y-93862000D02*
X93450000Y-95062000D01*
X93450000Y-96262000D02*
X93450000Y-97463000D01*
X93450000Y-98662000D02*
X93450000Y-99862000D01*
X93610000Y-89622000D02*
X94810000Y-89622000D01*
X93610000Y-99862000D02*
X94810000Y-99862000D01*
X96010000Y-89622000D02*
X97210000Y-89622000D01*
X96010000Y-99862000D02*
X97210000Y-99862000D01*
X98410000Y-89622000D02*
X99610000Y-89622000D01*
X98410000Y-99862000D02*
X99610000Y-99862000D01*
X99850000Y-89622000D02*
X99850000Y-99862000D01*
X99850000Y-89622000D02*
X109340000Y-89622000D01*
X99850000Y-99862000D02*
X109340000Y-99862000D01*
X109340000Y-89622000D02*
X109340000Y-99862000D01*
X109340000Y-92202000D02*
X111880000Y-92202000D01*
X109340000Y-94742000D02*
X111880000Y-94742000D01*
X109340000Y-97282000D02*
X111880000Y-97282000D01*
%TO.C,R26*%
X54002000Y-105198000D02*
X54002000Y-111738000D01*
X54002000Y-111738000D02*
X56742000Y-111738000D01*
X55372000Y-105198000D02*
X55372000Y-104428000D01*
X55372000Y-111738000D02*
X55372000Y-112508000D01*
X56742000Y-105198000D02*
X54002000Y-105198000D01*
X56742000Y-111738000D02*
X56742000Y-105198000D01*
%TO.C,R2*%
X93245000Y-66702000D02*
X93245000Y-69442000D01*
X93245000Y-68072000D02*
X92475000Y-68072000D01*
X93245000Y-69442000D02*
X99785000Y-69442000D01*
X99785000Y-66702000D02*
X93245000Y-66702000D01*
X99785000Y-68072000D02*
X100555000Y-68072000D01*
X99785000Y-69442000D02*
X99785000Y-66702000D01*
%TO.C,C2*%
X71778000Y-105808000D02*
X71778000Y-100968000D01*
X74018000Y-100968000D02*
X71778000Y-100968000D01*
X74018000Y-105808000D02*
X71778000Y-105808000D01*
X74018000Y-105808000D02*
X74018000Y-100968000D01*
%TO.C,R30*%
X86979000Y-105198000D02*
X86979000Y-111738000D01*
X86979000Y-111738000D02*
X89719000Y-111738000D01*
X88349000Y-105198000D02*
X88349000Y-104428000D01*
X88349000Y-111738000D02*
X88349000Y-112508000D01*
X89719000Y-105198000D02*
X86979000Y-105198000D01*
X89719000Y-111738000D02*
X89719000Y-105198000D01*
%TO.C,J1*%
X203584000Y-82022000D02*
X215304000Y-82022000D01*
X203584000Y-83442000D02*
X203584000Y-82022000D01*
X203584000Y-93222000D02*
X203584000Y-94642000D01*
X203584000Y-94642000D02*
X215304000Y-94642000D01*
X203894000Y-84282000D02*
X204494000Y-84582000D01*
X203894000Y-84882000D02*
X203894000Y-84282000D01*
X204494000Y-84582000D02*
X203894000Y-84882000D01*
X208084000Y-83442000D02*
X203584000Y-83442000D01*
X208084000Y-88332000D02*
X208084000Y-83442000D01*
X208084000Y-88332000D02*
X208084000Y-93222000D01*
X208084000Y-93222000D02*
X203584000Y-93222000D01*
X209194000Y-84332000D02*
X209194000Y-84832000D01*
X209194000Y-84832000D02*
X214694000Y-84832000D01*
X209194000Y-86832000D02*
X209194000Y-87332000D01*
X209194000Y-87332000D02*
X214694000Y-87332000D01*
X209194000Y-89332000D02*
X209194000Y-89832000D01*
X209194000Y-89832000D02*
X214694000Y-89832000D01*
X209194000Y-91832000D02*
X209194000Y-92332000D01*
X209194000Y-92332000D02*
X214694000Y-92332000D01*
X214694000Y-84332000D02*
X209194000Y-84332000D01*
X214694000Y-84832000D02*
X214694000Y-84332000D01*
X214694000Y-86832000D02*
X209194000Y-86832000D01*
X214694000Y-87332000D02*
X214694000Y-86832000D01*
X214694000Y-89332000D02*
X209194000Y-89332000D01*
X214694000Y-89832000D02*
X214694000Y-89332000D01*
X214694000Y-91832000D02*
X209194000Y-91832000D01*
X214694000Y-92332000D02*
X214694000Y-91832000D01*
X215304000Y-82022000D02*
X215304000Y-88332000D01*
X215304000Y-94642000D02*
X215304000Y-88332000D01*
D11*
%TO.C,TP2*%
X170310000Y-95758000D02*
G75*
G02*
X167510000Y-95758000I-1400000J0D01*
G01*
X167510000Y-95758000D02*
G75*
G02*
X170310000Y-95758000I1400000J0D01*
G01*
D12*
%TO.C,R31*%
X106755000Y-116486000D02*
X106755000Y-119226000D01*
X106755000Y-117856000D02*
X105985000Y-117856000D01*
X106755000Y-119226000D02*
X113295000Y-119226000D01*
X113295000Y-116486000D02*
X106755000Y-116486000D01*
X113295000Y-117856000D02*
X114065000Y-117856000D01*
X113295000Y-119226000D02*
X113295000Y-116486000D01*
%TO.C,R14*%
X185701000Y-70004000D02*
X185701000Y-72744000D01*
X185701000Y-71374000D02*
X184931000Y-71374000D01*
X185701000Y-72744000D02*
X192241000Y-72744000D01*
X192241000Y-70004000D02*
X185701000Y-70004000D01*
X192241000Y-71374000D02*
X193011000Y-71374000D01*
X192241000Y-72744000D02*
X192241000Y-70004000D01*
%TO.C,BT1*%
D10*
X138305100Y-120612100D02*
X214505100Y-120612100D01*
X214505100Y-99022100D01*
X138305100Y-99022100D01*
X138305100Y-120612100D01*
D12*
%TO.C,Q1*%
X60684000Y-89622000D02*
X60684000Y-90262000D01*
X60684000Y-91462000D02*
X60684000Y-92662000D01*
X60684000Y-93862000D02*
X60684000Y-95062000D01*
X60684000Y-96262000D02*
X60684000Y-97463000D01*
X60684000Y-98662000D02*
X60684000Y-99862000D01*
X60844000Y-89622000D02*
X62044000Y-89622000D01*
X60844000Y-99862000D02*
X62044000Y-99862000D01*
X63244000Y-89622000D02*
X64444000Y-89622000D01*
X63244000Y-99862000D02*
X64444000Y-99862000D01*
X65644000Y-89622000D02*
X66844000Y-89622000D01*
X65644000Y-99862000D02*
X66844000Y-99862000D01*
X67084000Y-89622000D02*
X67084000Y-99862000D01*
X67084000Y-89622000D02*
X76574000Y-89622000D01*
X67084000Y-99862000D02*
X76574000Y-99862000D01*
X76574000Y-89622000D02*
X76574000Y-99862000D01*
X76574000Y-92202000D02*
X79114000Y-92202000D01*
X76574000Y-94742000D02*
X79114000Y-94742000D01*
X76574000Y-97282000D02*
X79114000Y-97282000D01*
%TO.C,R33*%
X55653000Y-76100000D02*
X55653000Y-78840000D01*
X55653000Y-77470000D02*
X54883000Y-77470000D01*
X55653000Y-78840000D02*
X62193000Y-78840000D01*
X62193000Y-76100000D02*
X55653000Y-76100000D01*
X62193000Y-77470000D02*
X62963000Y-77470000D01*
X62193000Y-78840000D02*
X62193000Y-76100000D01*
%TO.C,R11*%
X166905000Y-74830000D02*
X166905000Y-77570000D01*
X166905000Y-76200000D02*
X166135000Y-76200000D01*
X166905000Y-77570000D02*
X173445000Y-77570000D01*
X173445000Y-74830000D02*
X166905000Y-74830000D01*
X173445000Y-76200000D02*
X174215000Y-76200000D01*
X173445000Y-77570000D02*
X173445000Y-74830000D01*
%TO.C,R21*%
X142521000Y-58828000D02*
X142521000Y-61568000D01*
X142521000Y-60198000D02*
X141751000Y-60198000D01*
X142521000Y-61568000D02*
X149061000Y-61568000D01*
X149061000Y-58828000D02*
X142521000Y-58828000D01*
X149061000Y-60198000D02*
X149831000Y-60198000D01*
X149061000Y-61568000D02*
X149061000Y-58828000D01*
%TO.C,R18*%
X118137000Y-66956000D02*
X118137000Y-69696000D01*
X118137000Y-68326000D02*
X117367000Y-68326000D01*
X118137000Y-69696000D02*
X124677000Y-69696000D01*
X124677000Y-66956000D02*
X118137000Y-66956000D01*
X124677000Y-68326000D02*
X125447000Y-68326000D01*
X124677000Y-69696000D02*
X124677000Y-66956000D01*
%TO.C,R25*%
X73778000Y-111660000D02*
X73778000Y-114400000D01*
X73778000Y-113030000D02*
X73008000Y-113030000D01*
X73778000Y-114400000D02*
X80318000Y-114400000D01*
X80318000Y-111660000D02*
X73778000Y-111660000D01*
X80318000Y-113030000D02*
X81088000Y-113030000D01*
X80318000Y-114400000D02*
X80318000Y-111660000D01*
%TO.C,R22*%
X142521000Y-66956000D02*
X142521000Y-69696000D01*
X142521000Y-68326000D02*
X141751000Y-68326000D01*
X142521000Y-69696000D02*
X149061000Y-69696000D01*
X149061000Y-66956000D02*
X142521000Y-66956000D01*
X149061000Y-68326000D02*
X149831000Y-68326000D01*
X149061000Y-69696000D02*
X149061000Y-66956000D01*
%TO.C,R28*%
X73778000Y-116486000D02*
X73778000Y-119226000D01*
X73778000Y-117856000D02*
X73008000Y-117856000D01*
X73778000Y-119226000D02*
X80318000Y-119226000D01*
X80318000Y-116486000D02*
X73778000Y-116486000D01*
X80318000Y-117856000D02*
X81088000Y-117856000D01*
X80318000Y-119226000D02*
X80318000Y-116486000D01*
%TO.C,R3*%
X93245000Y-74830000D02*
X93245000Y-77570000D01*
X93245000Y-76200000D02*
X92475000Y-76200000D01*
X93245000Y-77570000D02*
X99785000Y-77570000D01*
X99785000Y-74830000D02*
X93245000Y-74830000D01*
X99785000Y-76200000D02*
X100555000Y-76200000D01*
X99785000Y-77570000D02*
X99785000Y-74830000D01*
%TO.C,R23*%
X142521000Y-75084000D02*
X142521000Y-77824000D01*
X142521000Y-76454000D02*
X141751000Y-76454000D01*
X142521000Y-77824000D02*
X149061000Y-77824000D01*
X149061000Y-75084000D02*
X142521000Y-75084000D01*
X149061000Y-76454000D02*
X149831000Y-76454000D01*
X149061000Y-77824000D02*
X149061000Y-75084000D01*
%TO.C,R1*%
X93245000Y-58574000D02*
X93245000Y-61314000D01*
X93245000Y-59944000D02*
X92475000Y-59944000D01*
X93245000Y-61314000D02*
X99785000Y-61314000D01*
X99785000Y-58574000D02*
X93245000Y-58574000D01*
X99785000Y-59944000D02*
X100555000Y-59944000D01*
X99785000Y-61314000D02*
X99785000Y-58574000D01*
%TO.C,C3*%
X93381000Y-116736000D02*
X93381000Y-118976000D01*
X98221000Y-116736000D02*
X93381000Y-116736000D01*
X98221000Y-116736000D02*
X98221000Y-118976000D01*
X98221000Y-118976000D02*
X93381000Y-118976000D01*
%TO.C,R9*%
X166905000Y-58574000D02*
X166905000Y-61314000D01*
X166905000Y-59944000D02*
X166135000Y-59944000D01*
X166905000Y-61314000D02*
X173445000Y-61314000D01*
X173445000Y-58574000D02*
X166905000Y-58574000D01*
X173445000Y-59944000D02*
X174215000Y-59944000D01*
X173445000Y-61314000D02*
X173445000Y-58574000D01*
%TO.C,U1*%
X60078000Y-102566000D02*
X60078000Y-112846000D01*
X60078000Y-112846000D02*
X65378000Y-112846000D01*
X61728000Y-102566000D02*
X60078000Y-102566000D01*
X65378000Y-102566000D02*
X63728000Y-102566000D01*
X65378000Y-112846000D02*
X65378000Y-102566000D01*
X63728000Y-102566000D02*
G75*
G02*
X61728000Y-102566000I-1000000J0D01*
G01*
%TO.C,R6*%
X74449000Y-71528000D02*
X74449000Y-74268000D01*
X74449000Y-72898000D02*
X73679000Y-72898000D01*
X74449000Y-74268000D02*
X80989000Y-74268000D01*
X80989000Y-71528000D02*
X74449000Y-71528000D01*
X80989000Y-72898000D02*
X81759000Y-72898000D01*
X80989000Y-74268000D02*
X80989000Y-71528000D01*
D11*
%TO.C,TP3*%
X180724000Y-95758000D02*
G75*
G02*
X177924000Y-95758000I-1400000J0D01*
G01*
X177924000Y-95758000D02*
G75*
G02*
X180724000Y-95758000I1400000J0D01*
G01*
D12*
%TO.C,R24*%
X142521000Y-83212000D02*
X142521000Y-85952000D01*
X142521000Y-84582000D02*
X141751000Y-84582000D01*
X142521000Y-85952000D02*
X149061000Y-85952000D01*
X149061000Y-83212000D02*
X142521000Y-83212000D01*
X149061000Y-84582000D02*
X149831000Y-84582000D01*
X149061000Y-85952000D02*
X149061000Y-83212000D01*
%TO.C,R8*%
X55653000Y-66956000D02*
X55653000Y-69696000D01*
X55653000Y-68326000D02*
X54883000Y-68326000D01*
X55653000Y-69696000D02*
X62193000Y-69696000D01*
X62193000Y-66956000D02*
X55653000Y-66956000D01*
X62193000Y-68326000D02*
X62963000Y-68326000D01*
X62193000Y-69696000D02*
X62193000Y-66956000D01*
%TO.C,R13*%
X185701000Y-60860000D02*
X185701000Y-63600000D01*
X185701000Y-62230000D02*
X184931000Y-62230000D01*
X185701000Y-63600000D02*
X192241000Y-63600000D01*
X192241000Y-60860000D02*
X185701000Y-60860000D01*
X192241000Y-62230000D02*
X193011000Y-62230000D01*
X192241000Y-63600000D02*
X192241000Y-60860000D01*
%TD*%
M02*
