%TF.GenerationSoftware,KiCad,Pcbnew,8.0.8*%
%TF.CreationDate,2025-03-31T23:20:11-04:00*%
%TF.ProjectId,rear_lights_unit,72656172-5f6c-4696-9768-74735f756e69,0*%
%TF.SameCoordinates,Original*%
%TF.FileFunction,Copper,L1,Top*%
%TF.FilePolarity,Positive*%
%FSLAX46Y46*%
G04 Gerber Fmt 4.6, Leading zero omitted, Abs format (unit mm)*
G04 Created by KiCad (PCBNEW 8.0.8) date 2025-03-31 23:20:11*
%MOMM*%
%LPD*%
G01*
G04 APERTURE LIST*
G04 Aperture macros list*
%AMRoundRect*
0 Rectangle with rounded corners*
0 $1 Rounding radius*
0 $2 $3 $4 $5 $6 $7 $8 $9 X,Y pos of 4 corners*
0 Add a 4 corners polygon primitive as box body*
4,1,4,$2,$3,$4,$5,$6,$7,$8,$9,$2,$3,0*
0 Add four circle primitives for the rounded corners*
1,1,$1+$1,$2,$3*
1,1,$1+$1,$4,$5*
1,1,$1+$1,$6,$7*
1,1,$1+$1,$8,$9*
0 Add four rect primitives between the rounded corners*
20,1,$1+$1,$2,$3,$4,$5,0*
20,1,$1+$1,$4,$5,$6,$7,0*
20,1,$1+$1,$6,$7,$8,$9,0*
20,1,$1+$1,$8,$9,$2,$3,0*%
G04 Aperture macros list end*
%TA.AperFunction,ComponentPad*%
%ADD10C,1.200000*%
%TD*%
%TA.AperFunction,ComponentPad*%
%ADD11R,1.524000X1.524000*%
%TD*%
%TA.AperFunction,ComponentPad*%
%ADD12R,1.800000X1.800000*%
%TD*%
%TA.AperFunction,ComponentPad*%
%ADD13C,1.800000*%
%TD*%
%TA.AperFunction,ComponentPad*%
%ADD14R,1.600000X1.600000*%
%TD*%
%TA.AperFunction,ComponentPad*%
%ADD15C,1.600000*%
%TD*%
%TA.AperFunction,ComponentPad*%
%ADD16O,1.600000X1.600000*%
%TD*%
%TA.AperFunction,ComponentPad*%
%ADD17C,1.400000*%
%TD*%
%TA.AperFunction,ComponentPad*%
%ADD18C,2.000000*%
%TD*%
%TA.AperFunction,ComponentPad*%
%ADD19R,2.000000X1.905000*%
%TD*%
%TA.AperFunction,ComponentPad*%
%ADD20O,2.000000X1.905000*%
%TD*%
%TA.AperFunction,ComponentPad*%
%ADD21RoundRect,0.250000X-0.725000X0.600000X-0.725000X-0.600000X0.725000X-0.600000X0.725000X0.600000X0*%
%TD*%
%TA.AperFunction,ComponentPad*%
%ADD22O,1.950000X1.700000*%
%TD*%
%TA.AperFunction,Conductor*%
%ADD23C,0.200000*%
%TD*%
G04 APERTURE END LIST*
D10*
%TO.P,SW1,4,4*%
%TO.N,V_BATT*%
X196600000Y-87290000D03*
%TO.P,SW1,5,5*%
%TO.N,Net-(U3-OUT+)*%
X196600000Y-89830000D03*
%TO.P,SW1,6,6*%
%TO.N,unconnected-(SW1-Pad6)*%
X196600000Y-92370000D03*
%TD*%
D11*
%TO.P,U3,1,V_USB*%
%TO.N,unconnected-(U3-V_USB-Pad1)*%
X133590000Y-118610000D03*
%TO.P,U3,2,GND_USB*%
%TO.N,unconnected-(U3-GND_USB-Pad2)*%
X119590000Y-118610000D03*
%TO.P,U3,3,B+*%
%TO.N,Net-(BT1-+)*%
X131050000Y-95610000D03*
%TO.P,U3,4,B-*%
%TO.N,Net-(BT1--)*%
X122130000Y-95500000D03*
%TO.P,U3,5,OUT+*%
%TO.N,Net-(U3-OUT+)*%
X133590000Y-95610000D03*
%TO.P,U3,6,OUT-*%
%TO.N,GND*%
X119590000Y-95500000D03*
%TD*%
D12*
%TO.P,D1,1,K*%
%TO.N,Net-(D1-K)*%
X104638000Y-59944000D03*
D13*
%TO.P,D1,2,A*%
%TO.N,Net-(D1-A)*%
X107178000Y-59944000D03*
%TD*%
D12*
%TO.P,D11,1,K*%
%TO.N,Net-(D10-K)*%
X162052000Y-76200000D03*
D13*
%TO.P,D11,2,A*%
%TO.N,Net-(D11-A)*%
X159512000Y-76200000D03*
%TD*%
D12*
%TO.P,D23,1,K*%
%TO.N,GND*%
X138171000Y-76454000D03*
D13*
%TO.P,D23,2,A*%
%TO.N,Net-(D23-A)*%
X135631000Y-76454000D03*
%TD*%
D12*
%TO.P,D9,1,K*%
%TO.N,Net-(D10-K)*%
X162052000Y-59944000D03*
D13*
%TO.P,D9,2,A*%
%TO.N,Net-(D9-A)*%
X159512000Y-59944000D03*
%TD*%
D12*
%TO.P,D4,1,K*%
%TO.N,Net-(D1-K)*%
X104643000Y-84328000D03*
D13*
%TO.P,D4,2,A*%
%TO.N,Net-(D4-A)*%
X107183000Y-84328000D03*
%TD*%
D12*
%TO.P,D18,1,K*%
%TO.N,GND*%
X129022000Y-68326000D03*
D13*
%TO.P,D18,2,A*%
%TO.N,Net-(D18-A)*%
X131562000Y-68326000D03*
%TD*%
D12*
%TO.P,D25,1,K*%
%TO.N,Net-(D1-K)*%
X67046000Y-77470000D03*
D13*
%TO.P,D25,2,A*%
%TO.N,Net-(D25-A)*%
X69586000Y-77470000D03*
%TD*%
D12*
%TO.P,D14,1,K*%
%TO.N,Net-(D10-K)*%
X178303000Y-71374000D03*
D13*
%TO.P,D14,2,A*%
%TO.N,Net-(D14-A)*%
X180843000Y-71374000D03*
%TD*%
D12*
%TO.P,D12,1,K*%
%TO.N,Net-(D10-K)*%
X162052000Y-84328000D03*
D13*
%TO.P,D12,2,A*%
%TO.N,Net-(D12-A)*%
X159512000Y-84328000D03*
%TD*%
D12*
%TO.P,D24,1,K*%
%TO.N,GND*%
X138171000Y-84582000D03*
D13*
%TO.P,D24,2,A*%
%TO.N,Net-(D24-A)*%
X135631000Y-84582000D03*
%TD*%
D12*
%TO.P,D20,1,K*%
%TO.N,GND*%
X129017000Y-84582000D03*
D13*
%TO.P,D20,2,A*%
%TO.N,Net-(D20-A)*%
X131557000Y-84582000D03*
%TD*%
D12*
%TO.P,D7,1,K*%
%TO.N,Net-(D1-K)*%
X88387000Y-82042000D03*
D13*
%TO.P,D7,2,A*%
%TO.N,Net-(D7-A)*%
X85847000Y-82042000D03*
%TD*%
D12*
%TO.P,D6,1,K*%
%TO.N,Net-(D1-K)*%
X88387000Y-72898000D03*
D13*
%TO.P,D6,2,A*%
%TO.N,Net-(D6-A)*%
X85847000Y-72898000D03*
%TD*%
D12*
%TO.P,D17,1,K*%
%TO.N,GND*%
X129022000Y-60198000D03*
D13*
%TO.P,D17,2,A*%
%TO.N,Net-(D17-A)*%
X131562000Y-60198000D03*
%TD*%
D12*
%TO.P,D21,1,K*%
%TO.N,GND*%
X138171000Y-60198000D03*
D13*
%TO.P,D21,2,A*%
%TO.N,Net-(D21-A)*%
X135631000Y-60198000D03*
%TD*%
D12*
%TO.P,D13,1,K*%
%TO.N,Net-(D10-K)*%
X178298000Y-62230000D03*
D13*
%TO.P,D13,2,A*%
%TO.N,Net-(D13-A)*%
X180838000Y-62230000D03*
%TD*%
D12*
%TO.P,D22,1,K*%
%TO.N,GND*%
X138171000Y-68326000D03*
D13*
%TO.P,D22,2,A*%
%TO.N,Net-(D22-A)*%
X135631000Y-68326000D03*
%TD*%
D12*
%TO.P,D10,1,K*%
%TO.N,Net-(D10-K)*%
X162052000Y-68072000D03*
D13*
%TO.P,D10,2,A*%
%TO.N,Net-(D10-A)*%
X159512000Y-68072000D03*
%TD*%
D12*
%TO.P,D16,1,K*%
%TO.N,Net-(D10-K)*%
X199644000Y-66802000D03*
D13*
%TO.P,D16,2,A*%
%TO.N,Net-(D16-A)*%
X197104000Y-66802000D03*
%TD*%
D12*
%TO.P,D26,1,K*%
%TO.N,Net-(D10-K)*%
X199649000Y-75946000D03*
D13*
%TO.P,D26,2,A*%
%TO.N,Net-(D26-A)*%
X197109000Y-75946000D03*
%TD*%
D12*
%TO.P,D19,1,K*%
%TO.N,GND*%
X129022000Y-76454000D03*
D13*
%TO.P,D19,2,A*%
%TO.N,Net-(D19-A)*%
X131562000Y-76454000D03*
%TD*%
D12*
%TO.P,D15,1,K*%
%TO.N,Net-(D10-K)*%
X178298000Y-80518000D03*
D13*
%TO.P,D15,2,A*%
%TO.N,Net-(D15-A)*%
X180838000Y-80518000D03*
%TD*%
D12*
%TO.P,D3,1,K*%
%TO.N,Net-(D1-K)*%
X104643000Y-76200000D03*
D13*
%TO.P,D3,2,A*%
%TO.N,Net-(D3-A)*%
X107183000Y-76200000D03*
%TD*%
D12*
%TO.P,D8,1,K*%
%TO.N,Net-(D1-K)*%
X67046000Y-68326000D03*
D13*
%TO.P,D8,2,A*%
%TO.N,Net-(D8-A)*%
X69586000Y-68326000D03*
%TD*%
D12*
%TO.P,D2,1,K*%
%TO.N,Net-(D1-K)*%
X104638000Y-68072000D03*
D13*
%TO.P,D2,2,A*%
%TO.N,Net-(D2-A)*%
X107178000Y-68072000D03*
%TD*%
D12*
%TO.P,D5,1,K*%
%TO.N,Net-(D1-K)*%
X88387000Y-63754000D03*
D13*
%TO.P,D5,2,A*%
%TO.N,Net-(D5-A)*%
X85847000Y-63754000D03*
%TD*%
D14*
%TO.P,C5,1*%
%TO.N,V_BATT*%
X54610000Y-96774000D03*
D15*
%TO.P,C5,2*%
%TO.N,GND*%
X56610000Y-96774000D03*
%TD*%
%TO.P,R4,1*%
%TO.N,Net-(D4-A)*%
X101595000Y-84328000D03*
D16*
%TO.P,R4,2*%
%TO.N,V_BATT*%
X91435000Y-84328000D03*
%TD*%
D17*
%TO.P,C4,1*%
%TO.N,GND*%
X105875000Y-102138000D03*
%TO.P,C4,2*%
%TO.N,Net-(U2-THR)*%
X105875000Y-104638000D03*
%TD*%
D15*
%TO.P,R12,1*%
%TO.N,Net-(D12-A)*%
X165095000Y-84328000D03*
D16*
%TO.P,R12,2*%
%TO.N,V_BATT*%
X175255000Y-84328000D03*
%TD*%
D15*
%TO.P,R27,1*%
%TO.N,Net-(U1-Q)*%
X72644000Y-108204000D03*
D16*
%TO.P,R27,2*%
%TO.N,Net-(Q1-G)*%
X82804000Y-108204000D03*
%TD*%
D15*
%TO.P,R7,1*%
%TO.N,Net-(D7-A)*%
X82799000Y-82042000D03*
D16*
%TO.P,R7,2*%
%TO.N,V_BATT*%
X72639000Y-82042000D03*
%TD*%
D15*
%TO.P,R16,1*%
%TO.N,Net-(D16-A)*%
X202687000Y-66802000D03*
D16*
%TO.P,R16,2*%
%TO.N,V_BATT*%
X212847000Y-66802000D03*
%TD*%
D15*
%TO.P,R29,1*%
%TO.N,Net-(U2-DIS)*%
X104945000Y-113030000D03*
D16*
%TO.P,R29,2*%
%TO.N,RIGHT_TURN_EN*%
X115105000Y-113030000D03*
%TD*%
D15*
%TO.P,R32,1*%
%TO.N,Net-(U2-Q)*%
X105707000Y-108204000D03*
D16*
%TO.P,R32,2*%
%TO.N,Net-(Q2-G)*%
X115867000Y-108204000D03*
%TD*%
D15*
%TO.P,R20,1*%
%TO.N,Net-(D20-A)*%
X126487000Y-84582000D03*
D16*
%TO.P,R20,2*%
%TO.N,V_BATT*%
X116327000Y-84582000D03*
%TD*%
D15*
%TO.P,R5,1*%
%TO.N,Net-(D5-A)*%
X82799000Y-63754000D03*
D16*
%TO.P,R5,2*%
%TO.N,V_BATT*%
X72639000Y-63754000D03*
%TD*%
D15*
%TO.P,R17,1*%
%TO.N,Net-(D17-A)*%
X126487000Y-60198000D03*
D16*
%TO.P,R17,2*%
%TO.N,V_BATT*%
X116327000Y-60198000D03*
%TD*%
D18*
%TO.P,TP1,1,1*%
%TO.N,V_BATT*%
X184658000Y-95758000D03*
%TD*%
D15*
%TO.P,R34,1*%
%TO.N,Net-(D26-A)*%
X202687000Y-75946000D03*
D16*
%TO.P,R34,2*%
%TO.N,V_BATT*%
X212847000Y-75946000D03*
%TD*%
D15*
%TO.P,R10,1*%
%TO.N,Net-(D10-A)*%
X165095000Y-68072000D03*
D16*
%TO.P,R10,2*%
%TO.N,V_BATT*%
X175255000Y-68072000D03*
%TD*%
D15*
%TO.P,R19,1*%
%TO.N,Net-(D19-A)*%
X126487000Y-76454000D03*
D16*
%TO.P,R19,2*%
%TO.N,V_BATT*%
X116327000Y-76454000D03*
%TD*%
D17*
%TO.P,C1,1*%
%TO.N,Net-(U1-CV)*%
X61574000Y-117856000D03*
%TO.P,C1,2*%
%TO.N,GND*%
X64074000Y-117856000D03*
%TD*%
D14*
%TO.P,U2,1,GND*%
%TO.N,GND*%
X99568000Y-103896000D03*
D16*
%TO.P,U2,2,TR*%
%TO.N,Net-(U2-THR)*%
X99568000Y-106436000D03*
%TO.P,U2,3,Q*%
%TO.N,Net-(U2-Q)*%
X99568000Y-108976000D03*
%TO.P,U2,4,R*%
%TO.N,RIGHT_TURN_EN*%
X99568000Y-111516000D03*
%TO.P,U2,5,CV*%
%TO.N,Net-(U2-CV)*%
X91948000Y-111516000D03*
%TO.P,U2,6,THR*%
%TO.N,Net-(U2-THR)*%
X91948000Y-108976000D03*
%TO.P,U2,7,DIS*%
%TO.N,Net-(U2-DIS)*%
X91948000Y-106436000D03*
%TO.P,U2,8,VCC*%
%TO.N,V_BATT*%
X91948000Y-103896000D03*
%TD*%
D18*
%TO.P,TP4,1,1*%
%TO.N,RIGHT_TURN_EN*%
X174244000Y-95758000D03*
%TD*%
D15*
%TO.P,R15,1*%
%TO.N,Net-(D15-A)*%
X183891000Y-80518000D03*
D16*
%TO.P,R15,2*%
%TO.N,V_BATT*%
X194051000Y-80518000D03*
%TD*%
D19*
%TO.P,Q2,1,G*%
%TO.N,Net-(Q2-G)*%
X113030000Y-97282000D03*
D20*
%TO.P,Q2,2,D*%
%TO.N,Net-(D10-K)*%
X113030000Y-94742000D03*
%TO.P,Q2,3,S*%
%TO.N,GND*%
X113030000Y-92202000D03*
%TD*%
D15*
%TO.P,R26,1*%
%TO.N,Net-(U1-THR)*%
X55372000Y-113548000D03*
D16*
%TO.P,R26,2*%
%TO.N,Net-(U1-DIS)*%
X55372000Y-103388000D03*
%TD*%
D15*
%TO.P,R2,1*%
%TO.N,Net-(D2-A)*%
X101595000Y-68072000D03*
D16*
%TO.P,R2,2*%
%TO.N,V_BATT*%
X91435000Y-68072000D03*
%TD*%
D17*
%TO.P,C2,1*%
%TO.N,GND*%
X72898000Y-102138000D03*
%TO.P,C2,2*%
%TO.N,Net-(U1-THR)*%
X72898000Y-104638000D03*
%TD*%
D15*
%TO.P,R30,1*%
%TO.N,Net-(U2-THR)*%
X88349000Y-113548000D03*
D16*
%TO.P,R30,2*%
%TO.N,Net-(U2-DIS)*%
X88349000Y-103388000D03*
%TD*%
D21*
%TO.P,J1,1,Pin_1*%
%TO.N,GND*%
X205994000Y-84582000D03*
D22*
%TO.P,J1,2,Pin_2*%
%TO.N,RIGHT_TURN_EN*%
X205994000Y-87082000D03*
%TO.P,J1,3,Pin_3*%
%TO.N,LEFT_TURN_EN*%
X205994000Y-89582000D03*
%TO.P,J1,4,Pin_4*%
%TO.N,V_BATT*%
X205994000Y-92082000D03*
%TD*%
D18*
%TO.P,TP2,1,1*%
%TO.N,GND*%
X168910000Y-95758000D03*
%TD*%
D15*
%TO.P,R31,1*%
%TO.N,GND*%
X104945000Y-117856000D03*
D16*
%TO.P,R31,2*%
%TO.N,Net-(Q2-G)*%
X115105000Y-117856000D03*
%TD*%
D15*
%TO.P,R14,1*%
%TO.N,Net-(D14-A)*%
X183891000Y-71374000D03*
D16*
%TO.P,R14,2*%
%TO.N,V_BATT*%
X194051000Y-71374000D03*
%TD*%
D11*
%TO.P,BT1,1,+*%
%TO.N,Net-(BT1-+)*%
X163705100Y-96482100D03*
%TO.P,BT1,2,-*%
%TO.N,Net-(BT1--)*%
X189105100Y-96482100D03*
%TD*%
D19*
%TO.P,Q1,1,G*%
%TO.N,Net-(Q1-G)*%
X80264000Y-97282000D03*
D20*
%TO.P,Q1,2,D*%
%TO.N,Net-(D1-K)*%
X80264000Y-94742000D03*
%TO.P,Q1,3,S*%
%TO.N,GND*%
X80264000Y-92202000D03*
%TD*%
D15*
%TO.P,R33,1*%
%TO.N,Net-(D25-A)*%
X64003000Y-77470000D03*
D16*
%TO.P,R33,2*%
%TO.N,V_BATT*%
X53843000Y-77470000D03*
%TD*%
D15*
%TO.P,R11,1*%
%TO.N,Net-(D11-A)*%
X165095000Y-76200000D03*
D16*
%TO.P,R11,2*%
%TO.N,V_BATT*%
X175255000Y-76200000D03*
%TD*%
D15*
%TO.P,R21,1*%
%TO.N,Net-(D21-A)*%
X150871000Y-60198000D03*
D16*
%TO.P,R21,2*%
%TO.N,V_BATT*%
X140711000Y-60198000D03*
%TD*%
D15*
%TO.P,R18,1*%
%TO.N,Net-(D18-A)*%
X126487000Y-68326000D03*
D16*
%TO.P,R18,2*%
%TO.N,V_BATT*%
X116327000Y-68326000D03*
%TD*%
D15*
%TO.P,R25,1*%
%TO.N,Net-(U1-DIS)*%
X71968000Y-113030000D03*
D16*
%TO.P,R25,2*%
%TO.N,LEFT_TURN_EN*%
X82128000Y-113030000D03*
%TD*%
D15*
%TO.P,R22,1*%
%TO.N,Net-(D22-A)*%
X150871000Y-68326000D03*
D16*
%TO.P,R22,2*%
%TO.N,V_BATT*%
X140711000Y-68326000D03*
%TD*%
D15*
%TO.P,R28,1*%
%TO.N,GND*%
X71968000Y-117856000D03*
D16*
%TO.P,R28,2*%
%TO.N,Net-(Q1-G)*%
X82128000Y-117856000D03*
%TD*%
D15*
%TO.P,R3,1*%
%TO.N,Net-(D3-A)*%
X101595000Y-76200000D03*
D16*
%TO.P,R3,2*%
%TO.N,V_BATT*%
X91435000Y-76200000D03*
%TD*%
D15*
%TO.P,R23,1*%
%TO.N,Net-(D23-A)*%
X150871000Y-76454000D03*
D16*
%TO.P,R23,2*%
%TO.N,V_BATT*%
X140711000Y-76454000D03*
%TD*%
D15*
%TO.P,R1,1*%
%TO.N,Net-(D1-A)*%
X101595000Y-59944000D03*
D16*
%TO.P,R1,2*%
%TO.N,V_BATT*%
X91435000Y-59944000D03*
%TD*%
D17*
%TO.P,C3,1*%
%TO.N,Net-(U2-CV)*%
X94551000Y-117856000D03*
%TO.P,C3,2*%
%TO.N,GND*%
X97051000Y-117856000D03*
%TD*%
D15*
%TO.P,R9,1*%
%TO.N,Net-(D9-A)*%
X165095000Y-59944000D03*
D16*
%TO.P,R9,2*%
%TO.N,V_BATT*%
X175255000Y-59944000D03*
%TD*%
D14*
%TO.P,U1,1,GND*%
%TO.N,GND*%
X66538000Y-103896000D03*
D16*
%TO.P,U1,2,TR*%
%TO.N,Net-(U1-THR)*%
X66538000Y-106436000D03*
%TO.P,U1,3,Q*%
%TO.N,Net-(U1-Q)*%
X66538000Y-108976000D03*
%TO.P,U1,4,R*%
%TO.N,LEFT_TURN_EN*%
X66538000Y-111516000D03*
%TO.P,U1,5,CV*%
%TO.N,Net-(U1-CV)*%
X58918000Y-111516000D03*
%TO.P,U1,6,THR*%
%TO.N,Net-(U1-THR)*%
X58918000Y-108976000D03*
%TO.P,U1,7,DIS*%
%TO.N,Net-(U1-DIS)*%
X58918000Y-106436000D03*
%TO.P,U1,8,VCC*%
%TO.N,V_BATT*%
X58918000Y-103896000D03*
%TD*%
D15*
%TO.P,R6,1*%
%TO.N,Net-(D6-A)*%
X82799000Y-72898000D03*
D16*
%TO.P,R6,2*%
%TO.N,V_BATT*%
X72639000Y-72898000D03*
%TD*%
D18*
%TO.P,TP3,1,1*%
%TO.N,LEFT_TURN_EN*%
X179324000Y-95758000D03*
%TD*%
D15*
%TO.P,R24,1*%
%TO.N,Net-(D24-A)*%
X150871000Y-84582000D03*
D16*
%TO.P,R24,2*%
%TO.N,V_BATT*%
X140711000Y-84582000D03*
%TD*%
D15*
%TO.P,R8,1*%
%TO.N,Net-(D8-A)*%
X64003000Y-68326000D03*
D16*
%TO.P,R8,2*%
%TO.N,V_BATT*%
X53843000Y-68326000D03*
%TD*%
D15*
%TO.P,R13,1*%
%TO.N,Net-(D13-A)*%
X183891000Y-62230000D03*
D16*
%TO.P,R13,2*%
%TO.N,V_BATT*%
X194051000Y-62230000D03*
%TD*%
D23*
%TO.N,V_BATT*%
X177958000Y-84328000D02*
X175255000Y-84328000D01*
X180920000Y-87290000D02*
X177958000Y-84328000D01*
X180920000Y-87290000D02*
X196600000Y-87290000D01*
X197702000Y-88392000D02*
X197866000Y-88392000D01*
X196600000Y-87290000D02*
X197702000Y-88392000D01*
X194051000Y-84631000D02*
X194051000Y-80518000D01*
X196600000Y-87180000D02*
X194051000Y-84631000D01*
X196600000Y-87290000D02*
X196600000Y-87180000D01*
%TO.N,Net-(U3-OUT+)*%
X135240000Y-93952000D02*
X133590000Y-95602000D01*
X133590000Y-95602000D02*
X133590000Y-95610000D01*
X165890000Y-93952000D02*
X135240000Y-93952000D01*
X166624000Y-93218000D02*
X165890000Y-93952000D01*
X187706000Y-93726000D02*
X187198000Y-93218000D01*
X187706000Y-97790000D02*
X187706000Y-93726000D01*
X188214000Y-98298000D02*
X187706000Y-97790000D01*
X197358000Y-98298000D02*
X188214000Y-98298000D01*
X197866000Y-97790000D02*
X197358000Y-98298000D01*
X187198000Y-93218000D02*
X166624000Y-93218000D01*
X197866000Y-91096000D02*
X197866000Y-97790000D01*
X196600000Y-89830000D02*
X197866000Y-91096000D01*
%TO.N,Net-(BT1--)*%
X189105100Y-91569100D02*
X189105100Y-96490100D01*
X188722000Y-91186000D02*
X189105100Y-91569100D01*
X122936000Y-91186000D02*
X188722000Y-91186000D01*
X122130000Y-91992000D02*
X122936000Y-91186000D01*
X122130000Y-95500000D02*
X122130000Y-91992000D01*
%TO.N,GND*%
X119590000Y-92412000D02*
X119380000Y-92202000D01*
X119590000Y-95500000D02*
X119590000Y-92412000D01*
X72898000Y-102138000D02*
X98836000Y-102138000D01*
X66538000Y-103896000D02*
X68168000Y-103896000D01*
X119380000Y-92202000D02*
X113030000Y-92202000D01*
X101145000Y-103896000D02*
X101897000Y-104648000D01*
X99515000Y-103896000D02*
X101145000Y-103896000D01*
X97051000Y-115590000D02*
X97051000Y-117856000D01*
X98836000Y-102138000D02*
X99568000Y-102870000D01*
X68168000Y-103896000D02*
X68920000Y-104648000D01*
X64602000Y-115062000D02*
X64074000Y-115590000D01*
X101897000Y-114554000D02*
X101389000Y-115062000D01*
X68412000Y-115062000D02*
X64602000Y-115062000D01*
X64074000Y-115590000D02*
X64074000Y-117856000D01*
X68920000Y-114554000D02*
X68412000Y-115062000D01*
X97579000Y-115062000D02*
X97051000Y-115590000D01*
X101389000Y-115062000D02*
X97579000Y-115062000D01*
X101897000Y-104648000D02*
X101897000Y-114554000D01*
X99568000Y-102870000D02*
X99568000Y-103896000D01*
X68920000Y-104648000D02*
X68920000Y-114554000D01*
%TO.N,Net-(U1-THR)*%
X63830000Y-106436000D02*
X61290000Y-108976000D01*
X66624000Y-106436000D02*
X63830000Y-106436000D01*
X61290000Y-108976000D02*
X59004000Y-108976000D01*
%TO.N,Net-(U2-THR)*%
X96807000Y-106436000D02*
X94267000Y-108976000D01*
X99601000Y-106436000D02*
X96807000Y-106436000D01*
X94267000Y-108976000D02*
X91981000Y-108976000D01*
%TO.N,Net-(D1-K)*%
X104648000Y-86614000D02*
X104394000Y-86868000D01*
X96266000Y-86868000D02*
X95758000Y-86360000D01*
X95758000Y-82550000D02*
X95250000Y-82042000D01*
X104643000Y-84328000D02*
X104643000Y-86101000D01*
X95758000Y-86360000D02*
X95758000Y-82550000D01*
X104394000Y-86868000D02*
X96266000Y-86868000D01*
X104643000Y-86101000D02*
X104648000Y-86106000D01*
X95250000Y-82042000D02*
X88387000Y-82042000D01*
X104648000Y-86106000D02*
X104648000Y-86614000D01*
%TO.N,Net-(D1-A)*%
X107178000Y-57902000D02*
X106680000Y-57404000D01*
X102108000Y-57404000D02*
X106680000Y-57404000D01*
X101595000Y-57917000D02*
X102108000Y-57404000D01*
X107178000Y-59944000D02*
X107178000Y-57902000D01*
X101595000Y-59944000D02*
X101595000Y-57917000D01*
%TO.N,Net-(D2-A)*%
X101605000Y-66045000D02*
X102118000Y-65532000D01*
X107188000Y-68072000D02*
X107188000Y-66030000D01*
X107188000Y-66030000D02*
X106690000Y-65532000D01*
X101605000Y-68072000D02*
X101605000Y-66045000D01*
X102118000Y-65532000D02*
X106690000Y-65532000D01*
%TO.N,Net-(D3-A)*%
X102118000Y-73660000D02*
X106690000Y-73660000D01*
X107188000Y-74158000D02*
X106690000Y-73660000D01*
X101605000Y-76200000D02*
X101605000Y-74173000D01*
X107188000Y-76200000D02*
X107188000Y-74158000D01*
X101605000Y-74173000D02*
X102118000Y-73660000D01*
%TO.N,Net-(D4-A)*%
X101605000Y-84328000D02*
X101605000Y-82301000D01*
X107188000Y-84328000D02*
X107188000Y-82286000D01*
X101605000Y-82301000D02*
X102118000Y-81788000D01*
X107188000Y-82286000D02*
X106690000Y-81788000D01*
X102118000Y-81788000D02*
X106690000Y-81788000D01*
%TO.N,Net-(D5-A)*%
X82799000Y-63754000D02*
X85847000Y-63754000D01*
%TO.N,Net-(D6-A)*%
X85847000Y-72898000D02*
X82799000Y-72898000D01*
%TO.N,Net-(D7-A)*%
X82799000Y-82042000D02*
X85847000Y-82042000D01*
%TO.N,Net-(D8-A)*%
X64003000Y-66553000D02*
X64003000Y-68326000D01*
X64770000Y-65786000D02*
X64003000Y-66553000D01*
X68834000Y-65806000D02*
X68834000Y-65786000D01*
X68834000Y-65786000D02*
X64770000Y-65786000D01*
X69586000Y-66558000D02*
X68834000Y-65806000D01*
X69586000Y-68326000D02*
X69586000Y-66558000D01*
%TO.N,Net-(D9-A)*%
X160030000Y-57394000D02*
X164592000Y-57394000D01*
X165095000Y-59944000D02*
X165095000Y-57902000D01*
X159512000Y-57912000D02*
X160030000Y-57394000D01*
X165095000Y-57902000D02*
X164597000Y-57404000D01*
X159512000Y-59944000D02*
X159512000Y-57912000D01*
%TO.N,Net-(D10-K)*%
X111252000Y-55118000D02*
X110744000Y-55626000D01*
X111252000Y-94742000D02*
X113030000Y-94742000D01*
X161798000Y-64008000D02*
X153416000Y-64008000D01*
X153162000Y-55372000D02*
X152908000Y-55118000D01*
X110744000Y-94234000D02*
X111252000Y-94742000D01*
X153416000Y-64008000D02*
X153162000Y-63754000D01*
X162052000Y-59944000D02*
X162052000Y-63754000D01*
X152908000Y-55118000D02*
X111252000Y-55118000D01*
X153162000Y-63754000D02*
X153162000Y-55372000D01*
X162052000Y-63754000D02*
X161798000Y-64008000D01*
X110744000Y-55626000D02*
X110744000Y-94234000D01*
%TO.N,Net-(D10-A)*%
X159517000Y-68072000D02*
X159517000Y-66040000D01*
X160035000Y-65522000D02*
X164597000Y-65522000D01*
X165100000Y-66030000D02*
X164602000Y-65532000D01*
X159517000Y-66040000D02*
X160035000Y-65522000D01*
X165100000Y-68072000D02*
X165100000Y-66030000D01*
%TO.N,Net-(D11-A)*%
X165100000Y-74158000D02*
X164602000Y-73660000D01*
X165100000Y-76200000D02*
X165100000Y-74158000D01*
X159517000Y-76200000D02*
X159517000Y-74168000D01*
X160035000Y-73650000D02*
X164597000Y-73650000D01*
X159517000Y-74168000D02*
X160035000Y-73650000D01*
%TO.N,Net-(D12-A)*%
X165100000Y-82286000D02*
X164602000Y-81788000D01*
X160035000Y-81778000D02*
X164597000Y-81778000D01*
X159517000Y-82296000D02*
X160035000Y-81778000D01*
X159517000Y-84328000D02*
X159517000Y-82296000D01*
X165100000Y-84328000D02*
X165100000Y-82286000D01*
%TO.N,Net-(D13-A)*%
X180838000Y-62230000D02*
X183891000Y-62230000D01*
%TO.N,Net-(D14-A)*%
X180843000Y-71374000D02*
X183891000Y-71374000D01*
%TO.N,Net-(D15-A)*%
X180838000Y-80518000D02*
X183891000Y-80518000D01*
%TO.N,Net-(D16-A)*%
X197104000Y-66802000D02*
X197104000Y-64770000D01*
X202692000Y-66802000D02*
X202692000Y-64760000D01*
X202692000Y-64760000D02*
X202194000Y-64262000D01*
X197622000Y-64252000D02*
X202189000Y-64252000D01*
X197104000Y-64770000D02*
X197622000Y-64252000D01*
%TO.N,Net-(D17-A)*%
X131572000Y-60208000D02*
X131572000Y-58166000D01*
X131069000Y-57658000D02*
X131069000Y-57663000D01*
X131572000Y-58166000D02*
X131074000Y-57668000D01*
X126492000Y-60198000D02*
X126492000Y-58171000D01*
X131069000Y-57658000D02*
X127005000Y-57658000D01*
X126492000Y-58171000D02*
X127005000Y-57658000D01*
%TO.N,Net-(D18-A)*%
X131069000Y-65786000D02*
X127005000Y-65786000D01*
X126492000Y-66299000D02*
X127005000Y-65786000D01*
X126492000Y-68326000D02*
X126492000Y-66299000D01*
X131572000Y-66294000D02*
X131074000Y-65796000D01*
X131572000Y-68336000D02*
X131572000Y-66294000D01*
%TO.N,Net-(D19-A)*%
X126492000Y-74427000D02*
X127005000Y-73914000D01*
X131069000Y-73914000D02*
X127005000Y-73914000D01*
X126492000Y-76454000D02*
X126492000Y-74427000D01*
X131572000Y-74422000D02*
X131074000Y-73924000D01*
X131572000Y-76464000D02*
X131572000Y-74422000D01*
%TO.N,Net-(D20-A)*%
X131572000Y-82550000D02*
X131074000Y-82052000D01*
X131572000Y-84592000D02*
X131572000Y-82550000D01*
X126487000Y-82555000D02*
X127000000Y-82042000D01*
X131064000Y-82042000D02*
X127000000Y-82042000D01*
X126487000Y-84582000D02*
X126487000Y-82555000D01*
%TO.N,Net-(D21-A)*%
X150378000Y-57658000D02*
X136144000Y-57658000D01*
X150876000Y-60198000D02*
X150876000Y-58156000D01*
X135631000Y-58171000D02*
X136144000Y-57658000D01*
X150876000Y-58156000D02*
X150378000Y-57658000D01*
X135631000Y-60198000D02*
X135631000Y-58171000D01*
%TO.N,Net-(D22-A)*%
X150378000Y-65786000D02*
X136144000Y-65786000D01*
X135631000Y-66299000D02*
X136144000Y-65786000D01*
X135631000Y-68326000D02*
X135631000Y-66299000D01*
X150876000Y-66284000D02*
X150378000Y-65786000D01*
X150876000Y-68326000D02*
X150876000Y-66284000D01*
%TO.N,Net-(D23-A)*%
X150876000Y-76454000D02*
X150876000Y-74412000D01*
X150876000Y-74412000D02*
X150378000Y-73914000D01*
X135631000Y-74427000D02*
X136144000Y-73914000D01*
X135631000Y-76454000D02*
X135631000Y-74427000D01*
X150378000Y-73914000D02*
X136144000Y-73914000D01*
%TO.N,Net-(D24-A)*%
X150378000Y-82042000D02*
X136144000Y-82042000D01*
X150876000Y-82540000D02*
X150378000Y-82042000D01*
X135631000Y-82555000D02*
X136144000Y-82042000D01*
X150876000Y-84582000D02*
X150876000Y-82540000D01*
X135631000Y-84582000D02*
X135631000Y-82555000D01*
%TO.N,RIGHT_TURN_EN*%
X171704000Y-113030000D02*
X172212000Y-112522000D01*
X172212000Y-112522000D02*
X172212000Y-98806000D01*
X174244000Y-96774000D02*
X172212000Y-98806000D01*
X174244000Y-96774000D02*
X174244000Y-95758000D01*
X171704000Y-113030000D02*
X115105000Y-113030000D01*
%TO.N,LEFT_TURN_EN*%
X178816000Y-121158000D02*
X179324000Y-120650000D01*
X85598000Y-121158000D02*
X178816000Y-121158000D01*
X179324000Y-120650000D02*
X179324000Y-95758000D01*
X85090000Y-113538000D02*
X85090000Y-120650000D01*
X85090000Y-120650000D02*
X85598000Y-121158000D01*
X82128000Y-113030000D02*
X84582000Y-113030000D01*
X84582000Y-113030000D02*
X85090000Y-113538000D01*
%TO.N,Net-(Q1-G)*%
X78826000Y-114808000D02*
X78826000Y-110998000D01*
X78826000Y-110998000D02*
X79334000Y-110490000D01*
X79334000Y-115316000D02*
X78826000Y-114808000D01*
X82128000Y-116078000D02*
X81366000Y-115316000D01*
X82128000Y-117856000D02*
X82128000Y-116078000D01*
X79334000Y-110490000D02*
X82296000Y-110490000D01*
X81366000Y-115316000D02*
X79334000Y-115316000D01*
X82804000Y-109982000D02*
X82804000Y-108204000D01*
X82296000Y-110490000D02*
X82804000Y-109982000D01*
%TO.N,Net-(Q2-G)*%
X115359000Y-110490000D02*
X115867000Y-109982000D01*
X115105000Y-116078000D02*
X114343000Y-115316000D01*
X112311000Y-115316000D02*
X111803000Y-114808000D01*
X115105000Y-117856000D02*
X115105000Y-116078000D01*
X115867000Y-109982000D02*
X115867000Y-108204000D01*
X111803000Y-114808000D02*
X111803000Y-110998000D01*
X112311000Y-110490000D02*
X115359000Y-110490000D01*
X111803000Y-110998000D02*
X112311000Y-110490000D01*
X114343000Y-115316000D02*
X112311000Y-115316000D01*
%TO.N,Net-(D25-A)*%
X64003000Y-75697000D02*
X64003000Y-77470000D01*
X64770000Y-74930000D02*
X64003000Y-75697000D01*
X69596000Y-75692000D02*
X68834000Y-74930000D01*
X68834000Y-74930000D02*
X64770000Y-74930000D01*
X69586000Y-77470000D02*
X69586000Y-75702000D01*
X69586000Y-75702000D02*
X69596000Y-75692000D01*
%TO.N,Net-(D26-A)*%
X202692000Y-73904000D02*
X202194000Y-73406000D01*
X202692000Y-75946000D02*
X202692000Y-73904000D01*
X197104000Y-73914000D02*
X197622000Y-73396000D01*
X197622000Y-73396000D02*
X202189000Y-73396000D01*
X197104000Y-75946000D02*
X197104000Y-73914000D01*
%TO.N,V_BATT*%
X72639000Y-82042000D02*
X72639000Y-86609000D01*
X205994000Y-92082000D02*
X200540000Y-92082000D01*
X54610000Y-87630000D02*
X54864000Y-87376000D01*
X91435000Y-86609000D02*
X91435000Y-84328000D01*
X91440000Y-87122000D02*
X91440000Y-86614000D01*
X72644000Y-86614000D02*
X72644000Y-87122000D01*
X91186000Y-87376000D02*
X91440000Y-87122000D01*
X200152000Y-91694000D02*
X200152000Y-88900000D01*
X211582000Y-91694000D02*
X211582000Y-78486000D01*
X200152000Y-88900000D02*
X199644000Y-88392000D01*
X72644000Y-87122000D02*
X72898000Y-87376000D01*
X67056000Y-82550000D02*
X67564000Y-82042000D01*
X200540000Y-92082000D02*
X200152000Y-91694000D01*
X54864000Y-87376000D02*
X66548000Y-87376000D01*
X212847000Y-77211000D02*
X212847000Y-75946000D01*
X54610000Y-96774000D02*
X54610000Y-87630000D01*
X199644000Y-88392000D02*
X197866000Y-88392000D01*
X66548000Y-87376000D02*
X67056000Y-86868000D01*
X211194000Y-92082000D02*
X211582000Y-91694000D01*
X72639000Y-86609000D02*
X72644000Y-86614000D01*
X175255000Y-84328000D02*
X177800000Y-84328000D01*
X91440000Y-86614000D02*
X91435000Y-86609000D01*
X67056000Y-86868000D02*
X67056000Y-82550000D01*
X72898000Y-87376000D02*
X91186000Y-87376000D01*
X212852000Y-77216000D02*
X212847000Y-77211000D01*
X205994000Y-92082000D02*
X211194000Y-92082000D01*
X211582000Y-78486000D02*
X212852000Y-77216000D01*
X67564000Y-82042000D02*
X72639000Y-82042000D01*
%TD*%
M02*
