%TF.GenerationSoftware,KiCad,Pcbnew,8.0.8*%
%TF.CreationDate,2025-03-31T23:20:11-04:00*%
%TF.ProjectId,rear_lights_unit,72656172-5f6c-4696-9768-74735f756e69,0*%
%TF.SameCoordinates,Original*%
%TF.FileFunction,Legend,Top*%
%TF.FilePolarity,Positive*%
%FSLAX46Y46*%
G04 Gerber Fmt 4.6, Leading zero omitted, Abs format (unit mm)*
G04 Created by KiCad (PCBNEW 8.0.8) date 2025-03-31 23:20:11*
%MOMM*%
%LPD*%
G01*
G04 APERTURE LIST*
%ADD10C,0.300000*%
%ADD11C,0.150000*%
%ADD12C,0.120000*%
%ADD13C,0.000000*%
G04 APERTURE END LIST*
D10*
X159804510Y-115855114D02*
X159304510Y-115855114D01*
X159304510Y-116640828D02*
X159304510Y-115140828D01*
X159304510Y-115140828D02*
X160018796Y-115140828D01*
X161233082Y-116640828D02*
X161233082Y-115855114D01*
X161233082Y-115855114D02*
X161161653Y-115712257D01*
X161161653Y-115712257D02*
X161018796Y-115640828D01*
X161018796Y-115640828D02*
X160733082Y-115640828D01*
X160733082Y-115640828D02*
X160590224Y-115712257D01*
X161233082Y-116569400D02*
X161090224Y-116640828D01*
X161090224Y-116640828D02*
X160733082Y-116640828D01*
X160733082Y-116640828D02*
X160590224Y-116569400D01*
X160590224Y-116569400D02*
X160518796Y-116426542D01*
X160518796Y-116426542D02*
X160518796Y-116283685D01*
X160518796Y-116283685D02*
X160590224Y-116140828D01*
X160590224Y-116140828D02*
X160733082Y-116069400D01*
X160733082Y-116069400D02*
X161090224Y-116069400D01*
X161090224Y-116069400D02*
X161233082Y-115997971D01*
X161947367Y-116640828D02*
X161947367Y-115640828D01*
X161947367Y-115926542D02*
X162018796Y-115783685D01*
X162018796Y-115783685D02*
X162090225Y-115712257D01*
X162090225Y-115712257D02*
X162233082Y-115640828D01*
X162233082Y-115640828D02*
X162375939Y-115640828D01*
X162875938Y-116640828D02*
X162875938Y-115640828D01*
X162875938Y-115926542D02*
X162947367Y-115783685D01*
X162947367Y-115783685D02*
X163018796Y-115712257D01*
X163018796Y-115712257D02*
X163161653Y-115640828D01*
X163161653Y-115640828D02*
X163304510Y-115640828D01*
X163804509Y-116640828D02*
X163804509Y-115140828D01*
X164447367Y-116640828D02*
X164447367Y-115855114D01*
X164447367Y-115855114D02*
X164375938Y-115712257D01*
X164375938Y-115712257D02*
X164233081Y-115640828D01*
X164233081Y-115640828D02*
X164018795Y-115640828D01*
X164018795Y-115640828D02*
X163875938Y-115712257D01*
X163875938Y-115712257D02*
X163804509Y-115783685D01*
X165804510Y-116640828D02*
X165804510Y-115855114D01*
X165804510Y-115855114D02*
X165733081Y-115712257D01*
X165733081Y-115712257D02*
X165590224Y-115640828D01*
X165590224Y-115640828D02*
X165304510Y-115640828D01*
X165304510Y-115640828D02*
X165161652Y-115712257D01*
X165804510Y-116569400D02*
X165661652Y-116640828D01*
X165661652Y-116640828D02*
X165304510Y-116640828D01*
X165304510Y-116640828D02*
X165161652Y-116569400D01*
X165161652Y-116569400D02*
X165090224Y-116426542D01*
X165090224Y-116426542D02*
X165090224Y-116283685D01*
X165090224Y-116283685D02*
X165161652Y-116140828D01*
X165161652Y-116140828D02*
X165304510Y-116069400D01*
X165304510Y-116069400D02*
X165661652Y-116069400D01*
X165661652Y-116069400D02*
X165804510Y-115997971D01*
X167161653Y-116640828D02*
X167161653Y-115140828D01*
X167161653Y-116569400D02*
X167018795Y-116640828D01*
X167018795Y-116640828D02*
X166733081Y-116640828D01*
X166733081Y-116640828D02*
X166590224Y-116569400D01*
X166590224Y-116569400D02*
X166518795Y-116497971D01*
X166518795Y-116497971D02*
X166447367Y-116355114D01*
X166447367Y-116355114D02*
X166447367Y-115926542D01*
X166447367Y-115926542D02*
X166518795Y-115783685D01*
X166518795Y-115783685D02*
X166590224Y-115712257D01*
X166590224Y-115712257D02*
X166733081Y-115640828D01*
X166733081Y-115640828D02*
X167018795Y-115640828D01*
X167018795Y-115640828D02*
X167161653Y-115712257D01*
X167661653Y-115140828D02*
X168518796Y-115140828D01*
X168090224Y-116640828D02*
X168090224Y-115140828D01*
X169590224Y-116569400D02*
X169447367Y-116640828D01*
X169447367Y-116640828D02*
X169161653Y-116640828D01*
X169161653Y-116640828D02*
X169018795Y-116569400D01*
X169018795Y-116569400D02*
X168947367Y-116426542D01*
X168947367Y-116426542D02*
X168947367Y-115855114D01*
X168947367Y-115855114D02*
X169018795Y-115712257D01*
X169018795Y-115712257D02*
X169161653Y-115640828D01*
X169161653Y-115640828D02*
X169447367Y-115640828D01*
X169447367Y-115640828D02*
X169590224Y-115712257D01*
X169590224Y-115712257D02*
X169661653Y-115855114D01*
X169661653Y-115855114D02*
X169661653Y-115997971D01*
X169661653Y-115997971D02*
X168947367Y-116140828D01*
X170947367Y-116569400D02*
X170804509Y-116640828D01*
X170804509Y-116640828D02*
X170518795Y-116640828D01*
X170518795Y-116640828D02*
X170375938Y-116569400D01*
X170375938Y-116569400D02*
X170304509Y-116497971D01*
X170304509Y-116497971D02*
X170233081Y-116355114D01*
X170233081Y-116355114D02*
X170233081Y-115926542D01*
X170233081Y-115926542D02*
X170304509Y-115783685D01*
X170304509Y-115783685D02*
X170375938Y-115712257D01*
X170375938Y-115712257D02*
X170518795Y-115640828D01*
X170518795Y-115640828D02*
X170804509Y-115640828D01*
X170804509Y-115640828D02*
X170947367Y-115712257D01*
X171590223Y-116640828D02*
X171590223Y-115140828D01*
X172233081Y-116640828D02*
X172233081Y-115855114D01*
X172233081Y-115855114D02*
X172161652Y-115712257D01*
X172161652Y-115712257D02*
X172018795Y-115640828D01*
X172018795Y-115640828D02*
X171804509Y-115640828D01*
X171804509Y-115640828D02*
X171661652Y-115712257D01*
X171661652Y-115712257D02*
X171590223Y-115783685D01*
X174947366Y-116640828D02*
X174447366Y-115926542D01*
X174090223Y-116640828D02*
X174090223Y-115140828D01*
X174090223Y-115140828D02*
X174661652Y-115140828D01*
X174661652Y-115140828D02*
X174804509Y-115212257D01*
X174804509Y-115212257D02*
X174875938Y-115283685D01*
X174875938Y-115283685D02*
X174947366Y-115426542D01*
X174947366Y-115426542D02*
X174947366Y-115640828D01*
X174947366Y-115640828D02*
X174875938Y-115783685D01*
X174875938Y-115783685D02*
X174804509Y-115855114D01*
X174804509Y-115855114D02*
X174661652Y-115926542D01*
X174661652Y-115926542D02*
X174090223Y-115926542D01*
X176161652Y-116569400D02*
X176018795Y-116640828D01*
X176018795Y-116640828D02*
X175733081Y-116640828D01*
X175733081Y-116640828D02*
X175590223Y-116569400D01*
X175590223Y-116569400D02*
X175518795Y-116426542D01*
X175518795Y-116426542D02*
X175518795Y-115855114D01*
X175518795Y-115855114D02*
X175590223Y-115712257D01*
X175590223Y-115712257D02*
X175733081Y-115640828D01*
X175733081Y-115640828D02*
X176018795Y-115640828D01*
X176018795Y-115640828D02*
X176161652Y-115712257D01*
X176161652Y-115712257D02*
X176233081Y-115855114D01*
X176233081Y-115855114D02*
X176233081Y-115997971D01*
X176233081Y-115997971D02*
X175518795Y-116140828D01*
X177518795Y-116640828D02*
X177518795Y-115855114D01*
X177518795Y-115855114D02*
X177447366Y-115712257D01*
X177447366Y-115712257D02*
X177304509Y-115640828D01*
X177304509Y-115640828D02*
X177018795Y-115640828D01*
X177018795Y-115640828D02*
X176875937Y-115712257D01*
X177518795Y-116569400D02*
X177375937Y-116640828D01*
X177375937Y-116640828D02*
X177018795Y-116640828D01*
X177018795Y-116640828D02*
X176875937Y-116569400D01*
X176875937Y-116569400D02*
X176804509Y-116426542D01*
X176804509Y-116426542D02*
X176804509Y-116283685D01*
X176804509Y-116283685D02*
X176875937Y-116140828D01*
X176875937Y-116140828D02*
X177018795Y-116069400D01*
X177018795Y-116069400D02*
X177375937Y-116069400D01*
X177375937Y-116069400D02*
X177518795Y-115997971D01*
X178233080Y-116640828D02*
X178233080Y-115640828D01*
X178233080Y-115926542D02*
X178304509Y-115783685D01*
X178304509Y-115783685D02*
X178375938Y-115712257D01*
X178375938Y-115712257D02*
X178518795Y-115640828D01*
X178518795Y-115640828D02*
X178661652Y-115640828D01*
X181018794Y-116640828D02*
X180304508Y-116640828D01*
X180304508Y-116640828D02*
X180304508Y-115140828D01*
X181518794Y-116640828D02*
X181518794Y-115640828D01*
X181518794Y-115140828D02*
X181447366Y-115212257D01*
X181447366Y-115212257D02*
X181518794Y-115283685D01*
X181518794Y-115283685D02*
X181590223Y-115212257D01*
X181590223Y-115212257D02*
X181518794Y-115140828D01*
X181518794Y-115140828D02*
X181518794Y-115283685D01*
X182875938Y-115640828D02*
X182875938Y-116855114D01*
X182875938Y-116855114D02*
X182804509Y-116997971D01*
X182804509Y-116997971D02*
X182733080Y-117069400D01*
X182733080Y-117069400D02*
X182590223Y-117140828D01*
X182590223Y-117140828D02*
X182375938Y-117140828D01*
X182375938Y-117140828D02*
X182233080Y-117069400D01*
X182875938Y-116569400D02*
X182733080Y-116640828D01*
X182733080Y-116640828D02*
X182447366Y-116640828D01*
X182447366Y-116640828D02*
X182304509Y-116569400D01*
X182304509Y-116569400D02*
X182233080Y-116497971D01*
X182233080Y-116497971D02*
X182161652Y-116355114D01*
X182161652Y-116355114D02*
X182161652Y-115926542D01*
X182161652Y-115926542D02*
X182233080Y-115783685D01*
X182233080Y-115783685D02*
X182304509Y-115712257D01*
X182304509Y-115712257D02*
X182447366Y-115640828D01*
X182447366Y-115640828D02*
X182733080Y-115640828D01*
X182733080Y-115640828D02*
X182875938Y-115712257D01*
X183590223Y-116640828D02*
X183590223Y-115140828D01*
X184233081Y-116640828D02*
X184233081Y-115855114D01*
X184233081Y-115855114D02*
X184161652Y-115712257D01*
X184161652Y-115712257D02*
X184018795Y-115640828D01*
X184018795Y-115640828D02*
X183804509Y-115640828D01*
X183804509Y-115640828D02*
X183661652Y-115712257D01*
X183661652Y-115712257D02*
X183590223Y-115783685D01*
X184733081Y-115640828D02*
X185304509Y-115640828D01*
X184947366Y-115140828D02*
X184947366Y-116426542D01*
X184947366Y-116426542D02*
X185018795Y-116569400D01*
X185018795Y-116569400D02*
X185161652Y-116640828D01*
X185161652Y-116640828D02*
X185304509Y-116640828D01*
X186947366Y-115140828D02*
X186947366Y-116355114D01*
X186947366Y-116355114D02*
X187018795Y-116497971D01*
X187018795Y-116497971D02*
X187090224Y-116569400D01*
X187090224Y-116569400D02*
X187233081Y-116640828D01*
X187233081Y-116640828D02*
X187518795Y-116640828D01*
X187518795Y-116640828D02*
X187661652Y-116569400D01*
X187661652Y-116569400D02*
X187733081Y-116497971D01*
X187733081Y-116497971D02*
X187804509Y-116355114D01*
X187804509Y-116355114D02*
X187804509Y-115140828D01*
X188518795Y-115640828D02*
X188518795Y-116640828D01*
X188518795Y-115783685D02*
X188590224Y-115712257D01*
X188590224Y-115712257D02*
X188733081Y-115640828D01*
X188733081Y-115640828D02*
X188947367Y-115640828D01*
X188947367Y-115640828D02*
X189090224Y-115712257D01*
X189090224Y-115712257D02*
X189161653Y-115855114D01*
X189161653Y-115855114D02*
X189161653Y-116640828D01*
X189875938Y-116640828D02*
X189875938Y-115640828D01*
X189875938Y-115140828D02*
X189804510Y-115212257D01*
X189804510Y-115212257D02*
X189875938Y-115283685D01*
X189875938Y-115283685D02*
X189947367Y-115212257D01*
X189947367Y-115212257D02*
X189875938Y-115140828D01*
X189875938Y-115140828D02*
X189875938Y-115283685D01*
X190375939Y-115640828D02*
X190947367Y-115640828D01*
X190590224Y-115140828D02*
X190590224Y-116426542D01*
X190590224Y-116426542D02*
X190661653Y-116569400D01*
X190661653Y-116569400D02*
X190804510Y-116640828D01*
X190804510Y-116640828D02*
X190947367Y-116640828D01*
X192447367Y-115640828D02*
X192804510Y-116640828D01*
X192804510Y-116640828D02*
X193161653Y-115640828D01*
X194018796Y-115140828D02*
X194161653Y-115140828D01*
X194161653Y-115140828D02*
X194304510Y-115212257D01*
X194304510Y-115212257D02*
X194375939Y-115283685D01*
X194375939Y-115283685D02*
X194447367Y-115426542D01*
X194447367Y-115426542D02*
X194518796Y-115712257D01*
X194518796Y-115712257D02*
X194518796Y-116069400D01*
X194518796Y-116069400D02*
X194447367Y-116355114D01*
X194447367Y-116355114D02*
X194375939Y-116497971D01*
X194375939Y-116497971D02*
X194304510Y-116569400D01*
X194304510Y-116569400D02*
X194161653Y-116640828D01*
X194161653Y-116640828D02*
X194018796Y-116640828D01*
X194018796Y-116640828D02*
X193875939Y-116569400D01*
X193875939Y-116569400D02*
X193804510Y-116497971D01*
X193804510Y-116497971D02*
X193733081Y-116355114D01*
X193733081Y-116355114D02*
X193661653Y-116069400D01*
X193661653Y-116069400D02*
X193661653Y-115712257D01*
X193661653Y-115712257D02*
X193733081Y-115426542D01*
X193733081Y-115426542D02*
X193804510Y-115283685D01*
X193804510Y-115283685D02*
X193875939Y-115212257D01*
X193875939Y-115212257D02*
X194018796Y-115140828D01*
D11*
X105169905Y-56438819D02*
X105169905Y-55438819D01*
X105169905Y-55438819D02*
X105408000Y-55438819D01*
X105408000Y-55438819D02*
X105550857Y-55486438D01*
X105550857Y-55486438D02*
X105646095Y-55581676D01*
X105646095Y-55581676D02*
X105693714Y-55676914D01*
X105693714Y-55676914D02*
X105741333Y-55867390D01*
X105741333Y-55867390D02*
X105741333Y-56010247D01*
X105741333Y-56010247D02*
X105693714Y-56200723D01*
X105693714Y-56200723D02*
X105646095Y-56295961D01*
X105646095Y-56295961D02*
X105550857Y-56391200D01*
X105550857Y-56391200D02*
X105408000Y-56438819D01*
X105408000Y-56438819D02*
X105169905Y-56438819D01*
X106693714Y-56438819D02*
X106122286Y-56438819D01*
X106408000Y-56438819D02*
X106408000Y-55438819D01*
X106408000Y-55438819D02*
X106312762Y-55581676D01*
X106312762Y-55581676D02*
X106217524Y-55676914D01*
X106217524Y-55676914D02*
X106122286Y-55724533D01*
X159567714Y-80614819D02*
X159567714Y-79614819D01*
X159567714Y-79614819D02*
X159805809Y-79614819D01*
X159805809Y-79614819D02*
X159948666Y-79662438D01*
X159948666Y-79662438D02*
X160043904Y-79757676D01*
X160043904Y-79757676D02*
X160091523Y-79852914D01*
X160091523Y-79852914D02*
X160139142Y-80043390D01*
X160139142Y-80043390D02*
X160139142Y-80186247D01*
X160139142Y-80186247D02*
X160091523Y-80376723D01*
X160091523Y-80376723D02*
X160043904Y-80471961D01*
X160043904Y-80471961D02*
X159948666Y-80567200D01*
X159948666Y-80567200D02*
X159805809Y-80614819D01*
X159805809Y-80614819D02*
X159567714Y-80614819D01*
X161091523Y-80614819D02*
X160520095Y-80614819D01*
X160805809Y-80614819D02*
X160805809Y-79614819D01*
X160805809Y-79614819D02*
X160710571Y-79757676D01*
X160710571Y-79757676D02*
X160615333Y-79852914D01*
X160615333Y-79852914D02*
X160520095Y-79900533D01*
X162043904Y-80614819D02*
X161472476Y-80614819D01*
X161758190Y-80614819D02*
X161758190Y-79614819D01*
X161758190Y-79614819D02*
X161662952Y-79757676D01*
X161662952Y-79757676D02*
X161567714Y-79852914D01*
X161567714Y-79852914D02*
X161472476Y-79900533D01*
X135686714Y-80868819D02*
X135686714Y-79868819D01*
X135686714Y-79868819D02*
X135924809Y-79868819D01*
X135924809Y-79868819D02*
X136067666Y-79916438D01*
X136067666Y-79916438D02*
X136162904Y-80011676D01*
X136162904Y-80011676D02*
X136210523Y-80106914D01*
X136210523Y-80106914D02*
X136258142Y-80297390D01*
X136258142Y-80297390D02*
X136258142Y-80440247D01*
X136258142Y-80440247D02*
X136210523Y-80630723D01*
X136210523Y-80630723D02*
X136162904Y-80725961D01*
X136162904Y-80725961D02*
X136067666Y-80821200D01*
X136067666Y-80821200D02*
X135924809Y-80868819D01*
X135924809Y-80868819D02*
X135686714Y-80868819D01*
X136639095Y-79964057D02*
X136686714Y-79916438D01*
X136686714Y-79916438D02*
X136781952Y-79868819D01*
X136781952Y-79868819D02*
X137020047Y-79868819D01*
X137020047Y-79868819D02*
X137115285Y-79916438D01*
X137115285Y-79916438D02*
X137162904Y-79964057D01*
X137162904Y-79964057D02*
X137210523Y-80059295D01*
X137210523Y-80059295D02*
X137210523Y-80154533D01*
X137210523Y-80154533D02*
X137162904Y-80297390D01*
X137162904Y-80297390D02*
X136591476Y-80868819D01*
X136591476Y-80868819D02*
X137210523Y-80868819D01*
X137543857Y-79868819D02*
X138162904Y-79868819D01*
X138162904Y-79868819D02*
X137829571Y-80249771D01*
X137829571Y-80249771D02*
X137972428Y-80249771D01*
X137972428Y-80249771D02*
X138067666Y-80297390D01*
X138067666Y-80297390D02*
X138115285Y-80345009D01*
X138115285Y-80345009D02*
X138162904Y-80440247D01*
X138162904Y-80440247D02*
X138162904Y-80678342D01*
X138162904Y-80678342D02*
X138115285Y-80773580D01*
X138115285Y-80773580D02*
X138067666Y-80821200D01*
X138067666Y-80821200D02*
X137972428Y-80868819D01*
X137972428Y-80868819D02*
X137686714Y-80868819D01*
X137686714Y-80868819D02*
X137591476Y-80821200D01*
X137591476Y-80821200D02*
X137543857Y-80773580D01*
X160043905Y-64358819D02*
X160043905Y-63358819D01*
X160043905Y-63358819D02*
X160282000Y-63358819D01*
X160282000Y-63358819D02*
X160424857Y-63406438D01*
X160424857Y-63406438D02*
X160520095Y-63501676D01*
X160520095Y-63501676D02*
X160567714Y-63596914D01*
X160567714Y-63596914D02*
X160615333Y-63787390D01*
X160615333Y-63787390D02*
X160615333Y-63930247D01*
X160615333Y-63930247D02*
X160567714Y-64120723D01*
X160567714Y-64120723D02*
X160520095Y-64215961D01*
X160520095Y-64215961D02*
X160424857Y-64311200D01*
X160424857Y-64311200D02*
X160282000Y-64358819D01*
X160282000Y-64358819D02*
X160043905Y-64358819D01*
X161091524Y-64358819D02*
X161282000Y-64358819D01*
X161282000Y-64358819D02*
X161377238Y-64311200D01*
X161377238Y-64311200D02*
X161424857Y-64263580D01*
X161424857Y-64263580D02*
X161520095Y-64120723D01*
X161520095Y-64120723D02*
X161567714Y-63930247D01*
X161567714Y-63930247D02*
X161567714Y-63549295D01*
X161567714Y-63549295D02*
X161520095Y-63454057D01*
X161520095Y-63454057D02*
X161472476Y-63406438D01*
X161472476Y-63406438D02*
X161377238Y-63358819D01*
X161377238Y-63358819D02*
X161186762Y-63358819D01*
X161186762Y-63358819D02*
X161091524Y-63406438D01*
X161091524Y-63406438D02*
X161043905Y-63454057D01*
X161043905Y-63454057D02*
X160996286Y-63549295D01*
X160996286Y-63549295D02*
X160996286Y-63787390D01*
X160996286Y-63787390D02*
X161043905Y-63882628D01*
X161043905Y-63882628D02*
X161091524Y-63930247D01*
X161091524Y-63930247D02*
X161186762Y-63977866D01*
X161186762Y-63977866D02*
X161377238Y-63977866D01*
X161377238Y-63977866D02*
X161472476Y-63930247D01*
X161472476Y-63930247D02*
X161520095Y-63882628D01*
X161520095Y-63882628D02*
X161567714Y-63787390D01*
X105174905Y-80822819D02*
X105174905Y-79822819D01*
X105174905Y-79822819D02*
X105413000Y-79822819D01*
X105413000Y-79822819D02*
X105555857Y-79870438D01*
X105555857Y-79870438D02*
X105651095Y-79965676D01*
X105651095Y-79965676D02*
X105698714Y-80060914D01*
X105698714Y-80060914D02*
X105746333Y-80251390D01*
X105746333Y-80251390D02*
X105746333Y-80394247D01*
X105746333Y-80394247D02*
X105698714Y-80584723D01*
X105698714Y-80584723D02*
X105651095Y-80679961D01*
X105651095Y-80679961D02*
X105555857Y-80775200D01*
X105555857Y-80775200D02*
X105413000Y-80822819D01*
X105413000Y-80822819D02*
X105174905Y-80822819D01*
X106603476Y-80156152D02*
X106603476Y-80822819D01*
X106365381Y-79775200D02*
X106127286Y-80489485D01*
X106127286Y-80489485D02*
X106746333Y-80489485D01*
X129077714Y-64820819D02*
X129077714Y-63820819D01*
X129077714Y-63820819D02*
X129315809Y-63820819D01*
X129315809Y-63820819D02*
X129458666Y-63868438D01*
X129458666Y-63868438D02*
X129553904Y-63963676D01*
X129553904Y-63963676D02*
X129601523Y-64058914D01*
X129601523Y-64058914D02*
X129649142Y-64249390D01*
X129649142Y-64249390D02*
X129649142Y-64392247D01*
X129649142Y-64392247D02*
X129601523Y-64582723D01*
X129601523Y-64582723D02*
X129553904Y-64677961D01*
X129553904Y-64677961D02*
X129458666Y-64773200D01*
X129458666Y-64773200D02*
X129315809Y-64820819D01*
X129315809Y-64820819D02*
X129077714Y-64820819D01*
X130601523Y-64820819D02*
X130030095Y-64820819D01*
X130315809Y-64820819D02*
X130315809Y-63820819D01*
X130315809Y-63820819D02*
X130220571Y-63963676D01*
X130220571Y-63963676D02*
X130125333Y-64058914D01*
X130125333Y-64058914D02*
X130030095Y-64106533D01*
X131172952Y-64249390D02*
X131077714Y-64201771D01*
X131077714Y-64201771D02*
X131030095Y-64154152D01*
X131030095Y-64154152D02*
X130982476Y-64058914D01*
X130982476Y-64058914D02*
X130982476Y-64011295D01*
X130982476Y-64011295D02*
X131030095Y-63916057D01*
X131030095Y-63916057D02*
X131077714Y-63868438D01*
X131077714Y-63868438D02*
X131172952Y-63820819D01*
X131172952Y-63820819D02*
X131363428Y-63820819D01*
X131363428Y-63820819D02*
X131458666Y-63868438D01*
X131458666Y-63868438D02*
X131506285Y-63916057D01*
X131506285Y-63916057D02*
X131553904Y-64011295D01*
X131553904Y-64011295D02*
X131553904Y-64058914D01*
X131553904Y-64058914D02*
X131506285Y-64154152D01*
X131506285Y-64154152D02*
X131458666Y-64201771D01*
X131458666Y-64201771D02*
X131363428Y-64249390D01*
X131363428Y-64249390D02*
X131172952Y-64249390D01*
X131172952Y-64249390D02*
X131077714Y-64297009D01*
X131077714Y-64297009D02*
X131030095Y-64344628D01*
X131030095Y-64344628D02*
X130982476Y-64439866D01*
X130982476Y-64439866D02*
X130982476Y-64630342D01*
X130982476Y-64630342D02*
X131030095Y-64725580D01*
X131030095Y-64725580D02*
X131077714Y-64773200D01*
X131077714Y-64773200D02*
X131172952Y-64820819D01*
X131172952Y-64820819D02*
X131363428Y-64820819D01*
X131363428Y-64820819D02*
X131458666Y-64773200D01*
X131458666Y-64773200D02*
X131506285Y-64725580D01*
X131506285Y-64725580D02*
X131553904Y-64630342D01*
X131553904Y-64630342D02*
X131553904Y-64439866D01*
X131553904Y-64439866D02*
X131506285Y-64344628D01*
X131506285Y-64344628D02*
X131458666Y-64297009D01*
X131458666Y-64297009D02*
X131363428Y-64249390D01*
X67101714Y-73964819D02*
X67101714Y-72964819D01*
X67101714Y-72964819D02*
X67339809Y-72964819D01*
X67339809Y-72964819D02*
X67482666Y-73012438D01*
X67482666Y-73012438D02*
X67577904Y-73107676D01*
X67577904Y-73107676D02*
X67625523Y-73202914D01*
X67625523Y-73202914D02*
X67673142Y-73393390D01*
X67673142Y-73393390D02*
X67673142Y-73536247D01*
X67673142Y-73536247D02*
X67625523Y-73726723D01*
X67625523Y-73726723D02*
X67577904Y-73821961D01*
X67577904Y-73821961D02*
X67482666Y-73917200D01*
X67482666Y-73917200D02*
X67339809Y-73964819D01*
X67339809Y-73964819D02*
X67101714Y-73964819D01*
X68054095Y-73060057D02*
X68101714Y-73012438D01*
X68101714Y-73012438D02*
X68196952Y-72964819D01*
X68196952Y-72964819D02*
X68435047Y-72964819D01*
X68435047Y-72964819D02*
X68530285Y-73012438D01*
X68530285Y-73012438D02*
X68577904Y-73060057D01*
X68577904Y-73060057D02*
X68625523Y-73155295D01*
X68625523Y-73155295D02*
X68625523Y-73250533D01*
X68625523Y-73250533D02*
X68577904Y-73393390D01*
X68577904Y-73393390D02*
X68006476Y-73964819D01*
X68006476Y-73964819D02*
X68625523Y-73964819D01*
X69530285Y-72964819D02*
X69054095Y-72964819D01*
X69054095Y-72964819D02*
X69006476Y-73441009D01*
X69006476Y-73441009D02*
X69054095Y-73393390D01*
X69054095Y-73393390D02*
X69149333Y-73345771D01*
X69149333Y-73345771D02*
X69387428Y-73345771D01*
X69387428Y-73345771D02*
X69482666Y-73393390D01*
X69482666Y-73393390D02*
X69530285Y-73441009D01*
X69530285Y-73441009D02*
X69577904Y-73536247D01*
X69577904Y-73536247D02*
X69577904Y-73774342D01*
X69577904Y-73774342D02*
X69530285Y-73869580D01*
X69530285Y-73869580D02*
X69482666Y-73917200D01*
X69482666Y-73917200D02*
X69387428Y-73964819D01*
X69387428Y-73964819D02*
X69149333Y-73964819D01*
X69149333Y-73964819D02*
X69054095Y-73917200D01*
X69054095Y-73917200D02*
X69006476Y-73869580D01*
X178358714Y-67868819D02*
X178358714Y-66868819D01*
X178358714Y-66868819D02*
X178596809Y-66868819D01*
X178596809Y-66868819D02*
X178739666Y-66916438D01*
X178739666Y-66916438D02*
X178834904Y-67011676D01*
X178834904Y-67011676D02*
X178882523Y-67106914D01*
X178882523Y-67106914D02*
X178930142Y-67297390D01*
X178930142Y-67297390D02*
X178930142Y-67440247D01*
X178930142Y-67440247D02*
X178882523Y-67630723D01*
X178882523Y-67630723D02*
X178834904Y-67725961D01*
X178834904Y-67725961D02*
X178739666Y-67821200D01*
X178739666Y-67821200D02*
X178596809Y-67868819D01*
X178596809Y-67868819D02*
X178358714Y-67868819D01*
X179882523Y-67868819D02*
X179311095Y-67868819D01*
X179596809Y-67868819D02*
X179596809Y-66868819D01*
X179596809Y-66868819D02*
X179501571Y-67011676D01*
X179501571Y-67011676D02*
X179406333Y-67106914D01*
X179406333Y-67106914D02*
X179311095Y-67154533D01*
X180739666Y-67202152D02*
X180739666Y-67868819D01*
X180501571Y-66821200D02*
X180263476Y-67535485D01*
X180263476Y-67535485D02*
X180882523Y-67535485D01*
X159567714Y-88742819D02*
X159567714Y-87742819D01*
X159567714Y-87742819D02*
X159805809Y-87742819D01*
X159805809Y-87742819D02*
X159948666Y-87790438D01*
X159948666Y-87790438D02*
X160043904Y-87885676D01*
X160043904Y-87885676D02*
X160091523Y-87980914D01*
X160091523Y-87980914D02*
X160139142Y-88171390D01*
X160139142Y-88171390D02*
X160139142Y-88314247D01*
X160139142Y-88314247D02*
X160091523Y-88504723D01*
X160091523Y-88504723D02*
X160043904Y-88599961D01*
X160043904Y-88599961D02*
X159948666Y-88695200D01*
X159948666Y-88695200D02*
X159805809Y-88742819D01*
X159805809Y-88742819D02*
X159567714Y-88742819D01*
X161091523Y-88742819D02*
X160520095Y-88742819D01*
X160805809Y-88742819D02*
X160805809Y-87742819D01*
X160805809Y-87742819D02*
X160710571Y-87885676D01*
X160710571Y-87885676D02*
X160615333Y-87980914D01*
X160615333Y-87980914D02*
X160520095Y-88028533D01*
X161472476Y-87838057D02*
X161520095Y-87790438D01*
X161520095Y-87790438D02*
X161615333Y-87742819D01*
X161615333Y-87742819D02*
X161853428Y-87742819D01*
X161853428Y-87742819D02*
X161948666Y-87790438D01*
X161948666Y-87790438D02*
X161996285Y-87838057D01*
X161996285Y-87838057D02*
X162043904Y-87933295D01*
X162043904Y-87933295D02*
X162043904Y-88028533D01*
X162043904Y-88028533D02*
X161996285Y-88171390D01*
X161996285Y-88171390D02*
X161424857Y-88742819D01*
X161424857Y-88742819D02*
X162043904Y-88742819D01*
X135686714Y-88996819D02*
X135686714Y-87996819D01*
X135686714Y-87996819D02*
X135924809Y-87996819D01*
X135924809Y-87996819D02*
X136067666Y-88044438D01*
X136067666Y-88044438D02*
X136162904Y-88139676D01*
X136162904Y-88139676D02*
X136210523Y-88234914D01*
X136210523Y-88234914D02*
X136258142Y-88425390D01*
X136258142Y-88425390D02*
X136258142Y-88568247D01*
X136258142Y-88568247D02*
X136210523Y-88758723D01*
X136210523Y-88758723D02*
X136162904Y-88853961D01*
X136162904Y-88853961D02*
X136067666Y-88949200D01*
X136067666Y-88949200D02*
X135924809Y-88996819D01*
X135924809Y-88996819D02*
X135686714Y-88996819D01*
X136639095Y-88092057D02*
X136686714Y-88044438D01*
X136686714Y-88044438D02*
X136781952Y-87996819D01*
X136781952Y-87996819D02*
X137020047Y-87996819D01*
X137020047Y-87996819D02*
X137115285Y-88044438D01*
X137115285Y-88044438D02*
X137162904Y-88092057D01*
X137162904Y-88092057D02*
X137210523Y-88187295D01*
X137210523Y-88187295D02*
X137210523Y-88282533D01*
X137210523Y-88282533D02*
X137162904Y-88425390D01*
X137162904Y-88425390D02*
X136591476Y-88996819D01*
X136591476Y-88996819D02*
X137210523Y-88996819D01*
X138067666Y-88330152D02*
X138067666Y-88996819D01*
X137829571Y-87949200D02*
X137591476Y-88663485D01*
X137591476Y-88663485D02*
X138210523Y-88663485D01*
X129072714Y-81076819D02*
X129072714Y-80076819D01*
X129072714Y-80076819D02*
X129310809Y-80076819D01*
X129310809Y-80076819D02*
X129453666Y-80124438D01*
X129453666Y-80124438D02*
X129548904Y-80219676D01*
X129548904Y-80219676D02*
X129596523Y-80314914D01*
X129596523Y-80314914D02*
X129644142Y-80505390D01*
X129644142Y-80505390D02*
X129644142Y-80648247D01*
X129644142Y-80648247D02*
X129596523Y-80838723D01*
X129596523Y-80838723D02*
X129548904Y-80933961D01*
X129548904Y-80933961D02*
X129453666Y-81029200D01*
X129453666Y-81029200D02*
X129310809Y-81076819D01*
X129310809Y-81076819D02*
X129072714Y-81076819D01*
X130025095Y-80172057D02*
X130072714Y-80124438D01*
X130072714Y-80124438D02*
X130167952Y-80076819D01*
X130167952Y-80076819D02*
X130406047Y-80076819D01*
X130406047Y-80076819D02*
X130501285Y-80124438D01*
X130501285Y-80124438D02*
X130548904Y-80172057D01*
X130548904Y-80172057D02*
X130596523Y-80267295D01*
X130596523Y-80267295D02*
X130596523Y-80362533D01*
X130596523Y-80362533D02*
X130548904Y-80505390D01*
X130548904Y-80505390D02*
X129977476Y-81076819D01*
X129977476Y-81076819D02*
X130596523Y-81076819D01*
X131215571Y-80076819D02*
X131310809Y-80076819D01*
X131310809Y-80076819D02*
X131406047Y-80124438D01*
X131406047Y-80124438D02*
X131453666Y-80172057D01*
X131453666Y-80172057D02*
X131501285Y-80267295D01*
X131501285Y-80267295D02*
X131548904Y-80457771D01*
X131548904Y-80457771D02*
X131548904Y-80695866D01*
X131548904Y-80695866D02*
X131501285Y-80886342D01*
X131501285Y-80886342D02*
X131453666Y-80981580D01*
X131453666Y-80981580D02*
X131406047Y-81029200D01*
X131406047Y-81029200D02*
X131310809Y-81076819D01*
X131310809Y-81076819D02*
X131215571Y-81076819D01*
X131215571Y-81076819D02*
X131120333Y-81029200D01*
X131120333Y-81029200D02*
X131072714Y-80981580D01*
X131072714Y-80981580D02*
X131025095Y-80886342D01*
X131025095Y-80886342D02*
X130977476Y-80695866D01*
X130977476Y-80695866D02*
X130977476Y-80457771D01*
X130977476Y-80457771D02*
X131025095Y-80267295D01*
X131025095Y-80267295D02*
X131072714Y-80172057D01*
X131072714Y-80172057D02*
X131120333Y-80124438D01*
X131120333Y-80124438D02*
X131215571Y-80076819D01*
X86378905Y-86456819D02*
X86378905Y-85456819D01*
X86378905Y-85456819D02*
X86617000Y-85456819D01*
X86617000Y-85456819D02*
X86759857Y-85504438D01*
X86759857Y-85504438D02*
X86855095Y-85599676D01*
X86855095Y-85599676D02*
X86902714Y-85694914D01*
X86902714Y-85694914D02*
X86950333Y-85885390D01*
X86950333Y-85885390D02*
X86950333Y-86028247D01*
X86950333Y-86028247D02*
X86902714Y-86218723D01*
X86902714Y-86218723D02*
X86855095Y-86313961D01*
X86855095Y-86313961D02*
X86759857Y-86409200D01*
X86759857Y-86409200D02*
X86617000Y-86456819D01*
X86617000Y-86456819D02*
X86378905Y-86456819D01*
X87283667Y-85456819D02*
X87950333Y-85456819D01*
X87950333Y-85456819D02*
X87521762Y-86456819D01*
X86378905Y-77312819D02*
X86378905Y-76312819D01*
X86378905Y-76312819D02*
X86617000Y-76312819D01*
X86617000Y-76312819D02*
X86759857Y-76360438D01*
X86759857Y-76360438D02*
X86855095Y-76455676D01*
X86855095Y-76455676D02*
X86902714Y-76550914D01*
X86902714Y-76550914D02*
X86950333Y-76741390D01*
X86950333Y-76741390D02*
X86950333Y-76884247D01*
X86950333Y-76884247D02*
X86902714Y-77074723D01*
X86902714Y-77074723D02*
X86855095Y-77169961D01*
X86855095Y-77169961D02*
X86759857Y-77265200D01*
X86759857Y-77265200D02*
X86617000Y-77312819D01*
X86617000Y-77312819D02*
X86378905Y-77312819D01*
X87807476Y-76312819D02*
X87617000Y-76312819D01*
X87617000Y-76312819D02*
X87521762Y-76360438D01*
X87521762Y-76360438D02*
X87474143Y-76408057D01*
X87474143Y-76408057D02*
X87378905Y-76550914D01*
X87378905Y-76550914D02*
X87331286Y-76741390D01*
X87331286Y-76741390D02*
X87331286Y-77122342D01*
X87331286Y-77122342D02*
X87378905Y-77217580D01*
X87378905Y-77217580D02*
X87426524Y-77265200D01*
X87426524Y-77265200D02*
X87521762Y-77312819D01*
X87521762Y-77312819D02*
X87712238Y-77312819D01*
X87712238Y-77312819D02*
X87807476Y-77265200D01*
X87807476Y-77265200D02*
X87855095Y-77217580D01*
X87855095Y-77217580D02*
X87902714Y-77122342D01*
X87902714Y-77122342D02*
X87902714Y-76884247D01*
X87902714Y-76884247D02*
X87855095Y-76789009D01*
X87855095Y-76789009D02*
X87807476Y-76741390D01*
X87807476Y-76741390D02*
X87712238Y-76693771D01*
X87712238Y-76693771D02*
X87521762Y-76693771D01*
X87521762Y-76693771D02*
X87426524Y-76741390D01*
X87426524Y-76741390D02*
X87378905Y-76789009D01*
X87378905Y-76789009D02*
X87331286Y-76884247D01*
X129077714Y-56692819D02*
X129077714Y-55692819D01*
X129077714Y-55692819D02*
X129315809Y-55692819D01*
X129315809Y-55692819D02*
X129458666Y-55740438D01*
X129458666Y-55740438D02*
X129553904Y-55835676D01*
X129553904Y-55835676D02*
X129601523Y-55930914D01*
X129601523Y-55930914D02*
X129649142Y-56121390D01*
X129649142Y-56121390D02*
X129649142Y-56264247D01*
X129649142Y-56264247D02*
X129601523Y-56454723D01*
X129601523Y-56454723D02*
X129553904Y-56549961D01*
X129553904Y-56549961D02*
X129458666Y-56645200D01*
X129458666Y-56645200D02*
X129315809Y-56692819D01*
X129315809Y-56692819D02*
X129077714Y-56692819D01*
X130601523Y-56692819D02*
X130030095Y-56692819D01*
X130315809Y-56692819D02*
X130315809Y-55692819D01*
X130315809Y-55692819D02*
X130220571Y-55835676D01*
X130220571Y-55835676D02*
X130125333Y-55930914D01*
X130125333Y-55930914D02*
X130030095Y-55978533D01*
X130934857Y-55692819D02*
X131601523Y-55692819D01*
X131601523Y-55692819D02*
X131172952Y-56692819D01*
X135686714Y-64612819D02*
X135686714Y-63612819D01*
X135686714Y-63612819D02*
X135924809Y-63612819D01*
X135924809Y-63612819D02*
X136067666Y-63660438D01*
X136067666Y-63660438D02*
X136162904Y-63755676D01*
X136162904Y-63755676D02*
X136210523Y-63850914D01*
X136210523Y-63850914D02*
X136258142Y-64041390D01*
X136258142Y-64041390D02*
X136258142Y-64184247D01*
X136258142Y-64184247D02*
X136210523Y-64374723D01*
X136210523Y-64374723D02*
X136162904Y-64469961D01*
X136162904Y-64469961D02*
X136067666Y-64565200D01*
X136067666Y-64565200D02*
X135924809Y-64612819D01*
X135924809Y-64612819D02*
X135686714Y-64612819D01*
X136639095Y-63708057D02*
X136686714Y-63660438D01*
X136686714Y-63660438D02*
X136781952Y-63612819D01*
X136781952Y-63612819D02*
X137020047Y-63612819D01*
X137020047Y-63612819D02*
X137115285Y-63660438D01*
X137115285Y-63660438D02*
X137162904Y-63708057D01*
X137162904Y-63708057D02*
X137210523Y-63803295D01*
X137210523Y-63803295D02*
X137210523Y-63898533D01*
X137210523Y-63898533D02*
X137162904Y-64041390D01*
X137162904Y-64041390D02*
X136591476Y-64612819D01*
X136591476Y-64612819D02*
X137210523Y-64612819D01*
X138162904Y-64612819D02*
X137591476Y-64612819D01*
X137877190Y-64612819D02*
X137877190Y-63612819D01*
X137877190Y-63612819D02*
X137781952Y-63755676D01*
X137781952Y-63755676D02*
X137686714Y-63850914D01*
X137686714Y-63850914D02*
X137591476Y-63898533D01*
X178353714Y-58724819D02*
X178353714Y-57724819D01*
X178353714Y-57724819D02*
X178591809Y-57724819D01*
X178591809Y-57724819D02*
X178734666Y-57772438D01*
X178734666Y-57772438D02*
X178829904Y-57867676D01*
X178829904Y-57867676D02*
X178877523Y-57962914D01*
X178877523Y-57962914D02*
X178925142Y-58153390D01*
X178925142Y-58153390D02*
X178925142Y-58296247D01*
X178925142Y-58296247D02*
X178877523Y-58486723D01*
X178877523Y-58486723D02*
X178829904Y-58581961D01*
X178829904Y-58581961D02*
X178734666Y-58677200D01*
X178734666Y-58677200D02*
X178591809Y-58724819D01*
X178591809Y-58724819D02*
X178353714Y-58724819D01*
X179877523Y-58724819D02*
X179306095Y-58724819D01*
X179591809Y-58724819D02*
X179591809Y-57724819D01*
X179591809Y-57724819D02*
X179496571Y-57867676D01*
X179496571Y-57867676D02*
X179401333Y-57962914D01*
X179401333Y-57962914D02*
X179306095Y-58010533D01*
X180210857Y-57724819D02*
X180829904Y-57724819D01*
X180829904Y-57724819D02*
X180496571Y-58105771D01*
X180496571Y-58105771D02*
X180639428Y-58105771D01*
X180639428Y-58105771D02*
X180734666Y-58153390D01*
X180734666Y-58153390D02*
X180782285Y-58201009D01*
X180782285Y-58201009D02*
X180829904Y-58296247D01*
X180829904Y-58296247D02*
X180829904Y-58534342D01*
X180829904Y-58534342D02*
X180782285Y-58629580D01*
X180782285Y-58629580D02*
X180734666Y-58677200D01*
X180734666Y-58677200D02*
X180639428Y-58724819D01*
X180639428Y-58724819D02*
X180353714Y-58724819D01*
X180353714Y-58724819D02*
X180258476Y-58677200D01*
X180258476Y-58677200D02*
X180210857Y-58629580D01*
X135686714Y-72740819D02*
X135686714Y-71740819D01*
X135686714Y-71740819D02*
X135924809Y-71740819D01*
X135924809Y-71740819D02*
X136067666Y-71788438D01*
X136067666Y-71788438D02*
X136162904Y-71883676D01*
X136162904Y-71883676D02*
X136210523Y-71978914D01*
X136210523Y-71978914D02*
X136258142Y-72169390D01*
X136258142Y-72169390D02*
X136258142Y-72312247D01*
X136258142Y-72312247D02*
X136210523Y-72502723D01*
X136210523Y-72502723D02*
X136162904Y-72597961D01*
X136162904Y-72597961D02*
X136067666Y-72693200D01*
X136067666Y-72693200D02*
X135924809Y-72740819D01*
X135924809Y-72740819D02*
X135686714Y-72740819D01*
X136639095Y-71836057D02*
X136686714Y-71788438D01*
X136686714Y-71788438D02*
X136781952Y-71740819D01*
X136781952Y-71740819D02*
X137020047Y-71740819D01*
X137020047Y-71740819D02*
X137115285Y-71788438D01*
X137115285Y-71788438D02*
X137162904Y-71836057D01*
X137162904Y-71836057D02*
X137210523Y-71931295D01*
X137210523Y-71931295D02*
X137210523Y-72026533D01*
X137210523Y-72026533D02*
X137162904Y-72169390D01*
X137162904Y-72169390D02*
X136591476Y-72740819D01*
X136591476Y-72740819D02*
X137210523Y-72740819D01*
X137591476Y-71836057D02*
X137639095Y-71788438D01*
X137639095Y-71788438D02*
X137734333Y-71740819D01*
X137734333Y-71740819D02*
X137972428Y-71740819D01*
X137972428Y-71740819D02*
X138067666Y-71788438D01*
X138067666Y-71788438D02*
X138115285Y-71836057D01*
X138115285Y-71836057D02*
X138162904Y-71931295D01*
X138162904Y-71931295D02*
X138162904Y-72026533D01*
X138162904Y-72026533D02*
X138115285Y-72169390D01*
X138115285Y-72169390D02*
X137543857Y-72740819D01*
X137543857Y-72740819D02*
X138162904Y-72740819D01*
X159567714Y-72486819D02*
X159567714Y-71486819D01*
X159567714Y-71486819D02*
X159805809Y-71486819D01*
X159805809Y-71486819D02*
X159948666Y-71534438D01*
X159948666Y-71534438D02*
X160043904Y-71629676D01*
X160043904Y-71629676D02*
X160091523Y-71724914D01*
X160091523Y-71724914D02*
X160139142Y-71915390D01*
X160139142Y-71915390D02*
X160139142Y-72058247D01*
X160139142Y-72058247D02*
X160091523Y-72248723D01*
X160091523Y-72248723D02*
X160043904Y-72343961D01*
X160043904Y-72343961D02*
X159948666Y-72439200D01*
X159948666Y-72439200D02*
X159805809Y-72486819D01*
X159805809Y-72486819D02*
X159567714Y-72486819D01*
X161091523Y-72486819D02*
X160520095Y-72486819D01*
X160805809Y-72486819D02*
X160805809Y-71486819D01*
X160805809Y-71486819D02*
X160710571Y-71629676D01*
X160710571Y-71629676D02*
X160615333Y-71724914D01*
X160615333Y-71724914D02*
X160520095Y-71772533D01*
X161710571Y-71486819D02*
X161805809Y-71486819D01*
X161805809Y-71486819D02*
X161901047Y-71534438D01*
X161901047Y-71534438D02*
X161948666Y-71582057D01*
X161948666Y-71582057D02*
X161996285Y-71677295D01*
X161996285Y-71677295D02*
X162043904Y-71867771D01*
X162043904Y-71867771D02*
X162043904Y-72105866D01*
X162043904Y-72105866D02*
X161996285Y-72296342D01*
X161996285Y-72296342D02*
X161948666Y-72391580D01*
X161948666Y-72391580D02*
X161901047Y-72439200D01*
X161901047Y-72439200D02*
X161805809Y-72486819D01*
X161805809Y-72486819D02*
X161710571Y-72486819D01*
X161710571Y-72486819D02*
X161615333Y-72439200D01*
X161615333Y-72439200D02*
X161567714Y-72391580D01*
X161567714Y-72391580D02*
X161520095Y-72296342D01*
X161520095Y-72296342D02*
X161472476Y-72105866D01*
X161472476Y-72105866D02*
X161472476Y-71867771D01*
X161472476Y-71867771D02*
X161520095Y-71677295D01*
X161520095Y-71677295D02*
X161567714Y-71582057D01*
X161567714Y-71582057D02*
X161615333Y-71534438D01*
X161615333Y-71534438D02*
X161710571Y-71486819D01*
X197159714Y-71216819D02*
X197159714Y-70216819D01*
X197159714Y-70216819D02*
X197397809Y-70216819D01*
X197397809Y-70216819D02*
X197540666Y-70264438D01*
X197540666Y-70264438D02*
X197635904Y-70359676D01*
X197635904Y-70359676D02*
X197683523Y-70454914D01*
X197683523Y-70454914D02*
X197731142Y-70645390D01*
X197731142Y-70645390D02*
X197731142Y-70788247D01*
X197731142Y-70788247D02*
X197683523Y-70978723D01*
X197683523Y-70978723D02*
X197635904Y-71073961D01*
X197635904Y-71073961D02*
X197540666Y-71169200D01*
X197540666Y-71169200D02*
X197397809Y-71216819D01*
X197397809Y-71216819D02*
X197159714Y-71216819D01*
X198683523Y-71216819D02*
X198112095Y-71216819D01*
X198397809Y-71216819D02*
X198397809Y-70216819D01*
X198397809Y-70216819D02*
X198302571Y-70359676D01*
X198302571Y-70359676D02*
X198207333Y-70454914D01*
X198207333Y-70454914D02*
X198112095Y-70502533D01*
X199540666Y-70216819D02*
X199350190Y-70216819D01*
X199350190Y-70216819D02*
X199254952Y-70264438D01*
X199254952Y-70264438D02*
X199207333Y-70312057D01*
X199207333Y-70312057D02*
X199112095Y-70454914D01*
X199112095Y-70454914D02*
X199064476Y-70645390D01*
X199064476Y-70645390D02*
X199064476Y-71026342D01*
X199064476Y-71026342D02*
X199112095Y-71121580D01*
X199112095Y-71121580D02*
X199159714Y-71169200D01*
X199159714Y-71169200D02*
X199254952Y-71216819D01*
X199254952Y-71216819D02*
X199445428Y-71216819D01*
X199445428Y-71216819D02*
X199540666Y-71169200D01*
X199540666Y-71169200D02*
X199588285Y-71121580D01*
X199588285Y-71121580D02*
X199635904Y-71026342D01*
X199635904Y-71026342D02*
X199635904Y-70788247D01*
X199635904Y-70788247D02*
X199588285Y-70693009D01*
X199588285Y-70693009D02*
X199540666Y-70645390D01*
X199540666Y-70645390D02*
X199445428Y-70597771D01*
X199445428Y-70597771D02*
X199254952Y-70597771D01*
X199254952Y-70597771D02*
X199159714Y-70645390D01*
X199159714Y-70645390D02*
X199112095Y-70693009D01*
X199112095Y-70693009D02*
X199064476Y-70788247D01*
X197164714Y-80360819D02*
X197164714Y-79360819D01*
X197164714Y-79360819D02*
X197402809Y-79360819D01*
X197402809Y-79360819D02*
X197545666Y-79408438D01*
X197545666Y-79408438D02*
X197640904Y-79503676D01*
X197640904Y-79503676D02*
X197688523Y-79598914D01*
X197688523Y-79598914D02*
X197736142Y-79789390D01*
X197736142Y-79789390D02*
X197736142Y-79932247D01*
X197736142Y-79932247D02*
X197688523Y-80122723D01*
X197688523Y-80122723D02*
X197640904Y-80217961D01*
X197640904Y-80217961D02*
X197545666Y-80313200D01*
X197545666Y-80313200D02*
X197402809Y-80360819D01*
X197402809Y-80360819D02*
X197164714Y-80360819D01*
X198117095Y-79456057D02*
X198164714Y-79408438D01*
X198164714Y-79408438D02*
X198259952Y-79360819D01*
X198259952Y-79360819D02*
X198498047Y-79360819D01*
X198498047Y-79360819D02*
X198593285Y-79408438D01*
X198593285Y-79408438D02*
X198640904Y-79456057D01*
X198640904Y-79456057D02*
X198688523Y-79551295D01*
X198688523Y-79551295D02*
X198688523Y-79646533D01*
X198688523Y-79646533D02*
X198640904Y-79789390D01*
X198640904Y-79789390D02*
X198069476Y-80360819D01*
X198069476Y-80360819D02*
X198688523Y-80360819D01*
X199545666Y-79360819D02*
X199355190Y-79360819D01*
X199355190Y-79360819D02*
X199259952Y-79408438D01*
X199259952Y-79408438D02*
X199212333Y-79456057D01*
X199212333Y-79456057D02*
X199117095Y-79598914D01*
X199117095Y-79598914D02*
X199069476Y-79789390D01*
X199069476Y-79789390D02*
X199069476Y-80170342D01*
X199069476Y-80170342D02*
X199117095Y-80265580D01*
X199117095Y-80265580D02*
X199164714Y-80313200D01*
X199164714Y-80313200D02*
X199259952Y-80360819D01*
X199259952Y-80360819D02*
X199450428Y-80360819D01*
X199450428Y-80360819D02*
X199545666Y-80313200D01*
X199545666Y-80313200D02*
X199593285Y-80265580D01*
X199593285Y-80265580D02*
X199640904Y-80170342D01*
X199640904Y-80170342D02*
X199640904Y-79932247D01*
X199640904Y-79932247D02*
X199593285Y-79837009D01*
X199593285Y-79837009D02*
X199545666Y-79789390D01*
X199545666Y-79789390D02*
X199450428Y-79741771D01*
X199450428Y-79741771D02*
X199259952Y-79741771D01*
X199259952Y-79741771D02*
X199164714Y-79789390D01*
X199164714Y-79789390D02*
X199117095Y-79837009D01*
X199117095Y-79837009D02*
X199069476Y-79932247D01*
X129077714Y-72948819D02*
X129077714Y-71948819D01*
X129077714Y-71948819D02*
X129315809Y-71948819D01*
X129315809Y-71948819D02*
X129458666Y-71996438D01*
X129458666Y-71996438D02*
X129553904Y-72091676D01*
X129553904Y-72091676D02*
X129601523Y-72186914D01*
X129601523Y-72186914D02*
X129649142Y-72377390D01*
X129649142Y-72377390D02*
X129649142Y-72520247D01*
X129649142Y-72520247D02*
X129601523Y-72710723D01*
X129601523Y-72710723D02*
X129553904Y-72805961D01*
X129553904Y-72805961D02*
X129458666Y-72901200D01*
X129458666Y-72901200D02*
X129315809Y-72948819D01*
X129315809Y-72948819D02*
X129077714Y-72948819D01*
X130601523Y-72948819D02*
X130030095Y-72948819D01*
X130315809Y-72948819D02*
X130315809Y-71948819D01*
X130315809Y-71948819D02*
X130220571Y-72091676D01*
X130220571Y-72091676D02*
X130125333Y-72186914D01*
X130125333Y-72186914D02*
X130030095Y-72234533D01*
X131077714Y-72948819D02*
X131268190Y-72948819D01*
X131268190Y-72948819D02*
X131363428Y-72901200D01*
X131363428Y-72901200D02*
X131411047Y-72853580D01*
X131411047Y-72853580D02*
X131506285Y-72710723D01*
X131506285Y-72710723D02*
X131553904Y-72520247D01*
X131553904Y-72520247D02*
X131553904Y-72139295D01*
X131553904Y-72139295D02*
X131506285Y-72044057D01*
X131506285Y-72044057D02*
X131458666Y-71996438D01*
X131458666Y-71996438D02*
X131363428Y-71948819D01*
X131363428Y-71948819D02*
X131172952Y-71948819D01*
X131172952Y-71948819D02*
X131077714Y-71996438D01*
X131077714Y-71996438D02*
X131030095Y-72044057D01*
X131030095Y-72044057D02*
X130982476Y-72139295D01*
X130982476Y-72139295D02*
X130982476Y-72377390D01*
X130982476Y-72377390D02*
X131030095Y-72472628D01*
X131030095Y-72472628D02*
X131077714Y-72520247D01*
X131077714Y-72520247D02*
X131172952Y-72567866D01*
X131172952Y-72567866D02*
X131363428Y-72567866D01*
X131363428Y-72567866D02*
X131458666Y-72520247D01*
X131458666Y-72520247D02*
X131506285Y-72472628D01*
X131506285Y-72472628D02*
X131553904Y-72377390D01*
X178353714Y-77012819D02*
X178353714Y-76012819D01*
X178353714Y-76012819D02*
X178591809Y-76012819D01*
X178591809Y-76012819D02*
X178734666Y-76060438D01*
X178734666Y-76060438D02*
X178829904Y-76155676D01*
X178829904Y-76155676D02*
X178877523Y-76250914D01*
X178877523Y-76250914D02*
X178925142Y-76441390D01*
X178925142Y-76441390D02*
X178925142Y-76584247D01*
X178925142Y-76584247D02*
X178877523Y-76774723D01*
X178877523Y-76774723D02*
X178829904Y-76869961D01*
X178829904Y-76869961D02*
X178734666Y-76965200D01*
X178734666Y-76965200D02*
X178591809Y-77012819D01*
X178591809Y-77012819D02*
X178353714Y-77012819D01*
X179877523Y-77012819D02*
X179306095Y-77012819D01*
X179591809Y-77012819D02*
X179591809Y-76012819D01*
X179591809Y-76012819D02*
X179496571Y-76155676D01*
X179496571Y-76155676D02*
X179401333Y-76250914D01*
X179401333Y-76250914D02*
X179306095Y-76298533D01*
X180782285Y-76012819D02*
X180306095Y-76012819D01*
X180306095Y-76012819D02*
X180258476Y-76489009D01*
X180258476Y-76489009D02*
X180306095Y-76441390D01*
X180306095Y-76441390D02*
X180401333Y-76393771D01*
X180401333Y-76393771D02*
X180639428Y-76393771D01*
X180639428Y-76393771D02*
X180734666Y-76441390D01*
X180734666Y-76441390D02*
X180782285Y-76489009D01*
X180782285Y-76489009D02*
X180829904Y-76584247D01*
X180829904Y-76584247D02*
X180829904Y-76822342D01*
X180829904Y-76822342D02*
X180782285Y-76917580D01*
X180782285Y-76917580D02*
X180734666Y-76965200D01*
X180734666Y-76965200D02*
X180639428Y-77012819D01*
X180639428Y-77012819D02*
X180401333Y-77012819D01*
X180401333Y-77012819D02*
X180306095Y-76965200D01*
X180306095Y-76965200D02*
X180258476Y-76917580D01*
X105174905Y-72694819D02*
X105174905Y-71694819D01*
X105174905Y-71694819D02*
X105413000Y-71694819D01*
X105413000Y-71694819D02*
X105555857Y-71742438D01*
X105555857Y-71742438D02*
X105651095Y-71837676D01*
X105651095Y-71837676D02*
X105698714Y-71932914D01*
X105698714Y-71932914D02*
X105746333Y-72123390D01*
X105746333Y-72123390D02*
X105746333Y-72266247D01*
X105746333Y-72266247D02*
X105698714Y-72456723D01*
X105698714Y-72456723D02*
X105651095Y-72551961D01*
X105651095Y-72551961D02*
X105555857Y-72647200D01*
X105555857Y-72647200D02*
X105413000Y-72694819D01*
X105413000Y-72694819D02*
X105174905Y-72694819D01*
X106079667Y-71694819D02*
X106698714Y-71694819D01*
X106698714Y-71694819D02*
X106365381Y-72075771D01*
X106365381Y-72075771D02*
X106508238Y-72075771D01*
X106508238Y-72075771D02*
X106603476Y-72123390D01*
X106603476Y-72123390D02*
X106651095Y-72171009D01*
X106651095Y-72171009D02*
X106698714Y-72266247D01*
X106698714Y-72266247D02*
X106698714Y-72504342D01*
X106698714Y-72504342D02*
X106651095Y-72599580D01*
X106651095Y-72599580D02*
X106603476Y-72647200D01*
X106603476Y-72647200D02*
X106508238Y-72694819D01*
X106508238Y-72694819D02*
X106222524Y-72694819D01*
X106222524Y-72694819D02*
X106127286Y-72647200D01*
X106127286Y-72647200D02*
X106079667Y-72599580D01*
X67577905Y-64820819D02*
X67577905Y-63820819D01*
X67577905Y-63820819D02*
X67816000Y-63820819D01*
X67816000Y-63820819D02*
X67958857Y-63868438D01*
X67958857Y-63868438D02*
X68054095Y-63963676D01*
X68054095Y-63963676D02*
X68101714Y-64058914D01*
X68101714Y-64058914D02*
X68149333Y-64249390D01*
X68149333Y-64249390D02*
X68149333Y-64392247D01*
X68149333Y-64392247D02*
X68101714Y-64582723D01*
X68101714Y-64582723D02*
X68054095Y-64677961D01*
X68054095Y-64677961D02*
X67958857Y-64773200D01*
X67958857Y-64773200D02*
X67816000Y-64820819D01*
X67816000Y-64820819D02*
X67577905Y-64820819D01*
X68720762Y-64249390D02*
X68625524Y-64201771D01*
X68625524Y-64201771D02*
X68577905Y-64154152D01*
X68577905Y-64154152D02*
X68530286Y-64058914D01*
X68530286Y-64058914D02*
X68530286Y-64011295D01*
X68530286Y-64011295D02*
X68577905Y-63916057D01*
X68577905Y-63916057D02*
X68625524Y-63868438D01*
X68625524Y-63868438D02*
X68720762Y-63820819D01*
X68720762Y-63820819D02*
X68911238Y-63820819D01*
X68911238Y-63820819D02*
X69006476Y-63868438D01*
X69006476Y-63868438D02*
X69054095Y-63916057D01*
X69054095Y-63916057D02*
X69101714Y-64011295D01*
X69101714Y-64011295D02*
X69101714Y-64058914D01*
X69101714Y-64058914D02*
X69054095Y-64154152D01*
X69054095Y-64154152D02*
X69006476Y-64201771D01*
X69006476Y-64201771D02*
X68911238Y-64249390D01*
X68911238Y-64249390D02*
X68720762Y-64249390D01*
X68720762Y-64249390D02*
X68625524Y-64297009D01*
X68625524Y-64297009D02*
X68577905Y-64344628D01*
X68577905Y-64344628D02*
X68530286Y-64439866D01*
X68530286Y-64439866D02*
X68530286Y-64630342D01*
X68530286Y-64630342D02*
X68577905Y-64725580D01*
X68577905Y-64725580D02*
X68625524Y-64773200D01*
X68625524Y-64773200D02*
X68720762Y-64820819D01*
X68720762Y-64820819D02*
X68911238Y-64820819D01*
X68911238Y-64820819D02*
X69006476Y-64773200D01*
X69006476Y-64773200D02*
X69054095Y-64725580D01*
X69054095Y-64725580D02*
X69101714Y-64630342D01*
X69101714Y-64630342D02*
X69101714Y-64439866D01*
X69101714Y-64439866D02*
X69054095Y-64344628D01*
X69054095Y-64344628D02*
X69006476Y-64297009D01*
X69006476Y-64297009D02*
X68911238Y-64249390D01*
X105169905Y-64566819D02*
X105169905Y-63566819D01*
X105169905Y-63566819D02*
X105408000Y-63566819D01*
X105408000Y-63566819D02*
X105550857Y-63614438D01*
X105550857Y-63614438D02*
X105646095Y-63709676D01*
X105646095Y-63709676D02*
X105693714Y-63804914D01*
X105693714Y-63804914D02*
X105741333Y-63995390D01*
X105741333Y-63995390D02*
X105741333Y-64138247D01*
X105741333Y-64138247D02*
X105693714Y-64328723D01*
X105693714Y-64328723D02*
X105646095Y-64423961D01*
X105646095Y-64423961D02*
X105550857Y-64519200D01*
X105550857Y-64519200D02*
X105408000Y-64566819D01*
X105408000Y-64566819D02*
X105169905Y-64566819D01*
X106122286Y-63662057D02*
X106169905Y-63614438D01*
X106169905Y-63614438D02*
X106265143Y-63566819D01*
X106265143Y-63566819D02*
X106503238Y-63566819D01*
X106503238Y-63566819D02*
X106598476Y-63614438D01*
X106598476Y-63614438D02*
X106646095Y-63662057D01*
X106646095Y-63662057D02*
X106693714Y-63757295D01*
X106693714Y-63757295D02*
X106693714Y-63852533D01*
X106693714Y-63852533D02*
X106646095Y-63995390D01*
X106646095Y-63995390D02*
X106074667Y-64566819D01*
X106074667Y-64566819D02*
X106693714Y-64566819D01*
X86378905Y-68168819D02*
X86378905Y-67168819D01*
X86378905Y-67168819D02*
X86617000Y-67168819D01*
X86617000Y-67168819D02*
X86759857Y-67216438D01*
X86759857Y-67216438D02*
X86855095Y-67311676D01*
X86855095Y-67311676D02*
X86902714Y-67406914D01*
X86902714Y-67406914D02*
X86950333Y-67597390D01*
X86950333Y-67597390D02*
X86950333Y-67740247D01*
X86950333Y-67740247D02*
X86902714Y-67930723D01*
X86902714Y-67930723D02*
X86855095Y-68025961D01*
X86855095Y-68025961D02*
X86759857Y-68121200D01*
X86759857Y-68121200D02*
X86617000Y-68168819D01*
X86617000Y-68168819D02*
X86378905Y-68168819D01*
X87855095Y-67168819D02*
X87378905Y-67168819D01*
X87378905Y-67168819D02*
X87331286Y-67645009D01*
X87331286Y-67645009D02*
X87378905Y-67597390D01*
X87378905Y-67597390D02*
X87474143Y-67549771D01*
X87474143Y-67549771D02*
X87712238Y-67549771D01*
X87712238Y-67549771D02*
X87807476Y-67597390D01*
X87807476Y-67597390D02*
X87855095Y-67645009D01*
X87855095Y-67645009D02*
X87902714Y-67740247D01*
X87902714Y-67740247D02*
X87902714Y-67978342D01*
X87902714Y-67978342D02*
X87855095Y-68073580D01*
X87855095Y-68073580D02*
X87807476Y-68121200D01*
X87807476Y-68121200D02*
X87712238Y-68168819D01*
X87712238Y-68168819D02*
X87474143Y-68168819D01*
X87474143Y-68168819D02*
X87378905Y-68121200D01*
X87378905Y-68121200D02*
X87331286Y-68073580D01*
D12*
%TO.C,D1*%
X103348000Y-58399000D02*
X103348000Y-61489000D01*
X103348000Y-58399170D02*
G75*
G02*
X108898000Y-59943952I2560000J-1544830D01*
G01*
X108898000Y-59944048D02*
G75*
G02*
X103348000Y-61488830I-2990000J48D01*
G01*
X108408000Y-59944000D02*
G75*
G02*
X103408000Y-59944000I-2500000J0D01*
G01*
X103408000Y-59944000D02*
G75*
G02*
X108408000Y-59944000I2500000J0D01*
G01*
%TO.C,D11*%
X163342000Y-77745000D02*
X163342000Y-74655000D01*
X157792000Y-76199952D02*
G75*
G02*
X163342000Y-74655170I2990000J-48D01*
G01*
X163342000Y-77744830D02*
G75*
G02*
X157792000Y-76200048I-2560000J1544830D01*
G01*
X163282000Y-76200000D02*
G75*
G02*
X158282000Y-76200000I-2500000J0D01*
G01*
X158282000Y-76200000D02*
G75*
G02*
X163282000Y-76200000I2500000J0D01*
G01*
%TO.C,D23*%
X139461000Y-77999000D02*
X139461000Y-74909000D01*
X133911000Y-76453952D02*
G75*
G02*
X139461000Y-74909170I2990000J-48D01*
G01*
X139461000Y-77998830D02*
G75*
G02*
X133911000Y-76454048I-2560000J1544830D01*
G01*
X139401000Y-76454000D02*
G75*
G02*
X134401000Y-76454000I-2500000J0D01*
G01*
X134401000Y-76454000D02*
G75*
G02*
X139401000Y-76454000I2500000J0D01*
G01*
%TO.C,D9*%
X163342000Y-61489000D02*
X163342000Y-58399000D01*
X157792000Y-59943952D02*
G75*
G02*
X163342000Y-58399170I2990000J-48D01*
G01*
X163342000Y-61488830D02*
G75*
G02*
X157792000Y-59944048I-2560000J1544830D01*
G01*
X163282000Y-59944000D02*
G75*
G02*
X158282000Y-59944000I-2500000J0D01*
G01*
X158282000Y-59944000D02*
G75*
G02*
X163282000Y-59944000I2500000J0D01*
G01*
%TO.C,D4*%
X103353000Y-82783000D02*
X103353000Y-85873000D01*
X103353000Y-82783170D02*
G75*
G02*
X108903000Y-84327952I2560000J-1544830D01*
G01*
X108903000Y-84328048D02*
G75*
G02*
X103353000Y-85872830I-2990000J48D01*
G01*
X108413000Y-84328000D02*
G75*
G02*
X103413000Y-84328000I-2500000J0D01*
G01*
X103413000Y-84328000D02*
G75*
G02*
X108413000Y-84328000I2500000J0D01*
G01*
%TO.C,D18*%
X127732000Y-66781000D02*
X127732000Y-69871000D01*
X127732000Y-66781170D02*
G75*
G02*
X133282000Y-68325952I2560000J-1544830D01*
G01*
X133282000Y-68326048D02*
G75*
G02*
X127732000Y-69870830I-2990000J48D01*
G01*
X132792000Y-68326000D02*
G75*
G02*
X127792000Y-68326000I-2500000J0D01*
G01*
X127792000Y-68326000D02*
G75*
G02*
X132792000Y-68326000I2500000J0D01*
G01*
%TO.C,D25*%
X65756000Y-75925000D02*
X65756000Y-79015000D01*
X65756000Y-75925170D02*
G75*
G02*
X71306000Y-77469952I2560000J-1544830D01*
G01*
X71306000Y-77470048D02*
G75*
G02*
X65756000Y-79014830I-2990000J48D01*
G01*
X70816000Y-77470000D02*
G75*
G02*
X65816000Y-77470000I-2500000J0D01*
G01*
X65816000Y-77470000D02*
G75*
G02*
X70816000Y-77470000I2500000J0D01*
G01*
%TO.C,D14*%
X177013000Y-69829000D02*
X177013000Y-72919000D01*
X177013000Y-69829170D02*
G75*
G02*
X182563000Y-71373952I2560000J-1544830D01*
G01*
X182563000Y-71374048D02*
G75*
G02*
X177013000Y-72918830I-2990000J48D01*
G01*
X182073000Y-71374000D02*
G75*
G02*
X177073000Y-71374000I-2500000J0D01*
G01*
X177073000Y-71374000D02*
G75*
G02*
X182073000Y-71374000I2500000J0D01*
G01*
%TO.C,D12*%
X163342000Y-85873000D02*
X163342000Y-82783000D01*
X157792000Y-84327952D02*
G75*
G02*
X163342000Y-82783170I2990000J-48D01*
G01*
X163342000Y-85872830D02*
G75*
G02*
X157792000Y-84328048I-2560000J1544830D01*
G01*
X163282000Y-84328000D02*
G75*
G02*
X158282000Y-84328000I-2500000J0D01*
G01*
X158282000Y-84328000D02*
G75*
G02*
X163282000Y-84328000I2500000J0D01*
G01*
%TO.C,D24*%
X139461000Y-86127000D02*
X139461000Y-83037000D01*
X133911000Y-84581952D02*
G75*
G02*
X139461000Y-83037170I2990000J-48D01*
G01*
X139461000Y-86126830D02*
G75*
G02*
X133911000Y-84582048I-2560000J1544830D01*
G01*
X139401000Y-84582000D02*
G75*
G02*
X134401000Y-84582000I-2500000J0D01*
G01*
X134401000Y-84582000D02*
G75*
G02*
X139401000Y-84582000I2500000J0D01*
G01*
%TO.C,D20*%
X127727000Y-83037000D02*
X127727000Y-86127000D01*
X127727000Y-83037170D02*
G75*
G02*
X133277000Y-84581952I2560000J-1544830D01*
G01*
X133277000Y-84582048D02*
G75*
G02*
X127727000Y-86126830I-2990000J48D01*
G01*
X132787000Y-84582000D02*
G75*
G02*
X127787000Y-84582000I-2500000J0D01*
G01*
X127787000Y-84582000D02*
G75*
G02*
X132787000Y-84582000I2500000J0D01*
G01*
%TO.C,D7*%
X89677000Y-83587000D02*
X89677000Y-80497000D01*
X84127000Y-82041952D02*
G75*
G02*
X89677000Y-80497170I2990000J-48D01*
G01*
X89677000Y-83586830D02*
G75*
G02*
X84127000Y-82042048I-2560000J1544830D01*
G01*
X89617000Y-82042000D02*
G75*
G02*
X84617000Y-82042000I-2500000J0D01*
G01*
X84617000Y-82042000D02*
G75*
G02*
X89617000Y-82042000I2500000J0D01*
G01*
%TO.C,D6*%
X89677000Y-74443000D02*
X89677000Y-71353000D01*
X84127000Y-72897952D02*
G75*
G02*
X89677000Y-71353170I2990000J-48D01*
G01*
X89677000Y-74442830D02*
G75*
G02*
X84127000Y-72898048I-2560000J1544830D01*
G01*
X89617000Y-72898000D02*
G75*
G02*
X84617000Y-72898000I-2500000J0D01*
G01*
X84617000Y-72898000D02*
G75*
G02*
X89617000Y-72898000I2500000J0D01*
G01*
%TO.C,D17*%
X127732000Y-58653000D02*
X127732000Y-61743000D01*
X127732000Y-58653170D02*
G75*
G02*
X133282000Y-60197952I2560000J-1544830D01*
G01*
X133282000Y-60198048D02*
G75*
G02*
X127732000Y-61742830I-2990000J48D01*
G01*
X132792000Y-60198000D02*
G75*
G02*
X127792000Y-60198000I-2500000J0D01*
G01*
X127792000Y-60198000D02*
G75*
G02*
X132792000Y-60198000I2500000J0D01*
G01*
%TO.C,D21*%
X139461000Y-61743000D02*
X139461000Y-58653000D01*
X133911000Y-60197952D02*
G75*
G02*
X139461000Y-58653170I2990000J-48D01*
G01*
X139461000Y-61742830D02*
G75*
G02*
X133911000Y-60198048I-2560000J1544830D01*
G01*
X139401000Y-60198000D02*
G75*
G02*
X134401000Y-60198000I-2500000J0D01*
G01*
X134401000Y-60198000D02*
G75*
G02*
X139401000Y-60198000I2500000J0D01*
G01*
%TO.C,D13*%
X177008000Y-60685000D02*
X177008000Y-63775000D01*
X177008000Y-60685170D02*
G75*
G02*
X182558000Y-62229952I2560000J-1544830D01*
G01*
X182558000Y-62230048D02*
G75*
G02*
X177008000Y-63774830I-2990000J48D01*
G01*
X182068000Y-62230000D02*
G75*
G02*
X177068000Y-62230000I-2500000J0D01*
G01*
X177068000Y-62230000D02*
G75*
G02*
X182068000Y-62230000I2500000J0D01*
G01*
%TO.C,D22*%
X139461000Y-69871000D02*
X139461000Y-66781000D01*
X133911000Y-68325952D02*
G75*
G02*
X139461000Y-66781170I2990000J-48D01*
G01*
X139461000Y-69870830D02*
G75*
G02*
X133911000Y-68326048I-2560000J1544830D01*
G01*
X139401000Y-68326000D02*
G75*
G02*
X134401000Y-68326000I-2500000J0D01*
G01*
X134401000Y-68326000D02*
G75*
G02*
X139401000Y-68326000I2500000J0D01*
G01*
%TO.C,D10*%
X163342000Y-69617000D02*
X163342000Y-66527000D01*
X157792000Y-68071952D02*
G75*
G02*
X163342000Y-66527170I2990000J-48D01*
G01*
X163342000Y-69616830D02*
G75*
G02*
X157792000Y-68072048I-2560000J1544830D01*
G01*
X163282000Y-68072000D02*
G75*
G02*
X158282000Y-68072000I-2500000J0D01*
G01*
X158282000Y-68072000D02*
G75*
G02*
X163282000Y-68072000I2500000J0D01*
G01*
%TO.C,D16*%
X200934000Y-68347000D02*
X200934000Y-65257000D01*
X195384000Y-66801952D02*
G75*
G02*
X200934000Y-65257170I2990000J-48D01*
G01*
X200934000Y-68346830D02*
G75*
G02*
X195384000Y-66802048I-2560000J1544830D01*
G01*
X200874000Y-66802000D02*
G75*
G02*
X195874000Y-66802000I-2500000J0D01*
G01*
X195874000Y-66802000D02*
G75*
G02*
X200874000Y-66802000I2500000J0D01*
G01*
%TO.C,D26*%
X200939000Y-77491000D02*
X200939000Y-74401000D01*
X195389000Y-75945952D02*
G75*
G02*
X200939000Y-74401170I2990000J-48D01*
G01*
X200939000Y-77490830D02*
G75*
G02*
X195389000Y-75946048I-2560000J1544830D01*
G01*
X200879000Y-75946000D02*
G75*
G02*
X195879000Y-75946000I-2500000J0D01*
G01*
X195879000Y-75946000D02*
G75*
G02*
X200879000Y-75946000I2500000J0D01*
G01*
%TO.C,D19*%
X127732000Y-74909000D02*
X127732000Y-77999000D01*
X127732000Y-74909170D02*
G75*
G02*
X133282000Y-76453952I2560000J-1544830D01*
G01*
X133282000Y-76454048D02*
G75*
G02*
X127732000Y-77998830I-2990000J48D01*
G01*
X132792000Y-76454000D02*
G75*
G02*
X127792000Y-76454000I-2500000J0D01*
G01*
X127792000Y-76454000D02*
G75*
G02*
X132792000Y-76454000I2500000J0D01*
G01*
%TO.C,D15*%
X177008000Y-78973000D02*
X177008000Y-82063000D01*
X177008000Y-78973170D02*
G75*
G02*
X182558000Y-80517952I2560000J-1544830D01*
G01*
X182558000Y-80518048D02*
G75*
G02*
X177008000Y-82062830I-2990000J48D01*
G01*
X182068000Y-80518000D02*
G75*
G02*
X177068000Y-80518000I-2500000J0D01*
G01*
X177068000Y-80518000D02*
G75*
G02*
X182068000Y-80518000I2500000J0D01*
G01*
%TO.C,D3*%
X103353000Y-74655000D02*
X103353000Y-77745000D01*
X103353000Y-74655170D02*
G75*
G02*
X108903000Y-76199952I2560000J-1544830D01*
G01*
X108903000Y-76200048D02*
G75*
G02*
X103353000Y-77744830I-2990000J48D01*
G01*
X108413000Y-76200000D02*
G75*
G02*
X103413000Y-76200000I-2500000J0D01*
G01*
X103413000Y-76200000D02*
G75*
G02*
X108413000Y-76200000I2500000J0D01*
G01*
D13*
%TO.C,G\u002A\u002A\u002A*%
G36*
X154178064Y-104672465D02*
G01*
X154265908Y-104691916D01*
X154350884Y-104721528D01*
X154431749Y-104761399D01*
X154507265Y-104811628D01*
X154554617Y-104851463D01*
X154589526Y-104887312D01*
X154624388Y-104929434D01*
X154655674Y-104973233D01*
X154679853Y-105014110D01*
X154680560Y-105015496D01*
X154698129Y-105050166D01*
X154652518Y-105050166D01*
X154628313Y-105049835D01*
X154613910Y-105048063D01*
X154605882Y-105043678D01*
X154600806Y-105035510D01*
X154599274Y-105031976D01*
X154586167Y-105008105D01*
X154565373Y-104978714D01*
X154539355Y-104946770D01*
X154510571Y-104915243D01*
X154481485Y-104887100D01*
X154473010Y-104879712D01*
X154431216Y-104848723D01*
X154380640Y-104818119D01*
X154325602Y-104790121D01*
X154270421Y-104766946D01*
X154224963Y-104752250D01*
X154180387Y-104743257D01*
X154127183Y-104737094D01*
X154069675Y-104733904D01*
X154012189Y-104733832D01*
X153959050Y-104737021D01*
X153921840Y-104742155D01*
X153839104Y-104763152D01*
X153760619Y-104793766D01*
X153687933Y-104832982D01*
X153622589Y-104879785D01*
X153566134Y-104933159D01*
X153520111Y-104992091D01*
X153505844Y-105015440D01*
X153486174Y-105050166D01*
X153443811Y-105050166D01*
X153422094Y-105049664D01*
X153406814Y-105048352D01*
X153401447Y-105046639D01*
X153404806Y-105036465D01*
X153413678Y-105018450D01*
X153426258Y-104995772D01*
X153440741Y-104971610D01*
X153455321Y-104949143D01*
X153462959Y-104938346D01*
X153520822Y-104870793D01*
X153586978Y-104812513D01*
X153660185Y-104763604D01*
X153739204Y-104724164D01*
X153822794Y-104694293D01*
X153909715Y-104674089D01*
X153998727Y-104663650D01*
X154088590Y-104663076D01*
X154178064Y-104672465D01*
G37*
G36*
X156460095Y-104672465D02*
G01*
X156547940Y-104691916D01*
X156632915Y-104721528D01*
X156713780Y-104761399D01*
X156789296Y-104811628D01*
X156836648Y-104851463D01*
X156871557Y-104887312D01*
X156906419Y-104929434D01*
X156937705Y-104973233D01*
X156961884Y-105014110D01*
X156962591Y-105015496D01*
X156980160Y-105050166D01*
X156934549Y-105050166D01*
X156910344Y-105049835D01*
X156895941Y-105048063D01*
X156887914Y-105043678D01*
X156882837Y-105035510D01*
X156881305Y-105031976D01*
X156868198Y-105008105D01*
X156847405Y-104978714D01*
X156821386Y-104946770D01*
X156792603Y-104915243D01*
X156763516Y-104887100D01*
X156755041Y-104879712D01*
X156713247Y-104848723D01*
X156662672Y-104818119D01*
X156607633Y-104790121D01*
X156552452Y-104766946D01*
X156506994Y-104752250D01*
X156462419Y-104743257D01*
X156409214Y-104737094D01*
X156351707Y-104733904D01*
X156294220Y-104733832D01*
X156241081Y-104737021D01*
X156203872Y-104742155D01*
X156121135Y-104763152D01*
X156042651Y-104793766D01*
X155969964Y-104832982D01*
X155904621Y-104879785D01*
X155848165Y-104933159D01*
X155802142Y-104992091D01*
X155787875Y-105015440D01*
X155768205Y-105050166D01*
X155725842Y-105050166D01*
X155704125Y-105049664D01*
X155688845Y-105048352D01*
X155683479Y-105046639D01*
X155686837Y-105036465D01*
X155695709Y-105018450D01*
X155708290Y-104995772D01*
X155722772Y-104971610D01*
X155737352Y-104949143D01*
X155744990Y-104938346D01*
X155802854Y-104870793D01*
X155869009Y-104812513D01*
X155942216Y-104763604D01*
X156021235Y-104724164D01*
X156104825Y-104694293D01*
X156191746Y-104674089D01*
X156280758Y-104663650D01*
X156370621Y-104663076D01*
X156460095Y-104672465D01*
G37*
G36*
X154109459Y-104936454D02*
G01*
X154191545Y-104951282D01*
X154270733Y-104977343D01*
X154345637Y-105014206D01*
X154414870Y-105061438D01*
X154477045Y-105118607D01*
X154519174Y-105169042D01*
X154565787Y-105242433D01*
X154600588Y-105320003D01*
X154623645Y-105400468D01*
X154635024Y-105482543D01*
X154634793Y-105564945D01*
X154623018Y-105646389D01*
X154599765Y-105725591D01*
X154565103Y-105801268D01*
X154519098Y-105872134D01*
X154480144Y-105918230D01*
X154413251Y-105980549D01*
X154340580Y-106031231D01*
X154262612Y-106069974D01*
X154207243Y-106089222D01*
X154173065Y-106096587D01*
X154129972Y-106102040D01*
X154081850Y-106105451D01*
X154032586Y-106106689D01*
X153986070Y-106105626D01*
X153946189Y-106102129D01*
X153926290Y-106098635D01*
X153841314Y-106072643D01*
X153762524Y-106035469D01*
X153690793Y-105988006D01*
X153626997Y-105931143D01*
X153572009Y-105865770D01*
X153526703Y-105792780D01*
X153491955Y-105713062D01*
X153469871Y-105633625D01*
X153464000Y-105590666D01*
X153461741Y-105539678D01*
X153462045Y-105525629D01*
X153527355Y-105525629D01*
X153534248Y-105602852D01*
X153553366Y-105679378D01*
X153583802Y-105752922D01*
X153624648Y-105821203D01*
X153664699Y-105871037D01*
X153725609Y-105928168D01*
X153792868Y-105973954D01*
X153865497Y-106008061D01*
X153942516Y-106030157D01*
X154022946Y-106039911D01*
X154105808Y-106036990D01*
X154139761Y-106032139D01*
X154217108Y-106012108D01*
X154290468Y-105980136D01*
X154358217Y-105937300D01*
X154418733Y-105884675D01*
X154470393Y-105823337D01*
X154483250Y-105804439D01*
X154499724Y-105777812D01*
X154512570Y-105754800D01*
X154520849Y-105737347D01*
X154523621Y-105727398D01*
X154521018Y-105726256D01*
X154488041Y-105742801D01*
X154463516Y-105754249D01*
X154444123Y-105761538D01*
X154426540Y-105765608D01*
X154407448Y-105767395D01*
X154383524Y-105767838D01*
X154373791Y-105767849D01*
X154341742Y-105767327D01*
X154318390Y-105765233D01*
X154299224Y-105760773D01*
X154279734Y-105753152D01*
X154273130Y-105750121D01*
X154225521Y-105720887D01*
X154184131Y-105681741D01*
X154151925Y-105635595D01*
X154147184Y-105626469D01*
X154136931Y-105604471D01*
X154130584Y-105586257D01*
X154127221Y-105567239D01*
X154125921Y-105542833D01*
X154125744Y-105519802D01*
X154126138Y-105488843D01*
X154127940Y-105466506D01*
X154132080Y-105448192D01*
X154139487Y-105429303D01*
X154147401Y-105412694D01*
X154176826Y-105366396D01*
X154214347Y-105328429D01*
X154258087Y-105299364D01*
X154306166Y-105279770D01*
X154356706Y-105270218D01*
X154407829Y-105271276D01*
X154457654Y-105283516D01*
X154501122Y-105305394D01*
X154515862Y-105314274D01*
X154524748Y-105318233D01*
X154525927Y-105317887D01*
X154522489Y-105307465D01*
X154513339Y-105289186D01*
X154500220Y-105266124D01*
X154484877Y-105241349D01*
X154469696Y-105218838D01*
X154417366Y-105156182D01*
X154356843Y-105103491D01*
X154289252Y-105061343D01*
X154215720Y-105030316D01*
X154137375Y-105010986D01*
X154055341Y-105003931D01*
X154050272Y-105003911D01*
X153965555Y-105010079D01*
X153885900Y-105028386D01*
X153811612Y-105058708D01*
X153742999Y-105100919D01*
X153681285Y-105153974D01*
X153629964Y-105214255D01*
X153588026Y-105282223D01*
X153556372Y-105355707D01*
X153535900Y-105432538D01*
X153527508Y-105510547D01*
X153527355Y-105525629D01*
X153462045Y-105525629D01*
X153462919Y-105485259D01*
X153467355Y-105432006D01*
X153474871Y-105384518D01*
X153480337Y-105362236D01*
X153510228Y-105282238D01*
X153551517Y-105207385D01*
X153602976Y-105138965D01*
X153663378Y-105078269D01*
X153731496Y-105026587D01*
X153806102Y-104985206D01*
X153859690Y-104963687D01*
X153942145Y-104942224D01*
X154025864Y-104933291D01*
X154109459Y-104936454D01*
G37*
G36*
X156391490Y-104976141D02*
G01*
X156473576Y-104990969D01*
X156552764Y-105017031D01*
X156627669Y-105053893D01*
X156696902Y-105101125D01*
X156759076Y-105158294D01*
X156801205Y-105208730D01*
X156847818Y-105282121D01*
X156882619Y-105359691D01*
X156905676Y-105440156D01*
X156917056Y-105522231D01*
X156916824Y-105604632D01*
X156905049Y-105686076D01*
X156881797Y-105765279D01*
X156847134Y-105840955D01*
X156801129Y-105911822D01*
X156762175Y-105957917D01*
X156695282Y-106020236D01*
X156622611Y-106070918D01*
X156544644Y-106109662D01*
X156489274Y-106128910D01*
X156455097Y-106136274D01*
X156412003Y-106141727D01*
X156363881Y-106145138D01*
X156314618Y-106146377D01*
X156268101Y-106145313D01*
X156228220Y-106141817D01*
X156208321Y-106138322D01*
X156123345Y-106112330D01*
X156044555Y-106075157D01*
X155972824Y-106027693D01*
X155909028Y-105970830D01*
X155854040Y-105905458D01*
X155808735Y-105832467D01*
X155773986Y-105752749D01*
X155751902Y-105673312D01*
X155746031Y-105630354D01*
X155743773Y-105579366D01*
X155744077Y-105565317D01*
X155809387Y-105565317D01*
X155816279Y-105642540D01*
X155835397Y-105719065D01*
X155865833Y-105792610D01*
X155906679Y-105860890D01*
X155946730Y-105910724D01*
X156007640Y-105967856D01*
X156074899Y-106013641D01*
X156147528Y-106047748D01*
X156224547Y-106069844D01*
X156304977Y-106079598D01*
X156387839Y-106076678D01*
X156421792Y-106071826D01*
X156499139Y-106051795D01*
X156572499Y-106019824D01*
X156640248Y-105976988D01*
X156700764Y-105924363D01*
X156752424Y-105863025D01*
X156765281Y-105844126D01*
X156781755Y-105817499D01*
X156794601Y-105794487D01*
X156802880Y-105777035D01*
X156805652Y-105767085D01*
X156803049Y-105765943D01*
X156770073Y-105782488D01*
X156745548Y-105793936D01*
X156726154Y-105801226D01*
X156708571Y-105805295D01*
X156689479Y-105807082D01*
X156665556Y-105807525D01*
X156655822Y-105807536D01*
X156623773Y-105807015D01*
X156600421Y-105804921D01*
X156581255Y-105800461D01*
X156561766Y-105792840D01*
X156555161Y-105789809D01*
X156507552Y-105760574D01*
X156466162Y-105721428D01*
X156433957Y-105675283D01*
X156429215Y-105666156D01*
X156418962Y-105644159D01*
X156412616Y-105625944D01*
X156409253Y-105606927D01*
X156407952Y-105582520D01*
X156407776Y-105559489D01*
X156408170Y-105528531D01*
X156409972Y-105506194D01*
X156414111Y-105487880D01*
X156421519Y-105468991D01*
X156429432Y-105452381D01*
X156458857Y-105406083D01*
X156496378Y-105368117D01*
X156540118Y-105339051D01*
X156588198Y-105319458D01*
X156638738Y-105309905D01*
X156689860Y-105310964D01*
X156739685Y-105323203D01*
X156783153Y-105345081D01*
X156797894Y-105353961D01*
X156806779Y-105357921D01*
X156807958Y-105357575D01*
X156804520Y-105347152D01*
X156795370Y-105328874D01*
X156782252Y-105305811D01*
X156766908Y-105281037D01*
X156751727Y-105258526D01*
X156699398Y-105195869D01*
X156638874Y-105143179D01*
X156571283Y-105101031D01*
X156497751Y-105070003D01*
X156419406Y-105050673D01*
X156337373Y-105043618D01*
X156332303Y-105043598D01*
X156247586Y-105049767D01*
X156167931Y-105068074D01*
X156093644Y-105098395D01*
X156025030Y-105140607D01*
X155963316Y-105193662D01*
X155911995Y-105253943D01*
X155870058Y-105321910D01*
X155838404Y-105395395D01*
X155817931Y-105472226D01*
X155809539Y-105550234D01*
X155809387Y-105565317D01*
X155744077Y-105565317D01*
X155744950Y-105524946D01*
X155749386Y-105471693D01*
X155756903Y-105424205D01*
X155762369Y-105401923D01*
X155792259Y-105321926D01*
X155833548Y-105247072D01*
X155885007Y-105178653D01*
X155945409Y-105117957D01*
X156013527Y-105066274D01*
X156088133Y-105024894D01*
X156141722Y-105003375D01*
X156224176Y-104981912D01*
X156307895Y-104972978D01*
X156391490Y-104976141D01*
G37*
G36*
X155293218Y-105419875D02*
G01*
X155293225Y-105545188D01*
X155293252Y-105657937D01*
X155293306Y-105758787D01*
X155293398Y-105848403D01*
X155293536Y-105927451D01*
X155293728Y-105996596D01*
X155293984Y-106056502D01*
X155294312Y-106107836D01*
X155294721Y-106151262D01*
X155295220Y-106187446D01*
X155295818Y-106217052D01*
X155296523Y-106240746D01*
X155297344Y-106259193D01*
X155298289Y-106273059D01*
X155299369Y-106283008D01*
X155300591Y-106289705D01*
X155301965Y-106293816D01*
X155303498Y-106296007D01*
X155304794Y-106296803D01*
X155312401Y-106299610D01*
X155331654Y-106306654D01*
X155361768Y-106317649D01*
X155401957Y-106332309D01*
X155451435Y-106350348D01*
X155509418Y-106371478D01*
X155575119Y-106395415D01*
X155647752Y-106421871D01*
X155726533Y-106450561D01*
X155810675Y-106481198D01*
X155899393Y-106513497D01*
X155991902Y-106547170D01*
X156043973Y-106566122D01*
X156138754Y-106600620D01*
X156230524Y-106634028D01*
X156318463Y-106666047D01*
X156401753Y-106696379D01*
X156479575Y-106724725D01*
X156551110Y-106750787D01*
X156615539Y-106774266D01*
X156672043Y-106794865D01*
X156719803Y-106812284D01*
X156758001Y-106826226D01*
X156785818Y-106836392D01*
X156802434Y-106842483D01*
X156806304Y-106843915D01*
X156841031Y-106856898D01*
X156841031Y-106964754D01*
X156840745Y-107008089D01*
X156839811Y-107039750D01*
X156838109Y-107061282D01*
X156835524Y-107074229D01*
X156832266Y-107079883D01*
X156821151Y-107085330D01*
X156802043Y-107091490D01*
X156787618Y-107095088D01*
X156777715Y-107098132D01*
X156756616Y-107105264D01*
X156725331Y-107116121D01*
X156684868Y-107130338D01*
X156636234Y-107147552D01*
X156580439Y-107167398D01*
X156518491Y-107189512D01*
X156451398Y-107213529D01*
X156380169Y-107239086D01*
X156305812Y-107265818D01*
X156229336Y-107293362D01*
X156151748Y-107321352D01*
X156074057Y-107349424D01*
X155997272Y-107377215D01*
X155922401Y-107404361D01*
X155850453Y-107430496D01*
X155782435Y-107455257D01*
X155719357Y-107478279D01*
X155662226Y-107499199D01*
X155612052Y-107517652D01*
X155569841Y-107533274D01*
X155536604Y-107545701D01*
X155513348Y-107554568D01*
X155501081Y-107559511D01*
X155499411Y-107560363D01*
X155502431Y-107564474D01*
X155512236Y-107569098D01*
X155520602Y-107572135D01*
X155540528Y-107579358D01*
X155571134Y-107590451D01*
X155611542Y-107605094D01*
X155660874Y-107622969D01*
X155718249Y-107643759D01*
X155782790Y-107667143D01*
X155853618Y-107692805D01*
X155929854Y-107720425D01*
X156010619Y-107749686D01*
X156095034Y-107780268D01*
X156126656Y-107791724D01*
X156213255Y-107823113D01*
X156297266Y-107853596D01*
X156377730Y-107882824D01*
X156453688Y-107910446D01*
X156524183Y-107936113D01*
X156588254Y-107959476D01*
X156644945Y-107980184D01*
X156693296Y-107997889D01*
X156732349Y-108012241D01*
X156761146Y-108022890D01*
X156778728Y-108029487D01*
X156781500Y-108030556D01*
X156837723Y-108052523D01*
X156839548Y-108147786D01*
X156841373Y-108243050D01*
X156802341Y-108260567D01*
X156778124Y-108270619D01*
X156755466Y-108278675D01*
X156742448Y-108282255D01*
X156733594Y-108285032D01*
X156713122Y-108292058D01*
X156681839Y-108303043D01*
X156640551Y-108317698D01*
X156590068Y-108335730D01*
X156531195Y-108356851D01*
X156464740Y-108380770D01*
X156391510Y-108407197D01*
X156312314Y-108435841D01*
X156227957Y-108466412D01*
X156139247Y-108498619D01*
X156046993Y-108532173D01*
X156009056Y-108545988D01*
X155296526Y-108805548D01*
X155296526Y-109337078D01*
X155296526Y-109868609D01*
X156027437Y-110134697D01*
X156121888Y-110169049D01*
X156212982Y-110202116D01*
X156299937Y-110233617D01*
X156381969Y-110263271D01*
X156458296Y-110290798D01*
X156528133Y-110315915D01*
X156590697Y-110338343D01*
X156645206Y-110357800D01*
X156690875Y-110374005D01*
X156726923Y-110386677D01*
X156752565Y-110395535D01*
X156767018Y-110400299D01*
X156769965Y-110401075D01*
X156777518Y-110398888D01*
X156796746Y-110392435D01*
X156826898Y-110381984D01*
X156867222Y-110367805D01*
X156916966Y-110350167D01*
X156975379Y-110329339D01*
X157041708Y-110305591D01*
X157115202Y-110279191D01*
X157195109Y-110250408D01*
X157280677Y-110219513D01*
X157371155Y-110186774D01*
X157465790Y-110152461D01*
X157563832Y-110116842D01*
X157572663Y-110113630D01*
X157670826Y-110077938D01*
X157765548Y-110043523D01*
X157856086Y-110010652D01*
X157941698Y-109979594D01*
X158021639Y-109950619D01*
X158095167Y-109923994D01*
X158161540Y-109899989D01*
X158220015Y-109878871D01*
X158269848Y-109860911D01*
X158310297Y-109846376D01*
X158340618Y-109835534D01*
X158360070Y-109828656D01*
X158367908Y-109826008D01*
X158368025Y-109825987D01*
X158371205Y-109831857D01*
X158377943Y-109847902D01*
X158387396Y-109871842D01*
X158398722Y-109901399D01*
X158411078Y-109934296D01*
X158423621Y-109968252D01*
X158435511Y-110000991D01*
X158445903Y-110030234D01*
X158453956Y-110053703D01*
X158458826Y-110069118D01*
X158459810Y-110074214D01*
X158453529Y-110076564D01*
X158435529Y-110083176D01*
X158406525Y-110093788D01*
X158367231Y-110108141D01*
X158318360Y-110125975D01*
X158260628Y-110147029D01*
X158194747Y-110171043D01*
X158121433Y-110197756D01*
X158041399Y-110226909D01*
X157955359Y-110258242D01*
X157864027Y-110291493D01*
X157768118Y-110326402D01*
X157668345Y-110362711D01*
X157609916Y-110383970D01*
X157489751Y-110427678D01*
X157381392Y-110467060D01*
X157284221Y-110502331D01*
X157197619Y-110533706D01*
X157120966Y-110561399D01*
X157053645Y-110585625D01*
X156995035Y-110606599D01*
X156944518Y-110624534D01*
X156901475Y-110639646D01*
X156865287Y-110652150D01*
X156835335Y-110662260D01*
X156811000Y-110670190D01*
X156791663Y-110676155D01*
X156776705Y-110680370D01*
X156765508Y-110683049D01*
X156757451Y-110684407D01*
X156751917Y-110684659D01*
X156748286Y-110684020D01*
X156746713Y-110683266D01*
X156736693Y-110678583D01*
X156716005Y-110670159D01*
X156686446Y-110658682D01*
X156649814Y-110644838D01*
X156607906Y-110629316D01*
X156563218Y-110613056D01*
X156514815Y-110595579D01*
X156467095Y-110578318D01*
X156422504Y-110562159D01*
X156383489Y-110547991D01*
X156352500Y-110536701D01*
X156335015Y-110530295D01*
X156319702Y-110524680D01*
X156293503Y-110515099D01*
X156257611Y-110501987D01*
X156213224Y-110485781D01*
X156161535Y-110466916D01*
X156103739Y-110445828D01*
X156041032Y-110422953D01*
X155974608Y-110398726D01*
X155905663Y-110373583D01*
X155835392Y-110347959D01*
X155764989Y-110322291D01*
X155695650Y-110297014D01*
X155628569Y-110272564D01*
X155564942Y-110249376D01*
X155505964Y-110227886D01*
X155452829Y-110208531D01*
X155406733Y-110191745D01*
X155368871Y-110177964D01*
X155340438Y-110167624D01*
X155322628Y-110161161D01*
X155318023Y-110159499D01*
X155293218Y-110150597D01*
X155293360Y-110677817D01*
X155293502Y-111205036D01*
X155966394Y-111448773D01*
X156056939Y-111481565D01*
X156144051Y-111513105D01*
X156226919Y-111543098D01*
X156304727Y-111571250D01*
X156376663Y-111597268D01*
X156441913Y-111620857D01*
X156499663Y-111641724D01*
X156549100Y-111659574D01*
X156589410Y-111674113D01*
X156619781Y-111685047D01*
X156639397Y-111692082D01*
X156647445Y-111694924D01*
X156647554Y-111694958D01*
X156650504Y-111699167D01*
X156652722Y-111710670D01*
X156654284Y-111730747D01*
X156655266Y-111760681D01*
X156655745Y-111801754D01*
X156655822Y-111833740D01*
X156655822Y-111970072D01*
X156636721Y-111965876D01*
X156626104Y-111966178D01*
X156602589Y-111968916D01*
X156566168Y-111974091D01*
X156516830Y-111981706D01*
X156454569Y-111991761D01*
X156379374Y-112004258D01*
X156291237Y-112019199D01*
X156190150Y-112036585D01*
X156076103Y-112056418D01*
X155949089Y-112078698D01*
X155809097Y-112103428D01*
X155656120Y-112130609D01*
X155557802Y-112148148D01*
X155451255Y-112167174D01*
X155356103Y-112184152D01*
X155270719Y-112199368D01*
X155193478Y-112213110D01*
X155122752Y-112225666D01*
X155056915Y-112237324D01*
X154994341Y-112248369D01*
X154933403Y-112259091D01*
X154872475Y-112269777D01*
X154809931Y-112280713D01*
X154744143Y-112292188D01*
X154673487Y-112304489D01*
X154661526Y-112306569D01*
X154599141Y-112317463D01*
X154540823Y-112327732D01*
X154487849Y-112337144D01*
X154441498Y-112345467D01*
X154403048Y-112352472D01*
X154373778Y-112357926D01*
X154354968Y-112361599D01*
X154347895Y-112363259D01*
X154347884Y-112363269D01*
X154347884Y-112368522D01*
X154354757Y-112370148D01*
X154373387Y-112373791D01*
X154402498Y-112379218D01*
X154440809Y-112386199D01*
X154487043Y-112394504D01*
X154539920Y-112403899D01*
X154598162Y-112414156D01*
X154660491Y-112425042D01*
X154661526Y-112425222D01*
X154733120Y-112437683D01*
X154799583Y-112449271D01*
X154862540Y-112460275D01*
X154923619Y-112470982D01*
X154984445Y-112481678D01*
X155046645Y-112492652D01*
X155111846Y-112504191D01*
X155181673Y-112516583D01*
X155257754Y-112530115D01*
X155341714Y-112545074D01*
X155435181Y-112561748D01*
X155539780Y-112580424D01*
X155557802Y-112583643D01*
X155665691Y-112602874D01*
X155771918Y-112621730D01*
X155875675Y-112640072D01*
X155976155Y-112657760D01*
X156072552Y-112674656D01*
X156164057Y-112690619D01*
X156249864Y-112705511D01*
X156329166Y-112719193D01*
X156401155Y-112731525D01*
X156465025Y-112742368D01*
X156519969Y-112751583D01*
X156565178Y-112759031D01*
X156599847Y-112764572D01*
X156623169Y-112768068D01*
X156634335Y-112769379D01*
X156634655Y-112769385D01*
X156655822Y-112769385D01*
X156655822Y-112904984D01*
X156655822Y-113040583D01*
X156634655Y-113040583D01*
X156624418Y-113041727D01*
X156601966Y-113045066D01*
X156568107Y-113050461D01*
X156523648Y-113057773D01*
X156469395Y-113066863D01*
X156406156Y-113077590D01*
X156334739Y-113089817D01*
X156255949Y-113103404D01*
X156170594Y-113118212D01*
X156079482Y-113134101D01*
X155983419Y-113150932D01*
X155883213Y-113168566D01*
X155779670Y-113186865D01*
X155673598Y-113205687D01*
X155565803Y-113224896D01*
X155557802Y-113226325D01*
X155451255Y-113245351D01*
X155356103Y-113262329D01*
X155270719Y-113277545D01*
X155193478Y-113291287D01*
X155122752Y-113303844D01*
X155056915Y-113315501D01*
X154994341Y-113326546D01*
X154933403Y-113337268D01*
X154872475Y-113347954D01*
X154809931Y-113358890D01*
X154744143Y-113370365D01*
X154673487Y-113382666D01*
X154661526Y-113384746D01*
X154599141Y-113395640D01*
X154540823Y-113405909D01*
X154487849Y-113415321D01*
X154441498Y-113423644D01*
X154403048Y-113430649D01*
X154373778Y-113436103D01*
X154354968Y-113439776D01*
X154347895Y-113441437D01*
X154347884Y-113441446D01*
X154347884Y-113446700D01*
X154354757Y-113448325D01*
X154373387Y-113451968D01*
X154402498Y-113457395D01*
X154440809Y-113464376D01*
X154487043Y-113472681D01*
X154539920Y-113482077D01*
X154598162Y-113492333D01*
X154660491Y-113503219D01*
X154661526Y-113503399D01*
X154733120Y-113515860D01*
X154799583Y-113527448D01*
X154862540Y-113538452D01*
X154923619Y-113549159D01*
X154984445Y-113559855D01*
X155046645Y-113570829D01*
X155111846Y-113582368D01*
X155181673Y-113594760D01*
X155257754Y-113608292D01*
X155341714Y-113623251D01*
X155435181Y-113639925D01*
X155539780Y-113658601D01*
X155557802Y-113661820D01*
X155665691Y-113681052D01*
X155771918Y-113699908D01*
X155875675Y-113718249D01*
X155976155Y-113735937D01*
X156072552Y-113752833D01*
X156164057Y-113768796D01*
X156249864Y-113783688D01*
X156329166Y-113797370D01*
X156401155Y-113809702D01*
X156465025Y-113820545D01*
X156519969Y-113829760D01*
X156565178Y-113837208D01*
X156599847Y-113842749D01*
X156623169Y-113846245D01*
X156634335Y-113847556D01*
X156634655Y-113847562D01*
X156655822Y-113847562D01*
X156655822Y-113983161D01*
X156655822Y-114118760D01*
X156634555Y-114118760D01*
X156625176Y-114119888D01*
X156603769Y-114123158D01*
X156571330Y-114128397D01*
X156528856Y-114135432D01*
X156477344Y-114144090D01*
X156417791Y-114154199D01*
X156351194Y-114165585D01*
X156278549Y-114178076D01*
X156200852Y-114191500D01*
X156119102Y-114205682D01*
X156034294Y-114220452D01*
X155947426Y-114235635D01*
X155859494Y-114251059D01*
X155771495Y-114266551D01*
X155684426Y-114281938D01*
X155599283Y-114297049D01*
X155517063Y-114311709D01*
X155438764Y-114325746D01*
X155395744Y-114333497D01*
X155340490Y-114343441D01*
X155280262Y-114354225D01*
X155219233Y-114365106D01*
X155161578Y-114375340D01*
X155111469Y-114384185D01*
X155098088Y-114386533D01*
X155065524Y-114392243D01*
X155021752Y-114399922D01*
X154968592Y-114409252D01*
X154907866Y-114419913D01*
X154841393Y-114431585D01*
X154770996Y-114443948D01*
X154698495Y-114456683D01*
X154625711Y-114469470D01*
X154605302Y-114473056D01*
X154536599Y-114485122D01*
X154470745Y-114496676D01*
X154409089Y-114507483D01*
X154352984Y-114517305D01*
X154303780Y-114525908D01*
X154262827Y-114533053D01*
X154231477Y-114538507D01*
X154211080Y-114542031D01*
X154205119Y-114543044D01*
X154182202Y-114547141D01*
X154163734Y-114550904D01*
X154155510Y-114552991D01*
X154160123Y-114555672D01*
X154176331Y-114562529D01*
X154203283Y-114573242D01*
X154240133Y-114587491D01*
X154286030Y-114604957D01*
X154340128Y-114625322D01*
X154401576Y-114648266D01*
X154469528Y-114673469D01*
X154543133Y-114700613D01*
X154621544Y-114729379D01*
X154703912Y-114759447D01*
X154717750Y-114764484D01*
X154801172Y-114794923D01*
X154881115Y-114824255D01*
X154956694Y-114852147D01*
X155027022Y-114878263D01*
X155091214Y-114902271D01*
X155148385Y-114923835D01*
X155197650Y-114942622D01*
X155238122Y-114958297D01*
X155268917Y-114970527D01*
X155289149Y-114978976D01*
X155297932Y-114983311D01*
X155298179Y-114983545D01*
X155299183Y-114987297D01*
X155300109Y-114996110D01*
X155300957Y-115010443D01*
X155301733Y-115030755D01*
X155302437Y-115057504D01*
X155303074Y-115091149D01*
X155303645Y-115132149D01*
X155304154Y-115180962D01*
X155304604Y-115238046D01*
X155304997Y-115303860D01*
X155305336Y-115378862D01*
X155305624Y-115463512D01*
X155305864Y-115558268D01*
X155306058Y-115663588D01*
X155306210Y-115779930D01*
X155306322Y-115907754D01*
X155306397Y-116047518D01*
X155306438Y-116199680D01*
X155306447Y-116332602D01*
X155306447Y-117670791D01*
X156232489Y-117670791D01*
X157158531Y-117670791D01*
X157158531Y-117803083D01*
X157158531Y-117935375D01*
X155174156Y-117935375D01*
X153189781Y-117935375D01*
X153189781Y-117803083D01*
X153189781Y-117670791D01*
X154119130Y-117670791D01*
X155048479Y-117670791D01*
X155048479Y-116414919D01*
X155048479Y-115159047D01*
X155020367Y-115148472D01*
X155010411Y-115144801D01*
X154988876Y-115136916D01*
X154956613Y-115125127D01*
X154914472Y-115109743D01*
X154863306Y-115091077D01*
X154803965Y-115069437D01*
X154737301Y-115045135D01*
X154664165Y-115018481D01*
X154585410Y-114989786D01*
X154501885Y-114959359D01*
X154414443Y-114927511D01*
X154328511Y-114896219D01*
X154222707Y-114857710D01*
X154128589Y-114823498D01*
X154045421Y-114793330D01*
X153972467Y-114766955D01*
X153908992Y-114744121D01*
X153854258Y-114724576D01*
X153807529Y-114708069D01*
X153768070Y-114694346D01*
X153735144Y-114683156D01*
X153708015Y-114674247D01*
X153685948Y-114667368D01*
X153668205Y-114662265D01*
X153654050Y-114658688D01*
X153642748Y-114656384D01*
X153633563Y-114655102D01*
X153625757Y-114654588D01*
X153622404Y-114654541D01*
X153580041Y-114654541D01*
X153580041Y-114522250D01*
X153580290Y-114473161D01*
X153581074Y-114436344D01*
X153582447Y-114410853D01*
X153584464Y-114395740D01*
X153587179Y-114390056D01*
X153587659Y-114389958D01*
X153595418Y-114388828D01*
X153615221Y-114385552D01*
X153646091Y-114380305D01*
X153687047Y-114373257D01*
X153737109Y-114364582D01*
X153795299Y-114354453D01*
X153860637Y-114343043D01*
X153932144Y-114330523D01*
X154008839Y-114317068D01*
X154089745Y-114302849D01*
X154173880Y-114288040D01*
X154260266Y-114272813D01*
X154347924Y-114257340D01*
X154435874Y-114241795D01*
X154523136Y-114226351D01*
X154608731Y-114211179D01*
X154691680Y-114196454D01*
X154771004Y-114182346D01*
X154845722Y-114169030D01*
X154914856Y-114156678D01*
X154977425Y-114145463D01*
X155032451Y-114135557D01*
X155078955Y-114127134D01*
X155108010Y-114121826D01*
X155148108Y-114114607D01*
X155190463Y-114107216D01*
X155229913Y-114100544D01*
X155260145Y-114095655D01*
X155281423Y-114092192D01*
X155313749Y-114086728D01*
X155355150Y-114079608D01*
X155403654Y-114071173D01*
X155457289Y-114061766D01*
X155514082Y-114051731D01*
X155564416Y-114042775D01*
X155621451Y-114032600D01*
X155676250Y-114022837D01*
X155726992Y-114013809D01*
X155771856Y-114005840D01*
X155809020Y-113999254D01*
X155836664Y-113994375D01*
X155852151Y-113991665D01*
X155898453Y-113983657D01*
X155852151Y-113975033D01*
X155830541Y-113971081D01*
X155798401Y-113965303D01*
X155757528Y-113958014D01*
X155709716Y-113949528D01*
X155656762Y-113940163D01*
X155600459Y-113930233D01*
X155542605Y-113920054D01*
X155484994Y-113909941D01*
X155429422Y-113900210D01*
X155377684Y-113891176D01*
X155331576Y-113883155D01*
X155292894Y-113876462D01*
X155263432Y-113871413D01*
X155244987Y-113868323D01*
X155243609Y-113868101D01*
X155218954Y-113863996D01*
X155185579Y-113858231D01*
X155147772Y-113851555D01*
X155109820Y-113844719D01*
X155108010Y-113844389D01*
X155063350Y-113836283D01*
X155009936Y-113826654D01*
X154948743Y-113815674D01*
X154880743Y-113803515D01*
X154806908Y-113790349D01*
X154728211Y-113776346D01*
X154645625Y-113761679D01*
X154560123Y-113746518D01*
X154472678Y-113731035D01*
X154384262Y-113715403D01*
X154295849Y-113699791D01*
X154208410Y-113684373D01*
X154122919Y-113669318D01*
X154040349Y-113654799D01*
X153961673Y-113640988D01*
X153887862Y-113628055D01*
X153819891Y-113616173D01*
X153758731Y-113605512D01*
X153705356Y-113596244D01*
X153660739Y-113588541D01*
X153625851Y-113582575D01*
X153601667Y-113578516D01*
X153589158Y-113576536D01*
X153587659Y-113576364D01*
X153584832Y-113572038D01*
X153582712Y-113558426D01*
X153581244Y-113534582D01*
X153580374Y-113499557D01*
X153580047Y-113452405D01*
X153580041Y-113444073D01*
X153580290Y-113394984D01*
X153581074Y-113358167D01*
X153582447Y-113332676D01*
X153584464Y-113317563D01*
X153587179Y-113311879D01*
X153587659Y-113311781D01*
X153595418Y-113310651D01*
X153615221Y-113307375D01*
X153646091Y-113302127D01*
X153687047Y-113295080D01*
X153737109Y-113286405D01*
X153795299Y-113276276D01*
X153860637Y-113264866D01*
X153932144Y-113252346D01*
X154008839Y-113238891D01*
X154089745Y-113224672D01*
X154173880Y-113209863D01*
X154260266Y-113194635D01*
X154347924Y-113179163D01*
X154435874Y-113163618D01*
X154523136Y-113148174D01*
X154608731Y-113133002D01*
X154691680Y-113118276D01*
X154771004Y-113104169D01*
X154845722Y-113090853D01*
X154914856Y-113078501D01*
X154977425Y-113067286D01*
X155032451Y-113057380D01*
X155078955Y-113048957D01*
X155108010Y-113043649D01*
X155148108Y-113036430D01*
X155190463Y-113029039D01*
X155229913Y-113022366D01*
X155260145Y-113017478D01*
X155281423Y-113014015D01*
X155313749Y-113008551D01*
X155355150Y-113001431D01*
X155403654Y-112992996D01*
X155457289Y-112983589D01*
X155514082Y-112973554D01*
X155564416Y-112964598D01*
X155621451Y-112954423D01*
X155676250Y-112944660D01*
X155726992Y-112935632D01*
X155771856Y-112927663D01*
X155809020Y-112921077D01*
X155836664Y-112916198D01*
X155852151Y-112913488D01*
X155898453Y-112905480D01*
X155852151Y-112896856D01*
X155830541Y-112892904D01*
X155798401Y-112887126D01*
X155757528Y-112879837D01*
X155709716Y-112871351D01*
X155656762Y-112861986D01*
X155600459Y-112852056D01*
X155542605Y-112841877D01*
X155484994Y-112831764D01*
X155429422Y-112822033D01*
X155377684Y-112812999D01*
X155331576Y-112804978D01*
X155292894Y-112798285D01*
X155263432Y-112793236D01*
X155244987Y-112790146D01*
X155243609Y-112789924D01*
X155218954Y-112785819D01*
X155185579Y-112780054D01*
X155147772Y-112773378D01*
X155109820Y-112766542D01*
X155108010Y-112766212D01*
X155063350Y-112758106D01*
X155009936Y-112748477D01*
X154948743Y-112737497D01*
X154880743Y-112725338D01*
X154806908Y-112712172D01*
X154728211Y-112698169D01*
X154645625Y-112683502D01*
X154560123Y-112668341D01*
X154472678Y-112652858D01*
X154384262Y-112637226D01*
X154295849Y-112621614D01*
X154208410Y-112606196D01*
X154122919Y-112591141D01*
X154040349Y-112576622D01*
X153961673Y-112562811D01*
X153887862Y-112549878D01*
X153819891Y-112537996D01*
X153758731Y-112527335D01*
X153705356Y-112518067D01*
X153660739Y-112510364D01*
X153625851Y-112504398D01*
X153601667Y-112500339D01*
X153589158Y-112498359D01*
X153587659Y-112498187D01*
X153584832Y-112493861D01*
X153582712Y-112480249D01*
X153581244Y-112456405D01*
X153580374Y-112421380D01*
X153580047Y-112374228D01*
X153580041Y-112365896D01*
X153580290Y-112316807D01*
X153581074Y-112279990D01*
X153582447Y-112254499D01*
X153584464Y-112239386D01*
X153587179Y-112233702D01*
X153587659Y-112233604D01*
X153595418Y-112232474D01*
X153615221Y-112229198D01*
X153646091Y-112223950D01*
X153687047Y-112216903D01*
X153737109Y-112208228D01*
X153795299Y-112198099D01*
X153860637Y-112186689D01*
X153932144Y-112174169D01*
X154008839Y-112160714D01*
X154089745Y-112146495D01*
X154173880Y-112131686D01*
X154260266Y-112116458D01*
X154347924Y-112100986D01*
X154435874Y-112085441D01*
X154523136Y-112069997D01*
X154608731Y-112054825D01*
X154691680Y-112040099D01*
X154771004Y-112025992D01*
X154845722Y-112012676D01*
X154914856Y-112000324D01*
X154977425Y-111989109D01*
X155032451Y-111979203D01*
X155078955Y-111970779D01*
X155108010Y-111965472D01*
X155148108Y-111958252D01*
X155190463Y-111950862D01*
X155229913Y-111944189D01*
X155260145Y-111939301D01*
X155281423Y-111935838D01*
X155313749Y-111930377D01*
X155355151Y-111923260D01*
X155403656Y-111914830D01*
X155457292Y-111905429D01*
X155514086Y-111895400D01*
X155564416Y-111886451D01*
X155628274Y-111875078D01*
X155695860Y-111863078D01*
X155764146Y-111850986D01*
X155830104Y-111839335D01*
X155890706Y-111828663D01*
X155942925Y-111819503D01*
X155966252Y-111815429D01*
X156010437Y-111807595D01*
X156049959Y-111800327D01*
X156083058Y-111793970D01*
X156107976Y-111788870D01*
X156122952Y-111785371D01*
X156126602Y-111783993D01*
X156120523Y-111781266D01*
X156102895Y-111774361D01*
X156074608Y-111763608D01*
X156036549Y-111749337D01*
X155989608Y-111731874D01*
X155934675Y-111711551D01*
X155872638Y-111688695D01*
X155804386Y-111663637D01*
X155730809Y-111636703D01*
X155652795Y-111608225D01*
X155580958Y-111582067D01*
X155035368Y-111383630D01*
X155035309Y-110756413D01*
X155035275Y-110649490D01*
X155035190Y-110555065D01*
X155035041Y-110472411D01*
X155034818Y-110400796D01*
X155034510Y-110339492D01*
X155034107Y-110287769D01*
X155033598Y-110244897D01*
X155032972Y-110210145D01*
X155032218Y-110182786D01*
X155031326Y-110162088D01*
X155030284Y-110147323D01*
X155029083Y-110137760D01*
X155027711Y-110132670D01*
X155026158Y-110131323D01*
X155026100Y-110131335D01*
X155017547Y-110134134D01*
X154997679Y-110141094D01*
X154967420Y-110151879D01*
X154927695Y-110166151D01*
X154879429Y-110183571D01*
X154823545Y-110203801D01*
X154760970Y-110226503D01*
X154692626Y-110251339D01*
X154619438Y-110277972D01*
X154542332Y-110306063D01*
X154462232Y-110335275D01*
X154380061Y-110365269D01*
X154296745Y-110395707D01*
X154213209Y-110426251D01*
X154130376Y-110456563D01*
X154049171Y-110486306D01*
X153970520Y-110515141D01*
X153895345Y-110542731D01*
X153824572Y-110568737D01*
X153759126Y-110592821D01*
X153699931Y-110614645D01*
X153647911Y-110633872D01*
X153603991Y-110650163D01*
X153569095Y-110663180D01*
X153544149Y-110672585D01*
X153530075Y-110678041D01*
X153527188Y-110679325D01*
X153533261Y-110681820D01*
X153550835Y-110688338D01*
X153578928Y-110698530D01*
X153616553Y-110712049D01*
X153662726Y-110728548D01*
X153716463Y-110747680D01*
X153776780Y-110769096D01*
X153842690Y-110792451D01*
X153913211Y-110817396D01*
X153987357Y-110843583D01*
X154064144Y-110870667D01*
X154142586Y-110898298D01*
X154221700Y-110926131D01*
X154300501Y-110953817D01*
X154378005Y-110981009D01*
X154453225Y-111007360D01*
X154525179Y-111032522D01*
X154592882Y-111056148D01*
X154655348Y-111077890D01*
X154711593Y-111097402D01*
X154740901Y-111107533D01*
X154758573Y-111114339D01*
X154770604Y-111120257D01*
X154772437Y-111121612D01*
X154771530Y-111128605D01*
X154766963Y-111145729D01*
X154759511Y-111170652D01*
X154749948Y-111201041D01*
X154739049Y-111234563D01*
X154727590Y-111268886D01*
X154716343Y-111301677D01*
X154706086Y-111330604D01*
X154697591Y-111353334D01*
X154691634Y-111367534D01*
X154689623Y-111370967D01*
X154683070Y-111369276D01*
X154664947Y-111363475D01*
X154636153Y-111353879D01*
X154597585Y-111340803D01*
X154550140Y-111324564D01*
X154494717Y-111305475D01*
X154432212Y-111283854D01*
X154363524Y-111260014D01*
X154289551Y-111234271D01*
X154211189Y-111206942D01*
X154129336Y-111178340D01*
X154044891Y-111148781D01*
X153958751Y-111118582D01*
X153871813Y-111088056D01*
X153784975Y-111057520D01*
X153699134Y-111027288D01*
X153615189Y-110997677D01*
X153534037Y-110969001D01*
X153456576Y-110941576D01*
X153383703Y-110915718D01*
X153316316Y-110891740D01*
X153255313Y-110869960D01*
X153201591Y-110850692D01*
X153156047Y-110834252D01*
X153119581Y-110820955D01*
X153093088Y-110811116D01*
X153077467Y-110805051D01*
X153073430Y-110803173D01*
X153070165Y-110794678D01*
X153065246Y-110775912D01*
X153059228Y-110749648D01*
X153052665Y-110718660D01*
X153046110Y-110685721D01*
X153040117Y-110653603D01*
X153035240Y-110625081D01*
X153032032Y-110602927D01*
X153031031Y-110590846D01*
X153036707Y-110582470D01*
X153050674Y-110574592D01*
X153053755Y-110573484D01*
X153069319Y-110567096D01*
X153078102Y-110561120D01*
X153078559Y-110560330D01*
X153084903Y-110557475D01*
X153103017Y-110550357D01*
X153132236Y-110539221D01*
X153171894Y-110524312D01*
X153221325Y-110505876D01*
X153279863Y-110484159D01*
X153346842Y-110459405D01*
X153421597Y-110431861D01*
X153503460Y-110401772D01*
X153591766Y-110369384D01*
X153685849Y-110334942D01*
X153785043Y-110298692D01*
X153888683Y-110260879D01*
X153996101Y-110221749D01*
X154057911Y-110199260D01*
X155035181Y-109843846D01*
X155036869Y-109235129D01*
X155038557Y-108626411D01*
X155691996Y-108388335D01*
X155780883Y-108355889D01*
X155866107Y-108324663D01*
X155946866Y-108294956D01*
X156022356Y-108267070D01*
X156091772Y-108241306D01*
X156154312Y-108217964D01*
X156209171Y-108197346D01*
X156255546Y-108179751D01*
X156292633Y-108165482D01*
X156319628Y-108154839D01*
X156335727Y-108148122D01*
X156340225Y-108145670D01*
X156333311Y-108142736D01*
X156314971Y-108135697D01*
X156286227Y-108124924D01*
X156248103Y-108110787D01*
X156201621Y-108093657D01*
X156147804Y-108073905D01*
X156087674Y-108051903D01*
X156022256Y-108028020D01*
X155952571Y-108002627D01*
X155879642Y-107976096D01*
X155804492Y-107948797D01*
X155728144Y-107921100D01*
X155651620Y-107893378D01*
X155575944Y-107866000D01*
X155502138Y-107839337D01*
X155431225Y-107813761D01*
X155364227Y-107789641D01*
X155302169Y-107767350D01*
X155246071Y-107747257D01*
X155196958Y-107729733D01*
X155155852Y-107715150D01*
X155123775Y-107703877D01*
X155101751Y-107696287D01*
X155091473Y-107692940D01*
X155069155Y-107685734D01*
X155051473Y-107678849D01*
X155043518Y-107674604D01*
X155040613Y-107666124D01*
X155038278Y-107647578D01*
X155036530Y-107621586D01*
X155035390Y-107590770D01*
X155034874Y-107557751D01*
X155035002Y-107525150D01*
X155035793Y-107495589D01*
X155037264Y-107471689D01*
X155039434Y-107456071D01*
X155041936Y-107451260D01*
X155051637Y-107448803D01*
X155068356Y-107442599D01*
X155076663Y-107439126D01*
X155098861Y-107430028D01*
X155119749Y-107422256D01*
X155124546Y-107420653D01*
X155139995Y-107415430D01*
X155166015Y-107406288D01*
X155201597Y-107393596D01*
X155245735Y-107377724D01*
X155297422Y-107359042D01*
X155355648Y-107337920D01*
X155419408Y-107314728D01*
X155487694Y-107289835D01*
X155559498Y-107263612D01*
X155633812Y-107236427D01*
X155709629Y-107208652D01*
X155785942Y-107180655D01*
X155861744Y-107152807D01*
X155936026Y-107125478D01*
X156007781Y-107099037D01*
X156076002Y-107073853D01*
X156139681Y-107050298D01*
X156197811Y-107028741D01*
X156249384Y-107009551D01*
X156293392Y-106993098D01*
X156328829Y-106979753D01*
X156354687Y-106969885D01*
X156369958Y-106963863D01*
X156373871Y-106962052D01*
X156367317Y-106959366D01*
X156349143Y-106952454D01*
X156320160Y-106941615D01*
X156281181Y-106927148D01*
X156233017Y-106909350D01*
X156176479Y-106888522D01*
X156112379Y-106864961D01*
X156041528Y-106838966D01*
X155964739Y-106810836D01*
X155882822Y-106780869D01*
X155796589Y-106749364D01*
X155707800Y-106716965D01*
X155045171Y-106475321D01*
X155046799Y-106454342D01*
X155046061Y-106438572D01*
X155042029Y-106429418D01*
X155041838Y-106429291D01*
X155040806Y-106422029D01*
X155039859Y-106401636D01*
X155038999Y-106368210D01*
X155038225Y-106321851D01*
X155037539Y-106262657D01*
X155036941Y-106190725D01*
X155036433Y-106106155D01*
X155036014Y-106009044D01*
X155035686Y-105899491D01*
X155035448Y-105777595D01*
X155035303Y-105643453D01*
X155035250Y-105497164D01*
X155035250Y-105486338D01*
X155035250Y-104547458D01*
X155164234Y-104547458D01*
X155293218Y-104547458D01*
X155293218Y-105419875D01*
G37*
D12*
%TO.C,D8*%
X65756000Y-66781000D02*
X65756000Y-69871000D01*
X65756000Y-66781170D02*
G75*
G02*
X71306000Y-68325952I2560000J-1544830D01*
G01*
X71306000Y-68326048D02*
G75*
G02*
X65756000Y-69870830I-2990000J48D01*
G01*
X70816000Y-68326000D02*
G75*
G02*
X65816000Y-68326000I-2500000J0D01*
G01*
X65816000Y-68326000D02*
G75*
G02*
X70816000Y-68326000I2500000J0D01*
G01*
%TO.C,D2*%
X103348000Y-66527000D02*
X103348000Y-69617000D01*
X103348000Y-66527170D02*
G75*
G02*
X108898000Y-68071952I2560000J-1544830D01*
G01*
X108898000Y-68072048D02*
G75*
G02*
X103348000Y-69616830I-2990000J48D01*
G01*
X108408000Y-68072000D02*
G75*
G02*
X103408000Y-68072000I-2500000J0D01*
G01*
X103408000Y-68072000D02*
G75*
G02*
X108408000Y-68072000I2500000J0D01*
G01*
%TO.C,D5*%
X89677000Y-65299000D02*
X89677000Y-62209000D01*
X84127000Y-63753952D02*
G75*
G02*
X89677000Y-62209170I2990000J-48D01*
G01*
X89677000Y-65298830D02*
G75*
G02*
X84127000Y-63754048I-2560000J1544830D01*
G01*
X89617000Y-63754000D02*
G75*
G02*
X84617000Y-63754000I-2500000J0D01*
G01*
X84617000Y-63754000D02*
G75*
G02*
X89617000Y-63754000I2500000J0D01*
G01*
%TD*%
M02*
