%TF.GenerationSoftware,KiCad,Pcbnew,8.0.8*%
%TF.CreationDate,2025-03-28T10:57:33-04:00*%
%TF.ProjectId,rear_lights_unit,72656172-5f6c-4696-9768-74735f756e69,0*%
%TF.SameCoordinates,Original*%
%TF.FileFunction,Drillmap*%
%TF.FilePolarity,Positive*%
%FSLAX45Y45*%
G04 Gerber Fmt 4.5, Leading zero omitted, Abs format (unit mm)*
G04 Created by KiCad (PCBNEW 8.0.8) date 2025-03-28 10:57:33*
%MOMM*%
%LPD*%
G01*
G04 APERTURE LIST*
%ADD10C,0.050000*%
%ADD11C,0.200000*%
%ADD12C,0.100000*%
%ADD13C,0.110000*%
G04 APERTURE END LIST*
D10*
X5207000Y-5080000D02*
X21590000Y-5080000D01*
X21590000Y-12192000D01*
X5207000Y-12192000D01*
X5207000Y-5080000D01*
D11*
D12*
X19248600Y-8555200D02*
X19308600Y-8615200D01*
X19308600Y-8555200D02*
X19248600Y-8615200D01*
X19248600Y-9063200D02*
X19308600Y-9123200D01*
X19308600Y-9063200D02*
X19248600Y-9123200D01*
X19756600Y-8555200D02*
X19816600Y-8615200D01*
X19816600Y-8555200D02*
X19756600Y-8615200D01*
X19756600Y-8809200D02*
X19816600Y-8869200D01*
X19816600Y-8809200D02*
X19756600Y-8869200D01*
X19756600Y-9063200D02*
X19816600Y-9123200D01*
X19816600Y-9063200D02*
X19756600Y-9123200D01*
X6192400Y-11785600D02*
G75*
G02*
X6122400Y-11785600I-35000J0D01*
G01*
X6122400Y-11785600D02*
G75*
G02*
X6192400Y-11785600I35000J0D01*
G01*
X6442400Y-11785600D02*
G75*
G02*
X6372400Y-11785600I-35000J0D01*
G01*
X6372400Y-11785600D02*
G75*
G02*
X6442400Y-11785600I35000J0D01*
G01*
X7324800Y-10213800D02*
G75*
G02*
X7254800Y-10213800I-35000J0D01*
G01*
X7254800Y-10213800D02*
G75*
G02*
X7324800Y-10213800I35000J0D01*
G01*
X7324800Y-10463800D02*
G75*
G02*
X7254800Y-10463800I-35000J0D01*
G01*
X7254800Y-10463800D02*
G75*
G02*
X7324800Y-10463800I35000J0D01*
G01*
X9490100Y-11785600D02*
G75*
G02*
X9420100Y-11785600I-35000J0D01*
G01*
X9420100Y-11785600D02*
G75*
G02*
X9490100Y-11785600I35000J0D01*
G01*
X9740100Y-11785600D02*
G75*
G02*
X9670100Y-11785600I-35000J0D01*
G01*
X9670100Y-11785600D02*
G75*
G02*
X9740100Y-11785600I35000J0D01*
G01*
X10622500Y-10213800D02*
G75*
G02*
X10552500Y-10213800I-35000J0D01*
G01*
X10552500Y-10213800D02*
G75*
G02*
X10622500Y-10213800I35000J0D01*
G01*
X10622500Y-10463800D02*
G75*
G02*
X10552500Y-10463800I-35000J0D01*
G01*
X10552500Y-10463800D02*
G75*
G02*
X10622500Y-10463800I35000J0D01*
G01*
X5384300Y-6792600D02*
X5384300Y-6872600D01*
X5344300Y-6832600D02*
X5424300Y-6832600D01*
X5384300Y-7707000D02*
X5384300Y-7787000D01*
X5344300Y-7747000D02*
X5424300Y-7747000D01*
X5461000Y-9637400D02*
X5461000Y-9717400D01*
X5421000Y-9677400D02*
X5501000Y-9677400D01*
X5537200Y-10298800D02*
X5537200Y-10378800D01*
X5497200Y-10338800D02*
X5577200Y-10338800D01*
X5537200Y-11314800D02*
X5537200Y-11394800D01*
X5497200Y-11354800D02*
X5577200Y-11354800D01*
X5661000Y-9637400D02*
X5661000Y-9717400D01*
X5621000Y-9677400D02*
X5701000Y-9677400D01*
X5891800Y-10349600D02*
X5891800Y-10429600D01*
X5851800Y-10389600D02*
X5931800Y-10389600D01*
X5891800Y-10603600D02*
X5891800Y-10683600D01*
X5851800Y-10643600D02*
X5931800Y-10643600D01*
X5891800Y-10857600D02*
X5891800Y-10937600D01*
X5851800Y-10897600D02*
X5931800Y-10897600D01*
X5891800Y-11111600D02*
X5891800Y-11191600D01*
X5851800Y-11151600D02*
X5931800Y-11151600D01*
X6400300Y-6792600D02*
X6400300Y-6872600D01*
X6360300Y-6832600D02*
X6440300Y-6832600D01*
X6400300Y-7707000D02*
X6400300Y-7787000D01*
X6360300Y-7747000D02*
X6440300Y-7747000D01*
X6653800Y-10349600D02*
X6653800Y-10429600D01*
X6613800Y-10389600D02*
X6693800Y-10389600D01*
X6653800Y-10603600D02*
X6653800Y-10683600D01*
X6613800Y-10643600D02*
X6693800Y-10643600D01*
X6653800Y-10857600D02*
X6653800Y-10937600D01*
X6613800Y-10897600D02*
X6693800Y-10897600D01*
X6653800Y-11111600D02*
X6653800Y-11191600D01*
X6613800Y-11151600D02*
X6693800Y-11151600D01*
X7196800Y-11263000D02*
X7196800Y-11343000D01*
X7156800Y-11303000D02*
X7236800Y-11303000D01*
X7196800Y-11745600D02*
X7196800Y-11825600D01*
X7156800Y-11785600D02*
X7236800Y-11785600D01*
X7263900Y-6335400D02*
X7263900Y-6415400D01*
X7223900Y-6375400D02*
X7303900Y-6375400D01*
X7263900Y-7249800D02*
X7263900Y-7329800D01*
X7223900Y-7289800D02*
X7303900Y-7289800D01*
X7263900Y-8164200D02*
X7263900Y-8244200D01*
X7223900Y-8204200D02*
X7303900Y-8204200D01*
X7264400Y-10780400D02*
X7264400Y-10860400D01*
X7224400Y-10820400D02*
X7304400Y-10820400D01*
X8212800Y-11263000D02*
X8212800Y-11343000D01*
X8172800Y-11303000D02*
X8252800Y-11303000D01*
X8212800Y-11745600D02*
X8212800Y-11825600D01*
X8172800Y-11785600D02*
X8252800Y-11785600D01*
X8279900Y-6335400D02*
X8279900Y-6415400D01*
X8239900Y-6375400D02*
X8319900Y-6375400D01*
X8279900Y-7249800D02*
X8279900Y-7329800D01*
X8239900Y-7289800D02*
X8319900Y-7289800D01*
X8279900Y-8164200D02*
X8279900Y-8244200D01*
X8239900Y-8204200D02*
X8319900Y-8204200D01*
X8280400Y-10780400D02*
X8280400Y-10860400D01*
X8240400Y-10820400D02*
X8320400Y-10820400D01*
X8834900Y-10298800D02*
X8834900Y-10378800D01*
X8794900Y-10338800D02*
X8874900Y-10338800D01*
X8834900Y-11314800D02*
X8834900Y-11394800D01*
X8794900Y-11354800D02*
X8874900Y-11354800D01*
X9143500Y-5954400D02*
X9143500Y-6034400D01*
X9103500Y-5994400D02*
X9183500Y-5994400D01*
X9143500Y-6767200D02*
X9143500Y-6847200D01*
X9103500Y-6807200D02*
X9183500Y-6807200D01*
X9143500Y-7580000D02*
X9143500Y-7660000D01*
X9103500Y-7620000D02*
X9183500Y-7620000D01*
X9143500Y-8392800D02*
X9143500Y-8472800D01*
X9103500Y-8432800D02*
X9183500Y-8432800D01*
X9194800Y-10349600D02*
X9194800Y-10429600D01*
X9154800Y-10389600D02*
X9234800Y-10389600D01*
X9194800Y-10603600D02*
X9194800Y-10683600D01*
X9154800Y-10643600D02*
X9234800Y-10643600D01*
X9194800Y-10857600D02*
X9194800Y-10937600D01*
X9154800Y-10897600D02*
X9234800Y-10897600D01*
X9194800Y-11111600D02*
X9194800Y-11191600D01*
X9154800Y-11151600D02*
X9234800Y-11151600D01*
X9956800Y-10349600D02*
X9956800Y-10429600D01*
X9916800Y-10389600D02*
X9996800Y-10389600D01*
X9956800Y-10603600D02*
X9956800Y-10683600D01*
X9916800Y-10643600D02*
X9996800Y-10643600D01*
X9956800Y-10857600D02*
X9956800Y-10937600D01*
X9916800Y-10897600D02*
X9996800Y-10897600D01*
X9956800Y-11111600D02*
X9956800Y-11191600D01*
X9916800Y-11151600D02*
X9996800Y-11151600D01*
X10159500Y-5954400D02*
X10159500Y-6034400D01*
X10119500Y-5994400D02*
X10199500Y-5994400D01*
X10159500Y-6767200D02*
X10159500Y-6847200D01*
X10119500Y-6807200D02*
X10199500Y-6807200D01*
X10159500Y-7580000D02*
X10159500Y-7660000D01*
X10119500Y-7620000D02*
X10199500Y-7620000D01*
X10159500Y-8392800D02*
X10159500Y-8472800D01*
X10119500Y-8432800D02*
X10199500Y-8432800D01*
X10494500Y-11263000D02*
X10494500Y-11343000D01*
X10454500Y-11303000D02*
X10534500Y-11303000D01*
X10494500Y-11745600D02*
X10494500Y-11825600D01*
X10454500Y-11785600D02*
X10534500Y-11785600D01*
X10570700Y-10780400D02*
X10570700Y-10860400D01*
X10530700Y-10820400D02*
X10610700Y-10820400D01*
X11510500Y-11263000D02*
X11510500Y-11343000D01*
X11470500Y-11303000D02*
X11550500Y-11303000D01*
X11510500Y-11745600D02*
X11510500Y-11825600D01*
X11470500Y-11785600D02*
X11550500Y-11785600D01*
X11586700Y-10780400D02*
X11586700Y-10860400D01*
X11546700Y-10820400D02*
X11626700Y-10820400D01*
X11632700Y-5979800D02*
X11632700Y-6059800D01*
X11592700Y-6019800D02*
X11672700Y-6019800D01*
X11632700Y-6792600D02*
X11632700Y-6872600D01*
X11592700Y-6832600D02*
X11672700Y-6832600D01*
X11632700Y-7605400D02*
X11632700Y-7685400D01*
X11592700Y-7645400D02*
X11672700Y-7645400D01*
X11632700Y-8418200D02*
X11632700Y-8498200D01*
X11592700Y-8458200D02*
X11672700Y-8458200D01*
X12648700Y-5979800D02*
X12648700Y-6059800D01*
X12608700Y-6019800D02*
X12688700Y-6019800D01*
X12648700Y-6792600D02*
X12648700Y-6872600D01*
X12608700Y-6832600D02*
X12688700Y-6832600D01*
X12648700Y-7605400D02*
X12648700Y-7685400D01*
X12608700Y-7645400D02*
X12688700Y-7645400D01*
X12648700Y-8418200D02*
X12648700Y-8498200D01*
X12608700Y-8458200D02*
X12688700Y-8458200D01*
X14071100Y-5979800D02*
X14071100Y-6059800D01*
X14031100Y-6019800D02*
X14111100Y-6019800D01*
X14071100Y-6792600D02*
X14071100Y-6872600D01*
X14031100Y-6832600D02*
X14111100Y-6832600D01*
X14071100Y-7605400D02*
X14071100Y-7685400D01*
X14031100Y-7645400D02*
X14111100Y-7645400D01*
X14071100Y-8418200D02*
X14071100Y-8498200D01*
X14031100Y-8458200D02*
X14111100Y-8458200D01*
X15087100Y-5979800D02*
X15087100Y-6059800D01*
X15047100Y-6019800D02*
X15127100Y-6019800D01*
X15087100Y-6792600D02*
X15087100Y-6872600D01*
X15047100Y-6832600D02*
X15127100Y-6832600D01*
X15087100Y-7605400D02*
X15087100Y-7685400D01*
X15047100Y-7645400D02*
X15127100Y-7645400D01*
X15087100Y-8418200D02*
X15087100Y-8498200D01*
X15047100Y-8458200D02*
X15127100Y-8458200D01*
X16509500Y-5954400D02*
X16509500Y-6034400D01*
X16469500Y-5994400D02*
X16549500Y-5994400D01*
X16509500Y-6767200D02*
X16509500Y-6847200D01*
X16469500Y-6807200D02*
X16549500Y-6807200D01*
X16509500Y-7580000D02*
X16509500Y-7660000D01*
X16469500Y-7620000D02*
X16549500Y-7620000D01*
X16509500Y-8392800D02*
X16509500Y-8472800D01*
X16469500Y-8432800D02*
X16549500Y-8432800D01*
X17525500Y-5954400D02*
X17525500Y-6034400D01*
X17485500Y-5994400D02*
X17565500Y-5994400D01*
X17525500Y-6767200D02*
X17525500Y-6847200D01*
X17485500Y-6807200D02*
X17565500Y-6807200D01*
X17525500Y-7580000D02*
X17525500Y-7660000D01*
X17485500Y-7620000D02*
X17565500Y-7620000D01*
X17525500Y-8392800D02*
X17525500Y-8472800D01*
X17485500Y-8432800D02*
X17565500Y-8432800D01*
X18389100Y-6183000D02*
X18389100Y-6263000D01*
X18349100Y-6223000D02*
X18429100Y-6223000D01*
X18389100Y-7097400D02*
X18389100Y-7177400D01*
X18349100Y-7137400D02*
X18429100Y-7137400D01*
X18389100Y-8011800D02*
X18389100Y-8091800D01*
X18349100Y-8051800D02*
X18429100Y-8051800D01*
X19405100Y-6183000D02*
X19405100Y-6263000D01*
X19365100Y-6223000D02*
X19445100Y-6223000D01*
X19405100Y-7097400D02*
X19405100Y-7177400D01*
X19365100Y-7137400D02*
X19445100Y-7137400D01*
X19405100Y-8011800D02*
X19405100Y-8091800D01*
X19365100Y-8051800D02*
X19445100Y-8051800D01*
X20268700Y-6640200D02*
X20268700Y-6720200D01*
X20228700Y-6680200D02*
X20308700Y-6680200D01*
X20268700Y-7554600D02*
X20268700Y-7634600D01*
X20228700Y-7594600D02*
X20308700Y-7594600D01*
X21284700Y-6640200D02*
X21284700Y-6720200D01*
X21244700Y-6680200D02*
X21324700Y-6680200D01*
X21284700Y-7554600D02*
X21284700Y-7634600D01*
X21244700Y-7594600D02*
X21324700Y-7594600D01*
X6736420Y-6864420D02*
X6736420Y-6800780D01*
X6672780Y-6800780D01*
X6672780Y-6864420D01*
X6736420Y-6864420D01*
X6736420Y-7778820D02*
X6736420Y-7715180D01*
X6672780Y-7715180D01*
X6672780Y-7778820D01*
X6736420Y-7778820D01*
X6990420Y-6864420D02*
X6990420Y-6800780D01*
X6926780Y-6800780D01*
X6926780Y-6864420D01*
X6990420Y-6864420D01*
X6990420Y-7778820D02*
X6990420Y-7715180D01*
X6926780Y-7715180D01*
X6926780Y-7778820D01*
X6990420Y-7778820D01*
X8616520Y-6407220D02*
X8616520Y-6343580D01*
X8552880Y-6343580D01*
X8552880Y-6407220D01*
X8616520Y-6407220D01*
X8616520Y-7321620D02*
X8616520Y-7257980D01*
X8552880Y-7257980D01*
X8552880Y-7321620D01*
X8616520Y-7321620D01*
X8616520Y-8236020D02*
X8616520Y-8172380D01*
X8552880Y-8172380D01*
X8552880Y-8236020D01*
X8616520Y-8236020D01*
X8870520Y-6407220D02*
X8870520Y-6343580D01*
X8806880Y-6343580D01*
X8806880Y-6407220D01*
X8870520Y-6407220D01*
X8870520Y-7321620D02*
X8870520Y-7257980D01*
X8806880Y-7257980D01*
X8806880Y-7321620D01*
X8870520Y-7321620D01*
X8870520Y-8236020D02*
X8870520Y-8172380D01*
X8806880Y-8172380D01*
X8806880Y-8236020D01*
X8870520Y-8236020D01*
X10495620Y-6026220D02*
X10495620Y-5962580D01*
X10431980Y-5962580D01*
X10431980Y-6026220D01*
X10495620Y-6026220D01*
X10495620Y-6839020D02*
X10495620Y-6775380D01*
X10431980Y-6775380D01*
X10431980Y-6839020D01*
X10495620Y-6839020D01*
X10496120Y-7651820D02*
X10496120Y-7588180D01*
X10432480Y-7588180D01*
X10432480Y-7651820D01*
X10496120Y-7651820D01*
X10496120Y-8464620D02*
X10496120Y-8400980D01*
X10432480Y-8400980D01*
X10432480Y-8464620D01*
X10496120Y-8464620D01*
X10749620Y-6026220D02*
X10749620Y-5962580D01*
X10685980Y-5962580D01*
X10685980Y-6026220D01*
X10749620Y-6026220D01*
X10749620Y-6839020D02*
X10749620Y-6775380D01*
X10685980Y-6775380D01*
X10685980Y-6839020D01*
X10749620Y-6839020D01*
X10750120Y-7651820D02*
X10750120Y-7588180D01*
X10686480Y-7588180D01*
X10686480Y-7651820D01*
X10750120Y-7651820D01*
X10750120Y-8464620D02*
X10750120Y-8400980D01*
X10686480Y-8400980D01*
X10686480Y-8464620D01*
X10750120Y-8464620D01*
X12933520Y-8490020D02*
X12933520Y-8426380D01*
X12869880Y-8426380D01*
X12869880Y-8490020D01*
X12933520Y-8490020D01*
X12934020Y-6051620D02*
X12934020Y-5987980D01*
X12870380Y-5987980D01*
X12870380Y-6051620D01*
X12934020Y-6051620D01*
X12934020Y-6864420D02*
X12934020Y-6800780D01*
X12870380Y-6800780D01*
X12870380Y-6864420D01*
X12934020Y-6864420D01*
X12934020Y-7677220D02*
X12934020Y-7613580D01*
X12870380Y-7613580D01*
X12870380Y-7677220D01*
X12934020Y-7677220D01*
X13187520Y-8490020D02*
X13187520Y-8426380D01*
X13123880Y-8426380D01*
X13123880Y-8490020D01*
X13187520Y-8490020D01*
X13188020Y-6051620D02*
X13188020Y-5987980D01*
X13124380Y-5987980D01*
X13124380Y-6051620D01*
X13188020Y-6051620D01*
X13188020Y-6864420D02*
X13188020Y-6800780D01*
X13124380Y-6800780D01*
X13124380Y-6864420D01*
X13188020Y-6864420D01*
X13188020Y-7677220D02*
X13188020Y-7613580D01*
X13124380Y-7613580D01*
X13124380Y-7677220D01*
X13188020Y-7677220D01*
X13594920Y-6051620D02*
X13594920Y-5987980D01*
X13531280Y-5987980D01*
X13531280Y-6051620D01*
X13594920Y-6051620D01*
X13594920Y-6864420D02*
X13594920Y-6800780D01*
X13531280Y-6800780D01*
X13531280Y-6864420D01*
X13594920Y-6864420D01*
X13594920Y-7677220D02*
X13594920Y-7613580D01*
X13531280Y-7613580D01*
X13531280Y-7677220D01*
X13594920Y-7677220D01*
X13594920Y-8490020D02*
X13594920Y-8426380D01*
X13531280Y-8426380D01*
X13531280Y-8490020D01*
X13594920Y-8490020D01*
X13848920Y-6051620D02*
X13848920Y-5987980D01*
X13785280Y-5987980D01*
X13785280Y-6051620D01*
X13848920Y-6051620D01*
X13848920Y-6864420D02*
X13848920Y-6800780D01*
X13785280Y-6800780D01*
X13785280Y-6864420D01*
X13848920Y-6864420D01*
X13848920Y-7677220D02*
X13848920Y-7613580D01*
X13785280Y-7613580D01*
X13785280Y-7677220D01*
X13848920Y-7677220D01*
X13848920Y-8490020D02*
X13848920Y-8426380D01*
X13785280Y-8426380D01*
X13785280Y-8490020D01*
X13848920Y-8490020D01*
X15983020Y-6026220D02*
X15983020Y-5962580D01*
X15919380Y-5962580D01*
X15919380Y-6026220D01*
X15983020Y-6026220D01*
X15983020Y-6839020D02*
X15983020Y-6775380D01*
X15919380Y-6775380D01*
X15919380Y-6839020D01*
X15983020Y-6839020D01*
X15983020Y-7651820D02*
X15983020Y-7588180D01*
X15919380Y-7588180D01*
X15919380Y-7651820D01*
X15983020Y-7651820D01*
X15983020Y-8464620D02*
X15983020Y-8400980D01*
X15919380Y-8400980D01*
X15919380Y-8464620D01*
X15983020Y-8464620D01*
X16237020Y-6026220D02*
X16237020Y-5962580D01*
X16173380Y-5962580D01*
X16173380Y-6026220D01*
X16237020Y-6026220D01*
X16237020Y-6839020D02*
X16237020Y-6775380D01*
X16173380Y-6775380D01*
X16173380Y-6839020D01*
X16237020Y-6839020D01*
X16237020Y-7651820D02*
X16237020Y-7588180D01*
X16173380Y-7588180D01*
X16173380Y-7651820D01*
X16237020Y-7651820D01*
X16237020Y-8464620D02*
X16237020Y-8400980D01*
X16173380Y-8400980D01*
X16173380Y-8464620D01*
X16237020Y-8464620D01*
X17861620Y-6254820D02*
X17861620Y-6191180D01*
X17797980Y-6191180D01*
X17797980Y-6254820D01*
X17861620Y-6254820D01*
X17861620Y-8083620D02*
X17861620Y-8019980D01*
X17797980Y-8019980D01*
X17797980Y-8083620D01*
X17861620Y-8083620D01*
X17862120Y-7169220D02*
X17862120Y-7105580D01*
X17798480Y-7105580D01*
X17798480Y-7169220D01*
X17862120Y-7169220D01*
X18115620Y-6254820D02*
X18115620Y-6191180D01*
X18051980Y-6191180D01*
X18051980Y-6254820D01*
X18115620Y-6254820D01*
X18115620Y-8083620D02*
X18115620Y-8019980D01*
X18051980Y-8019980D01*
X18051980Y-8083620D01*
X18115620Y-8083620D01*
X18116120Y-7169220D02*
X18116120Y-7105580D01*
X18052480Y-7105580D01*
X18052480Y-7169220D01*
X18116120Y-7169220D01*
X19742220Y-6712020D02*
X19742220Y-6648380D01*
X19678580Y-6648380D01*
X19678580Y-6712020D01*
X19742220Y-6712020D01*
X19742720Y-7626420D02*
X19742720Y-7562780D01*
X19679080Y-7562780D01*
X19679080Y-7626420D01*
X19742720Y-7626420D01*
X19996220Y-6712020D02*
X19996220Y-6648380D01*
X19932580Y-6648380D01*
X19932580Y-6712020D01*
X19996220Y-6712020D01*
X19996720Y-7626420D02*
X19996720Y-7562780D01*
X19933080Y-7562780D01*
X19933080Y-7626420D01*
X19996720Y-7626420D01*
X20599400Y-8505700D02*
X20646900Y-8458200D01*
X20599400Y-8410700D01*
X20551900Y-8458200D01*
X20599400Y-8505700D01*
X20599400Y-8755700D02*
X20646900Y-8708200D01*
X20599400Y-8660700D01*
X20551900Y-8708200D01*
X20599400Y-8755700D01*
X20599400Y-9005700D02*
X20646900Y-8958200D01*
X20599400Y-8910700D01*
X20551900Y-8958200D01*
X20599400Y-9005700D01*
X20599400Y-9255700D02*
X20646900Y-9208200D01*
X20599400Y-9160700D01*
X20551900Y-9208200D01*
X20599400Y-9255700D01*
X11938800Y-9334200D02*
X12038800Y-9434200D01*
X12038800Y-9334200D02*
X11938800Y-9434200D01*
X12038800Y-9384200D02*
G75*
G02*
X11938800Y-9384200I-50000J0D01*
G01*
X11938800Y-9384200D02*
G75*
G02*
X12038800Y-9384200I50000J0D01*
G01*
X11938800Y-11645200D02*
X12038800Y-11745200D01*
X12038800Y-11645200D02*
X11938800Y-11745200D01*
X12038800Y-11695200D02*
G75*
G02*
X11938800Y-11695200I-50000J0D01*
G01*
X11938800Y-11695200D02*
G75*
G02*
X12038800Y-11695200I50000J0D01*
G01*
X12192800Y-9334200D02*
X12292800Y-9434200D01*
X12292800Y-9334200D02*
X12192800Y-9434200D01*
X12292800Y-9384200D02*
G75*
G02*
X12192800Y-9384200I-50000J0D01*
G01*
X12192800Y-9384200D02*
G75*
G02*
X12292800Y-9384200I50000J0D01*
G01*
X13084800Y-9345200D02*
X13184800Y-9445200D01*
X13184800Y-9345200D02*
X13084800Y-9445200D01*
X13184800Y-9395200D02*
G75*
G02*
X13084800Y-9395200I-50000J0D01*
G01*
X13084800Y-9395200D02*
G75*
G02*
X13184800Y-9395200I50000J0D01*
G01*
X13338800Y-9345200D02*
X13438800Y-9445200D01*
X13438800Y-9345200D02*
X13338800Y-9445200D01*
X13438800Y-9395200D02*
G75*
G02*
X13338800Y-9395200I-50000J0D01*
G01*
X13338800Y-9395200D02*
G75*
G02*
X13438800Y-9395200I50000J0D01*
G01*
X13338800Y-11645200D02*
X13438800Y-11745200D01*
X13438800Y-11645200D02*
X13338800Y-11745200D01*
X13438800Y-11695200D02*
G75*
G02*
X13338800Y-11695200I-50000J0D01*
G01*
X13338800Y-11695200D02*
G75*
G02*
X13438800Y-11695200I50000J0D01*
G01*
X16320510Y-9598210D02*
X16420510Y-9698210D01*
X16420510Y-9598210D02*
X16320510Y-9698210D01*
X16420510Y-9648210D02*
G75*
G02*
X16320510Y-9648210I-50000J0D01*
G01*
X16320510Y-9648210D02*
G75*
G02*
X16420510Y-9648210I50000J0D01*
G01*
X16841000Y-9525800D02*
X16941000Y-9625800D01*
X16941000Y-9525800D02*
X16841000Y-9625800D01*
X16941000Y-9575800D02*
G75*
G02*
X16841000Y-9575800I-50000J0D01*
G01*
X16841000Y-9575800D02*
G75*
G02*
X16941000Y-9575800I50000J0D01*
G01*
X17374400Y-9525800D02*
X17474400Y-9625800D01*
X17474400Y-9525800D02*
X17374400Y-9625800D01*
X17474400Y-9575800D02*
G75*
G02*
X17374400Y-9575800I-50000J0D01*
G01*
X17374400Y-9575800D02*
G75*
G02*
X17474400Y-9575800I50000J0D01*
G01*
X17882400Y-9525800D02*
X17982400Y-9625800D01*
X17982400Y-9525800D02*
X17882400Y-9625800D01*
X17982400Y-9575800D02*
G75*
G02*
X17882400Y-9575800I-50000J0D01*
G01*
X17882400Y-9575800D02*
G75*
G02*
X17982400Y-9575800I50000J0D01*
G01*
X18415800Y-9525800D02*
X18515800Y-9625800D01*
X18515800Y-9525800D02*
X18415800Y-9625800D01*
X18515800Y-9575800D02*
G75*
G02*
X18415800Y-9575800I-50000J0D01*
G01*
X18415800Y-9575800D02*
G75*
G02*
X18515800Y-9575800I50000J0D01*
G01*
X18860510Y-9598210D02*
X18960510Y-9698210D01*
X18960510Y-9598210D02*
X18860510Y-9698210D01*
X18960510Y-9648210D02*
G75*
G02*
X18860510Y-9648210I-50000J0D01*
G01*
X18860510Y-9648210D02*
G75*
G02*
X18960510Y-9648210I50000J0D01*
G01*
D13*
X7971400Y-9165200D02*
X8081400Y-9275200D01*
X8081400Y-9165200D02*
X7971400Y-9275200D01*
X8026400Y-9165200D02*
X8026400Y-9275200D01*
X7971400Y-9220200D02*
X8081400Y-9220200D01*
X7971400Y-9419200D02*
X8081400Y-9529200D01*
X8081400Y-9419200D02*
X7971400Y-9529200D01*
X8026400Y-9419200D02*
X8026400Y-9529200D01*
X7971400Y-9474200D02*
X8081400Y-9474200D01*
X7971400Y-9673200D02*
X8081400Y-9783200D01*
X8081400Y-9673200D02*
X7971400Y-9783200D01*
X8026400Y-9673200D02*
X8026400Y-9783200D01*
X7971400Y-9728200D02*
X8081400Y-9728200D01*
X11248000Y-9165200D02*
X11358000Y-9275200D01*
X11358000Y-9165200D02*
X11248000Y-9275200D01*
X11303000Y-9165200D02*
X11303000Y-9275200D01*
X11248000Y-9220200D02*
X11358000Y-9220200D01*
X11248000Y-9419200D02*
X11358000Y-9529200D01*
X11358000Y-9419200D02*
X11248000Y-9529200D01*
X11303000Y-9419200D02*
X11303000Y-9529200D01*
X11248000Y-9474200D02*
X11358000Y-9474200D01*
X11248000Y-9673200D02*
X11358000Y-9783200D01*
X11358000Y-9673200D02*
X11248000Y-9783200D01*
X11303000Y-9673200D02*
X11303000Y-9783200D01*
X11248000Y-9728200D02*
X11358000Y-9728200D01*
D11*
X5465277Y-12505984D02*
X5465277Y-12305984D01*
X5465277Y-12305984D02*
X5512896Y-12305984D01*
X5512896Y-12305984D02*
X5541467Y-12315508D01*
X5541467Y-12315508D02*
X5560515Y-12334555D01*
X5560515Y-12334555D02*
X5570039Y-12353603D01*
X5570039Y-12353603D02*
X5579563Y-12391698D01*
X5579563Y-12391698D02*
X5579563Y-12420269D01*
X5579563Y-12420269D02*
X5570039Y-12458365D01*
X5570039Y-12458365D02*
X5560515Y-12477412D01*
X5560515Y-12477412D02*
X5541467Y-12496460D01*
X5541467Y-12496460D02*
X5512896Y-12505984D01*
X5512896Y-12505984D02*
X5465277Y-12505984D01*
X5665277Y-12505984D02*
X5665277Y-12372650D01*
X5665277Y-12410746D02*
X5674801Y-12391698D01*
X5674801Y-12391698D02*
X5684324Y-12382174D01*
X5684324Y-12382174D02*
X5703372Y-12372650D01*
X5703372Y-12372650D02*
X5722420Y-12372650D01*
X5789086Y-12505984D02*
X5789086Y-12372650D01*
X5789086Y-12305984D02*
X5779562Y-12315508D01*
X5779562Y-12315508D02*
X5789086Y-12325031D01*
X5789086Y-12325031D02*
X5798610Y-12315508D01*
X5798610Y-12315508D02*
X5789086Y-12305984D01*
X5789086Y-12305984D02*
X5789086Y-12325031D01*
X5912896Y-12505984D02*
X5893848Y-12496460D01*
X5893848Y-12496460D02*
X5884324Y-12477412D01*
X5884324Y-12477412D02*
X5884324Y-12305984D01*
X6017658Y-12505984D02*
X5998610Y-12496460D01*
X5998610Y-12496460D02*
X5989086Y-12477412D01*
X5989086Y-12477412D02*
X5989086Y-12305984D01*
X6246229Y-12505984D02*
X6246229Y-12305984D01*
X6246229Y-12305984D02*
X6312896Y-12448841D01*
X6312896Y-12448841D02*
X6379562Y-12305984D01*
X6379562Y-12305984D02*
X6379562Y-12505984D01*
X6560515Y-12505984D02*
X6560515Y-12401222D01*
X6560515Y-12401222D02*
X6550991Y-12382174D01*
X6550991Y-12382174D02*
X6531943Y-12372650D01*
X6531943Y-12372650D02*
X6493848Y-12372650D01*
X6493848Y-12372650D02*
X6474801Y-12382174D01*
X6560515Y-12496460D02*
X6541467Y-12505984D01*
X6541467Y-12505984D02*
X6493848Y-12505984D01*
X6493848Y-12505984D02*
X6474801Y-12496460D01*
X6474801Y-12496460D02*
X6465277Y-12477412D01*
X6465277Y-12477412D02*
X6465277Y-12458365D01*
X6465277Y-12458365D02*
X6474801Y-12439317D01*
X6474801Y-12439317D02*
X6493848Y-12429793D01*
X6493848Y-12429793D02*
X6541467Y-12429793D01*
X6541467Y-12429793D02*
X6560515Y-12420269D01*
X6655753Y-12372650D02*
X6655753Y-12572650D01*
X6655753Y-12382174D02*
X6674801Y-12372650D01*
X6674801Y-12372650D02*
X6712896Y-12372650D01*
X6712896Y-12372650D02*
X6731943Y-12382174D01*
X6731943Y-12382174D02*
X6741467Y-12391698D01*
X6741467Y-12391698D02*
X6750991Y-12410746D01*
X6750991Y-12410746D02*
X6750991Y-12467888D01*
X6750991Y-12467888D02*
X6741467Y-12486936D01*
X6741467Y-12486936D02*
X6731943Y-12496460D01*
X6731943Y-12496460D02*
X6712896Y-12505984D01*
X6712896Y-12505984D02*
X6674801Y-12505984D01*
X6674801Y-12505984D02*
X6655753Y-12496460D01*
X6836705Y-12486936D02*
X6846229Y-12496460D01*
X6846229Y-12496460D02*
X6836705Y-12505984D01*
X6836705Y-12505984D02*
X6827182Y-12496460D01*
X6827182Y-12496460D02*
X6836705Y-12486936D01*
X6836705Y-12486936D02*
X6836705Y-12505984D01*
X6836705Y-12382174D02*
X6846229Y-12391698D01*
X6846229Y-12391698D02*
X6836705Y-12401222D01*
X6836705Y-12401222D02*
X6827182Y-12391698D01*
X6827182Y-12391698D02*
X6836705Y-12382174D01*
X6836705Y-12382174D02*
X6836705Y-12401222D01*
D12*
X5144500Y-12804500D02*
X5204500Y-12864500D01*
X5204500Y-12804500D02*
X5144500Y-12864500D01*
D11*
X5503372Y-12725984D02*
X5522420Y-12725984D01*
X5522420Y-12725984D02*
X5541467Y-12735508D01*
X5541467Y-12735508D02*
X5550991Y-12745031D01*
X5550991Y-12745031D02*
X5560515Y-12764079D01*
X5560515Y-12764079D02*
X5570039Y-12802174D01*
X5570039Y-12802174D02*
X5570039Y-12849793D01*
X5570039Y-12849793D02*
X5560515Y-12887888D01*
X5560515Y-12887888D02*
X5550991Y-12906936D01*
X5550991Y-12906936D02*
X5541467Y-12916460D01*
X5541467Y-12916460D02*
X5522420Y-12925984D01*
X5522420Y-12925984D02*
X5503372Y-12925984D01*
X5503372Y-12925984D02*
X5484324Y-12916460D01*
X5484324Y-12916460D02*
X5474801Y-12906936D01*
X5474801Y-12906936D02*
X5465277Y-12887888D01*
X5465277Y-12887888D02*
X5455753Y-12849793D01*
X5455753Y-12849793D02*
X5455753Y-12802174D01*
X5455753Y-12802174D02*
X5465277Y-12764079D01*
X5465277Y-12764079D02*
X5474801Y-12745031D01*
X5474801Y-12745031D02*
X5484324Y-12735508D01*
X5484324Y-12735508D02*
X5503372Y-12725984D01*
X5655753Y-12906936D02*
X5665277Y-12916460D01*
X5665277Y-12916460D02*
X5655753Y-12925984D01*
X5655753Y-12925984D02*
X5646229Y-12916460D01*
X5646229Y-12916460D02*
X5655753Y-12906936D01*
X5655753Y-12906936D02*
X5655753Y-12925984D01*
X5836705Y-12725984D02*
X5798610Y-12725984D01*
X5798610Y-12725984D02*
X5779562Y-12735508D01*
X5779562Y-12735508D02*
X5770039Y-12745031D01*
X5770039Y-12745031D02*
X5750991Y-12773603D01*
X5750991Y-12773603D02*
X5741467Y-12811698D01*
X5741467Y-12811698D02*
X5741467Y-12887888D01*
X5741467Y-12887888D02*
X5750991Y-12906936D01*
X5750991Y-12906936D02*
X5760515Y-12916460D01*
X5760515Y-12916460D02*
X5779562Y-12925984D01*
X5779562Y-12925984D02*
X5817658Y-12925984D01*
X5817658Y-12925984D02*
X5836705Y-12916460D01*
X5836705Y-12916460D02*
X5846229Y-12906936D01*
X5846229Y-12906936D02*
X5855753Y-12887888D01*
X5855753Y-12887888D02*
X5855753Y-12840269D01*
X5855753Y-12840269D02*
X5846229Y-12821222D01*
X5846229Y-12821222D02*
X5836705Y-12811698D01*
X5836705Y-12811698D02*
X5817658Y-12802174D01*
X5817658Y-12802174D02*
X5779562Y-12802174D01*
X5779562Y-12802174D02*
X5760515Y-12811698D01*
X5760515Y-12811698D02*
X5750991Y-12821222D01*
X5750991Y-12821222D02*
X5741467Y-12840269D01*
X5979562Y-12725984D02*
X5998610Y-12725984D01*
X5998610Y-12725984D02*
X6017658Y-12735508D01*
X6017658Y-12735508D02*
X6027182Y-12745031D01*
X6027182Y-12745031D02*
X6036705Y-12764079D01*
X6036705Y-12764079D02*
X6046229Y-12802174D01*
X6046229Y-12802174D02*
X6046229Y-12849793D01*
X6046229Y-12849793D02*
X6036705Y-12887888D01*
X6036705Y-12887888D02*
X6027182Y-12906936D01*
X6027182Y-12906936D02*
X6017658Y-12916460D01*
X6017658Y-12916460D02*
X5998610Y-12925984D01*
X5998610Y-12925984D02*
X5979562Y-12925984D01*
X5979562Y-12925984D02*
X5960515Y-12916460D01*
X5960515Y-12916460D02*
X5950991Y-12906936D01*
X5950991Y-12906936D02*
X5941467Y-12887888D01*
X5941467Y-12887888D02*
X5931943Y-12849793D01*
X5931943Y-12849793D02*
X5931943Y-12802174D01*
X5931943Y-12802174D02*
X5941467Y-12764079D01*
X5941467Y-12764079D02*
X5950991Y-12745031D01*
X5950991Y-12745031D02*
X5960515Y-12735508D01*
X5960515Y-12735508D02*
X5979562Y-12725984D01*
X6170039Y-12725984D02*
X6189086Y-12725984D01*
X6189086Y-12725984D02*
X6208134Y-12735508D01*
X6208134Y-12735508D02*
X6217658Y-12745031D01*
X6217658Y-12745031D02*
X6227182Y-12764079D01*
X6227182Y-12764079D02*
X6236705Y-12802174D01*
X6236705Y-12802174D02*
X6236705Y-12849793D01*
X6236705Y-12849793D02*
X6227182Y-12887888D01*
X6227182Y-12887888D02*
X6217658Y-12906936D01*
X6217658Y-12906936D02*
X6208134Y-12916460D01*
X6208134Y-12916460D02*
X6189086Y-12925984D01*
X6189086Y-12925984D02*
X6170039Y-12925984D01*
X6170039Y-12925984D02*
X6150991Y-12916460D01*
X6150991Y-12916460D02*
X6141467Y-12906936D01*
X6141467Y-12906936D02*
X6131943Y-12887888D01*
X6131943Y-12887888D02*
X6122420Y-12849793D01*
X6122420Y-12849793D02*
X6122420Y-12802174D01*
X6122420Y-12802174D02*
X6131943Y-12764079D01*
X6131943Y-12764079D02*
X6141467Y-12745031D01*
X6141467Y-12745031D02*
X6150991Y-12735508D01*
X6150991Y-12735508D02*
X6170039Y-12725984D01*
X6322420Y-12925984D02*
X6322420Y-12792650D01*
X6322420Y-12811698D02*
X6331943Y-12802174D01*
X6331943Y-12802174D02*
X6350991Y-12792650D01*
X6350991Y-12792650D02*
X6379563Y-12792650D01*
X6379563Y-12792650D02*
X6398610Y-12802174D01*
X6398610Y-12802174D02*
X6408134Y-12821222D01*
X6408134Y-12821222D02*
X6408134Y-12925984D01*
X6408134Y-12821222D02*
X6417658Y-12802174D01*
X6417658Y-12802174D02*
X6436705Y-12792650D01*
X6436705Y-12792650D02*
X6465277Y-12792650D01*
X6465277Y-12792650D02*
X6484324Y-12802174D01*
X6484324Y-12802174D02*
X6493848Y-12821222D01*
X6493848Y-12821222D02*
X6493848Y-12925984D01*
X6589086Y-12925984D02*
X6589086Y-12792650D01*
X6589086Y-12811698D02*
X6598610Y-12802174D01*
X6598610Y-12802174D02*
X6617658Y-12792650D01*
X6617658Y-12792650D02*
X6646229Y-12792650D01*
X6646229Y-12792650D02*
X6665277Y-12802174D01*
X6665277Y-12802174D02*
X6674801Y-12821222D01*
X6674801Y-12821222D02*
X6674801Y-12925984D01*
X6674801Y-12821222D02*
X6684324Y-12802174D01*
X6684324Y-12802174D02*
X6703372Y-12792650D01*
X6703372Y-12792650D02*
X6731943Y-12792650D01*
X6731943Y-12792650D02*
X6750991Y-12802174D01*
X6750991Y-12802174D02*
X6760515Y-12821222D01*
X6760515Y-12821222D02*
X6760515Y-12925984D01*
X7150991Y-12716460D02*
X6979563Y-12973603D01*
X7408134Y-12725984D02*
X7427182Y-12725984D01*
X7427182Y-12725984D02*
X7446229Y-12735508D01*
X7446229Y-12735508D02*
X7455753Y-12745031D01*
X7455753Y-12745031D02*
X7465277Y-12764079D01*
X7465277Y-12764079D02*
X7474801Y-12802174D01*
X7474801Y-12802174D02*
X7474801Y-12849793D01*
X7474801Y-12849793D02*
X7465277Y-12887888D01*
X7465277Y-12887888D02*
X7455753Y-12906936D01*
X7455753Y-12906936D02*
X7446229Y-12916460D01*
X7446229Y-12916460D02*
X7427182Y-12925984D01*
X7427182Y-12925984D02*
X7408134Y-12925984D01*
X7408134Y-12925984D02*
X7389086Y-12916460D01*
X7389086Y-12916460D02*
X7379563Y-12906936D01*
X7379563Y-12906936D02*
X7370039Y-12887888D01*
X7370039Y-12887888D02*
X7360515Y-12849793D01*
X7360515Y-12849793D02*
X7360515Y-12802174D01*
X7360515Y-12802174D02*
X7370039Y-12764079D01*
X7370039Y-12764079D02*
X7379563Y-12745031D01*
X7379563Y-12745031D02*
X7389086Y-12735508D01*
X7389086Y-12735508D02*
X7408134Y-12725984D01*
X7560515Y-12906936D02*
X7570039Y-12916460D01*
X7570039Y-12916460D02*
X7560515Y-12925984D01*
X7560515Y-12925984D02*
X7550991Y-12916460D01*
X7550991Y-12916460D02*
X7560515Y-12906936D01*
X7560515Y-12906936D02*
X7560515Y-12925984D01*
X7693848Y-12725984D02*
X7712896Y-12725984D01*
X7712896Y-12725984D02*
X7731944Y-12735508D01*
X7731944Y-12735508D02*
X7741467Y-12745031D01*
X7741467Y-12745031D02*
X7750991Y-12764079D01*
X7750991Y-12764079D02*
X7760515Y-12802174D01*
X7760515Y-12802174D02*
X7760515Y-12849793D01*
X7760515Y-12849793D02*
X7750991Y-12887888D01*
X7750991Y-12887888D02*
X7741467Y-12906936D01*
X7741467Y-12906936D02*
X7731944Y-12916460D01*
X7731944Y-12916460D02*
X7712896Y-12925984D01*
X7712896Y-12925984D02*
X7693848Y-12925984D01*
X7693848Y-12925984D02*
X7674801Y-12916460D01*
X7674801Y-12916460D02*
X7665277Y-12906936D01*
X7665277Y-12906936D02*
X7655753Y-12887888D01*
X7655753Y-12887888D02*
X7646229Y-12849793D01*
X7646229Y-12849793D02*
X7646229Y-12802174D01*
X7646229Y-12802174D02*
X7655753Y-12764079D01*
X7655753Y-12764079D02*
X7665277Y-12745031D01*
X7665277Y-12745031D02*
X7674801Y-12735508D01*
X7674801Y-12735508D02*
X7693848Y-12725984D01*
X7836706Y-12745031D02*
X7846229Y-12735508D01*
X7846229Y-12735508D02*
X7865277Y-12725984D01*
X7865277Y-12725984D02*
X7912896Y-12725984D01*
X7912896Y-12725984D02*
X7931944Y-12735508D01*
X7931944Y-12735508D02*
X7941467Y-12745031D01*
X7941467Y-12745031D02*
X7950991Y-12764079D01*
X7950991Y-12764079D02*
X7950991Y-12783127D01*
X7950991Y-12783127D02*
X7941467Y-12811698D01*
X7941467Y-12811698D02*
X7827182Y-12925984D01*
X7827182Y-12925984D02*
X7950991Y-12925984D01*
X8017658Y-12725984D02*
X8141467Y-12725984D01*
X8141467Y-12725984D02*
X8074801Y-12802174D01*
X8074801Y-12802174D02*
X8103372Y-12802174D01*
X8103372Y-12802174D02*
X8122420Y-12811698D01*
X8122420Y-12811698D02*
X8131944Y-12821222D01*
X8131944Y-12821222D02*
X8141467Y-12840269D01*
X8141467Y-12840269D02*
X8141467Y-12887888D01*
X8141467Y-12887888D02*
X8131944Y-12906936D01*
X8131944Y-12906936D02*
X8122420Y-12916460D01*
X8122420Y-12916460D02*
X8103372Y-12925984D01*
X8103372Y-12925984D02*
X8046229Y-12925984D01*
X8046229Y-12925984D02*
X8027182Y-12916460D01*
X8027182Y-12916460D02*
X8017658Y-12906936D01*
X8312896Y-12725984D02*
X8274801Y-12725984D01*
X8274801Y-12725984D02*
X8255753Y-12735508D01*
X8255753Y-12735508D02*
X8246229Y-12745031D01*
X8246229Y-12745031D02*
X8227182Y-12773603D01*
X8227182Y-12773603D02*
X8217658Y-12811698D01*
X8217658Y-12811698D02*
X8217658Y-12887888D01*
X8217658Y-12887888D02*
X8227182Y-12906936D01*
X8227182Y-12906936D02*
X8236706Y-12916460D01*
X8236706Y-12916460D02*
X8255753Y-12925984D01*
X8255753Y-12925984D02*
X8293848Y-12925984D01*
X8293848Y-12925984D02*
X8312896Y-12916460D01*
X8312896Y-12916460D02*
X8322420Y-12906936D01*
X8322420Y-12906936D02*
X8331944Y-12887888D01*
X8331944Y-12887888D02*
X8331944Y-12840269D01*
X8331944Y-12840269D02*
X8322420Y-12821222D01*
X8322420Y-12821222D02*
X8312896Y-12811698D01*
X8312896Y-12811698D02*
X8293848Y-12802174D01*
X8293848Y-12802174D02*
X8255753Y-12802174D01*
X8255753Y-12802174D02*
X8236706Y-12811698D01*
X8236706Y-12811698D02*
X8227182Y-12821222D01*
X8227182Y-12821222D02*
X8217658Y-12840269D01*
X8408134Y-12725984D02*
X8408134Y-12764079D01*
X8484325Y-12725984D02*
X8484325Y-12764079D01*
X8779563Y-13002174D02*
X8770039Y-12992650D01*
X8770039Y-12992650D02*
X8750991Y-12964079D01*
X8750991Y-12964079D02*
X8741468Y-12945031D01*
X8741468Y-12945031D02*
X8731944Y-12916460D01*
X8731944Y-12916460D02*
X8722420Y-12868841D01*
X8722420Y-12868841D02*
X8722420Y-12830746D01*
X8722420Y-12830746D02*
X8731944Y-12783127D01*
X8731944Y-12783127D02*
X8741468Y-12754555D01*
X8741468Y-12754555D02*
X8750991Y-12735508D01*
X8750991Y-12735508D02*
X8770039Y-12706936D01*
X8770039Y-12706936D02*
X8779563Y-12697412D01*
X8950991Y-12725984D02*
X8855753Y-12725984D01*
X8855753Y-12725984D02*
X8846230Y-12821222D01*
X8846230Y-12821222D02*
X8855753Y-12811698D01*
X8855753Y-12811698D02*
X8874801Y-12802174D01*
X8874801Y-12802174D02*
X8922420Y-12802174D01*
X8922420Y-12802174D02*
X8941468Y-12811698D01*
X8941468Y-12811698D02*
X8950991Y-12821222D01*
X8950991Y-12821222D02*
X8960515Y-12840269D01*
X8960515Y-12840269D02*
X8960515Y-12887888D01*
X8960515Y-12887888D02*
X8950991Y-12906936D01*
X8950991Y-12906936D02*
X8941468Y-12916460D01*
X8941468Y-12916460D02*
X8922420Y-12925984D01*
X8922420Y-12925984D02*
X8874801Y-12925984D01*
X8874801Y-12925984D02*
X8855753Y-12916460D01*
X8855753Y-12916460D02*
X8846230Y-12906936D01*
X9198611Y-12925984D02*
X9198611Y-12725984D01*
X9284325Y-12925984D02*
X9284325Y-12821222D01*
X9284325Y-12821222D02*
X9274801Y-12802174D01*
X9274801Y-12802174D02*
X9255753Y-12792650D01*
X9255753Y-12792650D02*
X9227182Y-12792650D01*
X9227182Y-12792650D02*
X9208134Y-12802174D01*
X9208134Y-12802174D02*
X9198611Y-12811698D01*
X9408134Y-12925984D02*
X9389087Y-12916460D01*
X9389087Y-12916460D02*
X9379563Y-12906936D01*
X9379563Y-12906936D02*
X9370039Y-12887888D01*
X9370039Y-12887888D02*
X9370039Y-12830746D01*
X9370039Y-12830746D02*
X9379563Y-12811698D01*
X9379563Y-12811698D02*
X9389087Y-12802174D01*
X9389087Y-12802174D02*
X9408134Y-12792650D01*
X9408134Y-12792650D02*
X9436706Y-12792650D01*
X9436706Y-12792650D02*
X9455753Y-12802174D01*
X9455753Y-12802174D02*
X9465277Y-12811698D01*
X9465277Y-12811698D02*
X9474801Y-12830746D01*
X9474801Y-12830746D02*
X9474801Y-12887888D01*
X9474801Y-12887888D02*
X9465277Y-12906936D01*
X9465277Y-12906936D02*
X9455753Y-12916460D01*
X9455753Y-12916460D02*
X9436706Y-12925984D01*
X9436706Y-12925984D02*
X9408134Y-12925984D01*
X9589087Y-12925984D02*
X9570039Y-12916460D01*
X9570039Y-12916460D02*
X9560515Y-12897412D01*
X9560515Y-12897412D02*
X9560515Y-12725984D01*
X9741468Y-12916460D02*
X9722420Y-12925984D01*
X9722420Y-12925984D02*
X9684325Y-12925984D01*
X9684325Y-12925984D02*
X9665277Y-12916460D01*
X9665277Y-12916460D02*
X9655753Y-12897412D01*
X9655753Y-12897412D02*
X9655753Y-12821222D01*
X9655753Y-12821222D02*
X9665277Y-12802174D01*
X9665277Y-12802174D02*
X9684325Y-12792650D01*
X9684325Y-12792650D02*
X9722420Y-12792650D01*
X9722420Y-12792650D02*
X9741468Y-12802174D01*
X9741468Y-12802174D02*
X9750992Y-12821222D01*
X9750992Y-12821222D02*
X9750992Y-12840269D01*
X9750992Y-12840269D02*
X9655753Y-12859317D01*
X9827182Y-12916460D02*
X9846230Y-12925984D01*
X9846230Y-12925984D02*
X9884325Y-12925984D01*
X9884325Y-12925984D02*
X9903373Y-12916460D01*
X9903373Y-12916460D02*
X9912896Y-12897412D01*
X9912896Y-12897412D02*
X9912896Y-12887888D01*
X9912896Y-12887888D02*
X9903373Y-12868841D01*
X9903373Y-12868841D02*
X9884325Y-12859317D01*
X9884325Y-12859317D02*
X9855753Y-12859317D01*
X9855753Y-12859317D02*
X9836706Y-12849793D01*
X9836706Y-12849793D02*
X9827182Y-12830746D01*
X9827182Y-12830746D02*
X9827182Y-12821222D01*
X9827182Y-12821222D02*
X9836706Y-12802174D01*
X9836706Y-12802174D02*
X9855753Y-12792650D01*
X9855753Y-12792650D02*
X9884325Y-12792650D01*
X9884325Y-12792650D02*
X9903373Y-12802174D01*
X9979563Y-13002174D02*
X9989087Y-12992650D01*
X9989087Y-12992650D02*
X10008134Y-12964079D01*
X10008134Y-12964079D02*
X10017658Y-12945031D01*
X10017658Y-12945031D02*
X10027182Y-12916460D01*
X10027182Y-12916460D02*
X10036706Y-12868841D01*
X10036706Y-12868841D02*
X10036706Y-12830746D01*
X10036706Y-12830746D02*
X10027182Y-12783127D01*
X10027182Y-12783127D02*
X10017658Y-12754555D01*
X10017658Y-12754555D02*
X10008134Y-12735508D01*
X10008134Y-12735508D02*
X9989087Y-12706936D01*
X9989087Y-12706936D02*
X9979563Y-12697412D01*
D12*
X5204500Y-13098500D02*
G75*
G02*
X5134500Y-13098500I-35000J0D01*
G01*
X5134500Y-13098500D02*
G75*
G02*
X5204500Y-13098500I35000J0D01*
G01*
D11*
X5503372Y-12989984D02*
X5522420Y-12989984D01*
X5522420Y-12989984D02*
X5541467Y-12999508D01*
X5541467Y-12999508D02*
X5550991Y-13009031D01*
X5550991Y-13009031D02*
X5560515Y-13028079D01*
X5560515Y-13028079D02*
X5570039Y-13066174D01*
X5570039Y-13066174D02*
X5570039Y-13113793D01*
X5570039Y-13113793D02*
X5560515Y-13151888D01*
X5560515Y-13151888D02*
X5550991Y-13170936D01*
X5550991Y-13170936D02*
X5541467Y-13180460D01*
X5541467Y-13180460D02*
X5522420Y-13189984D01*
X5522420Y-13189984D02*
X5503372Y-13189984D01*
X5503372Y-13189984D02*
X5484324Y-13180460D01*
X5484324Y-13180460D02*
X5474801Y-13170936D01*
X5474801Y-13170936D02*
X5465277Y-13151888D01*
X5465277Y-13151888D02*
X5455753Y-13113793D01*
X5455753Y-13113793D02*
X5455753Y-13066174D01*
X5455753Y-13066174D02*
X5465277Y-13028079D01*
X5465277Y-13028079D02*
X5474801Y-13009031D01*
X5474801Y-13009031D02*
X5484324Y-12999508D01*
X5484324Y-12999508D02*
X5503372Y-12989984D01*
X5655753Y-13170936D02*
X5665277Y-13180460D01*
X5665277Y-13180460D02*
X5655753Y-13189984D01*
X5655753Y-13189984D02*
X5646229Y-13180460D01*
X5646229Y-13180460D02*
X5655753Y-13170936D01*
X5655753Y-13170936D02*
X5655753Y-13189984D01*
X5731943Y-12989984D02*
X5865277Y-12989984D01*
X5865277Y-12989984D02*
X5779562Y-13189984D01*
X5979562Y-12989984D02*
X5998610Y-12989984D01*
X5998610Y-12989984D02*
X6017658Y-12999508D01*
X6017658Y-12999508D02*
X6027182Y-13009031D01*
X6027182Y-13009031D02*
X6036705Y-13028079D01*
X6036705Y-13028079D02*
X6046229Y-13066174D01*
X6046229Y-13066174D02*
X6046229Y-13113793D01*
X6046229Y-13113793D02*
X6036705Y-13151888D01*
X6036705Y-13151888D02*
X6027182Y-13170936D01*
X6027182Y-13170936D02*
X6017658Y-13180460D01*
X6017658Y-13180460D02*
X5998610Y-13189984D01*
X5998610Y-13189984D02*
X5979562Y-13189984D01*
X5979562Y-13189984D02*
X5960515Y-13180460D01*
X5960515Y-13180460D02*
X5950991Y-13170936D01*
X5950991Y-13170936D02*
X5941467Y-13151888D01*
X5941467Y-13151888D02*
X5931943Y-13113793D01*
X5931943Y-13113793D02*
X5931943Y-13066174D01*
X5931943Y-13066174D02*
X5941467Y-13028079D01*
X5941467Y-13028079D02*
X5950991Y-13009031D01*
X5950991Y-13009031D02*
X5960515Y-12999508D01*
X5960515Y-12999508D02*
X5979562Y-12989984D01*
X6170039Y-12989984D02*
X6189086Y-12989984D01*
X6189086Y-12989984D02*
X6208134Y-12999508D01*
X6208134Y-12999508D02*
X6217658Y-13009031D01*
X6217658Y-13009031D02*
X6227182Y-13028079D01*
X6227182Y-13028079D02*
X6236705Y-13066174D01*
X6236705Y-13066174D02*
X6236705Y-13113793D01*
X6236705Y-13113793D02*
X6227182Y-13151888D01*
X6227182Y-13151888D02*
X6217658Y-13170936D01*
X6217658Y-13170936D02*
X6208134Y-13180460D01*
X6208134Y-13180460D02*
X6189086Y-13189984D01*
X6189086Y-13189984D02*
X6170039Y-13189984D01*
X6170039Y-13189984D02*
X6150991Y-13180460D01*
X6150991Y-13180460D02*
X6141467Y-13170936D01*
X6141467Y-13170936D02*
X6131943Y-13151888D01*
X6131943Y-13151888D02*
X6122420Y-13113793D01*
X6122420Y-13113793D02*
X6122420Y-13066174D01*
X6122420Y-13066174D02*
X6131943Y-13028079D01*
X6131943Y-13028079D02*
X6141467Y-13009031D01*
X6141467Y-13009031D02*
X6150991Y-12999508D01*
X6150991Y-12999508D02*
X6170039Y-12989984D01*
X6322420Y-13189984D02*
X6322420Y-13056650D01*
X6322420Y-13075698D02*
X6331943Y-13066174D01*
X6331943Y-13066174D02*
X6350991Y-13056650D01*
X6350991Y-13056650D02*
X6379563Y-13056650D01*
X6379563Y-13056650D02*
X6398610Y-13066174D01*
X6398610Y-13066174D02*
X6408134Y-13085222D01*
X6408134Y-13085222D02*
X6408134Y-13189984D01*
X6408134Y-13085222D02*
X6417658Y-13066174D01*
X6417658Y-13066174D02*
X6436705Y-13056650D01*
X6436705Y-13056650D02*
X6465277Y-13056650D01*
X6465277Y-13056650D02*
X6484324Y-13066174D01*
X6484324Y-13066174D02*
X6493848Y-13085222D01*
X6493848Y-13085222D02*
X6493848Y-13189984D01*
X6589086Y-13189984D02*
X6589086Y-13056650D01*
X6589086Y-13075698D02*
X6598610Y-13066174D01*
X6598610Y-13066174D02*
X6617658Y-13056650D01*
X6617658Y-13056650D02*
X6646229Y-13056650D01*
X6646229Y-13056650D02*
X6665277Y-13066174D01*
X6665277Y-13066174D02*
X6674801Y-13085222D01*
X6674801Y-13085222D02*
X6674801Y-13189984D01*
X6674801Y-13085222D02*
X6684324Y-13066174D01*
X6684324Y-13066174D02*
X6703372Y-13056650D01*
X6703372Y-13056650D02*
X6731943Y-13056650D01*
X6731943Y-13056650D02*
X6750991Y-13066174D01*
X6750991Y-13066174D02*
X6760515Y-13085222D01*
X6760515Y-13085222D02*
X6760515Y-13189984D01*
X7150991Y-12980460D02*
X6979563Y-13237603D01*
X7408134Y-12989984D02*
X7427182Y-12989984D01*
X7427182Y-12989984D02*
X7446229Y-12999508D01*
X7446229Y-12999508D02*
X7455753Y-13009031D01*
X7455753Y-13009031D02*
X7465277Y-13028079D01*
X7465277Y-13028079D02*
X7474801Y-13066174D01*
X7474801Y-13066174D02*
X7474801Y-13113793D01*
X7474801Y-13113793D02*
X7465277Y-13151888D01*
X7465277Y-13151888D02*
X7455753Y-13170936D01*
X7455753Y-13170936D02*
X7446229Y-13180460D01*
X7446229Y-13180460D02*
X7427182Y-13189984D01*
X7427182Y-13189984D02*
X7408134Y-13189984D01*
X7408134Y-13189984D02*
X7389086Y-13180460D01*
X7389086Y-13180460D02*
X7379563Y-13170936D01*
X7379563Y-13170936D02*
X7370039Y-13151888D01*
X7370039Y-13151888D02*
X7360515Y-13113793D01*
X7360515Y-13113793D02*
X7360515Y-13066174D01*
X7360515Y-13066174D02*
X7370039Y-13028079D01*
X7370039Y-13028079D02*
X7379563Y-13009031D01*
X7379563Y-13009031D02*
X7389086Y-12999508D01*
X7389086Y-12999508D02*
X7408134Y-12989984D01*
X7560515Y-13170936D02*
X7570039Y-13180460D01*
X7570039Y-13180460D02*
X7560515Y-13189984D01*
X7560515Y-13189984D02*
X7550991Y-13180460D01*
X7550991Y-13180460D02*
X7560515Y-13170936D01*
X7560515Y-13170936D02*
X7560515Y-13189984D01*
X7693848Y-12989984D02*
X7712896Y-12989984D01*
X7712896Y-12989984D02*
X7731944Y-12999508D01*
X7731944Y-12999508D02*
X7741467Y-13009031D01*
X7741467Y-13009031D02*
X7750991Y-13028079D01*
X7750991Y-13028079D02*
X7760515Y-13066174D01*
X7760515Y-13066174D02*
X7760515Y-13113793D01*
X7760515Y-13113793D02*
X7750991Y-13151888D01*
X7750991Y-13151888D02*
X7741467Y-13170936D01*
X7741467Y-13170936D02*
X7731944Y-13180460D01*
X7731944Y-13180460D02*
X7712896Y-13189984D01*
X7712896Y-13189984D02*
X7693848Y-13189984D01*
X7693848Y-13189984D02*
X7674801Y-13180460D01*
X7674801Y-13180460D02*
X7665277Y-13170936D01*
X7665277Y-13170936D02*
X7655753Y-13151888D01*
X7655753Y-13151888D02*
X7646229Y-13113793D01*
X7646229Y-13113793D02*
X7646229Y-13066174D01*
X7646229Y-13066174D02*
X7655753Y-13028079D01*
X7655753Y-13028079D02*
X7665277Y-13009031D01*
X7665277Y-13009031D02*
X7674801Y-12999508D01*
X7674801Y-12999508D02*
X7693848Y-12989984D01*
X7836706Y-13009031D02*
X7846229Y-12999508D01*
X7846229Y-12999508D02*
X7865277Y-12989984D01*
X7865277Y-12989984D02*
X7912896Y-12989984D01*
X7912896Y-12989984D02*
X7931944Y-12999508D01*
X7931944Y-12999508D02*
X7941467Y-13009031D01*
X7941467Y-13009031D02*
X7950991Y-13028079D01*
X7950991Y-13028079D02*
X7950991Y-13047127D01*
X7950991Y-13047127D02*
X7941467Y-13075698D01*
X7941467Y-13075698D02*
X7827182Y-13189984D01*
X7827182Y-13189984D02*
X7950991Y-13189984D01*
X8017658Y-12989984D02*
X8150991Y-12989984D01*
X8150991Y-12989984D02*
X8065277Y-13189984D01*
X8312896Y-12989984D02*
X8274801Y-12989984D01*
X8274801Y-12989984D02*
X8255753Y-12999508D01*
X8255753Y-12999508D02*
X8246229Y-13009031D01*
X8246229Y-13009031D02*
X8227182Y-13037603D01*
X8227182Y-13037603D02*
X8217658Y-13075698D01*
X8217658Y-13075698D02*
X8217658Y-13151888D01*
X8217658Y-13151888D02*
X8227182Y-13170936D01*
X8227182Y-13170936D02*
X8236706Y-13180460D01*
X8236706Y-13180460D02*
X8255753Y-13189984D01*
X8255753Y-13189984D02*
X8293848Y-13189984D01*
X8293848Y-13189984D02*
X8312896Y-13180460D01*
X8312896Y-13180460D02*
X8322420Y-13170936D01*
X8322420Y-13170936D02*
X8331944Y-13151888D01*
X8331944Y-13151888D02*
X8331944Y-13104269D01*
X8331944Y-13104269D02*
X8322420Y-13085222D01*
X8322420Y-13085222D02*
X8312896Y-13075698D01*
X8312896Y-13075698D02*
X8293848Y-13066174D01*
X8293848Y-13066174D02*
X8255753Y-13066174D01*
X8255753Y-13066174D02*
X8236706Y-13075698D01*
X8236706Y-13075698D02*
X8227182Y-13085222D01*
X8227182Y-13085222D02*
X8217658Y-13104269D01*
X8408134Y-12989984D02*
X8408134Y-13028079D01*
X8484325Y-12989984D02*
X8484325Y-13028079D01*
X8779563Y-13266174D02*
X8770039Y-13256650D01*
X8770039Y-13256650D02*
X8750991Y-13228079D01*
X8750991Y-13228079D02*
X8741468Y-13209031D01*
X8741468Y-13209031D02*
X8731944Y-13180460D01*
X8731944Y-13180460D02*
X8722420Y-13132841D01*
X8722420Y-13132841D02*
X8722420Y-13094746D01*
X8722420Y-13094746D02*
X8731944Y-13047127D01*
X8731944Y-13047127D02*
X8741468Y-13018555D01*
X8741468Y-13018555D02*
X8750991Y-12999508D01*
X8750991Y-12999508D02*
X8770039Y-12970936D01*
X8770039Y-12970936D02*
X8779563Y-12961412D01*
X8884325Y-13075698D02*
X8865277Y-13066174D01*
X8865277Y-13066174D02*
X8855753Y-13056650D01*
X8855753Y-13056650D02*
X8846230Y-13037603D01*
X8846230Y-13037603D02*
X8846230Y-13028079D01*
X8846230Y-13028079D02*
X8855753Y-13009031D01*
X8855753Y-13009031D02*
X8865277Y-12999508D01*
X8865277Y-12999508D02*
X8884325Y-12989984D01*
X8884325Y-12989984D02*
X8922420Y-12989984D01*
X8922420Y-12989984D02*
X8941468Y-12999508D01*
X8941468Y-12999508D02*
X8950991Y-13009031D01*
X8950991Y-13009031D02*
X8960515Y-13028079D01*
X8960515Y-13028079D02*
X8960515Y-13037603D01*
X8960515Y-13037603D02*
X8950991Y-13056650D01*
X8950991Y-13056650D02*
X8941468Y-13066174D01*
X8941468Y-13066174D02*
X8922420Y-13075698D01*
X8922420Y-13075698D02*
X8884325Y-13075698D01*
X8884325Y-13075698D02*
X8865277Y-13085222D01*
X8865277Y-13085222D02*
X8855753Y-13094746D01*
X8855753Y-13094746D02*
X8846230Y-13113793D01*
X8846230Y-13113793D02*
X8846230Y-13151888D01*
X8846230Y-13151888D02*
X8855753Y-13170936D01*
X8855753Y-13170936D02*
X8865277Y-13180460D01*
X8865277Y-13180460D02*
X8884325Y-13189984D01*
X8884325Y-13189984D02*
X8922420Y-13189984D01*
X8922420Y-13189984D02*
X8941468Y-13180460D01*
X8941468Y-13180460D02*
X8950991Y-13170936D01*
X8950991Y-13170936D02*
X8960515Y-13151888D01*
X8960515Y-13151888D02*
X8960515Y-13113793D01*
X8960515Y-13113793D02*
X8950991Y-13094746D01*
X8950991Y-13094746D02*
X8941468Y-13085222D01*
X8941468Y-13085222D02*
X8922420Y-13075698D01*
X9198611Y-13189984D02*
X9198611Y-12989984D01*
X9284325Y-13189984D02*
X9284325Y-13085222D01*
X9284325Y-13085222D02*
X9274801Y-13066174D01*
X9274801Y-13066174D02*
X9255753Y-13056650D01*
X9255753Y-13056650D02*
X9227182Y-13056650D01*
X9227182Y-13056650D02*
X9208134Y-13066174D01*
X9208134Y-13066174D02*
X9198611Y-13075698D01*
X9408134Y-13189984D02*
X9389087Y-13180460D01*
X9389087Y-13180460D02*
X9379563Y-13170936D01*
X9379563Y-13170936D02*
X9370039Y-13151888D01*
X9370039Y-13151888D02*
X9370039Y-13094746D01*
X9370039Y-13094746D02*
X9379563Y-13075698D01*
X9379563Y-13075698D02*
X9389087Y-13066174D01*
X9389087Y-13066174D02*
X9408134Y-13056650D01*
X9408134Y-13056650D02*
X9436706Y-13056650D01*
X9436706Y-13056650D02*
X9455753Y-13066174D01*
X9455753Y-13066174D02*
X9465277Y-13075698D01*
X9465277Y-13075698D02*
X9474801Y-13094746D01*
X9474801Y-13094746D02*
X9474801Y-13151888D01*
X9474801Y-13151888D02*
X9465277Y-13170936D01*
X9465277Y-13170936D02*
X9455753Y-13180460D01*
X9455753Y-13180460D02*
X9436706Y-13189984D01*
X9436706Y-13189984D02*
X9408134Y-13189984D01*
X9589087Y-13189984D02*
X9570039Y-13180460D01*
X9570039Y-13180460D02*
X9560515Y-13161412D01*
X9560515Y-13161412D02*
X9560515Y-12989984D01*
X9741468Y-13180460D02*
X9722420Y-13189984D01*
X9722420Y-13189984D02*
X9684325Y-13189984D01*
X9684325Y-13189984D02*
X9665277Y-13180460D01*
X9665277Y-13180460D02*
X9655753Y-13161412D01*
X9655753Y-13161412D02*
X9655753Y-13085222D01*
X9655753Y-13085222D02*
X9665277Y-13066174D01*
X9665277Y-13066174D02*
X9684325Y-13056650D01*
X9684325Y-13056650D02*
X9722420Y-13056650D01*
X9722420Y-13056650D02*
X9741468Y-13066174D01*
X9741468Y-13066174D02*
X9750992Y-13085222D01*
X9750992Y-13085222D02*
X9750992Y-13104269D01*
X9750992Y-13104269D02*
X9655753Y-13123317D01*
X9827182Y-13180460D02*
X9846230Y-13189984D01*
X9846230Y-13189984D02*
X9884325Y-13189984D01*
X9884325Y-13189984D02*
X9903373Y-13180460D01*
X9903373Y-13180460D02*
X9912896Y-13161412D01*
X9912896Y-13161412D02*
X9912896Y-13151888D01*
X9912896Y-13151888D02*
X9903373Y-13132841D01*
X9903373Y-13132841D02*
X9884325Y-13123317D01*
X9884325Y-13123317D02*
X9855753Y-13123317D01*
X9855753Y-13123317D02*
X9836706Y-13113793D01*
X9836706Y-13113793D02*
X9827182Y-13094746D01*
X9827182Y-13094746D02*
X9827182Y-13085222D01*
X9827182Y-13085222D02*
X9836706Y-13066174D01*
X9836706Y-13066174D02*
X9855753Y-13056650D01*
X9855753Y-13056650D02*
X9884325Y-13056650D01*
X9884325Y-13056650D02*
X9903373Y-13066174D01*
X9979563Y-13266174D02*
X9989087Y-13256650D01*
X9989087Y-13256650D02*
X10008134Y-13228079D01*
X10008134Y-13228079D02*
X10017658Y-13209031D01*
X10017658Y-13209031D02*
X10027182Y-13180460D01*
X10027182Y-13180460D02*
X10036706Y-13132841D01*
X10036706Y-13132841D02*
X10036706Y-13094746D01*
X10036706Y-13094746D02*
X10027182Y-13047127D01*
X10027182Y-13047127D02*
X10017658Y-13018555D01*
X10017658Y-13018555D02*
X10008134Y-12999508D01*
X10008134Y-12999508D02*
X9989087Y-12970936D01*
X9989087Y-12970936D02*
X9979563Y-12961412D01*
D12*
X5164500Y-13322500D02*
X5164500Y-13402500D01*
X5124500Y-13362500D02*
X5204500Y-13362500D01*
D11*
X5503372Y-13253984D02*
X5522420Y-13253984D01*
X5522420Y-13253984D02*
X5541467Y-13263508D01*
X5541467Y-13263508D02*
X5550991Y-13273031D01*
X5550991Y-13273031D02*
X5560515Y-13292079D01*
X5560515Y-13292079D02*
X5570039Y-13330174D01*
X5570039Y-13330174D02*
X5570039Y-13377793D01*
X5570039Y-13377793D02*
X5560515Y-13415888D01*
X5560515Y-13415888D02*
X5550991Y-13434936D01*
X5550991Y-13434936D02*
X5541467Y-13444460D01*
X5541467Y-13444460D02*
X5522420Y-13453984D01*
X5522420Y-13453984D02*
X5503372Y-13453984D01*
X5503372Y-13453984D02*
X5484324Y-13444460D01*
X5484324Y-13444460D02*
X5474801Y-13434936D01*
X5474801Y-13434936D02*
X5465277Y-13415888D01*
X5465277Y-13415888D02*
X5455753Y-13377793D01*
X5455753Y-13377793D02*
X5455753Y-13330174D01*
X5455753Y-13330174D02*
X5465277Y-13292079D01*
X5465277Y-13292079D02*
X5474801Y-13273031D01*
X5474801Y-13273031D02*
X5484324Y-13263508D01*
X5484324Y-13263508D02*
X5503372Y-13253984D01*
X5655753Y-13434936D02*
X5665277Y-13444460D01*
X5665277Y-13444460D02*
X5655753Y-13453984D01*
X5655753Y-13453984D02*
X5646229Y-13444460D01*
X5646229Y-13444460D02*
X5655753Y-13434936D01*
X5655753Y-13434936D02*
X5655753Y-13453984D01*
X5779562Y-13339698D02*
X5760515Y-13330174D01*
X5760515Y-13330174D02*
X5750991Y-13320650D01*
X5750991Y-13320650D02*
X5741467Y-13301603D01*
X5741467Y-13301603D02*
X5741467Y-13292079D01*
X5741467Y-13292079D02*
X5750991Y-13273031D01*
X5750991Y-13273031D02*
X5760515Y-13263508D01*
X5760515Y-13263508D02*
X5779562Y-13253984D01*
X5779562Y-13253984D02*
X5817658Y-13253984D01*
X5817658Y-13253984D02*
X5836705Y-13263508D01*
X5836705Y-13263508D02*
X5846229Y-13273031D01*
X5846229Y-13273031D02*
X5855753Y-13292079D01*
X5855753Y-13292079D02*
X5855753Y-13301603D01*
X5855753Y-13301603D02*
X5846229Y-13320650D01*
X5846229Y-13320650D02*
X5836705Y-13330174D01*
X5836705Y-13330174D02*
X5817658Y-13339698D01*
X5817658Y-13339698D02*
X5779562Y-13339698D01*
X5779562Y-13339698D02*
X5760515Y-13349222D01*
X5760515Y-13349222D02*
X5750991Y-13358746D01*
X5750991Y-13358746D02*
X5741467Y-13377793D01*
X5741467Y-13377793D02*
X5741467Y-13415888D01*
X5741467Y-13415888D02*
X5750991Y-13434936D01*
X5750991Y-13434936D02*
X5760515Y-13444460D01*
X5760515Y-13444460D02*
X5779562Y-13453984D01*
X5779562Y-13453984D02*
X5817658Y-13453984D01*
X5817658Y-13453984D02*
X5836705Y-13444460D01*
X5836705Y-13444460D02*
X5846229Y-13434936D01*
X5846229Y-13434936D02*
X5855753Y-13415888D01*
X5855753Y-13415888D02*
X5855753Y-13377793D01*
X5855753Y-13377793D02*
X5846229Y-13358746D01*
X5846229Y-13358746D02*
X5836705Y-13349222D01*
X5836705Y-13349222D02*
X5817658Y-13339698D01*
X5979562Y-13253984D02*
X5998610Y-13253984D01*
X5998610Y-13253984D02*
X6017658Y-13263508D01*
X6017658Y-13263508D02*
X6027182Y-13273031D01*
X6027182Y-13273031D02*
X6036705Y-13292079D01*
X6036705Y-13292079D02*
X6046229Y-13330174D01*
X6046229Y-13330174D02*
X6046229Y-13377793D01*
X6046229Y-13377793D02*
X6036705Y-13415888D01*
X6036705Y-13415888D02*
X6027182Y-13434936D01*
X6027182Y-13434936D02*
X6017658Y-13444460D01*
X6017658Y-13444460D02*
X5998610Y-13453984D01*
X5998610Y-13453984D02*
X5979562Y-13453984D01*
X5979562Y-13453984D02*
X5960515Y-13444460D01*
X5960515Y-13444460D02*
X5950991Y-13434936D01*
X5950991Y-13434936D02*
X5941467Y-13415888D01*
X5941467Y-13415888D02*
X5931943Y-13377793D01*
X5931943Y-13377793D02*
X5931943Y-13330174D01*
X5931943Y-13330174D02*
X5941467Y-13292079D01*
X5941467Y-13292079D02*
X5950991Y-13273031D01*
X5950991Y-13273031D02*
X5960515Y-13263508D01*
X5960515Y-13263508D02*
X5979562Y-13253984D01*
X6170039Y-13253984D02*
X6189086Y-13253984D01*
X6189086Y-13253984D02*
X6208134Y-13263508D01*
X6208134Y-13263508D02*
X6217658Y-13273031D01*
X6217658Y-13273031D02*
X6227182Y-13292079D01*
X6227182Y-13292079D02*
X6236705Y-13330174D01*
X6236705Y-13330174D02*
X6236705Y-13377793D01*
X6236705Y-13377793D02*
X6227182Y-13415888D01*
X6227182Y-13415888D02*
X6217658Y-13434936D01*
X6217658Y-13434936D02*
X6208134Y-13444460D01*
X6208134Y-13444460D02*
X6189086Y-13453984D01*
X6189086Y-13453984D02*
X6170039Y-13453984D01*
X6170039Y-13453984D02*
X6150991Y-13444460D01*
X6150991Y-13444460D02*
X6141467Y-13434936D01*
X6141467Y-13434936D02*
X6131943Y-13415888D01*
X6131943Y-13415888D02*
X6122420Y-13377793D01*
X6122420Y-13377793D02*
X6122420Y-13330174D01*
X6122420Y-13330174D02*
X6131943Y-13292079D01*
X6131943Y-13292079D02*
X6141467Y-13273031D01*
X6141467Y-13273031D02*
X6150991Y-13263508D01*
X6150991Y-13263508D02*
X6170039Y-13253984D01*
X6322420Y-13453984D02*
X6322420Y-13320650D01*
X6322420Y-13339698D02*
X6331943Y-13330174D01*
X6331943Y-13330174D02*
X6350991Y-13320650D01*
X6350991Y-13320650D02*
X6379563Y-13320650D01*
X6379563Y-13320650D02*
X6398610Y-13330174D01*
X6398610Y-13330174D02*
X6408134Y-13349222D01*
X6408134Y-13349222D02*
X6408134Y-13453984D01*
X6408134Y-13349222D02*
X6417658Y-13330174D01*
X6417658Y-13330174D02*
X6436705Y-13320650D01*
X6436705Y-13320650D02*
X6465277Y-13320650D01*
X6465277Y-13320650D02*
X6484324Y-13330174D01*
X6484324Y-13330174D02*
X6493848Y-13349222D01*
X6493848Y-13349222D02*
X6493848Y-13453984D01*
X6589086Y-13453984D02*
X6589086Y-13320650D01*
X6589086Y-13339698D02*
X6598610Y-13330174D01*
X6598610Y-13330174D02*
X6617658Y-13320650D01*
X6617658Y-13320650D02*
X6646229Y-13320650D01*
X6646229Y-13320650D02*
X6665277Y-13330174D01*
X6665277Y-13330174D02*
X6674801Y-13349222D01*
X6674801Y-13349222D02*
X6674801Y-13453984D01*
X6674801Y-13349222D02*
X6684324Y-13330174D01*
X6684324Y-13330174D02*
X6703372Y-13320650D01*
X6703372Y-13320650D02*
X6731943Y-13320650D01*
X6731943Y-13320650D02*
X6750991Y-13330174D01*
X6750991Y-13330174D02*
X6760515Y-13349222D01*
X6760515Y-13349222D02*
X6760515Y-13453984D01*
X7150991Y-13244460D02*
X6979563Y-13501603D01*
X7408134Y-13253984D02*
X7427182Y-13253984D01*
X7427182Y-13253984D02*
X7446229Y-13263508D01*
X7446229Y-13263508D02*
X7455753Y-13273031D01*
X7455753Y-13273031D02*
X7465277Y-13292079D01*
X7465277Y-13292079D02*
X7474801Y-13330174D01*
X7474801Y-13330174D02*
X7474801Y-13377793D01*
X7474801Y-13377793D02*
X7465277Y-13415888D01*
X7465277Y-13415888D02*
X7455753Y-13434936D01*
X7455753Y-13434936D02*
X7446229Y-13444460D01*
X7446229Y-13444460D02*
X7427182Y-13453984D01*
X7427182Y-13453984D02*
X7408134Y-13453984D01*
X7408134Y-13453984D02*
X7389086Y-13444460D01*
X7389086Y-13444460D02*
X7379563Y-13434936D01*
X7379563Y-13434936D02*
X7370039Y-13415888D01*
X7370039Y-13415888D02*
X7360515Y-13377793D01*
X7360515Y-13377793D02*
X7360515Y-13330174D01*
X7360515Y-13330174D02*
X7370039Y-13292079D01*
X7370039Y-13292079D02*
X7379563Y-13273031D01*
X7379563Y-13273031D02*
X7389086Y-13263508D01*
X7389086Y-13263508D02*
X7408134Y-13253984D01*
X7560515Y-13434936D02*
X7570039Y-13444460D01*
X7570039Y-13444460D02*
X7560515Y-13453984D01*
X7560515Y-13453984D02*
X7550991Y-13444460D01*
X7550991Y-13444460D02*
X7560515Y-13434936D01*
X7560515Y-13434936D02*
X7560515Y-13453984D01*
X7693848Y-13253984D02*
X7712896Y-13253984D01*
X7712896Y-13253984D02*
X7731944Y-13263508D01*
X7731944Y-13263508D02*
X7741467Y-13273031D01*
X7741467Y-13273031D02*
X7750991Y-13292079D01*
X7750991Y-13292079D02*
X7760515Y-13330174D01*
X7760515Y-13330174D02*
X7760515Y-13377793D01*
X7760515Y-13377793D02*
X7750991Y-13415888D01*
X7750991Y-13415888D02*
X7741467Y-13434936D01*
X7741467Y-13434936D02*
X7731944Y-13444460D01*
X7731944Y-13444460D02*
X7712896Y-13453984D01*
X7712896Y-13453984D02*
X7693848Y-13453984D01*
X7693848Y-13453984D02*
X7674801Y-13444460D01*
X7674801Y-13444460D02*
X7665277Y-13434936D01*
X7665277Y-13434936D02*
X7655753Y-13415888D01*
X7655753Y-13415888D02*
X7646229Y-13377793D01*
X7646229Y-13377793D02*
X7646229Y-13330174D01*
X7646229Y-13330174D02*
X7655753Y-13292079D01*
X7655753Y-13292079D02*
X7665277Y-13273031D01*
X7665277Y-13273031D02*
X7674801Y-13263508D01*
X7674801Y-13263508D02*
X7693848Y-13253984D01*
X7827182Y-13253984D02*
X7950991Y-13253984D01*
X7950991Y-13253984D02*
X7884325Y-13330174D01*
X7884325Y-13330174D02*
X7912896Y-13330174D01*
X7912896Y-13330174D02*
X7931944Y-13339698D01*
X7931944Y-13339698D02*
X7941467Y-13349222D01*
X7941467Y-13349222D02*
X7950991Y-13368269D01*
X7950991Y-13368269D02*
X7950991Y-13415888D01*
X7950991Y-13415888D02*
X7941467Y-13434936D01*
X7941467Y-13434936D02*
X7931944Y-13444460D01*
X7931944Y-13444460D02*
X7912896Y-13453984D01*
X7912896Y-13453984D02*
X7855753Y-13453984D01*
X7855753Y-13453984D02*
X7836706Y-13444460D01*
X7836706Y-13444460D02*
X7827182Y-13434936D01*
X8141467Y-13453984D02*
X8027182Y-13453984D01*
X8084325Y-13453984D02*
X8084325Y-13253984D01*
X8084325Y-13253984D02*
X8065277Y-13282555D01*
X8065277Y-13282555D02*
X8046229Y-13301603D01*
X8046229Y-13301603D02*
X8027182Y-13311127D01*
X8322420Y-13253984D02*
X8227182Y-13253984D01*
X8227182Y-13253984D02*
X8217658Y-13349222D01*
X8217658Y-13349222D02*
X8227182Y-13339698D01*
X8227182Y-13339698D02*
X8246229Y-13330174D01*
X8246229Y-13330174D02*
X8293848Y-13330174D01*
X8293848Y-13330174D02*
X8312896Y-13339698D01*
X8312896Y-13339698D02*
X8322420Y-13349222D01*
X8322420Y-13349222D02*
X8331944Y-13368269D01*
X8331944Y-13368269D02*
X8331944Y-13415888D01*
X8331944Y-13415888D02*
X8322420Y-13434936D01*
X8322420Y-13434936D02*
X8312896Y-13444460D01*
X8312896Y-13444460D02*
X8293848Y-13453984D01*
X8293848Y-13453984D02*
X8246229Y-13453984D01*
X8246229Y-13453984D02*
X8227182Y-13444460D01*
X8227182Y-13444460D02*
X8217658Y-13434936D01*
X8408134Y-13253984D02*
X8408134Y-13292079D01*
X8484325Y-13253984D02*
X8484325Y-13292079D01*
X8779563Y-13530174D02*
X8770039Y-13520650D01*
X8770039Y-13520650D02*
X8750991Y-13492079D01*
X8750991Y-13492079D02*
X8741468Y-13473031D01*
X8741468Y-13473031D02*
X8731944Y-13444460D01*
X8731944Y-13444460D02*
X8722420Y-13396841D01*
X8722420Y-13396841D02*
X8722420Y-13358746D01*
X8722420Y-13358746D02*
X8731944Y-13311127D01*
X8731944Y-13311127D02*
X8741468Y-13282555D01*
X8741468Y-13282555D02*
X8750991Y-13263508D01*
X8750991Y-13263508D02*
X8770039Y-13234936D01*
X8770039Y-13234936D02*
X8779563Y-13225412D01*
X8884325Y-13339698D02*
X8865277Y-13330174D01*
X8865277Y-13330174D02*
X8855753Y-13320650D01*
X8855753Y-13320650D02*
X8846230Y-13301603D01*
X8846230Y-13301603D02*
X8846230Y-13292079D01*
X8846230Y-13292079D02*
X8855753Y-13273031D01*
X8855753Y-13273031D02*
X8865277Y-13263508D01*
X8865277Y-13263508D02*
X8884325Y-13253984D01*
X8884325Y-13253984D02*
X8922420Y-13253984D01*
X8922420Y-13253984D02*
X8941468Y-13263508D01*
X8941468Y-13263508D02*
X8950991Y-13273031D01*
X8950991Y-13273031D02*
X8960515Y-13292079D01*
X8960515Y-13292079D02*
X8960515Y-13301603D01*
X8960515Y-13301603D02*
X8950991Y-13320650D01*
X8950991Y-13320650D02*
X8941468Y-13330174D01*
X8941468Y-13330174D02*
X8922420Y-13339698D01*
X8922420Y-13339698D02*
X8884325Y-13339698D01*
X8884325Y-13339698D02*
X8865277Y-13349222D01*
X8865277Y-13349222D02*
X8855753Y-13358746D01*
X8855753Y-13358746D02*
X8846230Y-13377793D01*
X8846230Y-13377793D02*
X8846230Y-13415888D01*
X8846230Y-13415888D02*
X8855753Y-13434936D01*
X8855753Y-13434936D02*
X8865277Y-13444460D01*
X8865277Y-13444460D02*
X8884325Y-13453984D01*
X8884325Y-13453984D02*
X8922420Y-13453984D01*
X8922420Y-13453984D02*
X8941468Y-13444460D01*
X8941468Y-13444460D02*
X8950991Y-13434936D01*
X8950991Y-13434936D02*
X8960515Y-13415888D01*
X8960515Y-13415888D02*
X8960515Y-13377793D01*
X8960515Y-13377793D02*
X8950991Y-13358746D01*
X8950991Y-13358746D02*
X8941468Y-13349222D01*
X8941468Y-13349222D02*
X8922420Y-13339698D01*
X9131944Y-13253984D02*
X9093849Y-13253984D01*
X9093849Y-13253984D02*
X9074801Y-13263508D01*
X9074801Y-13263508D02*
X9065277Y-13273031D01*
X9065277Y-13273031D02*
X9046230Y-13301603D01*
X9046230Y-13301603D02*
X9036706Y-13339698D01*
X9036706Y-13339698D02*
X9036706Y-13415888D01*
X9036706Y-13415888D02*
X9046230Y-13434936D01*
X9046230Y-13434936D02*
X9055753Y-13444460D01*
X9055753Y-13444460D02*
X9074801Y-13453984D01*
X9074801Y-13453984D02*
X9112896Y-13453984D01*
X9112896Y-13453984D02*
X9131944Y-13444460D01*
X9131944Y-13444460D02*
X9141468Y-13434936D01*
X9141468Y-13434936D02*
X9150991Y-13415888D01*
X9150991Y-13415888D02*
X9150991Y-13368269D01*
X9150991Y-13368269D02*
X9141468Y-13349222D01*
X9141468Y-13349222D02*
X9131944Y-13339698D01*
X9131944Y-13339698D02*
X9112896Y-13330174D01*
X9112896Y-13330174D02*
X9074801Y-13330174D01*
X9074801Y-13330174D02*
X9055753Y-13339698D01*
X9055753Y-13339698D02*
X9046230Y-13349222D01*
X9046230Y-13349222D02*
X9036706Y-13368269D01*
X9389087Y-13453984D02*
X9389087Y-13253984D01*
X9474801Y-13453984D02*
X9474801Y-13349222D01*
X9474801Y-13349222D02*
X9465277Y-13330174D01*
X9465277Y-13330174D02*
X9446230Y-13320650D01*
X9446230Y-13320650D02*
X9417658Y-13320650D01*
X9417658Y-13320650D02*
X9398611Y-13330174D01*
X9398611Y-13330174D02*
X9389087Y-13339698D01*
X9598611Y-13453984D02*
X9579563Y-13444460D01*
X9579563Y-13444460D02*
X9570039Y-13434936D01*
X9570039Y-13434936D02*
X9560515Y-13415888D01*
X9560515Y-13415888D02*
X9560515Y-13358746D01*
X9560515Y-13358746D02*
X9570039Y-13339698D01*
X9570039Y-13339698D02*
X9579563Y-13330174D01*
X9579563Y-13330174D02*
X9598611Y-13320650D01*
X9598611Y-13320650D02*
X9627182Y-13320650D01*
X9627182Y-13320650D02*
X9646230Y-13330174D01*
X9646230Y-13330174D02*
X9655753Y-13339698D01*
X9655753Y-13339698D02*
X9665277Y-13358746D01*
X9665277Y-13358746D02*
X9665277Y-13415888D01*
X9665277Y-13415888D02*
X9655753Y-13434936D01*
X9655753Y-13434936D02*
X9646230Y-13444460D01*
X9646230Y-13444460D02*
X9627182Y-13453984D01*
X9627182Y-13453984D02*
X9598611Y-13453984D01*
X9779563Y-13453984D02*
X9760515Y-13444460D01*
X9760515Y-13444460D02*
X9750992Y-13425412D01*
X9750992Y-13425412D02*
X9750992Y-13253984D01*
X9931944Y-13444460D02*
X9912896Y-13453984D01*
X9912896Y-13453984D02*
X9874801Y-13453984D01*
X9874801Y-13453984D02*
X9855753Y-13444460D01*
X9855753Y-13444460D02*
X9846230Y-13425412D01*
X9846230Y-13425412D02*
X9846230Y-13349222D01*
X9846230Y-13349222D02*
X9855753Y-13330174D01*
X9855753Y-13330174D02*
X9874801Y-13320650D01*
X9874801Y-13320650D02*
X9912896Y-13320650D01*
X9912896Y-13320650D02*
X9931944Y-13330174D01*
X9931944Y-13330174D02*
X9941468Y-13349222D01*
X9941468Y-13349222D02*
X9941468Y-13368269D01*
X9941468Y-13368269D02*
X9846230Y-13387317D01*
X10017658Y-13444460D02*
X10036706Y-13453984D01*
X10036706Y-13453984D02*
X10074801Y-13453984D01*
X10074801Y-13453984D02*
X10093849Y-13444460D01*
X10093849Y-13444460D02*
X10103373Y-13425412D01*
X10103373Y-13425412D02*
X10103373Y-13415888D01*
X10103373Y-13415888D02*
X10093849Y-13396841D01*
X10093849Y-13396841D02*
X10074801Y-13387317D01*
X10074801Y-13387317D02*
X10046230Y-13387317D01*
X10046230Y-13387317D02*
X10027182Y-13377793D01*
X10027182Y-13377793D02*
X10017658Y-13358746D01*
X10017658Y-13358746D02*
X10017658Y-13349222D01*
X10017658Y-13349222D02*
X10027182Y-13330174D01*
X10027182Y-13330174D02*
X10046230Y-13320650D01*
X10046230Y-13320650D02*
X10074801Y-13320650D01*
X10074801Y-13320650D02*
X10093849Y-13330174D01*
X10170039Y-13530174D02*
X10179563Y-13520650D01*
X10179563Y-13520650D02*
X10198611Y-13492079D01*
X10198611Y-13492079D02*
X10208134Y-13473031D01*
X10208134Y-13473031D02*
X10217658Y-13444460D01*
X10217658Y-13444460D02*
X10227182Y-13396841D01*
X10227182Y-13396841D02*
X10227182Y-13358746D01*
X10227182Y-13358746D02*
X10217658Y-13311127D01*
X10217658Y-13311127D02*
X10208134Y-13282555D01*
X10208134Y-13282555D02*
X10198611Y-13263508D01*
X10198611Y-13263508D02*
X10179563Y-13234936D01*
X10179563Y-13234936D02*
X10170039Y-13225412D01*
D12*
X5191320Y-13658320D02*
X5191320Y-13594680D01*
X5127680Y-13594680D01*
X5127680Y-13658320D01*
X5191320Y-13658320D01*
D11*
X5503372Y-13517984D02*
X5522420Y-13517984D01*
X5522420Y-13517984D02*
X5541467Y-13527508D01*
X5541467Y-13527508D02*
X5550991Y-13537031D01*
X5550991Y-13537031D02*
X5560515Y-13556079D01*
X5560515Y-13556079D02*
X5570039Y-13594174D01*
X5570039Y-13594174D02*
X5570039Y-13641793D01*
X5570039Y-13641793D02*
X5560515Y-13679888D01*
X5560515Y-13679888D02*
X5550991Y-13698936D01*
X5550991Y-13698936D02*
X5541467Y-13708460D01*
X5541467Y-13708460D02*
X5522420Y-13717984D01*
X5522420Y-13717984D02*
X5503372Y-13717984D01*
X5503372Y-13717984D02*
X5484324Y-13708460D01*
X5484324Y-13708460D02*
X5474801Y-13698936D01*
X5474801Y-13698936D02*
X5465277Y-13679888D01*
X5465277Y-13679888D02*
X5455753Y-13641793D01*
X5455753Y-13641793D02*
X5455753Y-13594174D01*
X5455753Y-13594174D02*
X5465277Y-13556079D01*
X5465277Y-13556079D02*
X5474801Y-13537031D01*
X5474801Y-13537031D02*
X5484324Y-13527508D01*
X5484324Y-13527508D02*
X5503372Y-13517984D01*
X5655753Y-13698936D02*
X5665277Y-13708460D01*
X5665277Y-13708460D02*
X5655753Y-13717984D01*
X5655753Y-13717984D02*
X5646229Y-13708460D01*
X5646229Y-13708460D02*
X5655753Y-13698936D01*
X5655753Y-13698936D02*
X5655753Y-13717984D01*
X5760515Y-13717984D02*
X5798610Y-13717984D01*
X5798610Y-13717984D02*
X5817658Y-13708460D01*
X5817658Y-13708460D02*
X5827182Y-13698936D01*
X5827182Y-13698936D02*
X5846229Y-13670365D01*
X5846229Y-13670365D02*
X5855753Y-13632269D01*
X5855753Y-13632269D02*
X5855753Y-13556079D01*
X5855753Y-13556079D02*
X5846229Y-13537031D01*
X5846229Y-13537031D02*
X5836705Y-13527508D01*
X5836705Y-13527508D02*
X5817658Y-13517984D01*
X5817658Y-13517984D02*
X5779562Y-13517984D01*
X5779562Y-13517984D02*
X5760515Y-13527508D01*
X5760515Y-13527508D02*
X5750991Y-13537031D01*
X5750991Y-13537031D02*
X5741467Y-13556079D01*
X5741467Y-13556079D02*
X5741467Y-13603698D01*
X5741467Y-13603698D02*
X5750991Y-13622746D01*
X5750991Y-13622746D02*
X5760515Y-13632269D01*
X5760515Y-13632269D02*
X5779562Y-13641793D01*
X5779562Y-13641793D02*
X5817658Y-13641793D01*
X5817658Y-13641793D02*
X5836705Y-13632269D01*
X5836705Y-13632269D02*
X5846229Y-13622746D01*
X5846229Y-13622746D02*
X5855753Y-13603698D01*
X5979562Y-13517984D02*
X5998610Y-13517984D01*
X5998610Y-13517984D02*
X6017658Y-13527508D01*
X6017658Y-13527508D02*
X6027182Y-13537031D01*
X6027182Y-13537031D02*
X6036705Y-13556079D01*
X6036705Y-13556079D02*
X6046229Y-13594174D01*
X6046229Y-13594174D02*
X6046229Y-13641793D01*
X6046229Y-13641793D02*
X6036705Y-13679888D01*
X6036705Y-13679888D02*
X6027182Y-13698936D01*
X6027182Y-13698936D02*
X6017658Y-13708460D01*
X6017658Y-13708460D02*
X5998610Y-13717984D01*
X5998610Y-13717984D02*
X5979562Y-13717984D01*
X5979562Y-13717984D02*
X5960515Y-13708460D01*
X5960515Y-13708460D02*
X5950991Y-13698936D01*
X5950991Y-13698936D02*
X5941467Y-13679888D01*
X5941467Y-13679888D02*
X5931943Y-13641793D01*
X5931943Y-13641793D02*
X5931943Y-13594174D01*
X5931943Y-13594174D02*
X5941467Y-13556079D01*
X5941467Y-13556079D02*
X5950991Y-13537031D01*
X5950991Y-13537031D02*
X5960515Y-13527508D01*
X5960515Y-13527508D02*
X5979562Y-13517984D01*
X6170039Y-13517984D02*
X6189086Y-13517984D01*
X6189086Y-13517984D02*
X6208134Y-13527508D01*
X6208134Y-13527508D02*
X6217658Y-13537031D01*
X6217658Y-13537031D02*
X6227182Y-13556079D01*
X6227182Y-13556079D02*
X6236705Y-13594174D01*
X6236705Y-13594174D02*
X6236705Y-13641793D01*
X6236705Y-13641793D02*
X6227182Y-13679888D01*
X6227182Y-13679888D02*
X6217658Y-13698936D01*
X6217658Y-13698936D02*
X6208134Y-13708460D01*
X6208134Y-13708460D02*
X6189086Y-13717984D01*
X6189086Y-13717984D02*
X6170039Y-13717984D01*
X6170039Y-13717984D02*
X6150991Y-13708460D01*
X6150991Y-13708460D02*
X6141467Y-13698936D01*
X6141467Y-13698936D02*
X6131943Y-13679888D01*
X6131943Y-13679888D02*
X6122420Y-13641793D01*
X6122420Y-13641793D02*
X6122420Y-13594174D01*
X6122420Y-13594174D02*
X6131943Y-13556079D01*
X6131943Y-13556079D02*
X6141467Y-13537031D01*
X6141467Y-13537031D02*
X6150991Y-13527508D01*
X6150991Y-13527508D02*
X6170039Y-13517984D01*
X6322420Y-13717984D02*
X6322420Y-13584650D01*
X6322420Y-13603698D02*
X6331943Y-13594174D01*
X6331943Y-13594174D02*
X6350991Y-13584650D01*
X6350991Y-13584650D02*
X6379563Y-13584650D01*
X6379563Y-13584650D02*
X6398610Y-13594174D01*
X6398610Y-13594174D02*
X6408134Y-13613222D01*
X6408134Y-13613222D02*
X6408134Y-13717984D01*
X6408134Y-13613222D02*
X6417658Y-13594174D01*
X6417658Y-13594174D02*
X6436705Y-13584650D01*
X6436705Y-13584650D02*
X6465277Y-13584650D01*
X6465277Y-13584650D02*
X6484324Y-13594174D01*
X6484324Y-13594174D02*
X6493848Y-13613222D01*
X6493848Y-13613222D02*
X6493848Y-13717984D01*
X6589086Y-13717984D02*
X6589086Y-13584650D01*
X6589086Y-13603698D02*
X6598610Y-13594174D01*
X6598610Y-13594174D02*
X6617658Y-13584650D01*
X6617658Y-13584650D02*
X6646229Y-13584650D01*
X6646229Y-13584650D02*
X6665277Y-13594174D01*
X6665277Y-13594174D02*
X6674801Y-13613222D01*
X6674801Y-13613222D02*
X6674801Y-13717984D01*
X6674801Y-13613222D02*
X6684324Y-13594174D01*
X6684324Y-13594174D02*
X6703372Y-13584650D01*
X6703372Y-13584650D02*
X6731943Y-13584650D01*
X6731943Y-13584650D02*
X6750991Y-13594174D01*
X6750991Y-13594174D02*
X6760515Y-13613222D01*
X6760515Y-13613222D02*
X6760515Y-13717984D01*
X7150991Y-13508460D02*
X6979563Y-13765603D01*
X7408134Y-13517984D02*
X7427182Y-13517984D01*
X7427182Y-13517984D02*
X7446229Y-13527508D01*
X7446229Y-13527508D02*
X7455753Y-13537031D01*
X7455753Y-13537031D02*
X7465277Y-13556079D01*
X7465277Y-13556079D02*
X7474801Y-13594174D01*
X7474801Y-13594174D02*
X7474801Y-13641793D01*
X7474801Y-13641793D02*
X7465277Y-13679888D01*
X7465277Y-13679888D02*
X7455753Y-13698936D01*
X7455753Y-13698936D02*
X7446229Y-13708460D01*
X7446229Y-13708460D02*
X7427182Y-13717984D01*
X7427182Y-13717984D02*
X7408134Y-13717984D01*
X7408134Y-13717984D02*
X7389086Y-13708460D01*
X7389086Y-13708460D02*
X7379563Y-13698936D01*
X7379563Y-13698936D02*
X7370039Y-13679888D01*
X7370039Y-13679888D02*
X7360515Y-13641793D01*
X7360515Y-13641793D02*
X7360515Y-13594174D01*
X7360515Y-13594174D02*
X7370039Y-13556079D01*
X7370039Y-13556079D02*
X7379563Y-13537031D01*
X7379563Y-13537031D02*
X7389086Y-13527508D01*
X7389086Y-13527508D02*
X7408134Y-13517984D01*
X7560515Y-13698936D02*
X7570039Y-13708460D01*
X7570039Y-13708460D02*
X7560515Y-13717984D01*
X7560515Y-13717984D02*
X7550991Y-13708460D01*
X7550991Y-13708460D02*
X7560515Y-13698936D01*
X7560515Y-13698936D02*
X7560515Y-13717984D01*
X7693848Y-13517984D02*
X7712896Y-13517984D01*
X7712896Y-13517984D02*
X7731944Y-13527508D01*
X7731944Y-13527508D02*
X7741467Y-13537031D01*
X7741467Y-13537031D02*
X7750991Y-13556079D01*
X7750991Y-13556079D02*
X7760515Y-13594174D01*
X7760515Y-13594174D02*
X7760515Y-13641793D01*
X7760515Y-13641793D02*
X7750991Y-13679888D01*
X7750991Y-13679888D02*
X7741467Y-13698936D01*
X7741467Y-13698936D02*
X7731944Y-13708460D01*
X7731944Y-13708460D02*
X7712896Y-13717984D01*
X7712896Y-13717984D02*
X7693848Y-13717984D01*
X7693848Y-13717984D02*
X7674801Y-13708460D01*
X7674801Y-13708460D02*
X7665277Y-13698936D01*
X7665277Y-13698936D02*
X7655753Y-13679888D01*
X7655753Y-13679888D02*
X7646229Y-13641793D01*
X7646229Y-13641793D02*
X7646229Y-13594174D01*
X7646229Y-13594174D02*
X7655753Y-13556079D01*
X7655753Y-13556079D02*
X7665277Y-13537031D01*
X7665277Y-13537031D02*
X7674801Y-13527508D01*
X7674801Y-13527508D02*
X7693848Y-13517984D01*
X7827182Y-13517984D02*
X7950991Y-13517984D01*
X7950991Y-13517984D02*
X7884325Y-13594174D01*
X7884325Y-13594174D02*
X7912896Y-13594174D01*
X7912896Y-13594174D02*
X7931944Y-13603698D01*
X7931944Y-13603698D02*
X7941467Y-13613222D01*
X7941467Y-13613222D02*
X7950991Y-13632269D01*
X7950991Y-13632269D02*
X7950991Y-13679888D01*
X7950991Y-13679888D02*
X7941467Y-13698936D01*
X7941467Y-13698936D02*
X7931944Y-13708460D01*
X7931944Y-13708460D02*
X7912896Y-13717984D01*
X7912896Y-13717984D02*
X7855753Y-13717984D01*
X7855753Y-13717984D02*
X7836706Y-13708460D01*
X7836706Y-13708460D02*
X7827182Y-13698936D01*
X8131944Y-13517984D02*
X8036706Y-13517984D01*
X8036706Y-13517984D02*
X8027182Y-13613222D01*
X8027182Y-13613222D02*
X8036706Y-13603698D01*
X8036706Y-13603698D02*
X8055753Y-13594174D01*
X8055753Y-13594174D02*
X8103372Y-13594174D01*
X8103372Y-13594174D02*
X8122420Y-13603698D01*
X8122420Y-13603698D02*
X8131944Y-13613222D01*
X8131944Y-13613222D02*
X8141467Y-13632269D01*
X8141467Y-13632269D02*
X8141467Y-13679888D01*
X8141467Y-13679888D02*
X8131944Y-13698936D01*
X8131944Y-13698936D02*
X8122420Y-13708460D01*
X8122420Y-13708460D02*
X8103372Y-13717984D01*
X8103372Y-13717984D02*
X8055753Y-13717984D01*
X8055753Y-13717984D02*
X8036706Y-13708460D01*
X8036706Y-13708460D02*
X8027182Y-13698936D01*
X8312896Y-13584650D02*
X8312896Y-13717984D01*
X8265277Y-13508460D02*
X8217658Y-13651317D01*
X8217658Y-13651317D02*
X8341467Y-13651317D01*
X8408134Y-13517984D02*
X8408134Y-13556079D01*
X8484325Y-13517984D02*
X8484325Y-13556079D01*
X8779563Y-13794174D02*
X8770039Y-13784650D01*
X8770039Y-13784650D02*
X8750991Y-13756079D01*
X8750991Y-13756079D02*
X8741468Y-13737031D01*
X8741468Y-13737031D02*
X8731944Y-13708460D01*
X8731944Y-13708460D02*
X8722420Y-13660841D01*
X8722420Y-13660841D02*
X8722420Y-13622746D01*
X8722420Y-13622746D02*
X8731944Y-13575127D01*
X8731944Y-13575127D02*
X8741468Y-13546555D01*
X8741468Y-13546555D02*
X8750991Y-13527508D01*
X8750991Y-13527508D02*
X8770039Y-13498936D01*
X8770039Y-13498936D02*
X8779563Y-13489412D01*
X8950991Y-13517984D02*
X8855753Y-13517984D01*
X8855753Y-13517984D02*
X8846230Y-13613222D01*
X8846230Y-13613222D02*
X8855753Y-13603698D01*
X8855753Y-13603698D02*
X8874801Y-13594174D01*
X8874801Y-13594174D02*
X8922420Y-13594174D01*
X8922420Y-13594174D02*
X8941468Y-13603698D01*
X8941468Y-13603698D02*
X8950991Y-13613222D01*
X8950991Y-13613222D02*
X8960515Y-13632269D01*
X8960515Y-13632269D02*
X8960515Y-13679888D01*
X8960515Y-13679888D02*
X8950991Y-13698936D01*
X8950991Y-13698936D02*
X8941468Y-13708460D01*
X8941468Y-13708460D02*
X8922420Y-13717984D01*
X8922420Y-13717984D02*
X8874801Y-13717984D01*
X8874801Y-13717984D02*
X8855753Y-13708460D01*
X8855753Y-13708460D02*
X8846230Y-13698936D01*
X9036706Y-13537031D02*
X9046230Y-13527508D01*
X9046230Y-13527508D02*
X9065277Y-13517984D01*
X9065277Y-13517984D02*
X9112896Y-13517984D01*
X9112896Y-13517984D02*
X9131944Y-13527508D01*
X9131944Y-13527508D02*
X9141468Y-13537031D01*
X9141468Y-13537031D02*
X9150991Y-13556079D01*
X9150991Y-13556079D02*
X9150991Y-13575127D01*
X9150991Y-13575127D02*
X9141468Y-13603698D01*
X9141468Y-13603698D02*
X9027182Y-13717984D01*
X9027182Y-13717984D02*
X9150991Y-13717984D01*
X9389087Y-13717984D02*
X9389087Y-13517984D01*
X9474801Y-13717984D02*
X9474801Y-13613222D01*
X9474801Y-13613222D02*
X9465277Y-13594174D01*
X9465277Y-13594174D02*
X9446230Y-13584650D01*
X9446230Y-13584650D02*
X9417658Y-13584650D01*
X9417658Y-13584650D02*
X9398611Y-13594174D01*
X9398611Y-13594174D02*
X9389087Y-13603698D01*
X9598611Y-13717984D02*
X9579563Y-13708460D01*
X9579563Y-13708460D02*
X9570039Y-13698936D01*
X9570039Y-13698936D02*
X9560515Y-13679888D01*
X9560515Y-13679888D02*
X9560515Y-13622746D01*
X9560515Y-13622746D02*
X9570039Y-13603698D01*
X9570039Y-13603698D02*
X9579563Y-13594174D01*
X9579563Y-13594174D02*
X9598611Y-13584650D01*
X9598611Y-13584650D02*
X9627182Y-13584650D01*
X9627182Y-13584650D02*
X9646230Y-13594174D01*
X9646230Y-13594174D02*
X9655753Y-13603698D01*
X9655753Y-13603698D02*
X9665277Y-13622746D01*
X9665277Y-13622746D02*
X9665277Y-13679888D01*
X9665277Y-13679888D02*
X9655753Y-13698936D01*
X9655753Y-13698936D02*
X9646230Y-13708460D01*
X9646230Y-13708460D02*
X9627182Y-13717984D01*
X9627182Y-13717984D02*
X9598611Y-13717984D01*
X9779563Y-13717984D02*
X9760515Y-13708460D01*
X9760515Y-13708460D02*
X9750992Y-13689412D01*
X9750992Y-13689412D02*
X9750992Y-13517984D01*
X9931944Y-13708460D02*
X9912896Y-13717984D01*
X9912896Y-13717984D02*
X9874801Y-13717984D01*
X9874801Y-13717984D02*
X9855753Y-13708460D01*
X9855753Y-13708460D02*
X9846230Y-13689412D01*
X9846230Y-13689412D02*
X9846230Y-13613222D01*
X9846230Y-13613222D02*
X9855753Y-13594174D01*
X9855753Y-13594174D02*
X9874801Y-13584650D01*
X9874801Y-13584650D02*
X9912896Y-13584650D01*
X9912896Y-13584650D02*
X9931944Y-13594174D01*
X9931944Y-13594174D02*
X9941468Y-13613222D01*
X9941468Y-13613222D02*
X9941468Y-13632269D01*
X9941468Y-13632269D02*
X9846230Y-13651317D01*
X10017658Y-13708460D02*
X10036706Y-13717984D01*
X10036706Y-13717984D02*
X10074801Y-13717984D01*
X10074801Y-13717984D02*
X10093849Y-13708460D01*
X10093849Y-13708460D02*
X10103373Y-13689412D01*
X10103373Y-13689412D02*
X10103373Y-13679888D01*
X10103373Y-13679888D02*
X10093849Y-13660841D01*
X10093849Y-13660841D02*
X10074801Y-13651317D01*
X10074801Y-13651317D02*
X10046230Y-13651317D01*
X10046230Y-13651317D02*
X10027182Y-13641793D01*
X10027182Y-13641793D02*
X10017658Y-13622746D01*
X10017658Y-13622746D02*
X10017658Y-13613222D01*
X10017658Y-13613222D02*
X10027182Y-13594174D01*
X10027182Y-13594174D02*
X10046230Y-13584650D01*
X10046230Y-13584650D02*
X10074801Y-13584650D01*
X10074801Y-13584650D02*
X10093849Y-13594174D01*
X10170039Y-13794174D02*
X10179563Y-13784650D01*
X10179563Y-13784650D02*
X10198611Y-13756079D01*
X10198611Y-13756079D02*
X10208134Y-13737031D01*
X10208134Y-13737031D02*
X10217658Y-13708460D01*
X10217658Y-13708460D02*
X10227182Y-13660841D01*
X10227182Y-13660841D02*
X10227182Y-13622746D01*
X10227182Y-13622746D02*
X10217658Y-13575127D01*
X10217658Y-13575127D02*
X10208134Y-13546555D01*
X10208134Y-13546555D02*
X10198611Y-13527508D01*
X10198611Y-13527508D02*
X10179563Y-13498936D01*
X10179563Y-13498936D02*
X10170039Y-13489412D01*
D12*
X5157000Y-13938000D02*
X5204500Y-13890500D01*
X5157000Y-13843000D01*
X5109500Y-13890500D01*
X5157000Y-13938000D01*
D11*
X5503372Y-13781984D02*
X5522420Y-13781984D01*
X5522420Y-13781984D02*
X5541467Y-13791508D01*
X5541467Y-13791508D02*
X5550991Y-13801031D01*
X5550991Y-13801031D02*
X5560515Y-13820079D01*
X5560515Y-13820079D02*
X5570039Y-13858174D01*
X5570039Y-13858174D02*
X5570039Y-13905793D01*
X5570039Y-13905793D02*
X5560515Y-13943888D01*
X5560515Y-13943888D02*
X5550991Y-13962936D01*
X5550991Y-13962936D02*
X5541467Y-13972460D01*
X5541467Y-13972460D02*
X5522420Y-13981984D01*
X5522420Y-13981984D02*
X5503372Y-13981984D01*
X5503372Y-13981984D02*
X5484324Y-13972460D01*
X5484324Y-13972460D02*
X5474801Y-13962936D01*
X5474801Y-13962936D02*
X5465277Y-13943888D01*
X5465277Y-13943888D02*
X5455753Y-13905793D01*
X5455753Y-13905793D02*
X5455753Y-13858174D01*
X5455753Y-13858174D02*
X5465277Y-13820079D01*
X5465277Y-13820079D02*
X5474801Y-13801031D01*
X5474801Y-13801031D02*
X5484324Y-13791508D01*
X5484324Y-13791508D02*
X5503372Y-13781984D01*
X5655753Y-13962936D02*
X5665277Y-13972460D01*
X5665277Y-13972460D02*
X5655753Y-13981984D01*
X5655753Y-13981984D02*
X5646229Y-13972460D01*
X5646229Y-13972460D02*
X5655753Y-13962936D01*
X5655753Y-13962936D02*
X5655753Y-13981984D01*
X5760515Y-13981984D02*
X5798610Y-13981984D01*
X5798610Y-13981984D02*
X5817658Y-13972460D01*
X5817658Y-13972460D02*
X5827182Y-13962936D01*
X5827182Y-13962936D02*
X5846229Y-13934365D01*
X5846229Y-13934365D02*
X5855753Y-13896269D01*
X5855753Y-13896269D02*
X5855753Y-13820079D01*
X5855753Y-13820079D02*
X5846229Y-13801031D01*
X5846229Y-13801031D02*
X5836705Y-13791508D01*
X5836705Y-13791508D02*
X5817658Y-13781984D01*
X5817658Y-13781984D02*
X5779562Y-13781984D01*
X5779562Y-13781984D02*
X5760515Y-13791508D01*
X5760515Y-13791508D02*
X5750991Y-13801031D01*
X5750991Y-13801031D02*
X5741467Y-13820079D01*
X5741467Y-13820079D02*
X5741467Y-13867698D01*
X5741467Y-13867698D02*
X5750991Y-13886746D01*
X5750991Y-13886746D02*
X5760515Y-13896269D01*
X5760515Y-13896269D02*
X5779562Y-13905793D01*
X5779562Y-13905793D02*
X5817658Y-13905793D01*
X5817658Y-13905793D02*
X5836705Y-13896269D01*
X5836705Y-13896269D02*
X5846229Y-13886746D01*
X5846229Y-13886746D02*
X5855753Y-13867698D01*
X6036705Y-13781984D02*
X5941467Y-13781984D01*
X5941467Y-13781984D02*
X5931943Y-13877222D01*
X5931943Y-13877222D02*
X5941467Y-13867698D01*
X5941467Y-13867698D02*
X5960515Y-13858174D01*
X5960515Y-13858174D02*
X6008134Y-13858174D01*
X6008134Y-13858174D02*
X6027182Y-13867698D01*
X6027182Y-13867698D02*
X6036705Y-13877222D01*
X6036705Y-13877222D02*
X6046229Y-13896269D01*
X6046229Y-13896269D02*
X6046229Y-13943888D01*
X6046229Y-13943888D02*
X6036705Y-13962936D01*
X6036705Y-13962936D02*
X6027182Y-13972460D01*
X6027182Y-13972460D02*
X6008134Y-13981984D01*
X6008134Y-13981984D02*
X5960515Y-13981984D01*
X5960515Y-13981984D02*
X5941467Y-13972460D01*
X5941467Y-13972460D02*
X5931943Y-13962936D01*
X6170039Y-13781984D02*
X6189086Y-13781984D01*
X6189086Y-13781984D02*
X6208134Y-13791508D01*
X6208134Y-13791508D02*
X6217658Y-13801031D01*
X6217658Y-13801031D02*
X6227182Y-13820079D01*
X6227182Y-13820079D02*
X6236705Y-13858174D01*
X6236705Y-13858174D02*
X6236705Y-13905793D01*
X6236705Y-13905793D02*
X6227182Y-13943888D01*
X6227182Y-13943888D02*
X6217658Y-13962936D01*
X6217658Y-13962936D02*
X6208134Y-13972460D01*
X6208134Y-13972460D02*
X6189086Y-13981984D01*
X6189086Y-13981984D02*
X6170039Y-13981984D01*
X6170039Y-13981984D02*
X6150991Y-13972460D01*
X6150991Y-13972460D02*
X6141467Y-13962936D01*
X6141467Y-13962936D02*
X6131943Y-13943888D01*
X6131943Y-13943888D02*
X6122420Y-13905793D01*
X6122420Y-13905793D02*
X6122420Y-13858174D01*
X6122420Y-13858174D02*
X6131943Y-13820079D01*
X6131943Y-13820079D02*
X6141467Y-13801031D01*
X6141467Y-13801031D02*
X6150991Y-13791508D01*
X6150991Y-13791508D02*
X6170039Y-13781984D01*
X6322420Y-13981984D02*
X6322420Y-13848650D01*
X6322420Y-13867698D02*
X6331943Y-13858174D01*
X6331943Y-13858174D02*
X6350991Y-13848650D01*
X6350991Y-13848650D02*
X6379563Y-13848650D01*
X6379563Y-13848650D02*
X6398610Y-13858174D01*
X6398610Y-13858174D02*
X6408134Y-13877222D01*
X6408134Y-13877222D02*
X6408134Y-13981984D01*
X6408134Y-13877222D02*
X6417658Y-13858174D01*
X6417658Y-13858174D02*
X6436705Y-13848650D01*
X6436705Y-13848650D02*
X6465277Y-13848650D01*
X6465277Y-13848650D02*
X6484324Y-13858174D01*
X6484324Y-13858174D02*
X6493848Y-13877222D01*
X6493848Y-13877222D02*
X6493848Y-13981984D01*
X6589086Y-13981984D02*
X6589086Y-13848650D01*
X6589086Y-13867698D02*
X6598610Y-13858174D01*
X6598610Y-13858174D02*
X6617658Y-13848650D01*
X6617658Y-13848650D02*
X6646229Y-13848650D01*
X6646229Y-13848650D02*
X6665277Y-13858174D01*
X6665277Y-13858174D02*
X6674801Y-13877222D01*
X6674801Y-13877222D02*
X6674801Y-13981984D01*
X6674801Y-13877222D02*
X6684324Y-13858174D01*
X6684324Y-13858174D02*
X6703372Y-13848650D01*
X6703372Y-13848650D02*
X6731943Y-13848650D01*
X6731943Y-13848650D02*
X6750991Y-13858174D01*
X6750991Y-13858174D02*
X6760515Y-13877222D01*
X6760515Y-13877222D02*
X6760515Y-13981984D01*
X7150991Y-13772460D02*
X6979563Y-14029603D01*
X7408134Y-13781984D02*
X7427182Y-13781984D01*
X7427182Y-13781984D02*
X7446229Y-13791508D01*
X7446229Y-13791508D02*
X7455753Y-13801031D01*
X7455753Y-13801031D02*
X7465277Y-13820079D01*
X7465277Y-13820079D02*
X7474801Y-13858174D01*
X7474801Y-13858174D02*
X7474801Y-13905793D01*
X7474801Y-13905793D02*
X7465277Y-13943888D01*
X7465277Y-13943888D02*
X7455753Y-13962936D01*
X7455753Y-13962936D02*
X7446229Y-13972460D01*
X7446229Y-13972460D02*
X7427182Y-13981984D01*
X7427182Y-13981984D02*
X7408134Y-13981984D01*
X7408134Y-13981984D02*
X7389086Y-13972460D01*
X7389086Y-13972460D02*
X7379563Y-13962936D01*
X7379563Y-13962936D02*
X7370039Y-13943888D01*
X7370039Y-13943888D02*
X7360515Y-13905793D01*
X7360515Y-13905793D02*
X7360515Y-13858174D01*
X7360515Y-13858174D02*
X7370039Y-13820079D01*
X7370039Y-13820079D02*
X7379563Y-13801031D01*
X7379563Y-13801031D02*
X7389086Y-13791508D01*
X7389086Y-13791508D02*
X7408134Y-13781984D01*
X7560515Y-13962936D02*
X7570039Y-13972460D01*
X7570039Y-13972460D02*
X7560515Y-13981984D01*
X7560515Y-13981984D02*
X7550991Y-13972460D01*
X7550991Y-13972460D02*
X7560515Y-13962936D01*
X7560515Y-13962936D02*
X7560515Y-13981984D01*
X7693848Y-13781984D02*
X7712896Y-13781984D01*
X7712896Y-13781984D02*
X7731944Y-13791508D01*
X7731944Y-13791508D02*
X7741467Y-13801031D01*
X7741467Y-13801031D02*
X7750991Y-13820079D01*
X7750991Y-13820079D02*
X7760515Y-13858174D01*
X7760515Y-13858174D02*
X7760515Y-13905793D01*
X7760515Y-13905793D02*
X7750991Y-13943888D01*
X7750991Y-13943888D02*
X7741467Y-13962936D01*
X7741467Y-13962936D02*
X7731944Y-13972460D01*
X7731944Y-13972460D02*
X7712896Y-13981984D01*
X7712896Y-13981984D02*
X7693848Y-13981984D01*
X7693848Y-13981984D02*
X7674801Y-13972460D01*
X7674801Y-13972460D02*
X7665277Y-13962936D01*
X7665277Y-13962936D02*
X7655753Y-13943888D01*
X7655753Y-13943888D02*
X7646229Y-13905793D01*
X7646229Y-13905793D02*
X7646229Y-13858174D01*
X7646229Y-13858174D02*
X7655753Y-13820079D01*
X7655753Y-13820079D02*
X7665277Y-13801031D01*
X7665277Y-13801031D02*
X7674801Y-13791508D01*
X7674801Y-13791508D02*
X7693848Y-13781984D01*
X7827182Y-13781984D02*
X7950991Y-13781984D01*
X7950991Y-13781984D02*
X7884325Y-13858174D01*
X7884325Y-13858174D02*
X7912896Y-13858174D01*
X7912896Y-13858174D02*
X7931944Y-13867698D01*
X7931944Y-13867698D02*
X7941467Y-13877222D01*
X7941467Y-13877222D02*
X7950991Y-13896269D01*
X7950991Y-13896269D02*
X7950991Y-13943888D01*
X7950991Y-13943888D02*
X7941467Y-13962936D01*
X7941467Y-13962936D02*
X7931944Y-13972460D01*
X7931944Y-13972460D02*
X7912896Y-13981984D01*
X7912896Y-13981984D02*
X7855753Y-13981984D01*
X7855753Y-13981984D02*
X7836706Y-13972460D01*
X7836706Y-13972460D02*
X7827182Y-13962936D01*
X8017658Y-13781984D02*
X8150991Y-13781984D01*
X8150991Y-13781984D02*
X8065277Y-13981984D01*
X8312896Y-13848650D02*
X8312896Y-13981984D01*
X8265277Y-13772460D02*
X8217658Y-13915317D01*
X8217658Y-13915317D02*
X8341467Y-13915317D01*
X8408134Y-13781984D02*
X8408134Y-13820079D01*
X8484325Y-13781984D02*
X8484325Y-13820079D01*
X8779563Y-14058174D02*
X8770039Y-14048650D01*
X8770039Y-14048650D02*
X8750991Y-14020079D01*
X8750991Y-14020079D02*
X8741468Y-14001031D01*
X8741468Y-14001031D02*
X8731944Y-13972460D01*
X8731944Y-13972460D02*
X8722420Y-13924841D01*
X8722420Y-13924841D02*
X8722420Y-13886746D01*
X8722420Y-13886746D02*
X8731944Y-13839127D01*
X8731944Y-13839127D02*
X8741468Y-13810555D01*
X8741468Y-13810555D02*
X8750991Y-13791508D01*
X8750991Y-13791508D02*
X8770039Y-13762936D01*
X8770039Y-13762936D02*
X8779563Y-13753412D01*
X8941468Y-13848650D02*
X8941468Y-13981984D01*
X8893849Y-13772460D02*
X8846230Y-13915317D01*
X8846230Y-13915317D02*
X8970039Y-13915317D01*
X9198611Y-13981984D02*
X9198611Y-13781984D01*
X9284325Y-13981984D02*
X9284325Y-13877222D01*
X9284325Y-13877222D02*
X9274801Y-13858174D01*
X9274801Y-13858174D02*
X9255753Y-13848650D01*
X9255753Y-13848650D02*
X9227182Y-13848650D01*
X9227182Y-13848650D02*
X9208134Y-13858174D01*
X9208134Y-13858174D02*
X9198611Y-13867698D01*
X9408134Y-13981984D02*
X9389087Y-13972460D01*
X9389087Y-13972460D02*
X9379563Y-13962936D01*
X9379563Y-13962936D02*
X9370039Y-13943888D01*
X9370039Y-13943888D02*
X9370039Y-13886746D01*
X9370039Y-13886746D02*
X9379563Y-13867698D01*
X9379563Y-13867698D02*
X9389087Y-13858174D01*
X9389087Y-13858174D02*
X9408134Y-13848650D01*
X9408134Y-13848650D02*
X9436706Y-13848650D01*
X9436706Y-13848650D02*
X9455753Y-13858174D01*
X9455753Y-13858174D02*
X9465277Y-13867698D01*
X9465277Y-13867698D02*
X9474801Y-13886746D01*
X9474801Y-13886746D02*
X9474801Y-13943888D01*
X9474801Y-13943888D02*
X9465277Y-13962936D01*
X9465277Y-13962936D02*
X9455753Y-13972460D01*
X9455753Y-13972460D02*
X9436706Y-13981984D01*
X9436706Y-13981984D02*
X9408134Y-13981984D01*
X9589087Y-13981984D02*
X9570039Y-13972460D01*
X9570039Y-13972460D02*
X9560515Y-13953412D01*
X9560515Y-13953412D02*
X9560515Y-13781984D01*
X9741468Y-13972460D02*
X9722420Y-13981984D01*
X9722420Y-13981984D02*
X9684325Y-13981984D01*
X9684325Y-13981984D02*
X9665277Y-13972460D01*
X9665277Y-13972460D02*
X9655753Y-13953412D01*
X9655753Y-13953412D02*
X9655753Y-13877222D01*
X9655753Y-13877222D02*
X9665277Y-13858174D01*
X9665277Y-13858174D02*
X9684325Y-13848650D01*
X9684325Y-13848650D02*
X9722420Y-13848650D01*
X9722420Y-13848650D02*
X9741468Y-13858174D01*
X9741468Y-13858174D02*
X9750992Y-13877222D01*
X9750992Y-13877222D02*
X9750992Y-13896269D01*
X9750992Y-13896269D02*
X9655753Y-13915317D01*
X9827182Y-13972460D02*
X9846230Y-13981984D01*
X9846230Y-13981984D02*
X9884325Y-13981984D01*
X9884325Y-13981984D02*
X9903373Y-13972460D01*
X9903373Y-13972460D02*
X9912896Y-13953412D01*
X9912896Y-13953412D02*
X9912896Y-13943888D01*
X9912896Y-13943888D02*
X9903373Y-13924841D01*
X9903373Y-13924841D02*
X9884325Y-13915317D01*
X9884325Y-13915317D02*
X9855753Y-13915317D01*
X9855753Y-13915317D02*
X9836706Y-13905793D01*
X9836706Y-13905793D02*
X9827182Y-13886746D01*
X9827182Y-13886746D02*
X9827182Y-13877222D01*
X9827182Y-13877222D02*
X9836706Y-13858174D01*
X9836706Y-13858174D02*
X9855753Y-13848650D01*
X9855753Y-13848650D02*
X9884325Y-13848650D01*
X9884325Y-13848650D02*
X9903373Y-13858174D01*
X9979563Y-14058174D02*
X9989087Y-14048650D01*
X9989087Y-14048650D02*
X10008134Y-14020079D01*
X10008134Y-14020079D02*
X10017658Y-14001031D01*
X10017658Y-14001031D02*
X10027182Y-13972460D01*
X10027182Y-13972460D02*
X10036706Y-13924841D01*
X10036706Y-13924841D02*
X10036706Y-13886746D01*
X10036706Y-13886746D02*
X10027182Y-13839127D01*
X10027182Y-13839127D02*
X10017658Y-13810555D01*
X10017658Y-13810555D02*
X10008134Y-13791508D01*
X10008134Y-13791508D02*
X9989087Y-13762936D01*
X9989087Y-13762936D02*
X9979563Y-13753412D01*
D12*
X5104500Y-14104500D02*
X5204500Y-14204500D01*
X5204500Y-14104500D02*
X5104500Y-14204500D01*
X5204500Y-14154500D02*
G75*
G02*
X5104500Y-14154500I-50000J0D01*
G01*
X5104500Y-14154500D02*
G75*
G02*
X5204500Y-14154500I50000J0D01*
G01*
D11*
X5570039Y-14245984D02*
X5455753Y-14245984D01*
X5512896Y-14245984D02*
X5512896Y-14045984D01*
X5512896Y-14045984D02*
X5493848Y-14074555D01*
X5493848Y-14074555D02*
X5474801Y-14093603D01*
X5474801Y-14093603D02*
X5455753Y-14103127D01*
X5655753Y-14226936D02*
X5665277Y-14236460D01*
X5665277Y-14236460D02*
X5655753Y-14245984D01*
X5655753Y-14245984D02*
X5646229Y-14236460D01*
X5646229Y-14236460D02*
X5655753Y-14226936D01*
X5655753Y-14226936D02*
X5655753Y-14245984D01*
X5789086Y-14045984D02*
X5808134Y-14045984D01*
X5808134Y-14045984D02*
X5827182Y-14055508D01*
X5827182Y-14055508D02*
X5836705Y-14065031D01*
X5836705Y-14065031D02*
X5846229Y-14084079D01*
X5846229Y-14084079D02*
X5855753Y-14122174D01*
X5855753Y-14122174D02*
X5855753Y-14169793D01*
X5855753Y-14169793D02*
X5846229Y-14207888D01*
X5846229Y-14207888D02*
X5836705Y-14226936D01*
X5836705Y-14226936D02*
X5827182Y-14236460D01*
X5827182Y-14236460D02*
X5808134Y-14245984D01*
X5808134Y-14245984D02*
X5789086Y-14245984D01*
X5789086Y-14245984D02*
X5770039Y-14236460D01*
X5770039Y-14236460D02*
X5760515Y-14226936D01*
X5760515Y-14226936D02*
X5750991Y-14207888D01*
X5750991Y-14207888D02*
X5741467Y-14169793D01*
X5741467Y-14169793D02*
X5741467Y-14122174D01*
X5741467Y-14122174D02*
X5750991Y-14084079D01*
X5750991Y-14084079D02*
X5760515Y-14065031D01*
X5760515Y-14065031D02*
X5770039Y-14055508D01*
X5770039Y-14055508D02*
X5789086Y-14045984D01*
X5979562Y-14045984D02*
X5998610Y-14045984D01*
X5998610Y-14045984D02*
X6017658Y-14055508D01*
X6017658Y-14055508D02*
X6027182Y-14065031D01*
X6027182Y-14065031D02*
X6036705Y-14084079D01*
X6036705Y-14084079D02*
X6046229Y-14122174D01*
X6046229Y-14122174D02*
X6046229Y-14169793D01*
X6046229Y-14169793D02*
X6036705Y-14207888D01*
X6036705Y-14207888D02*
X6027182Y-14226936D01*
X6027182Y-14226936D02*
X6017658Y-14236460D01*
X6017658Y-14236460D02*
X5998610Y-14245984D01*
X5998610Y-14245984D02*
X5979562Y-14245984D01*
X5979562Y-14245984D02*
X5960515Y-14236460D01*
X5960515Y-14236460D02*
X5950991Y-14226936D01*
X5950991Y-14226936D02*
X5941467Y-14207888D01*
X5941467Y-14207888D02*
X5931943Y-14169793D01*
X5931943Y-14169793D02*
X5931943Y-14122174D01*
X5931943Y-14122174D02*
X5941467Y-14084079D01*
X5941467Y-14084079D02*
X5950991Y-14065031D01*
X5950991Y-14065031D02*
X5960515Y-14055508D01*
X5960515Y-14055508D02*
X5979562Y-14045984D01*
X6170039Y-14045984D02*
X6189086Y-14045984D01*
X6189086Y-14045984D02*
X6208134Y-14055508D01*
X6208134Y-14055508D02*
X6217658Y-14065031D01*
X6217658Y-14065031D02*
X6227182Y-14084079D01*
X6227182Y-14084079D02*
X6236705Y-14122174D01*
X6236705Y-14122174D02*
X6236705Y-14169793D01*
X6236705Y-14169793D02*
X6227182Y-14207888D01*
X6227182Y-14207888D02*
X6217658Y-14226936D01*
X6217658Y-14226936D02*
X6208134Y-14236460D01*
X6208134Y-14236460D02*
X6189086Y-14245984D01*
X6189086Y-14245984D02*
X6170039Y-14245984D01*
X6170039Y-14245984D02*
X6150991Y-14236460D01*
X6150991Y-14236460D02*
X6141467Y-14226936D01*
X6141467Y-14226936D02*
X6131943Y-14207888D01*
X6131943Y-14207888D02*
X6122420Y-14169793D01*
X6122420Y-14169793D02*
X6122420Y-14122174D01*
X6122420Y-14122174D02*
X6131943Y-14084079D01*
X6131943Y-14084079D02*
X6141467Y-14065031D01*
X6141467Y-14065031D02*
X6150991Y-14055508D01*
X6150991Y-14055508D02*
X6170039Y-14045984D01*
X6322420Y-14245984D02*
X6322420Y-14112650D01*
X6322420Y-14131698D02*
X6331943Y-14122174D01*
X6331943Y-14122174D02*
X6350991Y-14112650D01*
X6350991Y-14112650D02*
X6379563Y-14112650D01*
X6379563Y-14112650D02*
X6398610Y-14122174D01*
X6398610Y-14122174D02*
X6408134Y-14141222D01*
X6408134Y-14141222D02*
X6408134Y-14245984D01*
X6408134Y-14141222D02*
X6417658Y-14122174D01*
X6417658Y-14122174D02*
X6436705Y-14112650D01*
X6436705Y-14112650D02*
X6465277Y-14112650D01*
X6465277Y-14112650D02*
X6484324Y-14122174D01*
X6484324Y-14122174D02*
X6493848Y-14141222D01*
X6493848Y-14141222D02*
X6493848Y-14245984D01*
X6589086Y-14245984D02*
X6589086Y-14112650D01*
X6589086Y-14131698D02*
X6598610Y-14122174D01*
X6598610Y-14122174D02*
X6617658Y-14112650D01*
X6617658Y-14112650D02*
X6646229Y-14112650D01*
X6646229Y-14112650D02*
X6665277Y-14122174D01*
X6665277Y-14122174D02*
X6674801Y-14141222D01*
X6674801Y-14141222D02*
X6674801Y-14245984D01*
X6674801Y-14141222D02*
X6684324Y-14122174D01*
X6684324Y-14122174D02*
X6703372Y-14112650D01*
X6703372Y-14112650D02*
X6731943Y-14112650D01*
X6731943Y-14112650D02*
X6750991Y-14122174D01*
X6750991Y-14122174D02*
X6760515Y-14141222D01*
X6760515Y-14141222D02*
X6760515Y-14245984D01*
X7150991Y-14036460D02*
X6979563Y-14293603D01*
X7408134Y-14045984D02*
X7427182Y-14045984D01*
X7427182Y-14045984D02*
X7446229Y-14055508D01*
X7446229Y-14055508D02*
X7455753Y-14065031D01*
X7455753Y-14065031D02*
X7465277Y-14084079D01*
X7465277Y-14084079D02*
X7474801Y-14122174D01*
X7474801Y-14122174D02*
X7474801Y-14169793D01*
X7474801Y-14169793D02*
X7465277Y-14207888D01*
X7465277Y-14207888D02*
X7455753Y-14226936D01*
X7455753Y-14226936D02*
X7446229Y-14236460D01*
X7446229Y-14236460D02*
X7427182Y-14245984D01*
X7427182Y-14245984D02*
X7408134Y-14245984D01*
X7408134Y-14245984D02*
X7389086Y-14236460D01*
X7389086Y-14236460D02*
X7379563Y-14226936D01*
X7379563Y-14226936D02*
X7370039Y-14207888D01*
X7370039Y-14207888D02*
X7360515Y-14169793D01*
X7360515Y-14169793D02*
X7360515Y-14122174D01*
X7360515Y-14122174D02*
X7370039Y-14084079D01*
X7370039Y-14084079D02*
X7379563Y-14065031D01*
X7379563Y-14065031D02*
X7389086Y-14055508D01*
X7389086Y-14055508D02*
X7408134Y-14045984D01*
X7560515Y-14226936D02*
X7570039Y-14236460D01*
X7570039Y-14236460D02*
X7560515Y-14245984D01*
X7560515Y-14245984D02*
X7550991Y-14236460D01*
X7550991Y-14236460D02*
X7560515Y-14226936D01*
X7560515Y-14226936D02*
X7560515Y-14245984D01*
X7693848Y-14045984D02*
X7712896Y-14045984D01*
X7712896Y-14045984D02*
X7731944Y-14055508D01*
X7731944Y-14055508D02*
X7741467Y-14065031D01*
X7741467Y-14065031D02*
X7750991Y-14084079D01*
X7750991Y-14084079D02*
X7760515Y-14122174D01*
X7760515Y-14122174D02*
X7760515Y-14169793D01*
X7760515Y-14169793D02*
X7750991Y-14207888D01*
X7750991Y-14207888D02*
X7741467Y-14226936D01*
X7741467Y-14226936D02*
X7731944Y-14236460D01*
X7731944Y-14236460D02*
X7712896Y-14245984D01*
X7712896Y-14245984D02*
X7693848Y-14245984D01*
X7693848Y-14245984D02*
X7674801Y-14236460D01*
X7674801Y-14236460D02*
X7665277Y-14226936D01*
X7665277Y-14226936D02*
X7655753Y-14207888D01*
X7655753Y-14207888D02*
X7646229Y-14169793D01*
X7646229Y-14169793D02*
X7646229Y-14122174D01*
X7646229Y-14122174D02*
X7655753Y-14084079D01*
X7655753Y-14084079D02*
X7665277Y-14065031D01*
X7665277Y-14065031D02*
X7674801Y-14055508D01*
X7674801Y-14055508D02*
X7693848Y-14045984D01*
X7827182Y-14045984D02*
X7950991Y-14045984D01*
X7950991Y-14045984D02*
X7884325Y-14122174D01*
X7884325Y-14122174D02*
X7912896Y-14122174D01*
X7912896Y-14122174D02*
X7931944Y-14131698D01*
X7931944Y-14131698D02*
X7941467Y-14141222D01*
X7941467Y-14141222D02*
X7950991Y-14160269D01*
X7950991Y-14160269D02*
X7950991Y-14207888D01*
X7950991Y-14207888D02*
X7941467Y-14226936D01*
X7941467Y-14226936D02*
X7931944Y-14236460D01*
X7931944Y-14236460D02*
X7912896Y-14245984D01*
X7912896Y-14245984D02*
X7855753Y-14245984D01*
X7855753Y-14245984D02*
X7836706Y-14236460D01*
X7836706Y-14236460D02*
X7827182Y-14226936D01*
X8046229Y-14245984D02*
X8084325Y-14245984D01*
X8084325Y-14245984D02*
X8103372Y-14236460D01*
X8103372Y-14236460D02*
X8112896Y-14226936D01*
X8112896Y-14226936D02*
X8131944Y-14198365D01*
X8131944Y-14198365D02*
X8141467Y-14160269D01*
X8141467Y-14160269D02*
X8141467Y-14084079D01*
X8141467Y-14084079D02*
X8131944Y-14065031D01*
X8131944Y-14065031D02*
X8122420Y-14055508D01*
X8122420Y-14055508D02*
X8103372Y-14045984D01*
X8103372Y-14045984D02*
X8065277Y-14045984D01*
X8065277Y-14045984D02*
X8046229Y-14055508D01*
X8046229Y-14055508D02*
X8036706Y-14065031D01*
X8036706Y-14065031D02*
X8027182Y-14084079D01*
X8027182Y-14084079D02*
X8027182Y-14131698D01*
X8027182Y-14131698D02*
X8036706Y-14150746D01*
X8036706Y-14150746D02*
X8046229Y-14160269D01*
X8046229Y-14160269D02*
X8065277Y-14169793D01*
X8065277Y-14169793D02*
X8103372Y-14169793D01*
X8103372Y-14169793D02*
X8122420Y-14160269D01*
X8122420Y-14160269D02*
X8131944Y-14150746D01*
X8131944Y-14150746D02*
X8141467Y-14131698D01*
X8312896Y-14112650D02*
X8312896Y-14245984D01*
X8265277Y-14036460D02*
X8217658Y-14179317D01*
X8217658Y-14179317D02*
X8341467Y-14179317D01*
X8408134Y-14045984D02*
X8408134Y-14084079D01*
X8484325Y-14045984D02*
X8484325Y-14084079D01*
X8779563Y-14322174D02*
X8770039Y-14312650D01*
X8770039Y-14312650D02*
X8750991Y-14284079D01*
X8750991Y-14284079D02*
X8741468Y-14265031D01*
X8741468Y-14265031D02*
X8731944Y-14236460D01*
X8731944Y-14236460D02*
X8722420Y-14188841D01*
X8722420Y-14188841D02*
X8722420Y-14150746D01*
X8722420Y-14150746D02*
X8731944Y-14103127D01*
X8731944Y-14103127D02*
X8741468Y-14074555D01*
X8741468Y-14074555D02*
X8750991Y-14055508D01*
X8750991Y-14055508D02*
X8770039Y-14026936D01*
X8770039Y-14026936D02*
X8779563Y-14017412D01*
X8960515Y-14245984D02*
X8846230Y-14245984D01*
X8903372Y-14245984D02*
X8903372Y-14045984D01*
X8903372Y-14045984D02*
X8884325Y-14074555D01*
X8884325Y-14074555D02*
X8865277Y-14093603D01*
X8865277Y-14093603D02*
X8846230Y-14103127D01*
X9036706Y-14065031D02*
X9046230Y-14055508D01*
X9046230Y-14055508D02*
X9065277Y-14045984D01*
X9065277Y-14045984D02*
X9112896Y-14045984D01*
X9112896Y-14045984D02*
X9131944Y-14055508D01*
X9131944Y-14055508D02*
X9141468Y-14065031D01*
X9141468Y-14065031D02*
X9150991Y-14084079D01*
X9150991Y-14084079D02*
X9150991Y-14103127D01*
X9150991Y-14103127D02*
X9141468Y-14131698D01*
X9141468Y-14131698D02*
X9027182Y-14245984D01*
X9027182Y-14245984D02*
X9150991Y-14245984D01*
X9389087Y-14245984D02*
X9389087Y-14045984D01*
X9474801Y-14245984D02*
X9474801Y-14141222D01*
X9474801Y-14141222D02*
X9465277Y-14122174D01*
X9465277Y-14122174D02*
X9446230Y-14112650D01*
X9446230Y-14112650D02*
X9417658Y-14112650D01*
X9417658Y-14112650D02*
X9398611Y-14122174D01*
X9398611Y-14122174D02*
X9389087Y-14131698D01*
X9598611Y-14245984D02*
X9579563Y-14236460D01*
X9579563Y-14236460D02*
X9570039Y-14226936D01*
X9570039Y-14226936D02*
X9560515Y-14207888D01*
X9560515Y-14207888D02*
X9560515Y-14150746D01*
X9560515Y-14150746D02*
X9570039Y-14131698D01*
X9570039Y-14131698D02*
X9579563Y-14122174D01*
X9579563Y-14122174D02*
X9598611Y-14112650D01*
X9598611Y-14112650D02*
X9627182Y-14112650D01*
X9627182Y-14112650D02*
X9646230Y-14122174D01*
X9646230Y-14122174D02*
X9655753Y-14131698D01*
X9655753Y-14131698D02*
X9665277Y-14150746D01*
X9665277Y-14150746D02*
X9665277Y-14207888D01*
X9665277Y-14207888D02*
X9655753Y-14226936D01*
X9655753Y-14226936D02*
X9646230Y-14236460D01*
X9646230Y-14236460D02*
X9627182Y-14245984D01*
X9627182Y-14245984D02*
X9598611Y-14245984D01*
X9779563Y-14245984D02*
X9760515Y-14236460D01*
X9760515Y-14236460D02*
X9750992Y-14217412D01*
X9750992Y-14217412D02*
X9750992Y-14045984D01*
X9931944Y-14236460D02*
X9912896Y-14245984D01*
X9912896Y-14245984D02*
X9874801Y-14245984D01*
X9874801Y-14245984D02*
X9855753Y-14236460D01*
X9855753Y-14236460D02*
X9846230Y-14217412D01*
X9846230Y-14217412D02*
X9846230Y-14141222D01*
X9846230Y-14141222D02*
X9855753Y-14122174D01*
X9855753Y-14122174D02*
X9874801Y-14112650D01*
X9874801Y-14112650D02*
X9912896Y-14112650D01*
X9912896Y-14112650D02*
X9931944Y-14122174D01*
X9931944Y-14122174D02*
X9941468Y-14141222D01*
X9941468Y-14141222D02*
X9941468Y-14160269D01*
X9941468Y-14160269D02*
X9846230Y-14179317D01*
X10017658Y-14236460D02*
X10036706Y-14245984D01*
X10036706Y-14245984D02*
X10074801Y-14245984D01*
X10074801Y-14245984D02*
X10093849Y-14236460D01*
X10093849Y-14236460D02*
X10103373Y-14217412D01*
X10103373Y-14217412D02*
X10103373Y-14207888D01*
X10103373Y-14207888D02*
X10093849Y-14188841D01*
X10093849Y-14188841D02*
X10074801Y-14179317D01*
X10074801Y-14179317D02*
X10046230Y-14179317D01*
X10046230Y-14179317D02*
X10027182Y-14169793D01*
X10027182Y-14169793D02*
X10017658Y-14150746D01*
X10017658Y-14150746D02*
X10017658Y-14141222D01*
X10017658Y-14141222D02*
X10027182Y-14122174D01*
X10027182Y-14122174D02*
X10046230Y-14112650D01*
X10046230Y-14112650D02*
X10074801Y-14112650D01*
X10074801Y-14112650D02*
X10093849Y-14122174D01*
X10170039Y-14322174D02*
X10179563Y-14312650D01*
X10179563Y-14312650D02*
X10198611Y-14284079D01*
X10198611Y-14284079D02*
X10208134Y-14265031D01*
X10208134Y-14265031D02*
X10217658Y-14236460D01*
X10217658Y-14236460D02*
X10227182Y-14188841D01*
X10227182Y-14188841D02*
X10227182Y-14150746D01*
X10227182Y-14150746D02*
X10217658Y-14103127D01*
X10217658Y-14103127D02*
X10208134Y-14074555D01*
X10208134Y-14074555D02*
X10198611Y-14055508D01*
X10198611Y-14055508D02*
X10179563Y-14026936D01*
X10179563Y-14026936D02*
X10170039Y-14017412D01*
D13*
X5094500Y-14363500D02*
X5204500Y-14473500D01*
X5204500Y-14363500D02*
X5094500Y-14473500D01*
X5149500Y-14363500D02*
X5149500Y-14473500D01*
X5094500Y-14418500D02*
X5204500Y-14418500D01*
D11*
X5570039Y-14509984D02*
X5455753Y-14509984D01*
X5512896Y-14509984D02*
X5512896Y-14309984D01*
X5512896Y-14309984D02*
X5493848Y-14338555D01*
X5493848Y-14338555D02*
X5474801Y-14357603D01*
X5474801Y-14357603D02*
X5455753Y-14367127D01*
X5655753Y-14490936D02*
X5665277Y-14500460D01*
X5665277Y-14500460D02*
X5655753Y-14509984D01*
X5655753Y-14509984D02*
X5646229Y-14500460D01*
X5646229Y-14500460D02*
X5655753Y-14490936D01*
X5655753Y-14490936D02*
X5655753Y-14509984D01*
X5855753Y-14509984D02*
X5741467Y-14509984D01*
X5798610Y-14509984D02*
X5798610Y-14309984D01*
X5798610Y-14309984D02*
X5779562Y-14338555D01*
X5779562Y-14338555D02*
X5760515Y-14357603D01*
X5760515Y-14357603D02*
X5741467Y-14367127D01*
X5979562Y-14309984D02*
X5998610Y-14309984D01*
X5998610Y-14309984D02*
X6017658Y-14319508D01*
X6017658Y-14319508D02*
X6027182Y-14329031D01*
X6027182Y-14329031D02*
X6036705Y-14348079D01*
X6036705Y-14348079D02*
X6046229Y-14386174D01*
X6046229Y-14386174D02*
X6046229Y-14433793D01*
X6046229Y-14433793D02*
X6036705Y-14471888D01*
X6036705Y-14471888D02*
X6027182Y-14490936D01*
X6027182Y-14490936D02*
X6017658Y-14500460D01*
X6017658Y-14500460D02*
X5998610Y-14509984D01*
X5998610Y-14509984D02*
X5979562Y-14509984D01*
X5979562Y-14509984D02*
X5960515Y-14500460D01*
X5960515Y-14500460D02*
X5950991Y-14490936D01*
X5950991Y-14490936D02*
X5941467Y-14471888D01*
X5941467Y-14471888D02*
X5931943Y-14433793D01*
X5931943Y-14433793D02*
X5931943Y-14386174D01*
X5931943Y-14386174D02*
X5941467Y-14348079D01*
X5941467Y-14348079D02*
X5950991Y-14329031D01*
X5950991Y-14329031D02*
X5960515Y-14319508D01*
X5960515Y-14319508D02*
X5979562Y-14309984D01*
X6170039Y-14309984D02*
X6189086Y-14309984D01*
X6189086Y-14309984D02*
X6208134Y-14319508D01*
X6208134Y-14319508D02*
X6217658Y-14329031D01*
X6217658Y-14329031D02*
X6227182Y-14348079D01*
X6227182Y-14348079D02*
X6236705Y-14386174D01*
X6236705Y-14386174D02*
X6236705Y-14433793D01*
X6236705Y-14433793D02*
X6227182Y-14471888D01*
X6227182Y-14471888D02*
X6217658Y-14490936D01*
X6217658Y-14490936D02*
X6208134Y-14500460D01*
X6208134Y-14500460D02*
X6189086Y-14509984D01*
X6189086Y-14509984D02*
X6170039Y-14509984D01*
X6170039Y-14509984D02*
X6150991Y-14500460D01*
X6150991Y-14500460D02*
X6141467Y-14490936D01*
X6141467Y-14490936D02*
X6131943Y-14471888D01*
X6131943Y-14471888D02*
X6122420Y-14433793D01*
X6122420Y-14433793D02*
X6122420Y-14386174D01*
X6122420Y-14386174D02*
X6131943Y-14348079D01*
X6131943Y-14348079D02*
X6141467Y-14329031D01*
X6141467Y-14329031D02*
X6150991Y-14319508D01*
X6150991Y-14319508D02*
X6170039Y-14309984D01*
X6322420Y-14509984D02*
X6322420Y-14376650D01*
X6322420Y-14395698D02*
X6331943Y-14386174D01*
X6331943Y-14386174D02*
X6350991Y-14376650D01*
X6350991Y-14376650D02*
X6379563Y-14376650D01*
X6379563Y-14376650D02*
X6398610Y-14386174D01*
X6398610Y-14386174D02*
X6408134Y-14405222D01*
X6408134Y-14405222D02*
X6408134Y-14509984D01*
X6408134Y-14405222D02*
X6417658Y-14386174D01*
X6417658Y-14386174D02*
X6436705Y-14376650D01*
X6436705Y-14376650D02*
X6465277Y-14376650D01*
X6465277Y-14376650D02*
X6484324Y-14386174D01*
X6484324Y-14386174D02*
X6493848Y-14405222D01*
X6493848Y-14405222D02*
X6493848Y-14509984D01*
X6589086Y-14509984D02*
X6589086Y-14376650D01*
X6589086Y-14395698D02*
X6598610Y-14386174D01*
X6598610Y-14386174D02*
X6617658Y-14376650D01*
X6617658Y-14376650D02*
X6646229Y-14376650D01*
X6646229Y-14376650D02*
X6665277Y-14386174D01*
X6665277Y-14386174D02*
X6674801Y-14405222D01*
X6674801Y-14405222D02*
X6674801Y-14509984D01*
X6674801Y-14405222D02*
X6684324Y-14386174D01*
X6684324Y-14386174D02*
X6703372Y-14376650D01*
X6703372Y-14376650D02*
X6731943Y-14376650D01*
X6731943Y-14376650D02*
X6750991Y-14386174D01*
X6750991Y-14386174D02*
X6760515Y-14405222D01*
X6760515Y-14405222D02*
X6760515Y-14509984D01*
X7150991Y-14300460D02*
X6979563Y-14557603D01*
X7408134Y-14309984D02*
X7427182Y-14309984D01*
X7427182Y-14309984D02*
X7446229Y-14319508D01*
X7446229Y-14319508D02*
X7455753Y-14329031D01*
X7455753Y-14329031D02*
X7465277Y-14348079D01*
X7465277Y-14348079D02*
X7474801Y-14386174D01*
X7474801Y-14386174D02*
X7474801Y-14433793D01*
X7474801Y-14433793D02*
X7465277Y-14471888D01*
X7465277Y-14471888D02*
X7455753Y-14490936D01*
X7455753Y-14490936D02*
X7446229Y-14500460D01*
X7446229Y-14500460D02*
X7427182Y-14509984D01*
X7427182Y-14509984D02*
X7408134Y-14509984D01*
X7408134Y-14509984D02*
X7389086Y-14500460D01*
X7389086Y-14500460D02*
X7379563Y-14490936D01*
X7379563Y-14490936D02*
X7370039Y-14471888D01*
X7370039Y-14471888D02*
X7360515Y-14433793D01*
X7360515Y-14433793D02*
X7360515Y-14386174D01*
X7360515Y-14386174D02*
X7370039Y-14348079D01*
X7370039Y-14348079D02*
X7379563Y-14329031D01*
X7379563Y-14329031D02*
X7389086Y-14319508D01*
X7389086Y-14319508D02*
X7408134Y-14309984D01*
X7560515Y-14490936D02*
X7570039Y-14500460D01*
X7570039Y-14500460D02*
X7560515Y-14509984D01*
X7560515Y-14509984D02*
X7550991Y-14500460D01*
X7550991Y-14500460D02*
X7560515Y-14490936D01*
X7560515Y-14490936D02*
X7560515Y-14509984D01*
X7693848Y-14309984D02*
X7712896Y-14309984D01*
X7712896Y-14309984D02*
X7731944Y-14319508D01*
X7731944Y-14319508D02*
X7741467Y-14329031D01*
X7741467Y-14329031D02*
X7750991Y-14348079D01*
X7750991Y-14348079D02*
X7760515Y-14386174D01*
X7760515Y-14386174D02*
X7760515Y-14433793D01*
X7760515Y-14433793D02*
X7750991Y-14471888D01*
X7750991Y-14471888D02*
X7741467Y-14490936D01*
X7741467Y-14490936D02*
X7731944Y-14500460D01*
X7731944Y-14500460D02*
X7712896Y-14509984D01*
X7712896Y-14509984D02*
X7693848Y-14509984D01*
X7693848Y-14509984D02*
X7674801Y-14500460D01*
X7674801Y-14500460D02*
X7665277Y-14490936D01*
X7665277Y-14490936D02*
X7655753Y-14471888D01*
X7655753Y-14471888D02*
X7646229Y-14433793D01*
X7646229Y-14433793D02*
X7646229Y-14386174D01*
X7646229Y-14386174D02*
X7655753Y-14348079D01*
X7655753Y-14348079D02*
X7665277Y-14329031D01*
X7665277Y-14329031D02*
X7674801Y-14319508D01*
X7674801Y-14319508D02*
X7693848Y-14309984D01*
X7931944Y-14376650D02*
X7931944Y-14509984D01*
X7884325Y-14300460D02*
X7836706Y-14443317D01*
X7836706Y-14443317D02*
X7960515Y-14443317D01*
X8017658Y-14309984D02*
X8141467Y-14309984D01*
X8141467Y-14309984D02*
X8074801Y-14386174D01*
X8074801Y-14386174D02*
X8103372Y-14386174D01*
X8103372Y-14386174D02*
X8122420Y-14395698D01*
X8122420Y-14395698D02*
X8131944Y-14405222D01*
X8131944Y-14405222D02*
X8141467Y-14424269D01*
X8141467Y-14424269D02*
X8141467Y-14471888D01*
X8141467Y-14471888D02*
X8131944Y-14490936D01*
X8131944Y-14490936D02*
X8122420Y-14500460D01*
X8122420Y-14500460D02*
X8103372Y-14509984D01*
X8103372Y-14509984D02*
X8046229Y-14509984D01*
X8046229Y-14509984D02*
X8027182Y-14500460D01*
X8027182Y-14500460D02*
X8017658Y-14490936D01*
X8208134Y-14309984D02*
X8331944Y-14309984D01*
X8331944Y-14309984D02*
X8265277Y-14386174D01*
X8265277Y-14386174D02*
X8293848Y-14386174D01*
X8293848Y-14386174D02*
X8312896Y-14395698D01*
X8312896Y-14395698D02*
X8322420Y-14405222D01*
X8322420Y-14405222D02*
X8331944Y-14424269D01*
X8331944Y-14424269D02*
X8331944Y-14471888D01*
X8331944Y-14471888D02*
X8322420Y-14490936D01*
X8322420Y-14490936D02*
X8312896Y-14500460D01*
X8312896Y-14500460D02*
X8293848Y-14509984D01*
X8293848Y-14509984D02*
X8236706Y-14509984D01*
X8236706Y-14509984D02*
X8217658Y-14500460D01*
X8217658Y-14500460D02*
X8208134Y-14490936D01*
X8408134Y-14309984D02*
X8408134Y-14348079D01*
X8484325Y-14309984D02*
X8484325Y-14348079D01*
X8779563Y-14586174D02*
X8770039Y-14576650D01*
X8770039Y-14576650D02*
X8750991Y-14548079D01*
X8750991Y-14548079D02*
X8741468Y-14529031D01*
X8741468Y-14529031D02*
X8731944Y-14500460D01*
X8731944Y-14500460D02*
X8722420Y-14452841D01*
X8722420Y-14452841D02*
X8722420Y-14414746D01*
X8722420Y-14414746D02*
X8731944Y-14367127D01*
X8731944Y-14367127D02*
X8741468Y-14338555D01*
X8741468Y-14338555D02*
X8750991Y-14319508D01*
X8750991Y-14319508D02*
X8770039Y-14290936D01*
X8770039Y-14290936D02*
X8779563Y-14281412D01*
X8941468Y-14309984D02*
X8903372Y-14309984D01*
X8903372Y-14309984D02*
X8884325Y-14319508D01*
X8884325Y-14319508D02*
X8874801Y-14329031D01*
X8874801Y-14329031D02*
X8855753Y-14357603D01*
X8855753Y-14357603D02*
X8846230Y-14395698D01*
X8846230Y-14395698D02*
X8846230Y-14471888D01*
X8846230Y-14471888D02*
X8855753Y-14490936D01*
X8855753Y-14490936D02*
X8865277Y-14500460D01*
X8865277Y-14500460D02*
X8884325Y-14509984D01*
X8884325Y-14509984D02*
X8922420Y-14509984D01*
X8922420Y-14509984D02*
X8941468Y-14500460D01*
X8941468Y-14500460D02*
X8950991Y-14490936D01*
X8950991Y-14490936D02*
X8960515Y-14471888D01*
X8960515Y-14471888D02*
X8960515Y-14424269D01*
X8960515Y-14424269D02*
X8950991Y-14405222D01*
X8950991Y-14405222D02*
X8941468Y-14395698D01*
X8941468Y-14395698D02*
X8922420Y-14386174D01*
X8922420Y-14386174D02*
X8884325Y-14386174D01*
X8884325Y-14386174D02*
X8865277Y-14395698D01*
X8865277Y-14395698D02*
X8855753Y-14405222D01*
X8855753Y-14405222D02*
X8846230Y-14424269D01*
X9198611Y-14509984D02*
X9198611Y-14309984D01*
X9284325Y-14509984D02*
X9284325Y-14405222D01*
X9284325Y-14405222D02*
X9274801Y-14386174D01*
X9274801Y-14386174D02*
X9255753Y-14376650D01*
X9255753Y-14376650D02*
X9227182Y-14376650D01*
X9227182Y-14376650D02*
X9208134Y-14386174D01*
X9208134Y-14386174D02*
X9198611Y-14395698D01*
X9408134Y-14509984D02*
X9389087Y-14500460D01*
X9389087Y-14500460D02*
X9379563Y-14490936D01*
X9379563Y-14490936D02*
X9370039Y-14471888D01*
X9370039Y-14471888D02*
X9370039Y-14414746D01*
X9370039Y-14414746D02*
X9379563Y-14395698D01*
X9379563Y-14395698D02*
X9389087Y-14386174D01*
X9389087Y-14386174D02*
X9408134Y-14376650D01*
X9408134Y-14376650D02*
X9436706Y-14376650D01*
X9436706Y-14376650D02*
X9455753Y-14386174D01*
X9455753Y-14386174D02*
X9465277Y-14395698D01*
X9465277Y-14395698D02*
X9474801Y-14414746D01*
X9474801Y-14414746D02*
X9474801Y-14471888D01*
X9474801Y-14471888D02*
X9465277Y-14490936D01*
X9465277Y-14490936D02*
X9455753Y-14500460D01*
X9455753Y-14500460D02*
X9436706Y-14509984D01*
X9436706Y-14509984D02*
X9408134Y-14509984D01*
X9589087Y-14509984D02*
X9570039Y-14500460D01*
X9570039Y-14500460D02*
X9560515Y-14481412D01*
X9560515Y-14481412D02*
X9560515Y-14309984D01*
X9741468Y-14500460D02*
X9722420Y-14509984D01*
X9722420Y-14509984D02*
X9684325Y-14509984D01*
X9684325Y-14509984D02*
X9665277Y-14500460D01*
X9665277Y-14500460D02*
X9655753Y-14481412D01*
X9655753Y-14481412D02*
X9655753Y-14405222D01*
X9655753Y-14405222D02*
X9665277Y-14386174D01*
X9665277Y-14386174D02*
X9684325Y-14376650D01*
X9684325Y-14376650D02*
X9722420Y-14376650D01*
X9722420Y-14376650D02*
X9741468Y-14386174D01*
X9741468Y-14386174D02*
X9750992Y-14405222D01*
X9750992Y-14405222D02*
X9750992Y-14424269D01*
X9750992Y-14424269D02*
X9655753Y-14443317D01*
X9827182Y-14500460D02*
X9846230Y-14509984D01*
X9846230Y-14509984D02*
X9884325Y-14509984D01*
X9884325Y-14509984D02*
X9903373Y-14500460D01*
X9903373Y-14500460D02*
X9912896Y-14481412D01*
X9912896Y-14481412D02*
X9912896Y-14471888D01*
X9912896Y-14471888D02*
X9903373Y-14452841D01*
X9903373Y-14452841D02*
X9884325Y-14443317D01*
X9884325Y-14443317D02*
X9855753Y-14443317D01*
X9855753Y-14443317D02*
X9836706Y-14433793D01*
X9836706Y-14433793D02*
X9827182Y-14414746D01*
X9827182Y-14414746D02*
X9827182Y-14405222D01*
X9827182Y-14405222D02*
X9836706Y-14386174D01*
X9836706Y-14386174D02*
X9855753Y-14376650D01*
X9855753Y-14376650D02*
X9884325Y-14376650D01*
X9884325Y-14376650D02*
X9903373Y-14386174D01*
X9979563Y-14586174D02*
X9989087Y-14576650D01*
X9989087Y-14576650D02*
X10008134Y-14548079D01*
X10008134Y-14548079D02*
X10017658Y-14529031D01*
X10017658Y-14529031D02*
X10027182Y-14500460D01*
X10027182Y-14500460D02*
X10036706Y-14452841D01*
X10036706Y-14452841D02*
X10036706Y-14414746D01*
X10036706Y-14414746D02*
X10027182Y-14367127D01*
X10027182Y-14367127D02*
X10017658Y-14338555D01*
X10017658Y-14338555D02*
X10008134Y-14319508D01*
X10008134Y-14319508D02*
X9989087Y-14290936D01*
X9989087Y-14290936D02*
X9979563Y-14281412D01*
M02*
