%TF.GenerationSoftware,KiCad,Pcbnew,8.0.8*%
%TF.CreationDate,2025-03-31T23:20:11-04:00*%
%TF.ProjectId,rear_lights_unit,72656172-5f6c-4696-9768-74735f756e69,0*%
%TF.SameCoordinates,Original*%
%TF.FileFunction,AssemblyDrawing,Top*%
%FSLAX46Y46*%
G04 Gerber Fmt 4.6, Leading zero omitted, Abs format (unit mm)*
G04 Created by KiCad (PCBNEW 8.0.8) date 2025-03-31 23:20:11*
%MOMM*%
%LPD*%
G01*
G04 APERTURE LIST*
%ADD10C,0.150000*%
%ADD11C,0.100000*%
%ADD12C,0.120000*%
G04 APERTURE END LIST*
D10*
X129461190Y-45434819D02*
X128889762Y-45434819D01*
X129175476Y-45434819D02*
X129175476Y-44434819D01*
X129175476Y-44434819D02*
X129080238Y-44577676D01*
X129080238Y-44577676D02*
X128985000Y-44672914D01*
X128985000Y-44672914D02*
X128889762Y-44720533D01*
X130318333Y-44434819D02*
X130127857Y-44434819D01*
X130127857Y-44434819D02*
X130032619Y-44482438D01*
X130032619Y-44482438D02*
X129985000Y-44530057D01*
X129985000Y-44530057D02*
X129889762Y-44672914D01*
X129889762Y-44672914D02*
X129842143Y-44863390D01*
X129842143Y-44863390D02*
X129842143Y-45244342D01*
X129842143Y-45244342D02*
X129889762Y-45339580D01*
X129889762Y-45339580D02*
X129937381Y-45387200D01*
X129937381Y-45387200D02*
X130032619Y-45434819D01*
X130032619Y-45434819D02*
X130223095Y-45434819D01*
X130223095Y-45434819D02*
X130318333Y-45387200D01*
X130318333Y-45387200D02*
X130365952Y-45339580D01*
X130365952Y-45339580D02*
X130413571Y-45244342D01*
X130413571Y-45244342D02*
X130413571Y-45006247D01*
X130413571Y-45006247D02*
X130365952Y-44911009D01*
X130365952Y-44911009D02*
X130318333Y-44863390D01*
X130318333Y-44863390D02*
X130223095Y-44815771D01*
X130223095Y-44815771D02*
X130032619Y-44815771D01*
X130032619Y-44815771D02*
X129937381Y-44863390D01*
X129937381Y-44863390D02*
X129889762Y-44911009D01*
X129889762Y-44911009D02*
X129842143Y-45006247D01*
X130746905Y-44434819D02*
X131365952Y-44434819D01*
X131365952Y-44434819D02*
X131032619Y-44815771D01*
X131032619Y-44815771D02*
X131175476Y-44815771D01*
X131175476Y-44815771D02*
X131270714Y-44863390D01*
X131270714Y-44863390D02*
X131318333Y-44911009D01*
X131318333Y-44911009D02*
X131365952Y-45006247D01*
X131365952Y-45006247D02*
X131365952Y-45244342D01*
X131365952Y-45244342D02*
X131318333Y-45339580D01*
X131318333Y-45339580D02*
X131270714Y-45387200D01*
X131270714Y-45387200D02*
X131175476Y-45434819D01*
X131175476Y-45434819D02*
X130889762Y-45434819D01*
X130889762Y-45434819D02*
X130794524Y-45387200D01*
X130794524Y-45387200D02*
X130746905Y-45339580D01*
X131794524Y-45339580D02*
X131842143Y-45387200D01*
X131842143Y-45387200D02*
X131794524Y-45434819D01*
X131794524Y-45434819D02*
X131746905Y-45387200D01*
X131746905Y-45387200D02*
X131794524Y-45339580D01*
X131794524Y-45339580D02*
X131794524Y-45434819D01*
X132413571Y-44863390D02*
X132318333Y-44815771D01*
X132318333Y-44815771D02*
X132270714Y-44768152D01*
X132270714Y-44768152D02*
X132223095Y-44672914D01*
X132223095Y-44672914D02*
X132223095Y-44625295D01*
X132223095Y-44625295D02*
X132270714Y-44530057D01*
X132270714Y-44530057D02*
X132318333Y-44482438D01*
X132318333Y-44482438D02*
X132413571Y-44434819D01*
X132413571Y-44434819D02*
X132604047Y-44434819D01*
X132604047Y-44434819D02*
X132699285Y-44482438D01*
X132699285Y-44482438D02*
X132746904Y-44530057D01*
X132746904Y-44530057D02*
X132794523Y-44625295D01*
X132794523Y-44625295D02*
X132794523Y-44672914D01*
X132794523Y-44672914D02*
X132746904Y-44768152D01*
X132746904Y-44768152D02*
X132699285Y-44815771D01*
X132699285Y-44815771D02*
X132604047Y-44863390D01*
X132604047Y-44863390D02*
X132413571Y-44863390D01*
X132413571Y-44863390D02*
X132318333Y-44911009D01*
X132318333Y-44911009D02*
X132270714Y-44958628D01*
X132270714Y-44958628D02*
X132223095Y-45053866D01*
X132223095Y-45053866D02*
X132223095Y-45244342D01*
X132223095Y-45244342D02*
X132270714Y-45339580D01*
X132270714Y-45339580D02*
X132318333Y-45387200D01*
X132318333Y-45387200D02*
X132413571Y-45434819D01*
X132413571Y-45434819D02*
X132604047Y-45434819D01*
X132604047Y-45434819D02*
X132699285Y-45387200D01*
X132699285Y-45387200D02*
X132746904Y-45339580D01*
X132746904Y-45339580D02*
X132794523Y-45244342D01*
X132794523Y-45244342D02*
X132794523Y-45053866D01*
X132794523Y-45053866D02*
X132746904Y-44958628D01*
X132746904Y-44958628D02*
X132699285Y-44911009D01*
X132699285Y-44911009D02*
X132604047Y-44863390D01*
X133127857Y-44434819D02*
X133746904Y-44434819D01*
X133746904Y-44434819D02*
X133413571Y-44815771D01*
X133413571Y-44815771D02*
X133556428Y-44815771D01*
X133556428Y-44815771D02*
X133651666Y-44863390D01*
X133651666Y-44863390D02*
X133699285Y-44911009D01*
X133699285Y-44911009D02*
X133746904Y-45006247D01*
X133746904Y-45006247D02*
X133746904Y-45244342D01*
X133746904Y-45244342D02*
X133699285Y-45339580D01*
X133699285Y-45339580D02*
X133651666Y-45387200D01*
X133651666Y-45387200D02*
X133556428Y-45434819D01*
X133556428Y-45434819D02*
X133270714Y-45434819D01*
X133270714Y-45434819D02*
X133175476Y-45387200D01*
X133175476Y-45387200D02*
X133127857Y-45339580D01*
X134365952Y-44434819D02*
X134461190Y-44434819D01*
X134461190Y-44434819D02*
X134556428Y-44482438D01*
X134556428Y-44482438D02*
X134604047Y-44530057D01*
X134604047Y-44530057D02*
X134651666Y-44625295D01*
X134651666Y-44625295D02*
X134699285Y-44815771D01*
X134699285Y-44815771D02*
X134699285Y-45053866D01*
X134699285Y-45053866D02*
X134651666Y-45244342D01*
X134651666Y-45244342D02*
X134604047Y-45339580D01*
X134604047Y-45339580D02*
X134556428Y-45387200D01*
X134556428Y-45387200D02*
X134461190Y-45434819D01*
X134461190Y-45434819D02*
X134365952Y-45434819D01*
X134365952Y-45434819D02*
X134270714Y-45387200D01*
X134270714Y-45387200D02*
X134223095Y-45339580D01*
X134223095Y-45339580D02*
X134175476Y-45244342D01*
X134175476Y-45244342D02*
X134127857Y-45053866D01*
X134127857Y-45053866D02*
X134127857Y-44815771D01*
X134127857Y-44815771D02*
X134175476Y-44625295D01*
X134175476Y-44625295D02*
X134223095Y-44530057D01*
X134223095Y-44530057D02*
X134270714Y-44482438D01*
X134270714Y-44482438D02*
X134365952Y-44434819D01*
X135318333Y-44434819D02*
X135413571Y-44434819D01*
X135413571Y-44434819D02*
X135508809Y-44482438D01*
X135508809Y-44482438D02*
X135556428Y-44530057D01*
X135556428Y-44530057D02*
X135604047Y-44625295D01*
X135604047Y-44625295D02*
X135651666Y-44815771D01*
X135651666Y-44815771D02*
X135651666Y-45053866D01*
X135651666Y-45053866D02*
X135604047Y-45244342D01*
X135604047Y-45244342D02*
X135556428Y-45339580D01*
X135556428Y-45339580D02*
X135508809Y-45387200D01*
X135508809Y-45387200D02*
X135413571Y-45434819D01*
X135413571Y-45434819D02*
X135318333Y-45434819D01*
X135318333Y-45434819D02*
X135223095Y-45387200D01*
X135223095Y-45387200D02*
X135175476Y-45339580D01*
X135175476Y-45339580D02*
X135127857Y-45244342D01*
X135127857Y-45244342D02*
X135080238Y-45053866D01*
X135080238Y-45053866D02*
X135080238Y-44815771D01*
X135080238Y-44815771D02*
X135127857Y-44625295D01*
X135127857Y-44625295D02*
X135175476Y-44530057D01*
X135175476Y-44530057D02*
X135223095Y-44482438D01*
X135223095Y-44482438D02*
X135318333Y-44434819D01*
X136842143Y-45434819D02*
X136842143Y-44768152D01*
X136842143Y-44863390D02*
X136889762Y-44815771D01*
X136889762Y-44815771D02*
X136985000Y-44768152D01*
X136985000Y-44768152D02*
X137127857Y-44768152D01*
X137127857Y-44768152D02*
X137223095Y-44815771D01*
X137223095Y-44815771D02*
X137270714Y-44911009D01*
X137270714Y-44911009D02*
X137270714Y-45434819D01*
X137270714Y-44911009D02*
X137318333Y-44815771D01*
X137318333Y-44815771D02*
X137413571Y-44768152D01*
X137413571Y-44768152D02*
X137556428Y-44768152D01*
X137556428Y-44768152D02*
X137651667Y-44815771D01*
X137651667Y-44815771D02*
X137699286Y-44911009D01*
X137699286Y-44911009D02*
X137699286Y-45434819D01*
X138175476Y-45434819D02*
X138175476Y-44768152D01*
X138175476Y-44863390D02*
X138223095Y-44815771D01*
X138223095Y-44815771D02*
X138318333Y-44768152D01*
X138318333Y-44768152D02*
X138461190Y-44768152D01*
X138461190Y-44768152D02*
X138556428Y-44815771D01*
X138556428Y-44815771D02*
X138604047Y-44911009D01*
X138604047Y-44911009D02*
X138604047Y-45434819D01*
X138604047Y-44911009D02*
X138651666Y-44815771D01*
X138651666Y-44815771D02*
X138746904Y-44768152D01*
X138746904Y-44768152D02*
X138889761Y-44768152D01*
X138889761Y-44768152D02*
X138985000Y-44815771D01*
X138985000Y-44815771D02*
X139032619Y-44911009D01*
X139032619Y-44911009D02*
X139032619Y-45434819D01*
D11*
X52070000Y-50300000D02*
X52070000Y-45543580D01*
X215900000Y-50300000D02*
X215900000Y-45543580D01*
X52070000Y-46130000D02*
X215900000Y-46130000D01*
X52070000Y-46130000D02*
X215900000Y-46130000D01*
X52070000Y-46130000D02*
X53196504Y-45543579D01*
X52070000Y-46130000D02*
X53196504Y-46716421D01*
X215900000Y-46130000D02*
X214773496Y-46716421D01*
X215900000Y-46130000D02*
X214773496Y-45543579D01*
D10*
X47894819Y-56750475D02*
X47894819Y-56131428D01*
X47894819Y-56131428D02*
X48275771Y-56464761D01*
X48275771Y-56464761D02*
X48275771Y-56321904D01*
X48275771Y-56321904D02*
X48323390Y-56226666D01*
X48323390Y-56226666D02*
X48371009Y-56179047D01*
X48371009Y-56179047D02*
X48466247Y-56131428D01*
X48466247Y-56131428D02*
X48704342Y-56131428D01*
X48704342Y-56131428D02*
X48799580Y-56179047D01*
X48799580Y-56179047D02*
X48847200Y-56226666D01*
X48847200Y-56226666D02*
X48894819Y-56321904D01*
X48894819Y-56321904D02*
X48894819Y-56607618D01*
X48894819Y-56607618D02*
X48847200Y-56702856D01*
X48847200Y-56702856D02*
X48799580Y-56750475D01*
X48799580Y-55702856D02*
X48847200Y-55655237D01*
X48847200Y-55655237D02*
X48894819Y-55702856D01*
X48894819Y-55702856D02*
X48847200Y-55750475D01*
X48847200Y-55750475D02*
X48799580Y-55702856D01*
X48799580Y-55702856D02*
X48894819Y-55702856D01*
X47894819Y-54750476D02*
X47894819Y-55226666D01*
X47894819Y-55226666D02*
X48371009Y-55274285D01*
X48371009Y-55274285D02*
X48323390Y-55226666D01*
X48323390Y-55226666D02*
X48275771Y-55131428D01*
X48275771Y-55131428D02*
X48275771Y-54893333D01*
X48275771Y-54893333D02*
X48323390Y-54798095D01*
X48323390Y-54798095D02*
X48371009Y-54750476D01*
X48371009Y-54750476D02*
X48466247Y-54702857D01*
X48466247Y-54702857D02*
X48704342Y-54702857D01*
X48704342Y-54702857D02*
X48799580Y-54750476D01*
X48799580Y-54750476D02*
X48847200Y-54798095D01*
X48847200Y-54798095D02*
X48894819Y-54893333D01*
X48894819Y-54893333D02*
X48894819Y-55131428D01*
X48894819Y-55131428D02*
X48847200Y-55226666D01*
X48847200Y-55226666D02*
X48799580Y-55274285D01*
X47990057Y-54321904D02*
X47942438Y-54274285D01*
X47942438Y-54274285D02*
X47894819Y-54179047D01*
X47894819Y-54179047D02*
X47894819Y-53940952D01*
X47894819Y-53940952D02*
X47942438Y-53845714D01*
X47942438Y-53845714D02*
X47990057Y-53798095D01*
X47990057Y-53798095D02*
X48085295Y-53750476D01*
X48085295Y-53750476D02*
X48180533Y-53750476D01*
X48180533Y-53750476D02*
X48323390Y-53798095D01*
X48323390Y-53798095D02*
X48894819Y-54369523D01*
X48894819Y-54369523D02*
X48894819Y-53750476D01*
X47894819Y-53131428D02*
X47894819Y-53036190D01*
X47894819Y-53036190D02*
X47942438Y-52940952D01*
X47942438Y-52940952D02*
X47990057Y-52893333D01*
X47990057Y-52893333D02*
X48085295Y-52845714D01*
X48085295Y-52845714D02*
X48275771Y-52798095D01*
X48275771Y-52798095D02*
X48513866Y-52798095D01*
X48513866Y-52798095D02*
X48704342Y-52845714D01*
X48704342Y-52845714D02*
X48799580Y-52893333D01*
X48799580Y-52893333D02*
X48847200Y-52940952D01*
X48847200Y-52940952D02*
X48894819Y-53036190D01*
X48894819Y-53036190D02*
X48894819Y-53131428D01*
X48894819Y-53131428D02*
X48847200Y-53226666D01*
X48847200Y-53226666D02*
X48799580Y-53274285D01*
X48799580Y-53274285D02*
X48704342Y-53321904D01*
X48704342Y-53321904D02*
X48513866Y-53369523D01*
X48513866Y-53369523D02*
X48275771Y-53369523D01*
X48275771Y-53369523D02*
X48085295Y-53321904D01*
X48085295Y-53321904D02*
X47990057Y-53274285D01*
X47990057Y-53274285D02*
X47942438Y-53226666D01*
X47942438Y-53226666D02*
X47894819Y-53131428D01*
X47894819Y-52179047D02*
X47894819Y-52083809D01*
X47894819Y-52083809D02*
X47942438Y-51988571D01*
X47942438Y-51988571D02*
X47990057Y-51940952D01*
X47990057Y-51940952D02*
X48085295Y-51893333D01*
X48085295Y-51893333D02*
X48275771Y-51845714D01*
X48275771Y-51845714D02*
X48513866Y-51845714D01*
X48513866Y-51845714D02*
X48704342Y-51893333D01*
X48704342Y-51893333D02*
X48799580Y-51940952D01*
X48799580Y-51940952D02*
X48847200Y-51988571D01*
X48847200Y-51988571D02*
X48894819Y-52083809D01*
X48894819Y-52083809D02*
X48894819Y-52179047D01*
X48894819Y-52179047D02*
X48847200Y-52274285D01*
X48847200Y-52274285D02*
X48799580Y-52321904D01*
X48799580Y-52321904D02*
X48704342Y-52369523D01*
X48704342Y-52369523D02*
X48513866Y-52417142D01*
X48513866Y-52417142D02*
X48275771Y-52417142D01*
X48275771Y-52417142D02*
X48085295Y-52369523D01*
X48085295Y-52369523D02*
X47990057Y-52321904D01*
X47990057Y-52321904D02*
X47942438Y-52274285D01*
X47942438Y-52274285D02*
X47894819Y-52179047D01*
X48894819Y-50655237D02*
X48228152Y-50655237D01*
X48323390Y-50655237D02*
X48275771Y-50607618D01*
X48275771Y-50607618D02*
X48228152Y-50512380D01*
X48228152Y-50512380D02*
X48228152Y-50369523D01*
X48228152Y-50369523D02*
X48275771Y-50274285D01*
X48275771Y-50274285D02*
X48371009Y-50226666D01*
X48371009Y-50226666D02*
X48894819Y-50226666D01*
X48371009Y-50226666D02*
X48275771Y-50179047D01*
X48275771Y-50179047D02*
X48228152Y-50083809D01*
X48228152Y-50083809D02*
X48228152Y-49940952D01*
X48228152Y-49940952D02*
X48275771Y-49845713D01*
X48275771Y-49845713D02*
X48371009Y-49798094D01*
X48371009Y-49798094D02*
X48894819Y-49798094D01*
X48894819Y-49321904D02*
X48228152Y-49321904D01*
X48323390Y-49321904D02*
X48275771Y-49274285D01*
X48275771Y-49274285D02*
X48228152Y-49179047D01*
X48228152Y-49179047D02*
X48228152Y-49036190D01*
X48228152Y-49036190D02*
X48275771Y-48940952D01*
X48275771Y-48940952D02*
X48371009Y-48893333D01*
X48371009Y-48893333D02*
X48894819Y-48893333D01*
X48371009Y-48893333D02*
X48275771Y-48845714D01*
X48275771Y-48845714D02*
X48228152Y-48750476D01*
X48228152Y-48750476D02*
X48228152Y-48607619D01*
X48228152Y-48607619D02*
X48275771Y-48512380D01*
X48275771Y-48512380D02*
X48371009Y-48464761D01*
X48371009Y-48464761D02*
X48894819Y-48464761D01*
D11*
X55090000Y-54320000D02*
X49003580Y-54320000D01*
X55090000Y-50800000D02*
X49003580Y-50800000D01*
X49590000Y-54320000D02*
X49590000Y-50800000D01*
X49590000Y-54320000D02*
X49590000Y-50800000D01*
X49590000Y-54320000D02*
X49003579Y-53193496D01*
X49590000Y-54320000D02*
X50176421Y-53193496D01*
X49590000Y-50800000D02*
X50176421Y-51926504D01*
X49590000Y-50800000D02*
X49003579Y-51926504D01*
D10*
X221134819Y-91026665D02*
X221134819Y-90359999D01*
X221134819Y-90359999D02*
X222134819Y-90788570D01*
X222134819Y-89455237D02*
X222134819Y-90026665D01*
X222134819Y-89740951D02*
X221134819Y-89740951D01*
X221134819Y-89740951D02*
X221277676Y-89836189D01*
X221277676Y-89836189D02*
X221372914Y-89931427D01*
X221372914Y-89931427D02*
X221420533Y-90026665D01*
X222039580Y-89026665D02*
X222087200Y-88979046D01*
X222087200Y-88979046D02*
X222134819Y-89026665D01*
X222134819Y-89026665D02*
X222087200Y-89074284D01*
X222087200Y-89074284D02*
X222039580Y-89026665D01*
X222039580Y-89026665D02*
X222134819Y-89026665D01*
X222134819Y-88026666D02*
X222134819Y-88598094D01*
X222134819Y-88312380D02*
X221134819Y-88312380D01*
X221134819Y-88312380D02*
X221277676Y-88407618D01*
X221277676Y-88407618D02*
X221372914Y-88502856D01*
X221372914Y-88502856D02*
X221420533Y-88598094D01*
X221230057Y-87645713D02*
X221182438Y-87598094D01*
X221182438Y-87598094D02*
X221134819Y-87502856D01*
X221134819Y-87502856D02*
X221134819Y-87264761D01*
X221134819Y-87264761D02*
X221182438Y-87169523D01*
X221182438Y-87169523D02*
X221230057Y-87121904D01*
X221230057Y-87121904D02*
X221325295Y-87074285D01*
X221325295Y-87074285D02*
X221420533Y-87074285D01*
X221420533Y-87074285D02*
X221563390Y-87121904D01*
X221563390Y-87121904D02*
X222134819Y-87693332D01*
X222134819Y-87693332D02*
X222134819Y-87074285D01*
X221134819Y-86455237D02*
X221134819Y-86359999D01*
X221134819Y-86359999D02*
X221182438Y-86264761D01*
X221182438Y-86264761D02*
X221230057Y-86217142D01*
X221230057Y-86217142D02*
X221325295Y-86169523D01*
X221325295Y-86169523D02*
X221515771Y-86121904D01*
X221515771Y-86121904D02*
X221753866Y-86121904D01*
X221753866Y-86121904D02*
X221944342Y-86169523D01*
X221944342Y-86169523D02*
X222039580Y-86217142D01*
X222039580Y-86217142D02*
X222087200Y-86264761D01*
X222087200Y-86264761D02*
X222134819Y-86359999D01*
X222134819Y-86359999D02*
X222134819Y-86455237D01*
X222134819Y-86455237D02*
X222087200Y-86550475D01*
X222087200Y-86550475D02*
X222039580Y-86598094D01*
X222039580Y-86598094D02*
X221944342Y-86645713D01*
X221944342Y-86645713D02*
X221753866Y-86693332D01*
X221753866Y-86693332D02*
X221515771Y-86693332D01*
X221515771Y-86693332D02*
X221325295Y-86645713D01*
X221325295Y-86645713D02*
X221230057Y-86598094D01*
X221230057Y-86598094D02*
X221182438Y-86550475D01*
X221182438Y-86550475D02*
X221134819Y-86455237D01*
X221134819Y-85502856D02*
X221134819Y-85407618D01*
X221134819Y-85407618D02*
X221182438Y-85312380D01*
X221182438Y-85312380D02*
X221230057Y-85264761D01*
X221230057Y-85264761D02*
X221325295Y-85217142D01*
X221325295Y-85217142D02*
X221515771Y-85169523D01*
X221515771Y-85169523D02*
X221753866Y-85169523D01*
X221753866Y-85169523D02*
X221944342Y-85217142D01*
X221944342Y-85217142D02*
X222039580Y-85264761D01*
X222039580Y-85264761D02*
X222087200Y-85312380D01*
X222087200Y-85312380D02*
X222134819Y-85407618D01*
X222134819Y-85407618D02*
X222134819Y-85502856D01*
X222134819Y-85502856D02*
X222087200Y-85598094D01*
X222087200Y-85598094D02*
X222039580Y-85645713D01*
X222039580Y-85645713D02*
X221944342Y-85693332D01*
X221944342Y-85693332D02*
X221753866Y-85740951D01*
X221753866Y-85740951D02*
X221515771Y-85740951D01*
X221515771Y-85740951D02*
X221325295Y-85693332D01*
X221325295Y-85693332D02*
X221230057Y-85645713D01*
X221230057Y-85645713D02*
X221182438Y-85598094D01*
X221182438Y-85598094D02*
X221134819Y-85502856D01*
X222134819Y-83979046D02*
X221468152Y-83979046D01*
X221563390Y-83979046D02*
X221515771Y-83931427D01*
X221515771Y-83931427D02*
X221468152Y-83836189D01*
X221468152Y-83836189D02*
X221468152Y-83693332D01*
X221468152Y-83693332D02*
X221515771Y-83598094D01*
X221515771Y-83598094D02*
X221611009Y-83550475D01*
X221611009Y-83550475D02*
X222134819Y-83550475D01*
X221611009Y-83550475D02*
X221515771Y-83502856D01*
X221515771Y-83502856D02*
X221468152Y-83407618D01*
X221468152Y-83407618D02*
X221468152Y-83264761D01*
X221468152Y-83264761D02*
X221515771Y-83169522D01*
X221515771Y-83169522D02*
X221611009Y-83121903D01*
X221611009Y-83121903D02*
X222134819Y-83121903D01*
X222134819Y-82645713D02*
X221468152Y-82645713D01*
X221563390Y-82645713D02*
X221515771Y-82598094D01*
X221515771Y-82598094D02*
X221468152Y-82502856D01*
X221468152Y-82502856D02*
X221468152Y-82359999D01*
X221468152Y-82359999D02*
X221515771Y-82264761D01*
X221515771Y-82264761D02*
X221611009Y-82217142D01*
X221611009Y-82217142D02*
X222134819Y-82217142D01*
X221611009Y-82217142D02*
X221515771Y-82169523D01*
X221515771Y-82169523D02*
X221468152Y-82074285D01*
X221468152Y-82074285D02*
X221468152Y-81931428D01*
X221468152Y-81931428D02*
X221515771Y-81836189D01*
X221515771Y-81836189D02*
X221611009Y-81788570D01*
X221611009Y-81788570D02*
X222134819Y-81788570D01*
D11*
X216400000Y-121920000D02*
X223416420Y-121920000D01*
X216400000Y-50800000D02*
X223416420Y-50800000D01*
X222830000Y-121920000D02*
X222830000Y-50800000D01*
X222830000Y-121920000D02*
X222830000Y-50800000D01*
X222830000Y-121920000D02*
X222243579Y-120793496D01*
X222830000Y-121920000D02*
X223416421Y-120793496D01*
X222830000Y-50800000D02*
X223416421Y-51926504D01*
X222830000Y-50800000D02*
X222243579Y-51926504D01*
D10*
X49639524Y-47714819D02*
X50258571Y-47714819D01*
X50258571Y-47714819D02*
X49925238Y-48095771D01*
X49925238Y-48095771D02*
X50068095Y-48095771D01*
X50068095Y-48095771D02*
X50163333Y-48143390D01*
X50163333Y-48143390D02*
X50210952Y-48191009D01*
X50210952Y-48191009D02*
X50258571Y-48286247D01*
X50258571Y-48286247D02*
X50258571Y-48524342D01*
X50258571Y-48524342D02*
X50210952Y-48619580D01*
X50210952Y-48619580D02*
X50163333Y-48667200D01*
X50163333Y-48667200D02*
X50068095Y-48714819D01*
X50068095Y-48714819D02*
X49782381Y-48714819D01*
X49782381Y-48714819D02*
X49687143Y-48667200D01*
X49687143Y-48667200D02*
X49639524Y-48619580D01*
X50687143Y-48619580D02*
X50734762Y-48667200D01*
X50734762Y-48667200D02*
X50687143Y-48714819D01*
X50687143Y-48714819D02*
X50639524Y-48667200D01*
X50639524Y-48667200D02*
X50687143Y-48619580D01*
X50687143Y-48619580D02*
X50687143Y-48714819D01*
X51639523Y-47714819D02*
X51163333Y-47714819D01*
X51163333Y-47714819D02*
X51115714Y-48191009D01*
X51115714Y-48191009D02*
X51163333Y-48143390D01*
X51163333Y-48143390D02*
X51258571Y-48095771D01*
X51258571Y-48095771D02*
X51496666Y-48095771D01*
X51496666Y-48095771D02*
X51591904Y-48143390D01*
X51591904Y-48143390D02*
X51639523Y-48191009D01*
X51639523Y-48191009D02*
X51687142Y-48286247D01*
X51687142Y-48286247D02*
X51687142Y-48524342D01*
X51687142Y-48524342D02*
X51639523Y-48619580D01*
X51639523Y-48619580D02*
X51591904Y-48667200D01*
X51591904Y-48667200D02*
X51496666Y-48714819D01*
X51496666Y-48714819D02*
X51258571Y-48714819D01*
X51258571Y-48714819D02*
X51163333Y-48667200D01*
X51163333Y-48667200D02*
X51115714Y-48619580D01*
X52068095Y-47810057D02*
X52115714Y-47762438D01*
X52115714Y-47762438D02*
X52210952Y-47714819D01*
X52210952Y-47714819D02*
X52449047Y-47714819D01*
X52449047Y-47714819D02*
X52544285Y-47762438D01*
X52544285Y-47762438D02*
X52591904Y-47810057D01*
X52591904Y-47810057D02*
X52639523Y-47905295D01*
X52639523Y-47905295D02*
X52639523Y-48000533D01*
X52639523Y-48000533D02*
X52591904Y-48143390D01*
X52591904Y-48143390D02*
X52020476Y-48714819D01*
X52020476Y-48714819D02*
X52639523Y-48714819D01*
X53258571Y-47714819D02*
X53353809Y-47714819D01*
X53353809Y-47714819D02*
X53449047Y-47762438D01*
X53449047Y-47762438D02*
X53496666Y-47810057D01*
X53496666Y-47810057D02*
X53544285Y-47905295D01*
X53544285Y-47905295D02*
X53591904Y-48095771D01*
X53591904Y-48095771D02*
X53591904Y-48333866D01*
X53591904Y-48333866D02*
X53544285Y-48524342D01*
X53544285Y-48524342D02*
X53496666Y-48619580D01*
X53496666Y-48619580D02*
X53449047Y-48667200D01*
X53449047Y-48667200D02*
X53353809Y-48714819D01*
X53353809Y-48714819D02*
X53258571Y-48714819D01*
X53258571Y-48714819D02*
X53163333Y-48667200D01*
X53163333Y-48667200D02*
X53115714Y-48619580D01*
X53115714Y-48619580D02*
X53068095Y-48524342D01*
X53068095Y-48524342D02*
X53020476Y-48333866D01*
X53020476Y-48333866D02*
X53020476Y-48095771D01*
X53020476Y-48095771D02*
X53068095Y-47905295D01*
X53068095Y-47905295D02*
X53115714Y-47810057D01*
X53115714Y-47810057D02*
X53163333Y-47762438D01*
X53163333Y-47762438D02*
X53258571Y-47714819D01*
X54210952Y-47714819D02*
X54306190Y-47714819D01*
X54306190Y-47714819D02*
X54401428Y-47762438D01*
X54401428Y-47762438D02*
X54449047Y-47810057D01*
X54449047Y-47810057D02*
X54496666Y-47905295D01*
X54496666Y-47905295D02*
X54544285Y-48095771D01*
X54544285Y-48095771D02*
X54544285Y-48333866D01*
X54544285Y-48333866D02*
X54496666Y-48524342D01*
X54496666Y-48524342D02*
X54449047Y-48619580D01*
X54449047Y-48619580D02*
X54401428Y-48667200D01*
X54401428Y-48667200D02*
X54306190Y-48714819D01*
X54306190Y-48714819D02*
X54210952Y-48714819D01*
X54210952Y-48714819D02*
X54115714Y-48667200D01*
X54115714Y-48667200D02*
X54068095Y-48619580D01*
X54068095Y-48619580D02*
X54020476Y-48524342D01*
X54020476Y-48524342D02*
X53972857Y-48333866D01*
X53972857Y-48333866D02*
X53972857Y-48095771D01*
X53972857Y-48095771D02*
X54020476Y-47905295D01*
X54020476Y-47905295D02*
X54068095Y-47810057D01*
X54068095Y-47810057D02*
X54115714Y-47762438D01*
X54115714Y-47762438D02*
X54210952Y-47714819D01*
X55734762Y-48714819D02*
X55734762Y-48048152D01*
X55734762Y-48143390D02*
X55782381Y-48095771D01*
X55782381Y-48095771D02*
X55877619Y-48048152D01*
X55877619Y-48048152D02*
X56020476Y-48048152D01*
X56020476Y-48048152D02*
X56115714Y-48095771D01*
X56115714Y-48095771D02*
X56163333Y-48191009D01*
X56163333Y-48191009D02*
X56163333Y-48714819D01*
X56163333Y-48191009D02*
X56210952Y-48095771D01*
X56210952Y-48095771D02*
X56306190Y-48048152D01*
X56306190Y-48048152D02*
X56449047Y-48048152D01*
X56449047Y-48048152D02*
X56544286Y-48095771D01*
X56544286Y-48095771D02*
X56591905Y-48191009D01*
X56591905Y-48191009D02*
X56591905Y-48714819D01*
X57068095Y-48714819D02*
X57068095Y-48048152D01*
X57068095Y-48143390D02*
X57115714Y-48095771D01*
X57115714Y-48095771D02*
X57210952Y-48048152D01*
X57210952Y-48048152D02*
X57353809Y-48048152D01*
X57353809Y-48048152D02*
X57449047Y-48095771D01*
X57449047Y-48095771D02*
X57496666Y-48191009D01*
X57496666Y-48191009D02*
X57496666Y-48714819D01*
X57496666Y-48191009D02*
X57544285Y-48095771D01*
X57544285Y-48095771D02*
X57639523Y-48048152D01*
X57639523Y-48048152D02*
X57782380Y-48048152D01*
X57782380Y-48048152D02*
X57877619Y-48095771D01*
X57877619Y-48095771D02*
X57925238Y-48191009D01*
X57925238Y-48191009D02*
X57925238Y-48714819D01*
D11*
X55590000Y-53820000D02*
X55590000Y-48823580D01*
X52070000Y-48823580D02*
X52070000Y-53900000D01*
X55590000Y-49410000D02*
X52070000Y-49410000D01*
X55590000Y-49410000D02*
X52070000Y-49410000D01*
X55590000Y-49410000D02*
X54463496Y-49996421D01*
X55590000Y-49410000D02*
X54463496Y-48823579D01*
X52070000Y-49410000D02*
X53196504Y-48823579D01*
X52070000Y-49410000D02*
X53196504Y-49996421D01*
D10*
X105265142Y-64358819D02*
X104788952Y-64358819D01*
X104788952Y-64358819D02*
X104788952Y-63358819D01*
X105598476Y-63835009D02*
X105931809Y-63835009D01*
X106074666Y-64358819D02*
X105598476Y-64358819D01*
X105598476Y-64358819D02*
X105598476Y-63358819D01*
X105598476Y-63358819D02*
X106074666Y-63358819D01*
X106503238Y-64358819D02*
X106503238Y-63358819D01*
X106503238Y-63358819D02*
X106741333Y-63358819D01*
X106741333Y-63358819D02*
X106884190Y-63406438D01*
X106884190Y-63406438D02*
X106979428Y-63501676D01*
X106979428Y-63501676D02*
X107027047Y-63596914D01*
X107027047Y-63596914D02*
X107074666Y-63787390D01*
X107074666Y-63787390D02*
X107074666Y-63930247D01*
X107074666Y-63930247D02*
X107027047Y-64120723D01*
X107027047Y-64120723D02*
X106979428Y-64215961D01*
X106979428Y-64215961D02*
X106884190Y-64311200D01*
X106884190Y-64311200D02*
X106741333Y-64358819D01*
X106741333Y-64358819D02*
X106503238Y-64358819D01*
D12*
X105317524Y-60307855D02*
X105317524Y-59507855D01*
X105317524Y-59507855D02*
X105508000Y-59507855D01*
X105508000Y-59507855D02*
X105622286Y-59545950D01*
X105622286Y-59545950D02*
X105698476Y-59622140D01*
X105698476Y-59622140D02*
X105736571Y-59698331D01*
X105736571Y-59698331D02*
X105774667Y-59850712D01*
X105774667Y-59850712D02*
X105774667Y-59964998D01*
X105774667Y-59964998D02*
X105736571Y-60117379D01*
X105736571Y-60117379D02*
X105698476Y-60193569D01*
X105698476Y-60193569D02*
X105622286Y-60269760D01*
X105622286Y-60269760D02*
X105508000Y-60307855D01*
X105508000Y-60307855D02*
X105317524Y-60307855D01*
X106536571Y-60307855D02*
X106079428Y-60307855D01*
X106308000Y-60307855D02*
X106308000Y-59507855D01*
X106308000Y-59507855D02*
X106231809Y-59622140D01*
X106231809Y-59622140D02*
X106155619Y-59698331D01*
X106155619Y-59698331D02*
X106079428Y-59736426D01*
D10*
X160139142Y-72694819D02*
X159662952Y-72694819D01*
X159662952Y-72694819D02*
X159662952Y-71694819D01*
X160472476Y-72171009D02*
X160805809Y-72171009D01*
X160948666Y-72694819D02*
X160472476Y-72694819D01*
X160472476Y-72694819D02*
X160472476Y-71694819D01*
X160472476Y-71694819D02*
X160948666Y-71694819D01*
X161377238Y-72694819D02*
X161377238Y-71694819D01*
X161377238Y-71694819D02*
X161615333Y-71694819D01*
X161615333Y-71694819D02*
X161758190Y-71742438D01*
X161758190Y-71742438D02*
X161853428Y-71837676D01*
X161853428Y-71837676D02*
X161901047Y-71932914D01*
X161901047Y-71932914D02*
X161948666Y-72123390D01*
X161948666Y-72123390D02*
X161948666Y-72266247D01*
X161948666Y-72266247D02*
X161901047Y-72456723D01*
X161901047Y-72456723D02*
X161853428Y-72551961D01*
X161853428Y-72551961D02*
X161758190Y-72647200D01*
X161758190Y-72647200D02*
X161615333Y-72694819D01*
X161615333Y-72694819D02*
X161377238Y-72694819D01*
D12*
X159810571Y-76563855D02*
X159810571Y-75763855D01*
X159810571Y-75763855D02*
X160001047Y-75763855D01*
X160001047Y-75763855D02*
X160115333Y-75801950D01*
X160115333Y-75801950D02*
X160191523Y-75878140D01*
X160191523Y-75878140D02*
X160229618Y-75954331D01*
X160229618Y-75954331D02*
X160267714Y-76106712D01*
X160267714Y-76106712D02*
X160267714Y-76220998D01*
X160267714Y-76220998D02*
X160229618Y-76373379D01*
X160229618Y-76373379D02*
X160191523Y-76449569D01*
X160191523Y-76449569D02*
X160115333Y-76525760D01*
X160115333Y-76525760D02*
X160001047Y-76563855D01*
X160001047Y-76563855D02*
X159810571Y-76563855D01*
X161029618Y-76563855D02*
X160572475Y-76563855D01*
X160801047Y-76563855D02*
X160801047Y-75763855D01*
X160801047Y-75763855D02*
X160724856Y-75878140D01*
X160724856Y-75878140D02*
X160648666Y-75954331D01*
X160648666Y-75954331D02*
X160572475Y-75992426D01*
X161791523Y-76563855D02*
X161334380Y-76563855D01*
X161562952Y-76563855D02*
X161562952Y-75763855D01*
X161562952Y-75763855D02*
X161486761Y-75878140D01*
X161486761Y-75878140D02*
X161410571Y-75954331D01*
X161410571Y-75954331D02*
X161334380Y-75992426D01*
D10*
X136258142Y-72948819D02*
X135781952Y-72948819D01*
X135781952Y-72948819D02*
X135781952Y-71948819D01*
X136591476Y-72425009D02*
X136924809Y-72425009D01*
X137067666Y-72948819D02*
X136591476Y-72948819D01*
X136591476Y-72948819D02*
X136591476Y-71948819D01*
X136591476Y-71948819D02*
X137067666Y-71948819D01*
X137496238Y-72948819D02*
X137496238Y-71948819D01*
X137496238Y-71948819D02*
X137734333Y-71948819D01*
X137734333Y-71948819D02*
X137877190Y-71996438D01*
X137877190Y-71996438D02*
X137972428Y-72091676D01*
X137972428Y-72091676D02*
X138020047Y-72186914D01*
X138020047Y-72186914D02*
X138067666Y-72377390D01*
X138067666Y-72377390D02*
X138067666Y-72520247D01*
X138067666Y-72520247D02*
X138020047Y-72710723D01*
X138020047Y-72710723D02*
X137972428Y-72805961D01*
X137972428Y-72805961D02*
X137877190Y-72901200D01*
X137877190Y-72901200D02*
X137734333Y-72948819D01*
X137734333Y-72948819D02*
X137496238Y-72948819D01*
D12*
X135929571Y-76817855D02*
X135929571Y-76017855D01*
X135929571Y-76017855D02*
X136120047Y-76017855D01*
X136120047Y-76017855D02*
X136234333Y-76055950D01*
X136234333Y-76055950D02*
X136310523Y-76132140D01*
X136310523Y-76132140D02*
X136348618Y-76208331D01*
X136348618Y-76208331D02*
X136386714Y-76360712D01*
X136386714Y-76360712D02*
X136386714Y-76474998D01*
X136386714Y-76474998D02*
X136348618Y-76627379D01*
X136348618Y-76627379D02*
X136310523Y-76703569D01*
X136310523Y-76703569D02*
X136234333Y-76779760D01*
X136234333Y-76779760D02*
X136120047Y-76817855D01*
X136120047Y-76817855D02*
X135929571Y-76817855D01*
X136691475Y-76094045D02*
X136729571Y-76055950D01*
X136729571Y-76055950D02*
X136805761Y-76017855D01*
X136805761Y-76017855D02*
X136996237Y-76017855D01*
X136996237Y-76017855D02*
X137072428Y-76055950D01*
X137072428Y-76055950D02*
X137110523Y-76094045D01*
X137110523Y-76094045D02*
X137148618Y-76170236D01*
X137148618Y-76170236D02*
X137148618Y-76246426D01*
X137148618Y-76246426D02*
X137110523Y-76360712D01*
X137110523Y-76360712D02*
X136653380Y-76817855D01*
X136653380Y-76817855D02*
X137148618Y-76817855D01*
X137415285Y-76017855D02*
X137910523Y-76017855D01*
X137910523Y-76017855D02*
X137643857Y-76322617D01*
X137643857Y-76322617D02*
X137758142Y-76322617D01*
X137758142Y-76322617D02*
X137834333Y-76360712D01*
X137834333Y-76360712D02*
X137872428Y-76398807D01*
X137872428Y-76398807D02*
X137910523Y-76474998D01*
X137910523Y-76474998D02*
X137910523Y-76665474D01*
X137910523Y-76665474D02*
X137872428Y-76741664D01*
X137872428Y-76741664D02*
X137834333Y-76779760D01*
X137834333Y-76779760D02*
X137758142Y-76817855D01*
X137758142Y-76817855D02*
X137529571Y-76817855D01*
X137529571Y-76817855D02*
X137453380Y-76779760D01*
X137453380Y-76779760D02*
X137415285Y-76741664D01*
D10*
X160139142Y-56438819D02*
X159662952Y-56438819D01*
X159662952Y-56438819D02*
X159662952Y-55438819D01*
X160472476Y-55915009D02*
X160805809Y-55915009D01*
X160948666Y-56438819D02*
X160472476Y-56438819D01*
X160472476Y-56438819D02*
X160472476Y-55438819D01*
X160472476Y-55438819D02*
X160948666Y-55438819D01*
X161377238Y-56438819D02*
X161377238Y-55438819D01*
X161377238Y-55438819D02*
X161615333Y-55438819D01*
X161615333Y-55438819D02*
X161758190Y-55486438D01*
X161758190Y-55486438D02*
X161853428Y-55581676D01*
X161853428Y-55581676D02*
X161901047Y-55676914D01*
X161901047Y-55676914D02*
X161948666Y-55867390D01*
X161948666Y-55867390D02*
X161948666Y-56010247D01*
X161948666Y-56010247D02*
X161901047Y-56200723D01*
X161901047Y-56200723D02*
X161853428Y-56295961D01*
X161853428Y-56295961D02*
X161758190Y-56391200D01*
X161758190Y-56391200D02*
X161615333Y-56438819D01*
X161615333Y-56438819D02*
X161377238Y-56438819D01*
D12*
X160191524Y-60307855D02*
X160191524Y-59507855D01*
X160191524Y-59507855D02*
X160382000Y-59507855D01*
X160382000Y-59507855D02*
X160496286Y-59545950D01*
X160496286Y-59545950D02*
X160572476Y-59622140D01*
X160572476Y-59622140D02*
X160610571Y-59698331D01*
X160610571Y-59698331D02*
X160648667Y-59850712D01*
X160648667Y-59850712D02*
X160648667Y-59964998D01*
X160648667Y-59964998D02*
X160610571Y-60117379D01*
X160610571Y-60117379D02*
X160572476Y-60193569D01*
X160572476Y-60193569D02*
X160496286Y-60269760D01*
X160496286Y-60269760D02*
X160382000Y-60307855D01*
X160382000Y-60307855D02*
X160191524Y-60307855D01*
X161029619Y-60307855D02*
X161182000Y-60307855D01*
X161182000Y-60307855D02*
X161258190Y-60269760D01*
X161258190Y-60269760D02*
X161296286Y-60231664D01*
X161296286Y-60231664D02*
X161372476Y-60117379D01*
X161372476Y-60117379D02*
X161410571Y-59964998D01*
X161410571Y-59964998D02*
X161410571Y-59660236D01*
X161410571Y-59660236D02*
X161372476Y-59584045D01*
X161372476Y-59584045D02*
X161334381Y-59545950D01*
X161334381Y-59545950D02*
X161258190Y-59507855D01*
X161258190Y-59507855D02*
X161105809Y-59507855D01*
X161105809Y-59507855D02*
X161029619Y-59545950D01*
X161029619Y-59545950D02*
X160991524Y-59584045D01*
X160991524Y-59584045D02*
X160953428Y-59660236D01*
X160953428Y-59660236D02*
X160953428Y-59850712D01*
X160953428Y-59850712D02*
X160991524Y-59926902D01*
X160991524Y-59926902D02*
X161029619Y-59964998D01*
X161029619Y-59964998D02*
X161105809Y-60003093D01*
X161105809Y-60003093D02*
X161258190Y-60003093D01*
X161258190Y-60003093D02*
X161334381Y-59964998D01*
X161334381Y-59964998D02*
X161372476Y-59926902D01*
X161372476Y-59926902D02*
X161410571Y-59850712D01*
D10*
X105270142Y-88742819D02*
X104793952Y-88742819D01*
X104793952Y-88742819D02*
X104793952Y-87742819D01*
X105603476Y-88219009D02*
X105936809Y-88219009D01*
X106079666Y-88742819D02*
X105603476Y-88742819D01*
X105603476Y-88742819D02*
X105603476Y-87742819D01*
X105603476Y-87742819D02*
X106079666Y-87742819D01*
X106508238Y-88742819D02*
X106508238Y-87742819D01*
X106508238Y-87742819D02*
X106746333Y-87742819D01*
X106746333Y-87742819D02*
X106889190Y-87790438D01*
X106889190Y-87790438D02*
X106984428Y-87885676D01*
X106984428Y-87885676D02*
X107032047Y-87980914D01*
X107032047Y-87980914D02*
X107079666Y-88171390D01*
X107079666Y-88171390D02*
X107079666Y-88314247D01*
X107079666Y-88314247D02*
X107032047Y-88504723D01*
X107032047Y-88504723D02*
X106984428Y-88599961D01*
X106984428Y-88599961D02*
X106889190Y-88695200D01*
X106889190Y-88695200D02*
X106746333Y-88742819D01*
X106746333Y-88742819D02*
X106508238Y-88742819D01*
D12*
X105322524Y-84691855D02*
X105322524Y-83891855D01*
X105322524Y-83891855D02*
X105513000Y-83891855D01*
X105513000Y-83891855D02*
X105627286Y-83929950D01*
X105627286Y-83929950D02*
X105703476Y-84006140D01*
X105703476Y-84006140D02*
X105741571Y-84082331D01*
X105741571Y-84082331D02*
X105779667Y-84234712D01*
X105779667Y-84234712D02*
X105779667Y-84348998D01*
X105779667Y-84348998D02*
X105741571Y-84501379D01*
X105741571Y-84501379D02*
X105703476Y-84577569D01*
X105703476Y-84577569D02*
X105627286Y-84653760D01*
X105627286Y-84653760D02*
X105513000Y-84691855D01*
X105513000Y-84691855D02*
X105322524Y-84691855D01*
X106465381Y-84158521D02*
X106465381Y-84691855D01*
X106274905Y-83853760D02*
X106084428Y-84425188D01*
X106084428Y-84425188D02*
X106579667Y-84425188D01*
D10*
X129649142Y-72740819D02*
X129172952Y-72740819D01*
X129172952Y-72740819D02*
X129172952Y-71740819D01*
X129982476Y-72217009D02*
X130315809Y-72217009D01*
X130458666Y-72740819D02*
X129982476Y-72740819D01*
X129982476Y-72740819D02*
X129982476Y-71740819D01*
X129982476Y-71740819D02*
X130458666Y-71740819D01*
X130887238Y-72740819D02*
X130887238Y-71740819D01*
X130887238Y-71740819D02*
X131125333Y-71740819D01*
X131125333Y-71740819D02*
X131268190Y-71788438D01*
X131268190Y-71788438D02*
X131363428Y-71883676D01*
X131363428Y-71883676D02*
X131411047Y-71978914D01*
X131411047Y-71978914D02*
X131458666Y-72169390D01*
X131458666Y-72169390D02*
X131458666Y-72312247D01*
X131458666Y-72312247D02*
X131411047Y-72502723D01*
X131411047Y-72502723D02*
X131363428Y-72597961D01*
X131363428Y-72597961D02*
X131268190Y-72693200D01*
X131268190Y-72693200D02*
X131125333Y-72740819D01*
X131125333Y-72740819D02*
X130887238Y-72740819D01*
D12*
X129320571Y-68689855D02*
X129320571Y-67889855D01*
X129320571Y-67889855D02*
X129511047Y-67889855D01*
X129511047Y-67889855D02*
X129625333Y-67927950D01*
X129625333Y-67927950D02*
X129701523Y-68004140D01*
X129701523Y-68004140D02*
X129739618Y-68080331D01*
X129739618Y-68080331D02*
X129777714Y-68232712D01*
X129777714Y-68232712D02*
X129777714Y-68346998D01*
X129777714Y-68346998D02*
X129739618Y-68499379D01*
X129739618Y-68499379D02*
X129701523Y-68575569D01*
X129701523Y-68575569D02*
X129625333Y-68651760D01*
X129625333Y-68651760D02*
X129511047Y-68689855D01*
X129511047Y-68689855D02*
X129320571Y-68689855D01*
X130539618Y-68689855D02*
X130082475Y-68689855D01*
X130311047Y-68689855D02*
X130311047Y-67889855D01*
X130311047Y-67889855D02*
X130234856Y-68004140D01*
X130234856Y-68004140D02*
X130158666Y-68080331D01*
X130158666Y-68080331D02*
X130082475Y-68118426D01*
X130996761Y-68232712D02*
X130920571Y-68194617D01*
X130920571Y-68194617D02*
X130882476Y-68156521D01*
X130882476Y-68156521D02*
X130844380Y-68080331D01*
X130844380Y-68080331D02*
X130844380Y-68042236D01*
X130844380Y-68042236D02*
X130882476Y-67966045D01*
X130882476Y-67966045D02*
X130920571Y-67927950D01*
X130920571Y-67927950D02*
X130996761Y-67889855D01*
X130996761Y-67889855D02*
X131149142Y-67889855D01*
X131149142Y-67889855D02*
X131225333Y-67927950D01*
X131225333Y-67927950D02*
X131263428Y-67966045D01*
X131263428Y-67966045D02*
X131301523Y-68042236D01*
X131301523Y-68042236D02*
X131301523Y-68080331D01*
X131301523Y-68080331D02*
X131263428Y-68156521D01*
X131263428Y-68156521D02*
X131225333Y-68194617D01*
X131225333Y-68194617D02*
X131149142Y-68232712D01*
X131149142Y-68232712D02*
X130996761Y-68232712D01*
X130996761Y-68232712D02*
X130920571Y-68270807D01*
X130920571Y-68270807D02*
X130882476Y-68308902D01*
X130882476Y-68308902D02*
X130844380Y-68385093D01*
X130844380Y-68385093D02*
X130844380Y-68537474D01*
X130844380Y-68537474D02*
X130882476Y-68613664D01*
X130882476Y-68613664D02*
X130920571Y-68651760D01*
X130920571Y-68651760D02*
X130996761Y-68689855D01*
X130996761Y-68689855D02*
X131149142Y-68689855D01*
X131149142Y-68689855D02*
X131225333Y-68651760D01*
X131225333Y-68651760D02*
X131263428Y-68613664D01*
X131263428Y-68613664D02*
X131301523Y-68537474D01*
X131301523Y-68537474D02*
X131301523Y-68385093D01*
X131301523Y-68385093D02*
X131263428Y-68308902D01*
X131263428Y-68308902D02*
X131225333Y-68270807D01*
X131225333Y-68270807D02*
X131149142Y-68232712D01*
D10*
X67673142Y-81884819D02*
X67196952Y-81884819D01*
X67196952Y-81884819D02*
X67196952Y-80884819D01*
X68006476Y-81361009D02*
X68339809Y-81361009D01*
X68482666Y-81884819D02*
X68006476Y-81884819D01*
X68006476Y-81884819D02*
X68006476Y-80884819D01*
X68006476Y-80884819D02*
X68482666Y-80884819D01*
X68911238Y-81884819D02*
X68911238Y-80884819D01*
X68911238Y-80884819D02*
X69149333Y-80884819D01*
X69149333Y-80884819D02*
X69292190Y-80932438D01*
X69292190Y-80932438D02*
X69387428Y-81027676D01*
X69387428Y-81027676D02*
X69435047Y-81122914D01*
X69435047Y-81122914D02*
X69482666Y-81313390D01*
X69482666Y-81313390D02*
X69482666Y-81456247D01*
X69482666Y-81456247D02*
X69435047Y-81646723D01*
X69435047Y-81646723D02*
X69387428Y-81741961D01*
X69387428Y-81741961D02*
X69292190Y-81837200D01*
X69292190Y-81837200D02*
X69149333Y-81884819D01*
X69149333Y-81884819D02*
X68911238Y-81884819D01*
D12*
X67344571Y-77833855D02*
X67344571Y-77033855D01*
X67344571Y-77033855D02*
X67535047Y-77033855D01*
X67535047Y-77033855D02*
X67649333Y-77071950D01*
X67649333Y-77071950D02*
X67725523Y-77148140D01*
X67725523Y-77148140D02*
X67763618Y-77224331D01*
X67763618Y-77224331D02*
X67801714Y-77376712D01*
X67801714Y-77376712D02*
X67801714Y-77490998D01*
X67801714Y-77490998D02*
X67763618Y-77643379D01*
X67763618Y-77643379D02*
X67725523Y-77719569D01*
X67725523Y-77719569D02*
X67649333Y-77795760D01*
X67649333Y-77795760D02*
X67535047Y-77833855D01*
X67535047Y-77833855D02*
X67344571Y-77833855D01*
X68106475Y-77110045D02*
X68144571Y-77071950D01*
X68144571Y-77071950D02*
X68220761Y-77033855D01*
X68220761Y-77033855D02*
X68411237Y-77033855D01*
X68411237Y-77033855D02*
X68487428Y-77071950D01*
X68487428Y-77071950D02*
X68525523Y-77110045D01*
X68525523Y-77110045D02*
X68563618Y-77186236D01*
X68563618Y-77186236D02*
X68563618Y-77262426D01*
X68563618Y-77262426D02*
X68525523Y-77376712D01*
X68525523Y-77376712D02*
X68068380Y-77833855D01*
X68068380Y-77833855D02*
X68563618Y-77833855D01*
X69287428Y-77033855D02*
X68906476Y-77033855D01*
X68906476Y-77033855D02*
X68868380Y-77414807D01*
X68868380Y-77414807D02*
X68906476Y-77376712D01*
X68906476Y-77376712D02*
X68982666Y-77338617D01*
X68982666Y-77338617D02*
X69173142Y-77338617D01*
X69173142Y-77338617D02*
X69249333Y-77376712D01*
X69249333Y-77376712D02*
X69287428Y-77414807D01*
X69287428Y-77414807D02*
X69325523Y-77490998D01*
X69325523Y-77490998D02*
X69325523Y-77681474D01*
X69325523Y-77681474D02*
X69287428Y-77757664D01*
X69287428Y-77757664D02*
X69249333Y-77795760D01*
X69249333Y-77795760D02*
X69173142Y-77833855D01*
X69173142Y-77833855D02*
X68982666Y-77833855D01*
X68982666Y-77833855D02*
X68906476Y-77795760D01*
X68906476Y-77795760D02*
X68868380Y-77757664D01*
D10*
X178930142Y-75788819D02*
X178453952Y-75788819D01*
X178453952Y-75788819D02*
X178453952Y-74788819D01*
X179263476Y-75265009D02*
X179596809Y-75265009D01*
X179739666Y-75788819D02*
X179263476Y-75788819D01*
X179263476Y-75788819D02*
X179263476Y-74788819D01*
X179263476Y-74788819D02*
X179739666Y-74788819D01*
X180168238Y-75788819D02*
X180168238Y-74788819D01*
X180168238Y-74788819D02*
X180406333Y-74788819D01*
X180406333Y-74788819D02*
X180549190Y-74836438D01*
X180549190Y-74836438D02*
X180644428Y-74931676D01*
X180644428Y-74931676D02*
X180692047Y-75026914D01*
X180692047Y-75026914D02*
X180739666Y-75217390D01*
X180739666Y-75217390D02*
X180739666Y-75360247D01*
X180739666Y-75360247D02*
X180692047Y-75550723D01*
X180692047Y-75550723D02*
X180644428Y-75645961D01*
X180644428Y-75645961D02*
X180549190Y-75741200D01*
X180549190Y-75741200D02*
X180406333Y-75788819D01*
X180406333Y-75788819D02*
X180168238Y-75788819D01*
D12*
X178601571Y-71737855D02*
X178601571Y-70937855D01*
X178601571Y-70937855D02*
X178792047Y-70937855D01*
X178792047Y-70937855D02*
X178906333Y-70975950D01*
X178906333Y-70975950D02*
X178982523Y-71052140D01*
X178982523Y-71052140D02*
X179020618Y-71128331D01*
X179020618Y-71128331D02*
X179058714Y-71280712D01*
X179058714Y-71280712D02*
X179058714Y-71394998D01*
X179058714Y-71394998D02*
X179020618Y-71547379D01*
X179020618Y-71547379D02*
X178982523Y-71623569D01*
X178982523Y-71623569D02*
X178906333Y-71699760D01*
X178906333Y-71699760D02*
X178792047Y-71737855D01*
X178792047Y-71737855D02*
X178601571Y-71737855D01*
X179820618Y-71737855D02*
X179363475Y-71737855D01*
X179592047Y-71737855D02*
X179592047Y-70937855D01*
X179592047Y-70937855D02*
X179515856Y-71052140D01*
X179515856Y-71052140D02*
X179439666Y-71128331D01*
X179439666Y-71128331D02*
X179363475Y-71166426D01*
X180506333Y-71204521D02*
X180506333Y-71737855D01*
X180315857Y-70899760D02*
X180125380Y-71471188D01*
X180125380Y-71471188D02*
X180620619Y-71471188D01*
D10*
X160139142Y-80822819D02*
X159662952Y-80822819D01*
X159662952Y-80822819D02*
X159662952Y-79822819D01*
X160472476Y-80299009D02*
X160805809Y-80299009D01*
X160948666Y-80822819D02*
X160472476Y-80822819D01*
X160472476Y-80822819D02*
X160472476Y-79822819D01*
X160472476Y-79822819D02*
X160948666Y-79822819D01*
X161377238Y-80822819D02*
X161377238Y-79822819D01*
X161377238Y-79822819D02*
X161615333Y-79822819D01*
X161615333Y-79822819D02*
X161758190Y-79870438D01*
X161758190Y-79870438D02*
X161853428Y-79965676D01*
X161853428Y-79965676D02*
X161901047Y-80060914D01*
X161901047Y-80060914D02*
X161948666Y-80251390D01*
X161948666Y-80251390D02*
X161948666Y-80394247D01*
X161948666Y-80394247D02*
X161901047Y-80584723D01*
X161901047Y-80584723D02*
X161853428Y-80679961D01*
X161853428Y-80679961D02*
X161758190Y-80775200D01*
X161758190Y-80775200D02*
X161615333Y-80822819D01*
X161615333Y-80822819D02*
X161377238Y-80822819D01*
D12*
X159810571Y-84691855D02*
X159810571Y-83891855D01*
X159810571Y-83891855D02*
X160001047Y-83891855D01*
X160001047Y-83891855D02*
X160115333Y-83929950D01*
X160115333Y-83929950D02*
X160191523Y-84006140D01*
X160191523Y-84006140D02*
X160229618Y-84082331D01*
X160229618Y-84082331D02*
X160267714Y-84234712D01*
X160267714Y-84234712D02*
X160267714Y-84348998D01*
X160267714Y-84348998D02*
X160229618Y-84501379D01*
X160229618Y-84501379D02*
X160191523Y-84577569D01*
X160191523Y-84577569D02*
X160115333Y-84653760D01*
X160115333Y-84653760D02*
X160001047Y-84691855D01*
X160001047Y-84691855D02*
X159810571Y-84691855D01*
X161029618Y-84691855D02*
X160572475Y-84691855D01*
X160801047Y-84691855D02*
X160801047Y-83891855D01*
X160801047Y-83891855D02*
X160724856Y-84006140D01*
X160724856Y-84006140D02*
X160648666Y-84082331D01*
X160648666Y-84082331D02*
X160572475Y-84120426D01*
X161334380Y-83968045D02*
X161372476Y-83929950D01*
X161372476Y-83929950D02*
X161448666Y-83891855D01*
X161448666Y-83891855D02*
X161639142Y-83891855D01*
X161639142Y-83891855D02*
X161715333Y-83929950D01*
X161715333Y-83929950D02*
X161753428Y-83968045D01*
X161753428Y-83968045D02*
X161791523Y-84044236D01*
X161791523Y-84044236D02*
X161791523Y-84120426D01*
X161791523Y-84120426D02*
X161753428Y-84234712D01*
X161753428Y-84234712D02*
X161296285Y-84691855D01*
X161296285Y-84691855D02*
X161791523Y-84691855D01*
D10*
X136258142Y-81076819D02*
X135781952Y-81076819D01*
X135781952Y-81076819D02*
X135781952Y-80076819D01*
X136591476Y-80553009D02*
X136924809Y-80553009D01*
X137067666Y-81076819D02*
X136591476Y-81076819D01*
X136591476Y-81076819D02*
X136591476Y-80076819D01*
X136591476Y-80076819D02*
X137067666Y-80076819D01*
X137496238Y-81076819D02*
X137496238Y-80076819D01*
X137496238Y-80076819D02*
X137734333Y-80076819D01*
X137734333Y-80076819D02*
X137877190Y-80124438D01*
X137877190Y-80124438D02*
X137972428Y-80219676D01*
X137972428Y-80219676D02*
X138020047Y-80314914D01*
X138020047Y-80314914D02*
X138067666Y-80505390D01*
X138067666Y-80505390D02*
X138067666Y-80648247D01*
X138067666Y-80648247D02*
X138020047Y-80838723D01*
X138020047Y-80838723D02*
X137972428Y-80933961D01*
X137972428Y-80933961D02*
X137877190Y-81029200D01*
X137877190Y-81029200D02*
X137734333Y-81076819D01*
X137734333Y-81076819D02*
X137496238Y-81076819D01*
D12*
X135929571Y-84945855D02*
X135929571Y-84145855D01*
X135929571Y-84145855D02*
X136120047Y-84145855D01*
X136120047Y-84145855D02*
X136234333Y-84183950D01*
X136234333Y-84183950D02*
X136310523Y-84260140D01*
X136310523Y-84260140D02*
X136348618Y-84336331D01*
X136348618Y-84336331D02*
X136386714Y-84488712D01*
X136386714Y-84488712D02*
X136386714Y-84602998D01*
X136386714Y-84602998D02*
X136348618Y-84755379D01*
X136348618Y-84755379D02*
X136310523Y-84831569D01*
X136310523Y-84831569D02*
X136234333Y-84907760D01*
X136234333Y-84907760D02*
X136120047Y-84945855D01*
X136120047Y-84945855D02*
X135929571Y-84945855D01*
X136691475Y-84222045D02*
X136729571Y-84183950D01*
X136729571Y-84183950D02*
X136805761Y-84145855D01*
X136805761Y-84145855D02*
X136996237Y-84145855D01*
X136996237Y-84145855D02*
X137072428Y-84183950D01*
X137072428Y-84183950D02*
X137110523Y-84222045D01*
X137110523Y-84222045D02*
X137148618Y-84298236D01*
X137148618Y-84298236D02*
X137148618Y-84374426D01*
X137148618Y-84374426D02*
X137110523Y-84488712D01*
X137110523Y-84488712D02*
X136653380Y-84945855D01*
X136653380Y-84945855D02*
X137148618Y-84945855D01*
X137834333Y-84412521D02*
X137834333Y-84945855D01*
X137643857Y-84107760D02*
X137453380Y-84679188D01*
X137453380Y-84679188D02*
X137948619Y-84679188D01*
D10*
X129644142Y-88996819D02*
X129167952Y-88996819D01*
X129167952Y-88996819D02*
X129167952Y-87996819D01*
X129977476Y-88473009D02*
X130310809Y-88473009D01*
X130453666Y-88996819D02*
X129977476Y-88996819D01*
X129977476Y-88996819D02*
X129977476Y-87996819D01*
X129977476Y-87996819D02*
X130453666Y-87996819D01*
X130882238Y-88996819D02*
X130882238Y-87996819D01*
X130882238Y-87996819D02*
X131120333Y-87996819D01*
X131120333Y-87996819D02*
X131263190Y-88044438D01*
X131263190Y-88044438D02*
X131358428Y-88139676D01*
X131358428Y-88139676D02*
X131406047Y-88234914D01*
X131406047Y-88234914D02*
X131453666Y-88425390D01*
X131453666Y-88425390D02*
X131453666Y-88568247D01*
X131453666Y-88568247D02*
X131406047Y-88758723D01*
X131406047Y-88758723D02*
X131358428Y-88853961D01*
X131358428Y-88853961D02*
X131263190Y-88949200D01*
X131263190Y-88949200D02*
X131120333Y-88996819D01*
X131120333Y-88996819D02*
X130882238Y-88996819D01*
D12*
X129315571Y-84945855D02*
X129315571Y-84145855D01*
X129315571Y-84145855D02*
X129506047Y-84145855D01*
X129506047Y-84145855D02*
X129620333Y-84183950D01*
X129620333Y-84183950D02*
X129696523Y-84260140D01*
X129696523Y-84260140D02*
X129734618Y-84336331D01*
X129734618Y-84336331D02*
X129772714Y-84488712D01*
X129772714Y-84488712D02*
X129772714Y-84602998D01*
X129772714Y-84602998D02*
X129734618Y-84755379D01*
X129734618Y-84755379D02*
X129696523Y-84831569D01*
X129696523Y-84831569D02*
X129620333Y-84907760D01*
X129620333Y-84907760D02*
X129506047Y-84945855D01*
X129506047Y-84945855D02*
X129315571Y-84945855D01*
X130077475Y-84222045D02*
X130115571Y-84183950D01*
X130115571Y-84183950D02*
X130191761Y-84145855D01*
X130191761Y-84145855D02*
X130382237Y-84145855D01*
X130382237Y-84145855D02*
X130458428Y-84183950D01*
X130458428Y-84183950D02*
X130496523Y-84222045D01*
X130496523Y-84222045D02*
X130534618Y-84298236D01*
X130534618Y-84298236D02*
X130534618Y-84374426D01*
X130534618Y-84374426D02*
X130496523Y-84488712D01*
X130496523Y-84488712D02*
X130039380Y-84945855D01*
X130039380Y-84945855D02*
X130534618Y-84945855D01*
X131029857Y-84145855D02*
X131106047Y-84145855D01*
X131106047Y-84145855D02*
X131182238Y-84183950D01*
X131182238Y-84183950D02*
X131220333Y-84222045D01*
X131220333Y-84222045D02*
X131258428Y-84298236D01*
X131258428Y-84298236D02*
X131296523Y-84450617D01*
X131296523Y-84450617D02*
X131296523Y-84641093D01*
X131296523Y-84641093D02*
X131258428Y-84793474D01*
X131258428Y-84793474D02*
X131220333Y-84869664D01*
X131220333Y-84869664D02*
X131182238Y-84907760D01*
X131182238Y-84907760D02*
X131106047Y-84945855D01*
X131106047Y-84945855D02*
X131029857Y-84945855D01*
X131029857Y-84945855D02*
X130953666Y-84907760D01*
X130953666Y-84907760D02*
X130915571Y-84869664D01*
X130915571Y-84869664D02*
X130877476Y-84793474D01*
X130877476Y-84793474D02*
X130839380Y-84641093D01*
X130839380Y-84641093D02*
X130839380Y-84450617D01*
X130839380Y-84450617D02*
X130877476Y-84298236D01*
X130877476Y-84298236D02*
X130915571Y-84222045D01*
X130915571Y-84222045D02*
X130953666Y-84183950D01*
X130953666Y-84183950D02*
X131029857Y-84145855D01*
D10*
X86474142Y-78536819D02*
X85997952Y-78536819D01*
X85997952Y-78536819D02*
X85997952Y-77536819D01*
X86807476Y-78013009D02*
X87140809Y-78013009D01*
X87283666Y-78536819D02*
X86807476Y-78536819D01*
X86807476Y-78536819D02*
X86807476Y-77536819D01*
X86807476Y-77536819D02*
X87283666Y-77536819D01*
X87712238Y-78536819D02*
X87712238Y-77536819D01*
X87712238Y-77536819D02*
X87950333Y-77536819D01*
X87950333Y-77536819D02*
X88093190Y-77584438D01*
X88093190Y-77584438D02*
X88188428Y-77679676D01*
X88188428Y-77679676D02*
X88236047Y-77774914D01*
X88236047Y-77774914D02*
X88283666Y-77965390D01*
X88283666Y-77965390D02*
X88283666Y-78108247D01*
X88283666Y-78108247D02*
X88236047Y-78298723D01*
X88236047Y-78298723D02*
X88188428Y-78393961D01*
X88188428Y-78393961D02*
X88093190Y-78489200D01*
X88093190Y-78489200D02*
X87950333Y-78536819D01*
X87950333Y-78536819D02*
X87712238Y-78536819D01*
D12*
X86526524Y-82405855D02*
X86526524Y-81605855D01*
X86526524Y-81605855D02*
X86717000Y-81605855D01*
X86717000Y-81605855D02*
X86831286Y-81643950D01*
X86831286Y-81643950D02*
X86907476Y-81720140D01*
X86907476Y-81720140D02*
X86945571Y-81796331D01*
X86945571Y-81796331D02*
X86983667Y-81948712D01*
X86983667Y-81948712D02*
X86983667Y-82062998D01*
X86983667Y-82062998D02*
X86945571Y-82215379D01*
X86945571Y-82215379D02*
X86907476Y-82291569D01*
X86907476Y-82291569D02*
X86831286Y-82367760D01*
X86831286Y-82367760D02*
X86717000Y-82405855D01*
X86717000Y-82405855D02*
X86526524Y-82405855D01*
X87250333Y-81605855D02*
X87783667Y-81605855D01*
X87783667Y-81605855D02*
X87440809Y-82405855D01*
D10*
X86474142Y-69392819D02*
X85997952Y-69392819D01*
X85997952Y-69392819D02*
X85997952Y-68392819D01*
X86807476Y-68869009D02*
X87140809Y-68869009D01*
X87283666Y-69392819D02*
X86807476Y-69392819D01*
X86807476Y-69392819D02*
X86807476Y-68392819D01*
X86807476Y-68392819D02*
X87283666Y-68392819D01*
X87712238Y-69392819D02*
X87712238Y-68392819D01*
X87712238Y-68392819D02*
X87950333Y-68392819D01*
X87950333Y-68392819D02*
X88093190Y-68440438D01*
X88093190Y-68440438D02*
X88188428Y-68535676D01*
X88188428Y-68535676D02*
X88236047Y-68630914D01*
X88236047Y-68630914D02*
X88283666Y-68821390D01*
X88283666Y-68821390D02*
X88283666Y-68964247D01*
X88283666Y-68964247D02*
X88236047Y-69154723D01*
X88236047Y-69154723D02*
X88188428Y-69249961D01*
X88188428Y-69249961D02*
X88093190Y-69345200D01*
X88093190Y-69345200D02*
X87950333Y-69392819D01*
X87950333Y-69392819D02*
X87712238Y-69392819D01*
D12*
X86526524Y-73261855D02*
X86526524Y-72461855D01*
X86526524Y-72461855D02*
X86717000Y-72461855D01*
X86717000Y-72461855D02*
X86831286Y-72499950D01*
X86831286Y-72499950D02*
X86907476Y-72576140D01*
X86907476Y-72576140D02*
X86945571Y-72652331D01*
X86945571Y-72652331D02*
X86983667Y-72804712D01*
X86983667Y-72804712D02*
X86983667Y-72918998D01*
X86983667Y-72918998D02*
X86945571Y-73071379D01*
X86945571Y-73071379D02*
X86907476Y-73147569D01*
X86907476Y-73147569D02*
X86831286Y-73223760D01*
X86831286Y-73223760D02*
X86717000Y-73261855D01*
X86717000Y-73261855D02*
X86526524Y-73261855D01*
X87669381Y-72461855D02*
X87517000Y-72461855D01*
X87517000Y-72461855D02*
X87440809Y-72499950D01*
X87440809Y-72499950D02*
X87402714Y-72538045D01*
X87402714Y-72538045D02*
X87326524Y-72652331D01*
X87326524Y-72652331D02*
X87288428Y-72804712D01*
X87288428Y-72804712D02*
X87288428Y-73109474D01*
X87288428Y-73109474D02*
X87326524Y-73185664D01*
X87326524Y-73185664D02*
X87364619Y-73223760D01*
X87364619Y-73223760D02*
X87440809Y-73261855D01*
X87440809Y-73261855D02*
X87593190Y-73261855D01*
X87593190Y-73261855D02*
X87669381Y-73223760D01*
X87669381Y-73223760D02*
X87707476Y-73185664D01*
X87707476Y-73185664D02*
X87745571Y-73109474D01*
X87745571Y-73109474D02*
X87745571Y-72918998D01*
X87745571Y-72918998D02*
X87707476Y-72842807D01*
X87707476Y-72842807D02*
X87669381Y-72804712D01*
X87669381Y-72804712D02*
X87593190Y-72766617D01*
X87593190Y-72766617D02*
X87440809Y-72766617D01*
X87440809Y-72766617D02*
X87364619Y-72804712D01*
X87364619Y-72804712D02*
X87326524Y-72842807D01*
X87326524Y-72842807D02*
X87288428Y-72918998D01*
D10*
X129649142Y-64612819D02*
X129172952Y-64612819D01*
X129172952Y-64612819D02*
X129172952Y-63612819D01*
X129982476Y-64089009D02*
X130315809Y-64089009D01*
X130458666Y-64612819D02*
X129982476Y-64612819D01*
X129982476Y-64612819D02*
X129982476Y-63612819D01*
X129982476Y-63612819D02*
X130458666Y-63612819D01*
X130887238Y-64612819D02*
X130887238Y-63612819D01*
X130887238Y-63612819D02*
X131125333Y-63612819D01*
X131125333Y-63612819D02*
X131268190Y-63660438D01*
X131268190Y-63660438D02*
X131363428Y-63755676D01*
X131363428Y-63755676D02*
X131411047Y-63850914D01*
X131411047Y-63850914D02*
X131458666Y-64041390D01*
X131458666Y-64041390D02*
X131458666Y-64184247D01*
X131458666Y-64184247D02*
X131411047Y-64374723D01*
X131411047Y-64374723D02*
X131363428Y-64469961D01*
X131363428Y-64469961D02*
X131268190Y-64565200D01*
X131268190Y-64565200D02*
X131125333Y-64612819D01*
X131125333Y-64612819D02*
X130887238Y-64612819D01*
D12*
X129320571Y-60561855D02*
X129320571Y-59761855D01*
X129320571Y-59761855D02*
X129511047Y-59761855D01*
X129511047Y-59761855D02*
X129625333Y-59799950D01*
X129625333Y-59799950D02*
X129701523Y-59876140D01*
X129701523Y-59876140D02*
X129739618Y-59952331D01*
X129739618Y-59952331D02*
X129777714Y-60104712D01*
X129777714Y-60104712D02*
X129777714Y-60218998D01*
X129777714Y-60218998D02*
X129739618Y-60371379D01*
X129739618Y-60371379D02*
X129701523Y-60447569D01*
X129701523Y-60447569D02*
X129625333Y-60523760D01*
X129625333Y-60523760D02*
X129511047Y-60561855D01*
X129511047Y-60561855D02*
X129320571Y-60561855D01*
X130539618Y-60561855D02*
X130082475Y-60561855D01*
X130311047Y-60561855D02*
X130311047Y-59761855D01*
X130311047Y-59761855D02*
X130234856Y-59876140D01*
X130234856Y-59876140D02*
X130158666Y-59952331D01*
X130158666Y-59952331D02*
X130082475Y-59990426D01*
X130806285Y-59761855D02*
X131339619Y-59761855D01*
X131339619Y-59761855D02*
X130996761Y-60561855D01*
D10*
X136258142Y-56692819D02*
X135781952Y-56692819D01*
X135781952Y-56692819D02*
X135781952Y-55692819D01*
X136591476Y-56169009D02*
X136924809Y-56169009D01*
X137067666Y-56692819D02*
X136591476Y-56692819D01*
X136591476Y-56692819D02*
X136591476Y-55692819D01*
X136591476Y-55692819D02*
X137067666Y-55692819D01*
X137496238Y-56692819D02*
X137496238Y-55692819D01*
X137496238Y-55692819D02*
X137734333Y-55692819D01*
X137734333Y-55692819D02*
X137877190Y-55740438D01*
X137877190Y-55740438D02*
X137972428Y-55835676D01*
X137972428Y-55835676D02*
X138020047Y-55930914D01*
X138020047Y-55930914D02*
X138067666Y-56121390D01*
X138067666Y-56121390D02*
X138067666Y-56264247D01*
X138067666Y-56264247D02*
X138020047Y-56454723D01*
X138020047Y-56454723D02*
X137972428Y-56549961D01*
X137972428Y-56549961D02*
X137877190Y-56645200D01*
X137877190Y-56645200D02*
X137734333Y-56692819D01*
X137734333Y-56692819D02*
X137496238Y-56692819D01*
D12*
X135929571Y-60561855D02*
X135929571Y-59761855D01*
X135929571Y-59761855D02*
X136120047Y-59761855D01*
X136120047Y-59761855D02*
X136234333Y-59799950D01*
X136234333Y-59799950D02*
X136310523Y-59876140D01*
X136310523Y-59876140D02*
X136348618Y-59952331D01*
X136348618Y-59952331D02*
X136386714Y-60104712D01*
X136386714Y-60104712D02*
X136386714Y-60218998D01*
X136386714Y-60218998D02*
X136348618Y-60371379D01*
X136348618Y-60371379D02*
X136310523Y-60447569D01*
X136310523Y-60447569D02*
X136234333Y-60523760D01*
X136234333Y-60523760D02*
X136120047Y-60561855D01*
X136120047Y-60561855D02*
X135929571Y-60561855D01*
X136691475Y-59838045D02*
X136729571Y-59799950D01*
X136729571Y-59799950D02*
X136805761Y-59761855D01*
X136805761Y-59761855D02*
X136996237Y-59761855D01*
X136996237Y-59761855D02*
X137072428Y-59799950D01*
X137072428Y-59799950D02*
X137110523Y-59838045D01*
X137110523Y-59838045D02*
X137148618Y-59914236D01*
X137148618Y-59914236D02*
X137148618Y-59990426D01*
X137148618Y-59990426D02*
X137110523Y-60104712D01*
X137110523Y-60104712D02*
X136653380Y-60561855D01*
X136653380Y-60561855D02*
X137148618Y-60561855D01*
X137910523Y-60561855D02*
X137453380Y-60561855D01*
X137681952Y-60561855D02*
X137681952Y-59761855D01*
X137681952Y-59761855D02*
X137605761Y-59876140D01*
X137605761Y-59876140D02*
X137529571Y-59952331D01*
X137529571Y-59952331D02*
X137453380Y-59990426D01*
D10*
X178925142Y-66644819D02*
X178448952Y-66644819D01*
X178448952Y-66644819D02*
X178448952Y-65644819D01*
X179258476Y-66121009D02*
X179591809Y-66121009D01*
X179734666Y-66644819D02*
X179258476Y-66644819D01*
X179258476Y-66644819D02*
X179258476Y-65644819D01*
X179258476Y-65644819D02*
X179734666Y-65644819D01*
X180163238Y-66644819D02*
X180163238Y-65644819D01*
X180163238Y-65644819D02*
X180401333Y-65644819D01*
X180401333Y-65644819D02*
X180544190Y-65692438D01*
X180544190Y-65692438D02*
X180639428Y-65787676D01*
X180639428Y-65787676D02*
X180687047Y-65882914D01*
X180687047Y-65882914D02*
X180734666Y-66073390D01*
X180734666Y-66073390D02*
X180734666Y-66216247D01*
X180734666Y-66216247D02*
X180687047Y-66406723D01*
X180687047Y-66406723D02*
X180639428Y-66501961D01*
X180639428Y-66501961D02*
X180544190Y-66597200D01*
X180544190Y-66597200D02*
X180401333Y-66644819D01*
X180401333Y-66644819D02*
X180163238Y-66644819D01*
D12*
X178596571Y-62593855D02*
X178596571Y-61793855D01*
X178596571Y-61793855D02*
X178787047Y-61793855D01*
X178787047Y-61793855D02*
X178901333Y-61831950D01*
X178901333Y-61831950D02*
X178977523Y-61908140D01*
X178977523Y-61908140D02*
X179015618Y-61984331D01*
X179015618Y-61984331D02*
X179053714Y-62136712D01*
X179053714Y-62136712D02*
X179053714Y-62250998D01*
X179053714Y-62250998D02*
X179015618Y-62403379D01*
X179015618Y-62403379D02*
X178977523Y-62479569D01*
X178977523Y-62479569D02*
X178901333Y-62555760D01*
X178901333Y-62555760D02*
X178787047Y-62593855D01*
X178787047Y-62593855D02*
X178596571Y-62593855D01*
X179815618Y-62593855D02*
X179358475Y-62593855D01*
X179587047Y-62593855D02*
X179587047Y-61793855D01*
X179587047Y-61793855D02*
X179510856Y-61908140D01*
X179510856Y-61908140D02*
X179434666Y-61984331D01*
X179434666Y-61984331D02*
X179358475Y-62022426D01*
X180082285Y-61793855D02*
X180577523Y-61793855D01*
X180577523Y-61793855D02*
X180310857Y-62098617D01*
X180310857Y-62098617D02*
X180425142Y-62098617D01*
X180425142Y-62098617D02*
X180501333Y-62136712D01*
X180501333Y-62136712D02*
X180539428Y-62174807D01*
X180539428Y-62174807D02*
X180577523Y-62250998D01*
X180577523Y-62250998D02*
X180577523Y-62441474D01*
X180577523Y-62441474D02*
X180539428Y-62517664D01*
X180539428Y-62517664D02*
X180501333Y-62555760D01*
X180501333Y-62555760D02*
X180425142Y-62593855D01*
X180425142Y-62593855D02*
X180196571Y-62593855D01*
X180196571Y-62593855D02*
X180120380Y-62555760D01*
X180120380Y-62555760D02*
X180082285Y-62517664D01*
D10*
X136258142Y-64820819D02*
X135781952Y-64820819D01*
X135781952Y-64820819D02*
X135781952Y-63820819D01*
X136591476Y-64297009D02*
X136924809Y-64297009D01*
X137067666Y-64820819D02*
X136591476Y-64820819D01*
X136591476Y-64820819D02*
X136591476Y-63820819D01*
X136591476Y-63820819D02*
X137067666Y-63820819D01*
X137496238Y-64820819D02*
X137496238Y-63820819D01*
X137496238Y-63820819D02*
X137734333Y-63820819D01*
X137734333Y-63820819D02*
X137877190Y-63868438D01*
X137877190Y-63868438D02*
X137972428Y-63963676D01*
X137972428Y-63963676D02*
X138020047Y-64058914D01*
X138020047Y-64058914D02*
X138067666Y-64249390D01*
X138067666Y-64249390D02*
X138067666Y-64392247D01*
X138067666Y-64392247D02*
X138020047Y-64582723D01*
X138020047Y-64582723D02*
X137972428Y-64677961D01*
X137972428Y-64677961D02*
X137877190Y-64773200D01*
X137877190Y-64773200D02*
X137734333Y-64820819D01*
X137734333Y-64820819D02*
X137496238Y-64820819D01*
D12*
X135929571Y-68689855D02*
X135929571Y-67889855D01*
X135929571Y-67889855D02*
X136120047Y-67889855D01*
X136120047Y-67889855D02*
X136234333Y-67927950D01*
X136234333Y-67927950D02*
X136310523Y-68004140D01*
X136310523Y-68004140D02*
X136348618Y-68080331D01*
X136348618Y-68080331D02*
X136386714Y-68232712D01*
X136386714Y-68232712D02*
X136386714Y-68346998D01*
X136386714Y-68346998D02*
X136348618Y-68499379D01*
X136348618Y-68499379D02*
X136310523Y-68575569D01*
X136310523Y-68575569D02*
X136234333Y-68651760D01*
X136234333Y-68651760D02*
X136120047Y-68689855D01*
X136120047Y-68689855D02*
X135929571Y-68689855D01*
X136691475Y-67966045D02*
X136729571Y-67927950D01*
X136729571Y-67927950D02*
X136805761Y-67889855D01*
X136805761Y-67889855D02*
X136996237Y-67889855D01*
X136996237Y-67889855D02*
X137072428Y-67927950D01*
X137072428Y-67927950D02*
X137110523Y-67966045D01*
X137110523Y-67966045D02*
X137148618Y-68042236D01*
X137148618Y-68042236D02*
X137148618Y-68118426D01*
X137148618Y-68118426D02*
X137110523Y-68232712D01*
X137110523Y-68232712D02*
X136653380Y-68689855D01*
X136653380Y-68689855D02*
X137148618Y-68689855D01*
X137453380Y-67966045D02*
X137491476Y-67927950D01*
X137491476Y-67927950D02*
X137567666Y-67889855D01*
X137567666Y-67889855D02*
X137758142Y-67889855D01*
X137758142Y-67889855D02*
X137834333Y-67927950D01*
X137834333Y-67927950D02*
X137872428Y-67966045D01*
X137872428Y-67966045D02*
X137910523Y-68042236D01*
X137910523Y-68042236D02*
X137910523Y-68118426D01*
X137910523Y-68118426D02*
X137872428Y-68232712D01*
X137872428Y-68232712D02*
X137415285Y-68689855D01*
X137415285Y-68689855D02*
X137910523Y-68689855D01*
D10*
X160139142Y-64566819D02*
X159662952Y-64566819D01*
X159662952Y-64566819D02*
X159662952Y-63566819D01*
X160472476Y-64043009D02*
X160805809Y-64043009D01*
X160948666Y-64566819D02*
X160472476Y-64566819D01*
X160472476Y-64566819D02*
X160472476Y-63566819D01*
X160472476Y-63566819D02*
X160948666Y-63566819D01*
X161377238Y-64566819D02*
X161377238Y-63566819D01*
X161377238Y-63566819D02*
X161615333Y-63566819D01*
X161615333Y-63566819D02*
X161758190Y-63614438D01*
X161758190Y-63614438D02*
X161853428Y-63709676D01*
X161853428Y-63709676D02*
X161901047Y-63804914D01*
X161901047Y-63804914D02*
X161948666Y-63995390D01*
X161948666Y-63995390D02*
X161948666Y-64138247D01*
X161948666Y-64138247D02*
X161901047Y-64328723D01*
X161901047Y-64328723D02*
X161853428Y-64423961D01*
X161853428Y-64423961D02*
X161758190Y-64519200D01*
X161758190Y-64519200D02*
X161615333Y-64566819D01*
X161615333Y-64566819D02*
X161377238Y-64566819D01*
D12*
X159810571Y-68435855D02*
X159810571Y-67635855D01*
X159810571Y-67635855D02*
X160001047Y-67635855D01*
X160001047Y-67635855D02*
X160115333Y-67673950D01*
X160115333Y-67673950D02*
X160191523Y-67750140D01*
X160191523Y-67750140D02*
X160229618Y-67826331D01*
X160229618Y-67826331D02*
X160267714Y-67978712D01*
X160267714Y-67978712D02*
X160267714Y-68092998D01*
X160267714Y-68092998D02*
X160229618Y-68245379D01*
X160229618Y-68245379D02*
X160191523Y-68321569D01*
X160191523Y-68321569D02*
X160115333Y-68397760D01*
X160115333Y-68397760D02*
X160001047Y-68435855D01*
X160001047Y-68435855D02*
X159810571Y-68435855D01*
X161029618Y-68435855D02*
X160572475Y-68435855D01*
X160801047Y-68435855D02*
X160801047Y-67635855D01*
X160801047Y-67635855D02*
X160724856Y-67750140D01*
X160724856Y-67750140D02*
X160648666Y-67826331D01*
X160648666Y-67826331D02*
X160572475Y-67864426D01*
X161524857Y-67635855D02*
X161601047Y-67635855D01*
X161601047Y-67635855D02*
X161677238Y-67673950D01*
X161677238Y-67673950D02*
X161715333Y-67712045D01*
X161715333Y-67712045D02*
X161753428Y-67788236D01*
X161753428Y-67788236D02*
X161791523Y-67940617D01*
X161791523Y-67940617D02*
X161791523Y-68131093D01*
X161791523Y-68131093D02*
X161753428Y-68283474D01*
X161753428Y-68283474D02*
X161715333Y-68359664D01*
X161715333Y-68359664D02*
X161677238Y-68397760D01*
X161677238Y-68397760D02*
X161601047Y-68435855D01*
X161601047Y-68435855D02*
X161524857Y-68435855D01*
X161524857Y-68435855D02*
X161448666Y-68397760D01*
X161448666Y-68397760D02*
X161410571Y-68359664D01*
X161410571Y-68359664D02*
X161372476Y-68283474D01*
X161372476Y-68283474D02*
X161334380Y-68131093D01*
X161334380Y-68131093D02*
X161334380Y-67940617D01*
X161334380Y-67940617D02*
X161372476Y-67788236D01*
X161372476Y-67788236D02*
X161410571Y-67712045D01*
X161410571Y-67712045D02*
X161448666Y-67673950D01*
X161448666Y-67673950D02*
X161524857Y-67635855D01*
D10*
X197731142Y-63296819D02*
X197254952Y-63296819D01*
X197254952Y-63296819D02*
X197254952Y-62296819D01*
X198064476Y-62773009D02*
X198397809Y-62773009D01*
X198540666Y-63296819D02*
X198064476Y-63296819D01*
X198064476Y-63296819D02*
X198064476Y-62296819D01*
X198064476Y-62296819D02*
X198540666Y-62296819D01*
X198969238Y-63296819D02*
X198969238Y-62296819D01*
X198969238Y-62296819D02*
X199207333Y-62296819D01*
X199207333Y-62296819D02*
X199350190Y-62344438D01*
X199350190Y-62344438D02*
X199445428Y-62439676D01*
X199445428Y-62439676D02*
X199493047Y-62534914D01*
X199493047Y-62534914D02*
X199540666Y-62725390D01*
X199540666Y-62725390D02*
X199540666Y-62868247D01*
X199540666Y-62868247D02*
X199493047Y-63058723D01*
X199493047Y-63058723D02*
X199445428Y-63153961D01*
X199445428Y-63153961D02*
X199350190Y-63249200D01*
X199350190Y-63249200D02*
X199207333Y-63296819D01*
X199207333Y-63296819D02*
X198969238Y-63296819D01*
D12*
X197402571Y-67165855D02*
X197402571Y-66365855D01*
X197402571Y-66365855D02*
X197593047Y-66365855D01*
X197593047Y-66365855D02*
X197707333Y-66403950D01*
X197707333Y-66403950D02*
X197783523Y-66480140D01*
X197783523Y-66480140D02*
X197821618Y-66556331D01*
X197821618Y-66556331D02*
X197859714Y-66708712D01*
X197859714Y-66708712D02*
X197859714Y-66822998D01*
X197859714Y-66822998D02*
X197821618Y-66975379D01*
X197821618Y-66975379D02*
X197783523Y-67051569D01*
X197783523Y-67051569D02*
X197707333Y-67127760D01*
X197707333Y-67127760D02*
X197593047Y-67165855D01*
X197593047Y-67165855D02*
X197402571Y-67165855D01*
X198621618Y-67165855D02*
X198164475Y-67165855D01*
X198393047Y-67165855D02*
X198393047Y-66365855D01*
X198393047Y-66365855D02*
X198316856Y-66480140D01*
X198316856Y-66480140D02*
X198240666Y-66556331D01*
X198240666Y-66556331D02*
X198164475Y-66594426D01*
X199307333Y-66365855D02*
X199154952Y-66365855D01*
X199154952Y-66365855D02*
X199078761Y-66403950D01*
X199078761Y-66403950D02*
X199040666Y-66442045D01*
X199040666Y-66442045D02*
X198964476Y-66556331D01*
X198964476Y-66556331D02*
X198926380Y-66708712D01*
X198926380Y-66708712D02*
X198926380Y-67013474D01*
X198926380Y-67013474D02*
X198964476Y-67089664D01*
X198964476Y-67089664D02*
X199002571Y-67127760D01*
X199002571Y-67127760D02*
X199078761Y-67165855D01*
X199078761Y-67165855D02*
X199231142Y-67165855D01*
X199231142Y-67165855D02*
X199307333Y-67127760D01*
X199307333Y-67127760D02*
X199345428Y-67089664D01*
X199345428Y-67089664D02*
X199383523Y-67013474D01*
X199383523Y-67013474D02*
X199383523Y-66822998D01*
X199383523Y-66822998D02*
X199345428Y-66746807D01*
X199345428Y-66746807D02*
X199307333Y-66708712D01*
X199307333Y-66708712D02*
X199231142Y-66670617D01*
X199231142Y-66670617D02*
X199078761Y-66670617D01*
X199078761Y-66670617D02*
X199002571Y-66708712D01*
X199002571Y-66708712D02*
X198964476Y-66746807D01*
X198964476Y-66746807D02*
X198926380Y-66822998D01*
D10*
X197736142Y-72440819D02*
X197259952Y-72440819D01*
X197259952Y-72440819D02*
X197259952Y-71440819D01*
X198069476Y-71917009D02*
X198402809Y-71917009D01*
X198545666Y-72440819D02*
X198069476Y-72440819D01*
X198069476Y-72440819D02*
X198069476Y-71440819D01*
X198069476Y-71440819D02*
X198545666Y-71440819D01*
X198974238Y-72440819D02*
X198974238Y-71440819D01*
X198974238Y-71440819D02*
X199212333Y-71440819D01*
X199212333Y-71440819D02*
X199355190Y-71488438D01*
X199355190Y-71488438D02*
X199450428Y-71583676D01*
X199450428Y-71583676D02*
X199498047Y-71678914D01*
X199498047Y-71678914D02*
X199545666Y-71869390D01*
X199545666Y-71869390D02*
X199545666Y-72012247D01*
X199545666Y-72012247D02*
X199498047Y-72202723D01*
X199498047Y-72202723D02*
X199450428Y-72297961D01*
X199450428Y-72297961D02*
X199355190Y-72393200D01*
X199355190Y-72393200D02*
X199212333Y-72440819D01*
X199212333Y-72440819D02*
X198974238Y-72440819D01*
D12*
X197407571Y-76309855D02*
X197407571Y-75509855D01*
X197407571Y-75509855D02*
X197598047Y-75509855D01*
X197598047Y-75509855D02*
X197712333Y-75547950D01*
X197712333Y-75547950D02*
X197788523Y-75624140D01*
X197788523Y-75624140D02*
X197826618Y-75700331D01*
X197826618Y-75700331D02*
X197864714Y-75852712D01*
X197864714Y-75852712D02*
X197864714Y-75966998D01*
X197864714Y-75966998D02*
X197826618Y-76119379D01*
X197826618Y-76119379D02*
X197788523Y-76195569D01*
X197788523Y-76195569D02*
X197712333Y-76271760D01*
X197712333Y-76271760D02*
X197598047Y-76309855D01*
X197598047Y-76309855D02*
X197407571Y-76309855D01*
X198169475Y-75586045D02*
X198207571Y-75547950D01*
X198207571Y-75547950D02*
X198283761Y-75509855D01*
X198283761Y-75509855D02*
X198474237Y-75509855D01*
X198474237Y-75509855D02*
X198550428Y-75547950D01*
X198550428Y-75547950D02*
X198588523Y-75586045D01*
X198588523Y-75586045D02*
X198626618Y-75662236D01*
X198626618Y-75662236D02*
X198626618Y-75738426D01*
X198626618Y-75738426D02*
X198588523Y-75852712D01*
X198588523Y-75852712D02*
X198131380Y-76309855D01*
X198131380Y-76309855D02*
X198626618Y-76309855D01*
X199312333Y-75509855D02*
X199159952Y-75509855D01*
X199159952Y-75509855D02*
X199083761Y-75547950D01*
X199083761Y-75547950D02*
X199045666Y-75586045D01*
X199045666Y-75586045D02*
X198969476Y-75700331D01*
X198969476Y-75700331D02*
X198931380Y-75852712D01*
X198931380Y-75852712D02*
X198931380Y-76157474D01*
X198931380Y-76157474D02*
X198969476Y-76233664D01*
X198969476Y-76233664D02*
X199007571Y-76271760D01*
X199007571Y-76271760D02*
X199083761Y-76309855D01*
X199083761Y-76309855D02*
X199236142Y-76309855D01*
X199236142Y-76309855D02*
X199312333Y-76271760D01*
X199312333Y-76271760D02*
X199350428Y-76233664D01*
X199350428Y-76233664D02*
X199388523Y-76157474D01*
X199388523Y-76157474D02*
X199388523Y-75966998D01*
X199388523Y-75966998D02*
X199350428Y-75890807D01*
X199350428Y-75890807D02*
X199312333Y-75852712D01*
X199312333Y-75852712D02*
X199236142Y-75814617D01*
X199236142Y-75814617D02*
X199083761Y-75814617D01*
X199083761Y-75814617D02*
X199007571Y-75852712D01*
X199007571Y-75852712D02*
X198969476Y-75890807D01*
X198969476Y-75890807D02*
X198931380Y-75966998D01*
D10*
X129649142Y-80868819D02*
X129172952Y-80868819D01*
X129172952Y-80868819D02*
X129172952Y-79868819D01*
X129982476Y-80345009D02*
X130315809Y-80345009D01*
X130458666Y-80868819D02*
X129982476Y-80868819D01*
X129982476Y-80868819D02*
X129982476Y-79868819D01*
X129982476Y-79868819D02*
X130458666Y-79868819D01*
X130887238Y-80868819D02*
X130887238Y-79868819D01*
X130887238Y-79868819D02*
X131125333Y-79868819D01*
X131125333Y-79868819D02*
X131268190Y-79916438D01*
X131268190Y-79916438D02*
X131363428Y-80011676D01*
X131363428Y-80011676D02*
X131411047Y-80106914D01*
X131411047Y-80106914D02*
X131458666Y-80297390D01*
X131458666Y-80297390D02*
X131458666Y-80440247D01*
X131458666Y-80440247D02*
X131411047Y-80630723D01*
X131411047Y-80630723D02*
X131363428Y-80725961D01*
X131363428Y-80725961D02*
X131268190Y-80821200D01*
X131268190Y-80821200D02*
X131125333Y-80868819D01*
X131125333Y-80868819D02*
X130887238Y-80868819D01*
D12*
X129320571Y-76817855D02*
X129320571Y-76017855D01*
X129320571Y-76017855D02*
X129511047Y-76017855D01*
X129511047Y-76017855D02*
X129625333Y-76055950D01*
X129625333Y-76055950D02*
X129701523Y-76132140D01*
X129701523Y-76132140D02*
X129739618Y-76208331D01*
X129739618Y-76208331D02*
X129777714Y-76360712D01*
X129777714Y-76360712D02*
X129777714Y-76474998D01*
X129777714Y-76474998D02*
X129739618Y-76627379D01*
X129739618Y-76627379D02*
X129701523Y-76703569D01*
X129701523Y-76703569D02*
X129625333Y-76779760D01*
X129625333Y-76779760D02*
X129511047Y-76817855D01*
X129511047Y-76817855D02*
X129320571Y-76817855D01*
X130539618Y-76817855D02*
X130082475Y-76817855D01*
X130311047Y-76817855D02*
X130311047Y-76017855D01*
X130311047Y-76017855D02*
X130234856Y-76132140D01*
X130234856Y-76132140D02*
X130158666Y-76208331D01*
X130158666Y-76208331D02*
X130082475Y-76246426D01*
X130920571Y-76817855D02*
X131072952Y-76817855D01*
X131072952Y-76817855D02*
X131149142Y-76779760D01*
X131149142Y-76779760D02*
X131187238Y-76741664D01*
X131187238Y-76741664D02*
X131263428Y-76627379D01*
X131263428Y-76627379D02*
X131301523Y-76474998D01*
X131301523Y-76474998D02*
X131301523Y-76170236D01*
X131301523Y-76170236D02*
X131263428Y-76094045D01*
X131263428Y-76094045D02*
X131225333Y-76055950D01*
X131225333Y-76055950D02*
X131149142Y-76017855D01*
X131149142Y-76017855D02*
X130996761Y-76017855D01*
X130996761Y-76017855D02*
X130920571Y-76055950D01*
X130920571Y-76055950D02*
X130882476Y-76094045D01*
X130882476Y-76094045D02*
X130844380Y-76170236D01*
X130844380Y-76170236D02*
X130844380Y-76360712D01*
X130844380Y-76360712D02*
X130882476Y-76436902D01*
X130882476Y-76436902D02*
X130920571Y-76474998D01*
X130920571Y-76474998D02*
X130996761Y-76513093D01*
X130996761Y-76513093D02*
X131149142Y-76513093D01*
X131149142Y-76513093D02*
X131225333Y-76474998D01*
X131225333Y-76474998D02*
X131263428Y-76436902D01*
X131263428Y-76436902D02*
X131301523Y-76360712D01*
D10*
X178925142Y-84932819D02*
X178448952Y-84932819D01*
X178448952Y-84932819D02*
X178448952Y-83932819D01*
X179258476Y-84409009D02*
X179591809Y-84409009D01*
X179734666Y-84932819D02*
X179258476Y-84932819D01*
X179258476Y-84932819D02*
X179258476Y-83932819D01*
X179258476Y-83932819D02*
X179734666Y-83932819D01*
X180163238Y-84932819D02*
X180163238Y-83932819D01*
X180163238Y-83932819D02*
X180401333Y-83932819D01*
X180401333Y-83932819D02*
X180544190Y-83980438D01*
X180544190Y-83980438D02*
X180639428Y-84075676D01*
X180639428Y-84075676D02*
X180687047Y-84170914D01*
X180687047Y-84170914D02*
X180734666Y-84361390D01*
X180734666Y-84361390D02*
X180734666Y-84504247D01*
X180734666Y-84504247D02*
X180687047Y-84694723D01*
X180687047Y-84694723D02*
X180639428Y-84789961D01*
X180639428Y-84789961D02*
X180544190Y-84885200D01*
X180544190Y-84885200D02*
X180401333Y-84932819D01*
X180401333Y-84932819D02*
X180163238Y-84932819D01*
D12*
X178596571Y-80881855D02*
X178596571Y-80081855D01*
X178596571Y-80081855D02*
X178787047Y-80081855D01*
X178787047Y-80081855D02*
X178901333Y-80119950D01*
X178901333Y-80119950D02*
X178977523Y-80196140D01*
X178977523Y-80196140D02*
X179015618Y-80272331D01*
X179015618Y-80272331D02*
X179053714Y-80424712D01*
X179053714Y-80424712D02*
X179053714Y-80538998D01*
X179053714Y-80538998D02*
X179015618Y-80691379D01*
X179015618Y-80691379D02*
X178977523Y-80767569D01*
X178977523Y-80767569D02*
X178901333Y-80843760D01*
X178901333Y-80843760D02*
X178787047Y-80881855D01*
X178787047Y-80881855D02*
X178596571Y-80881855D01*
X179815618Y-80881855D02*
X179358475Y-80881855D01*
X179587047Y-80881855D02*
X179587047Y-80081855D01*
X179587047Y-80081855D02*
X179510856Y-80196140D01*
X179510856Y-80196140D02*
X179434666Y-80272331D01*
X179434666Y-80272331D02*
X179358475Y-80310426D01*
X180539428Y-80081855D02*
X180158476Y-80081855D01*
X180158476Y-80081855D02*
X180120380Y-80462807D01*
X180120380Y-80462807D02*
X180158476Y-80424712D01*
X180158476Y-80424712D02*
X180234666Y-80386617D01*
X180234666Y-80386617D02*
X180425142Y-80386617D01*
X180425142Y-80386617D02*
X180501333Y-80424712D01*
X180501333Y-80424712D02*
X180539428Y-80462807D01*
X180539428Y-80462807D02*
X180577523Y-80538998D01*
X180577523Y-80538998D02*
X180577523Y-80729474D01*
X180577523Y-80729474D02*
X180539428Y-80805664D01*
X180539428Y-80805664D02*
X180501333Y-80843760D01*
X180501333Y-80843760D02*
X180425142Y-80881855D01*
X180425142Y-80881855D02*
X180234666Y-80881855D01*
X180234666Y-80881855D02*
X180158476Y-80843760D01*
X180158476Y-80843760D02*
X180120380Y-80805664D01*
D10*
X105270142Y-80614819D02*
X104793952Y-80614819D01*
X104793952Y-80614819D02*
X104793952Y-79614819D01*
X105603476Y-80091009D02*
X105936809Y-80091009D01*
X106079666Y-80614819D02*
X105603476Y-80614819D01*
X105603476Y-80614819D02*
X105603476Y-79614819D01*
X105603476Y-79614819D02*
X106079666Y-79614819D01*
X106508238Y-80614819D02*
X106508238Y-79614819D01*
X106508238Y-79614819D02*
X106746333Y-79614819D01*
X106746333Y-79614819D02*
X106889190Y-79662438D01*
X106889190Y-79662438D02*
X106984428Y-79757676D01*
X106984428Y-79757676D02*
X107032047Y-79852914D01*
X107032047Y-79852914D02*
X107079666Y-80043390D01*
X107079666Y-80043390D02*
X107079666Y-80186247D01*
X107079666Y-80186247D02*
X107032047Y-80376723D01*
X107032047Y-80376723D02*
X106984428Y-80471961D01*
X106984428Y-80471961D02*
X106889190Y-80567200D01*
X106889190Y-80567200D02*
X106746333Y-80614819D01*
X106746333Y-80614819D02*
X106508238Y-80614819D01*
D12*
X105322524Y-76563855D02*
X105322524Y-75763855D01*
X105322524Y-75763855D02*
X105513000Y-75763855D01*
X105513000Y-75763855D02*
X105627286Y-75801950D01*
X105627286Y-75801950D02*
X105703476Y-75878140D01*
X105703476Y-75878140D02*
X105741571Y-75954331D01*
X105741571Y-75954331D02*
X105779667Y-76106712D01*
X105779667Y-76106712D02*
X105779667Y-76220998D01*
X105779667Y-76220998D02*
X105741571Y-76373379D01*
X105741571Y-76373379D02*
X105703476Y-76449569D01*
X105703476Y-76449569D02*
X105627286Y-76525760D01*
X105627286Y-76525760D02*
X105513000Y-76563855D01*
X105513000Y-76563855D02*
X105322524Y-76563855D01*
X106046333Y-75763855D02*
X106541571Y-75763855D01*
X106541571Y-75763855D02*
X106274905Y-76068617D01*
X106274905Y-76068617D02*
X106389190Y-76068617D01*
X106389190Y-76068617D02*
X106465381Y-76106712D01*
X106465381Y-76106712D02*
X106503476Y-76144807D01*
X106503476Y-76144807D02*
X106541571Y-76220998D01*
X106541571Y-76220998D02*
X106541571Y-76411474D01*
X106541571Y-76411474D02*
X106503476Y-76487664D01*
X106503476Y-76487664D02*
X106465381Y-76525760D01*
X106465381Y-76525760D02*
X106389190Y-76563855D01*
X106389190Y-76563855D02*
X106160619Y-76563855D01*
X106160619Y-76563855D02*
X106084428Y-76525760D01*
X106084428Y-76525760D02*
X106046333Y-76487664D01*
D10*
X67673142Y-72740819D02*
X67196952Y-72740819D01*
X67196952Y-72740819D02*
X67196952Y-71740819D01*
X68006476Y-72217009D02*
X68339809Y-72217009D01*
X68482666Y-72740819D02*
X68006476Y-72740819D01*
X68006476Y-72740819D02*
X68006476Y-71740819D01*
X68006476Y-71740819D02*
X68482666Y-71740819D01*
X68911238Y-72740819D02*
X68911238Y-71740819D01*
X68911238Y-71740819D02*
X69149333Y-71740819D01*
X69149333Y-71740819D02*
X69292190Y-71788438D01*
X69292190Y-71788438D02*
X69387428Y-71883676D01*
X69387428Y-71883676D02*
X69435047Y-71978914D01*
X69435047Y-71978914D02*
X69482666Y-72169390D01*
X69482666Y-72169390D02*
X69482666Y-72312247D01*
X69482666Y-72312247D02*
X69435047Y-72502723D01*
X69435047Y-72502723D02*
X69387428Y-72597961D01*
X69387428Y-72597961D02*
X69292190Y-72693200D01*
X69292190Y-72693200D02*
X69149333Y-72740819D01*
X69149333Y-72740819D02*
X68911238Y-72740819D01*
D12*
X67725524Y-68689855D02*
X67725524Y-67889855D01*
X67725524Y-67889855D02*
X67916000Y-67889855D01*
X67916000Y-67889855D02*
X68030286Y-67927950D01*
X68030286Y-67927950D02*
X68106476Y-68004140D01*
X68106476Y-68004140D02*
X68144571Y-68080331D01*
X68144571Y-68080331D02*
X68182667Y-68232712D01*
X68182667Y-68232712D02*
X68182667Y-68346998D01*
X68182667Y-68346998D02*
X68144571Y-68499379D01*
X68144571Y-68499379D02*
X68106476Y-68575569D01*
X68106476Y-68575569D02*
X68030286Y-68651760D01*
X68030286Y-68651760D02*
X67916000Y-68689855D01*
X67916000Y-68689855D02*
X67725524Y-68689855D01*
X68639809Y-68232712D02*
X68563619Y-68194617D01*
X68563619Y-68194617D02*
X68525524Y-68156521D01*
X68525524Y-68156521D02*
X68487428Y-68080331D01*
X68487428Y-68080331D02*
X68487428Y-68042236D01*
X68487428Y-68042236D02*
X68525524Y-67966045D01*
X68525524Y-67966045D02*
X68563619Y-67927950D01*
X68563619Y-67927950D02*
X68639809Y-67889855D01*
X68639809Y-67889855D02*
X68792190Y-67889855D01*
X68792190Y-67889855D02*
X68868381Y-67927950D01*
X68868381Y-67927950D02*
X68906476Y-67966045D01*
X68906476Y-67966045D02*
X68944571Y-68042236D01*
X68944571Y-68042236D02*
X68944571Y-68080331D01*
X68944571Y-68080331D02*
X68906476Y-68156521D01*
X68906476Y-68156521D02*
X68868381Y-68194617D01*
X68868381Y-68194617D02*
X68792190Y-68232712D01*
X68792190Y-68232712D02*
X68639809Y-68232712D01*
X68639809Y-68232712D02*
X68563619Y-68270807D01*
X68563619Y-68270807D02*
X68525524Y-68308902D01*
X68525524Y-68308902D02*
X68487428Y-68385093D01*
X68487428Y-68385093D02*
X68487428Y-68537474D01*
X68487428Y-68537474D02*
X68525524Y-68613664D01*
X68525524Y-68613664D02*
X68563619Y-68651760D01*
X68563619Y-68651760D02*
X68639809Y-68689855D01*
X68639809Y-68689855D02*
X68792190Y-68689855D01*
X68792190Y-68689855D02*
X68868381Y-68651760D01*
X68868381Y-68651760D02*
X68906476Y-68613664D01*
X68906476Y-68613664D02*
X68944571Y-68537474D01*
X68944571Y-68537474D02*
X68944571Y-68385093D01*
X68944571Y-68385093D02*
X68906476Y-68308902D01*
X68906476Y-68308902D02*
X68868381Y-68270807D01*
X68868381Y-68270807D02*
X68792190Y-68232712D01*
D10*
X105265142Y-72486819D02*
X104788952Y-72486819D01*
X104788952Y-72486819D02*
X104788952Y-71486819D01*
X105598476Y-71963009D02*
X105931809Y-71963009D01*
X106074666Y-72486819D02*
X105598476Y-72486819D01*
X105598476Y-72486819D02*
X105598476Y-71486819D01*
X105598476Y-71486819D02*
X106074666Y-71486819D01*
X106503238Y-72486819D02*
X106503238Y-71486819D01*
X106503238Y-71486819D02*
X106741333Y-71486819D01*
X106741333Y-71486819D02*
X106884190Y-71534438D01*
X106884190Y-71534438D02*
X106979428Y-71629676D01*
X106979428Y-71629676D02*
X107027047Y-71724914D01*
X107027047Y-71724914D02*
X107074666Y-71915390D01*
X107074666Y-71915390D02*
X107074666Y-72058247D01*
X107074666Y-72058247D02*
X107027047Y-72248723D01*
X107027047Y-72248723D02*
X106979428Y-72343961D01*
X106979428Y-72343961D02*
X106884190Y-72439200D01*
X106884190Y-72439200D02*
X106741333Y-72486819D01*
X106741333Y-72486819D02*
X106503238Y-72486819D01*
D12*
X105317524Y-68435855D02*
X105317524Y-67635855D01*
X105317524Y-67635855D02*
X105508000Y-67635855D01*
X105508000Y-67635855D02*
X105622286Y-67673950D01*
X105622286Y-67673950D02*
X105698476Y-67750140D01*
X105698476Y-67750140D02*
X105736571Y-67826331D01*
X105736571Y-67826331D02*
X105774667Y-67978712D01*
X105774667Y-67978712D02*
X105774667Y-68092998D01*
X105774667Y-68092998D02*
X105736571Y-68245379D01*
X105736571Y-68245379D02*
X105698476Y-68321569D01*
X105698476Y-68321569D02*
X105622286Y-68397760D01*
X105622286Y-68397760D02*
X105508000Y-68435855D01*
X105508000Y-68435855D02*
X105317524Y-68435855D01*
X106079428Y-67712045D02*
X106117524Y-67673950D01*
X106117524Y-67673950D02*
X106193714Y-67635855D01*
X106193714Y-67635855D02*
X106384190Y-67635855D01*
X106384190Y-67635855D02*
X106460381Y-67673950D01*
X106460381Y-67673950D02*
X106498476Y-67712045D01*
X106498476Y-67712045D02*
X106536571Y-67788236D01*
X106536571Y-67788236D02*
X106536571Y-67864426D01*
X106536571Y-67864426D02*
X106498476Y-67978712D01*
X106498476Y-67978712D02*
X106041333Y-68435855D01*
X106041333Y-68435855D02*
X106536571Y-68435855D01*
D10*
X86474142Y-60248819D02*
X85997952Y-60248819D01*
X85997952Y-60248819D02*
X85997952Y-59248819D01*
X86807476Y-59725009D02*
X87140809Y-59725009D01*
X87283666Y-60248819D02*
X86807476Y-60248819D01*
X86807476Y-60248819D02*
X86807476Y-59248819D01*
X86807476Y-59248819D02*
X87283666Y-59248819D01*
X87712238Y-60248819D02*
X87712238Y-59248819D01*
X87712238Y-59248819D02*
X87950333Y-59248819D01*
X87950333Y-59248819D02*
X88093190Y-59296438D01*
X88093190Y-59296438D02*
X88188428Y-59391676D01*
X88188428Y-59391676D02*
X88236047Y-59486914D01*
X88236047Y-59486914D02*
X88283666Y-59677390D01*
X88283666Y-59677390D02*
X88283666Y-59820247D01*
X88283666Y-59820247D02*
X88236047Y-60010723D01*
X88236047Y-60010723D02*
X88188428Y-60105961D01*
X88188428Y-60105961D02*
X88093190Y-60201200D01*
X88093190Y-60201200D02*
X87950333Y-60248819D01*
X87950333Y-60248819D02*
X87712238Y-60248819D01*
D12*
X86526524Y-64117855D02*
X86526524Y-63317855D01*
X86526524Y-63317855D02*
X86717000Y-63317855D01*
X86717000Y-63317855D02*
X86831286Y-63355950D01*
X86831286Y-63355950D02*
X86907476Y-63432140D01*
X86907476Y-63432140D02*
X86945571Y-63508331D01*
X86945571Y-63508331D02*
X86983667Y-63660712D01*
X86983667Y-63660712D02*
X86983667Y-63774998D01*
X86983667Y-63774998D02*
X86945571Y-63927379D01*
X86945571Y-63927379D02*
X86907476Y-64003569D01*
X86907476Y-64003569D02*
X86831286Y-64079760D01*
X86831286Y-64079760D02*
X86717000Y-64117855D01*
X86717000Y-64117855D02*
X86526524Y-64117855D01*
X87707476Y-63317855D02*
X87326524Y-63317855D01*
X87326524Y-63317855D02*
X87288428Y-63698807D01*
X87288428Y-63698807D02*
X87326524Y-63660712D01*
X87326524Y-63660712D02*
X87402714Y-63622617D01*
X87402714Y-63622617D02*
X87593190Y-63622617D01*
X87593190Y-63622617D02*
X87669381Y-63660712D01*
X87669381Y-63660712D02*
X87707476Y-63698807D01*
X87707476Y-63698807D02*
X87745571Y-63774998D01*
X87745571Y-63774998D02*
X87745571Y-63965474D01*
X87745571Y-63965474D02*
X87707476Y-64041664D01*
X87707476Y-64041664D02*
X87669381Y-64079760D01*
X87669381Y-64079760D02*
X87593190Y-64117855D01*
X87593190Y-64117855D02*
X87402714Y-64117855D01*
X87402714Y-64117855D02*
X87326524Y-64079760D01*
X87326524Y-64079760D02*
X87288428Y-64041664D01*
D11*
%TO.C,D1*%
X103408000Y-58474306D02*
X103408000Y-61413694D01*
X103408000Y-58474306D02*
G75*
G02*
X103408046Y-61413772I2500000J-1469694D01*
G01*
X108408000Y-59944000D02*
G75*
G02*
X103408000Y-59944000I-2500000J0D01*
G01*
X103408000Y-59944000D02*
G75*
G02*
X108408000Y-59944000I2500000J0D01*
G01*
%TO.C,D11*%
X163282000Y-77669694D02*
X163282000Y-74730306D01*
X163282000Y-77669694D02*
G75*
G02*
X163281954Y-74730228I-2500000J1469694D01*
G01*
X163282000Y-76200000D02*
G75*
G02*
X158282000Y-76200000I-2500000J0D01*
G01*
X158282000Y-76200000D02*
G75*
G02*
X163282000Y-76200000I2500000J0D01*
G01*
%TO.C,D23*%
X139401000Y-77923694D02*
X139401000Y-74984306D01*
X139401000Y-77923694D02*
G75*
G02*
X139400954Y-74984228I-2500000J1469694D01*
G01*
X139401000Y-76454000D02*
G75*
G02*
X134401000Y-76454000I-2500000J0D01*
G01*
X134401000Y-76454000D02*
G75*
G02*
X139401000Y-76454000I2500000J0D01*
G01*
%TO.C,D9*%
X163282000Y-61413694D02*
X163282000Y-58474306D01*
X163282000Y-61413694D02*
G75*
G02*
X163281954Y-58474228I-2500000J1469694D01*
G01*
X163282000Y-59944000D02*
G75*
G02*
X158282000Y-59944000I-2500000J0D01*
G01*
X158282000Y-59944000D02*
G75*
G02*
X163282000Y-59944000I2500000J0D01*
G01*
%TO.C,D4*%
X103413000Y-82858306D02*
X103413000Y-85797694D01*
X103413000Y-82858306D02*
G75*
G02*
X103413046Y-85797772I2500000J-1469694D01*
G01*
X108413000Y-84328000D02*
G75*
G02*
X103413000Y-84328000I-2500000J0D01*
G01*
X103413000Y-84328000D02*
G75*
G02*
X108413000Y-84328000I2500000J0D01*
G01*
%TO.C,D18*%
X127792000Y-66856306D02*
X127792000Y-69795694D01*
X127792000Y-66856306D02*
G75*
G02*
X127792046Y-69795772I2500000J-1469694D01*
G01*
X132792000Y-68326000D02*
G75*
G02*
X127792000Y-68326000I-2500000J0D01*
G01*
X127792000Y-68326000D02*
G75*
G02*
X132792000Y-68326000I2500000J0D01*
G01*
%TO.C,D25*%
X65816000Y-76000306D02*
X65816000Y-78939694D01*
X65816000Y-76000306D02*
G75*
G02*
X65816046Y-78939772I2500000J-1469694D01*
G01*
X70816000Y-77470000D02*
G75*
G02*
X65816000Y-77470000I-2500000J0D01*
G01*
X65816000Y-77470000D02*
G75*
G02*
X70816000Y-77470000I2500000J0D01*
G01*
%TO.C,D14*%
X177073000Y-69904306D02*
X177073000Y-72843694D01*
X177073000Y-69904306D02*
G75*
G02*
X177073046Y-72843772I2500000J-1469694D01*
G01*
X182073000Y-71374000D02*
G75*
G02*
X177073000Y-71374000I-2500000J0D01*
G01*
X177073000Y-71374000D02*
G75*
G02*
X182073000Y-71374000I2500000J0D01*
G01*
%TO.C,D12*%
X163282000Y-85797694D02*
X163282000Y-82858306D01*
X163282000Y-85797694D02*
G75*
G02*
X163281954Y-82858228I-2500000J1469694D01*
G01*
X163282000Y-84328000D02*
G75*
G02*
X158282000Y-84328000I-2500000J0D01*
G01*
X158282000Y-84328000D02*
G75*
G02*
X163282000Y-84328000I2500000J0D01*
G01*
%TO.C,D24*%
X139401000Y-86051694D02*
X139401000Y-83112306D01*
X139401000Y-86051694D02*
G75*
G02*
X139400954Y-83112228I-2500000J1469694D01*
G01*
X139401000Y-84582000D02*
G75*
G02*
X134401000Y-84582000I-2500000J0D01*
G01*
X134401000Y-84582000D02*
G75*
G02*
X139401000Y-84582000I2500000J0D01*
G01*
%TO.C,D20*%
X127787000Y-83112306D02*
X127787000Y-86051694D01*
X127787000Y-83112306D02*
G75*
G02*
X127787046Y-86051772I2500000J-1469694D01*
G01*
X132787000Y-84582000D02*
G75*
G02*
X127787000Y-84582000I-2500000J0D01*
G01*
X127787000Y-84582000D02*
G75*
G02*
X132787000Y-84582000I2500000J0D01*
G01*
%TO.C,D7*%
X89617000Y-83511694D02*
X89617000Y-80572306D01*
X89617000Y-83511694D02*
G75*
G02*
X89616954Y-80572228I-2500000J1469694D01*
G01*
X89617000Y-82042000D02*
G75*
G02*
X84617000Y-82042000I-2500000J0D01*
G01*
X84617000Y-82042000D02*
G75*
G02*
X89617000Y-82042000I2500000J0D01*
G01*
%TO.C,D6*%
X89617000Y-74367694D02*
X89617000Y-71428306D01*
X89617000Y-74367694D02*
G75*
G02*
X89616954Y-71428228I-2500000J1469694D01*
G01*
X89617000Y-72898000D02*
G75*
G02*
X84617000Y-72898000I-2500000J0D01*
G01*
X84617000Y-72898000D02*
G75*
G02*
X89617000Y-72898000I2500000J0D01*
G01*
%TO.C,D17*%
X127792000Y-58728306D02*
X127792000Y-61667694D01*
X127792000Y-58728306D02*
G75*
G02*
X127792046Y-61667772I2500000J-1469694D01*
G01*
X132792000Y-60198000D02*
G75*
G02*
X127792000Y-60198000I-2500000J0D01*
G01*
X127792000Y-60198000D02*
G75*
G02*
X132792000Y-60198000I2500000J0D01*
G01*
%TO.C,D21*%
X139401000Y-61667694D02*
X139401000Y-58728306D01*
X139401000Y-61667694D02*
G75*
G02*
X139400954Y-58728228I-2500000J1469694D01*
G01*
X139401000Y-60198000D02*
G75*
G02*
X134401000Y-60198000I-2500000J0D01*
G01*
X134401000Y-60198000D02*
G75*
G02*
X139401000Y-60198000I2500000J0D01*
G01*
%TO.C,D13*%
X177068000Y-60760306D02*
X177068000Y-63699694D01*
X177068000Y-60760306D02*
G75*
G02*
X177068046Y-63699772I2500000J-1469694D01*
G01*
X182068000Y-62230000D02*
G75*
G02*
X177068000Y-62230000I-2500000J0D01*
G01*
X177068000Y-62230000D02*
G75*
G02*
X182068000Y-62230000I2500000J0D01*
G01*
%TO.C,D22*%
X139401000Y-69795694D02*
X139401000Y-66856306D01*
X139401000Y-69795694D02*
G75*
G02*
X139400954Y-66856228I-2500000J1469694D01*
G01*
X139401000Y-68326000D02*
G75*
G02*
X134401000Y-68326000I-2500000J0D01*
G01*
X134401000Y-68326000D02*
G75*
G02*
X139401000Y-68326000I2500000J0D01*
G01*
%TO.C,D10*%
X163282000Y-69541694D02*
X163282000Y-66602306D01*
X163282000Y-69541694D02*
G75*
G02*
X163281954Y-66602228I-2500000J1469694D01*
G01*
X163282000Y-68072000D02*
G75*
G02*
X158282000Y-68072000I-2500000J0D01*
G01*
X158282000Y-68072000D02*
G75*
G02*
X163282000Y-68072000I2500000J0D01*
G01*
%TO.C,D16*%
X200874000Y-68271694D02*
X200874000Y-65332306D01*
X200874000Y-68271694D02*
G75*
G02*
X200873954Y-65332228I-2500000J1469694D01*
G01*
X200874000Y-66802000D02*
G75*
G02*
X195874000Y-66802000I-2500000J0D01*
G01*
X195874000Y-66802000D02*
G75*
G02*
X200874000Y-66802000I2500000J0D01*
G01*
%TO.C,D26*%
X200879000Y-77415694D02*
X200879000Y-74476306D01*
X200879000Y-77415694D02*
G75*
G02*
X200878954Y-74476228I-2500000J1469694D01*
G01*
X200879000Y-75946000D02*
G75*
G02*
X195879000Y-75946000I-2500000J0D01*
G01*
X195879000Y-75946000D02*
G75*
G02*
X200879000Y-75946000I2500000J0D01*
G01*
%TO.C,D19*%
X127792000Y-74984306D02*
X127792000Y-77923694D01*
X127792000Y-74984306D02*
G75*
G02*
X127792046Y-77923772I2500000J-1469694D01*
G01*
X132792000Y-76454000D02*
G75*
G02*
X127792000Y-76454000I-2500000J0D01*
G01*
X127792000Y-76454000D02*
G75*
G02*
X132792000Y-76454000I2500000J0D01*
G01*
%TO.C,D15*%
X177068000Y-79048306D02*
X177068000Y-81987694D01*
X177068000Y-79048306D02*
G75*
G02*
X177068046Y-81987772I2500000J-1469694D01*
G01*
X182068000Y-80518000D02*
G75*
G02*
X177068000Y-80518000I-2500000J0D01*
G01*
X177068000Y-80518000D02*
G75*
G02*
X182068000Y-80518000I2500000J0D01*
G01*
%TO.C,D3*%
X103413000Y-74730306D02*
X103413000Y-77669694D01*
X103413000Y-74730306D02*
G75*
G02*
X103413046Y-77669772I2500000J-1469694D01*
G01*
X108413000Y-76200000D02*
G75*
G02*
X103413000Y-76200000I-2500000J0D01*
G01*
X103413000Y-76200000D02*
G75*
G02*
X108413000Y-76200000I2500000J0D01*
G01*
%TO.C,D8*%
X65816000Y-66856306D02*
X65816000Y-69795694D01*
X65816000Y-66856306D02*
G75*
G02*
X65816046Y-69795772I2500000J-1469694D01*
G01*
X70816000Y-68326000D02*
G75*
G02*
X65816000Y-68326000I-2500000J0D01*
G01*
X65816000Y-68326000D02*
G75*
G02*
X70816000Y-68326000I2500000J0D01*
G01*
%TO.C,D2*%
X103408000Y-66602306D02*
X103408000Y-69541694D01*
X103408000Y-66602306D02*
G75*
G02*
X103408046Y-69541772I2500000J-1469694D01*
G01*
X108408000Y-68072000D02*
G75*
G02*
X103408000Y-68072000I-2500000J0D01*
G01*
X103408000Y-68072000D02*
G75*
G02*
X108408000Y-68072000I2500000J0D01*
G01*
%TO.C,D5*%
X89617000Y-65223694D02*
X89617000Y-62284306D01*
X89617000Y-65223694D02*
G75*
G02*
X89616954Y-62284228I-2500000J1469694D01*
G01*
X89617000Y-63754000D02*
G75*
G02*
X84617000Y-63754000I-2500000J0D01*
G01*
X84617000Y-63754000D02*
G75*
G02*
X89617000Y-63754000I2500000J0D01*
G01*
%TD*%
M02*
