<?xml version="1.0" standalone="no"?>
 <!DOCTYPE svg PUBLIC "-//W3C//DTD SVG 1.1//EN" 
 "http://www.w3.org/Graphics/SVG/1.1/DTD/svg11.dtd"> 
<svg
  xmlns:svg="http://www.w3.org/2000/svg"
  xmlns="http://www.w3.org/2000/svg"
  xmlns:xlink="http://www.w3.org/1999/xlink"
  version="1.1"
  width="67.0306mm" height="59.2074mm" viewBox="0.0000 0.0000 67.0306 59.2074">
<title>SVG Image created as rear_lights_unit_control_box-brd.svg date 2025/03/31 22:19:30 </title>
  <desc>Image generated by PCBNEW </desc>
<g style="fill:#000000; fill-opacity:1.0000;stroke:#000000; stroke-opacity:1.0000;
stroke-linecap:round; stroke-linejoin:round;"
 transform="translate(0 0) scale(1 1)">
</g>
<g style="fill:none; 
stroke:#840084; stroke-width:0.1000; stroke-opacity:1; 
stroke-linecap:round; stroke-linejoin:round;">
<text x="41.7583" y="52.8246"
transform="scale(-1 1) translate(-83.516666 0)"
textLength="17.7667" font-size="1.3333" lengthAdjust="spacingAndGlyphs"
text-anchor="start" opacity="0" stroke-opacity="0">FarrhadTech Rear Light</text>
<g class="stroked-text"><desc>FarrhadTech Rear Light</desc>
<path d="M41.1211 52.1732
L41.4544 52.1732
" />
<path d="M41.4544 52.6970
L41.4544 51.6970
" />
<path d="M41.4544 51.6970
L40.9783 51.6970
" />
<path d="M40.1687 52.6970
L40.1687 52.1732
" />
<path d="M40.1687 52.1732
L40.2164 52.0779
" />
<path d="M40.2164 52.0779
L40.3116 52.0303
" />
<path d="M40.3116 52.0303
L40.5021 52.0303
" />
<path d="M40.5021 52.0303
L40.5973 52.0779
" />
<path d="M40.1687 52.6494
L40.2640 52.6970
" />
<path d="M40.2640 52.6970
L40.5021 52.6970
" />
<path d="M40.5021 52.6970
L40.5973 52.6494
" />
<path d="M40.5973 52.6494
L40.6449 52.5541
" />
<path d="M40.6449 52.5541
L40.6449 52.4589
" />
<path d="M40.6449 52.4589
L40.5973 52.3636
" />
<path d="M40.5973 52.3636
L40.5021 52.3160
" />
<path d="M40.5021 52.3160
L40.2640 52.3160
" />
<path d="M40.2640 52.3160
L40.1687 52.2684
" />
<path d="M39.6925 52.6970
L39.6925 52.0303
" />
<path d="M39.6925 52.2208
L39.6449 52.1255
" />
<path d="M39.6449 52.1255
L39.5973 52.0779
" />
<path d="M39.5973 52.0779
L39.5021 52.0303
" />
<path d="M39.5021 52.0303
L39.4068 52.0303
" />
<path d="M39.0735 52.6970
L39.0735 52.0303
" />
<path d="M39.0735 52.2208
L39.0259 52.1255
" />
<path d="M39.0259 52.1255
L38.9783 52.0779
" />
<path d="M38.9783 52.0779
L38.8830 52.0303
" />
<path d="M38.8830 52.0303
L38.7878 52.0303
" />
<path d="M38.4544 52.6970
L38.4544 51.6970
" />
<path d="M38.0259 52.6970
L38.0259 52.1732
" />
<path d="M38.0259 52.1732
L38.0735 52.0779
" />
<path d="M38.0735 52.0779
L38.1687 52.0303
" />
<path d="M38.1687 52.0303
L38.3116 52.0303
" />
<path d="M38.3116 52.0303
L38.4068 52.0779
" />
<path d="M38.4068 52.0779
L38.4544 52.1255
" />
<path d="M37.1211 52.6970
L37.1211 52.1732
" />
<path d="M37.1211 52.1732
L37.1687 52.0779
" />
<path d="M37.1687 52.0779
L37.2640 52.0303
" />
<path d="M37.2640 52.0303
L37.4544 52.0303
" />
<path d="M37.4544 52.0303
L37.5497 52.0779
" />
<path d="M37.1211 52.6494
L37.2164 52.6970
" />
<path d="M37.2164 52.6970
L37.4544 52.6970
" />
<path d="M37.4544 52.6970
L37.5497 52.6494
" />
<path d="M37.5497 52.6494
L37.5973 52.5541
" />
<path d="M37.5973 52.5541
L37.5973 52.4589
" />
<path d="M37.5973 52.4589
L37.5497 52.3636
" />
<path d="M37.5497 52.3636
L37.4544 52.3160
" />
<path d="M37.4544 52.3160
L37.2164 52.3160
" />
<path d="M37.2164 52.3160
L37.1211 52.2684
" />
<path d="M36.2164 52.6970
L36.2164 51.6970
" />
<path d="M36.2164 52.6494
L36.3116 52.6970
" />
<path d="M36.3116 52.6970
L36.5021 52.6970
" />
<path d="M36.5021 52.6970
L36.5973 52.6494
" />
<path d="M36.5973 52.6494
L36.6449 52.6017
" />
<path d="M36.6449 52.6017
L36.6925 52.5065
" />
<path d="M36.6925 52.5065
L36.6925 52.2208
" />
<path d="M36.6925 52.2208
L36.6449 52.1255
" />
<path d="M36.6449 52.1255
L36.5973 52.0779
" />
<path d="M36.5973 52.0779
L36.5021 52.0303
" />
<path d="M36.5021 52.0303
L36.3116 52.0303
" />
<path d="M36.3116 52.0303
L36.2164 52.0779
" />
<path d="M35.8830 51.6970
L35.3116 51.6970
" />
<path d="M35.5973 52.6970
L35.5973 51.6970
" />
<path d="M34.5973 52.6494
L34.6925 52.6970
" />
<path d="M34.6925 52.6970
L34.8830 52.6970
" />
<path d="M34.8830 52.6970
L34.9783 52.6494
" />
<path d="M34.9783 52.6494
L35.0259 52.5541
" />
<path d="M35.0259 52.5541
L35.0259 52.1732
" />
<path d="M35.0259 52.1732
L34.9783 52.0779
" />
<path d="M34.9783 52.0779
L34.8830 52.0303
" />
<path d="M34.8830 52.0303
L34.6925 52.0303
" />
<path d="M34.6925 52.0303
L34.5973 52.0779
" />
<path d="M34.5973 52.0779
L34.5497 52.1732
" />
<path d="M34.5497 52.1732
L34.5497 52.2684
" />
<path d="M34.5497 52.2684
L35.0259 52.3636
" />
<path d="M33.6925 52.6494
L33.7878 52.6970
" />
<path d="M33.7878 52.6970
L33.9783 52.6970
" />
<path d="M33.9783 52.6970
L34.0735 52.6494
" />
<path d="M34.0735 52.6494
L34.1211 52.6017
" />
<path d="M34.1211 52.6017
L34.1687 52.5065
" />
<path d="M34.1687 52.5065
L34.1687 52.2208
" />
<path d="M34.1687 52.2208
L34.1211 52.1255
" />
<path d="M34.1211 52.1255
L34.0735 52.0779
" />
<path d="M34.0735 52.0779
L33.9783 52.0303
" />
<path d="M33.9783 52.0303
L33.7878 52.0303
" />
<path d="M33.7878 52.0303
L33.6925 52.0779
" />
<path d="M33.2640 52.6970
L33.2640 51.6970
" />
<path d="M32.8354 52.6970
L32.8354 52.1732
" />
<path d="M32.8354 52.1732
L32.8830 52.0779
" />
<path d="M32.8830 52.0779
L32.9783 52.0303
" />
<path d="M32.9783 52.0303
L33.1211 52.0303
" />
<path d="M33.1211 52.0303
L33.2164 52.0779
" />
<path d="M33.2164 52.0779
L33.2640 52.1255
" />
<path d="M31.0259 52.6970
L31.3592 52.2208
" />
<path d="M31.5973 52.6970
L31.5973 51.6970
" />
<path d="M31.5973 51.6970
L31.2164 51.6970
" />
<path d="M31.2164 51.6970
L31.1211 51.7446
" />
<path d="M31.1211 51.7446
L31.0735 51.7922
" />
<path d="M31.0735 51.7922
L31.0259 51.8875
" />
<path d="M31.0259 51.8875
L31.0259 52.0303
" />
<path d="M31.0259 52.0303
L31.0735 52.1255
" />
<path d="M31.0735 52.1255
L31.1211 52.1732
" />
<path d="M31.1211 52.1732
L31.2164 52.2208
" />
<path d="M31.2164 52.2208
L31.5973 52.2208
" />
<path d="M30.2164 52.6494
L30.3116 52.6970
" />
<path d="M30.3116 52.6970
L30.5021 52.6970
" />
<path d="M30.5021 52.6970
L30.5973 52.6494
" />
<path d="M30.5973 52.6494
L30.6449 52.5541
" />
<path d="M30.6449 52.5541
L30.6449 52.1732
" />
<path d="M30.6449 52.1732
L30.5973 52.0779
" />
<path d="M30.5973 52.0779
L30.5021 52.0303
" />
<path d="M30.5021 52.0303
L30.3116 52.0303
" />
<path d="M30.3116 52.0303
L30.2164 52.0779
" />
<path d="M30.2164 52.0779
L30.1687 52.1732
" />
<path d="M30.1687 52.1732
L30.1687 52.2684
" />
<path d="M30.1687 52.2684
L30.6449 52.3636
" />
<path d="M29.3116 52.6970
L29.3116 52.1732
" />
<path d="M29.3116 52.1732
L29.3592 52.0779
" />
<path d="M29.3592 52.0779
L29.4544 52.0303
" />
<path d="M29.4544 52.0303
L29.6449 52.0303
" />
<path d="M29.6449 52.0303
L29.7402 52.0779
" />
<path d="M29.3116 52.6494
L29.4068 52.6970
" />
<path d="M29.4068 52.6970
L29.6449 52.6970
" />
<path d="M29.6449 52.6970
L29.7402 52.6494
" />
<path d="M29.7402 52.6494
L29.7878 52.5541
" />
<path d="M29.7878 52.5541
L29.7878 52.4589
" />
<path d="M29.7878 52.4589
L29.7402 52.3636
" />
<path d="M29.7402 52.3636
L29.6449 52.3160
" />
<path d="M29.6449 52.3160
L29.4068 52.3160
" />
<path d="M29.4068 52.3160
L29.3116 52.2684
" />
<path d="M28.8354 52.6970
L28.8354 52.0303
" />
<path d="M28.8354 52.2208
L28.7878 52.1255
" />
<path d="M28.7878 52.1255
L28.7402 52.0779
" />
<path d="M28.7402 52.0779
L28.6449 52.0303
" />
<path d="M28.6449 52.0303
L28.5497 52.0303
" />
<path d="M26.9783 52.6970
L27.4544 52.6970
" />
<path d="M27.4544 52.6970
L27.4544 51.6970
" />
<path d="M26.6449 52.6970
L26.6449 52.0303
" />
<path d="M26.6449 51.6970
L26.6925 51.7446
" />
<path d="M26.6925 51.7446
L26.6449 51.7922
" />
<path d="M26.6449 51.7922
L26.5973 51.7446
" />
<path d="M26.5973 51.7446
L26.6449 51.6970
" />
<path d="M26.6449 51.6970
L26.6449 51.7922
" />
<path d="M25.7402 52.0303
L25.7402 52.8398
" />
<path d="M25.7402 52.8398
L25.7878 52.9351
" />
<path d="M25.7878 52.9351
L25.8354 52.9827
" />
<path d="M25.8354 52.9827
L25.9306 53.0303
" />
<path d="M25.9306 53.0303
L26.0735 53.0303
" />
<path d="M26.0735 53.0303
L26.1687 52.9827
" />
<path d="M25.7402 52.6494
L25.8354 52.6970
" />
<path d="M25.8354 52.6970
L26.0259 52.6970
" />
<path d="M26.0259 52.6970
L26.1211 52.6494
" />
<path d="M26.1211 52.6494
L26.1687 52.6017
" />
<path d="M26.1687 52.6017
L26.2163 52.5065
" />
<path d="M26.2163 52.5065
L26.2163 52.2208
" />
<path d="M26.2163 52.2208
L26.1687 52.1255
" />
<path d="M26.1687 52.1255
L26.1211 52.0779
" />
<path d="M26.1211 52.0779
L26.0259 52.0303
" />
<path d="M26.0259 52.0303
L25.8354 52.0303
" />
<path d="M25.8354 52.0303
L25.7402 52.0779
" />
<path d="M25.2640 52.6970
L25.2640 51.6970
" />
<path d="M24.8354 52.6970
L24.8354 52.1732
" />
<path d="M24.8354 52.1732
L24.8830 52.0779
" />
<path d="M24.8830 52.0779
L24.9783 52.0303
" />
<path d="M24.9783 52.0303
L25.1211 52.0303
" />
<path d="M25.1211 52.0303
L25.2163 52.0779
" />
<path d="M25.2163 52.0779
L25.2640 52.1255
" />
<path d="M24.5021 52.0303
L24.1211 52.0303
" />
<path d="M24.3592 51.6970
L24.3592 52.5541
" />
<path d="M24.3592 52.5541
L24.3116 52.6494
" />
<path d="M24.3116 52.6494
L24.2163 52.6970
" />
<path d="M24.2163 52.6970
L24.1211 52.6970
" />
</g><text x="41.7583" y="54.4345"
transform="scale(-1 1) translate(-83.516666 0)"
textLength="15.2429" font-size="1.3333" lengthAdjust="spacingAndGlyphs"
text-anchor="start" opacity="0" stroke-opacity="0">Unit Control Box v0</text>
<g class="stroked-text"><desc>Unit Control Box v0</desc>
<path d="M41.4544 53.3069
L41.4544 54.1164
" />
<path d="M41.4544 54.1164
L41.4068 54.2117
" />
<path d="M41.4068 54.2117
L41.3592 54.2593
" />
<path d="M41.3592 54.2593
L41.2640 54.3069
" />
<path d="M41.2640 54.3069
L41.0735 54.3069
" />
<path d="M41.0735 54.3069
L40.9783 54.2593
" />
<path d="M40.9783 54.2593
L40.9306 54.2117
" />
<path d="M40.9306 54.2117
L40.8830 54.1164
" />
<path d="M40.8830 54.1164
L40.8830 53.3069
" />
<path d="M40.4068 53.6403
L40.4068 54.3069
" />
<path d="M40.4068 53.7355
L40.3592 53.6879
" />
<path d="M40.3592 53.6879
L40.2640 53.6403
" />
<path d="M40.2640 53.6403
L40.1211 53.6403
" />
<path d="M40.1211 53.6403
L40.0259 53.6879
" />
<path d="M40.0259 53.6879
L39.9783 53.7831
" />
<path d="M39.9783 53.7831
L39.9783 54.3069
" />
<path d="M39.5021 54.3069
L39.5021 53.6403
" />
<path d="M39.5021 53.3069
L39.5497 53.3545
" />
<path d="M39.5497 53.3545
L39.5021 53.4022
" />
<path d="M39.5021 53.4022
L39.4544 53.3545
" />
<path d="M39.4544 53.3545
L39.5021 53.3069
" />
<path d="M39.5021 53.3069
L39.5021 53.4022
" />
<path d="M39.1687 53.6403
L38.7878 53.6403
" />
<path d="M39.0259 53.3069
L39.0259 54.1641
" />
<path d="M39.0259 54.1641
L38.9783 54.2593
" />
<path d="M38.9783 54.2593
L38.8830 54.3069
" />
<path d="M38.8830 54.3069
L38.7878 54.3069
" />
<path d="M37.1211 54.2117
L37.1687 54.2593
" />
<path d="M37.1687 54.2593
L37.3116 54.3069
" />
<path d="M37.3116 54.3069
L37.4068 54.3069
" />
<path d="M37.4068 54.3069
L37.5497 54.2593
" />
<path d="M37.5497 54.2593
L37.6449 54.1641
" />
<path d="M37.6449 54.1641
L37.6925 54.0688
" />
<path d="M37.6925 54.0688
L37.7402 53.8783
" />
<path d="M37.7402 53.8783
L37.7402 53.7355
" />
<path d="M37.7402 53.7355
L37.6925 53.5450
" />
<path d="M37.6925 53.5450
L37.6449 53.4498
" />
<path d="M37.6449 53.4498
L37.5497 53.3545
" />
<path d="M37.5497 53.3545
L37.4068 53.3069
" />
<path d="M37.4068 53.3069
L37.3116 53.3069
" />
<path d="M37.3116 53.3069
L37.1687 53.3545
" />
<path d="M37.1687 53.3545
L37.1211 53.4022
" />
<path d="M36.5497 54.3069
L36.6449 54.2593
" />
<path d="M36.6449 54.2593
L36.6925 54.2117
" />
<path d="M36.6925 54.2117
L36.7402 54.1164
" />
<path d="M36.7402 54.1164
L36.7402 53.8307
" />
<path d="M36.7402 53.8307
L36.6925 53.7355
" />
<path d="M36.6925 53.7355
L36.6449 53.6879
" />
<path d="M36.6449 53.6879
L36.5497 53.6403
" />
<path d="M36.5497 53.6403
L36.4068 53.6403
" />
<path d="M36.4068 53.6403
L36.3116 53.6879
" />
<path d="M36.3116 53.6879
L36.2640 53.7355
" />
<path d="M36.2640 53.7355
L36.2164 53.8307
" />
<path d="M36.2164 53.8307
L36.2164 54.1164
" />
<path d="M36.2164 54.1164
L36.2640 54.2117
" />
<path d="M36.2640 54.2117
L36.3116 54.2593
" />
<path d="M36.3116 54.2593
L36.4068 54.3069
" />
<path d="M36.4068 54.3069
L36.5497 54.3069
" />
<path d="M35.7878 53.6403
L35.7878 54.3069
" />
<path d="M35.7878 53.7355
L35.7402 53.6879
" />
<path d="M35.7402 53.6879
L35.6449 53.6403
" />
<path d="M35.6449 53.6403
L35.5021 53.6403
" />
<path d="M35.5021 53.6403
L35.4068 53.6879
" />
<path d="M35.4068 53.6879
L35.3592 53.7831
" />
<path d="M35.3592 53.7831
L35.3592 54.3069
" />
<path d="M35.0259 53.6403
L34.6449 53.6403
" />
<path d="M34.8830 53.3069
L34.8830 54.1641
" />
<path d="M34.8830 54.1641
L34.8354 54.2593
" />
<path d="M34.8354 54.2593
L34.7402 54.3069
" />
<path d="M34.7402 54.3069
L34.6449 54.3069
" />
<path d="M34.3116 54.3069
L34.3116 53.6403
" />
<path d="M34.3116 53.8307
L34.2640 53.7355
" />
<path d="M34.2640 53.7355
L34.2164 53.6879
" />
<path d="M34.2164 53.6879
L34.1211 53.6403
" />
<path d="M34.1211 53.6403
L34.0259 53.6403
" />
<path d="M33.5497 54.3069
L33.6449 54.2593
" />
<path d="M33.6449 54.2593
L33.6925 54.2117
" />
<path d="M33.6925 54.2117
L33.7402 54.1164
" />
<path d="M33.7402 54.1164
L33.7402 53.8307
" />
<path d="M33.7402 53.8307
L33.6925 53.7355
" />
<path d="M33.6925 53.7355
L33.6449 53.6879
" />
<path d="M33.6449 53.6879
L33.5497 53.6403
" />
<path d="M33.5497 53.6403
L33.4068 53.6403
" />
<path d="M33.4068 53.6403
L33.3116 53.6879
" />
<path d="M33.3116 53.6879
L33.2640 53.7355
" />
<path d="M33.2640 53.7355
L33.2164 53.8307
" />
<path d="M33.2164 53.8307
L33.2164 54.1164
" />
<path d="M33.2164 54.1164
L33.2640 54.2117
" />
<path d="M33.2640 54.2117
L33.3116 54.2593
" />
<path d="M33.3116 54.2593
L33.4068 54.3069
" />
<path d="M33.4068 54.3069
L33.5497 54.3069
" />
<path d="M32.6449 54.3069
L32.7402 54.2593
" />
<path d="M32.7402 54.2593
L32.7878 54.1641
" />
<path d="M32.7878 54.1641
L32.7878 53.3069
" />
<path d="M31.1687 53.7831
L31.0259 53.8307
" />
<path d="M31.0259 53.8307
L30.9783 53.8783
" />
<path d="M30.9783 53.8783
L30.9306 53.9736
" />
<path d="M30.9306 53.9736
L30.9306 54.1164
" />
<path d="M30.9306 54.1164
L30.9783 54.2117
" />
<path d="M30.9783 54.2117
L31.0259 54.2593
" />
<path d="M31.0259 54.2593
L31.1211 54.3069
" />
<path d="M31.1211 54.3069
L31.5021 54.3069
" />
<path d="M31.5021 54.3069
L31.5021 53.3069
" />
<path d="M31.5021 53.3069
L31.1687 53.3069
" />
<path d="M31.1687 53.3069
L31.0735 53.3545
" />
<path d="M31.0735 53.3545
L31.0259 53.4022
" />
<path d="M31.0259 53.4022
L30.9783 53.4974
" />
<path d="M30.9783 53.4974
L30.9783 53.5926
" />
<path d="M30.9783 53.5926
L31.0259 53.6879
" />
<path d="M31.0259 53.6879
L31.0735 53.7355
" />
<path d="M31.0735 53.7355
L31.1687 53.7831
" />
<path d="M31.1687 53.7831
L31.5021 53.7831
" />
<path d="M30.3592 54.3069
L30.4544 54.2593
" />
<path d="M30.4544 54.2593
L30.5021 54.2117
" />
<path d="M30.5021 54.2117
L30.5497 54.1164
" />
<path d="M30.5497 54.1164
L30.5497 53.8307
" />
<path d="M30.5497 53.8307
L30.5021 53.7355
" />
<path d="M30.5021 53.7355
L30.4544 53.6879
" />
<path d="M30.4544 53.6879
L30.3592 53.6403
" />
<path d="M30.3592 53.6403
L30.2164 53.6403
" />
<path d="M30.2164 53.6403
L30.1211 53.6879
" />
<path d="M30.1211 53.6879
L30.0735 53.7355
" />
<path d="M30.0735 53.7355
L30.0259 53.8307
" />
<path d="M30.0259 53.8307
L30.0259 54.1164
" />
<path d="M30.0259 54.1164
L30.0735 54.2117
" />
<path d="M30.0735 54.2117
L30.1211 54.2593
" />
<path d="M30.1211 54.2593
L30.2164 54.3069
" />
<path d="M30.2164 54.3069
L30.3592 54.3069
" />
<path d="M29.6925 54.3069
L29.1687 53.6403
" />
<path d="M29.6925 53.6403
L29.1687 54.3069
" />
<path d="M28.1211 53.6403
L27.8830 54.3069
" />
<path d="M27.8830 54.3069
L27.6449 53.6403
" />
<path d="M27.0735 53.3069
L26.9783 53.3069
" />
<path d="M26.9783 53.3069
L26.8830 53.3545
" />
<path d="M26.8830 53.3545
L26.8354 53.4022
" />
<path d="M26.8354 53.4022
L26.7878 53.4974
" />
<path d="M26.7878 53.4974
L26.7402 53.6879
" />
<path d="M26.7402 53.6879
L26.7402 53.9260
" />
<path d="M26.7402 53.9260
L26.7878 54.1164
" />
<path d="M26.7878 54.1164
L26.8354 54.2117
" />
<path d="M26.8354 54.2117
L26.8830 54.2593
" />
<path d="M26.8830 54.2593
L26.9783 54.3069
" />
<path d="M26.9783 54.3069
L27.0735 54.3069
" />
<path d="M27.0735 54.3069
L27.1687 54.2593
" />
<path d="M27.1687 54.2593
L27.2163 54.2117
" />
<path d="M27.2163 54.2117
L27.2640 54.1164
" />
<path d="M27.2640 54.1164
L27.3116 53.9260
" />
<path d="M27.3116 53.9260
L27.3116 53.6879
" />
<path d="M27.3116 53.6879
L27.2640 53.4974
" />
<path d="M27.2640 53.4974
L27.2163 53.4022
" />
<path d="M27.2163 53.4022
L27.1687 53.3545
" />
<path d="M27.1687 53.3545
L27.0735 53.3069
" />
</g><path style="fill:#840084; fill-opacity:1.0000; stroke:none;fill-rule:evenodd;"
d="M 44.6716,42.7921
44.7606,42.8026
44.8475,42.8228
44.9311,42.8527
45.0101,42.8921
45.0833,42.9410
45.1495,42.9993
45.2073,43.0668
45.2150,43.0776
45.2296,43.1001
45.2440,43.1243
45.2566,43.1469
45.2655,43.1650
45.2689,43.1751
45.2635,43.1769
45.2482,43.1782
45.2265,43.1787
45.1841,43.1787
45.1645,43.1439
45.1502,43.1206
45.1042,43.0617
45.0477,43.0083
44.9824,42.9615
44.9097,42.9223
44.8312,42.8917
44.7485,42.8707
44.7113,42.8655
44.6581,42.8623
44.6006,42.8624
44.5431,42.8656
44.4899,42.8718
44.4453,42.8807
44.3999,42.8954
44.3447,42.9186
44.2897,42.9466
44.2391,42.9772
44.1973,43.0082
44.1888,43.0156
44.1597,43.0437
44.1309,43.0753
44.1049,43.1072
44.0841,43.1366
44.0710,43.1605
44.0695,43.1640
44.0644,43.1722
44.0564,43.1766
44.0420,43.1783
44.0178,43.1787
43.9722,43.1787
43.9897,43.1440
43.9904,43.1426
44.0146,43.1017
44.0459,43.0579
44.0808,43.0158
44.1157,42.9800
44.1630,42.9401
44.2386,42.8899
44.3194,42.8500
44.4044,42.8204
44.4922,42.8010
44.5817,42.7916
Z" /> 
<path style="fill:#840084; fill-opacity:1.0000; stroke:none;fill-rule:evenodd;"
d="M 46.9536,42.7921
47.0426,42.8026
47.1295,42.8228
47.2131,42.8527
47.2921,42.8921
47.3654,42.9410
47.4315,42.9993
47.4894,43.0668
47.4970,43.0776
47.5116,43.1001
47.5261,43.1243
47.5387,43.1469
47.5475,43.1650
47.5509,43.1751
47.5455,43.1769
47.5302,43.1782
47.5085,43.1787
47.4662,43.1787
47.4465,43.1439
47.4322,43.1206
47.3862,43.0617
47.3297,43.0083
47.2644,42.9615
47.1917,42.9223
47.1132,42.8917
47.0305,42.8707
46.9933,42.8655
46.9401,42.8623
46.8827,42.8624
46.8252,42.8656
46.7719,42.8718
46.7274,42.8807
46.6819,42.8954
46.6267,42.9186
46.5717,42.9466
46.5211,42.9772
46.4793,43.0082
46.4708,43.0156
46.4418,43.0437
46.4130,43.0753
46.3870,43.1072
46.3662,43.1366
46.3531,43.1605
46.3515,43.1640
46.3465,43.1722
46.3384,43.1766
46.3240,43.1783
46.2998,43.1787
46.2542,43.1787
46.2718,43.1440
46.2725,43.1426
46.2967,43.1017
46.3279,43.0579
46.3628,43.0158
46.3977,42.9800
46.4451,42.9401
46.5206,42.8899
46.6014,42.8500
46.6864,42.8204
46.7743,42.8010
46.8637,42.7916
Z" /> 
<path style="fill:#840084; fill-opacity:1.0000; stroke:none;fill-rule:evenodd;"
d="M 45.2086,43.7079
45.2063,43.7589
45.2004,43.8018
45.1783,43.8812
45.1436,43.9610
45.0983,44.0340
45.0433,44.0993
44.9795,44.1562
44.9078,44.2037
44.8290,44.2408
44.7440,44.2668
44.7241,44.2703
44.6842,44.2738
44.6377,44.2749
44.5885,44.2736
44.5403,44.2702
44.4972,44.2648
44.4631,44.2574
44.4077,44.2382
44.3297,44.1994
44.2571,44.1487
44.1902,44.0864
44.1512,44.0403
44.1052,43.9695
44.0705,43.8938
44.0473,43.8146
44.0355,43.7331
44.0353,43.6507
44.0467,43.5687
44.0697,43.4882
44.0707,43.4861
44.1444,43.4861
44.1456,43.4864
44.1544,43.4825
44.1692,43.4736
44.2126,43.4517
44.2625,43.4395
44.3136,43.4384
44.3641,43.4480
44.4122,43.4676
44.4560,43.4966
44.4935,43.5346
44.5229,43.5809
44.5308,43.5975
44.5382,43.6164
44.5424,43.6347
44.5442,43.6570
44.5446,43.6880
44.5444,43.7110
44.5431,43.7354
44.5397,43.7544
44.5334,43.7727
44.5231,43.7947
44.5184,43.8038
44.4862,43.8499
44.4448,43.8891
44.3972,43.9183
44.3906,43.9213
44.3711,43.9290
44.3519,43.9334
44.3286,43.9355
44.2965,43.9360
44.2868,43.9360
44.2629,43.9356
44.2438,43.9338
44.2262,43.9297
44.2068,43.9224
44.1823,43.9110
44.1493,43.8944
44.1467,43.8956
44.1495,43.9055
44.1577,43.9230
44.1706,43.9460
44.1871,43.9726
44.1999,43.9915
44.2516,44.0529
44.3121,44.1055
44.3798,44.1483
44.4532,44.1803
44.5305,44.2003
44.5645,44.2052
44.6474,44.2081
44.7278,44.1983
44.8048,44.1762
44.8774,44.1421
44.9447,44.0964
45.0056,44.0392
45.0457,43.9894
45.0865,43.9211
45.1169,43.8476
45.1361,43.7710
45.1429,43.6938
45.1428,43.6787
45.1344,43.6007
45.1139,43.5239
45.0823,43.4504
45.0403,43.3824
44.9890,43.3222
44.9273,43.2691
44.8587,43.2269
44.7844,43.1966
44.7047,43.1783
44.6200,43.1721
44.6150,43.1721
44.5329,43.1792
44.4546,43.1985
44.3810,43.2295
44.3135,43.2717
44.2529,43.3244
44.2006,43.3870
44.1854,43.4095
44.1701,43.4343
44.1570,43.4574
44.1478,43.4757
44.1444,43.4861
44.0707,43.4861
44.1045,43.4106
44.1511,43.3372
44.1933,43.2868
44.2554,43.2296
44.3247,43.1824
44.3996,43.1455
44.4788,43.1195
44.5608,43.1046
44.6444,43.1015
44.7282,43.1104
44.8106,43.1319
44.8642,43.1534
44.9388,43.1948
45.0069,43.2465
45.0673,43.3072
45.1188,43.3756
45.1601,43.4504
45.1900,43.5304
45.1954,43.5527
45.2029,43.6002
45.2074,43.6534
45.2083,43.6938
Z" /> 
<path style="fill:#840084; fill-opacity:1.0000; stroke:none;fill-rule:evenodd;"
d="M 47.4906,43.6682
47.4883,43.7192
47.4825,43.7621
47.4604,43.8416
47.4256,43.9213
47.3803,43.9943
47.3253,44.0596
47.2615,44.1165
47.1898,44.1640
47.1110,44.2011
47.0260,44.2271
47.0061,44.2306
46.9663,44.2341
46.9197,44.2352
46.8705,44.2340
46.8224,44.2305
46.7793,44.2251
46.7451,44.2177
46.6897,44.1985
46.6118,44.1597
46.5391,44.1090
46.4722,44.0467
46.4332,44.0006
46.3872,43.9298
46.3526,43.8541
46.3293,43.7749
46.3175,43.6934
46.3173,43.6110
46.3287,43.5290
46.3517,43.4485
46.3527,43.4464
46.4264,43.4464
46.4276,43.4467
46.4365,43.4428
46.4512,43.4339
46.4947,43.4120
46.5445,43.3998
46.5956,43.3987
46.6462,43.4083
46.6942,43.4279
46.7380,43.4569
46.7755,43.4949
46.8049,43.5412
46.8128,43.5578
46.8203,43.5767
46.8244,43.5950
46.8262,43.6173
46.8266,43.6483
46.8264,43.6713
46.8251,43.6957
46.8217,43.7148
46.8154,43.7330
46.8051,43.7550
46.8004,43.7641
46.7682,43.8102
46.7268,43.8494
46.6792,43.8786
46.6726,43.8817
46.6531,43.8893
46.6339,43.8937
46.6106,43.8958
46.5785,43.8963
46.5688,43.8963
46.5449,43.8959
46.5258,43.8941
46.5082,43.8900
46.4888,43.8827
46.4643,43.8713
46.4313,43.8548
46.4287,43.8559
46.4315,43.8658
46.4398,43.8833
46.4526,43.9063
46.4691,43.9329
46.4819,43.9518
46.5336,44.0132
46.5941,44.0658
46.6619,44.1086
46.7352,44.1406
46.8126,44.1606
46.8465,44.1655
46.9294,44.1684
47.0098,44.1587
47.0868,44.1366
47.1595,44.1025
47.2267,44.0567
47.2876,43.9995
47.3277,43.9497
47.3685,43.8814
47.3990,43.8079
47.4181,43.7314
47.4250,43.6541
47.4248,43.6390
47.4164,43.5610
47.3960,43.4842
47.3643,43.4107
47.3224,43.3428
47.2710,43.2825
47.2093,43.2294
47.1407,43.1872
47.0664,43.1569
46.9868,43.1386
46.9021,43.1324
46.8970,43.1324
46.8150,43.1395
46.7366,43.1588
46.6631,43.1898
46.5955,43.2320
46.5350,43.2847
46.4826,43.3473
46.4675,43.3698
46.4521,43.3946
46.4390,43.4177
46.4298,43.4360
46.4264,43.4464
46.3527,43.4464
46.3865,43.3709
46.4332,43.2975
46.4753,43.2471
46.5375,43.1899
46.6067,43.1427
46.6816,43.1058
46.7608,43.0798
46.8429,43.0650
46.9265,43.0618
47.0102,43.0707
47.0926,43.0922
47.1462,43.1137
47.2208,43.1551
47.2890,43.2068
47.3494,43.2675
47.4008,43.3359
47.4421,43.4107
47.4720,43.4907
47.4775,43.5130
47.4850,43.5605
47.4894,43.6138
47.4903,43.6541
Z" /> 
<path style="fill:#840084; fill-opacity:1.0000; stroke:none;fill-rule:evenodd;"
d="M 45.9171,43.6148
45.9171,43.6257
45.9170,43.7720
45.9169,43.9061
45.9166,44.0280
45.9163,44.1375
45.9159,44.2347
45.9154,44.3192
45.9148,44.3912
45.9141,44.4504
45.9133,44.4967
45.9125,44.5301
45.9115,44.5505
45.9105,44.5578
45.9103,44.5579
45.9063,44.5671
45.9055,44.5828
45.9072,44.6038
45.2445,44.8455
45.1557,44.8779
45.0695,44.9094
44.9876,44.9393
44.9108,44.9675
44.8400,44.9935
44.7759,45.0170
44.7193,45.0378
44.6712,45.0556
44.6322,45.0701
44.6032,45.0810
44.5850,45.0879
44.5785,45.0906
44.5824,45.0924
44.5976,45.0984
44.6235,45.1083
44.6589,45.1216
44.7029,45.1381
44.7545,45.1572
44.8127,45.1788
44.8763,45.2024
44.9446,45.2275
45.0163,45.2540
45.0906,45.2813
45.1664,45.3092
45.2427,45.3372
45.3185,45.3649
45.3928,45.3921
45.4646,45.4183
45.5329,45.4432
45.5967,45.4664
45.6549,45.4875
45.7066,45.5062
45.7507,45.5221
45.7863,45.5348
45.8123,45.5439
45.8278,45.5492
45.8326,45.5508
45.8535,45.5585
45.8757,45.5676
45.8840,45.5711
45.9007,45.5773
45.9104,45.5798
45.9129,45.5846
45.9151,45.6002
45.9165,45.6241
45.9173,45.6536
45.9175,45.6863
45.9169,45.7193
45.9158,45.7501
45.9141,45.7761
45.9117,45.7946
45.9088,45.8031
45.9009,45.8073
45.8832,45.8142
45.8609,45.8214
45.8506,45.8248
45.8286,45.8324
45.7965,45.8436
45.7554,45.8582
45.7063,45.8758
45.6502,45.8958
45.5881,45.9181
45.5211,45.9423
45.4502,45.9678
45.3764,45.9945
45.3007,46.0219
45.2242,46.0496
45.1478,46.0773
45.0727,46.1046
44.9998,46.1311
44.9301,46.1565
44.8647,46.1804
44.8045,46.2024
44.7507,46.2222
44.7042,46.2393
44.6661,46.2534
44.6374,46.2642
44.6190,46.2712
44.6121,46.2742
44.6166,46.2766
44.6327,46.2833
44.6597,46.2940
44.6968,46.3083
44.7432,46.3258
44.7980,46.3465
44.8606,46.3698
44.9300,46.3956
45.0055,46.4235
45.0862,46.4532
45.1715,46.4844
45.2603,46.5168
45.9138,46.7549
45.9155,47.3636
45.9172,47.9723
46.8944,48.3278
46.9562,48.3502
47.0636,48.3894
47.1673,48.4272
47.2665,48.4634
47.3606,48.4979
47.4489,48.5303
47.5307,48.5604
47.6055,48.5879
47.6725,48.6127
47.7310,48.6344
47.7804,48.6528
47.8201,48.6677
47.8493,48.6789
47.8674,48.6860
47.8738,48.6888
47.8742,48.6896
47.8830,48.6956
47.8986,48.7020
47.9017,48.7031
47.9156,48.7110
47.9213,48.7193
47.9203,48.7314
47.9171,48.7536
47.9122,48.7821
47.9062,48.8142
47.8997,48.8472
47.8931,48.8781
47.8871,48.9044
47.8822,48.9232
47.8789,48.9317
47.8749,48.9336
47.8592,48.9396
47.8328,48.9495
47.7963,48.9628
47.7507,48.9792
47.6970,48.9985
47.6360,49.0202
47.5686,49.0442
47.4958,49.0701
47.4183,49.0975
47.3371,49.1262
47.2532,49.1558
47.1674,49.1860
47.0805,49.2166
46.9936,49.2471
46.9074,49.2773
46.8230,49.3068
46.7411,49.3354
46.6628,49.3628
46.5888,49.3885
46.5201,49.4124
46.4576,49.4340
46.4022,49.4531
46.3547,49.4693
46.3162,49.4824
46.2874,49.4920
46.2693,49.4978
46.2627,49.4995
46.2607,49.4960
46.2547,49.4818
46.2462,49.4591
46.2360,49.4302
46.2247,49.3974
46.2133,49.3631
46.2024,49.3295
46.1928,49.2992
46.1854,49.2742
46.1808,49.2571
46.1799,49.2501
46.1817,49.2488
46.1938,49.2428
46.2114,49.2360
46.2407,49.2259
46.2970,49.2064
46.3595,49.1846
46.4272,49.1610
46.4991,49.1359
46.5743,49.1095
46.6518,49.0823
46.7306,49.0546
46.8097,49.0268
46.8882,48.9992
46.9650,48.9721
47.0391,48.9459
47.1096,48.9210
47.1756,48.8976
47.2359,48.8762
47.2896,48.8570
47.3358,48.8405
47.3734,48.8270
47.4015,48.8168
47.4191,48.8103
47.4251,48.8078
47.4223,48.8065
47.4082,48.8011
47.3832,48.7917
47.3483,48.7787
47.3044,48.7624
47.2524,48.7431
47.1932,48.7213
47.1278,48.6972
47.0570,48.6712
46.9818,48.6436
46.9032,48.6148
46.8220,48.5851
46.7391,48.5548
46.6556,48.5242
46.5723,48.4938
46.4901,48.4638
46.4100,48.4346
46.3329,48.4065
46.2597,48.3798
46.1914,48.3550
46.1288,48.3323
46.0729,48.3121
46.0246,48.2947
45.9849,48.2804
45.9547,48.2696
45.9348,48.2626
45.9262,48.2598
45.9262,48.2598
45.9246,48.2612
45.9232,48.2663
45.9220,48.2758
45.9210,48.2906
45.9201,48.3113
45.9194,48.3386
45.9187,48.3734
45.9182,48.4163
45.9178,48.4680
45.9175,48.5293
45.9173,48.6009
45.9171,48.6836
45.9171,48.7780
45.9170,48.8849
45.9170,49.5121
45.3714,49.7106
45.2995,49.7367
45.2215,49.7652
45.1479,49.7921
45.0797,49.8172
45.0177,49.8401
44.9627,49.8604
44.9158,49.8778
44.8777,49.8921
44.8494,49.9029
44.8318,49.9098
44.8257,49.9125
44.8294,49.9139
44.8444,49.9174
44.8693,49.9225
44.9024,49.9288
44.9419,49.9361
44.9861,49.9439
45.0094,49.9480
45.0616,49.9572
45.1222,49.9678
45.1882,49.9795
45.2565,49.9916
45.3241,50.0036
45.3879,50.0150
45.4382,50.0239
45.4950,50.0339
45.5487,50.0433
45.5972,50.0518
45.6386,50.0589
45.6709,50.0643
45.6922,50.0678
45.7224,50.0727
45.7619,50.0794
45.8042,50.0868
45.8443,50.0940
45.8734,50.0993
45.9199,50.1077
45.9749,50.1176
46.0375,50.1288
46.1066,50.1412
46.1813,50.1545
46.2607,50.1686
46.3436,50.1833
46.4292,50.1985
46.5165,50.2139
46.6044,50.2295
46.6921,50.2450
46.7785,50.2602
46.8626,50.2750
46.9435,50.2892
47.0202,50.3027
47.0917,50.3152
47.1570,50.3266
47.2152,50.3367
47.2653,50.3454
47.3062,50.3524
47.3371,50.3577
47.3569,50.3610
47.3647,50.3621
47.3652,50.3622
47.3679,50.3679
47.3699,50.3830
47.3713,50.4085
47.3720,50.4453
47.3723,50.4944
47.3723,50.5027
47.3720,50.5499
47.3711,50.5849
47.3696,50.6087
47.3675,50.6224
47.3647,50.6267
47.3632,50.6269
47.3507,50.6288
47.3265,50.6329
47.2916,50.6389
47.2470,50.6466
47.1936,50.6558
47.1324,50.6665
47.0645,50.6784
46.9907,50.6913
46.9120,50.7051
46.8294,50.7196
46.7439,50.7347
46.6565,50.7501
46.5681,50.7657
46.4797,50.7814
46.3922,50.7968
46.3067,50.8120
46.2241,50.8267
46.1454,50.8407
46.0716,50.8538
46.0036,50.8660
45.9424,50.8770
45.8890,50.8866
45.8443,50.8947
45.8425,50.8950
45.8046,50.9019
45.7668,50.9086
45.7334,50.9143
45.7087,50.9184
45.7073,50.9186
45.6889,50.9217
45.6594,50.9268
45.6208,50.9335
45.5746,50.9415
45.5229,50.9505
45.4673,50.9603
45.4097,50.9704
45.3519,50.9806
45.2956,50.9905
45.2426,50.9999
45.1948,51.0083
45.1539,51.0156
45.1218,51.0214
45.1002,51.0254
45.0539,51.0340
45.1002,51.0420
45.1157,51.0447
45.1433,51.0496
45.1805,51.0562
45.2253,51.0641
45.2761,51.0732
45.3309,51.0829
45.3879,51.0931
45.4383,51.1021
45.4950,51.1121
45.5487,51.1215
45.5972,51.1299
45.6386,51.1371
45.6709,51.1425
45.6922,51.1460
45.7224,51.1509
45.7619,51.1575
45.8042,51.1649
45.8443,51.1721
45.8734,51.1775
45.9199,51.1859
45.9749,51.1958
46.0375,51.2070
46.1066,51.2194
46.1813,51.2327
46.2607,51.2468
46.3436,51.2615
46.4292,51.2767
46.5165,51.2921
46.6044,51.3077
46.6921,51.3231
46.7785,51.3384
46.8626,51.3532
46.9435,51.3674
47.0202,51.3808
47.0917,51.3934
47.1570,51.4048
47.2152,51.4149
47.2653,51.4236
47.3062,51.4306
47.3371,51.4359
47.3569,51.4392
47.3647,51.4403
47.3652,51.4404
47.3679,51.4461
47.3699,51.4612
47.3713,51.4867
47.3720,51.5235
47.3723,51.5726
47.3723,51.5809
47.3720,51.6281
47.3711,51.6631
47.3696,51.6869
47.3675,51.7005
47.3647,51.7049
47.3632,51.7050
47.3507,51.7070
47.3265,51.7111
47.2916,51.7170
47.2470,51.7247
47.1936,51.7340
47.1324,51.7447
47.0645,51.7566
46.9907,51.7695
46.9120,51.7833
46.8294,51.7978
46.7439,51.8129
46.6565,51.8283
46.5681,51.8439
46.4797,51.8595
46.3922,51.8750
46.3067,51.8902
46.2241,51.9048
46.1454,51.9188
46.0716,51.9320
46.0036,51.9442
45.9424,51.9552
45.8890,51.9648
45.8443,51.9729
45.8425,51.9732
45.8046,51.9801
45.7668,51.9867
45.7334,51.9925
45.7087,51.9966
45.7073,51.9968
45.6889,51.9999
45.6594,52.0050
45.6208,52.0117
45.5746,52.0197
45.5229,52.0287
45.4673,52.0384
45.4097,52.0486
45.3519,52.0587
45.2956,52.0687
45.2426,52.0780
45.1948,52.0865
45.1539,52.0938
45.1218,52.0996
45.1002,52.1035
45.0539,52.1122
45.1002,52.1202
45.1157,52.1229
45.1433,52.1278
45.1805,52.1343
45.2253,52.1423
45.2761,52.1513
45.3309,52.1611
45.3879,52.1713
45.4383,52.1802
45.4950,52.1903
45.5487,52.1997
45.5972,52.2081
45.6386,52.2152
45.6709,52.2207
45.6922,52.2242
45.7224,52.2290
45.7619,52.2357
45.8042,52.2431
45.8443,52.2503
45.8734,52.2556
45.9199,52.2641
45.9749,52.2740
46.0375,52.2852
46.1066,52.2975
46.1813,52.3108
46.2607,52.3250
46.3436,52.3397
46.4292,52.3549
46.5165,52.3703
46.6044,52.3858
46.6921,52.4013
46.7785,52.4165
46.8626,52.4313
46.9435,52.4456
47.0202,52.4590
47.0917,52.4715
47.1570,52.4830
47.2152,52.4931
47.2653,52.5018
47.3062,52.5088
47.3371,52.5141
47.3569,52.5173
47.3647,52.5185
47.3652,52.5186
47.3679,52.5242
47.3699,52.5394
47.3713,52.5648
47.3720,52.6017
47.3723,52.6507
47.3723,52.7830
47.3299,52.7830
47.3266,52.7831
47.3188,52.7836
47.3096,52.7849
47.2983,52.7872
47.2841,52.7908
47.2664,52.7959
47.2443,52.8027
47.2172,52.8117
47.1843,52.8228
47.1448,52.8366
47.0981,52.8531
47.0433,52.8726
46.9799,52.8955
46.9069,52.9218
46.8237,52.9520
46.7296,52.9862
46.6238,53.0247
46.5379,53.0560
46.4504,53.0879
46.3669,53.1183
46.2882,53.1470
46.2150,53.1736
46.1484,53.1979
46.0890,53.2196
46.0379,53.2382
45.9957,53.2536
45.9635,53.2654
45.9419,53.2733
45.9320,53.2770
45.9039,53.2875
45.9039,54.5434
45.9039,55.7993
46.8332,55.7993
47.7626,55.7993
47.7626,55.9316
47.7626,56.0639
45.7782,56.0639
43.7938,56.0639
43.7938,55.9316
43.7938,55.7993
44.7198,55.7993
45.6459,55.7993
45.6459,54.4611
45.6459,54.3282
45.6459,54.1760
45.6460,54.0363
45.6461,53.9084
45.6463,53.7921
45.6465,53.6868
45.6467,53.5920
45.6470,53.5074
45.6473,53.4324
45.6477,53.3665
45.6482,53.3095
45.6487,53.2606
45.6493,53.2196
45.6499,53.1860
45.6506,53.1593
45.6514,53.1389
45.6522,53.1246
45.6531,53.1158
45.6542,53.1120
45.6544,53.1118
45.6632,53.1075
45.6834,53.0990
45.7142,53.0868
45.7547,53.0711
45.8039,53.0523
45.8611,53.0308
45.9253,53.0068
45.9956,52.9806
46.0712,52.9528
46.1512,52.9234
46.2346,52.8930
46.2484,52.8879
46.3308,52.8579
46.4092,52.8291
46.4828,52.8020
46.5508,52.7768
46.6122,52.7538
46.6663,52.7335
46.7122,52.7160
46.7490,52.7017
46.7760,52.6910
46.7922,52.6842
46.7968,52.6815
46.7886,52.6794
46.7701,52.6756
46.7472,52.6715
46.7413,52.6705
46.7209,52.6670
46.6895,52.6616
46.6486,52.6544
46.5993,52.6458
46.5432,52.6360
46.4816,52.6252
46.4157,52.6136
46.3470,52.6016
46.3266,52.5980
46.2538,52.5852
46.1813,52.5724
46.1109,52.5601
46.0445,52.5484
45.9837,52.5378
45.9306,52.5284
45.8868,52.5207
45.8542,52.5150
45.8409,52.5127
45.7908,52.5038
45.7331,52.4936
45.6721,52.4827
45.6118,52.4719
45.5566,52.4620
45.5136,52.4542
45.4353,52.4402
45.3530,52.4255
45.2679,52.4104
45.1808,52.3951
45.0928,52.3796
45.0049,52.3641
44.9180,52.3490
44.8332,52.3342
44.7515,52.3200
44.6738,52.3066
44.6011,52.2941
44.5345,52.2827
44.4750,52.2726
44.4235,52.2639
44.3810,52.2569
44.3486,52.2517
44.3272,52.2484
44.3178,52.2473
44.2965,52.2473
44.2965,52.1117
44.2965,51.9761
44.3177,51.9761
44.3180,51.9761
44.3292,51.9747
44.3525,51.9712
44.3872,51.9657
44.4324,51.9583
44.4873,51.9490
44.5512,51.9382
44.6232,51.9259
44.7025,51.9122
44.7883,51.8973
44.8798,51.8813
44.9762,51.8644
45.0767,51.8467
45.1804,51.8284
45.2866,51.8096
45.3945,51.7903
45.4126,51.7871
45.5172,51.7684
45.6106,51.7518
45.6946,51.7368
45.7707,51.7233
45.8405,51.7109
45.9057,51.6993
45.9679,51.6884
46.0287,51.6777
46.0898,51.6670
46.1527,51.6559
46.2192,51.6444
46.2908,51.6319
46.2918,51.6317
46.3542,51.6208
46.4124,51.6106
46.4653,51.6012
46.5115,51.5929
46.5498,51.5859
46.5789,51.5805
46.5976,51.5768
46.6044,51.5752
46.6044,51.5699
46.6044,51.5699
46.5974,51.5683
46.5786,51.5646
46.5493,51.5591
46.5108,51.5521
46.4645,51.5438
46.4115,51.5344
46.3532,51.5241
46.2908,51.5132
46.2788,51.5112
46.2082,51.4989
46.1424,51.4874
46.0799,51.4765
46.0189,51.4658
45.9580,51.4550
45.8954,51.4440
45.8296,51.4323
45.7589,51.4198
45.6816,51.4060
45.5962,51.3908
45.5011,51.3739
45.3945,51.3548
45.3865,51.3534
45.2787,51.3342
45.1727,51.3154
45.0691,51.2971
44.9689,51.2794
44.8729,51.2626
44.7817,51.2467
44.6964,51.2319
44.6176,51.2183
44.5462,51.2061
44.4829,51.1954
44.4287,51.1863
44.3842,51.1790
44.3504,51.1736
44.3279,51.1702
44.3177,51.1691
44.2965,51.1691
44.2965,51.0335
44.2965,50.8979
44.3177,50.8979
44.3180,50.8979
44.3292,50.8966
44.3525,50.8931
44.3872,50.8875
44.4324,50.8801
44.4873,50.8709
44.5512,50.8600
44.6232,50.8477
44.7025,50.8340
44.7883,50.8191
44.8798,50.8032
44.9762,50.7863
45.0767,50.7686
45.1804,50.7502
45.2866,50.7314
45.3945,50.7121
45.4126,50.7089
45.5172,50.6902
45.6106,50.6736
45.6946,50.6586
45.7707,50.6451
45.8405,50.6327
45.9057,50.6212
45.9679,50.6102
46.0287,50.5995
46.0898,50.5888
46.1527,50.5778
46.2192,50.5662
46.2908,50.5537
46.2918,50.5535
46.3542,50.5427
46.4124,50.5324
46.4653,50.5230
46.5115,50.5147
46.5498,50.5077
46.5789,50.5023
46.5976,50.4986
46.6044,50.4970
46.6044,50.4918
46.6044,50.4918
46.5974,50.4901
46.5786,50.4864
46.5493,50.4810
46.5108,50.4740
46.4645,50.4656
46.4115,50.4562
46.3532,50.4460
46.2908,50.4351
46.2788,50.4330
46.2082,50.4207
46.1424,50.4092
46.0799,50.3983
46.0189,50.3876
45.9580,50.3769
45.8954,50.3658
45.8296,50.3542
45.7589,50.3416
45.6816,50.3279
45.5962,50.3127
45.5011,50.2957
45.3945,50.2766
45.2962,50.2591
45.1432,50.2319
45.0032,50.2072
44.8762,50.1849
44.7622,50.1651
44.6611,50.1477
44.5730,50.1328
44.4978,50.1203
44.4355,50.1102
44.3862,50.1026
44.3497,50.0974
44.3262,50.0947
44.3156,50.0944
44.2965,50.0986
44.2965,49.9622
44.2966,49.9303
44.2971,49.8892
44.2980,49.8592
44.2996,49.8392
44.3018,49.8277
44.3048,49.8235
44.3049,49.8234
44.3129,49.8206
44.3326,49.8135
44.3629,49.8026
44.4032,49.7881
44.4527,49.7702
44.5104,49.7494
44.5757,49.7258
44.6476,49.6997
44.7254,49.6716
44.8083,49.6416
44.8954,49.6101
44.9859,49.5773
45.6588,49.3335
45.6590,48.8063
45.6591,48.2791
45.6343,48.2880
45.6297,48.2897
45.6119,48.2961
45.5835,48.3065
45.5456,48.3202
45.4995,48.3370
45.4464,48.3564
45.3874,48.3779
45.3238,48.4011
45.2567,48.4255
45.1873,48.4508
45.1169,48.4765
45.0467,48.5021
44.9777,48.5272
44.9113,48.5515
44.8486,48.5743
44.7908,48.5954
44.7391,48.6143
44.6947,48.6305
44.6588,48.6436
44.6326,48.6532
44.6173,48.6588
44.5998,48.6652
44.5688,48.6765
44.5298,48.6907
44.4852,48.7068
44.4375,48.7241
44.3891,48.7416
44.3444,48.7578
44.3025,48.7733
44.2659,48.7872
44.2363,48.7987
44.2156,48.8071
44.2056,48.8118
44.2040,48.8125
44.2004,48.8132
44.1949,48.8129
44.1868,48.8115
44.1756,48.8089
44.1607,48.8047
44.1413,48.7987
44.1170,48.7908
44.0870,48.7806
44.0509,48.7681
44.0078,48.7530
43.9573,48.7351
43.8987,48.7141
43.8314,48.6899
43.7547,48.6622
43.6681,48.6308
43.5709,48.5956
43.4626,48.5562
43.3424,48.5125
43.2840,48.4912
43.1842,48.4549
43.0883,48.4200
42.9970,48.3867
42.9109,48.3554
42.8309,48.3263
42.7576,48.2995
42.6917,48.2755
42.6340,48.2545
42.5851,48.2366
42.5458,48.2223
42.5168,48.2117
42.4988,48.2051
42.4925,48.2027
42.4935,48.1976
42.4984,48.1822
42.5064,48.1587
42.5168,48.1295
42.5287,48.0968
42.5413,48.0628
42.5536,48.0299
42.5649,48.0003
42.5744,47.9764
42.5811,47.9604
42.5843,47.9545
42.5844,47.9545
42.5923,47.9572
42.6117,47.9640
42.6420,47.9749
42.6825,47.9894
42.7323,48.0074
42.7908,48.0285
42.8572,48.0525
42.9307,48.0791
43.0106,48.1081
43.0962,48.1392
43.1868,48.1720
43.2815,48.2064
43.3797,48.2421
43.3885,48.2453
43.4865,48.2810
43.5812,48.3153
43.6717,48.3480
43.7572,48.3789
43.8371,48.4077
43.9106,48.4341
43.9770,48.4578
44.0354,48.4787
44.0851,48.4963
44.1254,48.5105
44.1556,48.5209
44.1748,48.5274
44.1824,48.5296
44.1853,48.5288
44.1998,48.5240
44.2254,48.5152
44.2615,48.5025
44.3071,48.4863
44.3616,48.4668
44.4242,48.4444
44.4940,48.4193
44.5704,48.3918
44.6524,48.3621
44.7394,48.3306
44.8304,48.2975
44.9249,48.2632
45.6558,47.9971
45.6558,47.4656
45.6558,46.9340
44.9433,46.6745
44.9053,46.6607
44.8131,46.6271
44.7244,46.5949
44.6400,46.5643
44.5608,46.5357
44.4876,46.5093
44.4211,46.4854
44.3623,46.4642
44.3118,46.4462
44.2705,46.4315
44.2392,46.4206
44.2187,46.4135
44.2099,46.4108
44.1969,46.4072
44.1742,46.3991
44.1500,46.3891
44.1110,46.3715
44.1128,46.2763
44.1146,46.1810
44.1708,46.1591
44.1736,46.1580
44.1912,46.1514
44.2200,46.1407
44.2590,46.1264
44.3074,46.1087
44.3641,46.0880
44.4281,46.0646
44.4986,46.0389
44.5746,46.0113
44.6551,45.9821
44.7391,45.9516
44.8257,45.9202
44.8573,45.9088
44.9417,45.8782
45.0225,45.8489
45.0987,45.8213
45.1695,45.7956
45.2341,45.7723
45.2915,45.7515
45.3408,45.7336
45.3812,45.7190
45.4118,45.7079
45.4317,45.7006
45.4401,45.6976
45.4499,45.6930
45.4529,45.6889
45.4513,45.6880
45.4390,45.6831
45.4157,45.6742
45.3825,45.6618
45.3403,45.6462
45.2901,45.6277
45.2330,45.6068
45.1699,45.5838
45.1019,45.5590
45.0299,45.5329
44.9551,45.5057
44.8783,45.4779
44.8006,45.4499
44.7230,45.4219
44.6465,45.3943
44.5722,45.3676
44.5009,45.3420
44.4338,45.3180
44.3719,45.2959
44.3161,45.2761
44.2675,45.2588
44.2270,45.2446
44.1957,45.2338
44.1746,45.2266
44.1647,45.2236
44.1503,45.2200
44.1312,45.2138
44.1201,45.2084
44.1168,45.2027
44.1142,45.1898
44.1125,45.1683
44.1116,45.1366
44.1113,45.0933
44.1113,44.9854
44.1460,44.9724
44.1499,44.9710
44.1665,44.9649
44.1943,44.9547
44.2325,44.9408
44.2803,44.9234
44.3368,44.9028
44.4012,44.8793
44.4728,44.8532
44.5506,44.8249
44.6339,44.7945
44.7218,44.7625
44.8136,44.7291
44.9084,44.6946
44.9604,44.6757
45.0529,44.6420
45.1417,44.6097
45.2258,44.5791
45.3046,44.5504
45.3772,44.5239
45.4429,44.5000
45.5009,44.4788
45.5504,44.4608
45.5906,44.4461
45.6207,44.4352
45.6399,44.4281
45.6475,44.4253
45.6488,44.4245
45.6504,44.4223
45.6517,44.4182
45.6530,44.4115
45.6540,44.4016
45.6550,44.3877
45.6558,44.3692
45.6565,44.3456
45.6571,44.3159
45.6576,44.2798
45.6580,44.2363
45.6583,44.1850
45.6586,44.1251
45.6588,44.0560
45.6589,43.9769
45.6590,43.8873
45.6591,43.7864
45.6591,43.6737
45.6591,43.5484
45.6591,42.6760
45.7881,42.6760
45.9171,42.6760
Z" /> 
</g>
<g style="fill:#840084; fill-opacity:1.0000; stroke:none;">
<circle cx="31.9183" cy="22.4745" r="0.4000" /> 
</g>
<g style="fill:#840084; fill-opacity:1.0000; stroke:none;">
<circle cx="21.7583" cy="22.4745" r="0.4000" /> 
</g>
<g style="fill:#840084; fill-opacity:1.0000; stroke:none;">
<circle cx="54.8583" cy="14.0345" r="1.5000" /> 
</g>
<g style="fill:#840084; fill-opacity:1.0000; stroke:none;">
<circle cx="31.2183" cy="41.5285" r="0.5000" /> 
</g>
<g style="fill:#840084; fill-opacity:1.0000; stroke:none;">
<circle cx="54.8583" cy="53.4345" r="1.5000" /> 
</g>
<g style="fill:#840084; fill-opacity:1.0000; stroke:none;">
<circle cx="20.0183" cy="28.8158" r="0.4500" /> 
</g>
<g style="fill:#840084; fill-opacity:1.0000; stroke:none;">
<circle cx="22.5183" cy="28.8158" r="0.4500" /> 
</g>
<g style="fill:#840084; fill-opacity:1.0000; stroke:none;">
<circle cx="25.0183" cy="28.8158" r="0.4500" /> 
</g>
<g style="fill:#840084; fill-opacity:1.0000; stroke:none;">
<circle cx="20.0183" cy="34.8158" r="0.4500" /> 
</g>
<g style="fill:#840084; fill-opacity:1.0000; stroke:none;">
<circle cx="22.5183" cy="34.8158" r="0.4500" /> 
</g>
<g style="fill:#840084; fill-opacity:1.0000; stroke:none;">
<circle cx="25.0183" cy="34.8158" r="0.4500" /> 
</g>
<g style="fill:#840084; fill-opacity:1.0000; stroke:none;">
<circle cx="41.3783" cy="41.5285" r="0.5000" /> 
</g>
<g style="fill:#840084; fill-opacity:1.0000; stroke:none;">
<circle cx="46.2383" cy="22.4745" r="0.4000" /> 
</g>
<g style="fill:#840084; fill-opacity:1.0000; stroke:none;">
<circle cx="36.0783" cy="22.4745" r="0.4000" /> 
</g>
<g style="fill:#840084; fill-opacity:1.0000; stroke:none;">
<circle cx="19.7833" cy="15.0685" r="0.4500" /> 
</g>
<g style="fill:#840084; fill-opacity:1.0000; stroke:none;">
<circle cx="22.3233" cy="15.0685" r="0.4500" /> 
</g>
<g style="fill:#840084; fill-opacity:1.0000; stroke:none;">
<circle cx="47.7323" cy="15.0685" r="0.4500" /> 
</g>
<g style="fill:#840084; fill-opacity:1.0000; stroke:none;">
<circle cx="45.1923" cy="15.0685" r="0.4500" /> 
</g>
<g style="fill:#840084; fill-opacity:1.0000; stroke:none;">
<circle cx="26.1383" cy="41.5285" r="0.5000" /> 
</g>
<g style="fill:#840084; fill-opacity:1.0000; stroke:none;">
<circle cx="12.6583" cy="53.4345" r="1.5000" /> 
</g>
<g style="fill:#840084; fill-opacity:1.0000; stroke:none;">
<circle cx="42.4983" cy="28.8158" r="0.4500" /> 
</g>
<g style="fill:#840084; fill-opacity:1.0000; stroke:none;">
<circle cx="44.9983" cy="28.8158" r="0.4500" /> 
</g>
<g style="fill:#840084; fill-opacity:1.0000; stroke:none;">
<circle cx="47.4983" cy="28.8158" r="0.4500" /> 
</g>
<g style="fill:#840084; fill-opacity:1.0000; stroke:none;">
<circle cx="42.4983" cy="34.8158" r="0.4500" /> 
</g>
<g style="fill:#840084; fill-opacity:1.0000; stroke:none;">
<circle cx="44.9983" cy="34.8158" r="0.4500" /> 
</g>
<g style="fill:#840084; fill-opacity:1.0000; stroke:none;">
<circle cx="47.4983" cy="34.8158" r="0.4500" /> 
</g>
<g style="fill:#840084; fill-opacity:1.0000; stroke:none;">
<circle cx="30.0083" cy="49.5845" r="0.4750" /> 
</g>
<g style="fill:#840084; fill-opacity:1.0000; stroke:none;">
<circle cx="32.5083" cy="49.5845" r="0.4750" /> 
</g>
<g style="fill:#840084; fill-opacity:1.0000; stroke:none;">
<circle cx="35.0083" cy="49.5845" r="0.4750" /> 
</g>
<g style="fill:#840084; fill-opacity:1.0000; stroke:none;">
<circle cx="37.5083" cy="49.5845" r="0.4750" /> 
</g>
<g style="fill:#840084; fill-opacity:1.0000; stroke:none;">
<circle cx="36.2983" cy="41.5285" r="0.5000" /> 
</g>
<g style="fill:#840084; fill-opacity:1.0000; stroke:none;">
<circle cx="12.6583" cy="14.0345" r="1.5000" /> 
</g>
<g style="fill:none; 
stroke:#008484; stroke-width:0.1500; stroke-opacity:1; 
stroke-linecap:round; stroke-linejoin:round;">
<text x="26.9583" y="20.6345"
textLength="2.2024" font-size="1.3333" lengthAdjust="spacingAndGlyphs"
text-anchor="middle" opacity="0" stroke-opacity="0">R1</text>
<g class="stroked-text"><desc>R1</desc>
<path d="M26.7917 20.5893
L26.4583 20.1131
" />
<path d="M26.2202 20.5893
L26.2202 19.5893
" />
<path d="M26.2202 19.5893
L26.6012 19.5893
" />
<path d="M26.6012 19.5893
L26.6964 19.6369
" />
<path d="M26.6964 19.6369
L26.7440 19.6846
" />
<path d="M26.7440 19.6846
L26.7917 19.7798
" />
<path d="M26.7917 19.7798
L26.7917 19.9227
" />
<path d="M26.7917 19.9227
L26.7440 20.0179
" />
<path d="M26.7440 20.0179
L26.6964 20.0655
" />
<path d="M26.6964 20.0655
L26.6012 20.1131
" />
<path d="M26.6012 20.1131
L26.2202 20.1131
" />
<path d="M27.7440 20.5893
L27.1726 20.5893
" />
<path d="M27.4583 20.5893
L27.4583 19.5893
" />
<path d="M27.4583 19.5893
L27.3631 19.7322
" />
<path d="M27.3631 19.7322
L27.2679 19.8274
" />
<path d="M27.2679 19.8274
L27.1726 19.8750
" />
</g><text x="31.2183" y="39.4885"
textLength="3.5833" font-size="1.3333" lengthAdjust="spacingAndGlyphs"
text-anchor="middle" opacity="0" stroke-opacity="0">LEFT</text>
<g class="stroked-text"><desc>LEFT</desc>
<path d="M30.2660 39.4433
L29.7898 39.4433
" />
<path d="M29.7898 39.4433
L29.7898 38.4433
" />
<path d="M30.5993 38.9195
L30.9326 38.9195
" />
<path d="M31.0755 39.4433
L30.5993 39.4433
" />
<path d="M30.5993 39.4433
L30.5993 38.4433
" />
<path d="M30.5993 38.4433
L31.0755 38.4433
" />
<path d="M31.8374 38.9195
L31.5040 38.9195
" />
<path d="M31.5040 39.4433
L31.5040 38.4433
" />
<path d="M31.5040 38.4433
L31.9802 38.4433
" />
<path d="M32.2183 38.4433
L32.7898 38.4433
" />
<path d="M32.5040 39.4433
L32.5040 38.4433
" />
</g><text x="22.5183" y="26.5658"
textLength="3.2976" font-size="1.3333" lengthAdjust="spacingAndGlyphs"
text-anchor="middle" opacity="0" stroke-opacity="0">SW1</text>
<g class="stroked-text"><desc>SW1</desc>
<path d="M21.1850 26.4730
L21.3279 26.5206
" />
<path d="M21.3279 26.5206
L21.5660 26.5206
" />
<path d="M21.5660 26.5206
L21.6612 26.4730
" />
<path d="M21.6612 26.4730
L21.7088 26.4254
" />
<path d="M21.7088 26.4254
L21.7564 26.3301
" />
<path d="M21.7564 26.3301
L21.7564 26.2349
" />
<path d="M21.7564 26.2349
L21.7088 26.1397
" />
<path d="M21.7088 26.1397
L21.6612 26.0920
" />
<path d="M21.6612 26.0920
L21.5660 26.0444
" />
<path d="M21.5660 26.0444
L21.3755 25.9968
" />
<path d="M21.3755 25.9968
L21.2802 25.9492
" />
<path d="M21.2802 25.9492
L21.2326 25.9016
" />
<path d="M21.2326 25.9016
L21.1850 25.8063
" />
<path d="M21.1850 25.8063
L21.1850 25.7111
" />
<path d="M21.1850 25.7111
L21.2326 25.6159
" />
<path d="M21.2326 25.6159
L21.2802 25.5682
" />
<path d="M21.2802 25.5682
L21.3755 25.5206
" />
<path d="M21.3755 25.5206
L21.6136 25.5206
" />
<path d="M21.6136 25.5206
L21.7564 25.5682
" />
<path d="M22.0898 25.5206
L22.3279 26.5206
" />
<path d="M22.3279 26.5206
L22.5183 25.8063
" />
<path d="M22.5183 25.8063
L22.7088 26.5206
" />
<path d="M22.7088 26.5206
L22.9469 25.5206
" />
<path d="M23.8517 26.5206
L23.2802 26.5206
" />
<path d="M23.5660 26.5206
L23.5660 25.5206
" />
<path d="M23.5660 25.5206
L23.4707 25.6635
" />
<path d="M23.4707 25.6635
L23.3755 25.7587
" />
<path d="M23.3755 25.7587
L23.2802 25.8063
" />
</g><text x="41.3783" y="39.4885"
textLength="3.2976" font-size="1.3333" lengthAdjust="spacingAndGlyphs"
text-anchor="middle" opacity="0" stroke-opacity="0">GND</text>
<g class="stroked-text"><desc>GND</desc>
<path d="M40.6164 38.4909
L40.5212 38.4433
" />
<path d="M40.5212 38.4433
L40.3783 38.4433
" />
<path d="M40.3783 38.4433
L40.2355 38.4909
" />
<path d="M40.2355 38.4909
L40.1402 38.5862
" />
<path d="M40.1402 38.5862
L40.0926 38.6814
" />
<path d="M40.0926 38.6814
L40.0450 38.8719
" />
<path d="M40.0450 38.8719
L40.0450 39.0147
" />
<path d="M40.0450 39.0147
L40.0926 39.2052
" />
<path d="M40.0926 39.2052
L40.1402 39.3005
" />
<path d="M40.1402 39.3005
L40.2355 39.3957
" />
<path d="M40.2355 39.3957
L40.3783 39.4433
" />
<path d="M40.3783 39.4433
L40.4736 39.4433
" />
<path d="M40.4736 39.4433
L40.6164 39.3957
" />
<path d="M40.6164 39.3957
L40.6640 39.3481
" />
<path d="M40.6640 39.3481
L40.6640 39.0147
" />
<path d="M40.6640 39.0147
L40.4736 39.0147
" />
<path d="M41.0926 39.4433
L41.0926 38.4433
" />
<path d="M41.0926 38.4433
L41.6640 39.4433
" />
<path d="M41.6640 39.4433
L41.6640 38.4433
" />
<path d="M42.1402 39.4433
L42.1402 38.4433
" />
<path d="M42.1402 38.4433
L42.3783 38.4433
" />
<path d="M42.3783 38.4433
L42.5212 38.4909
" />
<path d="M42.5212 38.4909
L42.6164 38.5862
" />
<path d="M42.6164 38.5862
L42.6640 38.6814
" />
<path d="M42.6640 38.6814
L42.7117 38.8719
" />
<path d="M42.7117 38.8719
L42.7117 39.0147
" />
<path d="M42.7117 39.0147
L42.6640 39.2052
" />
<path d="M42.6640 39.2052
L42.6164 39.3005
" />
<path d="M42.6164 39.3005
L42.5212 39.3957
" />
<path d="M42.5212 39.3957
L42.3783 39.4433
" />
<path d="M42.3783 39.4433
L42.1402 39.4433
" />
</g><text x="41.1583" y="20.6345"
textLength="2.2024" font-size="1.3333" lengthAdjust="spacingAndGlyphs"
text-anchor="middle" opacity="0" stroke-opacity="0">R2</text>
<g class="stroked-text"><desc>R2</desc>
<path d="M40.9917 20.5893
L40.6583 20.1131
" />
<path d="M40.4202 20.5893
L40.4202 19.5893
" />
<path d="M40.4202 19.5893
L40.8012 19.5893
" />
<path d="M40.8012 19.5893
L40.8964 19.6369
" />
<path d="M40.8964 19.6369
L40.9440 19.6846
" />
<path d="M40.9440 19.6846
L40.9917 19.7798
" />
<path d="M40.9917 19.7798
L40.9917 19.9227
" />
<path d="M40.9917 19.9227
L40.9440 20.0179
" />
<path d="M40.9440 20.0179
L40.8964 20.0655
" />
<path d="M40.8964 20.0655
L40.8012 20.1131
" />
<path d="M40.8012 20.1131
L40.4202 20.1131
" />
<path d="M41.3726 19.6846
L41.4202 19.6369
" />
<path d="M41.4202 19.6369
L41.5155 19.5893
" />
<path d="M41.5155 19.5893
L41.7536 19.5893
" />
<path d="M41.7536 19.5893
L41.8488 19.6369
" />
<path d="M41.8488 19.6369
L41.8964 19.6846
" />
<path d="M41.8964 19.6846
L41.9440 19.7798
" />
<path d="M41.9440 19.7798
L41.9440 19.8750
" />
<path d="M41.9440 19.8750
L41.8964 20.0179
" />
<path d="M41.8964 20.0179
L41.3250 20.5893
" />
<path d="M41.3250 20.5893
L41.9440 20.5893
" />
</g><text x="21.0533" y="11.6085"
textLength="2.2024" font-size="1.3333" lengthAdjust="spacingAndGlyphs"
text-anchor="middle" opacity="0" stroke-opacity="0">D1</text>
<g class="stroked-text"><desc>D1</desc>
<path d="M20.3152 11.5633
L20.3152 10.5633
" />
<path d="M20.3152 10.5633
L20.5533 10.5633
" />
<path d="M20.5533 10.5633
L20.6962 10.6109
" />
<path d="M20.6962 10.6109
L20.7914 10.7062
" />
<path d="M20.7914 10.7062
L20.8390 10.8014
" />
<path d="M20.8390 10.8014
L20.8867 10.9919
" />
<path d="M20.8867 10.9919
L20.8867 11.1347
" />
<path d="M20.8867 11.1347
L20.8390 11.3252
" />
<path d="M20.8390 11.3252
L20.7914 11.4205
" />
<path d="M20.7914 11.4205
L20.6962 11.5157
" />
<path d="M20.6962 11.5157
L20.5533 11.5633
" />
<path d="M20.5533 11.5633
L20.3152 11.5633
" />
<path d="M21.8390 11.5633
L21.2676 11.5633
" />
<path d="M21.5533 11.5633
L21.5533 10.5633
" />
<path d="M21.5533 10.5633
L21.4581 10.7062
" />
<path d="M21.4581 10.7062
L21.3629 10.8014
" />
<path d="M21.3629 10.8014
L21.2676 10.8490
" />
</g><text x="46.4623" y="11.6264"
textLength="2.2024" font-size="1.3333" lengthAdjust="spacingAndGlyphs"
text-anchor="middle" opacity="0" stroke-opacity="0">D2</text>
<g class="stroked-text"><desc>D2</desc>
<path d="M45.7242 11.5812
L45.7242 10.5812
" />
<path d="M45.7242 10.5812
L45.9623 10.5812
" />
<path d="M45.9623 10.5812
L46.1052 10.6289
" />
<path d="M46.1052 10.6289
L46.2004 10.7241
" />
<path d="M46.2004 10.7241
L46.2480 10.8193
" />
<path d="M46.2480 10.8193
L46.2957 11.0098
" />
<path d="M46.2957 11.0098
L46.2957 11.1527
" />
<path d="M46.2957 11.1527
L46.2480 11.3431
" />
<path d="M46.2480 11.3431
L46.2004 11.4384
" />
<path d="M46.2004 11.4384
L46.1052 11.5336
" />
<path d="M46.1052 11.5336
L45.9623 11.5812
" />
<path d="M45.9623 11.5812
L45.7242 11.5812
" />
<path d="M46.6766 10.6765
L46.7242 10.6289
" />
<path d="M46.7242 10.6289
L46.8195 10.5812
" />
<path d="M46.8195 10.5812
L47.0576 10.5812
" />
<path d="M47.0576 10.5812
L47.1528 10.6289
" />
<path d="M47.1528 10.6289
L47.2004 10.6765
" />
<path d="M47.2004 10.6765
L47.2480 10.7717
" />
<path d="M47.2480 10.7717
L47.2480 10.8670
" />
<path d="M47.2480 10.8670
L47.2004 11.0098
" />
<path d="M47.2004 11.0098
L46.6290 11.5812
" />
<path d="M46.6290 11.5812
L47.2480 11.5812
" />
</g><text x="26.1383" y="39.4885"
textLength="4.4881" font-size="1.3333" lengthAdjust="spacingAndGlyphs"
text-anchor="middle" opacity="0" stroke-opacity="0">VBATT</text>
<g class="stroked-text"><desc>VBATT</desc>
<path d="M24.1145 38.4433
L24.4479 39.4433
" />
<path d="M24.4479 39.4433
L24.7812 38.4433
" />
<path d="M25.4479 38.9195
L25.5907 38.9671
" />
<path d="M25.5907 38.9671
L25.6383 39.0147
" />
<path d="M25.6383 39.0147
L25.6860 39.1100
" />
<path d="M25.6860 39.1100
L25.6860 39.2528
" />
<path d="M25.6860 39.2528
L25.6383 39.3481
" />
<path d="M25.6383 39.3481
L25.5907 39.3957
" />
<path d="M25.5907 39.3957
L25.4955 39.4433
" />
<path d="M25.4955 39.4433
L25.1145 39.4433
" />
<path d="M25.1145 39.4433
L25.1145 38.4433
" />
<path d="M25.1145 38.4433
L25.4479 38.4433
" />
<path d="M25.4479 38.4433
L25.5431 38.4909
" />
<path d="M25.5431 38.4909
L25.5907 38.5386
" />
<path d="M25.5907 38.5386
L25.6383 38.6338
" />
<path d="M25.6383 38.6338
L25.6383 38.7290
" />
<path d="M25.6383 38.7290
L25.5907 38.8243
" />
<path d="M25.5907 38.8243
L25.5431 38.8719
" />
<path d="M25.5431 38.8719
L25.4479 38.9195
" />
<path d="M25.4479 38.9195
L25.1145 38.9195
" />
<path d="M26.0669 39.1576
L26.5431 39.1576
" />
<path d="M25.9717 39.4433
L26.3050 38.4433
" />
<path d="M26.3050 38.4433
L26.6383 39.4433
" />
<path d="M26.8288 38.4433
L27.4002 38.4433
" />
<path d="M27.1145 39.4433
L27.1145 38.4433
" />
<path d="M27.5907 38.4433
L28.1621 38.4433
" />
<path d="M27.8764 39.4433
L27.8764 38.4433
" />
</g><text x="44.9983" y="26.5658"
textLength="3.2976" font-size="1.3333" lengthAdjust="spacingAndGlyphs"
text-anchor="middle" opacity="0" stroke-opacity="0">SW2</text>
<g class="stroked-text"><desc>SW2</desc>
<path d="M43.6650 26.4730
L43.8079 26.5206
" />
<path d="M43.8079 26.5206
L44.0460 26.5206
" />
<path d="M44.0460 26.5206
L44.1412 26.4730
" />
<path d="M44.1412 26.4730
L44.1888 26.4254
" />
<path d="M44.1888 26.4254
L44.2364 26.3301
" />
<path d="M44.2364 26.3301
L44.2364 26.2349
" />
<path d="M44.2364 26.2349
L44.1888 26.1397
" />
<path d="M44.1888 26.1397
L44.1412 26.0920
" />
<path d="M44.1412 26.0920
L44.0460 26.0444
" />
<path d="M44.0460 26.0444
L43.8555 25.9968
" />
<path d="M43.8555 25.9968
L43.7602 25.9492
" />
<path d="M43.7602 25.9492
L43.7126 25.9016
" />
<path d="M43.7126 25.9016
L43.6650 25.8063
" />
<path d="M43.6650 25.8063
L43.6650 25.7111
" />
<path d="M43.6650 25.7111
L43.7126 25.6159
" />
<path d="M43.7126 25.6159
L43.7602 25.5682
" />
<path d="M43.7602 25.5682
L43.8555 25.5206
" />
<path d="M43.8555 25.5206
L44.0936 25.5206
" />
<path d="M44.0936 25.5206
L44.2364 25.5682
" />
<path d="M44.5698 25.5206
L44.8079 26.5206
" />
<path d="M44.8079 26.5206
L44.9983 25.8063
" />
<path d="M44.9983 25.8063
L45.1888 26.5206
" />
<path d="M45.1888 26.5206
L45.4269 25.5206
" />
<path d="M45.7602 25.6159
L45.8079 25.5682
" />
<path d="M45.8079 25.5682
L45.9031 25.5206
" />
<path d="M45.9031 25.5206
L46.1412 25.5206
" />
<path d="M46.1412 25.5206
L46.2364 25.5682
" />
<path d="M46.2364 25.5682
L46.2840 25.6159
" />
<path d="M46.2840 25.6159
L46.3317 25.7111
" />
<path d="M46.3317 25.7111
L46.3317 25.8063
" />
<path d="M46.3317 25.8063
L46.2840 25.9492
" />
<path d="M46.2840 25.9492
L45.7126 26.5206
" />
<path d="M45.7126 26.5206
L46.3317 26.5206
" />
</g><text x="33.7583" y="44.9845"
textLength="1.9643" font-size="1.3333" lengthAdjust="spacingAndGlyphs"
text-anchor="middle" opacity="0" stroke-opacity="0">J1</text>
<g class="stroked-text"><desc>J1</desc>
<path d="M33.4250 43.9393
L33.4250 44.6536
" />
<path d="M33.4250 44.6536
L33.3774 44.7965
" />
<path d="M33.3774 44.7965
L33.2821 44.8917
" />
<path d="M33.2821 44.8917
L33.1393 44.9393
" />
<path d="M33.1393 44.9393
L33.0440 44.9393
" />
<path d="M34.4250 44.9393
L33.8536 44.9393
" />
<path d="M34.1393 44.9393
L34.1393 43.9393
" />
<path d="M34.1393 43.9393
L34.0440 44.0822
" />
<path d="M34.0440 44.0822
L33.9488 44.1774
" />
<path d="M33.9488 44.1774
L33.8536 44.2250
" />
</g><text x="36.2983" y="39.4885"
textLength="4.5357" font-size="1.3333" lengthAdjust="spacingAndGlyphs"
text-anchor="middle" opacity="0" stroke-opacity="0">RIGHT</text>
<g class="stroked-text"><desc>RIGHT</desc>
<path d="M34.9650 39.4433
L34.6317 38.9671
" />
<path d="M34.3936 39.4433
L34.3936 38.4433
" />
<path d="M34.3936 38.4433
L34.7745 38.4433
" />
<path d="M34.7745 38.4433
L34.8698 38.4909
" />
<path d="M34.8698 38.4909
L34.9174 38.5386
" />
<path d="M34.9174 38.5386
L34.9650 38.6338
" />
<path d="M34.9650 38.6338
L34.9650 38.7767
" />
<path d="M34.9650 38.7767
L34.9174 38.8719
" />
<path d="M34.9174 38.8719
L34.8698 38.9195
" />
<path d="M34.8698 38.9195
L34.7745 38.9671
" />
<path d="M34.7745 38.9671
L34.3936 38.9671
" />
<path d="M35.3936 39.4433
L35.3936 38.4433
" />
<path d="M36.3936 38.4909
L36.2983 38.4433
" />
<path d="M36.2983 38.4433
L36.1555 38.4433
" />
<path d="M36.1555 38.4433
L36.0126 38.4909
" />
<path d="M36.0126 38.4909
L35.9174 38.5862
" />
<path d="M35.9174 38.5862
L35.8698 38.6814
" />
<path d="M35.8698 38.6814
L35.8221 38.8719
" />
<path d="M35.8221 38.8719
L35.8221 39.0147
" />
<path d="M35.8221 39.0147
L35.8698 39.2052
" />
<path d="M35.8698 39.2052
L35.9174 39.3005
" />
<path d="M35.9174 39.3005
L36.0126 39.3957
" />
<path d="M36.0126 39.3957
L36.1555 39.4433
" />
<path d="M36.1555 39.4433
L36.2507 39.4433
" />
<path d="M36.2507 39.4433
L36.3936 39.3957
" />
<path d="M36.3936 39.3957
L36.4412 39.3481
" />
<path d="M36.4412 39.3481
L36.4412 39.0147
" />
<path d="M36.4412 39.0147
L36.2507 39.0147
" />
<path d="M36.8698 39.4433
L36.8698 38.4433
" />
<path d="M36.8698 38.9195
L37.4412 38.9195
" />
<path d="M37.4412 39.4433
L37.4412 38.4433
" />
<path d="M37.7745 38.4433
L38.3460 38.4433
" />
<path d="M38.0602 39.4433
L38.0602 38.4433
" />
</g></g>
<g style="fill:none; 
stroke:#008484; stroke-width:0.1200; stroke-opacity:1; 
stroke-linecap:round; stroke-linejoin:round;">
<path d="M22.7983 22.4745
L23.5683 22.4745
" />
<path d="M23.5683 21.1045
L23.5683 23.8445
" />
<path d="M23.5683 23.8445
L30.1083 23.8445
" />
<path d="M30.1083 21.1045
L23.5683 21.1045
" />
<path d="M30.1083 23.8445
L30.1083 21.1045
" />
<path d="M30.8783 22.4745
L30.1083 22.4745
" />
</g>
<g style="fill:none; 
stroke:#008484; stroke-width:0.1500; stroke-opacity:1; 
stroke-linecap:round; stroke-linejoin:round;">
<circle cx="31.2183" cy="41.5285" r="1.4000" /> 
</g>
<g style="fill:none; 
stroke:#008484; stroke-width:0.1200; stroke-opacity:1; 
stroke-linecap:round; stroke-linejoin:round;">
<path d="M17.2483 27.8458
L17.2483 26.8458
" />
<path d="M17.4983 36.5358
L17.4983 27.0958
" />
<path d="M18.2483 26.8458
L17.2483 26.8458
" />
<path d="M20.8183 30.1158
L20.8183 33.4158
" />
<path d="M24.1183 30.1158
L20.8183 30.1158
" />
<path d="M24.1183 30.1158
L24.1183 33.4158
" />
<path d="M24.1183 33.4158
L20.8183 33.4158
" />
<path d="M27.5383 27.0958
L17.4983 27.0958
" />
<path d="M27.5383 36.5358
L17.4983 36.5358
" />
<path d="M27.5383 36.5358
L27.5383 27.0958
" />
</g>
<g style="fill:none; 
stroke:#008484; stroke-width:0.1500; stroke-opacity:1; 
stroke-linecap:round; stroke-linejoin:round;">
<circle cx="41.3783" cy="41.5285" r="1.4000" /> 
</g>
<g style="fill:none; 
stroke:#008484; stroke-width:0.1200; stroke-opacity:1; 
stroke-linecap:round; stroke-linejoin:round;">
<path d="M37.1183 22.4745
L37.8883 22.4745
" />
<path d="M37.8883 21.1045
L37.8883 23.8445
" />
<path d="M37.8883 23.8445
L44.4283 23.8445
" />
<path d="M44.4283 21.1045
L37.8883 21.1045
" />
<path d="M44.4283 23.8445
L44.4283 21.1045
" />
<path d="M45.1983 22.4745
L44.4283 22.4745
" />
<path d="M18.4933 13.5235
L18.4933 16.6135
" />
<path d="M24.0433 15.0685 A2.9900 2.9900 0.0 0 0 18.4933 13.5237" />
<path d="M18.4933 16.6133 A2.9900 2.9900 0.0 0 0 24.0433 15.0685" />
<circle cx="21.0533" cy="15.0685" r="2.5000" /> 
<path d="M49.0223 16.6135
L49.0223 13.5235
" />
<path d="M49.0223 13.5237 A2.9900 2.9900 0.0 0 0 43.4723 15.0685" />
<path d="M43.4723 15.0685 A2.9900 2.9900 0.0 0 0 49.0223 16.6133" />
<circle cx="46.4623" cy="15.0685" r="2.5000" /> 
</g>
<g style="fill:none; 
stroke:#008484; stroke-width:0.1500; stroke-opacity:1; 
stroke-linecap:round; stroke-linejoin:round;">
<circle cx="26.1383" cy="41.5285" r="1.4000" /> 
</g>
<g style="fill:none; 
stroke:#008484; stroke-width:0.1200; stroke-opacity:1; 
stroke-linecap:round; stroke-linejoin:round;">
<path d="M39.7283 27.8458
L39.7283 26.8458
" />
<path d="M39.9783 36.5358
L39.9783 27.0958
" />
<path d="M40.7283 26.8458
L39.7283 26.8458
" />
<path d="M43.2983 30.1158
L43.2983 33.4158
" />
<path d="M46.5983 30.1158
L43.2983 30.1158
" />
<path d="M46.5983 30.1158
L46.5983 33.4158
" />
<path d="M46.5983 33.4158
L43.2983 33.4158
" />
<path d="M50.0183 27.0958
L39.9783 27.0958
" />
<path d="M50.0183 36.5358
L39.9783 36.5358
" />
<path d="M50.0183 36.5358
L50.0183 27.0958
" />
<path d="M27.4483 45.5745
L28.8683 45.5745
" />
<path d="M27.4483 57.2945
L27.4483 45.5745
" />
<path d="M28.8683 45.5745
L28.8683 50.0745
" />
<path d="M29.7083 47.4845
L30.3083 47.4845
" />
<path d="M29.7583 51.1845
L29.7583 56.6845
" />
<path d="M29.7583 56.6845
L30.2583 56.6845
" />
<path d="M30.0083 48.0845
L29.7083 47.4845
" />
<path d="M30.2583 51.1845
L29.7583 51.1845
" />
<path d="M30.2583 56.6845
L30.2583 51.1845
" />
<path d="M30.3083 47.4845
L30.0083 48.0845
" />
<path d="M32.2583 51.1845
L32.2583 56.6845
" />
<path d="M32.2583 56.6845
L32.7583 56.6845
" />
<path d="M32.7583 51.1845
L32.2583 51.1845
" />
<path d="M32.7583 56.6845
L32.7583 51.1845
" />
<path d="M33.7583 57.2945
L27.4483 57.2945
" />
<path d="M33.7583 57.2945
L40.0683 57.2945
" />
<path d="M34.7583 51.1845
L34.7583 56.6845
" />
<path d="M34.7583 56.6845
L35.2583 56.6845
" />
<path d="M35.2583 51.1845
L34.7583 51.1845
" />
<path d="M35.2583 56.6845
L35.2583 51.1845
" />
<path d="M37.2583 51.1845
L37.2583 56.6845
" />
<path d="M37.2583 56.6845
L37.7583 56.6845
" />
<path d="M37.7583 51.1845
L37.2583 51.1845
" />
<path d="M37.7583 56.6845
L37.7583 51.1845
" />
<path d="M38.6483 45.5745
L38.6483 50.0745
" />
<path d="M40.0683 45.5745
L38.6483 45.5745
" />
<path d="M40.0683 57.2945
L40.0683 45.5745
" />
</g>
<g style="fill:none; 
stroke:#008484; stroke-width:0.1500; stroke-opacity:1; 
stroke-linecap:round; stroke-linejoin:round;">
<circle cx="36.2983" cy="41.5285" r="1.4000" /> 
</g>
<g style="fill:#008484; fill-opacity:1.0000; stroke:none;">
<circle cx="31.9183" cy="22.4745" r="0.4000" /> 
</g>
<g style="fill:#008484; fill-opacity:1.0000; stroke:none;">
<circle cx="21.7583" cy="22.4745" r="0.4000" /> 
</g>
<g style="fill:#008484; fill-opacity:1.0000; stroke:none;">
<circle cx="54.8583" cy="14.0345" r="1.5000" /> 
</g>
<g style="fill:#008484; fill-opacity:1.0000; stroke:none;">
<circle cx="31.2183" cy="41.5285" r="0.5000" /> 
</g>
<g style="fill:#008484; fill-opacity:1.0000; stroke:none;">
<circle cx="54.8583" cy="53.4345" r="1.5000" /> 
</g>
<g style="fill:#008484; fill-opacity:1.0000; stroke:none;">
<circle cx="20.0183" cy="28.8158" r="0.4500" /> 
</g>
<g style="fill:#008484; fill-opacity:1.0000; stroke:none;">
<circle cx="22.5183" cy="28.8158" r="0.4500" /> 
</g>
<g style="fill:#008484; fill-opacity:1.0000; stroke:none;">
<circle cx="25.0183" cy="28.8158" r="0.4500" /> 
</g>
<g style="fill:#008484; fill-opacity:1.0000; stroke:none;">
<circle cx="20.0183" cy="34.8158" r="0.4500" /> 
</g>
<g style="fill:#008484; fill-opacity:1.0000; stroke:none;">
<circle cx="22.5183" cy="34.8158" r="0.4500" /> 
</g>
<g style="fill:#008484; fill-opacity:1.0000; stroke:none;">
<circle cx="25.0183" cy="34.8158" r="0.4500" /> 
</g>
<g style="fill:#008484; fill-opacity:1.0000; stroke:none;">
<circle cx="41.3783" cy="41.5285" r="0.5000" /> 
</g>
<g style="fill:#008484; fill-opacity:1.0000; stroke:none;">
<circle cx="46.2383" cy="22.4745" r="0.4000" /> 
</g>
<g style="fill:#008484; fill-opacity:1.0000; stroke:none;">
<circle cx="36.0783" cy="22.4745" r="0.4000" /> 
</g>
<g style="fill:#008484; fill-opacity:1.0000; stroke:none;">
<circle cx="19.7833" cy="15.0685" r="0.4500" /> 
</g>
<g style="fill:#008484; fill-opacity:1.0000; stroke:none;">
<circle cx="22.3233" cy="15.0685" r="0.4500" /> 
</g>
<g style="fill:#008484; fill-opacity:1.0000; stroke:none;">
<circle cx="47.7323" cy="15.0685" r="0.4500" /> 
</g>
<g style="fill:#008484; fill-opacity:1.0000; stroke:none;">
<circle cx="45.1923" cy="15.0685" r="0.4500" /> 
</g>
<g style="fill:#008484; fill-opacity:1.0000; stroke:none;">
<circle cx="26.1383" cy="41.5285" r="0.5000" /> 
</g>
<g style="fill:#008484; fill-opacity:1.0000; stroke:none;">
<circle cx="12.6583" cy="53.4345" r="1.5000" /> 
</g>
<g style="fill:#008484; fill-opacity:1.0000; stroke:none;">
<circle cx="42.4983" cy="28.8158" r="0.4500" /> 
</g>
<g style="fill:#008484; fill-opacity:1.0000; stroke:none;">
<circle cx="44.9983" cy="28.8158" r="0.4500" /> 
</g>
<g style="fill:#008484; fill-opacity:1.0000; stroke:none;">
<circle cx="47.4983" cy="28.8158" r="0.4500" /> 
</g>
<g style="fill:#008484; fill-opacity:1.0000; stroke:none;">
<circle cx="42.4983" cy="34.8158" r="0.4500" /> 
</g>
<g style="fill:#008484; fill-opacity:1.0000; stroke:none;">
<circle cx="44.9983" cy="34.8158" r="0.4500" /> 
</g>
<g style="fill:#008484; fill-opacity:1.0000; stroke:none;">
<circle cx="47.4983" cy="34.8158" r="0.4500" /> 
</g>
<g style="fill:#008484; fill-opacity:1.0000; stroke:none;">
<circle cx="30.0083" cy="49.5845" r="0.4750" /> 
</g>
<g style="fill:#008484; fill-opacity:1.0000; stroke:none;">
<circle cx="32.5083" cy="49.5845" r="0.4750" /> 
</g>
<g style="fill:#008484; fill-opacity:1.0000; stroke:none;">
<circle cx="35.0083" cy="49.5845" r="0.4750" /> 
</g>
<g style="fill:#008484; fill-opacity:1.0000; stroke:none;">
<circle cx="37.5083" cy="49.5845" r="0.4750" /> 
</g>
<g style="fill:#008484; fill-opacity:1.0000; stroke:none;">
<circle cx="36.2983" cy="41.5285" r="0.5000" /> 
</g>
<g style="fill:#008484; fill-opacity:1.0000; stroke:none;">
<circle cx="12.6583" cy="14.0345" r="1.5000" /> 
<path style="fill:none; 
stroke:#C2C200; stroke-width:0.2000; stroke-opacity:1; 
stroke-linecap:round; stroke-linejoin:round;fill:none"
d="M 8.3583,9.7345
59.1583,9.7345
59.1583,57.7345
8.3583,57.7345
Z" /> 
</g>
<g style="fill:#C2C200; fill-opacity:1.0000; stroke:none;">
<circle cx="31.9183" cy="22.4745" r="0.4000" /> 
</g>
<g style="fill:#C2C200; fill-opacity:1.0000; stroke:none;">
<circle cx="21.7583" cy="22.4745" r="0.4000" /> 
</g>
<g style="fill:#C2C200; fill-opacity:1.0000; stroke:none;">
<circle cx="54.8583" cy="14.0345" r="1.5000" /> 
</g>
<g style="fill:#C2C200; fill-opacity:1.0000; stroke:none;">
<circle cx="31.2183" cy="41.5285" r="0.5000" /> 
</g>
<g style="fill:#C2C200; fill-opacity:1.0000; stroke:none;">
<circle cx="54.8583" cy="53.4345" r="1.5000" /> 
</g>
<g style="fill:#C2C200; fill-opacity:1.0000; stroke:none;">
<circle cx="20.0183" cy="28.8158" r="0.4500" /> 
</g>
<g style="fill:#C2C200; fill-opacity:1.0000; stroke:none;">
<circle cx="22.5183" cy="28.8158" r="0.4500" /> 
</g>
<g style="fill:#C2C200; fill-opacity:1.0000; stroke:none;">
<circle cx="25.0183" cy="28.8158" r="0.4500" /> 
</g>
<g style="fill:#C2C200; fill-opacity:1.0000; stroke:none;">
<circle cx="20.0183" cy="34.8158" r="0.4500" /> 
</g>
<g style="fill:#C2C200; fill-opacity:1.0000; stroke:none;">
<circle cx="22.5183" cy="34.8158" r="0.4500" /> 
</g>
<g style="fill:#C2C200; fill-opacity:1.0000; stroke:none;">
<circle cx="25.0183" cy="34.8158" r="0.4500" /> 
</g>
<g style="fill:#C2C200; fill-opacity:1.0000; stroke:none;">
<circle cx="41.3783" cy="41.5285" r="0.5000" /> 
</g>
<g style="fill:#C2C200; fill-opacity:1.0000; stroke:none;">
<circle cx="46.2383" cy="22.4745" r="0.4000" /> 
</g>
<g style="fill:#C2C200; fill-opacity:1.0000; stroke:none;">
<circle cx="36.0783" cy="22.4745" r="0.4000" /> 
</g>
<g style="fill:#C2C200; fill-opacity:1.0000; stroke:none;">
<circle cx="19.7833" cy="15.0685" r="0.4500" /> 
</g>
<g style="fill:#C2C200; fill-opacity:1.0000; stroke:none;">
<circle cx="22.3233" cy="15.0685" r="0.4500" /> 
</g>
<g style="fill:#C2C200; fill-opacity:1.0000; stroke:none;">
<circle cx="47.7323" cy="15.0685" r="0.4500" /> 
</g>
<g style="fill:#C2C200; fill-opacity:1.0000; stroke:none;">
<circle cx="45.1923" cy="15.0685" r="0.4500" /> 
</g>
<g style="fill:#C2C200; fill-opacity:1.0000; stroke:none;">
<circle cx="26.1383" cy="41.5285" r="0.5000" /> 
</g>
<g style="fill:#C2C200; fill-opacity:1.0000; stroke:none;">
<circle cx="12.6583" cy="53.4345" r="1.5000" /> 
</g>
<g style="fill:#C2C200; fill-opacity:1.0000; stroke:none;">
<circle cx="42.4983" cy="28.8158" r="0.4500" /> 
</g>
<g style="fill:#C2C200; fill-opacity:1.0000; stroke:none;">
<circle cx="44.9983" cy="28.8158" r="0.4500" /> 
</g>
<g style="fill:#C2C200; fill-opacity:1.0000; stroke:none;">
<circle cx="47.4983" cy="28.8158" r="0.4500" /> 
</g>
<g style="fill:#C2C200; fill-opacity:1.0000; stroke:none;">
<circle cx="42.4983" cy="34.8158" r="0.4500" /> 
</g>
<g style="fill:#C2C200; fill-opacity:1.0000; stroke:none;">
<circle cx="44.9983" cy="34.8158" r="0.4500" /> 
</g>
<g style="fill:#C2C200; fill-opacity:1.0000; stroke:none;">
<circle cx="47.4983" cy="34.8158" r="0.4500" /> 
</g>
<g style="fill:#C2C200; fill-opacity:1.0000; stroke:none;">
<circle cx="30.0083" cy="49.5845" r="0.4750" /> 
</g>
<g style="fill:#C2C200; fill-opacity:1.0000; stroke:none;">
<circle cx="32.5083" cy="49.5845" r="0.4750" /> 
</g>
<g style="fill:#C2C200; fill-opacity:1.0000; stroke:none;">
<circle cx="35.0083" cy="49.5845" r="0.4750" /> 
</g>
<g style="fill:#C2C200; fill-opacity:1.0000; stroke:none;">
<circle cx="37.5083" cy="49.5845" r="0.4750" /> 
</g>
<g style="fill:#C2C200; fill-opacity:1.0000; stroke:none;">
<circle cx="36.2983" cy="41.5285" r="0.5000" /> 
</g>
<g style="fill:#C2C200; fill-opacity:1.0000; stroke:none;">
<circle cx="12.6583" cy="14.0345" r="1.5000" /> 
</g>
<g style="fill:#008400; fill-opacity:1.0000; stroke:none;">
<circle cx="31.9183" cy="22.4745" r="0.8000" /> 
</g>
<g style="fill:#008400; fill-opacity:1.0000; stroke:none;">
<circle cx="21.7583" cy="22.4745" r="0.8000" /> 
<circle cx="31.2183" cy="41.5285" r="1.0000" /> 
<path style="fill:#008400; fill-opacity:1.0000; stroke:none;fill-rule:evenodd;"
d="M 19.1183,29.7158
19.1183,27.9158
20.9183,27.9158
20.9183,29.7158
Z" /> 
</g>
<g style="fill:#008400; fill-opacity:1.0000; stroke:none;">
<circle cx="22.5183" cy="28.8158" r="0.9000" /> 
</g>
<g style="fill:#008400; fill-opacity:1.0000; stroke:none;">
<circle cx="25.0183" cy="28.8158" r="0.9000" /> 
</g>
<g style="fill:#008400; fill-opacity:1.0000; stroke:none;">
<circle cx="20.0183" cy="34.8158" r="0.9000" /> 
</g>
<g style="fill:#008400; fill-opacity:1.0000; stroke:none;">
<circle cx="22.5183" cy="34.8158" r="0.9000" /> 
</g>
<g style="fill:#008400; fill-opacity:1.0000; stroke:none;">
<circle cx="25.0183" cy="34.8158" r="0.9000" /> 
</g>
<g style="fill:#008400; fill-opacity:1.0000; stroke:none;">
<circle cx="41.3783" cy="41.5285" r="1.0000" /> 
</g>
<g style="fill:#008400; fill-opacity:1.0000; stroke:none;">
<circle cx="46.2383" cy="22.4745" r="0.8000" /> 
</g>
<g style="fill:#008400; fill-opacity:1.0000; stroke:none;">
<circle cx="36.0783" cy="22.4745" r="0.8000" /> 
<path style="fill:#008400; fill-opacity:1.0000; stroke:none;fill-rule:evenodd;"
d="M 18.8833,15.9685
18.8833,14.1685
20.6833,14.1685
20.6833,15.9685
Z" /> 
<circle cx="22.3233" cy="15.0685" r="0.9000" /> 
<path style="fill:#008400; fill-opacity:1.0000; stroke:none;fill-rule:evenodd;"
d="M 48.6323,14.1685
48.6323,15.9685
46.8323,15.9685
46.8323,14.1685
Z" /> 
</g>
<g style="fill:#008400; fill-opacity:1.0000; stroke:none;">
<circle cx="45.1923" cy="15.0685" r="0.9000" /> 
</g>
<g style="fill:#008400; fill-opacity:1.0000; stroke:none;">
<circle cx="26.1383" cy="41.5285" r="1.0000" /> 
<path style="fill:#008400; fill-opacity:1.0000; stroke:none;fill-rule:evenodd;"
d="M 41.5983,29.7158
41.5983,27.9158
43.3983,27.9158
43.3983,29.7158
Z" /> 
</g>
<g style="fill:#008400; fill-opacity:1.0000; stroke:none;">
<circle cx="44.9983" cy="28.8158" r="0.9000" /> 
</g>
<g style="fill:#008400; fill-opacity:1.0000; stroke:none;">
<circle cx="47.4983" cy="28.8158" r="0.9000" /> 
</g>
<g style="fill:#008400; fill-opacity:1.0000; stroke:none;">
<circle cx="42.4983" cy="34.8158" r="0.9000" /> 
</g>
<g style="fill:#008400; fill-opacity:1.0000; stroke:none;">
<circle cx="44.9983" cy="34.8158" r="0.9000" /> 
</g>
<g style="fill:#008400; fill-opacity:1.0000; stroke:none;">
<circle cx="47.4983" cy="34.8158" r="0.9000" /> 
<path style="fill:#008400; fill-opacity:1.0000; stroke:none;fill-rule:evenodd;"
d="M 29.1583,48.8595
29.1774,48.7638
29.2316,48.6827
29.3127,48.6285
29.4083,48.6095
30.6083,48.6095
30.7040,48.6285
30.7851,48.6827
30.8393,48.7638
30.8583,48.8595
30.8583,50.3095
30.8393,50.4052
30.7851,50.4863
30.7040,50.5405
30.6083,50.5595
29.4083,50.5595
29.3127,50.5405
29.2316,50.4863
29.1774,50.4052
29.1583,50.3095
Z" /> 
</g>
<g style="fill:none; 
stroke:#008400; stroke-width:1.7000; stroke-opacity:1; 
stroke-linecap:round; stroke-linejoin:round;">
<path d="M32.5083 49.4595
L32.5083 49.7095
" />
<path d="M35.0083 49.4595
L35.0083 49.7095
" />
<path d="M37.5083 49.4595
L37.5083 49.7095
" />
</g>
<g style="fill:#008400; fill-opacity:1.0000; stroke:none;">
<circle cx="36.2983" cy="41.5285" r="1.0000" /> 
</g>
<g style="fill:none; 
stroke:#008400; stroke-width:0.2540; stroke-opacity:1; 
stroke-linecap:round; stroke-linejoin:round;">
<path d="M41.3783 38.9885
L40.6163 38.2265
" />
<path d="M16.6583 37.5345
L16.6583 29.6158
" />
<path d="M40.6163 38.2265
L17.3503 38.2265
" />
<path d="M41.3783 41.5285
L41.3783 38.9885
" />
<path d="M17.4583 28.8158
L20.0183 28.8158
" />
<path d="M42.4983 20.3025
L47.7323 15.0685
" />
<path d="M17.3503 38.2265
L16.6583 37.5345
" />
<path d="M42.4983 28.8158
L42.4983 20.3025
" />
<path d="M16.6583 29.6158
L17.4583 28.8158
" />
<path d="M48.9783 43.8145
L50.0583 42.7345
" />
<path d="M26.1383 43.5605
L26.3923 43.8145
" />
<path d="M48.0583 43.8145
L48.9783 43.8145
" />
<path d="M49.2583 28.8158
L47.4983 28.8158
" />
<path d="M50.0583 42.7345
L50.0583 29.6158
" />
<path d="M26.3923 43.8145
L48.0583 43.8145
" />
<path d="M50.0583 29.6158
L49.2583 28.8158
" />
<path d="M26.1383 41.5285
L26.1383 43.5605
" />
<path d="M44.9983 25.9545
L44.9983 28.8158
" />
<path d="M46.2383 22.4745
L46.2383 24.7145
" />
<path d="M46.2383 24.7145
L44.9983 25.9545
" />
</g>
<g style="fill:#FFFFFF; fill-opacity:1.0000; stroke:none;">
<circle cx="31.9183" cy="22.4745" r="0.4000" /> 
</g>
<g style="fill:#FFFFFF; fill-opacity:1.0000; stroke:none;">
<circle cx="21.7583" cy="22.4745" r="0.4000" /> 
</g>
<g style="fill:#FFFFFF; fill-opacity:1.0000; stroke:none;">
<circle cx="54.8583" cy="14.0345" r="1.5000" /> 
</g>
<g style="fill:#FFFFFF; fill-opacity:1.0000; stroke:none;">
<circle cx="31.2183" cy="41.5285" r="0.5000" /> 
</g>
<g style="fill:#FFFFFF; fill-opacity:1.0000; stroke:none;">
<circle cx="54.8583" cy="53.4345" r="1.5000" /> 
</g>
<g style="fill:#FFFFFF; fill-opacity:1.0000; stroke:none;">
<circle cx="20.0183" cy="28.8158" r="0.4500" /> 
</g>
<g style="fill:#FFFFFF; fill-opacity:1.0000; stroke:none;">
<circle cx="22.5183" cy="28.8158" r="0.4500" /> 
</g>
<g style="fill:#FFFFFF; fill-opacity:1.0000; stroke:none;">
<circle cx="25.0183" cy="28.8158" r="0.4500" /> 
</g>
<g style="fill:#FFFFFF; fill-opacity:1.0000; stroke:none;">
<circle cx="20.0183" cy="34.8158" r="0.4500" /> 
</g>
<g style="fill:#FFFFFF; fill-opacity:1.0000; stroke:none;">
<circle cx="22.5183" cy="34.8158" r="0.4500" /> 
</g>
<g style="fill:#FFFFFF; fill-opacity:1.0000; stroke:none;">
<circle cx="25.0183" cy="34.8158" r="0.4500" /> 
</g>
<g style="fill:#FFFFFF; fill-opacity:1.0000; stroke:none;">
<circle cx="41.3783" cy="41.5285" r="0.5000" /> 
</g>
<g style="fill:#FFFFFF; fill-opacity:1.0000; stroke:none;">
<circle cx="46.2383" cy="22.4745" r="0.4000" /> 
</g>
<g style="fill:#FFFFFF; fill-opacity:1.0000; stroke:none;">
<circle cx="36.0783" cy="22.4745" r="0.4000" /> 
</g>
<g style="fill:#FFFFFF; fill-opacity:1.0000; stroke:none;">
<circle cx="19.7833" cy="15.0685" r="0.4500" /> 
</g>
<g style="fill:#FFFFFF; fill-opacity:1.0000; stroke:none;">
<circle cx="22.3233" cy="15.0685" r="0.4500" /> 
</g>
<g style="fill:#FFFFFF; fill-opacity:1.0000; stroke:none;">
<circle cx="47.7323" cy="15.0685" r="0.4500" /> 
</g>
<g style="fill:#FFFFFF; fill-opacity:1.0000; stroke:none;">
<circle cx="45.1923" cy="15.0685" r="0.4500" /> 
</g>
<g style="fill:#FFFFFF; fill-opacity:1.0000; stroke:none;">
<circle cx="26.1383" cy="41.5285" r="0.5000" /> 
</g>
<g style="fill:#FFFFFF; fill-opacity:1.0000; stroke:none;">
<circle cx="12.6583" cy="53.4345" r="1.5000" /> 
</g>
<g style="fill:#FFFFFF; fill-opacity:1.0000; stroke:none;">
<circle cx="42.4983" cy="28.8158" r="0.4500" /> 
</g>
<g style="fill:#FFFFFF; fill-opacity:1.0000; stroke:none;">
<circle cx="44.9983" cy="28.8158" r="0.4500" /> 
</g>
<g style="fill:#FFFFFF; fill-opacity:1.0000; stroke:none;">
<circle cx="47.4983" cy="28.8158" r="0.4500" /> 
</g>
<g style="fill:#FFFFFF; fill-opacity:1.0000; stroke:none;">
<circle cx="42.4983" cy="34.8158" r="0.4500" /> 
</g>
<g style="fill:#FFFFFF; fill-opacity:1.0000; stroke:none;">
<circle cx="44.9983" cy="34.8158" r="0.4500" /> 
</g>
<g style="fill:#FFFFFF; fill-opacity:1.0000; stroke:none;">
<circle cx="47.4983" cy="34.8158" r="0.4500" /> 
</g>
<g style="fill:#FFFFFF; fill-opacity:1.0000; stroke:none;">
<circle cx="30.0083" cy="49.5845" r="0.4750" /> 
</g>
<g style="fill:#FFFFFF; fill-opacity:1.0000; stroke:none;">
<circle cx="32.5083" cy="49.5845" r="0.4750" /> 
</g>
<g style="fill:#FFFFFF; fill-opacity:1.0000; stroke:none;">
<circle cx="35.0083" cy="49.5845" r="0.4750" /> 
</g>
<g style="fill:#FFFFFF; fill-opacity:1.0000; stroke:none;">
<circle cx="37.5083" cy="49.5845" r="0.4750" /> 
</g>
<g style="fill:#FFFFFF; fill-opacity:1.0000; stroke:none;">
<circle cx="36.2983" cy="41.5285" r="0.5000" /> 
</g>
<g style="fill:#FFFFFF; fill-opacity:1.0000; stroke:none;">
<circle cx="12.6583" cy="14.0345" r="1.5000" /> 
</g>
<g style="fill:#840000; fill-opacity:1.0000; stroke:none;">
<circle cx="31.9183" cy="22.4745" r="0.8000" /> 
</g>
<g style="fill:#840000; fill-opacity:1.0000; stroke:none;">
<circle cx="21.7583" cy="22.4745" r="0.8000" /> 
<circle cx="31.2183" cy="41.5285" r="1.0000" /> 
<path style="fill:#840000; fill-opacity:1.0000; stroke:none;fill-rule:evenodd;"
d="M 19.1183,29.7158
19.1183,27.9158
20.9183,27.9158
20.9183,29.7158
Z" /> 
</g>
<g style="fill:#840000; fill-opacity:1.0000; stroke:none;">
<circle cx="22.5183" cy="28.8158" r="0.9000" /> 
</g>
<g style="fill:#840000; fill-opacity:1.0000; stroke:none;">
<circle cx="25.0183" cy="28.8158" r="0.9000" /> 
</g>
<g style="fill:#840000; fill-opacity:1.0000; stroke:none;">
<circle cx="20.0183" cy="34.8158" r="0.9000" /> 
</g>
<g style="fill:#840000; fill-opacity:1.0000; stroke:none;">
<circle cx="22.5183" cy="34.8158" r="0.9000" /> 
</g>
<g style="fill:#840000; fill-opacity:1.0000; stroke:none;">
<circle cx="25.0183" cy="34.8158" r="0.9000" /> 
</g>
<g style="fill:#840000; fill-opacity:1.0000; stroke:none;">
<circle cx="41.3783" cy="41.5285" r="1.0000" /> 
</g>
<g style="fill:#840000; fill-opacity:1.0000; stroke:none;">
<circle cx="46.2383" cy="22.4745" r="0.8000" /> 
</g>
<g style="fill:#840000; fill-opacity:1.0000; stroke:none;">
<circle cx="36.0783" cy="22.4745" r="0.8000" /> 
<path style="fill:#840000; fill-opacity:1.0000; stroke:none;fill-rule:evenodd;"
d="M 18.8833,15.9685
18.8833,14.1685
20.6833,14.1685
20.6833,15.9685
Z" /> 
<circle cx="22.3233" cy="15.0685" r="0.9000" /> 
<path style="fill:#840000; fill-opacity:1.0000; stroke:none;fill-rule:evenodd;"
d="M 48.6323,14.1685
48.6323,15.9685
46.8323,15.9685
46.8323,14.1685
Z" /> 
</g>
<g style="fill:#840000; fill-opacity:1.0000; stroke:none;">
<circle cx="45.1923" cy="15.0685" r="0.9000" /> 
</g>
<g style="fill:#840000; fill-opacity:1.0000; stroke:none;">
<circle cx="26.1383" cy="41.5285" r="1.0000" /> 
<path style="fill:#840000; fill-opacity:1.0000; stroke:none;fill-rule:evenodd;"
d="M 41.5983,29.7158
41.5983,27.9158
43.3983,27.9158
43.3983,29.7158
Z" /> 
</g>
<g style="fill:#840000; fill-opacity:1.0000; stroke:none;">
<circle cx="44.9983" cy="28.8158" r="0.9000" /> 
</g>
<g style="fill:#840000; fill-opacity:1.0000; stroke:none;">
<circle cx="47.4983" cy="28.8158" r="0.9000" /> 
</g>
<g style="fill:#840000; fill-opacity:1.0000; stroke:none;">
<circle cx="42.4983" cy="34.8158" r="0.9000" /> 
</g>
<g style="fill:#840000; fill-opacity:1.0000; stroke:none;">
<circle cx="44.9983" cy="34.8158" r="0.9000" /> 
</g>
<g style="fill:#840000; fill-opacity:1.0000; stroke:none;">
<circle cx="47.4983" cy="34.8158" r="0.9000" /> 
<path style="fill:#840000; fill-opacity:1.0000; stroke:none;fill-rule:evenodd;"
d="M 29.1583,48.8595
29.1774,48.7638
29.2316,48.6827
29.3127,48.6285
29.4083,48.6095
30.6083,48.6095
30.7040,48.6285
30.7851,48.6827
30.8393,48.7638
30.8583,48.8595
30.8583,50.3095
30.8393,50.4052
30.7851,50.4863
30.7040,50.5405
30.6083,50.5595
29.4083,50.5595
29.3127,50.5405
29.2316,50.4863
29.1774,50.4052
29.1583,50.3095
Z" /> 
</g>
<g style="fill:none; 
stroke:#840000; stroke-width:1.7000; stroke-opacity:1; 
stroke-linecap:round; stroke-linejoin:round;">
<path d="M32.5083 49.4595
L32.5083 49.7095
" />
<path d="M35.0083 49.4595
L35.0083 49.7095
" />
<path d="M37.5083 49.4595
L37.5083 49.7095
" />
</g>
<g style="fill:#840000; fill-opacity:1.0000; stroke:none;">
<circle cx="36.2983" cy="41.5285" r="1.0000" /> 
</g>
<g style="fill:none; 
stroke:#840000; stroke-width:0.2540; stroke-opacity:1; 
stroke-linecap:round; stroke-linejoin:round;">
<path d="M21.7583 15.6335
L22.3233 15.0685
" />
<path d="M21.7583 22.4745
L21.7583 15.6335
" />
<path d="M41.3783 48.1325
L41.3783 41.5285
" />
<path d="M20.0183 15.3035
L19.7833 15.0685
" />
<path d="M41.3783 41.5285
L41.3783 37.7185
" />
<path d="M41.3783 37.7185
L40.3623 36.7025
" />
<path d="M39.9263 49.5845
L41.3783 48.1325
" />
<path d="M19.7833 15.0685
L19.7883 15.0685
" />
<path d="M40.3623 30.9518
L42.4983 28.8158
" />
<path d="M40.3623 36.7025
L40.3623 30.9518
" />
<path d="M37.5083 49.5845
L39.9263 49.5845
" />
<path d="M20.0183 28.8158
L20.0183 15.3035
" />
<path d="M36.0783 15.8145
L36.8243 15.0685
" />
<path d="M36.0783 22.4745
L36.0783 15.8145
" />
<path d="M45.1923 15.0685
L36.8243 15.0685
" />
<path d="M27.5903 49.5845
L26.1383 48.1325
" />
<path d="M26.1283 41.5185
L26.1383 41.5285
" />
<path d="M26.1383 48.1325
L26.1383 41.5285
" />
<path d="M26.1383 41.5285
L26.1643 41.5285
" />
<path d="M27.1583 30.9558
L25.0183 28.8158
" />
<path d="M27.1583 40.5345
L27.1583 30.9558
" />
<path d="M30.0083 49.5845
L27.5903 49.5845
" />
<path d="M26.1643 41.5285
L27.1583 40.5345
" />
<path d="M31.2183 41.1745
L31.9183 40.4745
" />
<path d="M31.9183 40.4745
L31.9183 22.4745
" />
<path d="M26.1183 22.4745
L31.9183 22.4745
" />
<path d="M22.5183 26.0745
L26.1183 22.4745
" />
<path d="M31.2183 41.5285
L31.2183 48.2945
" />
<path d="M31.2183 41.5285
L31.2183 41.1745
" />
<path d="M31.2183 48.2945
L32.5083 49.5845
" />
<path d="M22.5183 28.8158
L22.5183 26.0745
" />
<path d="M36.2983 41.5285
L36.2983 48.2945
" />
<path d="M36.2983 26.3945
L36.2983 41.5285
" />
<path d="M40.2183 22.4745
L36.2983 26.3945
" />
<path d="M46.2383 22.4745
L40.2183 22.4745
" />
<path d="M36.2983 48.2945
L35.0083 49.5845
" />
</g>
<g style="fill:#FFFFFF; fill-opacity:1.0000; stroke:none;">
<circle cx="31.9183" cy="22.4745" r="0.4000" /> 
</g>
<g style="fill:#FFFFFF; fill-opacity:1.0000; stroke:none;">
<circle cx="21.7583" cy="22.4745" r="0.4000" /> 
</g>
<g style="fill:#FFFFFF; fill-opacity:1.0000; stroke:none;">
<circle cx="54.8583" cy="14.0345" r="1.5000" /> 
</g>
<g style="fill:#FFFFFF; fill-opacity:1.0000; stroke:none;">
<circle cx="31.2183" cy="41.5285" r="0.5000" /> 
</g>
<g style="fill:#FFFFFF; fill-opacity:1.0000; stroke:none;">
<circle cx="54.8583" cy="53.4345" r="1.5000" /> 
</g>
<g style="fill:#FFFFFF; fill-opacity:1.0000; stroke:none;">
<circle cx="20.0183" cy="28.8158" r="0.4500" /> 
</g>
<g style="fill:#FFFFFF; fill-opacity:1.0000; stroke:none;">
<circle cx="22.5183" cy="28.8158" r="0.4500" /> 
</g>
<g style="fill:#FFFFFF; fill-opacity:1.0000; stroke:none;">
<circle cx="25.0183" cy="28.8158" r="0.4500" /> 
</g>
<g style="fill:#FFFFFF; fill-opacity:1.0000; stroke:none;">
<circle cx="20.0183" cy="34.8158" r="0.4500" /> 
</g>
<g style="fill:#FFFFFF; fill-opacity:1.0000; stroke:none;">
<circle cx="22.5183" cy="34.8158" r="0.4500" /> 
</g>
<g style="fill:#FFFFFF; fill-opacity:1.0000; stroke:none;">
<circle cx="25.0183" cy="34.8158" r="0.4500" /> 
</g>
<g style="fill:#FFFFFF; fill-opacity:1.0000; stroke:none;">
<circle cx="41.3783" cy="41.5285" r="0.5000" /> 
</g>
<g style="fill:#FFFFFF; fill-opacity:1.0000; stroke:none;">
<circle cx="46.2383" cy="22.4745" r="0.4000" /> 
</g>
<g style="fill:#FFFFFF; fill-opacity:1.0000; stroke:none;">
<circle cx="36.0783" cy="22.4745" r="0.4000" /> 
</g>
<g style="fill:#FFFFFF; fill-opacity:1.0000; stroke:none;">
<circle cx="19.7833" cy="15.0685" r="0.4500" /> 
</g>
<g style="fill:#FFFFFF; fill-opacity:1.0000; stroke:none;">
<circle cx="22.3233" cy="15.0685" r="0.4500" /> 
</g>
<g style="fill:#FFFFFF; fill-opacity:1.0000; stroke:none;">
<circle cx="47.7323" cy="15.0685" r="0.4500" /> 
</g>
<g style="fill:#FFFFFF; fill-opacity:1.0000; stroke:none;">
<circle cx="45.1923" cy="15.0685" r="0.4500" /> 
</g>
<g style="fill:#FFFFFF; fill-opacity:1.0000; stroke:none;">
<circle cx="26.1383" cy="41.5285" r="0.5000" /> 
</g>
<g style="fill:#FFFFFF; fill-opacity:1.0000; stroke:none;">
<circle cx="12.6583" cy="53.4345" r="1.5000" /> 
</g>
<g style="fill:#FFFFFF; fill-opacity:1.0000; stroke:none;">
<circle cx="42.4983" cy="28.8158" r="0.4500" /> 
</g>
<g style="fill:#FFFFFF; fill-opacity:1.0000; stroke:none;">
<circle cx="44.9983" cy="28.8158" r="0.4500" /> 
</g>
<g style="fill:#FFFFFF; fill-opacity:1.0000; stroke:none;">
<circle cx="47.4983" cy="28.8158" r="0.4500" /> 
</g>
<g style="fill:#FFFFFF; fill-opacity:1.0000; stroke:none;">
<circle cx="42.4983" cy="34.8158" r="0.4500" /> 
</g>
<g style="fill:#FFFFFF; fill-opacity:1.0000; stroke:none;">
<circle cx="44.9983" cy="34.8158" r="0.4500" /> 
</g>
<g style="fill:#FFFFFF; fill-opacity:1.0000; stroke:none;">
<circle cx="47.4983" cy="34.8158" r="0.4500" /> 
</g>
<g style="fill:#FFFFFF; fill-opacity:1.0000; stroke:none;">
<circle cx="30.0083" cy="49.5845" r="0.4750" /> 
</g>
<g style="fill:#FFFFFF; fill-opacity:1.0000; stroke:none;">
<circle cx="32.5083" cy="49.5845" r="0.4750" /> 
</g>
<g style="fill:#FFFFFF; fill-opacity:1.0000; stroke:none;">
<circle cx="35.0083" cy="49.5845" r="0.4750" /> 
</g>
<g style="fill:#FFFFFF; fill-opacity:1.0000; stroke:none;">
<circle cx="37.5083" cy="49.5845" r="0.4750" /> 
</g>
<g style="fill:#FFFFFF; fill-opacity:1.0000; stroke:none;">
<circle cx="36.2983" cy="41.5285" r="0.5000" /> 
</g>
<g style="fill:#FFFFFF; fill-opacity:1.0000; stroke:none;">
<circle cx="12.6583" cy="14.0345" r="1.5000" /> 
</g> 
</svg>
