<?xml version="1.0" standalone="no"?>
 <!DOCTYPE svg PUBLIC "-//W3C//DTD SVG 1.1//EN" 
 "http://www.w3.org/Graphics/SVG/1.1/DTD/svg11.dtd"> 
<svg
  xmlns:svg="http://www.w3.org/2000/svg"
  xmlns="http://www.w3.org/2000/svg"
  xmlns:xlink="http://www.w3.org/1999/xlink"
  version="1.1"
  width="67.0306mm" height="59.2074mm" viewBox="0.0000 0.0000 67.0306 59.2074">
<title>SVG Image created as rear_lights_unit_control_box-brd.svg date 2025/04/03 14:08:05 </title>
  <desc>Image generated by PCBNEW </desc>
<g style="fill:#000000; fill-opacity:1.0000;stroke:#000000; stroke-opacity:1.0000;
stroke-linecap:round; stroke-linejoin:round;"
 transform="translate(0 0) scale(1 1)">
</g>
<g style="fill:none; 
stroke:#840084; stroke-width:0.1000; stroke-opacity:1; 
stroke-linecap:round; stroke-linejoin:round;">
<text x="41.7583" y="52.8246"
transform="scale(-1 1) translate(-83.516666 0)"
textLength="17.7667" font-size="1.3333" lengthAdjust="spacingAndGlyphs"
text-anchor="start" opacity="0" stroke-opacity="0">FahrradTech Rear Light</text>
<g class="stroked-text"><desc>FahrradTech Rear Light</desc>
<path d="M41.1211 52.1732
L41.4544 52.1732
" />
<path d="M41.4544 52.6970
L41.4544 51.6970
" />
<path d="M41.4544 51.6970
L40.9783 51.6970
" />
<path d="M40.1687 52.6970
L40.1687 52.1732
" />
<path d="M40.1687 52.1732
L40.2164 52.0779
" />
<path d="M40.2164 52.0779
L40.3116 52.0303
" />
<path d="M40.3116 52.0303
L40.5021 52.0303
" />
<path d="M40.5021 52.0303
L40.5973 52.0779
" />
<path d="M40.1687 52.6494
L40.2640 52.6970
" />
<path d="M40.2640 52.6970
L40.5021 52.6970
" />
<path d="M40.5021 52.6970
L40.5973 52.6494
" />
<path d="M40.5973 52.6494
L40.6449 52.5541
" />
<path d="M40.6449 52.5541
L40.6449 52.4589
" />
<path d="M40.6449 52.4589
L40.5973 52.3636
" />
<path d="M40.5973 52.3636
L40.5021 52.3160
" />
<path d="M40.5021 52.3160
L40.2640 52.3160
" />
<path d="M40.2640 52.3160
L40.1687 52.2684
" />
<path d="M39.6925 52.6970
L39.6925 51.6970
" />
<path d="M39.2640 52.6970
L39.2640 52.1732
" />
<path d="M39.2640 52.1732
L39.3116 52.0779
" />
<path d="M39.3116 52.0779
L39.4068 52.0303
" />
<path d="M39.4068 52.0303
L39.5497 52.0303
" />
<path d="M39.5497 52.0303
L39.6449 52.0779
" />
<path d="M39.6449 52.0779
L39.6925 52.1255
" />
<path d="M38.7878 52.6970
L38.7878 52.0303
" />
<path d="M38.7878 52.2208
L38.7402 52.1255
" />
<path d="M38.7402 52.1255
L38.6925 52.0779
" />
<path d="M38.6925 52.0779
L38.5973 52.0303
" />
<path d="M38.5973 52.0303
L38.5021 52.0303
" />
<path d="M38.1687 52.6970
L38.1687 52.0303
" />
<path d="M38.1687 52.2208
L38.1211 52.1255
" />
<path d="M38.1211 52.1255
L38.0735 52.0779
" />
<path d="M38.0735 52.0779
L37.9783 52.0303
" />
<path d="M37.9783 52.0303
L37.8830 52.0303
" />
<path d="M37.1211 52.6970
L37.1211 52.1732
" />
<path d="M37.1211 52.1732
L37.1687 52.0779
" />
<path d="M37.1687 52.0779
L37.2640 52.0303
" />
<path d="M37.2640 52.0303
L37.4544 52.0303
" />
<path d="M37.4544 52.0303
L37.5497 52.0779
" />
<path d="M37.1211 52.6494
L37.2164 52.6970
" />
<path d="M37.2164 52.6970
L37.4544 52.6970
" />
<path d="M37.4544 52.6970
L37.5497 52.6494
" />
<path d="M37.5497 52.6494
L37.5973 52.5541
" />
<path d="M37.5973 52.5541
L37.5973 52.4589
" />
<path d="M37.5973 52.4589
L37.5497 52.3636
" />
<path d="M37.5497 52.3636
L37.4544 52.3160
" />
<path d="M37.4544 52.3160
L37.2164 52.3160
" />
<path d="M37.2164 52.3160
L37.1211 52.2684
" />
<path d="M36.2164 52.6970
L36.2164 51.6970
" />
<path d="M36.2164 52.6494
L36.3116 52.6970
" />
<path d="M36.3116 52.6970
L36.5021 52.6970
" />
<path d="M36.5021 52.6970
L36.5973 52.6494
" />
<path d="M36.5973 52.6494
L36.6449 52.6017
" />
<path d="M36.6449 52.6017
L36.6925 52.5065
" />
<path d="M36.6925 52.5065
L36.6925 52.2208
" />
<path d="M36.6925 52.2208
L36.6449 52.1255
" />
<path d="M36.6449 52.1255
L36.5973 52.0779
" />
<path d="M36.5973 52.0779
L36.5021 52.0303
" />
<path d="M36.5021 52.0303
L36.3116 52.0303
" />
<path d="M36.3116 52.0303
L36.2164 52.0779
" />
<path d="M35.8830 51.6970
L35.3116 51.6970
" />
<path d="M35.5973 52.6970
L35.5973 51.6970
" />
<path d="M34.5973 52.6494
L34.6925 52.6970
" />
<path d="M34.6925 52.6970
L34.8830 52.6970
" />
<path d="M34.8830 52.6970
L34.9783 52.6494
" />
<path d="M34.9783 52.6494
L35.0259 52.5541
" />
<path d="M35.0259 52.5541
L35.0259 52.1732
" />
<path d="M35.0259 52.1732
L34.9783 52.0779
" />
<path d="M34.9783 52.0779
L34.8830 52.0303
" />
<path d="M34.8830 52.0303
L34.6925 52.0303
" />
<path d="M34.6925 52.0303
L34.5973 52.0779
" />
<path d="M34.5973 52.0779
L34.5497 52.1732
" />
<path d="M34.5497 52.1732
L34.5497 52.2684
" />
<path d="M34.5497 52.2684
L35.0259 52.3636
" />
<path d="M33.6925 52.6494
L33.7878 52.6970
" />
<path d="M33.7878 52.6970
L33.9783 52.6970
" />
<path d="M33.9783 52.6970
L34.0735 52.6494
" />
<path d="M34.0735 52.6494
L34.1211 52.6017
" />
<path d="M34.1211 52.6017
L34.1687 52.5065
" />
<path d="M34.1687 52.5065
L34.1687 52.2208
" />
<path d="M34.1687 52.2208
L34.1211 52.1255
" />
<path d="M34.1211 52.1255
L34.0735 52.0779
" />
<path d="M34.0735 52.0779
L33.9783 52.0303
" />
<path d="M33.9783 52.0303
L33.7878 52.0303
" />
<path d="M33.7878 52.0303
L33.6925 52.0779
" />
<path d="M33.2640 52.6970
L33.2640 51.6970
" />
<path d="M32.8354 52.6970
L32.8354 52.1732
" />
<path d="M32.8354 52.1732
L32.8830 52.0779
" />
<path d="M32.8830 52.0779
L32.9783 52.0303
" />
<path d="M32.9783 52.0303
L33.1211 52.0303
" />
<path d="M33.1211 52.0303
L33.2164 52.0779
" />
<path d="M33.2164 52.0779
L33.2640 52.1255
" />
<path d="M31.0259 52.6970
L31.3592 52.2208
" />
<path d="M31.5973 52.6970
L31.5973 51.6970
" />
<path d="M31.5973 51.6970
L31.2164 51.6970
" />
<path d="M31.2164 51.6970
L31.1211 51.7446
" />
<path d="M31.1211 51.7446
L31.0735 51.7922
" />
<path d="M31.0735 51.7922
L31.0259 51.8875
" />
<path d="M31.0259 51.8875
L31.0259 52.0303
" />
<path d="M31.0259 52.0303
L31.0735 52.1255
" />
<path d="M31.0735 52.1255
L31.1211 52.1732
" />
<path d="M31.1211 52.1732
L31.2164 52.2208
" />
<path d="M31.2164 52.2208
L31.5973 52.2208
" />
<path d="M30.2164 52.6494
L30.3116 52.6970
" />
<path d="M30.3116 52.6970
L30.5021 52.6970
" />
<path d="M30.5021 52.6970
L30.5973 52.6494
" />
<path d="M30.5973 52.6494
L30.6449 52.5541
" />
<path d="M30.6449 52.5541
L30.6449 52.1732
" />
<path d="M30.6449 52.1732
L30.5973 52.0779
" />
<path d="M30.5973 52.0779
L30.5021 52.0303
" />
<path d="M30.5021 52.0303
L30.3116 52.0303
" />
<path d="M30.3116 52.0303
L30.2164 52.0779
" />
<path d="M30.2164 52.0779
L30.1687 52.1732
" />
<path d="M30.1687 52.1732
L30.1687 52.2684
" />
<path d="M30.1687 52.2684
L30.6449 52.3636
" />
<path d="M29.3116 52.6970
L29.3116 52.1732
" />
<path d="M29.3116 52.1732
L29.3592 52.0779
" />
<path d="M29.3592 52.0779
L29.4544 52.0303
" />
<path d="M29.4544 52.0303
L29.6449 52.0303
" />
<path d="M29.6449 52.0303
L29.7402 52.0779
" />
<path d="M29.3116 52.6494
L29.4068 52.6970
" />
<path d="M29.4068 52.6970
L29.6449 52.6970
" />
<path d="M29.6449 52.6970
L29.7402 52.6494
" />
<path d="M29.7402 52.6494
L29.7878 52.5541
" />
<path d="M29.7878 52.5541
L29.7878 52.4589
" />
<path d="M29.7878 52.4589
L29.7402 52.3636
" />
<path d="M29.7402 52.3636
L29.6449 52.3160
" />
<path d="M29.6449 52.3160
L29.4068 52.3160
" />
<path d="M29.4068 52.3160
L29.3116 52.2684
" />
<path d="M28.8354 52.6970
L28.8354 52.0303
" />
<path d="M28.8354 52.2208
L28.7878 52.1255
" />
<path d="M28.7878 52.1255
L28.7402 52.0779
" />
<path d="M28.7402 52.0779
L28.6449 52.0303
" />
<path d="M28.6449 52.0303
L28.5497 52.0303
" />
<path d="M26.9783 52.6970
L27.4544 52.6970
" />
<path d="M27.4544 52.6970
L27.4544 51.6970
" />
<path d="M26.6449 52.6970
L26.6449 52.0303
" />
<path d="M26.6449 51.6970
L26.6925 51.7446
" />
<path d="M26.6925 51.7446
L26.6449 51.7922
" />
<path d="M26.6449 51.7922
L26.5973 51.7446
" />
<path d="M26.5973 51.7446
L26.6449 51.6970
" />
<path d="M26.6449 51.6970
L26.6449 51.7922
" />
<path d="M25.7402 52.0303
L25.7402 52.8398
" />
<path d="M25.7402 52.8398
L25.7878 52.9351
" />
<path d="M25.7878 52.9351
L25.8354 52.9827
" />
<path d="M25.8354 52.9827
L25.9306 53.0303
" />
<path d="M25.9306 53.0303
L26.0735 53.0303
" />
<path d="M26.0735 53.0303
L26.1687 52.9827
" />
<path d="M25.7402 52.6494
L25.8354 52.6970
" />
<path d="M25.8354 52.6970
L26.0259 52.6970
" />
<path d="M26.0259 52.6970
L26.1211 52.6494
" />
<path d="M26.1211 52.6494
L26.1687 52.6017
" />
<path d="M26.1687 52.6017
L26.2163 52.5065
" />
<path d="M26.2163 52.5065
L26.2163 52.2208
" />
<path d="M26.2163 52.2208
L26.1687 52.1255
" />
<path d="M26.1687 52.1255
L26.1211 52.0779
" />
<path d="M26.1211 52.0779
L26.0259 52.0303
" />
<path d="M26.0259 52.0303
L25.8354 52.0303
" />
<path d="M25.8354 52.0303
L25.7402 52.0779
" />
<path d="M25.2640 52.6970
L25.2640 51.6970
" />
<path d="M24.8354 52.6970
L24.8354 52.1732
" />
<path d="M24.8354 52.1732
L24.8830 52.0779
" />
<path d="M24.8830 52.0779
L24.9783 52.0303
" />
<path d="M24.9783 52.0303
L25.1211 52.0303
" />
<path d="M25.1211 52.0303
L25.2163 52.0779
" />
<path d="M25.2163 52.0779
L25.2640 52.1255
" />
<path d="M24.5021 52.0303
L24.1211 52.0303
" />
<path d="M24.3592 51.6970
L24.3592 52.5541
" />
<path d="M24.3592 52.5541
L24.3116 52.6494
" />
<path d="M24.3116 52.6494
L24.2163 52.6970
" />
<path d="M24.2163 52.6970
L24.1211 52.6970
" />
</g><text x="41.7583" y="54.4345"
transform="scale(-1 1) translate(-83.516666 0)"
textLength="15.2429" font-size="1.3333" lengthAdjust="spacingAndGlyphs"
text-anchor="start" opacity="0" stroke-opacity="0">Unit Control Box v0</text>
<g class="stroked-text"><desc>Unit Control Box v0</desc>
<path d="M41.4544 53.3069
L41.4544 54.1164
" />
<path d="M41.4544 54.1164
L41.4068 54.2117
" />
<path d="M41.4068 54.2117
L41.3592 54.2593
" />
<path d="M41.3592 54.2593
L41.2640 54.3069
" />
<path d="M41.2640 54.3069
L41.0735 54.3069
" />
<path d="M41.0735 54.3069
L40.9783 54.2593
" />
<path d="M40.9783 54.2593
L40.9306 54.2117
" />
<path d="M40.9306 54.2117
L40.8830 54.1164
" />
<path d="M40.8830 54.1164
L40.8830 53.3069
" />
<path d="M40.4068 53.6403
L40.4068 54.3069
" />
<path d="M40.4068 53.7355
L40.3592 53.6879
" />
<path d="M40.3592 53.6879
L40.2640 53.6403
" />
<path d="M40.2640 53.6403
L40.1211 53.6403
" />
<path d="M40.1211 53.6403
L40.0259 53.6879
" />
<path d="M40.0259 53.6879
L39.9783 53.7831
" />
<path d="M39.9783 53.7831
L39.9783 54.3069
" />
<path d="M39.5021 54.3069
L39.5021 53.6403
" />
<path d="M39.5021 53.3069
L39.5497 53.3545
" />
<path d="M39.5497 53.3545
L39.5021 53.4022
" />
<path d="M39.5021 53.4022
L39.4544 53.3545
" />
<path d="M39.4544 53.3545
L39.5021 53.3069
" />
<path d="M39.5021 53.3069
L39.5021 53.4022
" />
<path d="M39.1687 53.6403
L38.7878 53.6403
" />
<path d="M39.0259 53.3069
L39.0259 54.1641
" />
<path d="M39.0259 54.1641
L38.9783 54.2593
" />
<path d="M38.9783 54.2593
L38.8830 54.3069
" />
<path d="M38.8830 54.3069
L38.7878 54.3069
" />
<path d="M37.1211 54.2117
L37.1687 54.2593
" />
<path d="M37.1687 54.2593
L37.3116 54.3069
" />
<path d="M37.3116 54.3069
L37.4068 54.3069
" />
<path d="M37.4068 54.3069
L37.5497 54.2593
" />
<path d="M37.5497 54.2593
L37.6449 54.1641
" />
<path d="M37.6449 54.1641
L37.6925 54.0688
" />
<path d="M37.6925 54.0688
L37.7402 53.8783
" />
<path d="M37.7402 53.8783
L37.7402 53.7355
" />
<path d="M37.7402 53.7355
L37.6925 53.5450
" />
<path d="M37.6925 53.5450
L37.6449 53.4498
" />
<path d="M37.6449 53.4498
L37.5497 53.3545
" />
<path d="M37.5497 53.3545
L37.4068 53.3069
" />
<path d="M37.4068 53.3069
L37.3116 53.3069
" />
<path d="M37.3116 53.3069
L37.1687 53.3545
" />
<path d="M37.1687 53.3545
L37.1211 53.4022
" />
<path d="M36.5497 54.3069
L36.6449 54.2593
" />
<path d="M36.6449 54.2593
L36.6925 54.2117
" />
<path d="M36.6925 54.2117
L36.7402 54.1164
" />
<path d="M36.7402 54.1164
L36.7402 53.8307
" />
<path d="M36.7402 53.8307
L36.6925 53.7355
" />
<path d="M36.6925 53.7355
L36.6449 53.6879
" />
<path d="M36.6449 53.6879
L36.5497 53.6403
" />
<path d="M36.5497 53.6403
L36.4068 53.6403
" />
<path d="M36.4068 53.6403
L36.3116 53.6879
" />
<path d="M36.3116 53.6879
L36.2640 53.7355
" />
<path d="M36.2640 53.7355
L36.2164 53.8307
" />
<path d="M36.2164 53.8307
L36.2164 54.1164
" />
<path d="M36.2164 54.1164
L36.2640 54.2117
" />
<path d="M36.2640 54.2117
L36.3116 54.2593
" />
<path d="M36.3116 54.2593
L36.4068 54.3069
" />
<path d="M36.4068 54.3069
L36.5497 54.3069
" />
<path d="M35.7878 53.6403
L35.7878 54.3069
" />
<path d="M35.7878 53.7355
L35.7402 53.6879
" />
<path d="M35.7402 53.6879
L35.6449 53.6403
" />
<path d="M35.6449 53.6403
L35.5021 53.6403
" />
<path d="M35.5021 53.6403
L35.4068 53.6879
" />
<path d="M35.4068 53.6879
L35.3592 53.7831
" />
<path d="M35.3592 53.7831
L35.3592 54.3069
" />
<path d="M35.0259 53.6403
L34.6449 53.6403
" />
<path d="M34.8830 53.3069
L34.8830 54.1641
" />
<path d="M34.8830 54.1641
L34.8354 54.2593
" />
<path d="M34.8354 54.2593
L34.7402 54.3069
" />
<path d="M34.7402 54.3069
L34.6449 54.3069
" />
<path d="M34.3116 54.3069
L34.3116 53.6403
" />
<path d="M34.3116 53.8307
L34.2640 53.7355
" />
<path d="M34.2640 53.7355
L34.2164 53.6879
" />
<path d="M34.2164 53.6879
L34.1211 53.6403
" />
<path d="M34.1211 53.6403
L34.0259 53.6403
" />
<path d="M33.5497 54.3069
L33.6449 54.2593
" />
<path d="M33.6449 54.2593
L33.6925 54.2117
" />
<path d="M33.6925 54.2117
L33.7402 54.1164
" />
<path d="M33.7402 54.1164
L33.7402 53.8307
" />
<path d="M33.7402 53.8307
L33.6925 53.7355
" />
<path d="M33.6925 53.7355
L33.6449 53.6879
" />
<path d="M33.6449 53.6879
L33.5497 53.6403
" />
<path d="M33.5497 53.6403
L33.4068 53.6403
" />
<path d="M33.4068 53.6403
L33.3116 53.6879
" />
<path d="M33.3116 53.6879
L33.2640 53.7355
" />
<path d="M33.2640 53.7355
L33.2164 53.8307
" />
<path d="M33.2164 53.8307
L33.2164 54.1164
" />
<path d="M33.2164 54.1164
L33.2640 54.2117
" />
<path d="M33.2640 54.2117
L33.3116 54.2593
" />
<path d="M33.3116 54.2593
L33.4068 54.3069
" />
<path d="M33.4068 54.3069
L33.5497 54.3069
" />
<path d="M32.6449 54.3069
L32.7402 54.2593
" />
<path d="M32.7402 54.2593
L32.7878 54.1641
" />
<path d="M32.7878 54.1641
L32.7878 53.3069
" />
<path d="M31.1687 53.7831
L31.0259 53.8307
" />
<path d="M31.0259 53.8307
L30.9783 53.8783
" />
<path d="M30.9783 53.8783
L30.9306 53.9736
" />
<path d="M30.9306 53.9736
L30.9306 54.1164
" />
<path d="M30.9306 54.1164
L30.9783 54.2117
" />
<path d="M30.9783 54.2117
L31.0259 54.2593
" />
<path d="M31.0259 54.2593
L31.1211 54.3069
" />
<path d="M31.1211 54.3069
L31.5021 54.3069
" />
<path d="M31.5021 54.3069
L31.5021 53.3069
" />
<path d="M31.5021 53.3069
L31.1687 53.3069
" />
<path d="M31.1687 53.3069
L31.0735 53.3545
" />
<path d="M31.0735 53.3545
L31.0259 53.4022
" />
<path d="M31.0259 53.4022
L30.9783 53.4974
" />
<path d="M30.9783 53.4974
L30.9783 53.5926
" />
<path d="M30.9783 53.5926
L31.0259 53.6879
" />
<path d="M31.0259 53.6879
L31.0735 53.7355
" />
<path d="M31.0735 53.7355
L31.1687 53.7831
" />
<path d="M31.1687 53.7831
L31.5021 53.7831
" />
<path d="M30.3592 54.3069
L30.4544 54.2593
" />
<path d="M30.4544 54.2593
L30.5021 54.2117
" />
<path d="M30.5021 54.2117
L30.5497 54.1164
" />
<path d="M30.5497 54.1164
L30.5497 53.8307
" />
<path d="M30.5497 53.8307
L30.5021 53.7355
" />
<path d="M30.5021 53.7355
L30.4544 53.6879
" />
<path d="M30.4544 53.6879
L30.3592 53.6403
" />
<path d="M30.3592 53.6403
L30.2164 53.6403
" />
<path d="M30.2164 53.6403
L30.1211 53.6879
" />
<path d="M30.1211 53.6879
L30.0735 53.7355
" />
<path d="M30.0735 53.7355
L30.0259 53.8307
" />
<path d="M30.0259 53.8307
L30.0259 54.1164
" />
<path d="M30.0259 54.1164
L30.0735 54.2117
" />
<path d="M30.0735 54.2117
L30.1211 54.2593
" />
<path d="M30.1211 54.2593
L30.2164 54.3069
" />
<path d="M30.2164 54.3069
L30.3592 54.3069
" />
<path d="M29.6925 54.3069
L29.1687 53.6403
" />
<path d="M29.6925 53.6403
L29.1687 54.3069
" />
<path d="M28.1211 53.6403
L27.8830 54.3069
" />
<path d="M27.8830 54.3069
L27.6449 53.6403
" />
<path d="M27.0735 53.3069
L26.9783 53.3069
" />
<path d="M26.9783 53.3069
L26.8830 53.3545
" />
<path d="M26.8830 53.3545
L26.8354 53.4022
" />
<path d="M26.8354 53.4022
L26.7878 53.4974
" />
<path d="M26.7878 53.4974
L26.7402 53.6879
" />
<path d="M26.7402 53.6879
L26.7402 53.9260
" />
<path d="M26.7402 53.9260
L26.7878 54.1164
" />
<path d="M26.7878 54.1164
L26.8354 54.2117
" />
<path d="M26.8354 54.2117
L26.8830 54.2593
" />
<path d="M26.8830 54.2593
L26.9783 54.3069
" />
<path d="M26.9783 54.3069
L27.0735 54.3069
" />
<path d="M27.0735 54.3069
L27.1687 54.2593
" />
<path d="M27.1687 54.2593
L27.2163 54.2117
" />
<path d="M27.2163 54.2117
L27.2640 54.1164
" />
<path d="M27.2640 54.1164
L27.3116 53.9260
" />
<path d="M27.3116 53.9260
L27.3116 53.6879
" />
<path d="M27.3116 53.6879
L27.2640 53.4974
" />
<path d="M27.2640 53.4974
L27.2163 53.4022
" />
<path d="M27.2163 53.4022
L27.1687 53.3545
" />
<path d="M27.1687 53.3545
L27.0735 53.3069
" />
</g><path style="fill:#840084; fill-opacity:1.0000; stroke:none;fill-rule:evenodd;"
d="M 45.4716,42.7921
45.5606,42.8026
45.6475,42.8228
45.7311,42.8527
45.8101,42.8921
45.8833,42.9410
45.9495,42.9993
46.0073,43.0668
46.0150,43.0776
46.0296,43.1001
46.0440,43.1243
46.0566,43.1469
46.0655,43.1650
46.0689,43.1751
46.0635,43.1769
46.0482,43.1782
46.0265,43.1787
45.9841,43.1787
45.9645,43.1439
45.9502,43.1206
45.9042,43.0617
45.8477,43.0083
45.7824,42.9615
45.7097,42.9223
45.6312,42.8917
45.5485,42.8707
45.5113,42.8655
45.4581,42.8623
45.4006,42.8624
45.3431,42.8656
45.2899,42.8718
45.2453,42.8807
45.1999,42.8954
45.1447,42.9186
45.0897,42.9466
45.0391,42.9772
44.9973,43.0082
44.9888,43.0156
44.9597,43.0437
44.9309,43.0753
44.9049,43.1072
44.8841,43.1366
44.8710,43.1605
44.8695,43.1640
44.8644,43.1722
44.8564,43.1766
44.8420,43.1783
44.8178,43.1787
44.7722,43.1787
44.7897,43.1440
44.7904,43.1426
44.8146,43.1017
44.8459,43.0579
44.8808,43.0158
44.9157,42.9800
44.9630,42.9401
45.0386,42.8899
45.1194,42.8500
45.2044,42.8204
45.2922,42.8010
45.3817,42.7916
Z" /> 
<path style="fill:#840084; fill-opacity:1.0000; stroke:none;fill-rule:evenodd;"
d="M 47.7536,42.7921
47.8426,42.8026
47.9295,42.8228
48.0131,42.8527
48.0921,42.8921
48.1654,42.9410
48.2315,42.9993
48.2894,43.0668
48.2970,43.0776
48.3116,43.1001
48.3261,43.1243
48.3387,43.1469
48.3475,43.1650
48.3509,43.1751
48.3455,43.1769
48.3302,43.1782
48.3085,43.1787
48.2662,43.1787
48.2465,43.1439
48.2322,43.1206
48.1862,43.0617
48.1297,43.0083
48.0644,42.9615
47.9917,42.9223
47.9132,42.8917
47.8305,42.8707
47.7933,42.8655
47.7401,42.8623
47.6827,42.8624
47.6251,42.8656
47.5719,42.8718
47.5274,42.8807
47.4819,42.8954
47.4267,42.9186
47.3717,42.9466
47.3211,42.9772
47.2793,43.0082
47.2708,43.0156
47.2418,43.0437
47.2130,43.0753
47.1870,43.1072
47.1662,43.1366
47.1531,43.1605
47.1515,43.1640
47.1465,43.1722
47.1384,43.1766
47.1240,43.1783
47.0998,43.1787
47.0542,43.1787
47.0718,43.1440
47.0725,43.1426
47.0967,43.1017
47.1279,43.0579
47.1628,43.0158
47.1977,42.9800
47.2451,42.9401
47.3206,42.8899
47.4014,42.8500
47.4864,42.8204
47.5743,42.8010
47.6637,42.7916
Z" /> 
<path style="fill:#840084; fill-opacity:1.0000; stroke:none;fill-rule:evenodd;"
d="M 46.0086,43.7079
46.0063,43.7589
46.0004,43.8018
45.9783,43.8812
45.9436,43.9610
45.8983,44.0340
45.8433,44.0993
45.7795,44.1562
45.7078,44.2037
45.6290,44.2408
45.5440,44.2668
45.5241,44.2703
45.4842,44.2738
45.4377,44.2749
45.3885,44.2736
45.3403,44.2702
45.2972,44.2648
45.2631,44.2574
45.2077,44.2382
45.1297,44.1994
45.0571,44.1487
44.9902,44.0864
44.9512,44.0403
44.9052,43.9695
44.8705,43.8938
44.8473,43.8146
44.8355,43.7331
44.8353,43.6507
44.8467,43.5687
44.8697,43.4882
44.8707,43.4861
44.9444,43.4861
44.9456,43.4864
44.9544,43.4825
44.9692,43.4736
45.0126,43.4517
45.0625,43.4395
45.1136,43.4384
45.1641,43.4480
45.2122,43.4676
45.2560,43.4966
45.2935,43.5346
45.3229,43.5809
45.3308,43.5975
45.3382,43.6164
45.3424,43.6347
45.3442,43.6570
45.3446,43.6880
45.3444,43.7110
45.3431,43.7354
45.3397,43.7544
45.3334,43.7727
45.3231,43.7947
45.3184,43.8038
45.2862,43.8499
45.2448,43.8891
45.1972,43.9183
45.1906,43.9213
45.1711,43.9290
45.1519,43.9334
45.1286,43.9355
45.0965,43.9360
45.0868,43.9360
45.0629,43.9356
45.0438,43.9338
45.0262,43.9297
45.0068,43.9224
44.9823,43.9110
44.9493,43.8944
44.9467,43.8956
44.9495,43.9055
44.9577,43.9230
44.9706,43.9460
44.9871,43.9726
44.9999,43.9915
45.0516,44.0529
45.1121,44.1055
45.1798,44.1483
45.2532,44.1803
45.3305,44.2003
45.3645,44.2052
45.4474,44.2081
45.5278,44.1983
45.6048,44.1762
45.6774,44.1421
45.7447,44.0964
45.8056,44.0392
45.8457,43.9894
45.8865,43.9211
45.9169,43.8476
45.9361,43.7710
45.9429,43.6938
45.9428,43.6787
45.9344,43.6007
45.9139,43.5239
45.8823,43.4504
45.8403,43.3824
45.7890,43.3222
45.7273,43.2691
45.6587,43.2269
45.5844,43.1966
45.5047,43.1783
45.4200,43.1721
45.4150,43.1721
45.3329,43.1792
45.2546,43.1985
45.1810,43.2295
45.1135,43.2717
45.0529,43.3244
45.0006,43.3870
44.9854,43.4095
44.9701,43.4343
44.9570,43.4574
44.9478,43.4757
44.9444,43.4861
44.8707,43.4861
44.9045,43.4106
44.9511,43.3372
44.9933,43.2868
45.0554,43.2296
45.1247,43.1824
45.1996,43.1455
45.2788,43.1195
45.3608,43.1046
45.4444,43.1015
45.5282,43.1104
45.6106,43.1319
45.6642,43.1534
45.7388,43.1948
45.8069,43.2465
45.8673,43.3072
45.9188,43.3756
45.9601,43.4504
45.9900,43.5304
45.9954,43.5527
46.0029,43.6002
46.0074,43.6534
46.0083,43.6938
Z" /> 
<path style="fill:#840084; fill-opacity:1.0000; stroke:none;fill-rule:evenodd;"
d="M 48.2906,43.6682
48.2883,43.7192
48.2825,43.7621
48.2604,43.8416
48.2256,43.9213
48.1803,43.9943
48.1253,44.0596
48.0615,44.1165
47.9898,44.1640
47.9110,44.2011
47.8260,44.2271
47.8061,44.2306
47.7663,44.2341
47.7197,44.2352
47.6705,44.2340
47.6224,44.2305
47.5793,44.2251
47.5451,44.2177
47.4897,44.1985
47.4118,44.1597
47.3391,44.1090
47.2722,44.0467
47.2332,44.0006
47.1872,43.9298
47.1526,43.8541
47.1293,43.7749
47.1175,43.6934
47.1173,43.6110
47.1287,43.5290
47.1517,43.4485
47.1527,43.4464
47.2264,43.4464
47.2276,43.4467
47.2365,43.4428
47.2512,43.4339
47.2947,43.4120
47.3445,43.3998
47.3956,43.3987
47.4462,43.4083
47.4942,43.4279
47.5380,43.4569
47.5755,43.4949
47.6049,43.5412
47.6128,43.5578
47.6203,43.5767
47.6244,43.5950
47.6262,43.6173
47.6266,43.6483
47.6264,43.6713
47.6251,43.6957
47.6217,43.7148
47.6154,43.7330
47.6051,43.7550
47.6004,43.7641
47.5682,43.8102
47.5268,43.8494
47.4792,43.8786
47.4726,43.8817
47.4531,43.8893
47.4339,43.8937
47.4106,43.8958
47.3785,43.8963
47.3688,43.8963
47.3449,43.8959
47.3258,43.8941
47.3082,43.8900
47.2888,43.8827
47.2643,43.8713
47.2313,43.8548
47.2287,43.8559
47.2315,43.8658
47.2398,43.8833
47.2526,43.9063
47.2691,43.9329
47.2819,43.9518
47.3336,44.0132
47.3941,44.0658
47.4619,44.1086
47.5352,44.1406
47.6126,44.1606
47.6465,44.1655
47.7294,44.1684
47.8098,44.1587
47.8868,44.1366
47.9595,44.1025
48.0267,44.0567
48.0876,43.9995
48.1277,43.9497
48.1685,43.8814
48.1990,43.8079
48.2181,43.7314
48.2250,43.6541
48.2248,43.6390
48.2164,43.5610
48.1960,43.4842
48.1643,43.4107
48.1224,43.3428
48.0710,43.2825
48.0093,43.2294
47.9407,43.1872
47.8664,43.1569
47.7868,43.1386
47.7021,43.1324
47.6970,43.1324
47.6150,43.1395
47.5366,43.1588
47.4631,43.1898
47.3955,43.2320
47.3350,43.2847
47.2826,43.3473
47.2675,43.3698
47.2521,43.3946
47.2390,43.4177
47.2298,43.4360
47.2264,43.4464
47.1527,43.4464
47.1865,43.3709
47.2332,43.2975
47.2753,43.2471
47.3375,43.1899
47.4067,43.1427
47.4816,43.1058
47.5608,43.0798
47.6429,43.0650
47.7265,43.0618
47.8102,43.0707
47.8926,43.0922
47.9462,43.1137
48.0208,43.1551
48.0890,43.2068
48.1494,43.2675
48.2008,43.3359
48.2421,43.4107
48.2720,43.4907
48.2775,43.5130
48.2850,43.5605
48.2894,43.6138
48.2903,43.6541
Z" /> 
<path style="fill:#840084; fill-opacity:1.0000; stroke:none;fill-rule:evenodd;"
d="M 46.7171,43.6148
46.7171,43.6257
46.7170,43.7720
46.7169,43.9061
46.7166,44.0280
46.7163,44.1375
46.7159,44.2347
46.7154,44.3192
46.7148,44.3912
46.7141,44.4504
46.7133,44.4967
46.7125,44.5301
46.7115,44.5505
46.7105,44.5578
46.7103,44.5579
46.7063,44.5671
46.7055,44.5828
46.7072,44.6038
46.0445,44.8455
45.9557,44.8779
45.8695,44.9094
45.7876,44.9393
45.7108,44.9675
45.6400,44.9935
45.5759,45.0170
45.5193,45.0378
45.4712,45.0556
45.4322,45.0701
45.4032,45.0810
45.3850,45.0879
45.3785,45.0906
45.3824,45.0924
45.3976,45.0984
45.4235,45.1083
45.4589,45.1216
45.5029,45.1381
45.5545,45.1572
45.6127,45.1788
45.6763,45.2024
45.7446,45.2275
45.8163,45.2540
45.8906,45.2813
45.9664,45.3092
46.0427,45.3372
46.1185,45.3649
46.1928,45.3921
46.2646,45.4183
46.3329,45.4432
46.3967,45.4664
46.4549,45.4875
46.5066,45.5062
46.5507,45.5221
46.5863,45.5348
46.6123,45.5439
46.6278,45.5492
46.6326,45.5508
46.6535,45.5585
46.6757,45.5676
46.6840,45.5711
46.7007,45.5773
46.7104,45.5798
46.7129,45.5846
46.7151,45.6002
46.7165,45.6241
46.7173,45.6536
46.7175,45.6863
46.7169,45.7193
46.7158,45.7501
46.7141,45.7761
46.7117,45.7946
46.7088,45.8031
46.7009,45.8073
46.6832,45.8142
46.6609,45.8214
46.6506,45.8248
46.6286,45.8324
46.5965,45.8436
46.5554,45.8582
46.5063,45.8758
46.4502,45.8958
46.3881,45.9181
46.3211,45.9423
46.2502,45.9678
46.1764,45.9945
46.1007,46.0219
46.0242,46.0496
45.9478,46.0773
45.8727,46.1046
45.7998,46.1311
45.7301,46.1565
45.6647,46.1804
45.6045,46.2024
45.5507,46.2222
45.5042,46.2393
45.4661,46.2534
45.4374,46.2642
45.4190,46.2712
45.4121,46.2742
45.4166,46.2766
45.4327,46.2833
45.4597,46.2940
45.4968,46.3083
45.5432,46.3258
45.5980,46.3465
45.6606,46.3698
45.7300,46.3956
45.8055,46.4235
45.8862,46.4532
45.9714,46.4844
46.0603,46.5168
46.7138,46.7549
46.7155,47.3636
46.7172,47.9723
47.6944,48.3278
47.7562,48.3502
47.8636,48.3894
47.9673,48.4272
48.0665,48.4634
48.1606,48.4979
48.2489,48.5303
48.3307,48.5604
48.4055,48.5879
48.4725,48.6127
48.5310,48.6344
48.5804,48.6528
48.6201,48.6677
48.6493,48.6789
48.6674,48.6860
48.6738,48.6888
48.6742,48.6896
48.6830,48.6956
48.6986,48.7020
48.7017,48.7031
48.7156,48.7110
48.7213,48.7193
48.7203,48.7314
48.7171,48.7536
48.7122,48.7821
48.7062,48.8142
48.6997,48.8472
48.6931,48.8781
48.6871,48.9044
48.6822,48.9232
48.6789,48.9317
48.6749,48.9336
48.6592,48.9396
48.6328,48.9495
48.5963,48.9628
48.5507,48.9792
48.4970,48.9985
48.4360,49.0202
48.3686,49.0442
48.2958,49.0701
48.2183,49.0975
48.1371,49.1262
48.0532,49.1558
47.9674,49.1860
47.8805,49.2166
47.7936,49.2471
47.7074,49.2773
47.6230,49.3068
47.5411,49.3354
47.4628,49.3628
47.3888,49.3885
47.3201,49.4124
47.2576,49.4340
47.2022,49.4531
47.1547,49.4693
47.1162,49.4824
47.0874,49.4920
47.0693,49.4978
47.0627,49.4995
47.0607,49.4960
47.0547,49.4818
47.0462,49.4591
47.0360,49.4302
47.0247,49.3974
47.0133,49.3631
47.0024,49.3295
46.9928,49.2992
46.9854,49.2742
46.9808,49.2571
46.9799,49.2501
46.9817,49.2488
46.9938,49.2428
47.0114,49.2360
47.0407,49.2259
47.0970,49.2064
47.1595,49.1846
47.2272,49.1610
47.2991,49.1359
47.3743,49.1095
47.4518,49.0823
47.5306,49.0546
47.6097,49.0268
47.6882,48.9992
47.7650,48.9721
47.8391,48.9459
47.9096,48.9210
47.9756,48.8976
48.0359,48.8762
48.0896,48.8570
48.1358,48.8405
48.1734,48.8270
48.2015,48.8168
48.2191,48.8103
48.2251,48.8078
48.2223,48.8065
48.2082,48.8011
48.1832,48.7917
48.1483,48.7787
48.1044,48.7624
48.0524,48.7431
47.9932,48.7213
47.9278,48.6972
47.8570,48.6712
47.7818,48.6436
47.7032,48.6148
47.6220,48.5851
47.5391,48.5548
47.4556,48.5242
47.3723,48.4938
47.2901,48.4638
47.2100,48.4346
47.1329,48.4065
47.0597,48.3798
46.9914,48.3550
46.9288,48.3323
46.8729,48.3121
46.8246,48.2947
46.7849,48.2804
46.7547,48.2696
46.7348,48.2626
46.7262,48.2598
46.7262,48.2598
46.7246,48.2612
46.7233,48.2663
46.7220,48.2758
46.7210,48.2906
46.7201,48.3113
46.7194,48.3386
46.7187,48.3734
46.7182,48.4163
46.7178,48.4680
46.7175,48.5293
46.7173,48.6009
46.7171,48.6836
46.7171,48.7780
46.7170,48.8849
46.7170,49.5121
46.1714,49.7106
46.0995,49.7367
46.0215,49.7652
45.9479,49.7921
45.8797,49.8172
45.8177,49.8401
45.7627,49.8604
45.7158,49.8778
45.6777,49.8921
45.6494,49.9029
45.6318,49.9098
45.6257,49.9125
45.6294,49.9139
45.6444,49.9174
45.6693,49.9225
45.7024,49.9288
45.7419,49.9361
45.7861,49.9439
45.8094,49.9480
45.8616,49.9572
45.9222,49.9678
45.9882,49.9795
46.0565,49.9916
46.1241,50.0036
46.1879,50.0150
46.2382,50.0239
46.2950,50.0339
46.3487,50.0433
46.3972,50.0518
46.4386,50.0589
46.4709,50.0643
46.4922,50.0678
46.5224,50.0727
46.5619,50.0794
46.6042,50.0868
46.6443,50.0940
46.6734,50.0993
46.7199,50.1077
46.7749,50.1176
46.8375,50.1288
46.9066,50.1412
46.9813,50.1545
47.0607,50.1686
47.1436,50.1833
47.2292,50.1985
47.3165,50.2139
47.4044,50.2295
47.4921,50.2450
47.5785,50.2602
47.6626,50.2750
47.7435,50.2892
47.8202,50.3027
47.8917,50.3152
47.9570,50.3266
48.0152,50.3367
48.0653,50.3454
48.1062,50.3524
48.1371,50.3577
48.1569,50.3610
48.1647,50.3621
48.1652,50.3622
48.1679,50.3679
48.1699,50.3830
48.1713,50.4085
48.1720,50.4453
48.1723,50.4944
48.1723,50.5027
48.1720,50.5499
48.1711,50.5849
48.1696,50.6087
48.1675,50.6224
48.1647,50.6267
48.1632,50.6269
48.1507,50.6288
48.1265,50.6329
48.0916,50.6389
48.0470,50.6466
47.9936,50.6558
47.9324,50.6665
47.8645,50.6784
47.7907,50.6913
47.7120,50.7051
47.6294,50.7196
47.5439,50.7347
47.4565,50.7501
47.3681,50.7657
47.2797,50.7814
47.1922,50.7968
47.1067,50.8120
47.0241,50.8267
46.9454,50.8407
46.8716,50.8538
46.8036,50.8660
46.7424,50.8770
46.6890,50.8866
46.6443,50.8947
46.6425,50.8950
46.6046,50.9019
46.5668,50.9086
46.5334,50.9143
46.5087,50.9184
46.5073,50.9186
46.4889,50.9217
46.4594,50.9268
46.4208,50.9335
46.3746,50.9415
46.3229,50.9505
46.2673,50.9603
46.2097,50.9704
46.1519,50.9806
46.0956,50.9905
46.0426,50.9999
45.9948,51.0083
45.9539,51.0156
45.9218,51.0214
45.9002,51.0254
45.8539,51.0340
45.9002,51.0420
45.9157,51.0447
45.9433,51.0496
45.9805,51.0562
46.0253,51.0641
46.0761,51.0732
46.1309,51.0829
46.1879,51.0931
46.2383,51.1021
46.2950,51.1121
46.3487,51.1215
46.3972,51.1299
46.4386,51.1371
46.4709,51.1425
46.4922,51.1460
46.5224,51.1509
46.5619,51.1575
46.6042,51.1649
46.6443,51.1721
46.6734,51.1775
46.7199,51.1859
46.7749,51.1958
46.8375,51.2070
46.9066,51.2194
46.9813,51.2327
47.0607,51.2468
47.1436,51.2615
47.2292,51.2767
47.3165,51.2921
47.4044,51.3077
47.4921,51.3231
47.5785,51.3384
47.6626,51.3532
47.7435,51.3674
47.8202,51.3808
47.8917,51.3934
47.9570,51.4048
48.0152,51.4149
48.0653,51.4236
48.1062,51.4306
48.1371,51.4359
48.1569,51.4392
48.1647,51.4403
48.1652,51.4404
48.1679,51.4461
48.1699,51.4612
48.1713,51.4867
48.1720,51.5235
48.1723,51.5726
48.1723,51.5809
48.1720,51.6281
48.1711,51.6631
48.1696,51.6869
48.1675,51.7005
48.1647,51.7049
48.1632,51.7050
48.1507,51.7070
48.1265,51.7111
48.0916,51.7170
48.0470,51.7247
47.9936,51.7340
47.9324,51.7447
47.8645,51.7566
47.7907,51.7695
47.7120,51.7833
47.6294,51.7978
47.5439,51.8129
47.4565,51.8283
47.3681,51.8439
47.2797,51.8595
47.1922,51.8750
47.1067,51.8902
47.0241,51.9048
46.9454,51.9188
46.8716,51.9320
46.8036,51.9442
46.7424,51.9552
46.6890,51.9648
46.6443,51.9729
46.6425,51.9732
46.6046,51.9801
46.5668,51.9867
46.5334,51.9925
46.5087,51.9966
46.5073,51.9968
46.4889,51.9999
46.4594,52.0050
46.4208,52.0117
46.3746,52.0197
46.3229,52.0287
46.2673,52.0384
46.2097,52.0486
46.1519,52.0587
46.0956,52.0687
46.0426,52.0780
45.9948,52.0865
45.9539,52.0938
45.9218,52.0996
45.9002,52.1035
45.8539,52.1122
45.9002,52.1202
45.9157,52.1229
45.9433,52.1278
45.9805,52.1343
46.0253,52.1423
46.0761,52.1513
46.1309,52.1611
46.1879,52.1713
46.2383,52.1802
46.2950,52.1903
46.3487,52.1997
46.3972,52.2081
46.4386,52.2152
46.4709,52.2207
46.4922,52.2242
46.5224,52.2290
46.5619,52.2357
46.6042,52.2431
46.6443,52.2503
46.6734,52.2556
46.7199,52.2641
46.7749,52.2740
46.8375,52.2852
46.9066,52.2975
46.9813,52.3108
47.0607,52.3250
47.1436,52.3397
47.2292,52.3549
47.3165,52.3703
47.4044,52.3858
47.4921,52.4013
47.5785,52.4165
47.6626,52.4313
47.7435,52.4456
47.8202,52.4590
47.8917,52.4715
47.9570,52.4830
48.0152,52.4931
48.0653,52.5018
48.1062,52.5088
48.1371,52.5141
48.1569,52.5173
48.1647,52.5185
48.1652,52.5186
48.1679,52.5242
48.1699,52.5394
48.1713,52.5648
48.1720,52.6017
48.1723,52.6507
48.1723,52.7830
48.1299,52.7830
48.1266,52.7831
48.1188,52.7836
48.1096,52.7849
48.0983,52.7872
48.0841,52.7908
48.0664,52.7959
48.0443,52.8027
48.0172,52.8117
47.9843,52.8228
47.9448,52.8366
47.8981,52.8531
47.8433,52.8726
47.7799,52.8955
47.7069,52.9218
47.6237,52.9520
47.5296,52.9862
47.4238,53.0247
47.3379,53.0560
47.2504,53.0879
47.1669,53.1183
47.0882,53.1470
47.0150,53.1736
46.9484,53.1979
46.8890,53.2196
46.8379,53.2382
46.7957,53.2536
46.7635,53.2654
46.7419,53.2733
46.7320,53.2770
46.7039,53.2875
46.7039,54.5434
46.7039,55.7993
47.6332,55.7993
48.5626,55.7993
48.5626,55.9316
48.5626,56.0639
46.5782,56.0639
44.5938,56.0639
44.5938,55.9316
44.5938,55.7993
45.5198,55.7993
46.4459,55.7993
46.4459,54.4611
46.4459,54.3282
46.4459,54.1760
46.4460,54.0363
46.4461,53.9084
46.4463,53.7921
46.4465,53.6868
46.4467,53.5920
46.4470,53.5074
46.4473,53.4324
46.4477,53.3665
46.4482,53.3095
46.4487,53.2606
46.4493,53.2196
46.4499,53.1860
46.4506,53.1593
46.4514,53.1389
46.4522,53.1246
46.4532,53.1158
46.4542,53.1120
46.4544,53.1118
46.4632,53.1075
46.4834,53.0990
46.5142,53.0868
46.5547,53.0711
46.6039,53.0523
46.6611,53.0308
46.7253,53.0068
46.7956,52.9806
46.8712,52.9528
46.9512,52.9234
47.0346,52.8930
47.0484,52.8879
47.1308,52.8579
47.2092,52.8291
47.2828,52.8020
47.3508,52.7768
47.4122,52.7538
47.4663,52.7335
47.5122,52.7160
47.5491,52.7017
47.5760,52.6910
47.5922,52.6842
47.5968,52.6815
47.5886,52.6794
47.5701,52.6756
47.5472,52.6715
47.5413,52.6705
47.5209,52.6670
47.4895,52.6616
47.4486,52.6544
47.3993,52.6458
47.3432,52.6360
47.2816,52.6252
47.2157,52.6136
47.1470,52.6016
47.1266,52.5980
47.0538,52.5852
46.9813,52.5724
46.9109,52.5601
46.8445,52.5484
46.7837,52.5378
46.7306,52.5284
46.6868,52.5207
46.6542,52.5150
46.6409,52.5127
46.5908,52.5038
46.5331,52.4936
46.4721,52.4827
46.4118,52.4719
46.3566,52.4620
46.3136,52.4542
46.2353,52.4402
46.1531,52.4255
46.0679,52.4104
45.9808,52.3951
45.8928,52.3796
45.8049,52.3641
45.7180,52.3490
45.6332,52.3342
45.5515,52.3200
45.4738,52.3066
45.4011,52.2941
45.3345,52.2827
45.2750,52.2726
45.2235,52.2639
45.1810,52.2569
45.1486,52.2517
45.1272,52.2484
45.1178,52.2473
45.0965,52.2473
45.0965,52.1117
45.0965,51.9761
45.1177,51.9761
45.1180,51.9761
45.1292,51.9747
45.1525,51.9712
45.1872,51.9657
45.2324,51.9583
45.2873,51.9490
45.3512,51.9382
45.4232,51.9259
45.5025,51.9122
45.5883,51.8973
45.6798,51.8813
45.7762,51.8644
45.8767,51.8467
45.9804,51.8284
46.0866,51.8096
46.1945,51.7903
46.2126,51.7871
46.3172,51.7684
46.4106,51.7518
46.4946,51.7368
46.5707,51.7233
46.6405,51.7109
46.7057,51.6993
46.7679,51.6884
46.8287,51.6777
46.8898,51.6670
46.9527,51.6559
47.0192,51.6444
47.0908,51.6319
47.0918,51.6317
47.1542,51.6208
47.2124,51.6106
47.2653,51.6012
47.3115,51.5929
47.3498,51.5859
47.3789,51.5805
47.3976,51.5768
47.4044,51.5752
47.4044,51.5699
47.4044,51.5699
47.3974,51.5683
47.3786,51.5646
47.3493,51.5591
47.3108,51.5521
47.2645,51.5438
47.2115,51.5344
47.1532,51.5241
47.0908,51.5132
47.0788,51.5112
47.0082,51.4989
46.9424,51.4874
46.8799,51.4765
46.8189,51.4658
46.7580,51.4550
46.6954,51.4440
46.6296,51.4323
46.5589,51.4198
46.4816,51.4060
46.3962,51.3908
46.3011,51.3739
46.1945,51.3548
46.1865,51.3534
46.0787,51.3342
45.9727,51.3154
45.8691,51.2971
45.7689,51.2794
45.6729,51.2626
45.5817,51.2467
45.4964,51.2319
45.4176,51.2183
45.3462,51.2061
45.2829,51.1954
45.2287,51.1863
45.1842,51.1790
45.1504,51.1736
45.1279,51.1702
45.1177,51.1691
45.0965,51.1691
45.0965,51.0335
45.0965,50.8979
45.1177,50.8979
45.1180,50.8979
45.1292,50.8966
45.1525,50.8931
45.1872,50.8875
45.2324,50.8801
45.2873,50.8709
45.3512,50.8600
45.4232,50.8477
45.5025,50.8340
45.5883,50.8191
45.6798,50.8032
45.7762,50.7863
45.8767,50.7686
45.9804,50.7502
46.0866,50.7314
46.1945,50.7121
46.2126,50.7089
46.3172,50.6902
46.4106,50.6736
46.4946,50.6586
46.5707,50.6451
46.6405,50.6327
46.7057,50.6212
46.7679,50.6102
46.8287,50.5995
46.8898,50.5888
46.9527,50.5778
47.0192,50.5662
47.0908,50.5537
47.0918,50.5535
47.1542,50.5427
47.2124,50.5324
47.2653,50.5230
47.3115,50.5147
47.3498,50.5077
47.3789,50.5023
47.3976,50.4986
47.4044,50.4970
47.4044,50.4918
47.4044,50.4918
47.3974,50.4901
47.3786,50.4864
47.3493,50.4810
47.3108,50.4740
47.2645,50.4656
47.2115,50.4562
47.1532,50.4460
47.0908,50.4351
47.0788,50.4330
47.0082,50.4207
46.9424,50.4092
46.8799,50.3983
46.8189,50.3876
46.7580,50.3769
46.6954,50.3658
46.6296,50.3542
46.5589,50.3416
46.4816,50.3279
46.3962,50.3127
46.3011,50.2957
46.1945,50.2766
46.0962,50.2591
45.9432,50.2319
45.8032,50.2072
45.6762,50.1849
45.5622,50.1651
45.4611,50.1477
45.3730,50.1328
45.2978,50.1203
45.2355,50.1102
45.1862,50.1026
45.1497,50.0974
45.1262,50.0947
45.1156,50.0944
45.0965,50.0986
45.0965,49.9622
45.0966,49.9303
45.0971,49.8892
45.0980,49.8592
45.0996,49.8392
45.1018,49.8277
45.1048,49.8235
45.1049,49.8234
45.1129,49.8206
45.1326,49.8135
45.1629,49.8026
45.2032,49.7881
45.2527,49.7702
45.3104,49.7494
45.3757,49.7258
45.4476,49.6997
45.5254,49.6716
45.6083,49.6416
45.6954,49.6101
45.7859,49.5773
46.4588,49.3335
46.4590,48.8063
46.4591,48.2791
46.4343,48.2880
46.4297,48.2897
46.4119,48.2961
46.3835,48.3065
46.3456,48.3202
46.2995,48.3370
46.2464,48.3564
46.1874,48.3779
46.1238,48.4011
46.0567,48.4255
45.9873,48.4508
45.9169,48.4765
45.8467,48.5021
45.7777,48.5272
45.7113,48.5515
45.6486,48.5743
45.5908,48.5954
45.5391,48.6143
45.4947,48.6305
45.4588,48.6436
45.4326,48.6532
45.4173,48.6588
45.3998,48.6652
45.3688,48.6765
45.3298,48.6907
45.2852,48.7068
45.2375,48.7241
45.1891,48.7416
45.1444,48.7578
45.1025,48.7733
45.0659,48.7872
45.0363,48.7987
45.0156,48.8071
45.0056,48.8118
45.0040,48.8125
45.0004,48.8132
44.9949,48.8129
44.9868,48.8115
44.9756,48.8089
44.9607,48.8047
44.9413,48.7987
44.9170,48.7908
44.8870,48.7806
44.8509,48.7681
44.8078,48.7530
44.7573,48.7351
44.6987,48.7141
44.6314,48.6899
44.5547,48.6622
44.4681,48.6308
44.3709,48.5956
44.2626,48.5562
44.1424,48.5125
44.0840,48.4912
43.9842,48.4549
43.8883,48.4200
43.7970,48.3867
43.7109,48.3554
43.6309,48.3263
43.5576,48.2995
43.4917,48.2755
43.4340,48.2545
43.3851,48.2366
43.3458,48.2223
43.3168,48.2117
43.2988,48.2051
43.2925,48.2027
43.2935,48.1976
43.2984,48.1822
43.3064,48.1587
43.3168,48.1295
43.3287,48.0968
43.3413,48.0628
43.3536,48.0299
43.3649,48.0003
43.3744,47.9764
43.3811,47.9604
43.3843,47.9545
43.3844,47.9545
43.3923,47.9572
43.4117,47.9640
43.4420,47.9749
43.4825,47.9894
43.5323,48.0074
43.5908,48.0285
43.6572,48.0525
43.7307,48.0791
43.8106,48.1081
43.8962,48.1392
43.9868,48.1720
44.0815,48.2064
44.1797,48.2421
44.1885,48.2453
44.2865,48.2810
44.3812,48.3153
44.4717,48.3480
44.5572,48.3789
44.6371,48.4077
44.7106,48.4341
44.7770,48.4578
44.8354,48.4787
44.8851,48.4963
44.9254,48.5105
44.9556,48.5209
44.9748,48.5274
44.9824,48.5296
44.9853,48.5288
44.9998,48.5240
45.0254,48.5152
45.0615,48.5025
45.1071,48.4863
45.1616,48.4668
45.2242,48.4444
45.2940,48.4193
45.3704,48.3918
45.4524,48.3621
45.5394,48.3306
45.6304,48.2975
45.7249,48.2632
46.4558,47.9971
46.4558,47.4656
46.4558,46.9340
45.7433,46.6745
45.7053,46.6607
45.6131,46.6271
45.5244,46.5949
45.4400,46.5643
45.3608,46.5357
45.2876,46.5093
45.2211,46.4854
45.1623,46.4642
45.1118,46.4462
45.0705,46.4315
45.0392,46.4206
45.0187,46.4135
45.0099,46.4108
44.9969,46.4072
44.9742,46.3991
44.9500,46.3891
44.9110,46.3715
44.9128,46.2763
44.9146,46.1810
44.9708,46.1591
44.9736,46.1580
44.9912,46.1514
45.0200,46.1407
45.0590,46.1264
45.1074,46.1087
45.1641,46.0880
45.2281,46.0646
45.2986,46.0389
45.3746,46.0113
45.4551,45.9821
45.5391,45.9516
45.6257,45.9202
45.6573,45.9088
45.7417,45.8782
45.8225,45.8489
45.8987,45.8213
45.9695,45.7956
46.0341,45.7723
46.0915,45.7515
46.1408,45.7336
46.1812,45.7190
46.2118,45.7079
46.2317,45.7006
46.2401,45.6976
46.2499,45.6930
46.2529,45.6889
46.2513,45.6880
46.2390,45.6831
46.2157,45.6742
46.1825,45.6618
46.1403,45.6462
46.0901,45.6277
46.0330,45.6068
45.9699,45.5838
45.9019,45.5590
45.8299,45.5329
45.7551,45.5057
45.6783,45.4779
45.6006,45.4499
45.5230,45.4219
45.4465,45.3943
45.3722,45.3676
45.3009,45.3420
45.2338,45.3180
45.1719,45.2959
45.1161,45.2761
45.0675,45.2588
45.0270,45.2446
44.9957,45.2338
44.9746,45.2266
44.9647,45.2236
44.9503,45.2200
44.9312,45.2138
44.9201,45.2084
44.9168,45.2027
44.9142,45.1898
44.9125,45.1683
44.9116,45.1366
44.9113,45.0933
44.9113,44.9854
44.9460,44.9724
44.9499,44.9710
44.9665,44.9649
44.9943,44.9547
45.0325,44.9408
45.0803,44.9234
45.1368,44.9028
45.2012,44.8793
45.2728,44.8532
45.3506,44.8249
45.4339,44.7945
45.5218,44.7625
45.6136,44.7291
45.7084,44.6946
45.7604,44.6757
45.8529,44.6420
45.9417,44.6097
46.0258,44.5791
46.1046,44.5504
46.1772,44.5239
46.2429,44.5000
46.3009,44.4788
46.3504,44.4608
46.3906,44.4461
46.4207,44.4352
46.4399,44.4281
46.4475,44.4253
46.4488,44.4245
46.4504,44.4223
46.4517,44.4182
46.4530,44.4115
46.4540,44.4016
46.4550,44.3877
46.4558,44.3692
46.4565,44.3456
46.4571,44.3159
46.4576,44.2798
46.4580,44.2363
46.4583,44.1850
46.4586,44.1251
46.4588,44.0560
46.4589,43.9769
46.4590,43.8873
46.4591,43.7864
46.4591,43.6737
46.4591,43.5484
46.4591,42.6760
46.5881,42.6760
46.7171,42.6760
Z" /> 
</g>
<g style="fill:#840084; fill-opacity:1.0000; stroke:none;">
<circle cx="31.9183" cy="22.4745" r="0.4000" /> 
</g>
<g style="fill:#840084; fill-opacity:1.0000; stroke:none;">
<circle cx="21.7583" cy="22.4745" r="0.4000" /> 
</g>
<g style="fill:#840084; fill-opacity:1.0000; stroke:none;">
<circle cx="54.8583" cy="14.0345" r="1.5000" /> 
</g>
<g style="fill:#840084; fill-opacity:1.0000; stroke:none;">
<circle cx="31.2183" cy="41.5285" r="0.5000" /> 
</g>
<g style="fill:#840084; fill-opacity:1.0000; stroke:none;">
<circle cx="54.8583" cy="53.4345" r="1.5000" /> 
</g>
<g style="fill:#840084; fill-opacity:1.0000; stroke:none;">
<circle cx="20.0183" cy="28.8158" r="0.4500" /> 
</g>
<g style="fill:#840084; fill-opacity:1.0000; stroke:none;">
<circle cx="22.5183" cy="28.8158" r="0.4500" /> 
</g>
<g style="fill:#840084; fill-opacity:1.0000; stroke:none;">
<circle cx="25.0183" cy="28.8158" r="0.4500" /> 
</g>
<g style="fill:#840084; fill-opacity:1.0000; stroke:none;">
<circle cx="20.0183" cy="34.8158" r="0.4500" /> 
</g>
<g style="fill:#840084; fill-opacity:1.0000; stroke:none;">
<circle cx="22.5183" cy="34.8158" r="0.4500" /> 
</g>
<g style="fill:#840084; fill-opacity:1.0000; stroke:none;">
<circle cx="25.0183" cy="34.8158" r="0.4500" /> 
</g>
<g style="fill:#840084; fill-opacity:1.0000; stroke:none;">
<circle cx="41.3783" cy="41.5285" r="0.5000" /> 
</g>
<g style="fill:#840084; fill-opacity:1.0000; stroke:none;">
<circle cx="46.2383" cy="22.4745" r="0.4000" /> 
</g>
<g style="fill:#840084; fill-opacity:1.0000; stroke:none;">
<circle cx="36.0783" cy="22.4745" r="0.4000" /> 
</g>
<g style="fill:#840084; fill-opacity:1.0000; stroke:none;">
<circle cx="19.7833" cy="15.0685" r="0.4500" /> 
</g>
<g style="fill:#840084; fill-opacity:1.0000; stroke:none;">
<circle cx="22.3233" cy="15.0685" r="0.4500" /> 
</g>
<g style="fill:#840084; fill-opacity:1.0000; stroke:none;">
<circle cx="47.7323" cy="15.0685" r="0.4500" /> 
</g>
<g style="fill:#840084; fill-opacity:1.0000; stroke:none;">
<circle cx="45.1923" cy="15.0685" r="0.4500" /> 
</g>
<g style="fill:#840084; fill-opacity:1.0000; stroke:none;">
<circle cx="26.1383" cy="41.5285" r="0.5000" /> 
</g>
<g style="fill:#840084; fill-opacity:1.0000; stroke:none;">
<circle cx="12.6583" cy="53.4345" r="1.5000" /> 
</g>
<g style="fill:#840084; fill-opacity:1.0000; stroke:none;">
<circle cx="42.4983" cy="28.8158" r="0.4500" /> 
</g>
<g style="fill:#840084; fill-opacity:1.0000; stroke:none;">
<circle cx="44.9983" cy="28.8158" r="0.4500" /> 
</g>
<g style="fill:#840084; fill-opacity:1.0000; stroke:none;">
<circle cx="47.4983" cy="28.8158" r="0.4500" /> 
</g>
<g style="fill:#840084; fill-opacity:1.0000; stroke:none;">
<circle cx="42.4983" cy="34.8158" r="0.4500" /> 
</g>
<g style="fill:#840084; fill-opacity:1.0000; stroke:none;">
<circle cx="44.9983" cy="34.8158" r="0.4500" /> 
</g>
<g style="fill:#840084; fill-opacity:1.0000; stroke:none;">
<circle cx="47.4983" cy="34.8158" r="0.4500" /> 
</g>
<g style="fill:#840084; fill-opacity:1.0000; stroke:none;">
<circle cx="30.0083" cy="49.5845" r="0.4750" /> 
</g>
<g style="fill:#840084; fill-opacity:1.0000; stroke:none;">
<circle cx="32.5083" cy="49.5845" r="0.4750" /> 
</g>
<g style="fill:#840084; fill-opacity:1.0000; stroke:none;">
<circle cx="35.0083" cy="49.5845" r="0.4750" /> 
</g>
<g style="fill:#840084; fill-opacity:1.0000; stroke:none;">
<circle cx="37.5083" cy="49.5845" r="0.4750" /> 
</g>
<g style="fill:#840084; fill-opacity:1.0000; stroke:none;">
<circle cx="36.2983" cy="41.5285" r="0.5000" /> 
</g>
<g style="fill:#840084; fill-opacity:1.0000; stroke:none;">
<circle cx="12.6583" cy="14.0345" r="1.5000" /> 
</g>
<g style="fill:none; 
stroke:#008484; stroke-width:0.1500; stroke-opacity:1; 
stroke-linecap:round; stroke-linejoin:round;">
<text x="26.9583" y="20.6345"
textLength="2.2024" font-size="1.3333" lengthAdjust="spacingAndGlyphs"
text-anchor="middle" opacity="0" stroke-opacity="0">R1</text>
<g class="stroked-text"><desc>R1</desc>
<path d="M26.7917 20.5893
L26.4583 20.1131
" />
<path d="M26.2202 20.5893
L26.2202 19.5893
" />
<path d="M26.2202 19.5893
L26.6012 19.5893
" />
<path d="M26.6012 19.5893
L26.6964 19.6369
" />
<path d="M26.6964 19.6369
L26.7440 19.6846
" />
<path d="M26.7440 19.6846
L26.7917 19.7798
" />
<path d="M26.7917 19.7798
L26.7917 19.9227
" />
<path d="M26.7917 19.9227
L26.7440 20.0179
" />
<path d="M26.7440 20.0179
L26.6964 20.0655
" />
<path d="M26.6964 20.0655
L26.6012 20.1131
" />
<path d="M26.6012 20.1131
L26.2202 20.1131
" />
<path d="M27.7440 20.5893
L27.1726 20.5893
" />
<path d="M27.4583 20.5893
L27.4583 19.5893
" />
<path d="M27.4583 19.5893
L27.3631 19.7322
" />
<path d="M27.3631 19.7322
L27.2679 19.8274
" />
<path d="M27.2679 19.8274
L27.1726 19.8750
" />
</g><text x="31.2183" y="39.4885"
textLength="3.5833" font-size="1.3333" lengthAdjust="spacingAndGlyphs"
text-anchor="middle" opacity="0" stroke-opacity="0">LEFT</text>
<g class="stroked-text"><desc>LEFT</desc>
<path d="M30.2660 39.4433
L29.7898 39.4433
" />
<path d="M29.7898 39.4433
L29.7898 38.4433
" />
<path d="M30.5993 38.9195
L30.9326 38.9195
" />
<path d="M31.0755 39.4433
L30.5993 39.4433
" />
<path d="M30.5993 39.4433
L30.5993 38.4433
" />
<path d="M30.5993 38.4433
L31.0755 38.4433
" />
<path d="M31.8374 38.9195
L31.5040 38.9195
" />
<path d="M31.5040 39.4433
L31.5040 38.4433
" />
<path d="M31.5040 38.4433
L31.9802 38.4433
" />
<path d="M32.2183 38.4433
L32.7898 38.4433
" />
<path d="M32.5040 39.4433
L32.5040 38.4433
" />
</g><text x="22.5183" y="26.5658"
textLength="3.2976" font-size="1.3333" lengthAdjust="spacingAndGlyphs"
text-anchor="middle" opacity="0" stroke-opacity="0">SW1</text>
<g class="stroked-text"><desc>SW1</desc>
<path d="M21.1850 26.4730
L21.3279 26.5206
" />
<path d="M21.3279 26.5206
L21.5660 26.5206
" />
<path d="M21.5660 26.5206
L21.6612 26.4730
" />
<path d="M21.6612 26.4730
L21.7088 26.4254
" />
<path d="M21.7088 26.4254
L21.7564 26.3301
" />
<path d="M21.7564 26.3301
L21.7564 26.2349
" />
<path d="M21.7564 26.2349
L21.7088 26.1397
" />
<path d="M21.7088 26.1397
L21.6612 26.0920
" />
<path d="M21.6612 26.0920
L21.5660 26.0444
" />
<path d="M21.5660 26.0444
L21.3755 25.9968
" />
<path d="M21.3755 25.9968
L21.2802 25.9492
" />
<path d="M21.2802 25.9492
L21.2326 25.9016
" />
<path d="M21.2326 25.9016
L21.1850 25.8063
" />
<path d="M21.1850 25.8063
L21.1850 25.7111
" />
<path d="M21.1850 25.7111
L21.2326 25.6159
" />
<path d="M21.2326 25.6159
L21.2802 25.5682
" />
<path d="M21.2802 25.5682
L21.3755 25.5206
" />
<path d="M21.3755 25.5206
L21.6136 25.5206
" />
<path d="M21.6136 25.5206
L21.7564 25.5682
" />
<path d="M22.0898 25.5206
L22.3279 26.5206
" />
<path d="M22.3279 26.5206
L22.5183 25.8063
" />
<path d="M22.5183 25.8063
L22.7088 26.5206
" />
<path d="M22.7088 26.5206
L22.9469 25.5206
" />
<path d="M23.8517 26.5206
L23.2802 26.5206
" />
<path d="M23.5660 26.5206
L23.5660 25.5206
" />
<path d="M23.5660 25.5206
L23.4707 25.6635
" />
<path d="M23.4707 25.6635
L23.3755 25.7587
" />
<path d="M23.3755 25.7587
L23.2802 25.8063
" />
</g><text x="41.3783" y="39.4885"
textLength="3.2976" font-size="1.3333" lengthAdjust="spacingAndGlyphs"
text-anchor="middle" opacity="0" stroke-opacity="0">GND</text>
<g class="stroked-text"><desc>GND</desc>
<path d="M40.6164 38.4909
L40.5212 38.4433
" />
<path d="M40.5212 38.4433
L40.3783 38.4433
" />
<path d="M40.3783 38.4433
L40.2355 38.4909
" />
<path d="M40.2355 38.4909
L40.1402 38.5862
" />
<path d="M40.1402 38.5862
L40.0926 38.6814
" />
<path d="M40.0926 38.6814
L40.0450 38.8719
" />
<path d="M40.0450 38.8719
L40.0450 39.0147
" />
<path d="M40.0450 39.0147
L40.0926 39.2052
" />
<path d="M40.0926 39.2052
L40.1402 39.3005
" />
<path d="M40.1402 39.3005
L40.2355 39.3957
" />
<path d="M40.2355 39.3957
L40.3783 39.4433
" />
<path d="M40.3783 39.4433
L40.4736 39.4433
" />
<path d="M40.4736 39.4433
L40.6164 39.3957
" />
<path d="M40.6164 39.3957
L40.6640 39.3481
" />
<path d="M40.6640 39.3481
L40.6640 39.0147
" />
<path d="M40.6640 39.0147
L40.4736 39.0147
" />
<path d="M41.0926 39.4433
L41.0926 38.4433
" />
<path d="M41.0926 38.4433
L41.6640 39.4433
" />
<path d="M41.6640 39.4433
L41.6640 38.4433
" />
<path d="M42.1402 39.4433
L42.1402 38.4433
" />
<path d="M42.1402 38.4433
L42.3783 38.4433
" />
<path d="M42.3783 38.4433
L42.5212 38.4909
" />
<path d="M42.5212 38.4909
L42.6164 38.5862
" />
<path d="M42.6164 38.5862
L42.6640 38.6814
" />
<path d="M42.6640 38.6814
L42.7117 38.8719
" />
<path d="M42.7117 38.8719
L42.7117 39.0147
" />
<path d="M42.7117 39.0147
L42.6640 39.2052
" />
<path d="M42.6640 39.2052
L42.6164 39.3005
" />
<path d="M42.6164 39.3005
L42.5212 39.3957
" />
<path d="M42.5212 39.3957
L42.3783 39.4433
" />
<path d="M42.3783 39.4433
L42.1402 39.4433
" />
</g><text x="41.1583" y="20.6345"
textLength="2.2024" font-size="1.3333" lengthAdjust="spacingAndGlyphs"
text-anchor="middle" opacity="0" stroke-opacity="0">R2</text>
<g class="stroked-text"><desc>R2</desc>
<path d="M40.9917 20.5893
L40.6583 20.1131
" />
<path d="M40.4202 20.5893
L40.4202 19.5893
" />
<path d="M40.4202 19.5893
L40.8012 19.5893
" />
<path d="M40.8012 19.5893
L40.8964 19.6369
" />
<path d="M40.8964 19.6369
L40.9440 19.6846
" />
<path d="M40.9440 19.6846
L40.9917 19.7798
" />
<path d="M40.9917 19.7798
L40.9917 19.9227
" />
<path d="M40.9917 19.9227
L40.9440 20.0179
" />
<path d="M40.9440 20.0179
L40.8964 20.0655
" />
<path d="M40.8964 20.0655
L40.8012 20.1131
" />
<path d="M40.8012 20.1131
L40.4202 20.1131
" />
<path d="M41.3726 19.6846
L41.4202 19.6369
" />
<path d="M41.4202 19.6369
L41.5155 19.5893
" />
<path d="M41.5155 19.5893
L41.7536 19.5893
" />
<path d="M41.7536 19.5893
L41.8488 19.6369
" />
<path d="M41.8488 19.6369
L41.8964 19.6846
" />
<path d="M41.8964 19.6846
L41.9440 19.7798
" />
<path d="M41.9440 19.7798
L41.9440 19.8750
" />
<path d="M41.9440 19.8750
L41.8964 20.0179
" />
<path d="M41.8964 20.0179
L41.3250 20.5893
" />
<path d="M41.3250 20.5893
L41.9440 20.5893
" />
</g><text x="21.0533" y="11.6085"
textLength="2.2024" font-size="1.3333" lengthAdjust="spacingAndGlyphs"
text-anchor="middle" opacity="0" stroke-opacity="0">D1</text>
<g class="stroked-text"><desc>D1</desc>
<path d="M20.3152 11.5633
L20.3152 10.5633
" />
<path d="M20.3152 10.5633
L20.5533 10.5633
" />
<path d="M20.5533 10.5633
L20.6962 10.6109
" />
<path d="M20.6962 10.6109
L20.7914 10.7062
" />
<path d="M20.7914 10.7062
L20.8390 10.8014
" />
<path d="M20.8390 10.8014
L20.8867 10.9919
" />
<path d="M20.8867 10.9919
L20.8867 11.1347
" />
<path d="M20.8867 11.1347
L20.8390 11.3252
" />
<path d="M20.8390 11.3252
L20.7914 11.4205
" />
<path d="M20.7914 11.4205
L20.6962 11.5157
" />
<path d="M20.6962 11.5157
L20.5533 11.5633
" />
<path d="M20.5533 11.5633
L20.3152 11.5633
" />
<path d="M21.8390 11.5633
L21.2676 11.5633
" />
<path d="M21.5533 11.5633
L21.5533 10.5633
" />
<path d="M21.5533 10.5633
L21.4581 10.7062
" />
<path d="M21.4581 10.7062
L21.3629 10.8014
" />
<path d="M21.3629 10.8014
L21.2676 10.8490
" />
</g><text x="46.4623" y="11.6264"
textLength="2.2024" font-size="1.3333" lengthAdjust="spacingAndGlyphs"
text-anchor="middle" opacity="0" stroke-opacity="0">D2</text>
<g class="stroked-text"><desc>D2</desc>
<path d="M45.7242 11.5812
L45.7242 10.5812
" />
<path d="M45.7242 10.5812
L45.9623 10.5812
" />
<path d="M45.9623 10.5812
L46.1052 10.6289
" />
<path d="M46.1052 10.6289
L46.2004 10.7241
" />
<path d="M46.2004 10.7241
L46.2480 10.8193
" />
<path d="M46.2480 10.8193
L46.2957 11.0098
" />
<path d="M46.2957 11.0098
L46.2957 11.1527
" />
<path d="M46.2957 11.1527
L46.2480 11.3431
" />
<path d="M46.2480 11.3431
L46.2004 11.4384
" />
<path d="M46.2004 11.4384
L46.1052 11.5336
" />
<path d="M46.1052 11.5336
L45.9623 11.5812
" />
<path d="M45.9623 11.5812
L45.7242 11.5812
" />
<path d="M46.6766 10.6765
L46.7242 10.6289
" />
<path d="M46.7242 10.6289
L46.8195 10.5812
" />
<path d="M46.8195 10.5812
L47.0576 10.5812
" />
<path d="M47.0576 10.5812
L47.1528 10.6289
" />
<path d="M47.1528 10.6289
L47.2004 10.6765
" />
<path d="M47.2004 10.6765
L47.2480 10.7717
" />
<path d="M47.2480 10.7717
L47.2480 10.8670
" />
<path d="M47.2480 10.8670
L47.2004 11.0098
" />
<path d="M47.2004 11.0098
L46.6290 11.5812
" />
<path d="M46.6290 11.5812
L47.2480 11.5812
" />
</g><text x="26.1383" y="39.4885"
textLength="4.4881" font-size="1.3333" lengthAdjust="spacingAndGlyphs"
text-anchor="middle" opacity="0" stroke-opacity="0">VBATT</text>
<g class="stroked-text"><desc>VBATT</desc>
<path d="M24.1145 38.4433
L24.4479 39.4433
" />
<path d="M24.4479 39.4433
L24.7812 38.4433
" />
<path d="M25.4479 38.9195
L25.5907 38.9671
" />
<path d="M25.5907 38.9671
L25.6383 39.0147
" />
<path d="M25.6383 39.0147
L25.6860 39.1100
" />
<path d="M25.6860 39.1100
L25.6860 39.2528
" />
<path d="M25.6860 39.2528
L25.6383 39.3481
" />
<path d="M25.6383 39.3481
L25.5907 39.3957
" />
<path d="M25.5907 39.3957
L25.4955 39.4433
" />
<path d="M25.4955 39.4433
L25.1145 39.4433
" />
<path d="M25.1145 39.4433
L25.1145 38.4433
" />
<path d="M25.1145 38.4433
L25.4479 38.4433
" />
<path d="M25.4479 38.4433
L25.5431 38.4909
" />
<path d="M25.5431 38.4909
L25.5907 38.5386
" />
<path d="M25.5907 38.5386
L25.6383 38.6338
" />
<path d="M25.6383 38.6338
L25.6383 38.7290
" />
<path d="M25.6383 38.7290
L25.5907 38.8243
" />
<path d="M25.5907 38.8243
L25.5431 38.8719
" />
<path d="M25.5431 38.8719
L25.4479 38.9195
" />
<path d="M25.4479 38.9195
L25.1145 38.9195
" />
<path d="M26.0669 39.1576
L26.5431 39.1576
" />
<path d="M25.9717 39.4433
L26.3050 38.4433
" />
<path d="M26.3050 38.4433
L26.6383 39.4433
" />
<path d="M26.8288 38.4433
L27.4002 38.4433
" />
<path d="M27.1145 39.4433
L27.1145 38.4433
" />
<path d="M27.5907 38.4433
L28.1621 38.4433
" />
<path d="M27.8764 39.4433
L27.8764 38.4433
" />
</g><text x="44.9983" y="26.5658"
textLength="3.2976" font-size="1.3333" lengthAdjust="spacingAndGlyphs"
text-anchor="middle" opacity="0" stroke-opacity="0">SW2</text>
<g class="stroked-text"><desc>SW2</desc>
<path d="M43.6650 26.4730
L43.8079 26.5206
" />
<path d="M43.8079 26.5206
L44.0460 26.5206
" />
<path d="M44.0460 26.5206
L44.1412 26.4730
" />
<path d="M44.1412 26.4730
L44.1888 26.4254
" />
<path d="M44.1888 26.4254
L44.2364 26.3301
" />
<path d="M44.2364 26.3301
L44.2364 26.2349
" />
<path d="M44.2364 26.2349
L44.1888 26.1397
" />
<path d="M44.1888 26.1397
L44.1412 26.0920
" />
<path d="M44.1412 26.0920
L44.0460 26.0444
" />
<path d="M44.0460 26.0444
L43.8555 25.9968
" />
<path d="M43.8555 25.9968
L43.7602 25.9492
" />
<path d="M43.7602 25.9492
L43.7126 25.9016
" />
<path d="M43.7126 25.9016
L43.6650 25.8063
" />
<path d="M43.6650 25.8063
L43.6650 25.7111
" />
<path d="M43.6650 25.7111
L43.7126 25.6159
" />
<path d="M43.7126 25.6159
L43.7602 25.5682
" />
<path d="M43.7602 25.5682
L43.8555 25.5206
" />
<path d="M43.8555 25.5206
L44.0936 25.5206
" />
<path d="M44.0936 25.5206
L44.2364 25.5682
" />
<path d="M44.5698 25.5206
L44.8079 26.5206
" />
<path d="M44.8079 26.5206
L44.9983 25.8063
" />
<path d="M44.9983 25.8063
L45.1888 26.5206
" />
<path d="M45.1888 26.5206
L45.4269 25.5206
" />
<path d="M45.7602 25.6159
L45.8079 25.5682
" />
<path d="M45.8079 25.5682
L45.9031 25.5206
" />
<path d="M45.9031 25.5206
L46.1412 25.5206
" />
<path d="M46.1412 25.5206
L46.2364 25.5682
" />
<path d="M46.2364 25.5682
L46.2840 25.6159
" />
<path d="M46.2840 25.6159
L46.3317 25.7111
" />
<path d="M46.3317 25.7111
L46.3317 25.8063
" />
<path d="M46.3317 25.8063
L46.2840 25.9492
" />
<path d="M46.2840 25.9492
L45.7126 26.5206
" />
<path d="M45.7126 26.5206
L46.3317 26.5206
" />
</g><text x="33.7583" y="44.9845"
textLength="1.9643" font-size="1.3333" lengthAdjust="spacingAndGlyphs"
text-anchor="middle" opacity="0" stroke-opacity="0">J1</text>
<g class="stroked-text"><desc>J1</desc>
<path d="M33.4250 43.9393
L33.4250 44.6536
" />
<path d="M33.4250 44.6536
L33.3774 44.7965
" />
<path d="M33.3774 44.7965
L33.2821 44.8917
" />
<path d="M33.2821 44.8917
L33.1393 44.9393
" />
<path d="M33.1393 44.9393
L33.0440 44.9393
" />
<path d="M34.4250 44.9393
L33.8536 44.9393
" />
<path d="M34.1393 44.9393
L34.1393 43.9393
" />
<path d="M34.1393 43.9393
L34.0440 44.0822
" />
<path d="M34.0440 44.0822
L33.9488 44.1774
" />
<path d="M33.9488 44.1774
L33.8536 44.2250
" />
</g><text x="36.2983" y="39.4885"
textLength="4.5357" font-size="1.3333" lengthAdjust="spacingAndGlyphs"
text-anchor="middle" opacity="0" stroke-opacity="0">RIGHT</text>
<g class="stroked-text"><desc>RIGHT</desc>
<path d="M34.9650 39.4433
L34.6317 38.9671
" />
<path d="M34.3936 39.4433
L34.3936 38.4433
" />
<path d="M34.3936 38.4433
L34.7745 38.4433
" />
<path d="M34.7745 38.4433
L34.8698 38.4909
" />
<path d="M34.8698 38.4909
L34.9174 38.5386
" />
<path d="M34.9174 38.5386
L34.9650 38.6338
" />
<path d="M34.9650 38.6338
L34.9650 38.7767
" />
<path d="M34.9650 38.7767
L34.9174 38.8719
" />
<path d="M34.9174 38.8719
L34.8698 38.9195
" />
<path d="M34.8698 38.9195
L34.7745 38.9671
" />
<path d="M34.7745 38.9671
L34.3936 38.9671
" />
<path d="M35.3936 39.4433
L35.3936 38.4433
" />
<path d="M36.3936 38.4909
L36.2983 38.4433
" />
<path d="M36.2983 38.4433
L36.1555 38.4433
" />
<path d="M36.1555 38.4433
L36.0126 38.4909
" />
<path d="M36.0126 38.4909
L35.9174 38.5862
" />
<path d="M35.9174 38.5862
L35.8698 38.6814
" />
<path d="M35.8698 38.6814
L35.8221 38.8719
" />
<path d="M35.8221 38.8719
L35.8221 39.0147
" />
<path d="M35.8221 39.0147
L35.8698 39.2052
" />
<path d="M35.8698 39.2052
L35.9174 39.3005
" />
<path d="M35.9174 39.3005
L36.0126 39.3957
" />
<path d="M36.0126 39.3957
L36.1555 39.4433
" />
<path d="M36.1555 39.4433
L36.2507 39.4433
" />
<path d="M36.2507 39.4433
L36.3936 39.3957
" />
<path d="M36.3936 39.3957
L36.4412 39.3481
" />
<path d="M36.4412 39.3481
L36.4412 39.0147
" />
<path d="M36.4412 39.0147
L36.2507 39.0147
" />
<path d="M36.8698 39.4433
L36.8698 38.4433
" />
<path d="M36.8698 38.9195
L37.4412 38.9195
" />
<path d="M37.4412 39.4433
L37.4412 38.4433
" />
<path d="M37.7745 38.4433
L38.3460 38.4433
" />
<path d="M38.0602 39.4433
L38.0602 38.4433
" />
</g></g>
<g style="fill:none; 
stroke:#008484; stroke-width:0.1200; stroke-opacity:1; 
stroke-linecap:round; stroke-linejoin:round;">
<path d="M22.7983 22.4745
L23.5683 22.4745
" />
<path d="M23.5683 21.1045
L23.5683 23.8445
" />
<path d="M23.5683 23.8445
L30.1083 23.8445
" />
<path d="M30.1083 21.1045
L23.5683 21.1045
" />
<path d="M30.1083 23.8445
L30.1083 21.1045
" />
<path d="M30.8783 22.4745
L30.1083 22.4745
" />
</g>
<g style="fill:none; 
stroke:#008484; stroke-width:0.1500; stroke-opacity:1; 
stroke-linecap:round; stroke-linejoin:round;">
<circle cx="31.2183" cy="41.5285" r="1.4000" /> 
</g>
<g style="fill:none; 
stroke:#008484; stroke-width:0.1200; stroke-opacity:1; 
stroke-linecap:round; stroke-linejoin:round;">
<path d="M17.2483 27.8458
L17.2483 26.8458
" />
<path d="M17.4983 36.5358
L17.4983 27.0958
" />
<path d="M18.2483 26.8458
L17.2483 26.8458
" />
<path d="M20.8183 30.1158
L20.8183 33.4158
" />
<path d="M24.1183 30.1158
L20.8183 30.1158
" />
<path d="M24.1183 30.1158
L24.1183 33.4158
" />
<path d="M24.1183 33.4158
L20.8183 33.4158
" />
<path d="M27.5383 27.0958
L17.4983 27.0958
" />
<path d="M27.5383 36.5358
L17.4983 36.5358
" />
<path d="M27.5383 36.5358
L27.5383 27.0958
" />
</g>
<g style="fill:none; 
stroke:#008484; stroke-width:0.1500; stroke-opacity:1; 
stroke-linecap:round; stroke-linejoin:round;">
<circle cx="41.3783" cy="41.5285" r="1.4000" /> 
</g>
<g style="fill:none; 
stroke:#008484; stroke-width:0.1200; stroke-opacity:1; 
stroke-linecap:round; stroke-linejoin:round;">
<path d="M37.1183 22.4745
L37.8883 22.4745
" />
<path d="M37.8883 21.1045
L37.8883 23.8445
" />
<path d="M37.8883 23.8445
L44.4283 23.8445
" />
<path d="M44.4283 21.1045
L37.8883 21.1045
" />
<path d="M44.4283 23.8445
L44.4283 21.1045
" />
<path d="M45.1983 22.4745
L44.4283 22.4745
" />
<path d="M18.4933 13.5235
L18.4933 16.6135
" />
<path d="M24.0433 15.0685 A2.9900 2.9900 0.0 0 0 18.4933 13.5237" />
<path d="M18.4933 16.6133 A2.9900 2.9900 0.0 0 0 24.0433 15.0685" />
<circle cx="21.0533" cy="15.0685" r="2.5000" /> 
<path d="M49.0223 16.6135
L49.0223 13.5235
" />
<path d="M49.0223 13.5237 A2.9900 2.9900 0.0 0 0 43.4723 15.0685" />
<path d="M43.4723 15.0685 A2.9900 2.9900 0.0 0 0 49.0223 16.6133" />
<circle cx="46.4623" cy="15.0685" r="2.5000" /> 
</g>
<g style="fill:none; 
stroke:#008484; stroke-width:0.1500; stroke-opacity:1; 
stroke-linecap:round; stroke-linejoin:round;">
<circle cx="26.1383" cy="41.5285" r="1.4000" /> 
</g>
<g style="fill:none; 
stroke:#008484; stroke-width:0.1200; stroke-opacity:1; 
stroke-linecap:round; stroke-linejoin:round;">
<path d="M39.7283 27.8458
L39.7283 26.8458
" />
<path d="M39.9783 36.5358
L39.9783 27.0958
" />
<path d="M40.7283 26.8458
L39.7283 26.8458
" />
<path d="M43.2983 30.1158
L43.2983 33.4158
" />
<path d="M46.5983 30.1158
L43.2983 30.1158
" />
<path d="M46.5983 30.1158
L46.5983 33.4158
" />
<path d="M46.5983 33.4158
L43.2983 33.4158
" />
<path d="M50.0183 27.0958
L39.9783 27.0958
" />
<path d="M50.0183 36.5358
L39.9783 36.5358
" />
<path d="M50.0183 36.5358
L50.0183 27.0958
" />
<path d="M27.4483 45.5745
L28.8683 45.5745
" />
<path d="M27.4483 57.2945
L27.4483 45.5745
" />
<path d="M28.8683 45.5745
L28.8683 50.0745
" />
<path d="M29.7083 47.4845
L30.3083 47.4845
" />
<path d="M29.7583 51.1845
L29.7583 56.6845
" />
<path d="M29.7583 56.6845
L30.2583 56.6845
" />
<path d="M30.0083 48.0845
L29.7083 47.4845
" />
<path d="M30.2583 51.1845
L29.7583 51.1845
" />
<path d="M30.2583 56.6845
L30.2583 51.1845
" />
<path d="M30.3083 47.4845
L30.0083 48.0845
" />
<path d="M32.2583 51.1845
L32.2583 56.6845
" />
<path d="M32.2583 56.6845
L32.7583 56.6845
" />
<path d="M32.7583 51.1845
L32.2583 51.1845
" />
<path d="M32.7583 56.6845
L32.7583 51.1845
" />
<path d="M33.7583 57.2945
L27.4483 57.2945
" />
<path d="M33.7583 57.2945
L40.0683 57.2945
" />
<path d="M34.7583 51.1845
L34.7583 56.6845
" />
<path d="M34.7583 56.6845
L35.2583 56.6845
" />
<path d="M35.2583 51.1845
L34.7583 51.1845
" />
<path d="M35.2583 56.6845
L35.2583 51.1845
" />
<path d="M37.2583 51.1845
L37.2583 56.6845
" />
<path d="M37.2583 56.6845
L37.7583 56.6845
" />
<path d="M37.7583 51.1845
L37.2583 51.1845
" />
<path d="M37.7583 56.6845
L37.7583 51.1845
" />
<path d="M38.6483 45.5745
L38.6483 50.0745
" />
<path d="M40.0683 45.5745
L38.6483 45.5745
" />
<path d="M40.0683 57.2945
L40.0683 45.5745
" />
</g>
<g style="fill:none; 
stroke:#008484; stroke-width:0.1500; stroke-opacity:1; 
stroke-linecap:round; stroke-linejoin:round;">
<circle cx="36.2983" cy="41.5285" r="1.4000" /> 
</g>
<g style="fill:#008484; fill-opacity:1.0000; stroke:none;">
<circle cx="31.9183" cy="22.4745" r="0.4000" /> 
</g>
<g style="fill:#008484; fill-opacity:1.0000; stroke:none;">
<circle cx="21.7583" cy="22.4745" r="0.4000" /> 
</g>
<g style="fill:#008484; fill-opacity:1.0000; stroke:none;">
<circle cx="54.8583" cy="14.0345" r="1.5000" /> 
</g>
<g style="fill:#008484; fill-opacity:1.0000; stroke:none;">
<circle cx="31.2183" cy="41.5285" r="0.5000" /> 
</g>
<g style="fill:#008484; fill-opacity:1.0000; stroke:none;">
<circle cx="54.8583" cy="53.4345" r="1.5000" /> 
</g>
<g style="fill:#008484; fill-opacity:1.0000; stroke:none;">
<circle cx="20.0183" cy="28.8158" r="0.4500" /> 
</g>
<g style="fill:#008484; fill-opacity:1.0000; stroke:none;">
<circle cx="22.5183" cy="28.8158" r="0.4500" /> 
</g>
<g style="fill:#008484; fill-opacity:1.0000; stroke:none;">
<circle cx="25.0183" cy="28.8158" r="0.4500" /> 
</g>
<g style="fill:#008484; fill-opacity:1.0000; stroke:none;">
<circle cx="20.0183" cy="34.8158" r="0.4500" /> 
</g>
<g style="fill:#008484; fill-opacity:1.0000; stroke:none;">
<circle cx="22.5183" cy="34.8158" r="0.4500" /> 
</g>
<g style="fill:#008484; fill-opacity:1.0000; stroke:none;">
<circle cx="25.0183" cy="34.8158" r="0.4500" /> 
</g>
<g style="fill:#008484; fill-opacity:1.0000; stroke:none;">
<circle cx="41.3783" cy="41.5285" r="0.5000" /> 
</g>
<g style="fill:#008484; fill-opacity:1.0000; stroke:none;">
<circle cx="46.2383" cy="22.4745" r="0.4000" /> 
</g>
<g style="fill:#008484; fill-opacity:1.0000; stroke:none;">
<circle cx="36.0783" cy="22.4745" r="0.4000" /> 
</g>
<g style="fill:#008484; fill-opacity:1.0000; stroke:none;">
<circle cx="19.7833" cy="15.0685" r="0.4500" /> 
</g>
<g style="fill:#008484; fill-opacity:1.0000; stroke:none;">
<circle cx="22.3233" cy="15.0685" r="0.4500" /> 
</g>
<g style="fill:#008484; fill-opacity:1.0000; stroke:none;">
<circle cx="47.7323" cy="15.0685" r="0.4500" /> 
</g>
<g style="fill:#008484; fill-opacity:1.0000; stroke:none;">
<circle cx="45.1923" cy="15.0685" r="0.4500" /> 
</g>
<g style="fill:#008484; fill-opacity:1.0000; stroke:none;">
<circle cx="26.1383" cy="41.5285" r="0.5000" /> 
</g>
<g style="fill:#008484; fill-opacity:1.0000; stroke:none;">
<circle cx="12.6583" cy="53.4345" r="1.5000" /> 
</g>
<g style="fill:#008484; fill-opacity:1.0000; stroke:none;">
<circle cx="42.4983" cy="28.8158" r="0.4500" /> 
</g>
<g style="fill:#008484; fill-opacity:1.0000; stroke:none;">
<circle cx="44.9983" cy="28.8158" r="0.4500" /> 
</g>
<g style="fill:#008484; fill-opacity:1.0000; stroke:none;">
<circle cx="47.4983" cy="28.8158" r="0.4500" /> 
</g>
<g style="fill:#008484; fill-opacity:1.0000; stroke:none;">
<circle cx="42.4983" cy="34.8158" r="0.4500" /> 
</g>
<g style="fill:#008484; fill-opacity:1.0000; stroke:none;">
<circle cx="44.9983" cy="34.8158" r="0.4500" /> 
</g>
<g style="fill:#008484; fill-opacity:1.0000; stroke:none;">
<circle cx="47.4983" cy="34.8158" r="0.4500" /> 
</g>
<g style="fill:#008484; fill-opacity:1.0000; stroke:none;">
<circle cx="30.0083" cy="49.5845" r="0.4750" /> 
</g>
<g style="fill:#008484; fill-opacity:1.0000; stroke:none;">
<circle cx="32.5083" cy="49.5845" r="0.4750" /> 
</g>
<g style="fill:#008484; fill-opacity:1.0000; stroke:none;">
<circle cx="35.0083" cy="49.5845" r="0.4750" /> 
</g>
<g style="fill:#008484; fill-opacity:1.0000; stroke:none;">
<circle cx="37.5083" cy="49.5845" r="0.4750" /> 
</g>
<g style="fill:#008484; fill-opacity:1.0000; stroke:none;">
<circle cx="36.2983" cy="41.5285" r="0.5000" /> 
</g>
<g style="fill:#008484; fill-opacity:1.0000; stroke:none;">
<circle cx="12.6583" cy="14.0345" r="1.5000" /> 
<path style="fill:none; 
stroke:#C2C200; stroke-width:0.2000; stroke-opacity:1; 
stroke-linecap:round; stroke-linejoin:round;fill:none"
d="M 8.3583,9.7345
59.1583,9.7345
59.1583,57.7345
8.3583,57.7345
Z" /> 
</g>
<g style="fill:#C2C200; fill-opacity:1.0000; stroke:none;">
<circle cx="31.9183" cy="22.4745" r="0.4000" /> 
</g>
<g style="fill:#C2C200; fill-opacity:1.0000; stroke:none;">
<circle cx="21.7583" cy="22.4745" r="0.4000" /> 
</g>
<g style="fill:#C2C200; fill-opacity:1.0000; stroke:none;">
<circle cx="54.8583" cy="14.0345" r="1.5000" /> 
</g>
<g style="fill:#C2C200; fill-opacity:1.0000; stroke:none;">
<circle cx="31.2183" cy="41.5285" r="0.5000" /> 
</g>
<g style="fill:#C2C200; fill-opacity:1.0000; stroke:none;">
<circle cx="54.8583" cy="53.4345" r="1.5000" /> 
</g>
<g style="fill:#C2C200; fill-opacity:1.0000; stroke:none;">
<circle cx="20.0183" cy="28.8158" r="0.4500" /> 
</g>
<g style="fill:#C2C200; fill-opacity:1.0000; stroke:none;">
<circle cx="22.5183" cy="28.8158" r="0.4500" /> 
</g>
<g style="fill:#C2C200; fill-opacity:1.0000; stroke:none;">
<circle cx="25.0183" cy="28.8158" r="0.4500" /> 
</g>
<g style="fill:#C2C200; fill-opacity:1.0000; stroke:none;">
<circle cx="20.0183" cy="34.8158" r="0.4500" /> 
</g>
<g style="fill:#C2C200; fill-opacity:1.0000; stroke:none;">
<circle cx="22.5183" cy="34.8158" r="0.4500" /> 
</g>
<g style="fill:#C2C200; fill-opacity:1.0000; stroke:none;">
<circle cx="25.0183" cy="34.8158" r="0.4500" /> 
</g>
<g style="fill:#C2C200; fill-opacity:1.0000; stroke:none;">
<circle cx="41.3783" cy="41.5285" r="0.5000" /> 
</g>
<g style="fill:#C2C200; fill-opacity:1.0000; stroke:none;">
<circle cx="46.2383" cy="22.4745" r="0.4000" /> 
</g>
<g style="fill:#C2C200; fill-opacity:1.0000; stroke:none;">
<circle cx="36.0783" cy="22.4745" r="0.4000" /> 
</g>
<g style="fill:#C2C200; fill-opacity:1.0000; stroke:none;">
<circle cx="19.7833" cy="15.0685" r="0.4500" /> 
</g>
<g style="fill:#C2C200; fill-opacity:1.0000; stroke:none;">
<circle cx="22.3233" cy="15.0685" r="0.4500" /> 
</g>
<g style="fill:#C2C200; fill-opacity:1.0000; stroke:none;">
<circle cx="47.7323" cy="15.0685" r="0.4500" /> 
</g>
<g style="fill:#C2C200; fill-opacity:1.0000; stroke:none;">
<circle cx="45.1923" cy="15.0685" r="0.4500" /> 
</g>
<g style="fill:#C2C200; fill-opacity:1.0000; stroke:none;">
<circle cx="26.1383" cy="41.5285" r="0.5000" /> 
</g>
<g style="fill:#C2C200; fill-opacity:1.0000; stroke:none;">
<circle cx="12.6583" cy="53.4345" r="1.5000" /> 
</g>
<g style="fill:#C2C200; fill-opacity:1.0000; stroke:none;">
<circle cx="42.4983" cy="28.8158" r="0.4500" /> 
</g>
<g style="fill:#C2C200; fill-opacity:1.0000; stroke:none;">
<circle cx="44.9983" cy="28.8158" r="0.4500" /> 
</g>
<g style="fill:#C2C200; fill-opacity:1.0000; stroke:none;">
<circle cx="47.4983" cy="28.8158" r="0.4500" /> 
</g>
<g style="fill:#C2C200; fill-opacity:1.0000; stroke:none;">
<circle cx="42.4983" cy="34.8158" r="0.4500" /> 
</g>
<g style="fill:#C2C200; fill-opacity:1.0000; stroke:none;">
<circle cx="44.9983" cy="34.8158" r="0.4500" /> 
</g>
<g style="fill:#C2C200; fill-opacity:1.0000; stroke:none;">
<circle cx="47.4983" cy="34.8158" r="0.4500" /> 
</g>
<g style="fill:#C2C200; fill-opacity:1.0000; stroke:none;">
<circle cx="30.0083" cy="49.5845" r="0.4750" /> 
</g>
<g style="fill:#C2C200; fill-opacity:1.0000; stroke:none;">
<circle cx="32.5083" cy="49.5845" r="0.4750" /> 
</g>
<g style="fill:#C2C200; fill-opacity:1.0000; stroke:none;">
<circle cx="35.0083" cy="49.5845" r="0.4750" /> 
</g>
<g style="fill:#C2C200; fill-opacity:1.0000; stroke:none;">
<circle cx="37.5083" cy="49.5845" r="0.4750" /> 
</g>
<g style="fill:#C2C200; fill-opacity:1.0000; stroke:none;">
<circle cx="36.2983" cy="41.5285" r="0.5000" /> 
</g>
<g style="fill:#C2C200; fill-opacity:1.0000; stroke:none;">
<circle cx="12.6583" cy="14.0345" r="1.5000" /> 
</g>
<g style="fill:#008400; fill-opacity:1.0000; stroke:none;">
<circle cx="31.9183" cy="22.4745" r="0.8000" /> 
</g>
<g style="fill:#008400; fill-opacity:1.0000; stroke:none;">
<circle cx="21.7583" cy="22.4745" r="0.8000" /> 
<circle cx="31.2183" cy="41.5285" r="1.0000" /> 
<path style="fill:#008400; fill-opacity:1.0000; stroke:none;fill-rule:evenodd;"
d="M 19.1183,29.7158
19.1183,27.9158
20.9183,27.9158
20.9183,29.7158
Z" /> 
</g>
<g style="fill:#008400; fill-opacity:1.0000; stroke:none;">
<circle cx="22.5183" cy="28.8158" r="0.9000" /> 
</g>
<g style="fill:#008400; fill-opacity:1.0000; stroke:none;">
<circle cx="25.0183" cy="28.8158" r="0.9000" /> 
</g>
<g style="fill:#008400; fill-opacity:1.0000; stroke:none;">
<circle cx="20.0183" cy="34.8158" r="0.9000" /> 
</g>
<g style="fill:#008400; fill-opacity:1.0000; stroke:none;">
<circle cx="22.5183" cy="34.8158" r="0.9000" /> 
</g>
<g style="fill:#008400; fill-opacity:1.0000; stroke:none;">
<circle cx="25.0183" cy="34.8158" r="0.9000" /> 
</g>
<g style="fill:#008400; fill-opacity:1.0000; stroke:none;">
<circle cx="41.3783" cy="41.5285" r="1.0000" /> 
</g>
<g style="fill:#008400; fill-opacity:1.0000; stroke:none;">
<circle cx="46.2383" cy="22.4745" r="0.8000" /> 
</g>
<g style="fill:#008400; fill-opacity:1.0000; stroke:none;">
<circle cx="36.0783" cy="22.4745" r="0.8000" /> 
<path style="fill:#008400; fill-opacity:1.0000; stroke:none;fill-rule:evenodd;"
d="M 18.8833,15.9685
18.8833,14.1685
20.6833,14.1685
20.6833,15.9685
Z" /> 
<circle cx="22.3233" cy="15.0685" r="0.9000" /> 
<path style="fill:#008400; fill-opacity:1.0000; stroke:none;fill-rule:evenodd;"
d="M 48.6323,14.1685
48.6323,15.9685
46.8323,15.9685
46.8323,14.1685
Z" /> 
</g>
<g style="fill:#008400; fill-opacity:1.0000; stroke:none;">
<circle cx="45.1923" cy="15.0685" r="0.9000" /> 
</g>
<g style="fill:#008400; fill-opacity:1.0000; stroke:none;">
<circle cx="26.1383" cy="41.5285" r="1.0000" /> 
<path style="fill:#008400; fill-opacity:1.0000; stroke:none;fill-rule:evenodd;"
d="M 41.5983,29.7158
41.5983,27.9158
43.3983,27.9158
43.3983,29.7158
Z" /> 
</g>
<g style="fill:#008400; fill-opacity:1.0000; stroke:none;">
<circle cx="44.9983" cy="28.8158" r="0.9000" /> 
</g>
<g style="fill:#008400; fill-opacity:1.0000; stroke:none;">
<circle cx="47.4983" cy="28.8158" r="0.9000" /> 
</g>
<g style="fill:#008400; fill-opacity:1.0000; stroke:none;">
<circle cx="42.4983" cy="34.8158" r="0.9000" /> 
</g>
<g style="fill:#008400; fill-opacity:1.0000; stroke:none;">
<circle cx="44.9983" cy="34.8158" r="0.9000" /> 
</g>
<g style="fill:#008400; fill-opacity:1.0000; stroke:none;">
<circle cx="47.4983" cy="34.8158" r="0.9000" /> 
<path style="fill:#008400; fill-opacity:1.0000; stroke:none;fill-rule:evenodd;"
d="M 29.1583,48.8595
29.1774,48.7638
29.2316,48.6827
29.3127,48.6285
29.4083,48.6095
30.6083,48.6095
30.7040,48.6285
30.7851,48.6827
30.8393,48.7638
30.8583,48.8595
30.8583,50.3095
30.8393,50.4052
30.7851,50.4863
30.7040,50.5405
30.6083,50.5595
29.4083,50.5595
29.3127,50.5405
29.2316,50.4863
29.1774,50.4052
29.1583,50.3095
Z" /> 
</g>
<g style="fill:none; 
stroke:#008400; stroke-width:1.7000; stroke-opacity:1; 
stroke-linecap:round; stroke-linejoin:round;">
<path d="M32.5083 49.4595
L32.5083 49.7095
" />
<path d="M35.0083 49.4595
L35.0083 49.7095
" />
<path d="M37.5083 49.4595
L37.5083 49.7095
" />
</g>
<g style="fill:#008400; fill-opacity:1.0000; stroke:none;">
<circle cx="36.2983" cy="41.5285" r="1.0000" /> 
</g>
<g style="fill:none; 
stroke:#008400; stroke-width:0.2540; stroke-opacity:1; 
stroke-linecap:round; stroke-linejoin:round;">
<path d="M41.3783 38.9885
L40.6163 38.2265
" />
<path d="M16.6583 37.5345
L16.6583 29.6158
" />
<path d="M40.6163 38.2265
L17.3503 38.2265
" />
<path d="M41.3783 41.5285
L41.3783 38.9885
" />
<path d="M17.4583 28.8158
L20.0183 28.8158
" />
<path d="M42.4983 20.3025
L47.7323 15.0685
" />
<path d="M17.3503 38.2265
L16.6583 37.5345
" />
<path d="M42.4983 28.8158
L42.4983 20.3025
" />
<path d="M16.6583 29.6158
L17.4583 28.8158
" />
<path d="M48.9783 43.8145
L50.0583 42.7345
" />
<path d="M26.1383 43.5605
L26.3923 43.8145
" />
<path d="M48.0583 43.8145
L48.9783 43.8145
" />
<path d="M49.2583 28.8158
L47.4983 28.8158
" />
<path d="M50.0583 42.7345
L50.0583 29.6158
" />
<path d="M26.3923 43.8145
L48.0583 43.8145
" />
<path d="M50.0583 29.6158
L49.2583 28.8158
" />
<path d="M26.1383 41.5285
L26.1383 43.5605
" />
<path d="M44.9983 25.9545
L44.9983 28.8158
" />
<path d="M46.2383 22.4745
L46.2383 24.7145
" />
<path d="M46.2383 24.7145
L44.9983 25.9545
" />
</g>
<g style="fill:#FFFFFF; fill-opacity:1.0000; stroke:none;">
<circle cx="31.9183" cy="22.4745" r="0.4000" /> 
</g>
<g style="fill:#FFFFFF; fill-opacity:1.0000; stroke:none;">
<circle cx="21.7583" cy="22.4745" r="0.4000" /> 
</g>
<g style="fill:#FFFFFF; fill-opacity:1.0000; stroke:none;">
<circle cx="54.8583" cy="14.0345" r="1.5000" /> 
</g>
<g style="fill:#FFFFFF; fill-opacity:1.0000; stroke:none;">
<circle cx="31.2183" cy="41.5285" r="0.5000" /> 
</g>
<g style="fill:#FFFFFF; fill-opacity:1.0000; stroke:none;">
<circle cx="54.8583" cy="53.4345" r="1.5000" /> 
</g>
<g style="fill:#FFFFFF; fill-opacity:1.0000; stroke:none;">
<circle cx="20.0183" cy="28.8158" r="0.4500" /> 
</g>
<g style="fill:#FFFFFF; fill-opacity:1.0000; stroke:none;">
<circle cx="22.5183" cy="28.8158" r="0.4500" /> 
</g>
<g style="fill:#FFFFFF; fill-opacity:1.0000; stroke:none;">
<circle cx="25.0183" cy="28.8158" r="0.4500" /> 
</g>
<g style="fill:#FFFFFF; fill-opacity:1.0000; stroke:none;">
<circle cx="20.0183" cy="34.8158" r="0.4500" /> 
</g>
<g style="fill:#FFFFFF; fill-opacity:1.0000; stroke:none;">
<circle cx="22.5183" cy="34.8158" r="0.4500" /> 
</g>
<g style="fill:#FFFFFF; fill-opacity:1.0000; stroke:none;">
<circle cx="25.0183" cy="34.8158" r="0.4500" /> 
</g>
<g style="fill:#FFFFFF; fill-opacity:1.0000; stroke:none;">
<circle cx="41.3783" cy="41.5285" r="0.5000" /> 
</g>
<g style="fill:#FFFFFF; fill-opacity:1.0000; stroke:none;">
<circle cx="46.2383" cy="22.4745" r="0.4000" /> 
</g>
<g style="fill:#FFFFFF; fill-opacity:1.0000; stroke:none;">
<circle cx="36.0783" cy="22.4745" r="0.4000" /> 
</g>
<g style="fill:#FFFFFF; fill-opacity:1.0000; stroke:none;">
<circle cx="19.7833" cy="15.0685" r="0.4500" /> 
</g>
<g style="fill:#FFFFFF; fill-opacity:1.0000; stroke:none;">
<circle cx="22.3233" cy="15.0685" r="0.4500" /> 
</g>
<g style="fill:#FFFFFF; fill-opacity:1.0000; stroke:none;">
<circle cx="47.7323" cy="15.0685" r="0.4500" /> 
</g>
<g style="fill:#FFFFFF; fill-opacity:1.0000; stroke:none;">
<circle cx="45.1923" cy="15.0685" r="0.4500" /> 
</g>
<g style="fill:#FFFFFF; fill-opacity:1.0000; stroke:none;">
<circle cx="26.1383" cy="41.5285" r="0.5000" /> 
</g>
<g style="fill:#FFFFFF; fill-opacity:1.0000; stroke:none;">
<circle cx="12.6583" cy="53.4345" r="1.5000" /> 
</g>
<g style="fill:#FFFFFF; fill-opacity:1.0000; stroke:none;">
<circle cx="42.4983" cy="28.8158" r="0.4500" /> 
</g>
<g style="fill:#FFFFFF; fill-opacity:1.0000; stroke:none;">
<circle cx="44.9983" cy="28.8158" r="0.4500" /> 
</g>
<g style="fill:#FFFFFF; fill-opacity:1.0000; stroke:none;">
<circle cx="47.4983" cy="28.8158" r="0.4500" /> 
</g>
<g style="fill:#FFFFFF; fill-opacity:1.0000; stroke:none;">
<circle cx="42.4983" cy="34.8158" r="0.4500" /> 
</g>
<g style="fill:#FFFFFF; fill-opacity:1.0000; stroke:none;">
<circle cx="44.9983" cy="34.8158" r="0.4500" /> 
</g>
<g style="fill:#FFFFFF; fill-opacity:1.0000; stroke:none;">
<circle cx="47.4983" cy="34.8158" r="0.4500" /> 
</g>
<g style="fill:#FFFFFF; fill-opacity:1.0000; stroke:none;">
<circle cx="30.0083" cy="49.5845" r="0.4750" /> 
</g>
<g style="fill:#FFFFFF; fill-opacity:1.0000; stroke:none;">
<circle cx="32.5083" cy="49.5845" r="0.4750" /> 
</g>
<g style="fill:#FFFFFF; fill-opacity:1.0000; stroke:none;">
<circle cx="35.0083" cy="49.5845" r="0.4750" /> 
</g>
<g style="fill:#FFFFFF; fill-opacity:1.0000; stroke:none;">
<circle cx="37.5083" cy="49.5845" r="0.4750" /> 
</g>
<g style="fill:#FFFFFF; fill-opacity:1.0000; stroke:none;">
<circle cx="36.2983" cy="41.5285" r="0.5000" /> 
</g>
<g style="fill:#FFFFFF; fill-opacity:1.0000; stroke:none;">
<circle cx="12.6583" cy="14.0345" r="1.5000" /> 
</g>
<g style="fill:#840000; fill-opacity:1.0000; stroke:none;">
<circle cx="31.9183" cy="22.4745" r="0.8000" /> 
</g>
<g style="fill:#840000; fill-opacity:1.0000; stroke:none;">
<circle cx="21.7583" cy="22.4745" r="0.8000" /> 
<circle cx="31.2183" cy="41.5285" r="1.0000" /> 
<path style="fill:#840000; fill-opacity:1.0000; stroke:none;fill-rule:evenodd;"
d="M 19.1183,29.7158
19.1183,27.9158
20.9183,27.9158
20.9183,29.7158
Z" /> 
</g>
<g style="fill:#840000; fill-opacity:1.0000; stroke:none;">
<circle cx="22.5183" cy="28.8158" r="0.9000" /> 
</g>
<g style="fill:#840000; fill-opacity:1.0000; stroke:none;">
<circle cx="25.0183" cy="28.8158" r="0.9000" /> 
</g>
<g style="fill:#840000; fill-opacity:1.0000; stroke:none;">
<circle cx="20.0183" cy="34.8158" r="0.9000" /> 
</g>
<g style="fill:#840000; fill-opacity:1.0000; stroke:none;">
<circle cx="22.5183" cy="34.8158" r="0.9000" /> 
</g>
<g style="fill:#840000; fill-opacity:1.0000; stroke:none;">
<circle cx="25.0183" cy="34.8158" r="0.9000" /> 
</g>
<g style="fill:#840000; fill-opacity:1.0000; stroke:none;">
<circle cx="41.3783" cy="41.5285" r="1.0000" /> 
</g>
<g style="fill:#840000; fill-opacity:1.0000; stroke:none;">
<circle cx="46.2383" cy="22.4745" r="0.8000" /> 
</g>
<g style="fill:#840000; fill-opacity:1.0000; stroke:none;">
<circle cx="36.0783" cy="22.4745" r="0.8000" /> 
<path style="fill:#840000; fill-opacity:1.0000; stroke:none;fill-rule:evenodd;"
d="M 18.8833,15.9685
18.8833,14.1685
20.6833,14.1685
20.6833,15.9685
Z" /> 
<circle cx="22.3233" cy="15.0685" r="0.9000" /> 
<path style="fill:#840000; fill-opacity:1.0000; stroke:none;fill-rule:evenodd;"
d="M 48.6323,14.1685
48.6323,15.9685
46.8323,15.9685
46.8323,14.1685
Z" /> 
</g>
<g style="fill:#840000; fill-opacity:1.0000; stroke:none;">
<circle cx="45.1923" cy="15.0685" r="0.9000" /> 
</g>
<g style="fill:#840000; fill-opacity:1.0000; stroke:none;">
<circle cx="26.1383" cy="41.5285" r="1.0000" /> 
<path style="fill:#840000; fill-opacity:1.0000; stroke:none;fill-rule:evenodd;"
d="M 41.5983,29.7158
41.5983,27.9158
43.3983,27.9158
43.3983,29.7158
Z" /> 
</g>
<g style="fill:#840000; fill-opacity:1.0000; stroke:none;">
<circle cx="44.9983" cy="28.8158" r="0.9000" /> 
</g>
<g style="fill:#840000; fill-opacity:1.0000; stroke:none;">
<circle cx="47.4983" cy="28.8158" r="0.9000" /> 
</g>
<g style="fill:#840000; fill-opacity:1.0000; stroke:none;">
<circle cx="42.4983" cy="34.8158" r="0.9000" /> 
</g>
<g style="fill:#840000; fill-opacity:1.0000; stroke:none;">
<circle cx="44.9983" cy="34.8158" r="0.9000" /> 
</g>
<g style="fill:#840000; fill-opacity:1.0000; stroke:none;">
<circle cx="47.4983" cy="34.8158" r="0.9000" /> 
<path style="fill:#840000; fill-opacity:1.0000; stroke:none;fill-rule:evenodd;"
d="M 29.1583,48.8595
29.1774,48.7638
29.2316,48.6827
29.3127,48.6285
29.4083,48.6095
30.6083,48.6095
30.7040,48.6285
30.7851,48.6827
30.8393,48.7638
30.8583,48.8595
30.8583,50.3095
30.8393,50.4052
30.7851,50.4863
30.7040,50.5405
30.6083,50.5595
29.4083,50.5595
29.3127,50.5405
29.2316,50.4863
29.1774,50.4052
29.1583,50.3095
Z" /> 
</g>
<g style="fill:none; 
stroke:#840000; stroke-width:1.7000; stroke-opacity:1; 
stroke-linecap:round; stroke-linejoin:round;">
<path d="M32.5083 49.4595
L32.5083 49.7095
" />
<path d="M35.0083 49.4595
L35.0083 49.7095
" />
<path d="M37.5083 49.4595
L37.5083 49.7095
" />
</g>
<g style="fill:#840000; fill-opacity:1.0000; stroke:none;">
<circle cx="36.2983" cy="41.5285" r="1.0000" /> 
</g>
<g style="fill:none; 
stroke:#840000; stroke-width:0.2540; stroke-opacity:1; 
stroke-linecap:round; stroke-linejoin:round;">
<path d="M21.7583 15.6335
L22.3233 15.0685
" />
<path d="M21.7583 22.4745
L21.7583 15.6335
" />
<path d="M41.3783 48.1325
L41.3783 41.5285
" />
<path d="M20.0183 15.3035
L19.7833 15.0685
" />
<path d="M41.3783 41.5285
L41.3783 37.7185
" />
<path d="M41.3783 37.7185
L40.3623 36.7025
" />
<path d="M39.9263 49.5845
L41.3783 48.1325
" />
<path d="M19.7833 15.0685
L19.7883 15.0685
" />
<path d="M40.3623 30.9518
L42.4983 28.8158
" />
<path d="M40.3623 36.7025
L40.3623 30.9518
" />
<path d="M37.5083 49.5845
L39.9263 49.5845
" />
<path d="M20.0183 28.8158
L20.0183 15.3035
" />
<path d="M36.0783 15.8145
L36.8243 15.0685
" />
<path d="M36.0783 22.4745
L36.0783 15.8145
" />
<path d="M45.1923 15.0685
L36.8243 15.0685
" />
<path d="M27.5903 49.5845
L26.1383 48.1325
" />
<path d="M26.1283 41.5185
L26.1383 41.5285
" />
<path d="M26.1383 48.1325
L26.1383 41.5285
" />
<path d="M26.1383 41.5285
L26.1643 41.5285
" />
<path d="M27.1583 30.9558
L25.0183 28.8158
" />
<path d="M27.1583 40.5345
L27.1583 30.9558
" />
<path d="M30.0083 49.5845
L27.5903 49.5845
" />
<path d="M26.1643 41.5285
L27.1583 40.5345
" />
<path d="M31.2183 41.1745
L31.9183 40.4745
" />
<path d="M31.9183 40.4745
L31.9183 22.4745
" />
<path d="M26.1183 22.4745
L31.9183 22.4745
" />
<path d="M22.5183 26.0745
L26.1183 22.4745
" />
<path d="M31.2183 41.5285
L31.2183 48.2945
" />
<path d="M31.2183 41.5285
L31.2183 41.1745
" />
<path d="M31.2183 48.2945
L32.5083 49.5845
" />
<path d="M22.5183 28.8158
L22.5183 26.0745
" />
<path d="M36.2983 41.5285
L36.2983 48.2945
" />
<path d="M36.2983 26.3945
L36.2983 41.5285
" />
<path d="M40.2183 22.4745
L36.2983 26.3945
" />
<path d="M46.2383 22.4745
L40.2183 22.4745
" />
<path d="M36.2983 48.2945
L35.0083 49.5845
" />
</g>
<g style="fill:#FFFFFF; fill-opacity:1.0000; stroke:none;">
<circle cx="31.9183" cy="22.4745" r="0.4000" /> 
</g>
<g style="fill:#FFFFFF; fill-opacity:1.0000; stroke:none;">
<circle cx="21.7583" cy="22.4745" r="0.4000" /> 
</g>
<g style="fill:#FFFFFF; fill-opacity:1.0000; stroke:none;">
<circle cx="54.8583" cy="14.0345" r="1.5000" /> 
</g>
<g style="fill:#FFFFFF; fill-opacity:1.0000; stroke:none;">
<circle cx="31.2183" cy="41.5285" r="0.5000" /> 
</g>
<g style="fill:#FFFFFF; fill-opacity:1.0000; stroke:none;">
<circle cx="54.8583" cy="53.4345" r="1.5000" /> 
</g>
<g style="fill:#FFFFFF; fill-opacity:1.0000; stroke:none;">
<circle cx="20.0183" cy="28.8158" r="0.4500" /> 
</g>
<g style="fill:#FFFFFF; fill-opacity:1.0000; stroke:none;">
<circle cx="22.5183" cy="28.8158" r="0.4500" /> 
</g>
<g style="fill:#FFFFFF; fill-opacity:1.0000; stroke:none;">
<circle cx="25.0183" cy="28.8158" r="0.4500" /> 
</g>
<g style="fill:#FFFFFF; fill-opacity:1.0000; stroke:none;">
<circle cx="20.0183" cy="34.8158" r="0.4500" /> 
</g>
<g style="fill:#FFFFFF; fill-opacity:1.0000; stroke:none;">
<circle cx="22.5183" cy="34.8158" r="0.4500" /> 
</g>
<g style="fill:#FFFFFF; fill-opacity:1.0000; stroke:none;">
<circle cx="25.0183" cy="34.8158" r="0.4500" /> 
</g>
<g style="fill:#FFFFFF; fill-opacity:1.0000; stroke:none;">
<circle cx="41.3783" cy="41.5285" r="0.5000" /> 
</g>
<g style="fill:#FFFFFF; fill-opacity:1.0000; stroke:none;">
<circle cx="46.2383" cy="22.4745" r="0.4000" /> 
</g>
<g style="fill:#FFFFFF; fill-opacity:1.0000; stroke:none;">
<circle cx="36.0783" cy="22.4745" r="0.4000" /> 
</g>
<g style="fill:#FFFFFF; fill-opacity:1.0000; stroke:none;">
<circle cx="19.7833" cy="15.0685" r="0.4500" /> 
</g>
<g style="fill:#FFFFFF; fill-opacity:1.0000; stroke:none;">
<circle cx="22.3233" cy="15.0685" r="0.4500" /> 
</g>
<g style="fill:#FFFFFF; fill-opacity:1.0000; stroke:none;">
<circle cx="47.7323" cy="15.0685" r="0.4500" /> 
</g>
<g style="fill:#FFFFFF; fill-opacity:1.0000; stroke:none;">
<circle cx="45.1923" cy="15.0685" r="0.4500" /> 
</g>
<g style="fill:#FFFFFF; fill-opacity:1.0000; stroke:none;">
<circle cx="26.1383" cy="41.5285" r="0.5000" /> 
</g>
<g style="fill:#FFFFFF; fill-opacity:1.0000; stroke:none;">
<circle cx="12.6583" cy="53.4345" r="1.5000" /> 
</g>
<g style="fill:#FFFFFF; fill-opacity:1.0000; stroke:none;">
<circle cx="42.4983" cy="28.8158" r="0.4500" /> 
</g>
<g style="fill:#FFFFFF; fill-opacity:1.0000; stroke:none;">
<circle cx="44.9983" cy="28.8158" r="0.4500" /> 
</g>
<g style="fill:#FFFFFF; fill-opacity:1.0000; stroke:none;">
<circle cx="47.4983" cy="28.8158" r="0.4500" /> 
</g>
<g style="fill:#FFFFFF; fill-opacity:1.0000; stroke:none;">
<circle cx="42.4983" cy="34.8158" r="0.4500" /> 
</g>
<g style="fill:#FFFFFF; fill-opacity:1.0000; stroke:none;">
<circle cx="44.9983" cy="34.8158" r="0.4500" /> 
</g>
<g style="fill:#FFFFFF; fill-opacity:1.0000; stroke:none;">
<circle cx="47.4983" cy="34.8158" r="0.4500" /> 
</g>
<g style="fill:#FFFFFF; fill-opacity:1.0000; stroke:none;">
<circle cx="30.0083" cy="49.5845" r="0.4750" /> 
</g>
<g style="fill:#FFFFFF; fill-opacity:1.0000; stroke:none;">
<circle cx="32.5083" cy="49.5845" r="0.4750" /> 
</g>
<g style="fill:#FFFFFF; fill-opacity:1.0000; stroke:none;">
<circle cx="35.0083" cy="49.5845" r="0.4750" /> 
</g>
<g style="fill:#FFFFFF; fill-opacity:1.0000; stroke:none;">
<circle cx="37.5083" cy="49.5845" r="0.4750" /> 
</g>
<g style="fill:#FFFFFF; fill-opacity:1.0000; stroke:none;">
<circle cx="36.2983" cy="41.5285" r="0.5000" /> 
</g>
<g style="fill:#FFFFFF; fill-opacity:1.0000; stroke:none;">
<circle cx="12.6583" cy="14.0345" r="1.5000" /> 
</g> 
</svg>
